G04 EAGLE Gerber RS-274X export*
G75*
%MOMM*%
%FSLAX34Y34*%
%LPD*%
%INTop Copper*%
%IPPOS*%
%AMOC8*
5,1,8,0,0,1.08239X$1,22.5*%
G01*
G04 Define Apertures*
%ADD10R,1.778000X1.778000*%
%ADD11C,1.778000*%
%ADD12C,1.905000*%
%ADD13C,0.152400*%
D10*
X133700Y227300D03*
D11*
X133700Y252700D03*
X159100Y227300D03*
X159100Y252700D03*
X184500Y227300D03*
X184500Y252700D03*
X209900Y227300D03*
X209900Y252700D03*
X235300Y227300D03*
X235300Y252700D03*
X260700Y227300D03*
X260700Y252700D03*
X286100Y227300D03*
X286100Y252700D03*
X311500Y227300D03*
X311500Y252700D03*
X336900Y227300D03*
X336900Y252700D03*
X362300Y227300D03*
X362300Y252700D03*
X387700Y227300D03*
X387700Y252700D03*
X413100Y227300D03*
X413100Y252700D03*
X438500Y227300D03*
X438500Y252700D03*
X463900Y227300D03*
X463900Y252700D03*
X489300Y227300D03*
X489300Y252700D03*
X514700Y227300D03*
X514700Y252700D03*
X540100Y227300D03*
X540100Y252700D03*
X565500Y227300D03*
X565500Y252700D03*
X590900Y227300D03*
X590900Y252700D03*
X616300Y227300D03*
X616300Y252700D03*
D12*
X939800Y431800D03*
X939800Y406400D03*
X939800Y381000D03*
X939800Y355600D03*
X939800Y330200D03*
X939800Y304800D03*
X939800Y279400D03*
X939800Y254000D03*
X939800Y228600D03*
X939800Y203200D03*
X939800Y177800D03*
X939800Y152400D03*
X939800Y127000D03*
X939800Y101600D03*
X939800Y76200D03*
X939800Y50800D03*
X736600Y431800D03*
X736600Y406400D03*
X736600Y381000D03*
X736600Y355600D03*
X736600Y330200D03*
X736600Y304800D03*
X736600Y279400D03*
X736600Y254000D03*
X736600Y228600D03*
X736600Y203200D03*
X736600Y177800D03*
X736600Y152400D03*
D13*
X219456Y251460D02*
X210312Y251460D01*
X219456Y251460D02*
X230124Y240792D01*
X493776Y240792D01*
X502920Y249936D01*
X926592Y368808D02*
X938784Y381000D01*
X210312Y251460D02*
X209900Y252700D01*
X938784Y381000D02*
X939800Y381000D01*
X926592Y368808D02*
X584969Y368808D01*
X502920Y286759D01*
X502920Y249936D01*
X333248Y393192D02*
X235300Y295244D01*
X235300Y252700D01*
X333248Y393192D02*
X926592Y393192D01*
X939800Y406400D01*
X562864Y316992D02*
X514700Y268828D01*
X514700Y252700D01*
X562864Y316992D02*
X926592Y316992D01*
X939800Y330200D01*
X548640Y227076D02*
X541020Y227076D01*
X909828Y266700D02*
X935736Y292608D01*
X944880Y292608D01*
X952500Y300228D01*
X952500Y342900D01*
X939800Y355600D01*
X541020Y227076D02*
X540100Y227300D01*
X816803Y266700D02*
X909828Y266700D01*
X816803Y266700D02*
X765431Y215328D01*
X560388Y215328D01*
X548640Y227076D01*
X524256Y228600D02*
X515112Y228600D01*
X524256Y228600D02*
X536448Y240792D01*
X629412Y240792D01*
X681228Y292608D01*
X926592Y292608D01*
X938784Y304800D01*
X515112Y228600D02*
X514700Y227300D01*
X938784Y304800D02*
X939800Y304800D01*
X736092Y204216D02*
X180594Y204216D01*
X736092Y204216D02*
X736600Y203200D01*
X171450Y213360D02*
X171450Y240350D01*
X171450Y213360D02*
X180594Y204216D01*
X159100Y252700D02*
X133700Y252700D01*
X159100Y252700D02*
X171450Y240350D01*
M02*
