G04 EAGLE Gerber RS-274X export*
G75*
%MOMM*%
%FSLAX34Y34*%
%LPD*%
%INBottom Copper*%
%IPPOS*%
%AMOC8*
5,1,8,0,0,1.08239X$1,22.5*%
G01*
G04 Define Apertures*
%ADD10R,1.778000X1.778000*%
%ADD11C,1.778000*%
%ADD12C,1.905000*%
G36*
X60143Y241D02*
X58954Y0D01*
X33208Y0D01*
X32109Y205D01*
X31087Y859D01*
X30401Y1859D01*
X30160Y3048D01*
X30160Y3971D01*
X28105Y11641D01*
X24134Y18519D01*
X18519Y24134D01*
X11641Y28105D01*
X3971Y30160D01*
X3048Y30160D01*
X1949Y30365D01*
X927Y31019D01*
X241Y32019D01*
X0Y33208D01*
X0Y466792D01*
X205Y467891D01*
X859Y468913D01*
X1859Y469599D01*
X3048Y469840D01*
X3971Y469840D01*
X11641Y471895D01*
X18519Y475866D01*
X24134Y481481D01*
X28105Y488359D01*
X30160Y496029D01*
X30160Y496952D01*
X30365Y498051D01*
X31019Y499073D01*
X32019Y499759D01*
X33208Y500000D01*
X966792Y500000D01*
X967891Y499795D01*
X968913Y499141D01*
X969599Y498141D01*
X969840Y496952D01*
X969840Y496029D01*
X971895Y488359D01*
X975866Y481481D01*
X981481Y475866D01*
X988359Y471895D01*
X996029Y469840D01*
X996952Y469840D01*
X998051Y469635D01*
X999073Y468981D01*
X999759Y467981D01*
X1000000Y466792D01*
X1000000Y33208D01*
X999795Y32109D01*
X999141Y31087D01*
X998141Y30401D01*
X996952Y30160D01*
X996029Y30160D01*
X988359Y28105D01*
X981481Y24134D01*
X975866Y18519D01*
X971895Y11641D01*
X969840Y3971D01*
X969840Y3048D01*
X969635Y1949D01*
X968981Y927D01*
X967981Y241D01*
X966792Y0D01*
X951336Y0D01*
X950641Y80D01*
X949539Y586D01*
X948721Y1482D01*
X948317Y2626D01*
X948392Y3837D01*
X949960Y9690D01*
X949960Y15710D01*
X948402Y21524D01*
X945393Y26736D01*
X941136Y30993D01*
X940217Y31523D01*
X939691Y31907D01*
X938974Y32885D01*
X938695Y34066D01*
X938898Y35262D01*
X939552Y36284D01*
X940552Y36970D01*
X941741Y37211D01*
X942503Y37211D01*
X947498Y39280D01*
X951320Y43102D01*
X953389Y48097D01*
X953389Y53503D01*
X951320Y58498D01*
X948473Y61345D01*
X947841Y62267D01*
X947581Y63451D01*
X947803Y64644D01*
X948473Y65655D01*
X951320Y68502D01*
X953389Y73497D01*
X953389Y78903D01*
X951320Y83898D01*
X948473Y86745D01*
X947841Y87667D01*
X947581Y88851D01*
X947803Y90044D01*
X948473Y91055D01*
X951320Y93902D01*
X953389Y98897D01*
X953389Y104303D01*
X951320Y109298D01*
X947395Y113222D01*
X946763Y114144D01*
X946503Y115329D01*
X946725Y116522D01*
X947395Y117533D01*
X950028Y120166D01*
X951865Y124600D01*
X951865Y124968D01*
X927735Y124968D01*
X927735Y124600D01*
X929572Y120166D01*
X932205Y117533D01*
X932837Y116611D01*
X933097Y115426D01*
X932875Y114234D01*
X932205Y113222D01*
X928280Y109298D01*
X926211Y104303D01*
X926211Y98897D01*
X928280Y93902D01*
X931127Y91055D01*
X931759Y90133D01*
X932019Y88949D01*
X931797Y87756D01*
X931127Y86745D01*
X928280Y83898D01*
X926211Y78903D01*
X926211Y73497D01*
X928280Y68502D01*
X931127Y65655D01*
X931759Y64733D01*
X932019Y63549D01*
X931797Y62356D01*
X931127Y61345D01*
X928280Y58498D01*
X926211Y53503D01*
X926211Y48097D01*
X928280Y43102D01*
X930619Y40763D01*
X931231Y39886D01*
X931510Y38705D01*
X931307Y37509D01*
X930653Y36487D01*
X929653Y35801D01*
X928464Y35560D01*
X924090Y35560D01*
X918276Y34002D01*
X913064Y30993D01*
X908808Y26736D01*
X905798Y21524D01*
X904240Y15710D01*
X904240Y9690D01*
X905808Y3837D01*
X905911Y3145D01*
X905707Y1949D01*
X905054Y927D01*
X904053Y241D01*
X902864Y0D01*
X773536Y0D01*
X772841Y80D01*
X771739Y586D01*
X770921Y1482D01*
X770517Y2626D01*
X770592Y3837D01*
X772160Y9690D01*
X772160Y15710D01*
X770602Y21524D01*
X767593Y26736D01*
X763336Y30993D01*
X758124Y34002D01*
X752310Y35560D01*
X746290Y35560D01*
X740476Y34002D01*
X735264Y30993D01*
X731008Y26736D01*
X727998Y21524D01*
X726440Y15710D01*
X726440Y9690D01*
X728008Y3837D01*
X728111Y3145D01*
X727907Y1949D01*
X727254Y927D01*
X726253Y241D01*
X725064Y0D01*
X691046Y0D01*
X690352Y80D01*
X689249Y586D01*
X688431Y1482D01*
X688028Y2626D01*
X688102Y3837D01*
X688910Y6852D01*
X688910Y13148D01*
X687281Y19229D01*
X684133Y24681D01*
X679681Y29133D01*
X674229Y32281D01*
X668148Y33910D01*
X661852Y33910D01*
X655771Y32281D01*
X650319Y29133D01*
X645867Y24681D01*
X642719Y19229D01*
X641090Y13148D01*
X641090Y6852D01*
X641898Y3837D01*
X642000Y3145D01*
X641797Y1949D01*
X641143Y927D01*
X640143Y241D01*
X638954Y0D01*
X111046Y0D01*
X110352Y80D01*
X109249Y586D01*
X108431Y1482D01*
X108028Y2626D01*
X108102Y3837D01*
X108910Y6852D01*
X108910Y13148D01*
X107281Y19229D01*
X104133Y24681D01*
X99681Y29133D01*
X94229Y32281D01*
X88148Y33910D01*
X81852Y33910D01*
X75771Y32281D01*
X70319Y29133D01*
X65867Y24681D01*
X62719Y19229D01*
X61090Y13148D01*
X61090Y6852D01*
X61898Y3837D01*
X62000Y3145D01*
X61797Y1949D01*
X61143Y927D01*
X60143Y241D01*
G37*
%LPC*%
G36*
X733897Y138811D02*
X739303Y138811D01*
X744298Y140880D01*
X748120Y144702D01*
X750189Y149697D01*
X750189Y155103D01*
X748120Y160098D01*
X745273Y162945D01*
X744641Y163867D01*
X744381Y165051D01*
X744603Y166244D01*
X745273Y167255D01*
X748120Y170102D01*
X750189Y175097D01*
X750189Y180503D01*
X748120Y185498D01*
X745273Y188345D01*
X744641Y189267D01*
X744381Y190451D01*
X744603Y191644D01*
X745273Y192655D01*
X748120Y195502D01*
X750189Y200497D01*
X750189Y205903D01*
X748120Y210898D01*
X745273Y213745D01*
X744641Y214667D01*
X744381Y215851D01*
X744603Y217044D01*
X745273Y218055D01*
X748120Y220902D01*
X750189Y225897D01*
X750189Y231303D01*
X748120Y236298D01*
X745273Y239145D01*
X744641Y240067D01*
X744381Y241251D01*
X744603Y242444D01*
X745273Y243455D01*
X748120Y246302D01*
X750189Y251297D01*
X750189Y256703D01*
X748120Y261698D01*
X745273Y264545D01*
X744641Y265467D01*
X744381Y266651D01*
X744603Y267844D01*
X745273Y268855D01*
X748120Y271702D01*
X750189Y276697D01*
X750189Y282103D01*
X748120Y287098D01*
X745273Y289945D01*
X744641Y290867D01*
X744381Y292051D01*
X744603Y293244D01*
X745273Y294255D01*
X748120Y297102D01*
X750189Y302097D01*
X750189Y307503D01*
X748120Y312498D01*
X745273Y315345D01*
X744641Y316267D01*
X744381Y317451D01*
X744603Y318644D01*
X745273Y319655D01*
X748120Y322502D01*
X750189Y327497D01*
X750189Y332903D01*
X748120Y337898D01*
X745273Y340745D01*
X744641Y341667D01*
X744381Y342851D01*
X744603Y344044D01*
X745273Y345055D01*
X748120Y347902D01*
X750189Y352897D01*
X750189Y358303D01*
X748120Y363298D01*
X745273Y366145D01*
X744641Y367067D01*
X744381Y368251D01*
X744603Y369444D01*
X745273Y370455D01*
X748120Y373302D01*
X750189Y378297D01*
X750189Y383703D01*
X748120Y388698D01*
X745273Y391545D01*
X744641Y392467D01*
X744381Y393651D01*
X744603Y394844D01*
X745273Y395855D01*
X748120Y398702D01*
X750189Y403697D01*
X750189Y409103D01*
X748120Y414098D01*
X745273Y416945D01*
X744641Y417867D01*
X744381Y419051D01*
X744603Y420244D01*
X745273Y421255D01*
X748120Y424102D01*
X750189Y429097D01*
X750189Y434503D01*
X748120Y439498D01*
X745781Y441837D01*
X745169Y442714D01*
X744890Y443895D01*
X745093Y445091D01*
X745747Y446113D01*
X746747Y446799D01*
X747936Y447040D01*
X752310Y447040D01*
X758124Y448598D01*
X763336Y451608D01*
X767593Y455864D01*
X770602Y461076D01*
X772160Y466890D01*
X772160Y472910D01*
X770602Y478724D01*
X767593Y483936D01*
X763336Y488193D01*
X758124Y491202D01*
X752310Y492760D01*
X746290Y492760D01*
X740476Y491202D01*
X735264Y488193D01*
X731008Y483936D01*
X727998Y478724D01*
X726440Y472910D01*
X726440Y466890D01*
X727998Y461076D01*
X731008Y455864D01*
X735264Y451607D01*
X736183Y451077D01*
X736709Y450693D01*
X737426Y449715D01*
X737705Y448534D01*
X737502Y447338D01*
X736848Y446316D01*
X735848Y445630D01*
X734659Y445389D01*
X733897Y445389D01*
X728902Y443320D01*
X725080Y439498D01*
X723011Y434503D01*
X723011Y429097D01*
X725080Y424102D01*
X727927Y421255D01*
X728559Y420333D01*
X728819Y419149D01*
X728597Y417956D01*
X727927Y416945D01*
X725080Y414098D01*
X723011Y409103D01*
X723011Y403697D01*
X725080Y398702D01*
X727927Y395855D01*
X728559Y394933D01*
X728819Y393749D01*
X728597Y392556D01*
X727927Y391545D01*
X725080Y388698D01*
X723011Y383703D01*
X723011Y378297D01*
X725080Y373302D01*
X727927Y370455D01*
X728559Y369533D01*
X728819Y368349D01*
X728597Y367156D01*
X727927Y366145D01*
X725080Y363298D01*
X723011Y358303D01*
X723011Y352897D01*
X725080Y347902D01*
X727927Y345055D01*
X728559Y344133D01*
X728819Y342949D01*
X728597Y341756D01*
X727927Y340745D01*
X725080Y337898D01*
X723011Y332903D01*
X723011Y327497D01*
X725080Y322502D01*
X727927Y319655D01*
X728559Y318733D01*
X728819Y317549D01*
X728597Y316356D01*
X727927Y315345D01*
X725080Y312498D01*
X723011Y307503D01*
X723011Y302097D01*
X725080Y297102D01*
X727927Y294255D01*
X728559Y293333D01*
X728819Y292149D01*
X728597Y290956D01*
X727927Y289945D01*
X725080Y287098D01*
X723011Y282103D01*
X723011Y276697D01*
X725080Y271702D01*
X727927Y268855D01*
X728559Y267933D01*
X728819Y266749D01*
X728597Y265556D01*
X727927Y264545D01*
X725080Y261698D01*
X723011Y256703D01*
X723011Y251297D01*
X725080Y246302D01*
X727927Y243455D01*
X728559Y242533D01*
X728819Y241349D01*
X728597Y240156D01*
X727927Y239145D01*
X725080Y236298D01*
X723011Y231303D01*
X723011Y225897D01*
X725080Y220902D01*
X727927Y218055D01*
X728559Y217133D01*
X728819Y215949D01*
X728597Y214756D01*
X727927Y213745D01*
X725080Y210898D01*
X723011Y205903D01*
X723011Y200497D01*
X725080Y195502D01*
X727927Y192655D01*
X728559Y191733D01*
X728819Y190549D01*
X728597Y189356D01*
X727927Y188345D01*
X725080Y185498D01*
X723011Y180503D01*
X723011Y175097D01*
X725080Y170102D01*
X727927Y167255D01*
X728559Y166333D01*
X728819Y165149D01*
X728597Y163956D01*
X727927Y162945D01*
X725080Y160098D01*
X723011Y155103D01*
X723011Y149697D01*
X725080Y144702D01*
X728902Y140880D01*
X733897Y138811D01*
G37*
G36*
X927735Y129032D02*
X951865Y129032D01*
X951865Y129400D01*
X950028Y133834D01*
X947395Y136467D01*
X946763Y137389D01*
X946503Y138574D01*
X946725Y139766D01*
X947395Y140778D01*
X951320Y144702D01*
X953389Y149697D01*
X953389Y155103D01*
X951320Y160098D01*
X948473Y162945D01*
X947841Y163867D01*
X947581Y165051D01*
X947803Y166244D01*
X948473Y167255D01*
X951320Y170102D01*
X953389Y175097D01*
X953389Y180503D01*
X951320Y185498D01*
X948473Y188345D01*
X947841Y189267D01*
X947581Y190451D01*
X947803Y191644D01*
X948473Y192655D01*
X951320Y195502D01*
X953389Y200497D01*
X953389Y205903D01*
X951320Y210898D01*
X948473Y213745D01*
X947841Y214667D01*
X947581Y215851D01*
X947803Y217044D01*
X948473Y218055D01*
X951320Y220902D01*
X953389Y225897D01*
X953389Y231303D01*
X951320Y236298D01*
X948473Y239145D01*
X947841Y240067D01*
X947581Y241251D01*
X947803Y242444D01*
X948473Y243455D01*
X951320Y246302D01*
X953389Y251297D01*
X953389Y256703D01*
X951320Y261698D01*
X948473Y264545D01*
X947841Y265467D01*
X947581Y266651D01*
X947803Y267844D01*
X948473Y268855D01*
X951320Y271702D01*
X953389Y276697D01*
X953389Y282103D01*
X951320Y287098D01*
X948473Y289945D01*
X947841Y290867D01*
X947581Y292051D01*
X947803Y293244D01*
X948473Y294255D01*
X951320Y297102D01*
X953389Y302097D01*
X953389Y307503D01*
X951320Y312498D01*
X948473Y315345D01*
X947841Y316267D01*
X947581Y317451D01*
X947803Y318644D01*
X948473Y319655D01*
X951320Y322502D01*
X953389Y327497D01*
X953389Y332903D01*
X951320Y337898D01*
X948473Y340745D01*
X947841Y341667D01*
X947581Y342851D01*
X947803Y344044D01*
X948473Y345055D01*
X951320Y347902D01*
X953389Y352897D01*
X953389Y358303D01*
X951320Y363298D01*
X948473Y366145D01*
X947841Y367067D01*
X947581Y368251D01*
X947803Y369444D01*
X948473Y370455D01*
X951320Y373302D01*
X953389Y378297D01*
X953389Y383703D01*
X951320Y388698D01*
X948473Y391545D01*
X947841Y392467D01*
X947581Y393651D01*
X947803Y394844D01*
X948473Y395855D01*
X951320Y398702D01*
X953389Y403697D01*
X953389Y409103D01*
X951320Y414098D01*
X948473Y416945D01*
X947841Y417867D01*
X947581Y419051D01*
X947803Y420244D01*
X948473Y421255D01*
X951320Y424102D01*
X953389Y429097D01*
X953389Y434503D01*
X951320Y439498D01*
X947498Y443320D01*
X942503Y445389D01*
X941741Y445389D01*
X941094Y445459D01*
X939983Y445947D01*
X939151Y446830D01*
X938729Y447967D01*
X938785Y449179D01*
X939308Y450273D01*
X940217Y451077D01*
X941136Y451607D01*
X945393Y455864D01*
X948402Y461076D01*
X949960Y466890D01*
X949960Y472910D01*
X948402Y478724D01*
X945393Y483936D01*
X941136Y488193D01*
X935924Y491202D01*
X930110Y492760D01*
X924090Y492760D01*
X918276Y491202D01*
X913064Y488193D01*
X908808Y483936D01*
X905798Y478724D01*
X904240Y472910D01*
X904240Y466890D01*
X905798Y461076D01*
X908808Y455864D01*
X913064Y451608D01*
X918276Y448598D01*
X924090Y447040D01*
X928464Y447040D01*
X929517Y446852D01*
X930549Y446215D01*
X931251Y445225D01*
X931511Y444041D01*
X931289Y442848D01*
X930619Y441837D01*
X928280Y439498D01*
X926211Y434503D01*
X926211Y429097D01*
X928280Y424102D01*
X931127Y421255D01*
X931759Y420333D01*
X932019Y419149D01*
X931797Y417956D01*
X931127Y416945D01*
X928280Y414098D01*
X926211Y409103D01*
X926211Y403697D01*
X928280Y398702D01*
X931127Y395855D01*
X931759Y394933D01*
X932019Y393749D01*
X931797Y392556D01*
X931127Y391545D01*
X928280Y388698D01*
X926211Y383703D01*
X926211Y378297D01*
X928280Y373302D01*
X931127Y370455D01*
X931759Y369533D01*
X932019Y368349D01*
X931797Y367156D01*
X931127Y366145D01*
X928280Y363298D01*
X926211Y358303D01*
X926211Y352897D01*
X928280Y347902D01*
X931127Y345055D01*
X931759Y344133D01*
X932019Y342949D01*
X931797Y341756D01*
X931127Y340745D01*
X928280Y337898D01*
X926211Y332903D01*
X926211Y327497D01*
X928280Y322502D01*
X931127Y319655D01*
X931759Y318733D01*
X932019Y317549D01*
X931797Y316356D01*
X931127Y315345D01*
X928280Y312498D01*
X926211Y307503D01*
X926211Y302097D01*
X928280Y297102D01*
X931127Y294255D01*
X931759Y293333D01*
X932019Y292149D01*
X931797Y290956D01*
X931127Y289945D01*
X928280Y287098D01*
X926211Y282103D01*
X926211Y276697D01*
X928280Y271702D01*
X931127Y268855D01*
X931759Y267933D01*
X932019Y266749D01*
X931797Y265556D01*
X931127Y264545D01*
X928280Y261698D01*
X926211Y256703D01*
X926211Y251297D01*
X928280Y246302D01*
X931127Y243455D01*
X931759Y242533D01*
X932019Y241349D01*
X931797Y240156D01*
X931127Y239145D01*
X928280Y236298D01*
X926211Y231303D01*
X926211Y225897D01*
X928280Y220902D01*
X931127Y218055D01*
X931759Y217133D01*
X932019Y215949D01*
X931797Y214756D01*
X931127Y213745D01*
X928280Y210898D01*
X926211Y205903D01*
X926211Y200497D01*
X928280Y195502D01*
X931127Y192655D01*
X931759Y191733D01*
X932019Y190549D01*
X931797Y189356D01*
X931127Y188345D01*
X928280Y185498D01*
X926211Y180503D01*
X926211Y175097D01*
X928280Y170102D01*
X931127Y167255D01*
X931759Y166333D01*
X932019Y165149D01*
X931797Y163956D01*
X931127Y162945D01*
X928280Y160098D01*
X926211Y155103D01*
X926211Y149697D01*
X928280Y144702D01*
X932205Y140778D01*
X932837Y139856D01*
X933097Y138671D01*
X932875Y137478D01*
X932205Y136467D01*
X929572Y133834D01*
X927735Y129400D01*
X927735Y129032D01*
G37*
G36*
X124002Y214346D02*
X143398Y214346D01*
X144892Y214965D01*
X146046Y216118D01*
X146622Y217011D01*
X147611Y217713D01*
X148796Y217973D01*
X149988Y217750D01*
X151000Y217080D01*
X151762Y216318D01*
X156523Y214346D01*
X161677Y214346D01*
X166438Y216318D01*
X169645Y219525D01*
X170567Y220157D01*
X171751Y220417D01*
X172944Y220195D01*
X173955Y219525D01*
X177162Y216318D01*
X181923Y214346D01*
X187077Y214346D01*
X191838Y216318D01*
X195045Y219525D01*
X195967Y220157D01*
X197151Y220417D01*
X198344Y220195D01*
X199355Y219525D01*
X202562Y216318D01*
X207323Y214346D01*
X212477Y214346D01*
X217238Y216318D01*
X220445Y219525D01*
X221367Y220157D01*
X222551Y220417D01*
X223744Y220195D01*
X224755Y219525D01*
X227962Y216318D01*
X232723Y214346D01*
X237877Y214346D01*
X242638Y216318D01*
X245845Y219525D01*
X246767Y220157D01*
X247951Y220417D01*
X249144Y220195D01*
X250155Y219525D01*
X253362Y216318D01*
X258123Y214346D01*
X263277Y214346D01*
X268038Y216318D01*
X271245Y219525D01*
X272167Y220157D01*
X273351Y220417D01*
X274544Y220195D01*
X275555Y219525D01*
X278762Y216318D01*
X283523Y214346D01*
X288677Y214346D01*
X293438Y216318D01*
X296645Y219525D01*
X297567Y220157D01*
X298751Y220417D01*
X299944Y220195D01*
X300955Y219525D01*
X304162Y216318D01*
X308923Y214346D01*
X314077Y214346D01*
X318838Y216318D01*
X322045Y219525D01*
X322967Y220157D01*
X324151Y220417D01*
X325344Y220195D01*
X326355Y219525D01*
X329562Y216318D01*
X334323Y214346D01*
X339477Y214346D01*
X344238Y216318D01*
X347445Y219525D01*
X348367Y220157D01*
X349551Y220417D01*
X350744Y220195D01*
X351755Y219525D01*
X354962Y216318D01*
X359723Y214346D01*
X364877Y214346D01*
X369638Y216318D01*
X372845Y219525D01*
X373767Y220157D01*
X374951Y220417D01*
X376144Y220195D01*
X377155Y219525D01*
X380362Y216318D01*
X385123Y214346D01*
X390277Y214346D01*
X395038Y216318D01*
X398245Y219525D01*
X399167Y220157D01*
X400351Y220417D01*
X401544Y220195D01*
X402555Y219525D01*
X405762Y216318D01*
X410523Y214346D01*
X415677Y214346D01*
X420438Y216318D01*
X423645Y219525D01*
X424567Y220157D01*
X425751Y220417D01*
X426944Y220195D01*
X427955Y219525D01*
X431162Y216318D01*
X435923Y214346D01*
X441077Y214346D01*
X445838Y216318D01*
X449045Y219525D01*
X449967Y220157D01*
X451151Y220417D01*
X452344Y220195D01*
X453355Y219525D01*
X456562Y216318D01*
X461323Y214346D01*
X466477Y214346D01*
X471238Y216318D01*
X474445Y219525D01*
X475367Y220157D01*
X476551Y220417D01*
X477744Y220195D01*
X478755Y219525D01*
X481962Y216318D01*
X486723Y214346D01*
X491877Y214346D01*
X496638Y216318D01*
X499845Y219525D01*
X500767Y220157D01*
X501951Y220417D01*
X503144Y220195D01*
X504155Y219525D01*
X507362Y216318D01*
X512123Y214346D01*
X517277Y214346D01*
X522038Y216318D01*
X525245Y219525D01*
X526167Y220157D01*
X527351Y220417D01*
X528544Y220195D01*
X529555Y219525D01*
X532762Y216318D01*
X537523Y214346D01*
X542677Y214346D01*
X547438Y216318D01*
X550645Y219525D01*
X551567Y220157D01*
X552751Y220417D01*
X553944Y220195D01*
X554955Y219525D01*
X558162Y216318D01*
X562923Y214346D01*
X568077Y214346D01*
X572838Y216318D01*
X576045Y219525D01*
X576967Y220157D01*
X578151Y220417D01*
X579344Y220195D01*
X580355Y219525D01*
X583562Y216318D01*
X588323Y214346D01*
X593477Y214346D01*
X598238Y216318D01*
X601445Y219525D01*
X602367Y220157D01*
X603551Y220417D01*
X604744Y220195D01*
X605755Y219525D01*
X608962Y216318D01*
X613723Y214346D01*
X618877Y214346D01*
X623638Y216318D01*
X627282Y219962D01*
X629254Y224723D01*
X629254Y229877D01*
X627282Y234638D01*
X624075Y237845D01*
X623443Y238767D01*
X623183Y239951D01*
X623405Y241144D01*
X624075Y242155D01*
X627282Y245362D01*
X629254Y250123D01*
X629254Y255277D01*
X627282Y260038D01*
X623638Y263682D01*
X618877Y265654D01*
X613723Y265654D01*
X608962Y263682D01*
X605755Y260475D01*
X604833Y259843D01*
X603649Y259583D01*
X602456Y259805D01*
X601445Y260475D01*
X598238Y263682D01*
X593477Y265654D01*
X588323Y265654D01*
X583562Y263682D01*
X580355Y260475D01*
X579433Y259843D01*
X578249Y259583D01*
X577056Y259805D01*
X576045Y260475D01*
X572838Y263682D01*
X568077Y265654D01*
X562923Y265654D01*
X558162Y263682D01*
X554955Y260475D01*
X554033Y259843D01*
X552849Y259583D01*
X551656Y259805D01*
X550645Y260475D01*
X547438Y263682D01*
X542677Y265654D01*
X537523Y265654D01*
X532762Y263682D01*
X529555Y260475D01*
X528633Y259843D01*
X527449Y259583D01*
X526256Y259805D01*
X525245Y260475D01*
X522038Y263682D01*
X517277Y265654D01*
X512123Y265654D01*
X507362Y263682D01*
X504155Y260475D01*
X503233Y259843D01*
X502049Y259583D01*
X500856Y259805D01*
X499845Y260475D01*
X496638Y263682D01*
X491877Y265654D01*
X486723Y265654D01*
X481962Y263682D01*
X478755Y260475D01*
X477833Y259843D01*
X476649Y259583D01*
X475456Y259805D01*
X474445Y260475D01*
X471238Y263682D01*
X466477Y265654D01*
X461323Y265654D01*
X456562Y263682D01*
X453355Y260475D01*
X452433Y259843D01*
X451249Y259583D01*
X450056Y259805D01*
X449045Y260475D01*
X445838Y263682D01*
X441077Y265654D01*
X435923Y265654D01*
X431162Y263682D01*
X427955Y260475D01*
X427033Y259843D01*
X425849Y259583D01*
X424656Y259805D01*
X423645Y260475D01*
X420438Y263682D01*
X415677Y265654D01*
X410523Y265654D01*
X405762Y263682D01*
X402555Y260475D01*
X401633Y259843D01*
X400449Y259583D01*
X399256Y259805D01*
X398245Y260475D01*
X395038Y263682D01*
X390277Y265654D01*
X385123Y265654D01*
X380362Y263682D01*
X377155Y260475D01*
X376233Y259843D01*
X375049Y259583D01*
X373856Y259805D01*
X372845Y260475D01*
X369638Y263682D01*
X364877Y265654D01*
X359723Y265654D01*
X354962Y263682D01*
X351755Y260475D01*
X350833Y259843D01*
X349649Y259583D01*
X348456Y259805D01*
X347445Y260475D01*
X344238Y263682D01*
X339477Y265654D01*
X334323Y265654D01*
X329562Y263682D01*
X326355Y260475D01*
X325433Y259843D01*
X324249Y259583D01*
X323056Y259805D01*
X322045Y260475D01*
X318838Y263682D01*
X314077Y265654D01*
X308923Y265654D01*
X304162Y263682D01*
X300955Y260475D01*
X300033Y259843D01*
X298849Y259583D01*
X297656Y259805D01*
X296645Y260475D01*
X293438Y263682D01*
X288677Y265654D01*
X283523Y265654D01*
X278762Y263682D01*
X275555Y260475D01*
X274633Y259843D01*
X273449Y259583D01*
X272256Y259805D01*
X271245Y260475D01*
X268038Y263682D01*
X263277Y265654D01*
X258123Y265654D01*
X253362Y263682D01*
X250155Y260475D01*
X249233Y259843D01*
X248049Y259583D01*
X246856Y259805D01*
X245845Y260475D01*
X242638Y263682D01*
X237877Y265654D01*
X232723Y265654D01*
X227962Y263682D01*
X224755Y260475D01*
X223833Y259843D01*
X222649Y259583D01*
X221456Y259805D01*
X220445Y260475D01*
X217238Y263682D01*
X212477Y265654D01*
X207323Y265654D01*
X202562Y263682D01*
X198748Y259868D01*
X198433Y259379D01*
X197444Y258678D01*
X196259Y258417D01*
X195066Y258640D01*
X194055Y259310D01*
X190975Y262390D01*
X186774Y264130D01*
X186532Y264130D01*
X186532Y250668D01*
X182468Y250668D01*
X182468Y264130D01*
X182226Y264130D01*
X178025Y262390D01*
X174945Y259310D01*
X174045Y258687D01*
X172863Y258418D01*
X171668Y258631D01*
X170652Y259293D01*
X170289Y259830D01*
X166438Y263682D01*
X161677Y265654D01*
X156523Y265654D01*
X151762Y263682D01*
X148555Y260475D01*
X147633Y259843D01*
X146449Y259583D01*
X145256Y259805D01*
X144245Y260475D01*
X141038Y263682D01*
X136277Y265654D01*
X131123Y265654D01*
X126362Y263682D01*
X122718Y260038D01*
X120746Y255277D01*
X120746Y250123D01*
X122718Y245362D01*
X123480Y244600D01*
X124103Y243700D01*
X124372Y242517D01*
X124159Y241323D01*
X123498Y240307D01*
X122521Y239648D01*
X121365Y238492D01*
X120746Y236998D01*
X120746Y217602D01*
X121365Y216108D01*
X122508Y214965D01*
X124002Y214346D01*
G37*
G36*
X661852Y216090D02*
X668148Y216090D01*
X674229Y217719D01*
X679681Y220867D01*
X684133Y225319D01*
X687281Y230771D01*
X688910Y236852D01*
X688910Y243148D01*
X687281Y249229D01*
X684133Y254681D01*
X679681Y259133D01*
X674229Y262281D01*
X668148Y263910D01*
X661852Y263910D01*
X655771Y262281D01*
X650319Y259133D01*
X645867Y254681D01*
X642719Y249229D01*
X641090Y243148D01*
X641090Y236852D01*
X642719Y230771D01*
X645867Y225319D01*
X650319Y220867D01*
X655771Y217719D01*
X661852Y216090D01*
G37*
G36*
X81852Y216090D02*
X88148Y216090D01*
X94229Y217719D01*
X99681Y220867D01*
X104133Y225319D01*
X107281Y230771D01*
X108910Y236852D01*
X108910Y243148D01*
X107281Y249229D01*
X104133Y254681D01*
X99681Y259133D01*
X94229Y262281D01*
X88148Y263910D01*
X81852Y263910D01*
X75771Y262281D01*
X70319Y259133D01*
X65867Y254681D01*
X62719Y249229D01*
X61090Y243148D01*
X61090Y236852D01*
X62719Y230771D01*
X65867Y225319D01*
X70319Y220867D01*
X75771Y217719D01*
X81852Y216090D01*
G37*
%LPD*%
D10*
X133700Y227300D03*
D11*
X133700Y252700D03*
X159100Y227300D03*
X159100Y252700D03*
X184500Y227300D03*
X184500Y252700D03*
X209900Y227300D03*
X209900Y252700D03*
X235300Y227300D03*
X235300Y252700D03*
X260700Y227300D03*
X260700Y252700D03*
X286100Y227300D03*
X286100Y252700D03*
X311500Y227300D03*
X311500Y252700D03*
X336900Y227300D03*
X336900Y252700D03*
X362300Y227300D03*
X362300Y252700D03*
X387700Y227300D03*
X387700Y252700D03*
X413100Y227300D03*
X413100Y252700D03*
X438500Y227300D03*
X438500Y252700D03*
X463900Y227300D03*
X463900Y252700D03*
X489300Y227300D03*
X489300Y252700D03*
X514700Y227300D03*
X514700Y252700D03*
X540100Y227300D03*
X540100Y252700D03*
X565500Y227300D03*
X565500Y252700D03*
X590900Y227300D03*
X590900Y252700D03*
X616300Y227300D03*
X616300Y252700D03*
D12*
X939800Y431800D03*
X939800Y406400D03*
X939800Y381000D03*
X939800Y355600D03*
X939800Y330200D03*
X939800Y304800D03*
X939800Y279400D03*
X939800Y254000D03*
X939800Y228600D03*
X939800Y203200D03*
X939800Y177800D03*
X939800Y152400D03*
X939800Y127000D03*
X939800Y101600D03*
X939800Y76200D03*
X939800Y50800D03*
X736600Y431800D03*
X736600Y406400D03*
X736600Y381000D03*
X736600Y355600D03*
X736600Y330200D03*
X736600Y304800D03*
X736600Y279400D03*
X736600Y254000D03*
X736600Y228600D03*
X736600Y203200D03*
X736600Y177800D03*
X736600Y152400D03*
M02*
