M48
;GenerationSoftware,Autodesk,EAGLE,9.7.0*%
;CreationDate,2026-06-16T17:22:57Z*%
FMAT,2
ICI,OFF
METRIC,TZ,000.000
T5C1.000
T4C1.270
T3C2.540
T2C2.750
T1C4.000
%
G90
M71
T1
X0Y0
X0Y50000
X100000Y50000
X100000Y0
T2
X8500Y1000
X8500Y24000
X66500Y1000
X66500Y24000
T3
X74930Y46990
X92710Y46990
X92710Y1270
X74930Y1270
T4
X73660Y15240
X93980Y40640
X73660Y17780
X73660Y20320
X73660Y22860
X73660Y25400
X73660Y27940
X73660Y30480
X73660Y33020
X73660Y35560
X73660Y38100
X73660Y40640
X73660Y43180
X93980Y5080
X93980Y7620
X93980Y10160
X93980Y12700
X93980Y15240
X93980Y17780
X93980Y20320
X93980Y22860
X93980Y25400
X93980Y27940
X93980Y30480
X93980Y33020
X93980Y35560
X93980Y38100
X93980Y43180
T5
X13370Y25270
X48930Y22730
X51470Y22730
X51470Y25270
X54010Y22730
X54010Y25270
X56550Y22730
X56550Y25270
X59090Y22730
X59090Y25270
X61630Y22730
X61630Y25270
X13370Y22730
X46390Y25270
X46390Y22730
X43850Y25270
X43850Y22730
X41310Y25270
X41310Y22730
X38770Y25270
X38770Y22730
X36230Y25270
X36230Y22730
X33690Y25270
X33690Y22730
X31150Y25270
X31150Y22730
X28610Y25270
X28610Y22730
X26070Y25270
X26070Y22730
X23530Y25270
X23530Y22730
X20990Y25270
X20990Y22730
X18450Y25270
X18450Y22730
X15910Y25270
X15910Y22730
X48930Y25270
M30