G04 EAGLE Gerber RS-274X export*
G75*
%MOMM*%
%FSLAX34Y34*%
%LPD*%
%IN*%
%IPPOS*%
%AMOC8*
5,1,8,0,0,1.08239X$1,22.5*%
G01*
G04 Define Apertures*
%ADD10C,0.254000*%
D10*
X-35000Y0D02*
X-34867Y-3050D01*
X-34468Y-6078D01*
X-33807Y-9059D01*
X-32889Y-11971D01*
X-31721Y-14792D01*
X-30311Y-17500D01*
X-28670Y-20075D01*
X-26812Y-22498D01*
X-24749Y-24749D01*
X-22498Y-26812D01*
X-20075Y-28670D01*
X-17500Y-30311D01*
X-14792Y-31721D01*
X-11971Y-32889D01*
X-9059Y-33807D01*
X-6078Y-34468D01*
X-3050Y-34867D01*
X0Y-35000D01*
X1000000Y-35000D01*
X1003050Y-34867D01*
X1006078Y-34468D01*
X1009059Y-33807D01*
X1011971Y-32889D01*
X1014792Y-31721D01*
X1017500Y-30311D01*
X1020075Y-28670D01*
X1022498Y-26812D01*
X1024749Y-24749D01*
X1026812Y-22498D01*
X1028670Y-20075D01*
X1030311Y-17500D01*
X1031721Y-14792D01*
X1032889Y-11971D01*
X1033807Y-9059D01*
X1034468Y-6078D01*
X1034867Y-3050D01*
X1035000Y0D01*
X1035000Y500000D01*
X1034867Y503050D01*
X1034468Y506078D01*
X1033807Y509059D01*
X1032889Y511971D01*
X1031721Y514792D01*
X1030311Y517500D01*
X1028670Y520075D01*
X1026812Y522498D01*
X1024749Y524749D01*
X1022498Y526812D01*
X1020075Y528670D01*
X1017500Y530311D01*
X1014792Y531721D01*
X1011971Y532889D01*
X1009059Y533807D01*
X1006078Y534468D01*
X1003050Y534867D01*
X1000000Y535000D01*
X0Y535000D01*
X-3050Y534867D01*
X-6078Y534468D01*
X-9059Y533807D01*
X-11971Y532889D01*
X-14792Y531721D01*
X-17500Y530311D01*
X-20075Y528670D01*
X-22498Y526812D01*
X-24749Y524749D01*
X-26812Y522498D01*
X-28670Y520075D01*
X-30311Y517500D01*
X-31721Y514792D01*
X-32889Y511971D01*
X-33807Y509059D01*
X-34468Y506078D01*
X-34867Y503050D01*
X-35000Y500000D01*
X-35000Y0D01*
M02*
