G04 EAGLE Gerber RS-274X export*
G75*
%MOMM*%
%FSLAX34Y34*%
%LPD*%
%INSoldermask Top*%
%IPPOS*%
%AMOC8*
5,1,8,0,0,1.08239X$1,22.5*%
G01*
G04 Define Apertures*
%ADD10C,4.203200*%
%ADD11R,1.981200X1.981200*%
%ADD12C,1.981200*%
%ADD13C,2.953200*%
%ADD14C,2.108200*%
%ADD15C,2.743200*%
D10*
X0Y0D03*
X0Y500000D03*
X1000000Y500000D03*
X1000000Y0D03*
D11*
X133700Y227300D03*
D12*
X133700Y252700D03*
X159100Y227300D03*
X159100Y252700D03*
X184500Y227300D03*
X184500Y252700D03*
X209900Y227300D03*
X209900Y252700D03*
X235300Y227300D03*
X235300Y252700D03*
X260700Y227300D03*
X260700Y252700D03*
X286100Y227300D03*
X286100Y252700D03*
X311500Y227300D03*
X311500Y252700D03*
X336900Y227300D03*
X336900Y252700D03*
X362300Y227300D03*
X362300Y252700D03*
X387700Y227300D03*
X387700Y252700D03*
X413100Y227300D03*
X413100Y252700D03*
X438500Y227300D03*
X438500Y252700D03*
X463900Y227300D03*
X463900Y252700D03*
X489300Y227300D03*
X489300Y252700D03*
X514700Y227300D03*
X514700Y252700D03*
X540100Y227300D03*
X540100Y252700D03*
X565500Y227300D03*
X565500Y252700D03*
X590900Y227300D03*
X590900Y252700D03*
X616300Y227300D03*
X616300Y252700D03*
D13*
X85000Y10000D03*
X85000Y240000D03*
X665000Y10000D03*
X665000Y240000D03*
D14*
X939800Y431800D03*
X939800Y406400D03*
X939800Y381000D03*
X939800Y355600D03*
X939800Y330200D03*
X939800Y304800D03*
X939800Y279400D03*
X939800Y254000D03*
X939800Y228600D03*
X939800Y203200D03*
X939800Y177800D03*
X939800Y152400D03*
X939800Y127000D03*
X939800Y101600D03*
X939800Y76200D03*
X939800Y50800D03*
X736600Y431800D03*
X736600Y406400D03*
X736600Y381000D03*
X736600Y355600D03*
X736600Y330200D03*
X736600Y304800D03*
X736600Y279400D03*
X736600Y254000D03*
X736600Y228600D03*
X736600Y203200D03*
X736600Y177800D03*
X736600Y152400D03*
D15*
X749300Y469900D03*
X927100Y469900D03*
X927100Y12700D03*
X749300Y12700D03*
M02*
