G04 Layer: TopPasteMaskLayer*
G04 EasyEDA v6.4.17, 2021-03-30T20:59:40--4:00*
G04 9c89494b3ddf4ec7811cb6ad7e81a00b,7d3a50bdc1ce4050a4f63d2f8b141863,10*
G04 Gerber Generator version 0.2*
G04 Scale: 100 percent, Rotated: No, Reflected: No *
G04 Dimensions in inches *
G04 leading zeros omitted , absolute positions ,3 integer and 6 decimal *
%FSLAX36Y36*%
%MOIN*%

%ADD10C,0.0001*%

%LPD*%
G36*
X1712204Y3798031D02*
G01*
X1731889Y3798031D01*
X1731889Y3668110D01*
X1712204Y3668110D01*
G37*
G36*
X1601967Y3798031D02*
G01*
X1621652Y3798031D01*
X1621652Y3668110D01*
X1601967Y3668110D01*
G37*
G36*
X1641337Y3798031D02*
G01*
X1692519Y3798031D01*
X1692519Y3668110D01*
X1641337Y3668110D01*
G37*
G36*
X1712204Y3498031D02*
G01*
X1731889Y3498031D01*
X1731889Y3368110D01*
X1712204Y3368110D01*
G37*
G36*
X1601967Y3498031D02*
G01*
X1621652Y3498031D01*
X1621652Y3368110D01*
X1601967Y3368110D01*
G37*
G36*
X1641337Y3498031D02*
G01*
X1692519Y3498031D01*
X1692519Y3368110D01*
X1641337Y3368110D01*
G37*
G36*
X1712204Y3198031D02*
G01*
X1731889Y3198031D01*
X1731889Y3068110D01*
X1712204Y3068110D01*
G37*
G36*
X1601967Y3198031D02*
G01*
X1621652Y3198031D01*
X1621652Y3068110D01*
X1601967Y3068110D01*
G37*
G36*
X1641337Y3198031D02*
G01*
X1692519Y3198031D01*
X1692519Y3068110D01*
X1641337Y3068110D01*
G37*
G36*
X1712204Y2898031D02*
G01*
X1731889Y2898031D01*
X1731889Y2768110D01*
X1712204Y2768110D01*
G37*
G36*
X1601967Y2898031D02*
G01*
X1621652Y2898031D01*
X1621652Y2768110D01*
X1601967Y2768110D01*
G37*
G36*
X1641337Y2898031D02*
G01*
X1692519Y2898031D01*
X1692519Y2768110D01*
X1641337Y2768110D01*
G37*
G36*
X1712204Y2598031D02*
G01*
X1731889Y2598031D01*
X1731889Y2468110D01*
X1712204Y2468110D01*
G37*
G36*
X1601967Y2598031D02*
G01*
X1621652Y2598031D01*
X1621652Y2468110D01*
X1601967Y2468110D01*
G37*
G36*
X1641337Y2598031D02*
G01*
X1692519Y2598031D01*
X1692519Y2468110D01*
X1641337Y2468110D01*
G37*
G36*
X1712204Y2298031D02*
G01*
X1731889Y2298031D01*
X1731889Y2168110D01*
X1712204Y2168110D01*
G37*
G36*
X1601967Y2298031D02*
G01*
X1621652Y2298031D01*
X1621652Y2168110D01*
X1601967Y2168110D01*
G37*
G36*
X1641337Y2298031D02*
G01*
X1692519Y2298031D01*
X1692519Y2168110D01*
X1641337Y2168110D01*
G37*
G36*
X1712204Y1998031D02*
G01*
X1731889Y1998031D01*
X1731889Y1868110D01*
X1712204Y1868110D01*
G37*
G36*
X1601967Y1998031D02*
G01*
X1621652Y1998031D01*
X1621652Y1868110D01*
X1601967Y1868110D01*
G37*
G36*
X1641337Y1998031D02*
G01*
X1692519Y1998031D01*
X1692519Y1868110D01*
X1641337Y1868110D01*
G37*
G36*
X1712204Y1698031D02*
G01*
X1731889Y1698031D01*
X1731889Y1568110D01*
X1712204Y1568110D01*
G37*
G36*
X1601967Y1698031D02*
G01*
X1621652Y1698031D01*
X1621652Y1568110D01*
X1601967Y1568110D01*
G37*
G36*
X1641337Y1698031D02*
G01*
X1692519Y1698031D01*
X1692519Y1568110D01*
X1641337Y1568110D01*
G37*
G36*
X1712204Y1398031D02*
G01*
X1731889Y1398031D01*
X1731889Y1268110D01*
X1712204Y1268110D01*
G37*
G36*
X1601967Y1398031D02*
G01*
X1621652Y1398031D01*
X1621652Y1268110D01*
X1601967Y1268110D01*
G37*
G36*
X1641337Y1398031D02*
G01*
X1692519Y1398031D01*
X1692519Y1268110D01*
X1641337Y1268110D01*
G37*
G36*
X1712204Y1098031D02*
G01*
X1731889Y1098031D01*
X1731889Y968110D01*
X1712204Y968110D01*
G37*
G36*
X1601967Y1098031D02*
G01*
X1621652Y1098031D01*
X1621652Y968110D01*
X1601967Y968110D01*
G37*
G36*
X1641337Y1098031D02*
G01*
X1692519Y1098031D01*
X1692519Y968110D01*
X1641337Y968110D01*
G37*
G36*
X1712204Y798031D02*
G01*
X1731889Y798031D01*
X1731889Y668110D01*
X1712204Y668110D01*
G37*
G36*
X1601967Y798031D02*
G01*
X1621652Y798031D01*
X1621652Y668110D01*
X1601967Y668110D01*
G37*
G36*
X1641337Y798031D02*
G01*
X1692519Y798031D01*
X1692519Y668110D01*
X1641337Y668110D01*
G37*
G36*
X1712204Y498031D02*
G01*
X1731889Y498031D01*
X1731889Y368110D01*
X1712204Y368110D01*
G37*
G36*
X1601967Y498031D02*
G01*
X1621652Y498031D01*
X1621652Y368110D01*
X1601967Y368110D01*
G37*
G36*
X1641337Y498031D02*
G01*
X1692519Y498031D01*
X1692519Y368110D01*
X1641337Y368110D01*
G37*
G36*
X1712204Y198031D02*
G01*
X1731889Y198031D01*
X1731889Y68110D01*
X1712204Y68110D01*
G37*
G36*
X1601967Y198031D02*
G01*
X1621652Y198031D01*
X1621652Y68110D01*
X1601967Y68110D01*
G37*
G36*
X1641337Y198031D02*
G01*
X1692519Y198031D01*
X1692519Y68110D01*
X1641337Y68110D01*
G37*
G36*
X1712204Y-101968D02*
G01*
X1731889Y-101968D01*
X1731889Y-231889D01*
X1712204Y-231889D01*
G37*
G36*
X1601967Y-101968D02*
G01*
X1621652Y-101968D01*
X1621652Y-231889D01*
X1601967Y-231889D01*
G37*
G36*
X1641337Y-101968D02*
G01*
X1692519Y-101968D01*
X1692519Y-231889D01*
X1641337Y-231889D01*
G37*
G36*
X1712204Y-401968D02*
G01*
X1731889Y-401968D01*
X1731889Y-531889D01*
X1712204Y-531889D01*
G37*
G36*
X1601967Y-401968D02*
G01*
X1621652Y-401968D01*
X1621652Y-531889D01*
X1601967Y-531889D01*
G37*
G36*
X1641337Y-401968D02*
G01*
X1692519Y-401968D01*
X1692519Y-531889D01*
X1641337Y-531889D01*
G37*
M02*
