G04 Layer: TopLayer*
G04 EasyEDA v6.4.17, 2021-03-30T20:59:40--4:00*
G04 9c89494b3ddf4ec7811cb6ad7e81a00b,7d3a50bdc1ce4050a4f63d2f8b141863,10*
G04 Gerber Generator version 0.2*
G04 Scale: 100 percent, Rotated: No, Reflected: No *
G04 Dimensions in inches *
G04 leading zeros omitted , absolute positions ,3 integer and 6 decimal *
%FSLAX36Y36*%
%MOIN*%

%ADD10C,0.0100*%
%ADD11C,0.0240*%
%ADD12C,0.0472*%
%ADD14C,0.0689*%
%ADD15R,0.0669X0.0669*%
%ADD16C,0.0669*%

%LPD*%
G36*
X-296740Y1032159D02*
G01*
X-309440Y1015620D01*
X-274020Y1015620D01*
X-286740Y1032159D01*
G37*
G36*
X-25980Y984380D02*
G01*
X-13260Y967840D01*
X-3260Y967840D01*
X9440Y984380D01*
G37*
G36*
X-309920Y877000D02*
G01*
X-317260Y870180D01*
X-315340Y849419D01*
X-289360Y873500D01*
G37*
G36*
X-13260Y882159D02*
G01*
X-25980Y865620D01*
X9440Y865620D01*
X-3260Y882159D01*
G37*
G36*
X-25980Y834380D02*
G01*
X-13260Y817840D01*
X-3260Y817840D01*
X9440Y834380D01*
G37*
G36*
X-294560Y723460D02*
G01*
X-315340Y722420D01*
X-321100Y714040D01*
X-314640Y694260D01*
G37*
G36*
X-13260Y732159D02*
G01*
X-25980Y715620D01*
X9440Y715620D01*
X-3260Y732159D01*
G37*
G36*
X-25980Y684380D02*
G01*
X-13260Y667840D01*
X-3260Y667840D01*
X9440Y684380D01*
G37*
G36*
X-13260Y582160D02*
G01*
X-25980Y565620D01*
X9440Y565620D01*
X-3260Y582160D01*
G37*
G36*
X-25980Y534380D02*
G01*
X-13260Y517840D01*
X-3260Y517840D01*
X9440Y534380D01*
G37*
G36*
X-312860Y389460D02*
G01*
X-305000Y370260D01*
X-295000Y367600D01*
X-278620Y380340D01*
G37*
G36*
X-13260Y432160D02*
G01*
X-25980Y415620D01*
X9440Y415620D01*
X-3260Y432160D01*
G37*
G36*
X424159Y977220D02*
G01*
X445000Y953100D01*
X455000Y953100D01*
X475840Y977220D01*
G37*
G36*
X1284379Y1002159D02*
G01*
X1247840Y965620D01*
X1279620Y963300D01*
X1286699Y970380D01*
G37*
G36*
X1220380Y436700D02*
G01*
X1213300Y429620D01*
X1215620Y397840D01*
X1252160Y434380D01*
G37*
G36*
X227220Y425840D02*
G01*
X203100Y405000D01*
X203100Y395000D01*
X227220Y374159D01*
G37*
G36*
X272780Y425840D02*
G01*
X272780Y374159D01*
X296900Y395000D01*
X296900Y405000D01*
G37*
G36*
X172780Y425840D02*
G01*
X172780Y374159D01*
X196900Y395000D01*
X196900Y405000D01*
G37*
G36*
X1284379Y1902160D02*
G01*
X1247840Y1865620D01*
X1279620Y1863300D01*
X1286699Y1870380D01*
G37*
G36*
X1220380Y1336699D02*
G01*
X1213300Y1329620D01*
X1215620Y1297840D01*
X1252160Y1334379D01*
G37*
G36*
X272780Y1325840D02*
G01*
X272780Y1274160D01*
X296900Y1295000D01*
X296900Y1305000D01*
G37*
G36*
X1284379Y2802160D02*
G01*
X1247840Y2765620D01*
X1279620Y2763300D01*
X1286699Y2770380D01*
G37*
G36*
X1220380Y2236700D02*
G01*
X1213300Y2229620D01*
X1215620Y2197840D01*
X1252160Y2234380D01*
G37*
G36*
X272780Y2225840D02*
G01*
X272780Y2174160D01*
X296900Y2195000D01*
X296900Y2205000D01*
G37*
G36*
X227220Y2225840D02*
G01*
X203100Y2205000D01*
X203100Y2195000D01*
X227220Y2174160D01*
G37*
G36*
X172780Y2225840D02*
G01*
X172780Y2174160D01*
X196900Y2195000D01*
X196900Y2205000D01*
G37*
G36*
X424159Y3677220D02*
G01*
X445000Y3653100D01*
X455000Y3653100D01*
X475840Y3677220D01*
G37*
G36*
X1284379Y3702160D02*
G01*
X1247840Y3665620D01*
X1279620Y3663300D01*
X1286699Y3670380D01*
G37*
G36*
X1220380Y3136700D02*
G01*
X1213300Y3129620D01*
X1215620Y3097840D01*
X1252160Y3134380D01*
G37*
G36*
X272780Y3125840D02*
G01*
X272780Y3074160D01*
X296900Y3095000D01*
X296900Y3105000D01*
G37*
G36*
X-271320Y1785760D02*
G01*
X-302100Y1783400D01*
X-266600Y1747900D01*
X-264240Y1778680D01*
G37*
G36*
X-266600Y1752100D02*
G01*
X-302100Y1716600D01*
X-271320Y1714240D01*
X-264240Y1721320D01*
G37*
G36*
X-266600Y1652100D02*
G01*
X-302100Y1616600D01*
X-271320Y1614240D01*
X-264240Y1621320D01*
G37*
G36*
X-266600Y1552100D02*
G01*
X-302100Y1516600D01*
X-271320Y1514240D01*
X-264240Y1521320D01*
G37*
G36*
X324159Y77220D02*
G01*
X345000Y53099D01*
X355000Y53099D01*
X375840Y77220D01*
G37*
G36*
X1284379Y102160D02*
G01*
X1247840Y65620D01*
X1279620Y63300D01*
X1286699Y70380D01*
G37*
G36*
X1245000Y-453100D02*
G01*
X1224160Y-477220D01*
X1275840Y-477220D01*
X1255000Y-453100D01*
G37*
G36*
X272780Y-474159D02*
G01*
X272780Y-525840D01*
X296900Y-505000D01*
X296900Y-495000D01*
G37*
G36*
X227220Y-474159D02*
G01*
X203100Y-495000D01*
X203100Y-505000D01*
X227220Y-525840D01*
G37*
G36*
X172780Y-474159D02*
G01*
X172780Y-525840D01*
X196900Y-505000D01*
X196900Y-495000D01*
G37*
G36*
X307940Y559000D02*
G01*
X307940Y541000D01*
X316340Y545000D01*
X316340Y555000D01*
G37*
G36*
X137500Y965560D02*
G01*
X145000Y954500D01*
X155000Y954500D01*
X162500Y965560D01*
G37*
G36*
X245000Y1045500D02*
G01*
X237500Y1034440D01*
X262500Y1034440D01*
X255000Y1045500D01*
G37*
G36*
X117320Y1939760D02*
G01*
X110239Y1932680D01*
X115559Y1916780D01*
X133220Y1934440D01*
G37*
G36*
X237500Y1865560D02*
G01*
X245000Y1854500D01*
X255000Y1854500D01*
X262500Y1865560D01*
G37*
G36*
X137500Y2765560D02*
G01*
X145000Y2750560D01*
X155000Y2750560D01*
X162500Y2765560D01*
G37*
G36*
X145000Y145500D02*
G01*
X137500Y134440D01*
X162500Y134440D01*
X155000Y145500D01*
G37*
G36*
X1712200Y3668120D02*
G01*
X1717100Y3653120D01*
X1727100Y3653120D01*
X1731879Y3668120D01*
G37*
G36*
X1601960Y3792500D02*
G01*
X1586960Y3785000D01*
X1586960Y3775000D01*
X1601960Y3767500D01*
G37*
G36*
X1712200Y3368120D02*
G01*
X1715000Y3353120D01*
X1725000Y3353120D01*
X1731879Y3368120D01*
G37*
G36*
X1712200Y3368120D02*
G01*
X1717100Y3357000D01*
X1727100Y3357000D01*
X1731879Y3368120D01*
G37*
G36*
X1606800Y3513020D02*
G01*
X1601960Y3498020D01*
X1621660Y3498020D01*
X1616800Y3513020D01*
G37*
G36*
X1712200Y3068120D02*
G01*
X1717060Y3053120D01*
X1727060Y3053120D01*
X1731879Y3068120D01*
G37*
G36*
X1606819Y3201800D02*
G01*
X1601960Y3198020D01*
X1621660Y3198020D01*
X1616819Y3201800D01*
G37*
G36*
X1712200Y2768120D02*
G01*
X1717100Y2753120D01*
X1727100Y2753120D01*
X1731879Y2768120D01*
G37*
G36*
X1601960Y2892500D02*
G01*
X1586960Y2885000D01*
X1586960Y2875000D01*
X1601960Y2867500D01*
G37*
G36*
X1712200Y2468120D02*
G01*
X1717060Y2453120D01*
X1727060Y2453120D01*
X1731879Y2468120D01*
G37*
G36*
X1712200Y2468120D02*
G01*
X1717100Y2457000D01*
X1727100Y2457000D01*
X1731879Y2468120D01*
G37*
G36*
X1606800Y2613020D02*
G01*
X1601960Y2598020D01*
X1621660Y2598020D01*
X1616800Y2613020D01*
G37*
G36*
X1712200Y2168120D02*
G01*
X1717060Y2153120D01*
X1727060Y2153120D01*
X1731879Y2168120D01*
G37*
G36*
X1605000Y2313020D02*
G01*
X1601960Y2298020D01*
X1621660Y2298020D01*
X1615000Y2313020D01*
G37*
G36*
X1712200Y1868120D02*
G01*
X1717100Y1853120D01*
X1727100Y1853120D01*
X1731879Y1868120D01*
G37*
G36*
X1601960Y1992500D02*
G01*
X1586960Y1985000D01*
X1586960Y1975000D01*
X1601960Y1967500D01*
G37*
G36*
X1712200Y1568120D02*
G01*
X1717060Y1553120D01*
X1727060Y1553120D01*
X1731879Y1568120D01*
G37*
G36*
X1712200Y1568120D02*
G01*
X1717100Y1557000D01*
X1727100Y1557000D01*
X1731879Y1568120D01*
G37*
G36*
X1606800Y1713020D02*
G01*
X1601960Y1698020D01*
X1621660Y1698020D01*
X1616800Y1713020D01*
G37*
G36*
X1712200Y1268120D02*
G01*
X1717060Y1253120D01*
X1727060Y1253120D01*
X1731879Y1268120D01*
G37*
G36*
X1605000Y1413020D02*
G01*
X1601960Y1398020D01*
X1621660Y1398020D01*
X1615000Y1413020D01*
G37*
G36*
X1712200Y968120D02*
G01*
X1717100Y953120D01*
X1727100Y953120D01*
X1731879Y968120D01*
G37*
G36*
X1601960Y1092500D02*
G01*
X1586960Y1085000D01*
X1586960Y1075000D01*
X1601960Y1067500D01*
G37*
G36*
X1712200Y668120D02*
G01*
X1717060Y653120D01*
X1727060Y653120D01*
X1731879Y668120D01*
G37*
G36*
X1712200Y668120D02*
G01*
X1717100Y657000D01*
X1727100Y657000D01*
X1731879Y668120D01*
G37*
G36*
X1712200Y668120D02*
G01*
X1717100Y657000D01*
X1727100Y657000D01*
X1731879Y668120D01*
G37*
G36*
X1606800Y813020D02*
G01*
X1601960Y798020D01*
X1621660Y798020D01*
X1616800Y813020D01*
G37*
G36*
X1712200Y368120D02*
G01*
X1717060Y353120D01*
X1727060Y353120D01*
X1731879Y368120D01*
G37*
G36*
X1605000Y513020D02*
G01*
X1601960Y498020D01*
X1621660Y498020D01*
X1615000Y513020D01*
G37*
G36*
X1712200Y68120D02*
G01*
X1717100Y53120D01*
X1727100Y53120D01*
X1731879Y68120D01*
G37*
G36*
X1601960Y192500D02*
G01*
X1586960Y185000D01*
X1586960Y175000D01*
X1601960Y167500D01*
G37*
G36*
X1712200Y-231880D02*
G01*
X1717060Y-246880D01*
X1727060Y-246880D01*
X1731879Y-231880D01*
G37*
G36*
X1712200Y-231880D02*
G01*
X1717100Y-243000D01*
X1727100Y-243000D01*
X1731879Y-231880D01*
G37*
G36*
X1606800Y-86980D02*
G01*
X1601960Y-101980D01*
X1621660Y-101980D01*
X1616800Y-86980D01*
G37*
G36*
X1712200Y-531880D02*
G01*
X1717060Y-546880D01*
X1727060Y-546880D01*
X1731879Y-531880D01*
G37*
G36*
X1605000Y-386980D02*
G01*
X1601960Y-401980D01*
X1621660Y-401980D01*
X1615000Y-386980D01*
G37*
D10*
X-8270Y1000000D02*
G01*
X150000Y1000000D01*
X-291700Y850000D02*
G01*
X-291700Y851700D01*
X-340000Y900000D01*
X-340000Y1060000D01*
X-170000Y1230000D01*
X-170000Y1520000D01*
X-300000Y1650000D01*
X1611800Y3133099D02*
G01*
X1611800Y3201799D01*
X1720000Y3310000D01*
X1720000Y3430999D01*
X1722100Y3433099D01*
X1611800Y180000D02*
G01*
X1080000Y180000D01*
X1000000Y100000D01*
X1000000Y-200000D01*
X1250000Y-450000D01*
X1250000Y-500000D01*
X1611800Y1080000D02*
G01*
X1080000Y1080000D01*
X1000000Y1000000D01*
X1000000Y650000D01*
X1250000Y400000D01*
X1611800Y1980000D02*
G01*
X1080000Y1980000D01*
X1000000Y1900000D01*
X1000000Y1550000D01*
X1250000Y1300000D01*
X1722100Y1333099D02*
G01*
X1722100Y1222100D01*
X1700000Y1200000D01*
X1500000Y1200000D01*
X1400000Y1300000D01*
X1400000Y1750000D01*
X1250000Y1900000D01*
X1611800Y2880000D02*
G01*
X1080000Y2880000D01*
X1010000Y2810000D01*
X1010000Y2440000D01*
X1250000Y2200000D01*
X1611800Y3780000D02*
G01*
X1080000Y3780000D01*
X1000000Y3700000D01*
X1000000Y3350000D01*
X1250000Y3100000D01*
X-300000Y1750000D02*
G01*
X-244600Y1805399D01*
X-244600Y2845399D01*
X450000Y3540000D01*
X450000Y3700000D01*
X370000Y1300000D02*
G01*
X550000Y1480000D01*
X550000Y2020000D01*
X370000Y2200000D01*
X250000Y2200000D01*
X-291729Y1000000D02*
G01*
X-291729Y1060000D01*
X-290000Y1060000D01*
X-140000Y1210000D01*
X-140000Y1590000D01*
X-300000Y1750000D01*
X-291700Y700000D02*
G01*
X-300000Y700000D01*
X-370000Y770000D01*
X-370000Y1080000D01*
X-200000Y1250000D01*
X-200000Y1450000D01*
X-300000Y1550000D01*
X450000Y1000000D02*
G01*
X450000Y600000D01*
X400000Y550000D01*
X300000Y550000D01*
X350000Y100000D02*
G01*
X350000Y50000D01*
X300000Y0D01*
X-100000Y0D01*
X-300000Y200000D01*
X-300000Y391729D01*
X-291729Y400000D01*
X-8270Y850000D02*
G01*
X-8270Y1000000D01*
X-8270Y700000D02*
G01*
X-8270Y850000D01*
X-8270Y700000D02*
G01*
X-8270Y550000D01*
X-8270Y400000D02*
G01*
X-8270Y550000D01*
X370000Y2200000D02*
G01*
X550000Y2380000D01*
X550000Y2920000D01*
X370000Y3100000D01*
X250000Y3100000D01*
X370000Y400000D02*
G01*
X550000Y580000D01*
X550000Y1120000D01*
X370000Y1300000D01*
X250000Y1300000D01*
X1722100Y733099D02*
G01*
X1722100Y652100D01*
X1610000Y540000D01*
X1610000Y434899D01*
X1611800Y433099D01*
X1722100Y1633099D02*
G01*
X1722100Y1552100D01*
X1610000Y1440000D01*
X1610000Y1334899D01*
X1611800Y1333099D01*
X1722100Y2533099D02*
G01*
X1722100Y2442100D01*
X1610000Y2330000D01*
X1610000Y2234899D01*
X1611800Y2233099D01*
X1722100Y3133099D02*
G01*
X1722100Y3022100D01*
X1700000Y3000000D01*
X1500000Y3000000D01*
X1400000Y3100000D01*
X1400000Y3550000D01*
X1250000Y3700000D01*
X1722100Y2233099D02*
G01*
X1722100Y2122100D01*
X1700000Y2100000D01*
X1500000Y2100000D01*
X1400000Y2200000D01*
X1400000Y2650000D01*
X1250000Y2800000D01*
X1722100Y433099D02*
G01*
X1722100Y322100D01*
X1700000Y300000D01*
X1500000Y300000D01*
X1400000Y400000D01*
X1400000Y850000D01*
X1250000Y1000000D01*
X1722100Y-466900D02*
G01*
X1722100Y-567899D01*
X1690000Y-600000D01*
X1420000Y-600000D01*
X1390000Y-570000D01*
X1390000Y-40000D01*
X1250000Y100000D01*
X250000Y2200000D02*
G01*
X150000Y2200000D01*
X150000Y1900000D02*
G01*
X0Y2050000D01*
X0Y2600000D01*
X150000Y2750000D01*
X150000Y2800000D01*
X250000Y400000D02*
G01*
X150000Y400000D01*
X250000Y-500000D02*
G01*
X310000Y-500000D01*
X450000Y-360000D01*
X450000Y320000D01*
X370000Y400000D01*
X250000Y400000D01*
X150000Y-500000D02*
G01*
X250000Y-500000D01*
X250000Y1854499D02*
G01*
X50000Y1654099D01*
X50000Y1245900D01*
X250000Y1045500D01*
X1722100Y-166900D02*
G01*
X1722100Y-257899D01*
X1610000Y-370000D01*
X1610000Y-465100D01*
X1611800Y-466900D01*
X1722100Y133099D02*
G01*
X1722100Y50199D01*
X1611800Y-60000D01*
X1611800Y-166900D01*
X150000Y145500D02*
G01*
X104499Y191100D01*
X104499Y908899D01*
X150000Y954499D01*
X150000Y100000D02*
G01*
X150000Y145500D01*
X150000Y1000000D02*
G01*
X150000Y954499D01*
X250000Y1922800D02*
G01*
X250000Y1900000D01*
X250000Y1900000D02*
G01*
X250000Y1854499D01*
X250000Y1000000D02*
G01*
X250000Y1045500D01*
X1722100Y-166900D02*
G01*
X1722100Y-243000D01*
X1722100Y1933099D02*
G01*
X1722100Y1850199D01*
X1611800Y1740000D01*
X1611800Y1633099D01*
X1722100Y1633099D02*
G01*
X1722100Y1556999D01*
X1722100Y2833099D02*
G01*
X1722100Y2750200D01*
X1611800Y2640000D01*
X1611800Y2533099D01*
X1722100Y2533099D02*
G01*
X1722100Y2456999D01*
X1722100Y3433099D02*
G01*
X1722100Y3356999D01*
X1611800Y3433099D02*
G01*
X1611800Y3515900D01*
X1722100Y3626100D01*
X1722100Y3733099D01*
X1722100Y1033099D02*
G01*
X1722100Y950199D01*
X1611800Y840000D01*
X1611800Y733099D01*
X1722100Y733099D02*
G01*
X1722100Y656999D01*
X1722100Y733099D02*
G01*
X1722100Y656999D01*
G36*
X1712204Y3798031D02*
G01*
X1731889Y3798031D01*
X1731889Y3668110D01*
X1712204Y3668110D01*
G37*
G36*
X1601967Y3798031D02*
G01*
X1621652Y3798031D01*
X1621652Y3668110D01*
X1601967Y3668110D01*
G37*
G36*
X1641337Y3798031D02*
G01*
X1692519Y3798031D01*
X1692519Y3668110D01*
X1641337Y3668110D01*
G37*
G36*
X1712204Y3498031D02*
G01*
X1731889Y3498031D01*
X1731889Y3368110D01*
X1712204Y3368110D01*
G37*
G36*
X1601967Y3498031D02*
G01*
X1621652Y3498031D01*
X1621652Y3368110D01*
X1601967Y3368110D01*
G37*
G36*
X1641337Y3498031D02*
G01*
X1692519Y3498031D01*
X1692519Y3368110D01*
X1641337Y3368110D01*
G37*
G36*
X1712204Y3198031D02*
G01*
X1731889Y3198031D01*
X1731889Y3068110D01*
X1712204Y3068110D01*
G37*
G36*
X1601967Y3198031D02*
G01*
X1621652Y3198031D01*
X1621652Y3068110D01*
X1601967Y3068110D01*
G37*
G36*
X1641337Y3198031D02*
G01*
X1692519Y3198031D01*
X1692519Y3068110D01*
X1641337Y3068110D01*
G37*
G36*
X1712204Y2898031D02*
G01*
X1731889Y2898031D01*
X1731889Y2768110D01*
X1712204Y2768110D01*
G37*
G36*
X1601967Y2898031D02*
G01*
X1621652Y2898031D01*
X1621652Y2768110D01*
X1601967Y2768110D01*
G37*
G36*
X1641337Y2898031D02*
G01*
X1692519Y2898031D01*
X1692519Y2768110D01*
X1641337Y2768110D01*
G37*
G36*
X1712204Y2598031D02*
G01*
X1731889Y2598031D01*
X1731889Y2468110D01*
X1712204Y2468110D01*
G37*
G36*
X1601967Y2598031D02*
G01*
X1621652Y2598031D01*
X1621652Y2468110D01*
X1601967Y2468110D01*
G37*
G36*
X1641337Y2598031D02*
G01*
X1692519Y2598031D01*
X1692519Y2468110D01*
X1641337Y2468110D01*
G37*
G36*
X1712204Y2298031D02*
G01*
X1731889Y2298031D01*
X1731889Y2168110D01*
X1712204Y2168110D01*
G37*
G36*
X1601967Y2298031D02*
G01*
X1621652Y2298031D01*
X1621652Y2168110D01*
X1601967Y2168110D01*
G37*
G36*
X1641337Y2298031D02*
G01*
X1692519Y2298031D01*
X1692519Y2168110D01*
X1641337Y2168110D01*
G37*
G36*
X1712204Y1998031D02*
G01*
X1731889Y1998031D01*
X1731889Y1868110D01*
X1712204Y1868110D01*
G37*
G36*
X1601967Y1998031D02*
G01*
X1621652Y1998031D01*
X1621652Y1868110D01*
X1601967Y1868110D01*
G37*
G36*
X1641337Y1998031D02*
G01*
X1692519Y1998031D01*
X1692519Y1868110D01*
X1641337Y1868110D01*
G37*
G36*
X1712204Y1698031D02*
G01*
X1731889Y1698031D01*
X1731889Y1568110D01*
X1712204Y1568110D01*
G37*
G36*
X1601967Y1698031D02*
G01*
X1621652Y1698031D01*
X1621652Y1568110D01*
X1601967Y1568110D01*
G37*
G36*
X1641337Y1698031D02*
G01*
X1692519Y1698031D01*
X1692519Y1568110D01*
X1641337Y1568110D01*
G37*
G36*
X1712204Y1398031D02*
G01*
X1731889Y1398031D01*
X1731889Y1268110D01*
X1712204Y1268110D01*
G37*
G36*
X1601967Y1398031D02*
G01*
X1621652Y1398031D01*
X1621652Y1268110D01*
X1601967Y1268110D01*
G37*
G36*
X1641337Y1398031D02*
G01*
X1692519Y1398031D01*
X1692519Y1268110D01*
X1641337Y1268110D01*
G37*
G36*
X1712204Y1098031D02*
G01*
X1731889Y1098031D01*
X1731889Y968110D01*
X1712204Y968110D01*
G37*
G36*
X1601967Y1098031D02*
G01*
X1621652Y1098031D01*
X1621652Y968110D01*
X1601967Y968110D01*
G37*
G36*
X1641337Y1098031D02*
G01*
X1692519Y1098031D01*
X1692519Y968110D01*
X1641337Y968110D01*
G37*
G36*
X1712204Y798031D02*
G01*
X1731889Y798031D01*
X1731889Y668110D01*
X1712204Y668110D01*
G37*
G36*
X1601967Y798031D02*
G01*
X1621652Y798031D01*
X1621652Y668110D01*
X1601967Y668110D01*
G37*
G36*
X1641337Y798031D02*
G01*
X1692519Y798031D01*
X1692519Y668110D01*
X1641337Y668110D01*
G37*
G36*
X1712204Y498031D02*
G01*
X1731889Y498031D01*
X1731889Y368110D01*
X1712204Y368110D01*
G37*
G36*
X1601967Y498031D02*
G01*
X1621652Y498031D01*
X1621652Y368110D01*
X1601967Y368110D01*
G37*
G36*
X1641337Y498031D02*
G01*
X1692519Y498031D01*
X1692519Y368110D01*
X1641337Y368110D01*
G37*
G36*
X1712204Y198031D02*
G01*
X1731889Y198031D01*
X1731889Y68110D01*
X1712204Y68110D01*
G37*
G36*
X1601967Y198031D02*
G01*
X1621652Y198031D01*
X1621652Y68110D01*
X1601967Y68110D01*
G37*
G36*
X1641337Y198031D02*
G01*
X1692519Y198031D01*
X1692519Y68110D01*
X1641337Y68110D01*
G37*
G36*
X1712204Y-101968D02*
G01*
X1731889Y-101968D01*
X1731889Y-231889D01*
X1712204Y-231889D01*
G37*
G36*
X1601967Y-101968D02*
G01*
X1621652Y-101968D01*
X1621652Y-231889D01*
X1601967Y-231889D01*
G37*
G36*
X1641337Y-101968D02*
G01*
X1692519Y-101968D01*
X1692519Y-231889D01*
X1641337Y-231889D01*
G37*
G36*
X1712204Y-401968D02*
G01*
X1731889Y-401968D01*
X1731889Y-531889D01*
X1712204Y-531889D01*
G37*
G36*
X1601967Y-401968D02*
G01*
X1621652Y-401968D01*
X1621652Y-531889D01*
X1601967Y-531889D01*
G37*
G36*
X1641337Y-401968D02*
G01*
X1692519Y-401968D01*
X1692519Y-531889D01*
X1641337Y-531889D01*
G37*
D12*
G01*
X-291729Y1000000D03*
G01*
X-8270Y1000000D03*
G01*
X-291729Y850000D03*
G01*
X-8270Y850000D03*
G01*
X-291729Y700000D03*
G01*
X-8270Y700000D03*
G01*
X-291729Y550000D03*
G01*
X-8270Y550000D03*
G01*
X-291729Y400000D03*
G01*
X-8270Y400000D03*
G36*
X115551Y1034448D02*
G01*
X184448Y1034448D01*
X184448Y965551D01*
X115551Y965551D01*
G37*
G36*
X215551Y1034448D02*
G01*
X284448Y1034448D01*
X284448Y965551D01*
X215551Y965551D01*
G37*
D14*
G01*
X450000Y1000000D03*
G01*
X1250000Y1000000D03*
G01*
X1150000Y1000000D03*
G01*
X1250000Y400000D03*
G01*
X1150000Y400000D03*
G01*
X250000Y400000D03*
G01*
X150000Y400000D03*
G36*
X115551Y1934448D02*
G01*
X184448Y1934448D01*
X184448Y1865551D01*
X115551Y1865551D01*
G37*
G36*
X215551Y1934448D02*
G01*
X284448Y1934448D01*
X284448Y1865551D01*
X215551Y1865551D01*
G37*
G01*
X450000Y1900000D03*
G01*
X1250000Y1900000D03*
G01*
X1150000Y1900000D03*
G01*
X1250000Y1300000D03*
G01*
X1150000Y1300000D03*
G01*
X250000Y1300000D03*
G01*
X150000Y1300000D03*
G36*
X115551Y2834448D02*
G01*
X184448Y2834448D01*
X184448Y2765551D01*
X115551Y2765551D01*
G37*
G36*
X215551Y2834448D02*
G01*
X284448Y2834448D01*
X284448Y2765551D01*
X215551Y2765551D01*
G37*
G01*
X450000Y2800000D03*
G01*
X1250000Y2800000D03*
G01*
X1150000Y2800000D03*
G01*
X1250000Y2200000D03*
G01*
X1150000Y2200000D03*
G01*
X250000Y2200000D03*
G01*
X150000Y2200000D03*
G36*
X115551Y3734448D02*
G01*
X184448Y3734448D01*
X184448Y3665551D01*
X115551Y3665551D01*
G37*
G36*
X215551Y3734448D02*
G01*
X284448Y3734448D01*
X284448Y3665551D01*
X215551Y3665551D01*
G37*
G01*
X450000Y3700000D03*
G01*
X1250000Y3700000D03*
G01*
X1150000Y3700000D03*
G01*
X1250000Y3100000D03*
G01*
X1150000Y3100000D03*
G01*
X250000Y3100000D03*
G01*
X150000Y3100000D03*
D15*
G01*
X-300000Y1950000D03*
D16*
G01*
X-300000Y1850000D03*
G01*
X-300000Y1750000D03*
G01*
X-300000Y1650000D03*
G01*
X-300000Y1550000D03*
G01*
X-300000Y1450000D03*
G01*
X-300000Y1350000D03*
G01*
X-300000Y1250000D03*
G36*
X115551Y134448D02*
G01*
X184448Y134448D01*
X184448Y65551D01*
X115551Y65551D01*
G37*
G36*
X215551Y134448D02*
G01*
X284448Y134448D01*
X284448Y65551D01*
X215551Y65551D01*
G37*
D14*
G01*
X350000Y100000D03*
G01*
X1250000Y100000D03*
G01*
X1150000Y100000D03*
G01*
X1250000Y-500000D03*
G01*
X1150000Y-500000D03*
G01*
X250000Y-500000D03*
G01*
X150000Y-500000D03*
D11*
G01*
X300000Y550000D03*
M02*
