G04 Layer: BottomLayer*
G04 EasyEDA v6.4.17, 2021-03-30T20:59:40--4:00*
G04 9c89494b3ddf4ec7811cb6ad7e81a00b,7d3a50bdc1ce4050a4f63d2f8b141863,10*
G04 Gerber Generator version 0.2*
G04 Scale: 100 percent, Rotated: No, Reflected: No *
G04 Dimensions in inches *
G04 leading zeros omitted , absolute positions ,3 integer and 6 decimal *
%FSLAX36Y36*%
%MOIN*%

%ADD10C,0.0100*%
%ADD11C,0.0240*%
%ADD12C,0.0472*%
%ADD14C,0.0689*%
%ADD15R,0.0669X0.0669*%
%ADD16C,0.0669*%

%LPD*%
G36*
X-268160Y551480D02*
G01*
X-293220Y526420D01*
X-272520Y523720D01*
X-265460Y530800D01*
G37*
G36*
X445000Y1046900D02*
G01*
X424159Y1022780D01*
X475840Y1022780D01*
X455000Y1046900D01*
G37*
G36*
X1227220Y1025840D02*
G01*
X1203100Y1005000D01*
X1203100Y995000D01*
X1227220Y974160D01*
G37*
G36*
X1172780Y1025840D02*
G01*
X1172780Y974160D01*
X1196900Y995000D01*
X1196900Y1005000D01*
G37*
G36*
X1227220Y425840D02*
G01*
X1203100Y405000D01*
X1203100Y395000D01*
X1227220Y374159D01*
G37*
G36*
X1172780Y425840D02*
G01*
X1172780Y374159D01*
X1196900Y395000D01*
X1196900Y405000D01*
G37*
G36*
X424159Y1877220D02*
G01*
X445000Y1853100D01*
X455000Y1853100D01*
X475840Y1877220D01*
G37*
G36*
X1227220Y1925840D02*
G01*
X1203100Y1905000D01*
X1203100Y1895000D01*
X1227220Y1874160D01*
G37*
G36*
X1172780Y1925840D02*
G01*
X1172780Y1874160D01*
X1196900Y1895000D01*
X1196900Y1905000D01*
G37*
G36*
X1227220Y1325840D02*
G01*
X1203100Y1305000D01*
X1203100Y1295000D01*
X1227220Y1274160D01*
G37*
G36*
X1172780Y1325840D02*
G01*
X1172780Y1274160D01*
X1196900Y1295000D01*
X1196900Y1305000D01*
G37*
G36*
X227220Y1325840D02*
G01*
X203100Y1305000D01*
X203100Y1295000D01*
X227220Y1274160D01*
G37*
G36*
X172780Y1325840D02*
G01*
X172780Y1274160D01*
X196900Y1295000D01*
X196900Y1305000D01*
G37*
G36*
X120380Y1336699D02*
G01*
X113300Y1329620D01*
X115620Y1297840D01*
X152160Y1334379D01*
G37*
G36*
X427220Y2825840D02*
G01*
X403100Y2805000D01*
X403100Y2795000D01*
X427220Y2774160D01*
G37*
G36*
X1227220Y2825840D02*
G01*
X1203100Y2805000D01*
X1203100Y2795000D01*
X1227220Y2774160D01*
G37*
G36*
X1172780Y2825840D02*
G01*
X1172780Y2774160D01*
X1196900Y2795000D01*
X1196900Y2805000D01*
G37*
G36*
X1227220Y2225840D02*
G01*
X1203100Y2205000D01*
X1203100Y2195000D01*
X1227220Y2174160D01*
G37*
G36*
X1172780Y2225840D02*
G01*
X1172780Y2174160D01*
X1196900Y2195000D01*
X1196900Y2205000D01*
G37*
G36*
X1227220Y3725840D02*
G01*
X1203100Y3705000D01*
X1203100Y3695000D01*
X1227220Y3674160D01*
G37*
G36*
X1172780Y3725840D02*
G01*
X1172780Y3674160D01*
X1196900Y3695000D01*
X1196900Y3705000D01*
G37*
G36*
X1227220Y3125840D02*
G01*
X1203100Y3105000D01*
X1203100Y3095000D01*
X1227220Y3074160D01*
G37*
G36*
X1172780Y3125840D02*
G01*
X1172780Y3074160D01*
X1196900Y3095000D01*
X1196900Y3105000D01*
G37*
G36*
X227220Y3125840D02*
G01*
X203100Y3105000D01*
X203100Y3095000D01*
X227220Y3074160D01*
G37*
G36*
X172780Y3125840D02*
G01*
X172780Y3074160D01*
X196900Y3095000D01*
X196900Y3105000D01*
G37*
G36*
X-328680Y1685760D02*
G01*
X-335760Y1678680D01*
X-333400Y1647900D01*
X-297900Y1683400D01*
G37*
G36*
X-277860Y1575100D02*
G01*
X-277860Y1524900D01*
X-254440Y1545000D01*
X-254440Y1555000D01*
G37*
G36*
X-277860Y1475100D02*
G01*
X-277860Y1424900D01*
X-254440Y1445000D01*
X-254440Y1455000D01*
G37*
G36*
X-266600Y1352100D02*
G01*
X-302100Y1316600D01*
X-271320Y1314240D01*
X-264240Y1321320D01*
G37*
G36*
X-328680Y1285760D02*
G01*
X-335760Y1278680D01*
X-333400Y1247900D01*
X-297900Y1283400D01*
G37*
G36*
X345000Y146900D02*
G01*
X324159Y122780D01*
X375840Y122780D01*
X355000Y146900D01*
G37*
G36*
X1227220Y125840D02*
G01*
X1203100Y105000D01*
X1203100Y95000D01*
X1227220Y74160D01*
G37*
G36*
X1172780Y125840D02*
G01*
X1172780Y74160D01*
X1196900Y95000D01*
X1196900Y105000D01*
G37*
G36*
X1227220Y-474159D02*
G01*
X1203100Y-495000D01*
X1203100Y-505000D01*
X1227220Y-525840D01*
G37*
G36*
X1172780Y-474159D02*
G01*
X1172780Y-525840D01*
X1196900Y-505000D01*
X1196900Y-495000D01*
G37*
G36*
X292060Y559000D02*
G01*
X283660Y555000D01*
X283660Y545000D01*
X292060Y541000D01*
G37*
G36*
X184440Y1012500D02*
G01*
X184440Y987500D01*
X199440Y995000D01*
X199440Y1005000D01*
G37*
G36*
X215560Y1012500D02*
G01*
X200560Y1005000D01*
X200560Y995000D01*
X215560Y987500D01*
G37*
G36*
X184440Y1912500D02*
G01*
X184440Y1887500D01*
X199440Y1895000D01*
X199440Y1905000D01*
G37*
G36*
X115559Y1912500D02*
G01*
X100559Y1905000D01*
X100559Y1895000D01*
X115559Y1887500D01*
G37*
G36*
X215560Y1912500D02*
G01*
X200560Y1905000D01*
X200560Y1895000D01*
X215560Y1887500D01*
G37*
G36*
X184440Y2812500D02*
G01*
X184440Y2787500D01*
X195500Y2795000D01*
X195500Y2805000D01*
G37*
G36*
X245000Y2845500D02*
G01*
X237500Y2834440D01*
X262500Y2834440D01*
X255000Y2845500D01*
G37*
G36*
X215560Y2832559D02*
G01*
X200560Y2812120D01*
X200560Y2797980D01*
X215560Y2807559D01*
G37*
G36*
X184440Y3712500D02*
G01*
X184440Y3687500D01*
X199440Y3695000D01*
X199440Y3705000D01*
G37*
G36*
X215560Y3712500D02*
G01*
X200560Y3705000D01*
X200560Y3695000D01*
X215560Y3687500D01*
G37*
G36*
X237500Y3665560D02*
G01*
X245000Y3654500D01*
X255000Y3654500D01*
X262500Y3665560D01*
G37*
G36*
X-266540Y1962500D02*
G01*
X-266540Y1937500D01*
X-255400Y1945000D01*
X-255400Y1955000D01*
G37*
G36*
X184440Y112500D02*
G01*
X184440Y87500D01*
X199440Y95000D01*
X199440Y105000D01*
G37*
G36*
X215560Y112500D02*
G01*
X200560Y105000D01*
X200560Y95000D01*
X215560Y87500D01*
G37*
D10*
X300000Y550000D02*
G01*
X150000Y550000D01*
X50000Y450000D01*
X-191729Y450000D01*
X-291729Y550000D01*
X-300000Y1650000D02*
G01*
X-344600Y1694600D01*
X-344600Y2105399D01*
X350000Y2800000D01*
X450000Y2800000D01*
X-300000Y1550000D02*
G01*
X170000Y1550000D01*
X450000Y1830000D01*
X450000Y1900000D01*
X-300000Y1450000D02*
G01*
X165799Y1450000D01*
X450000Y1165799D01*
X450000Y1000000D01*
X250000Y3654499D02*
G01*
X400000Y3504200D01*
X400000Y2995799D01*
X250000Y2845500D01*
X150000Y3100000D02*
G01*
X250000Y3100000D01*
X150000Y1300000D02*
G01*
X250000Y1300000D01*
X150000Y1300000D02*
G01*
X55100Y1394899D01*
X-319600Y1394899D01*
X-346500Y1368000D01*
X-346500Y1296500D01*
X-300000Y1250000D01*
X350000Y100000D02*
G01*
X350000Y700000D01*
X-300000Y1350000D01*
X250000Y100000D02*
G01*
X150000Y100000D01*
X250000Y3700000D02*
G01*
X150000Y3700000D01*
X250000Y3700000D02*
G01*
X250000Y3654499D01*
X250000Y2800000D02*
G01*
X250000Y2822800D01*
X250000Y2822800D02*
G01*
X250000Y2845500D01*
X250000Y2822800D02*
G01*
X218299Y2822800D01*
X195500Y2800000D01*
X150000Y2800000D02*
G01*
X195500Y2800000D01*
X250000Y1000000D02*
G01*
X150000Y1000000D01*
X250000Y1900000D02*
G01*
X150000Y1900000D01*
X150000Y1900000D02*
G01*
X-205399Y1900000D01*
X-255399Y1950000D01*
X-300000Y1950000D02*
G01*
X-255399Y1950000D01*
X1150000Y-500000D02*
G01*
X1250000Y-500000D01*
X1150000Y100000D02*
G01*
X1250000Y100000D01*
X1150000Y400000D02*
G01*
X1250000Y400000D01*
X1150000Y1000000D02*
G01*
X1250000Y1000000D01*
X1150000Y1300000D02*
G01*
X1250000Y1300000D01*
X1150000Y1900000D02*
G01*
X1250000Y1900000D01*
X1150000Y2200000D02*
G01*
X1250000Y2200000D01*
X1150000Y2800000D02*
G01*
X1250000Y2800000D01*
X1150000Y3700000D02*
G01*
X1250000Y3700000D01*
X1150000Y3100000D02*
G01*
X1250000Y3100000D01*
D12*
G01*
X-291729Y1000000D03*
G01*
X-8270Y1000000D03*
G01*
X-291729Y850000D03*
G01*
X-8270Y850000D03*
G01*
X-291729Y700000D03*
G01*
X-8270Y700000D03*
G01*
X-291729Y550000D03*
G01*
X-8270Y550000D03*
G01*
X-291729Y400000D03*
G01*
X-8270Y400000D03*
G36*
X115551Y1034448D02*
G01*
X184448Y1034448D01*
X184448Y965551D01*
X115551Y965551D01*
G37*
G36*
X215551Y1034448D02*
G01*
X284448Y1034448D01*
X284448Y965551D01*
X215551Y965551D01*
G37*
D14*
G01*
X450000Y1000000D03*
G01*
X1250000Y1000000D03*
G01*
X1150000Y1000000D03*
G01*
X1250000Y400000D03*
G01*
X1150000Y400000D03*
G01*
X250000Y400000D03*
G01*
X150000Y400000D03*
G36*
X115551Y1934448D02*
G01*
X184448Y1934448D01*
X184448Y1865551D01*
X115551Y1865551D01*
G37*
G36*
X215551Y1934448D02*
G01*
X284448Y1934448D01*
X284448Y1865551D01*
X215551Y1865551D01*
G37*
G01*
X450000Y1900000D03*
G01*
X1250000Y1900000D03*
G01*
X1150000Y1900000D03*
G01*
X1250000Y1300000D03*
G01*
X1150000Y1300000D03*
G01*
X250000Y1300000D03*
G01*
X150000Y1300000D03*
G36*
X115551Y2834448D02*
G01*
X184448Y2834448D01*
X184448Y2765551D01*
X115551Y2765551D01*
G37*
G36*
X215551Y2834448D02*
G01*
X284448Y2834448D01*
X284448Y2765551D01*
X215551Y2765551D01*
G37*
G01*
X450000Y2800000D03*
G01*
X1250000Y2800000D03*
G01*
X1150000Y2800000D03*
G01*
X1250000Y2200000D03*
G01*
X1150000Y2200000D03*
G01*
X250000Y2200000D03*
G01*
X150000Y2200000D03*
G36*
X115551Y3734448D02*
G01*
X184448Y3734448D01*
X184448Y3665551D01*
X115551Y3665551D01*
G37*
G36*
X215551Y3734448D02*
G01*
X284448Y3734448D01*
X284448Y3665551D01*
X215551Y3665551D01*
G37*
G01*
X450000Y3700000D03*
G01*
X1250000Y3700000D03*
G01*
X1150000Y3700000D03*
G01*
X1250000Y3100000D03*
G01*
X1150000Y3100000D03*
G01*
X250000Y3100000D03*
G01*
X150000Y3100000D03*
D15*
G01*
X-300000Y1950000D03*
D16*
G01*
X-300000Y1850000D03*
G01*
X-300000Y1750000D03*
G01*
X-300000Y1650000D03*
G01*
X-300000Y1550000D03*
G01*
X-300000Y1450000D03*
G01*
X-300000Y1350000D03*
G01*
X-300000Y1250000D03*
G36*
X115551Y134448D02*
G01*
X184448Y134448D01*
X184448Y65551D01*
X115551Y65551D01*
G37*
G36*
X215551Y134448D02*
G01*
X284448Y134448D01*
X284448Y65551D01*
X215551Y65551D01*
G37*
D14*
G01*
X350000Y100000D03*
G01*
X1250000Y100000D03*
G01*
X1150000Y100000D03*
G01*
X1250000Y-500000D03*
G01*
X1150000Y-500000D03*
G01*
X250000Y-500000D03*
G01*
X150000Y-500000D03*
D11*
G01*
X300000Y550000D03*
M02*
