G04 Layer: TopPasteMaskLayer*
G04 EasyEDA v6.4.19.5, 2021-04-14T00:29:27--4:00*
G04 1aa91caa295b4f419204925acdaed393,7d3a50bdc1ce4050a4f63d2f8b141863,10*
G04 Gerber Generator version 0.2*
G04 Scale: 100 percent, Rotated: No, Reflected: No *
G04 Dimensions in inches *
G04 leading zeros omitted , absolute positions ,3 integer and 6 decimal *
%FSLAX36Y36*%
%MOIN*%

%ADD10C,0.0001*%

%LPD*%
G36*
X1712204Y3748031D02*
G01*
X1731889Y3748031D01*
X1731889Y3618110D01*
X1712204Y3618110D01*
G37*
G36*
X1601967Y3748031D02*
G01*
X1621652Y3748031D01*
X1621652Y3618110D01*
X1601967Y3618110D01*
G37*
G36*
X1641337Y3748031D02*
G01*
X1692519Y3748031D01*
X1692519Y3618110D01*
X1641337Y3618110D01*
G37*
G36*
X1712204Y3448031D02*
G01*
X1731889Y3448031D01*
X1731889Y3318110D01*
X1712204Y3318110D01*
G37*
G36*
X1601967Y3448031D02*
G01*
X1621652Y3448031D01*
X1621652Y3318110D01*
X1601967Y3318110D01*
G37*
G36*
X1641337Y3448031D02*
G01*
X1692519Y3448031D01*
X1692519Y3318110D01*
X1641337Y3318110D01*
G37*
G36*
X1712204Y3148031D02*
G01*
X1731889Y3148031D01*
X1731889Y3018110D01*
X1712204Y3018110D01*
G37*
G36*
X1601967Y3148031D02*
G01*
X1621652Y3148031D01*
X1621652Y3018110D01*
X1601967Y3018110D01*
G37*
G36*
X1641337Y3148031D02*
G01*
X1692519Y3148031D01*
X1692519Y3018110D01*
X1641337Y3018110D01*
G37*
G36*
X1712204Y2848031D02*
G01*
X1731889Y2848031D01*
X1731889Y2718110D01*
X1712204Y2718110D01*
G37*
G36*
X1601967Y2848031D02*
G01*
X1621652Y2848031D01*
X1621652Y2718110D01*
X1601967Y2718110D01*
G37*
G36*
X1641337Y2848031D02*
G01*
X1692519Y2848031D01*
X1692519Y2718110D01*
X1641337Y2718110D01*
G37*
G36*
X1712204Y2548031D02*
G01*
X1731889Y2548031D01*
X1731889Y2418110D01*
X1712204Y2418110D01*
G37*
G36*
X1601967Y2548031D02*
G01*
X1621652Y2548031D01*
X1621652Y2418110D01*
X1601967Y2418110D01*
G37*
G36*
X1641337Y2548031D02*
G01*
X1692519Y2548031D01*
X1692519Y2418110D01*
X1641337Y2418110D01*
G37*
G36*
X1712204Y2248031D02*
G01*
X1731889Y2248031D01*
X1731889Y2118110D01*
X1712204Y2118110D01*
G37*
G36*
X1601967Y2248031D02*
G01*
X1621652Y2248031D01*
X1621652Y2118110D01*
X1601967Y2118110D01*
G37*
G36*
X1641337Y2248031D02*
G01*
X1692519Y2248031D01*
X1692519Y2118110D01*
X1641337Y2118110D01*
G37*
G36*
X1712204Y1948031D02*
G01*
X1731889Y1948031D01*
X1731889Y1818110D01*
X1712204Y1818110D01*
G37*
G36*
X1601967Y1948031D02*
G01*
X1621652Y1948031D01*
X1621652Y1818110D01*
X1601967Y1818110D01*
G37*
G36*
X1641337Y1948031D02*
G01*
X1692519Y1948031D01*
X1692519Y1818110D01*
X1641337Y1818110D01*
G37*
G36*
X1712204Y1648031D02*
G01*
X1731889Y1648031D01*
X1731889Y1518110D01*
X1712204Y1518110D01*
G37*
G36*
X1601967Y1648031D02*
G01*
X1621652Y1648031D01*
X1621652Y1518110D01*
X1601967Y1518110D01*
G37*
G36*
X1641337Y1648031D02*
G01*
X1692519Y1648031D01*
X1692519Y1518110D01*
X1641337Y1518110D01*
G37*
G36*
X1712204Y1348031D02*
G01*
X1731889Y1348031D01*
X1731889Y1218110D01*
X1712204Y1218110D01*
G37*
G36*
X1601967Y1348031D02*
G01*
X1621652Y1348031D01*
X1621652Y1218110D01*
X1601967Y1218110D01*
G37*
G36*
X1641337Y1348031D02*
G01*
X1692519Y1348031D01*
X1692519Y1218110D01*
X1641337Y1218110D01*
G37*
G36*
X1712204Y1048031D02*
G01*
X1731889Y1048031D01*
X1731889Y918110D01*
X1712204Y918110D01*
G37*
G36*
X1601967Y1048031D02*
G01*
X1621652Y1048031D01*
X1621652Y918110D01*
X1601967Y918110D01*
G37*
G36*
X1641337Y1048031D02*
G01*
X1692519Y1048031D01*
X1692519Y918110D01*
X1641337Y918110D01*
G37*
G36*
X1712204Y748031D02*
G01*
X1731889Y748031D01*
X1731889Y618110D01*
X1712204Y618110D01*
G37*
G36*
X1601967Y748031D02*
G01*
X1621652Y748031D01*
X1621652Y618110D01*
X1601967Y618110D01*
G37*
G36*
X1641337Y748031D02*
G01*
X1692519Y748031D01*
X1692519Y618110D01*
X1641337Y618110D01*
G37*
G36*
X1712204Y448031D02*
G01*
X1731889Y448031D01*
X1731889Y318110D01*
X1712204Y318110D01*
G37*
G36*
X1601967Y448031D02*
G01*
X1621652Y448031D01*
X1621652Y318110D01*
X1601967Y318110D01*
G37*
G36*
X1641337Y448031D02*
G01*
X1692519Y448031D01*
X1692519Y318110D01*
X1641337Y318110D01*
G37*
G36*
X1712204Y148031D02*
G01*
X1731889Y148031D01*
X1731889Y18110D01*
X1712204Y18110D01*
G37*
G36*
X1601967Y148031D02*
G01*
X1621652Y148031D01*
X1621652Y18110D01*
X1601967Y18110D01*
G37*
G36*
X1641337Y148031D02*
G01*
X1692519Y148031D01*
X1692519Y18110D01*
X1641337Y18110D01*
G37*
G36*
X1712204Y-151968D02*
G01*
X1731889Y-151968D01*
X1731889Y-281889D01*
X1712204Y-281889D01*
G37*
G36*
X1601967Y-151968D02*
G01*
X1621652Y-151968D01*
X1621652Y-281889D01*
X1601967Y-281889D01*
G37*
G36*
X1641337Y-151968D02*
G01*
X1692519Y-151968D01*
X1692519Y-281889D01*
X1641337Y-281889D01*
G37*
G36*
X1712204Y-451968D02*
G01*
X1731889Y-451968D01*
X1731889Y-581889D01*
X1712204Y-581889D01*
G37*
G36*
X1601967Y-451968D02*
G01*
X1621652Y-451968D01*
X1621652Y-581889D01*
X1601967Y-581889D01*
G37*
G36*
X1641337Y-451968D02*
G01*
X1692519Y-451968D01*
X1692519Y-581889D01*
X1641337Y-581889D01*
G37*
M02*
