G04 Layer: TopLayer*
G04 EasyEDA v6.4.19.5, 2021-04-14T00:29:27--4:00*
G04 1aa91caa295b4f419204925acdaed393,7d3a50bdc1ce4050a4f63d2f8b141863,10*
G04 Gerber Generator version 0.2*
G04 Scale: 100 percent, Rotated: No, Reflected: No *
G04 Dimensions in inches *
G04 leading zeros omitted , absolute positions ,3 integer and 6 decimal *
%FSLAX36Y36*%
%MOIN*%

%ADD10C,0.0100*%
%ADD11C,0.0200*%
%ADD12C,0.0400*%
%ADD13C,0.0600*%
%ADD14C,0.0740*%
%ADD15R,0.0669X0.0669*%
%ADD16C,0.0669*%

%LPD*%
G36*
X219840Y2222500D02*
G01*
X219840Y2177500D01*
X240840Y2180000D01*
X240840Y2220000D01*
G37*
G36*
X280160Y2222500D02*
G01*
X259160Y2220000D01*
X259160Y2180000D01*
X280160Y2177500D01*
G37*
G36*
X329940Y2201880D02*
G01*
X298120Y2170060D01*
X314740Y2156980D01*
X343020Y2185260D01*
G37*
G36*
X314740Y2243020D02*
G01*
X298120Y2229940D01*
X329940Y2198120D01*
X343020Y2214740D01*
G37*
G36*
X185260Y2843020D02*
G01*
X156980Y2814740D01*
X170060Y2798120D01*
X201880Y2829940D01*
G37*
G36*
X219840Y2822500D02*
G01*
X219840Y2777500D01*
X240840Y2780000D01*
X240840Y2820000D01*
G37*
G36*
X170060Y2801880D02*
G01*
X156980Y2785260D01*
X185260Y2756980D01*
X201880Y2770059D01*
G37*
G36*
X280160Y2822500D02*
G01*
X259160Y2820000D01*
X259160Y2780000D01*
X280160Y2777500D01*
G37*
G36*
X1321819Y2835960D02*
G01*
X1298120Y2829940D01*
X1329940Y2798120D01*
X1335960Y2821800D01*
G37*
G36*
X1329940Y2201880D02*
G01*
X1298120Y2170060D01*
X1321800Y2164040D01*
X1335960Y2178200D01*
G37*
G36*
X219840Y1322500D02*
G01*
X219840Y1277500D01*
X240840Y1280000D01*
X240840Y1320000D01*
G37*
G36*
X280160Y1322500D02*
G01*
X259160Y1320000D01*
X259160Y1280000D01*
X280160Y1277500D01*
G37*
G36*
X314740Y1343020D02*
G01*
X298120Y1329940D01*
X329940Y1298120D01*
X343020Y1314740D01*
G37*
G36*
X329940Y1301879D02*
G01*
X298120Y1270060D01*
X314740Y1256980D01*
X343020Y1285260D01*
G37*
G36*
X219840Y1922500D02*
G01*
X219840Y1877500D01*
X240840Y1880000D01*
X240840Y1920000D01*
G37*
G36*
X170060Y1901879D02*
G01*
X156980Y1885260D01*
X185260Y1856980D01*
X201880Y1870060D01*
G37*
G36*
X185260Y1943020D02*
G01*
X156980Y1914740D01*
X170060Y1898120D01*
X201880Y1929940D01*
G37*
G36*
X280160Y1922500D02*
G01*
X259160Y1920000D01*
X259160Y1880000D01*
X280160Y1877500D01*
G37*
G36*
X1321819Y1935960D02*
G01*
X1298120Y1929940D01*
X1329940Y1898120D01*
X1335960Y1921800D01*
G37*
G36*
X1329940Y1301879D02*
G01*
X1298120Y1270060D01*
X1321800Y1264040D01*
X1335960Y1278200D01*
G37*
G36*
X219840Y422500D02*
G01*
X219840Y377500D01*
X240840Y380000D01*
X240840Y420000D01*
G37*
G36*
X280160Y422500D02*
G01*
X259160Y420000D01*
X259160Y380000D01*
X280160Y377500D01*
G37*
G36*
X329940Y401880D02*
G01*
X298120Y370060D01*
X314740Y356980D01*
X343020Y385260D01*
G37*
G36*
X314740Y443020D02*
G01*
X298120Y429940D01*
X329940Y398120D01*
X343020Y414739D01*
G37*
G36*
X219840Y1022500D02*
G01*
X219840Y977500D01*
X240840Y980000D01*
X240840Y1020000D01*
G37*
G36*
X170060Y1001880D02*
G01*
X156980Y985260D01*
X185260Y956979D01*
X201880Y970060D01*
G37*
G36*
X185260Y1043020D02*
G01*
X156980Y1014740D01*
X170060Y998120D01*
X201880Y1029940D01*
G37*
G36*
X280160Y1022500D02*
G01*
X259160Y1020000D01*
X259160Y980000D01*
X280160Y977500D01*
G37*
G36*
X1321819Y1035960D02*
G01*
X1298120Y1029940D01*
X1329940Y998120D01*
X1335960Y1021800D01*
G37*
G36*
X1329940Y401880D02*
G01*
X1298120Y370060D01*
X1321800Y364040D01*
X1335960Y378200D01*
G37*
G36*
X219840Y-477500D02*
G01*
X219840Y-522500D01*
X240840Y-520000D01*
X240840Y-480000D01*
G37*
G36*
X280160Y-477500D02*
G01*
X259160Y-480000D01*
X259160Y-520000D01*
X280160Y-522500D01*
G37*
G36*
X314740Y-456980D02*
G01*
X298120Y-470060D01*
X329940Y-501880D01*
X343020Y-485260D01*
G37*
G36*
X219840Y122500D02*
G01*
X219840Y77500D01*
X240840Y80000D01*
X240840Y120000D01*
G37*
G36*
X185260Y143020D02*
G01*
X156980Y114740D01*
X170060Y98120D01*
X201880Y129940D01*
G37*
G36*
X280160Y122500D02*
G01*
X259160Y120000D01*
X259160Y80000D01*
X280160Y77500D01*
G37*
G36*
X1321819Y135960D02*
G01*
X1298120Y129940D01*
X1329940Y98120D01*
X1335960Y121800D01*
G37*
G36*
X1329940Y-498120D02*
G01*
X1298120Y-529940D01*
X1321800Y-535960D01*
X1335960Y-521800D01*
G37*
G36*
X219840Y3122500D02*
G01*
X219840Y3077500D01*
X240840Y3080000D01*
X240840Y3120000D01*
G37*
G36*
X280160Y3122500D02*
G01*
X259160Y3120000D01*
X259160Y3080000D01*
X280160Y3077500D01*
G37*
G36*
X329940Y3101880D02*
G01*
X298120Y3070059D01*
X314740Y3056980D01*
X343020Y3085260D01*
G37*
G36*
X170060Y3701880D02*
G01*
X156980Y3685260D01*
X185260Y3656980D01*
X201880Y3670059D01*
G37*
G36*
X219840Y3722500D02*
G01*
X219840Y3677500D01*
X240840Y3680000D01*
X240840Y3720000D01*
G37*
G36*
X280160Y3722500D02*
G01*
X259160Y3720000D01*
X259160Y3680000D01*
X280160Y3677500D01*
G37*
G36*
X1321819Y3735960D02*
G01*
X1298120Y3729940D01*
X1329940Y3698120D01*
X1335960Y3721800D01*
G37*
G36*
X1329940Y3101880D02*
G01*
X1298120Y3070059D01*
X1321800Y3064040D01*
X1335960Y3078200D01*
G37*
G36*
X-480000Y2075380D02*
G01*
X-502760Y2049480D01*
X-447239Y2049480D01*
X-470000Y2075380D01*
G37*
G36*
X-80000Y2075380D02*
G01*
X-102760Y2049480D01*
X-47240Y2049480D01*
X-70000Y2075380D01*
G37*
G36*
X-102760Y2000520D02*
G01*
X-80000Y1974620D01*
X-70000Y1974620D01*
X-47240Y2000520D01*
G37*
G36*
X-102760Y1800520D02*
G01*
X-80000Y1774620D01*
X-70000Y1774620D01*
X-47240Y1800520D01*
G37*
G36*
X-80000Y1875380D02*
G01*
X-102760Y1849480D01*
X-47240Y1849480D01*
X-70000Y1875380D01*
G37*
G36*
X-442920Y1664160D02*
G01*
X-477320Y1661920D01*
X-438080Y1622680D01*
X-435840Y1657080D01*
G37*
G36*
X-102760Y1600520D02*
G01*
X-80000Y1574620D01*
X-70000Y1574620D01*
X-47240Y1600520D01*
G37*
G36*
X-80000Y1675380D02*
G01*
X-102760Y1649480D01*
X-47240Y1649480D01*
X-70000Y1675380D01*
G37*
G36*
X-442920Y1464160D02*
G01*
X-477320Y1461920D01*
X-438080Y1422680D01*
X-435840Y1457080D01*
G37*
G36*
X-102760Y1400520D02*
G01*
X-80000Y1374620D01*
X-70000Y1374620D01*
X-47240Y1400520D01*
G37*
G36*
X-80000Y1475380D02*
G01*
X-102760Y1449480D01*
X-47240Y1449480D01*
X-70000Y1475380D01*
G37*
G36*
X-507080Y1264160D02*
G01*
X-514159Y1257080D01*
X-511920Y1222680D01*
X-472680Y1261920D01*
G37*
G36*
X-80000Y1275380D02*
G01*
X-102760Y1249480D01*
X-47240Y1249480D01*
X-70000Y1275380D01*
G37*
G36*
X-403400Y3232100D02*
G01*
X-405760Y3201320D01*
X-398680Y3194240D01*
X-367900Y3196600D01*
G37*
G36*
X-403400Y3032100D02*
G01*
X-405760Y3001320D01*
X-398680Y2994240D01*
X-367900Y2996600D01*
G37*
G36*
X-347860Y2955100D02*
G01*
X-347860Y2904900D01*
X-330000Y2925000D01*
X-330000Y2935000D01*
G37*
G36*
X-403400Y2832100D02*
G01*
X-405760Y2801320D01*
X-398680Y2794240D01*
X-367900Y2796600D01*
G37*
G36*
X-336540Y3414220D02*
G01*
X-354219Y3396540D01*
X-338300Y3391240D01*
X-331240Y3398300D01*
G37*
D11*
X1611800Y83099D02*
G01*
X1611800Y159099D01*
X1300000Y100000D02*
G01*
X1359099Y159099D01*
X1611800Y159099D01*
D10*
X-475000Y1225000D02*
G01*
X-524499Y1274499D01*
X-524499Y1852500D01*
X-426900Y1950100D01*
X-426900Y2773099D01*
X-370000Y2830000D01*
D11*
X1611800Y3683099D02*
G01*
X1611800Y3759099D01*
X1611800Y2783099D02*
G01*
X1611800Y2859099D01*
X1611800Y1883099D02*
G01*
X1611800Y1959099D01*
X1300000Y1900000D02*
G01*
X1359099Y1959099D01*
X1611800Y1959099D01*
X1611800Y983099D02*
G01*
X1611800Y1059099D01*
X1300000Y1000000D02*
G01*
X1359099Y1059099D01*
X1611800Y1059099D01*
X1611800Y-516900D02*
G01*
X1611800Y-434099D01*
X1722100Y-323899D01*
X1722100Y-216900D01*
X1611800Y-216900D02*
G01*
X1611800Y-134099D01*
X1722100Y-23899D01*
X1722100Y83099D01*
X1611800Y383099D02*
G01*
X1611800Y465900D01*
X1722100Y576100D01*
X1722100Y683099D01*
X1611800Y683099D02*
G01*
X1611800Y765900D01*
X1722100Y876100D01*
X1722100Y983099D01*
X1611800Y1283099D02*
G01*
X1611800Y1365900D01*
X1722100Y1476100D01*
X1722100Y1583099D01*
X1611800Y1583099D02*
G01*
X1611800Y1665900D01*
X1722100Y1776100D01*
X1722100Y1883099D01*
X1611800Y2183099D02*
G01*
X1611800Y2265900D01*
X1722100Y2376100D01*
X1722100Y2483099D01*
X1611800Y2483099D02*
G01*
X1611800Y2565900D01*
X1722100Y2676100D01*
X1722100Y2783099D01*
X1611800Y3383099D02*
G01*
X1611800Y3465900D01*
X1722100Y3576100D01*
X1722100Y3683099D01*
D10*
X-370000Y3230000D02*
G01*
X-475000Y3125000D01*
X-475000Y2025000D01*
D12*
X200000Y1900000D02*
G01*
X100000Y2000000D01*
X100000Y2700000D01*
X200000Y2800000D01*
X200000Y1900000D02*
G01*
X100000Y1800000D01*
X100000Y1100000D01*
X200000Y1000000D01*
X200000Y100000D02*
G01*
X100000Y200000D01*
X100000Y900000D01*
X200000Y1000000D01*
X300000Y400000D02*
G01*
X400000Y500000D01*
X400000Y1200000D01*
X300000Y1300000D01*
D10*
X-370000Y2930000D02*
G01*
X-330000Y2930000D01*
X-250000Y2850000D01*
X-250000Y1650000D01*
X-475000Y1425000D01*
X-475000Y1625000D02*
G01*
X-300000Y1800000D01*
X-300000Y2827500D01*
X-352500Y2880000D01*
X-405000Y2880000D01*
X-425000Y2900000D01*
X-425000Y2975000D01*
X-370000Y3030000D01*
X-75000Y1825000D02*
G01*
X-75000Y2025000D01*
X-75000Y1625000D02*
G01*
X-75000Y1825000D01*
X-75000Y1425000D02*
G01*
X-75000Y1625000D01*
X-75000Y1225000D02*
G01*
X-75000Y1425000D01*
X-75000Y2025000D02*
G01*
X-75000Y3135000D01*
X-370000Y3430000D01*
D12*
X300000Y1300000D02*
G01*
X400000Y1400000D01*
X400000Y2100000D01*
X300000Y2200000D01*
X300000Y1000000D02*
G01*
X200000Y1000000D01*
X300000Y100000D02*
G01*
X200000Y100000D01*
X300000Y1900000D02*
G01*
X200000Y1900000D01*
X300000Y2200000D02*
G01*
X200000Y2200000D01*
X300000Y2800000D02*
G01*
X200000Y2800000D01*
X300000Y3100000D02*
G01*
X200000Y3100000D01*
X300000Y1300000D02*
G01*
X200000Y1300000D01*
X300000Y400000D02*
G01*
X200000Y400000D01*
X300000Y-500000D02*
G01*
X200000Y-500000D01*
D11*
X1300000Y2200000D02*
G01*
X1425000Y2075000D01*
X1700000Y2075000D01*
X1722100Y2097100D01*
X1722100Y2183099D01*
X1722100Y3383099D02*
G01*
X1722100Y3282100D01*
X1611800Y3171799D01*
X1611800Y3083099D01*
X1300000Y2800000D02*
G01*
X1359099Y2859099D01*
X1611800Y2859099D01*
X1722100Y3083099D02*
G01*
X1722100Y2992100D01*
X1690000Y2960000D01*
X1440000Y2960000D01*
X1300000Y3100000D01*
X1722100Y383099D02*
G01*
X1722100Y297100D01*
X1700000Y275000D01*
X1425000Y275000D01*
X1300000Y400000D01*
X1722100Y1283099D02*
G01*
X1725000Y1280100D01*
X1725000Y1200000D01*
X1700000Y1175000D01*
X1425000Y1175000D01*
X1300000Y1300000D01*
X1722100Y-516900D02*
G01*
X1722100Y-602899D01*
X1675000Y-650000D01*
X1450000Y-650000D01*
X1300000Y-500000D01*
D12*
X200000Y3700000D02*
G01*
X100000Y3600000D01*
X100000Y2900000D01*
X200000Y2800000D01*
D11*
X1300000Y3700000D02*
G01*
X1359099Y3759099D01*
X1611800Y3759099D01*
D12*
X300000Y3700000D02*
G01*
X200000Y3700000D01*
X300000Y3100000D02*
G01*
X400000Y3000000D01*
X400000Y2300000D01*
X300000Y2200000D01*
X300000Y-500000D02*
G01*
X500000Y-300000D01*
X500000Y200000D01*
X300000Y400000D01*
G36*
X1712204Y3748031D02*
G01*
X1731889Y3748031D01*
X1731889Y3618110D01*
X1712204Y3618110D01*
G37*
G36*
X1601967Y3748031D02*
G01*
X1621652Y3748031D01*
X1621652Y3618110D01*
X1601967Y3618110D01*
G37*
G36*
X1641337Y3748031D02*
G01*
X1692519Y3748031D01*
X1692519Y3618110D01*
X1641337Y3618110D01*
G37*
G36*
X1712204Y3448031D02*
G01*
X1731889Y3448031D01*
X1731889Y3318110D01*
X1712204Y3318110D01*
G37*
G36*
X1601967Y3448031D02*
G01*
X1621652Y3448031D01*
X1621652Y3318110D01*
X1601967Y3318110D01*
G37*
G36*
X1641337Y3448031D02*
G01*
X1692519Y3448031D01*
X1692519Y3318110D01*
X1641337Y3318110D01*
G37*
G36*
X1712204Y3148031D02*
G01*
X1731889Y3148031D01*
X1731889Y3018110D01*
X1712204Y3018110D01*
G37*
G36*
X1601967Y3148031D02*
G01*
X1621652Y3148031D01*
X1621652Y3018110D01*
X1601967Y3018110D01*
G37*
G36*
X1641337Y3148031D02*
G01*
X1692519Y3148031D01*
X1692519Y3018110D01*
X1641337Y3018110D01*
G37*
G36*
X1712204Y2848031D02*
G01*
X1731889Y2848031D01*
X1731889Y2718110D01*
X1712204Y2718110D01*
G37*
G36*
X1601967Y2848031D02*
G01*
X1621652Y2848031D01*
X1621652Y2718110D01*
X1601967Y2718110D01*
G37*
G36*
X1641337Y2848031D02*
G01*
X1692519Y2848031D01*
X1692519Y2718110D01*
X1641337Y2718110D01*
G37*
G36*
X1712204Y2548031D02*
G01*
X1731889Y2548031D01*
X1731889Y2418110D01*
X1712204Y2418110D01*
G37*
G36*
X1601967Y2548031D02*
G01*
X1621652Y2548031D01*
X1621652Y2418110D01*
X1601967Y2418110D01*
G37*
G36*
X1641337Y2548031D02*
G01*
X1692519Y2548031D01*
X1692519Y2418110D01*
X1641337Y2418110D01*
G37*
G36*
X1712204Y2248031D02*
G01*
X1731889Y2248031D01*
X1731889Y2118110D01*
X1712204Y2118110D01*
G37*
G36*
X1601967Y2248031D02*
G01*
X1621652Y2248031D01*
X1621652Y2118110D01*
X1601967Y2118110D01*
G37*
G36*
X1641337Y2248031D02*
G01*
X1692519Y2248031D01*
X1692519Y2118110D01*
X1641337Y2118110D01*
G37*
G36*
X1712204Y1948031D02*
G01*
X1731889Y1948031D01*
X1731889Y1818110D01*
X1712204Y1818110D01*
G37*
G36*
X1601967Y1948031D02*
G01*
X1621652Y1948031D01*
X1621652Y1818110D01*
X1601967Y1818110D01*
G37*
G36*
X1641337Y1948031D02*
G01*
X1692519Y1948031D01*
X1692519Y1818110D01*
X1641337Y1818110D01*
G37*
G36*
X1712204Y1648031D02*
G01*
X1731889Y1648031D01*
X1731889Y1518110D01*
X1712204Y1518110D01*
G37*
G36*
X1601967Y1648031D02*
G01*
X1621652Y1648031D01*
X1621652Y1518110D01*
X1601967Y1518110D01*
G37*
G36*
X1641337Y1648031D02*
G01*
X1692519Y1648031D01*
X1692519Y1518110D01*
X1641337Y1518110D01*
G37*
G36*
X1712204Y1348031D02*
G01*
X1731889Y1348031D01*
X1731889Y1218110D01*
X1712204Y1218110D01*
G37*
G36*
X1601967Y1348031D02*
G01*
X1621652Y1348031D01*
X1621652Y1218110D01*
X1601967Y1218110D01*
G37*
G36*
X1641337Y1348031D02*
G01*
X1692519Y1348031D01*
X1692519Y1218110D01*
X1641337Y1218110D01*
G37*
G36*
X1712204Y1048031D02*
G01*
X1731889Y1048031D01*
X1731889Y918110D01*
X1712204Y918110D01*
G37*
G36*
X1601967Y1048031D02*
G01*
X1621652Y1048031D01*
X1621652Y918110D01*
X1601967Y918110D01*
G37*
G36*
X1641337Y1048031D02*
G01*
X1692519Y1048031D01*
X1692519Y918110D01*
X1641337Y918110D01*
G37*
G36*
X1712204Y748031D02*
G01*
X1731889Y748031D01*
X1731889Y618110D01*
X1712204Y618110D01*
G37*
G36*
X1601967Y748031D02*
G01*
X1621652Y748031D01*
X1621652Y618110D01*
X1601967Y618110D01*
G37*
G36*
X1641337Y748031D02*
G01*
X1692519Y748031D01*
X1692519Y618110D01*
X1641337Y618110D01*
G37*
G36*
X1712204Y448031D02*
G01*
X1731889Y448031D01*
X1731889Y318110D01*
X1712204Y318110D01*
G37*
G36*
X1601967Y448031D02*
G01*
X1621652Y448031D01*
X1621652Y318110D01*
X1601967Y318110D01*
G37*
G36*
X1641337Y448031D02*
G01*
X1692519Y448031D01*
X1692519Y318110D01*
X1641337Y318110D01*
G37*
G36*
X1712204Y148031D02*
G01*
X1731889Y148031D01*
X1731889Y18110D01*
X1712204Y18110D01*
G37*
G36*
X1601967Y148031D02*
G01*
X1621652Y148031D01*
X1621652Y18110D01*
X1601967Y18110D01*
G37*
G36*
X1641337Y148031D02*
G01*
X1692519Y148031D01*
X1692519Y18110D01*
X1641337Y18110D01*
G37*
G36*
X1712204Y-151968D02*
G01*
X1731889Y-151968D01*
X1731889Y-281889D01*
X1712204Y-281889D01*
G37*
G36*
X1601967Y-151968D02*
G01*
X1621652Y-151968D01*
X1621652Y-281889D01*
X1601967Y-281889D01*
G37*
G36*
X1641337Y-151968D02*
G01*
X1692519Y-151968D01*
X1692519Y-281889D01*
X1641337Y-281889D01*
G37*
G36*
X1712204Y-451968D02*
G01*
X1731889Y-451968D01*
X1731889Y-581889D01*
X1712204Y-581889D01*
G37*
G36*
X1601967Y-451968D02*
G01*
X1621652Y-451968D01*
X1621652Y-581889D01*
X1601967Y-581889D01*
G37*
G36*
X1641337Y-451968D02*
G01*
X1692519Y-451968D01*
X1692519Y-581889D01*
X1641337Y-581889D01*
G37*
D13*
G01*
X200000Y2200000D03*
G01*
X300000Y2200000D03*
G01*
X200000Y2800000D03*
G01*
X300000Y2800000D03*
G01*
X500000Y2800000D03*
G01*
X1200000Y2800000D03*
G01*
X1300000Y2800000D03*
G01*
X1300000Y2200000D03*
G01*
X1200000Y2200000D03*
G01*
X200000Y1300000D03*
G01*
X300000Y1300000D03*
G01*
X200000Y1900000D03*
G01*
X300000Y1900000D03*
G01*
X500000Y1900000D03*
G01*
X1200000Y1900000D03*
G01*
X1300000Y1900000D03*
G01*
X1300000Y1300000D03*
G01*
X1200000Y1300000D03*
G01*
X200000Y400000D03*
G01*
X300000Y400000D03*
G01*
X200000Y1000000D03*
G01*
X300000Y1000000D03*
G01*
X500000Y1000000D03*
G01*
X1200000Y1000000D03*
G01*
X1300000Y1000000D03*
G01*
X1300000Y400000D03*
G01*
X1200000Y400000D03*
G01*
X200000Y-500000D03*
G01*
X300000Y-500000D03*
G01*
X200000Y100000D03*
G01*
X300000Y100000D03*
G01*
X400000Y100000D03*
G01*
X1200000Y100000D03*
G01*
X1300000Y100000D03*
G01*
X1300000Y-500000D03*
G01*
X1200000Y-500000D03*
G01*
X200000Y3100000D03*
G01*
X300000Y3100000D03*
G01*
X200000Y3700000D03*
G01*
X300000Y3700000D03*
G01*
X500000Y3700000D03*
G01*
X1200000Y3700000D03*
G01*
X1300000Y3700000D03*
G01*
X1300000Y3100000D03*
G01*
X1200000Y3100000D03*
D14*
G01*
X-475000Y2025000D03*
G01*
X-75000Y2025000D03*
G01*
X-475000Y1825000D03*
G01*
X-75000Y1825000D03*
G01*
X-475000Y1625000D03*
G01*
X-75000Y1625000D03*
G01*
X-475000Y1425000D03*
G01*
X-75000Y1425000D03*
G01*
X-475000Y1225000D03*
G01*
X-75000Y1225000D03*
D15*
G01*
X-370000Y3430000D03*
D16*
G01*
X-370000Y3330000D03*
G01*
X-370000Y3230000D03*
G01*
X-370000Y3130000D03*
G01*
X-370000Y3030000D03*
G01*
X-370000Y2930000D03*
G01*
X-370000Y2830000D03*
G01*
X-370000Y2730000D03*
M02*
