G04 Layer: BottomSolderMaskLayer*
G04 EasyEDA v6.4.17, 2021-03-30T20:59:40--4:00*
G04 9c89494b3ddf4ec7811cb6ad7e81a00b,7d3a50bdc1ce4050a4f63d2f8b141863,10*
G04 Gerber Generator version 0.2*
G04 Scale: 100 percent, Rotated: No, Reflected: No *
G04 Dimensions in inches *
G04 leading zeros omitted , absolute positions ,3 integer and 6 decimal *
%FSLAX36Y36*%
%MOIN*%

%ADD20C,0.0552*%
%ADD22C,0.0807*%
%ADD24C,0.0749*%

%LPD*%
D20*
G01*
X-291729Y1000000D03*
G01*
X-8270Y1000000D03*
G01*
X-291729Y850000D03*
G01*
X-8270Y850000D03*
G01*
X-291729Y700000D03*
G01*
X-8270Y700000D03*
G01*
X-291729Y550000D03*
G01*
X-8270Y550000D03*
G01*
X-291729Y400000D03*
G01*
X-8270Y400000D03*
G36*
X109600Y959600D02*
G01*
X109600Y1040399D01*
X190399Y1040399D01*
X190399Y959600D01*
G37*
G36*
X209600Y959600D02*
G01*
X209600Y1040399D01*
X290399Y1040399D01*
X290399Y959600D01*
G37*
D22*
G01*
X450000Y1000000D03*
G01*
X1250000Y1000000D03*
G01*
X1150000Y1000000D03*
G01*
X1250000Y400000D03*
G01*
X1150000Y400000D03*
G01*
X250000Y400000D03*
G01*
X150000Y400000D03*
G36*
X109600Y1859600D02*
G01*
X109600Y1940399D01*
X190399Y1940399D01*
X190399Y1859600D01*
G37*
G36*
X209600Y1859600D02*
G01*
X209600Y1940399D01*
X290399Y1940399D01*
X290399Y1859600D01*
G37*
G01*
X450000Y1900000D03*
G01*
X1250000Y1900000D03*
G01*
X1150000Y1900000D03*
G01*
X1250000Y1300000D03*
G01*
X1150000Y1300000D03*
G01*
X250000Y1300000D03*
G01*
X150000Y1300000D03*
G36*
X109600Y2759600D02*
G01*
X109600Y2840399D01*
X190399Y2840399D01*
X190399Y2759600D01*
G37*
G36*
X209600Y2759600D02*
G01*
X209600Y2840399D01*
X290399Y2840399D01*
X290399Y2759600D01*
G37*
G01*
X450000Y2800000D03*
G01*
X1250000Y2800000D03*
G01*
X1150000Y2800000D03*
G01*
X1250000Y2200000D03*
G01*
X1150000Y2200000D03*
G01*
X250000Y2200000D03*
G01*
X150000Y2200000D03*
G36*
X109600Y3659600D02*
G01*
X109600Y3740399D01*
X190399Y3740399D01*
X190399Y3659600D01*
G37*
G36*
X209600Y3659600D02*
G01*
X209600Y3740399D01*
X290399Y3740399D01*
X290399Y3659600D01*
G37*
G01*
X450000Y3700000D03*
G01*
X1250000Y3700000D03*
G01*
X1150000Y3700000D03*
G01*
X1250000Y3100000D03*
G01*
X1150000Y3100000D03*
G01*
X250000Y3100000D03*
G01*
X150000Y3100000D03*
G36*
X-337500Y1912500D02*
G01*
X-337500Y1987500D01*
X-262500Y1987500D01*
X-262500Y1912500D01*
G37*
D24*
G01*
X-300000Y1850000D03*
G01*
X-300000Y1750000D03*
G01*
X-300000Y1650000D03*
G01*
X-300000Y1550000D03*
G01*
X-300000Y1450000D03*
G01*
X-300000Y1350000D03*
G01*
X-300000Y1250000D03*
G36*
X109600Y59600D02*
G01*
X109600Y140399D01*
X190399Y140399D01*
X190399Y59600D01*
G37*
G36*
X209600Y59600D02*
G01*
X209600Y140399D01*
X290399Y140399D01*
X290399Y59600D01*
G37*
D22*
G01*
X350000Y100000D03*
G01*
X1250000Y100000D03*
G01*
X1150000Y100000D03*
G01*
X1250000Y-500000D03*
G01*
X1150000Y-500000D03*
G01*
X250000Y-500000D03*
G01*
X150000Y-500000D03*
M02*
