M48
INCH,LZ
;FILE_FORMAT=2:4
;TYPE=PLATED
;Layer: Drill PTH
;EasyEDA v6.4.19.5, 2021-04-14T00:29:27--4:00
;1aa91caa295b4f419204925acdaed393,7d3a50bdc1ce4050a4f63d2f8b141863,10
;Gerber Generator version 0.2
;Holesize 1 = 0.0350 inch
T01C0.0350
;Holesize 2 = 0.0360 inch
T02C0.0360
;Holesize 3 = 0.0430 inch
T03C0.0430
%
G05
G90
T01
X-004750Y020250
X-000750Y020250
X-004750Y018250
X-000750Y018250
X-004750Y016250
X-000750Y016250
X-004750Y014250
X-000750Y014250
X-004750Y012250
X-000750Y012250
T02
X002000Y022000
X003000Y022000
X002000Y028000
X003000Y028000
X005000Y028000
X012000Y028000
X013000Y028000
X013000Y022000
X012000Y022000
X002000Y013000
X003000Y013000
X002000Y019000
X003000Y019000
X005000Y019000
X012000Y019000
X013000Y019000
X013000Y013000
X012000Y013000
X002000Y004000
X003000Y004000
X002000Y010000
X003000Y010000
X005000Y010000
X012000Y010000
X013000Y010000
X013000Y004000
X012000Y004000
X002000Y-005000
X003000Y-005000
X002000Y001000
X003000Y001000
X004000Y001000
X012000Y001000
X013000Y001000
X013000Y-005000
X012000Y-005000
X002000Y031000
X003000Y031000
X002000Y037000
X003000Y037000
X005000Y037000
X012000Y037000
X013000Y037000
X013000Y031000
X012000Y031000
T03
X-003700Y034300
X-003700Y033300
X-003700Y032300
X-003700Y031300
X-003700Y030300
X-003700Y029300
X-003700Y028300
X-003700Y027300
M30
