M48
INCH,LZ
;FILE_FORMAT=2:4
;TYPE=PLATED
;Layer: Drill PTH
;EasyEDA v6.4.17, 2021-03-30T20:59:40--4:00
;9c89494b3ddf4ec7811cb6ad7e81a00b,7d3a50bdc1ce4050a4f63d2f8b141863,10
;Gerber Generator version 0.2
;Holesize 1 = 0.0120 inch
T01C0.0120
;Holesize 2 = 0.0320 inch
T02C0.0320
;Holesize 3 = 0.0390 inch
T03C0.0390
;Holesize 4 = 0.0430 inch
T04C0.0430
%
G05
G90
T01
X003000Y005500
T02
X-002917Y010000
X-000083Y010000
X-002917Y008500
X-000083Y008500
X-002917Y007000
X-000083Y007000
X-002917Y005500
X-000083Y005500
X-002917Y004000
X-000083Y004000
T03
X001500Y010000
X002500Y010000
X004500Y010000
X012500Y010000
X011500Y010000
X012500Y004000
X011500Y004000
X002500Y004000
X001500Y004000
X001500Y019000
X002500Y019000
X004500Y019000
X012500Y019000
X011500Y019000
X012500Y013000
X011500Y013000
X002500Y013000
X001500Y013000
X001500Y028000
X002500Y028000
X004500Y028000
X012500Y028000
X011500Y028000
X012500Y022000
X011500Y022000
X002500Y022000
X001500Y022000
X001500Y037000
X002500Y037000
X004500Y037000
X012500Y037000
X011500Y037000
X012500Y031000
X011500Y031000
X002500Y031000
X001500Y031000
X001500Y001000
X002500Y001000
X003500Y001000
X012500Y001000
X011500Y001000
X012500Y-005000
X011500Y-005000
X002500Y-005000
X001500Y-005000
T04
X-003000Y019500
X-003000Y018500
X-003000Y017500
X-003000Y016500
X-003000Y015500
X-003000Y014500
X-003000Y013500
X-003000Y012500
M30
