G04 Layer: BottomSolderMaskLayer*
G04 EasyEDA v6.4.19.5, 2021-04-14T00:29:27--4:00*
G04 1aa91caa295b4f419204925acdaed393,7d3a50bdc1ce4050a4f63d2f8b141863,10*
G04 Gerber Generator version 0.2*
G04 Scale: 100 percent, Rotated: No, Reflected: No *
G04 Dimensions in inches *
G04 leading zeros omitted , absolute positions ,3 integer and 6 decimal *
%FSLAX36Y36*%
%MOIN*%

%ADD20C,0.0680*%
%ADD21C,0.0780*%
%ADD23C,0.0709*%

%LPD*%
D20*
G01*
X200000Y2200000D03*
G01*
X300000Y2200000D03*
G01*
X200000Y2800000D03*
G01*
X300000Y2800000D03*
G01*
X500000Y2800000D03*
G01*
X1200000Y2800000D03*
G01*
X1300000Y2800000D03*
G01*
X1300000Y2200000D03*
G01*
X1200000Y2200000D03*
G01*
X200000Y1300000D03*
G01*
X300000Y1300000D03*
G01*
X200000Y1900000D03*
G01*
X300000Y1900000D03*
G01*
X500000Y1900000D03*
G01*
X1200000Y1900000D03*
G01*
X1300000Y1900000D03*
G01*
X1300000Y1300000D03*
G01*
X1200000Y1300000D03*
G01*
X200000Y400000D03*
G01*
X300000Y400000D03*
G01*
X200000Y1000000D03*
G01*
X300000Y1000000D03*
G01*
X500000Y1000000D03*
G01*
X1200000Y1000000D03*
G01*
X1300000Y1000000D03*
G01*
X1300000Y400000D03*
G01*
X1200000Y400000D03*
G01*
X200000Y-500000D03*
G01*
X300000Y-500000D03*
G01*
X200000Y100000D03*
G01*
X300000Y100000D03*
G01*
X400000Y100000D03*
G01*
X1200000Y100000D03*
G01*
X1300000Y100000D03*
G01*
X1300000Y-500000D03*
G01*
X1200000Y-500000D03*
G01*
X200000Y3100000D03*
G01*
X300000Y3100000D03*
G01*
X200000Y3700000D03*
G01*
X300000Y3700000D03*
G01*
X500000Y3700000D03*
G01*
X1200000Y3700000D03*
G01*
X1300000Y3700000D03*
G01*
X1300000Y3100000D03*
G01*
X1200000Y3100000D03*
D21*
G01*
X-475000Y2025000D03*
G01*
X-75000Y2025000D03*
G01*
X-475000Y1825000D03*
G01*
X-75000Y1825000D03*
G01*
X-475000Y1625000D03*
G01*
X-75000Y1625000D03*
G01*
X-475000Y1425000D03*
G01*
X-75000Y1425000D03*
G01*
X-475000Y1225000D03*
G01*
X-75000Y1225000D03*
G36*
X-405500Y3394499D02*
G01*
X-405500Y3465500D01*
X-334499Y3465500D01*
X-334499Y3394499D01*
G37*
D23*
G01*
X-370000Y3330000D03*
G01*
X-370000Y3230000D03*
G01*
X-370000Y3130000D03*
G01*
X-370000Y3030000D03*
G01*
X-370000Y2930000D03*
G01*
X-370000Y2830000D03*
G01*
X-370000Y2730000D03*
M02*
