G04 Layer: TopSilkLayer*
G04 EasyEDA v6.4.19.5, 2021-04-14T00:29:27--4:00*
G04 1aa91caa295b4f419204925acdaed393,7d3a50bdc1ce4050a4f63d2f8b141863,10*
G04 Gerber Generator version 0.2*
G04 Scale: 100 percent, Rotated: No, Reflected: No *
G04 Dimensions in inches *
G04 leading zeros omitted , absolute positions ,3 integer and 6 decimal *
%FSLAX36Y36*%
%MOIN*%

%ADD10C,0.0100*%
%ADD17C,0.0039*%
%ADD18C,0.0080*%
%ADD19C,0.0060*%

%LPD*%
D18*
X-267300Y3360500D02*
G01*
X-294499Y3360500D01*
X-297300Y3335999D01*
X-294499Y3338699D01*
X-286399Y3341500D01*
X-278200Y3341500D01*
X-270000Y3338699D01*
X-264499Y3333299D01*
X-261799Y3325100D01*
X-261799Y3319600D01*
X-264499Y3311500D01*
X-270000Y3305999D01*
X-278200Y3303299D01*
X-286399Y3303299D01*
X-294499Y3305999D01*
X-297300Y3308699D01*
X-300000Y3314200D01*
X-243800Y3360500D02*
G01*
X-221999Y3303299D01*
X-200199Y3360500D02*
G01*
X-221999Y3303299D01*
X-300000Y2749600D02*
G01*
X-294499Y2752399D01*
X-286399Y2760500D01*
X-286399Y2703299D01*
X-265599Y2746900D02*
G01*
X-265599Y2749600D01*
X-262899Y2755100D01*
X-260199Y2757800D01*
X-254699Y2760500D01*
X-243800Y2760500D01*
X-238400Y2757800D01*
X-235599Y2755100D01*
X-232899Y2749600D01*
X-232899Y2744200D01*
X-235599Y2738699D01*
X-241100Y2730500D01*
X-268400Y2703299D01*
X-230199Y2703299D01*
X-212199Y2760500D02*
G01*
X-190399Y2703299D01*
X-168499Y2760500D02*
G01*
X-190399Y2703299D01*
X-300000Y3060500D02*
G01*
X-286399Y3003299D01*
X-272699Y3060500D02*
G01*
X-286399Y3003299D01*
X-272699Y3060500D02*
G01*
X-259099Y3003299D01*
X-245500Y3060500D02*
G01*
X-259099Y3003299D01*
X-205599Y3060500D02*
G01*
X-227500Y3003299D01*
X-205599Y3060500D02*
G01*
X-183800Y3003299D01*
X-219299Y3022399D02*
G01*
X-191999Y3022399D01*
X-165799Y3060500D02*
G01*
X-165799Y3003299D01*
X-165799Y3060500D02*
G01*
X-141300Y3060500D01*
X-133099Y3057800D01*
X-130399Y3055100D01*
X-127600Y3049600D01*
X-127600Y3044200D01*
X-130399Y3038699D01*
X-133099Y3035999D01*
X-141300Y3033299D01*
X-165799Y3033299D01*
X-146700Y3033299D02*
G01*
X-127600Y3003299D01*
X-109600Y3060500D02*
G01*
X-109600Y3003299D01*
X-109600Y3060500D02*
G01*
X-87800Y3003299D01*
X-65999Y3060500D02*
G01*
X-87800Y3003299D01*
X-65999Y3060500D02*
G01*
X-65999Y3003299D01*
X-300000Y2960500D02*
G01*
X-300000Y2903299D01*
X-300000Y2960500D02*
G01*
X-275500Y2960500D01*
X-267300Y2957800D01*
X-264499Y2955100D01*
X-261799Y2949600D01*
X-261799Y2944200D01*
X-264499Y2938699D01*
X-267300Y2935999D01*
X-275500Y2933299D01*
X-300000Y2933299D01*
X-280900Y2933299D02*
G01*
X-261799Y2903299D01*
X-243800Y2960500D02*
G01*
X-243800Y2903299D01*
X-243800Y2960500D02*
G01*
X-208400Y2960500D01*
X-243800Y2933299D02*
G01*
X-221999Y2933299D01*
X-243800Y2903299D02*
G01*
X-208400Y2903299D01*
X-190399Y2960500D02*
G01*
X-190399Y2903299D01*
X-190399Y2960500D02*
G01*
X-171300Y2960500D01*
X-163099Y2957800D01*
X-157600Y2952399D01*
X-154899Y2946900D01*
X-152199Y2938699D01*
X-152199Y2925100D01*
X-154899Y2916900D01*
X-157600Y2911500D01*
X-163099Y2905999D01*
X-171300Y2903299D01*
X-190399Y2903299D01*
X-300000Y2860500D02*
G01*
X-300000Y2803299D01*
X-300000Y2860500D02*
G01*
X-264499Y2860500D01*
X-300000Y2833299D02*
G01*
X-278200Y2833299D01*
X-224699Y2860500D02*
G01*
X-246500Y2803299D01*
X-224699Y2860500D02*
G01*
X-202899Y2803299D01*
X-238400Y2822399D02*
G01*
X-211100Y2822399D01*
X-184899Y2860500D02*
G01*
X-184899Y2803299D01*
X-184899Y2860500D02*
G01*
X-160399Y2860500D01*
X-152199Y2857800D01*
X-149499Y2855100D01*
X-146700Y2849600D01*
X-146700Y2844200D01*
X-149499Y2838699D01*
X-152199Y2835999D01*
X-160399Y2833299D01*
X-184899Y2833299D01*
X-165799Y2833299D02*
G01*
X-146700Y2803299D01*
X-259099Y3146900D02*
G01*
X-261799Y3152399D01*
X-267300Y3157800D01*
X-272699Y3160500D01*
X-283600Y3160500D01*
X-289099Y3157800D01*
X-294499Y3152399D01*
X-297300Y3146900D01*
X-300000Y3138699D01*
X-300000Y3125100D01*
X-297300Y3116900D01*
X-294499Y3111500D01*
X-289099Y3105999D01*
X-283600Y3103299D01*
X-272699Y3103299D01*
X-267300Y3105999D01*
X-261799Y3111500D01*
X-259099Y3116900D01*
X-224699Y3160500D02*
G01*
X-230199Y3157800D01*
X-235599Y3152399D01*
X-238400Y3146900D01*
X-241100Y3138699D01*
X-241100Y3125100D01*
X-238400Y3116900D01*
X-235599Y3111500D01*
X-230199Y3105999D01*
X-224699Y3103299D01*
X-213800Y3103299D01*
X-208400Y3105999D01*
X-202899Y3111500D01*
X-200199Y3116900D01*
X-197500Y3125100D01*
X-197500Y3138699D01*
X-200199Y3146900D01*
X-202899Y3152399D01*
X-208400Y3157800D01*
X-213800Y3160500D01*
X-224699Y3160500D01*
X-163099Y3160500D02*
G01*
X-168499Y3157800D01*
X-174000Y3152399D01*
X-176700Y3146900D01*
X-179499Y3138699D01*
X-179499Y3125100D01*
X-176700Y3116900D01*
X-174000Y3111500D01*
X-168499Y3105999D01*
X-163099Y3103299D01*
X-152199Y3103299D01*
X-146700Y3105999D01*
X-141300Y3111500D01*
X-138499Y3116900D01*
X-135799Y3125100D01*
X-135799Y3138699D01*
X-138499Y3146900D01*
X-141300Y3152399D01*
X-146700Y3157800D01*
X-152199Y3160500D01*
X-163099Y3160500D01*
X-117800Y3160500D02*
G01*
X-117800Y3103299D01*
X-117800Y3103299D02*
G01*
X-85100Y3103299D01*
X-300000Y3260500D02*
G01*
X-300000Y3203299D01*
X-300000Y3260500D02*
G01*
X-275500Y3260500D01*
X-267300Y3257800D01*
X-264499Y3255100D01*
X-261799Y3249600D01*
X-261799Y3244200D01*
X-264499Y3238699D01*
X-267300Y3235999D01*
X-275500Y3233299D01*
X-300000Y3233299D02*
G01*
X-275500Y3233299D01*
X-267300Y3230500D01*
X-264499Y3227800D01*
X-261799Y3222399D01*
X-261799Y3214200D01*
X-264499Y3208699D01*
X-267300Y3205999D01*
X-275500Y3203299D01*
X-300000Y3203299D01*
X-243800Y3260500D02*
G01*
X-243800Y3203299D01*
X-243800Y3203299D02*
G01*
X-211100Y3203299D01*
X-193099Y3260500D02*
G01*
X-193099Y3219600D01*
X-190399Y3211500D01*
X-184899Y3205999D01*
X-176700Y3203299D01*
X-171300Y3203299D01*
X-163099Y3205999D01*
X-157600Y3211500D01*
X-154899Y3219600D01*
X-154899Y3260500D01*
X-136900Y3260500D02*
G01*
X-136900Y3203299D01*
X-136900Y3260500D02*
G01*
X-101500Y3260500D01*
X-136900Y3233299D02*
G01*
X-115100Y3233299D01*
X-136900Y3203299D02*
G01*
X-101500Y3203299D01*
X-259099Y3446900D02*
G01*
X-261799Y3452399D01*
X-267300Y3457800D01*
X-272699Y3460500D01*
X-283600Y3460500D01*
X-289099Y3457800D01*
X-294499Y3452399D01*
X-297300Y3446900D01*
X-300000Y3438699D01*
X-300000Y3425100D01*
X-297300Y3416900D01*
X-294499Y3411500D01*
X-289099Y3405999D01*
X-283600Y3403299D01*
X-272699Y3403299D01*
X-267300Y3405999D01*
X-261799Y3411500D01*
X-259099Y3416900D01*
X-259099Y3425100D01*
X-272699Y3425100D02*
G01*
X-259099Y3425100D01*
X-241100Y3460500D02*
G01*
X-241100Y3403299D01*
X-241100Y3460500D02*
G01*
X-202899Y3403299D01*
X-202899Y3460500D02*
G01*
X-202899Y3403299D01*
X-184899Y3460500D02*
G01*
X-184899Y3403299D01*
X-184899Y3460500D02*
G01*
X-165799Y3460500D01*
X-157600Y3457800D01*
X-152199Y3452399D01*
X-149499Y3446900D01*
X-146700Y3438699D01*
X-146700Y3425100D01*
X-149499Y3416900D01*
X-152199Y3411500D01*
X-157600Y3405999D01*
X-165799Y3403299D01*
X-184899Y3403299D01*
X-496100Y-400000D02*
G01*
X-381500Y-400000D01*
X-496100Y-400000D02*
G01*
X-496100Y-350900D01*
X-490599Y-334499D01*
X-485199Y-329099D01*
X-474299Y-323600D01*
X-457899Y-323600D01*
X-446999Y-329099D01*
X-441500Y-334499D01*
X-436100Y-350900D01*
X-436100Y-400000D01*
X-425199Y-287600D02*
G01*
X-425199Y-222199D01*
X-436100Y-222199D01*
X-446999Y-227600D01*
X-452500Y-233099D01*
X-457899Y-244000D01*
X-457899Y-260399D01*
X-452500Y-271300D01*
X-441500Y-282199D01*
X-425199Y-287600D01*
X-414299Y-287600D01*
X-397899Y-282199D01*
X-386999Y-271300D01*
X-381500Y-260399D01*
X-381500Y-244000D01*
X-386999Y-233099D01*
X-397899Y-222199D01*
X-457899Y-120700D02*
G01*
X-381500Y-120700D01*
X-441500Y-120700D02*
G01*
X-452500Y-131599D01*
X-457899Y-142500D01*
X-457899Y-158899D01*
X-452500Y-169800D01*
X-441500Y-180700D01*
X-425199Y-186199D01*
X-414299Y-186199D01*
X-397899Y-180700D01*
X-386999Y-169800D01*
X-381500Y-158899D01*
X-381500Y-142500D01*
X-386999Y-131599D01*
X-397899Y-120700D01*
X-496100Y-84699D02*
G01*
X-381500Y-84699D01*
X-496100Y-84699D02*
G01*
X-496100Y-35599D01*
X-490599Y-19299D01*
X-485199Y-13800D01*
X-474299Y-8400D01*
X-457899Y-8400D01*
X-446999Y-13800D01*
X-441500Y-19299D01*
X-436100Y-35599D01*
X-436100Y-84699D01*
X-457899Y54899D02*
G01*
X-452500Y44000D01*
X-441500Y33099D01*
X-425199Y27600D01*
X-414299Y27600D01*
X-397899Y33099D01*
X-386999Y44000D01*
X-381500Y54899D01*
X-381500Y71300D01*
X-386999Y82199D01*
X-397899Y93099D01*
X-414299Y98499D01*
X-425199Y98499D01*
X-441500Y93099D01*
X-452500Y82199D01*
X-457899Y71300D01*
X-457899Y54899D01*
X-496100Y200000D02*
G01*
X-381500Y200000D01*
X-441500Y200000D02*
G01*
X-452500Y189099D01*
X-457899Y178200D01*
X-457899Y161799D01*
X-452500Y150900D01*
X-441500Y140000D01*
X-425199Y134499D01*
X-414299Y134499D01*
X-397899Y140000D01*
X-386999Y150900D01*
X-381500Y161799D01*
X-381500Y178200D01*
X-386999Y189099D01*
X-397899Y200000D01*
X-330700Y-400000D02*
G01*
X-254400Y-400000D01*
X-254400Y-400000D02*
G01*
X-254400Y-356399D01*
X-330700Y-332399D02*
G01*
X-327100Y-328699D01*
X-330700Y-325100D01*
X-334400Y-328699D01*
X-330700Y-332399D01*
X-305300Y-328699D02*
G01*
X-254400Y-328699D01*
X-305300Y-257500D02*
G01*
X-247100Y-257500D01*
X-236199Y-261100D01*
X-232500Y-264699D01*
X-228899Y-271999D01*
X-228899Y-282899D01*
X-232500Y-290199D01*
X-294400Y-257500D02*
G01*
X-301599Y-264699D01*
X-305300Y-271999D01*
X-305300Y-282899D01*
X-301599Y-290199D01*
X-294400Y-297500D01*
X-283499Y-301100D01*
X-276199Y-301100D01*
X-265300Y-297500D01*
X-258000Y-290199D01*
X-254400Y-282899D01*
X-254400Y-271999D01*
X-258000Y-264699D01*
X-265300Y-257500D01*
X-330700Y-233499D02*
G01*
X-254400Y-233499D01*
X-290700Y-233499D02*
G01*
X-301599Y-222500D01*
X-305300Y-215300D01*
X-305300Y-204400D01*
X-301599Y-197100D01*
X-290700Y-193499D01*
X-254400Y-193499D01*
X-330700Y-158499D02*
G01*
X-268899Y-158499D01*
X-258000Y-154899D01*
X-254400Y-147600D01*
X-254400Y-140399D01*
X-305300Y-169499D02*
G01*
X-305300Y-144000D01*
X-330700Y-116399D02*
G01*
X-327100Y-112699D01*
X-330700Y-109099D01*
X-334400Y-112699D01*
X-330700Y-116399D01*
X-305300Y-112699D02*
G01*
X-254400Y-112699D01*
X-305300Y-85100D02*
G01*
X-254400Y-85100D01*
X-290700Y-85100D02*
G01*
X-301599Y-74200D01*
X-305300Y-66900D01*
X-305300Y-55999D01*
X-301599Y-48699D01*
X-290700Y-45100D01*
X-254400Y-45100D01*
X-305300Y22500D02*
G01*
X-247100Y22500D01*
X-236199Y18899D01*
X-232500Y15300D01*
X-228899Y8000D01*
X-228899Y-2899D01*
X-232500Y-10199D01*
X-294400Y22500D02*
G01*
X-301599Y15300D01*
X-305300Y8000D01*
X-305300Y-2899D01*
X-301599Y-10199D01*
X-294400Y-17500D01*
X-283499Y-21100D01*
X-276199Y-21100D01*
X-265300Y-17500D01*
X-258000Y-10199D01*
X-254400Y-2899D01*
X-254400Y8000D01*
X-258000Y15300D01*
X-265300Y22500D01*
X-330700Y128000D02*
G01*
X-254400Y128000D01*
X-330700Y102500D02*
G01*
X-330700Y153499D01*
X-283499Y177500D02*
G01*
X-283499Y221100D01*
X-290700Y221100D01*
X-298000Y217500D01*
X-301599Y213800D01*
X-305300Y206500D01*
X-305300Y195599D01*
X-301599Y188400D01*
X-294400Y181100D01*
X-283499Y177500D01*
X-276199Y177500D01*
X-265300Y181100D01*
X-258000Y188400D01*
X-254400Y195599D01*
X-254400Y206500D01*
X-258000Y213800D01*
X-265300Y221100D01*
X-294400Y285100D02*
G01*
X-301599Y281500D01*
X-305300Y270500D01*
X-305300Y259600D01*
X-301599Y248699D01*
X-294400Y245100D01*
X-287100Y248699D01*
X-283499Y255999D01*
X-279800Y274200D01*
X-276199Y281500D01*
X-268899Y285100D01*
X-265300Y285100D01*
X-258000Y281500D01*
X-254400Y270500D01*
X-254400Y259600D01*
X-258000Y248699D01*
X-265300Y245100D01*
X-330700Y320000D02*
G01*
X-268899Y320000D01*
X-258000Y323600D01*
X-254400Y330900D01*
X-254400Y338200D01*
X-305300Y309099D02*
G01*
X-305300Y334499D01*
X-330700Y418200D02*
G01*
X-254400Y447300D01*
X-330700Y476399D02*
G01*
X-254400Y447300D01*
X-316199Y500399D02*
G01*
X-319800Y507600D01*
X-330700Y518499D01*
X-254400Y518499D01*
X-272500Y546199D02*
G01*
X-268899Y542500D01*
X-265300Y546199D01*
X-268899Y549800D01*
X-272500Y546199D01*
X-316199Y573800D02*
G01*
X-319800Y581100D01*
X-330700Y591999D01*
X-254400Y591999D01*
X-180700Y-400000D02*
G01*
X-126199Y-400000D01*
X-115300Y-396399D01*
X-108000Y-389099D01*
X-104400Y-378200D01*
X-104400Y-370900D01*
X-108000Y-360000D01*
X-115300Y-352699D01*
X-126199Y-349099D01*
X-180700Y-349099D01*
X-180700Y-299600D02*
G01*
X-104400Y-299600D01*
X-180700Y-325100D02*
G01*
X-180700Y-274200D01*
X-180700Y-221100D02*
G01*
X-104400Y-250199D01*
X-180700Y-221100D02*
G01*
X-104400Y-191999D01*
X-129800Y-239299D02*
G01*
X-129800Y-202899D01*
X-162500Y-113499D02*
G01*
X-169800Y-117100D01*
X-177100Y-124400D01*
X-180700Y-131599D01*
X-180700Y-146199D01*
X-177100Y-153499D01*
X-169800Y-160700D01*
X-162500Y-164400D01*
X-151599Y-168000D01*
X-133499Y-168000D01*
X-122500Y-164400D01*
X-115300Y-160700D01*
X-108000Y-153499D01*
X-104400Y-146199D01*
X-104400Y-131599D01*
X-108000Y-124400D01*
X-115300Y-117100D01*
X-122500Y-113499D01*
X-133499Y-113499D01*
X-133499Y-131599D02*
G01*
X-133499Y-113499D01*
X400000Y2580700D02*
G01*
X400000Y2504400D01*
X400000Y2580700D02*
G01*
X450900Y2504400D01*
X450900Y2580700D02*
G01*
X450900Y2504400D01*
X474899Y2580700D02*
G01*
X474899Y2504400D01*
X474899Y2504400D02*
G01*
X518499Y2504400D01*
X542500Y2580700D02*
G01*
X542500Y2504400D01*
X542500Y2580700D02*
G01*
X568000Y2580700D01*
X578899Y2577100D01*
X586199Y2569800D01*
X589800Y2562500D01*
X593499Y2551599D01*
X593499Y2533499D01*
X589800Y2522500D01*
X586199Y2515300D01*
X578899Y2508000D01*
X568000Y2504400D01*
X542500Y2504400D01*
X617500Y2580700D02*
G01*
X617500Y2504400D01*
X617500Y2580700D02*
G01*
X642899Y2580700D01*
X653800Y2577100D01*
X661100Y2569800D01*
X664699Y2562500D01*
X668400Y2551599D01*
X668400Y2533499D01*
X664699Y2522500D01*
X661100Y2515300D01*
X653800Y2508000D01*
X642899Y2504400D01*
X617500Y2504400D01*
X692399Y2537100D02*
G01*
X757800Y2537100D01*
X781800Y2566199D02*
G01*
X789099Y2569800D01*
X800000Y2580700D01*
X800000Y2504400D01*
X827600Y2562500D02*
G01*
X827600Y2566199D01*
X831300Y2573499D01*
X834899Y2577100D01*
X842200Y2580700D01*
X856700Y2580700D01*
X863999Y2577100D01*
X867600Y2573499D01*
X871300Y2566199D01*
X871300Y2558899D01*
X867600Y2551599D01*
X860399Y2540700D01*
X823999Y2504400D01*
X874899Y2504400D01*
X920699Y2580700D02*
G01*
X909799Y2577100D01*
X902500Y2566199D01*
X898900Y2548000D01*
X898900Y2537100D01*
X902500Y2518899D01*
X909799Y2508000D01*
X920699Y2504400D01*
X928000Y2504400D01*
X938900Y2508000D01*
X946199Y2518899D01*
X949799Y2537100D01*
X949799Y2548000D01*
X946199Y2566199D01*
X938900Y2577100D01*
X928000Y2580700D01*
X920699Y2580700D01*
X995600Y2580700D02*
G01*
X984700Y2577100D01*
X977500Y2566199D01*
X973800Y2548000D01*
X973800Y2537100D01*
X977500Y2518899D01*
X984700Y2508000D01*
X995600Y2504400D01*
X1002899Y2504400D01*
X1013800Y2508000D01*
X1021099Y2518899D01*
X1024700Y2537100D01*
X1024700Y2548000D01*
X1021099Y2566199D01*
X1013800Y2577100D01*
X1002899Y2580700D01*
X995600Y2580700D01*
X1048699Y2580700D02*
G01*
X1048699Y2504400D01*
X1099600Y2580700D02*
G01*
X1099600Y2504400D01*
X1048699Y2544400D02*
G01*
X1099600Y2544400D01*
X237899Y2275000D02*
G01*
X237899Y2340500D01*
X205199Y2707700D02*
G01*
X270599Y2707700D01*
X237899Y2675000D02*
G01*
X237899Y2740500D01*
X194299Y2475000D02*
G01*
X270599Y2475000D01*
X194299Y2499000D02*
G01*
X270599Y2499000D01*
X194299Y2499000D02*
G01*
X270599Y2549899D01*
X194299Y2549899D02*
G01*
X270599Y2549899D01*
X1230200Y2732700D02*
G01*
X1295600Y2732700D01*
X1262899Y2700000D02*
G01*
X1262899Y2765500D01*
X1219300Y2425000D02*
G01*
X1295600Y2425000D01*
X1295600Y2425000D02*
G01*
X1295600Y2468600D01*
X1219300Y2492600D02*
G01*
X1295600Y2492600D01*
X1219300Y2492600D02*
G01*
X1219300Y2539899D01*
X1255600Y2492600D02*
G01*
X1255600Y2521700D01*
X1295600Y2492600D02*
G01*
X1295600Y2539899D01*
X1219300Y2563899D02*
G01*
X1295600Y2563899D01*
X1219300Y2563899D02*
G01*
X1219300Y2589400D01*
X1222899Y2600300D01*
X1230200Y2607500D01*
X1237500Y2611199D01*
X1248400Y2614800D01*
X1266499Y2614800D01*
X1277500Y2611199D01*
X1284700Y2607500D01*
X1291999Y2600300D01*
X1295600Y2589400D01*
X1295600Y2563899D01*
X1262899Y2250000D02*
G01*
X1262899Y2315500D01*
X474499Y2650000D02*
G01*
X522300Y2650000D01*
X474499Y2650000D02*
G01*
X474499Y2665900D01*
X476799Y2672700D01*
X481399Y2677300D01*
X485900Y2679499D01*
X492699Y2681799D01*
X504099Y2681799D01*
X510900Y2679499D01*
X515500Y2677300D01*
X520000Y2672700D01*
X522300Y2665900D01*
X522300Y2650000D01*
X474499Y2696799D02*
G01*
X522300Y2696799D01*
X474499Y2711799D02*
G01*
X522300Y2711799D01*
X474499Y2711799D02*
G01*
X522300Y2730000D01*
X474499Y2748200D02*
G01*
X522300Y2730000D01*
X474499Y2748200D02*
G01*
X522300Y2748200D01*
D19*
X29600Y2475000D02*
G01*
X72500Y2475000D01*
X29600Y2475000D02*
G01*
X29600Y2493400D01*
X31599Y2499499D01*
X33699Y2501599D01*
X37800Y2503600D01*
X43899Y2503600D01*
X48000Y2501599D01*
X50000Y2499499D01*
X52100Y2493400D01*
X52100Y2475000D01*
X39800Y2519200D02*
G01*
X37800Y2519200D01*
X33699Y2521199D01*
X31599Y2523299D01*
X29600Y2527399D01*
X29600Y2535500D01*
X31599Y2539600D01*
X33699Y2541700D01*
X37800Y2543699D01*
X41900Y2543699D01*
X45999Y2541700D01*
X52100Y2537600D01*
X72500Y2517100D01*
X72500Y2545799D01*
D18*
X400000Y1680700D02*
G01*
X400000Y1604400D01*
X400000Y1680700D02*
G01*
X450900Y1604400D01*
X450900Y1680700D02*
G01*
X450900Y1604400D01*
X474899Y1680700D02*
G01*
X474899Y1604400D01*
X474899Y1604400D02*
G01*
X518499Y1604400D01*
X542500Y1680700D02*
G01*
X542500Y1604400D01*
X542500Y1680700D02*
G01*
X568000Y1680700D01*
X578899Y1677100D01*
X586199Y1669800D01*
X589800Y1662500D01*
X593499Y1651599D01*
X593499Y1633499D01*
X589800Y1622500D01*
X586199Y1615300D01*
X578899Y1608000D01*
X568000Y1604400D01*
X542500Y1604400D01*
X617500Y1680700D02*
G01*
X617500Y1604400D01*
X617500Y1680700D02*
G01*
X642899Y1680700D01*
X653800Y1677100D01*
X661100Y1669800D01*
X664699Y1662500D01*
X668400Y1651599D01*
X668400Y1633499D01*
X664699Y1622500D01*
X661100Y1615300D01*
X653800Y1608000D01*
X642899Y1604400D01*
X617500Y1604400D01*
X692399Y1637100D02*
G01*
X757800Y1637100D01*
X781800Y1666199D02*
G01*
X789099Y1669800D01*
X800000Y1680700D01*
X800000Y1604400D01*
X827600Y1662500D02*
G01*
X827600Y1666199D01*
X831300Y1673499D01*
X834899Y1677100D01*
X842200Y1680700D01*
X856700Y1680700D01*
X863999Y1677100D01*
X867600Y1673499D01*
X871300Y1666199D01*
X871300Y1658899D01*
X867600Y1651599D01*
X860399Y1640700D01*
X823999Y1604400D01*
X874899Y1604400D01*
X920699Y1680700D02*
G01*
X909799Y1677100D01*
X902500Y1666199D01*
X898900Y1648000D01*
X898900Y1637100D01*
X902500Y1618899D01*
X909799Y1608000D01*
X920699Y1604400D01*
X928000Y1604400D01*
X938900Y1608000D01*
X946199Y1618899D01*
X949799Y1637100D01*
X949799Y1648000D01*
X946199Y1666199D01*
X938900Y1677100D01*
X928000Y1680700D01*
X920699Y1680700D01*
X995600Y1680700D02*
G01*
X984700Y1677100D01*
X977500Y1666199D01*
X973800Y1648000D01*
X973800Y1637100D01*
X977500Y1618899D01*
X984700Y1608000D01*
X995600Y1604400D01*
X1002899Y1604400D01*
X1013800Y1608000D01*
X1021099Y1618899D01*
X1024700Y1637100D01*
X1024700Y1648000D01*
X1021099Y1666199D01*
X1013800Y1677100D01*
X1002899Y1680700D01*
X995600Y1680700D01*
X1048699Y1680700D02*
G01*
X1048699Y1604400D01*
X1099600Y1680700D02*
G01*
X1099600Y1604400D01*
X1048699Y1644400D02*
G01*
X1099600Y1644400D01*
X237899Y1375000D02*
G01*
X237899Y1440500D01*
X205199Y1807699D02*
G01*
X270599Y1807699D01*
X237899Y1775000D02*
G01*
X237899Y1840500D01*
X194299Y1575000D02*
G01*
X270599Y1575000D01*
X194299Y1599000D02*
G01*
X270599Y1599000D01*
X194299Y1599000D02*
G01*
X270599Y1649899D01*
X194299Y1649899D02*
G01*
X270599Y1649899D01*
X1230200Y1832699D02*
G01*
X1295600Y1832699D01*
X1262899Y1800000D02*
G01*
X1262899Y1865500D01*
X1219300Y1525000D02*
G01*
X1295600Y1525000D01*
X1295600Y1525000D02*
G01*
X1295600Y1568600D01*
X1219300Y1592600D02*
G01*
X1295600Y1592600D01*
X1219300Y1592600D02*
G01*
X1219300Y1639899D01*
X1255600Y1592600D02*
G01*
X1255600Y1621700D01*
X1295600Y1592600D02*
G01*
X1295600Y1639899D01*
X1219300Y1663899D02*
G01*
X1295600Y1663899D01*
X1219300Y1663899D02*
G01*
X1219300Y1689400D01*
X1222899Y1700300D01*
X1230200Y1707500D01*
X1237500Y1711199D01*
X1248400Y1714800D01*
X1266499Y1714800D01*
X1277500Y1711199D01*
X1284700Y1707500D01*
X1291999Y1700300D01*
X1295600Y1689400D01*
X1295600Y1663899D01*
X1262899Y1350000D02*
G01*
X1262899Y1415500D01*
X474499Y1750000D02*
G01*
X522300Y1750000D01*
X474499Y1750000D02*
G01*
X474499Y1765900D01*
X476799Y1772699D01*
X481399Y1777300D01*
X485900Y1779499D01*
X492699Y1781799D01*
X504099Y1781799D01*
X510900Y1779499D01*
X515500Y1777300D01*
X520000Y1772699D01*
X522300Y1765900D01*
X522300Y1750000D01*
X474499Y1796799D02*
G01*
X522300Y1796799D01*
X474499Y1811799D02*
G01*
X522300Y1811799D01*
X474499Y1811799D02*
G01*
X522300Y1830000D01*
X474499Y1848200D02*
G01*
X522300Y1830000D01*
X474499Y1848200D02*
G01*
X522300Y1848200D01*
D19*
X29600Y1575000D02*
G01*
X72500Y1575000D01*
X29600Y1575000D02*
G01*
X29600Y1593400D01*
X31599Y1599499D01*
X33699Y1601599D01*
X37800Y1603600D01*
X43899Y1603600D01*
X48000Y1601599D01*
X50000Y1599499D01*
X52100Y1593400D01*
X52100Y1575000D01*
X29600Y1621199D02*
G01*
X29600Y1643699D01*
X45999Y1631500D01*
X45999Y1637600D01*
X48000Y1641700D01*
X50000Y1643699D01*
X56199Y1645799D01*
X60300Y1645799D01*
X66399Y1643699D01*
X70500Y1639600D01*
X72500Y1633499D01*
X72500Y1627399D01*
X70500Y1621199D01*
X68499Y1619200D01*
X64400Y1617100D01*
D18*
X400000Y780700D02*
G01*
X400000Y704400D01*
X400000Y780700D02*
G01*
X450900Y704400D01*
X450900Y780700D02*
G01*
X450900Y704400D01*
X474899Y780700D02*
G01*
X474899Y704400D01*
X474899Y704400D02*
G01*
X518499Y704400D01*
X542500Y780700D02*
G01*
X542500Y704400D01*
X542500Y780700D02*
G01*
X568000Y780700D01*
X578899Y777100D01*
X586199Y769800D01*
X589800Y762500D01*
X593499Y751599D01*
X593499Y733499D01*
X589800Y722500D01*
X586199Y715300D01*
X578899Y708000D01*
X568000Y704400D01*
X542500Y704400D01*
X617500Y780700D02*
G01*
X617500Y704400D01*
X617500Y780700D02*
G01*
X642899Y780700D01*
X653800Y777100D01*
X661100Y769800D01*
X664699Y762500D01*
X668400Y751599D01*
X668400Y733499D01*
X664699Y722500D01*
X661100Y715300D01*
X653800Y708000D01*
X642899Y704400D01*
X617500Y704400D01*
X692399Y737100D02*
G01*
X757800Y737100D01*
X781800Y766199D02*
G01*
X789099Y769800D01*
X800000Y780700D01*
X800000Y704400D01*
X827600Y762500D02*
G01*
X827600Y766199D01*
X831300Y773499D01*
X834899Y777100D01*
X842200Y780700D01*
X856700Y780700D01*
X863999Y777100D01*
X867600Y773499D01*
X871300Y766199D01*
X871300Y758899D01*
X867600Y751599D01*
X860399Y740700D01*
X823999Y704400D01*
X874899Y704400D01*
X920699Y780700D02*
G01*
X909799Y777100D01*
X902500Y766199D01*
X898900Y748000D01*
X898900Y737100D01*
X902500Y718899D01*
X909799Y708000D01*
X920699Y704400D01*
X928000Y704400D01*
X938900Y708000D01*
X946199Y718899D01*
X949799Y737100D01*
X949799Y748000D01*
X946199Y766199D01*
X938900Y777100D01*
X928000Y780700D01*
X920699Y780700D01*
X995600Y780700D02*
G01*
X984700Y777100D01*
X977500Y766199D01*
X973800Y748000D01*
X973800Y737100D01*
X977500Y718899D01*
X984700Y708000D01*
X995600Y704400D01*
X1002899Y704400D01*
X1013800Y708000D01*
X1021099Y718899D01*
X1024700Y737100D01*
X1024700Y748000D01*
X1021099Y766199D01*
X1013800Y777100D01*
X1002899Y780700D01*
X995600Y780700D01*
X1048699Y780700D02*
G01*
X1048699Y704400D01*
X1099600Y780700D02*
G01*
X1099600Y704400D01*
X1048699Y744400D02*
G01*
X1099600Y744400D01*
X237899Y475000D02*
G01*
X237899Y540500D01*
X205199Y907699D02*
G01*
X270599Y907699D01*
X237899Y875000D02*
G01*
X237899Y940500D01*
X194299Y675000D02*
G01*
X270599Y675000D01*
X194299Y699000D02*
G01*
X270599Y699000D01*
X194299Y699000D02*
G01*
X270599Y749899D01*
X194299Y749899D02*
G01*
X270599Y749899D01*
X1230200Y932699D02*
G01*
X1295600Y932699D01*
X1262899Y900000D02*
G01*
X1262899Y965500D01*
X1219300Y625000D02*
G01*
X1295600Y625000D01*
X1295600Y625000D02*
G01*
X1295600Y668600D01*
X1219300Y692600D02*
G01*
X1295600Y692600D01*
X1219300Y692600D02*
G01*
X1219300Y739899D01*
X1255600Y692600D02*
G01*
X1255600Y721700D01*
X1295600Y692600D02*
G01*
X1295600Y739899D01*
X1219300Y763899D02*
G01*
X1295600Y763899D01*
X1219300Y763899D02*
G01*
X1219300Y789400D01*
X1222899Y800300D01*
X1230200Y807500D01*
X1237500Y811199D01*
X1248400Y814800D01*
X1266499Y814800D01*
X1277500Y811199D01*
X1284700Y807500D01*
X1291999Y800300D01*
X1295600Y789400D01*
X1295600Y763899D01*
X1262899Y450000D02*
G01*
X1262899Y515500D01*
X474499Y850000D02*
G01*
X522300Y850000D01*
X474499Y850000D02*
G01*
X474499Y865900D01*
X476799Y872699D01*
X481399Y877300D01*
X485900Y879499D01*
X492699Y881799D01*
X504099Y881799D01*
X510900Y879499D01*
X515500Y877300D01*
X520000Y872699D01*
X522300Y865900D01*
X522300Y850000D01*
X474499Y896799D02*
G01*
X522300Y896799D01*
X474499Y911799D02*
G01*
X522300Y911799D01*
X474499Y911799D02*
G01*
X522300Y930000D01*
X474499Y948200D02*
G01*
X522300Y930000D01*
X474499Y948200D02*
G01*
X522300Y948200D01*
D19*
X29600Y675000D02*
G01*
X72500Y675000D01*
X29600Y675000D02*
G01*
X29600Y693400D01*
X31599Y699499D01*
X33699Y701599D01*
X37800Y703600D01*
X43899Y703600D01*
X48000Y701599D01*
X50000Y699499D01*
X52100Y693400D01*
X52100Y675000D01*
X29600Y737600D02*
G01*
X58200Y717100D01*
X58200Y747800D01*
X29600Y737600D02*
G01*
X72500Y737600D01*
D18*
X400000Y-119299D02*
G01*
X400000Y-195599D01*
X400000Y-119299D02*
G01*
X450900Y-195599D01*
X450900Y-119299D02*
G01*
X450900Y-195599D01*
X474899Y-119299D02*
G01*
X474899Y-195599D01*
X474899Y-195599D02*
G01*
X518499Y-195599D01*
X542500Y-119299D02*
G01*
X542500Y-195599D01*
X542500Y-119299D02*
G01*
X568000Y-119299D01*
X578899Y-122899D01*
X586199Y-130199D01*
X589800Y-137500D01*
X593499Y-148400D01*
X593499Y-166500D01*
X589800Y-177500D01*
X586199Y-184699D01*
X578899Y-191999D01*
X568000Y-195599D01*
X542500Y-195599D01*
X617500Y-119299D02*
G01*
X617500Y-195599D01*
X617500Y-119299D02*
G01*
X642899Y-119299D01*
X653800Y-122899D01*
X661100Y-130199D01*
X664699Y-137500D01*
X668400Y-148400D01*
X668400Y-166500D01*
X664699Y-177500D01*
X661100Y-184699D01*
X653800Y-191999D01*
X642899Y-195599D01*
X617500Y-195599D01*
X692399Y-162899D02*
G01*
X757800Y-162899D01*
X832700Y-119299D02*
G01*
X796400Y-195599D01*
X781800Y-119299D02*
G01*
X832700Y-119299D01*
X878500Y-119299D02*
G01*
X867600Y-122899D01*
X860399Y-133800D01*
X856700Y-151999D01*
X856700Y-162899D01*
X860399Y-181100D01*
X867600Y-191999D01*
X878500Y-195599D01*
X885799Y-195599D01*
X896700Y-191999D01*
X903999Y-181100D01*
X907600Y-162899D01*
X907600Y-151999D01*
X903999Y-133800D01*
X896700Y-122899D01*
X885799Y-119299D01*
X878500Y-119299D01*
X953500Y-119299D02*
G01*
X942500Y-122899D01*
X935299Y-133800D01*
X931599Y-151999D01*
X931599Y-162899D01*
X935299Y-181100D01*
X942500Y-191999D01*
X953500Y-195599D01*
X960699Y-195599D01*
X971599Y-191999D01*
X978900Y-181100D01*
X982500Y-162899D01*
X982500Y-151999D01*
X978900Y-133800D01*
X971599Y-122899D01*
X960699Y-119299D01*
X953500Y-119299D01*
X1006499Y-119299D02*
G01*
X1006499Y-195599D01*
X1057500Y-119299D02*
G01*
X1057500Y-195599D01*
X1006499Y-155599D02*
G01*
X1057500Y-155599D01*
X237899Y-425000D02*
G01*
X237899Y-359499D01*
X205199Y7699D02*
G01*
X270599Y7699D01*
X237899Y-25000D02*
G01*
X237899Y40500D01*
X194299Y-225000D02*
G01*
X270599Y-225000D01*
X194299Y-200999D02*
G01*
X270599Y-200999D01*
X194299Y-200999D02*
G01*
X270599Y-150100D01*
X194299Y-150100D02*
G01*
X270599Y-150100D01*
X1230200Y32699D02*
G01*
X1295600Y32699D01*
X1262899Y0D02*
G01*
X1262899Y65500D01*
X1219300Y-275000D02*
G01*
X1295600Y-275000D01*
X1295600Y-275000D02*
G01*
X1295600Y-231399D01*
X1219300Y-207399D02*
G01*
X1295600Y-207399D01*
X1219300Y-207399D02*
G01*
X1219300Y-160100D01*
X1255600Y-207399D02*
G01*
X1255600Y-178299D01*
X1295600Y-207399D02*
G01*
X1295600Y-160100D01*
X1219300Y-136100D02*
G01*
X1295600Y-136100D01*
X1219300Y-136100D02*
G01*
X1219300Y-110599D01*
X1222899Y-99699D01*
X1230200Y-92500D01*
X1237500Y-88800D01*
X1248400Y-85199D01*
X1266499Y-85199D01*
X1277500Y-88800D01*
X1284700Y-92500D01*
X1291999Y-99699D01*
X1295600Y-110599D01*
X1295600Y-136100D01*
X1262899Y-450000D02*
G01*
X1262899Y-384499D01*
X374499Y-50000D02*
G01*
X422300Y-50000D01*
X374499Y-50000D02*
G01*
X374499Y-34099D01*
X376799Y-27300D01*
X381399Y-22699D01*
X385900Y-20500D01*
X392699Y-18200D01*
X404099Y-18200D01*
X410900Y-20500D01*
X415500Y-22699D01*
X420000Y-27300D01*
X422300Y-34099D01*
X422300Y-50000D01*
X374499Y-3200D02*
G01*
X422300Y-3200D01*
X374499Y11799D02*
G01*
X422300Y11799D01*
X374499Y11799D02*
G01*
X422300Y30000D01*
X374499Y48200D02*
G01*
X422300Y30000D01*
X374499Y48200D02*
G01*
X422300Y48200D01*
D19*
X29600Y-225000D02*
G01*
X72500Y-225000D01*
X29600Y-225000D02*
G01*
X29600Y-206599D01*
X31599Y-200500D01*
X33699Y-198400D01*
X37800Y-196399D01*
X43899Y-196399D01*
X48000Y-198400D01*
X50000Y-200500D01*
X52100Y-206599D01*
X52100Y-225000D01*
X29600Y-158299D02*
G01*
X29600Y-178800D01*
X48000Y-180799D01*
X45999Y-178800D01*
X43899Y-172600D01*
X43899Y-166500D01*
X45999Y-160399D01*
X50000Y-156300D01*
X56199Y-154200D01*
X60300Y-154200D01*
X66399Y-156300D01*
X70500Y-160399D01*
X72500Y-166500D01*
X72500Y-172600D01*
X70500Y-178800D01*
X68499Y-180799D01*
X64400Y-182899D01*
D18*
X400000Y3480700D02*
G01*
X400000Y3404400D01*
X400000Y3480700D02*
G01*
X450900Y3404400D01*
X450900Y3480700D02*
G01*
X450900Y3404400D01*
X474899Y3480700D02*
G01*
X474899Y3404400D01*
X474899Y3404400D02*
G01*
X518499Y3404400D01*
X542500Y3480700D02*
G01*
X542500Y3404400D01*
X542500Y3480700D02*
G01*
X568000Y3480700D01*
X578899Y3477100D01*
X586199Y3469800D01*
X589800Y3462500D01*
X593499Y3451599D01*
X593499Y3433499D01*
X589800Y3422500D01*
X586199Y3415300D01*
X578899Y3408000D01*
X568000Y3404400D01*
X542500Y3404400D01*
X617500Y3480700D02*
G01*
X617500Y3404400D01*
X617500Y3480700D02*
G01*
X642899Y3480700D01*
X653800Y3477100D01*
X661100Y3469800D01*
X664699Y3462500D01*
X668400Y3451599D01*
X668400Y3433499D01*
X664699Y3422500D01*
X661100Y3415300D01*
X653800Y3408000D01*
X642899Y3404400D01*
X617500Y3404400D01*
X692399Y3437100D02*
G01*
X757800Y3437100D01*
X781800Y3466199D02*
G01*
X789099Y3469800D01*
X800000Y3480700D01*
X800000Y3404400D01*
X827600Y3462500D02*
G01*
X827600Y3466199D01*
X831300Y3473499D01*
X834899Y3477100D01*
X842200Y3480700D01*
X856700Y3480700D01*
X863999Y3477100D01*
X867600Y3473499D01*
X871300Y3466199D01*
X871300Y3458899D01*
X867600Y3451599D01*
X860399Y3440700D01*
X823999Y3404400D01*
X874899Y3404400D01*
X920699Y3480700D02*
G01*
X909799Y3477100D01*
X902500Y3466199D01*
X898900Y3448000D01*
X898900Y3437100D01*
X902500Y3418899D01*
X909799Y3408000D01*
X920699Y3404400D01*
X928000Y3404400D01*
X938900Y3408000D01*
X946199Y3418899D01*
X949799Y3437100D01*
X949799Y3448000D01*
X946199Y3466199D01*
X938900Y3477100D01*
X928000Y3480700D01*
X920699Y3480700D01*
X995600Y3480700D02*
G01*
X984700Y3477100D01*
X977500Y3466199D01*
X973800Y3448000D01*
X973800Y3437100D01*
X977500Y3418899D01*
X984700Y3408000D01*
X995600Y3404400D01*
X1002899Y3404400D01*
X1013800Y3408000D01*
X1021099Y3418899D01*
X1024700Y3437100D01*
X1024700Y3448000D01*
X1021099Y3466199D01*
X1013800Y3477100D01*
X1002899Y3480700D01*
X995600Y3480700D01*
X1048699Y3480700D02*
G01*
X1048699Y3404400D01*
X1099600Y3480700D02*
G01*
X1099600Y3404400D01*
X1048699Y3444400D02*
G01*
X1099600Y3444400D01*
X237899Y3175000D02*
G01*
X237899Y3240500D01*
X205199Y3607700D02*
G01*
X270599Y3607700D01*
X237899Y3575000D02*
G01*
X237899Y3640500D01*
X194299Y3375000D02*
G01*
X270599Y3375000D01*
X194299Y3399000D02*
G01*
X270599Y3399000D01*
X194299Y3399000D02*
G01*
X270599Y3449899D01*
X194299Y3449899D02*
G01*
X270599Y3449899D01*
X1230200Y3632700D02*
G01*
X1295600Y3632700D01*
X1262899Y3600000D02*
G01*
X1262899Y3665500D01*
X1219300Y3325000D02*
G01*
X1295600Y3325000D01*
X1295600Y3325000D02*
G01*
X1295600Y3368600D01*
X1219300Y3392600D02*
G01*
X1295600Y3392600D01*
X1219300Y3392600D02*
G01*
X1219300Y3439899D01*
X1255600Y3392600D02*
G01*
X1255600Y3421700D01*
X1295600Y3392600D02*
G01*
X1295600Y3439899D01*
X1219300Y3463899D02*
G01*
X1295600Y3463899D01*
X1219300Y3463899D02*
G01*
X1219300Y3489400D01*
X1222899Y3500300D01*
X1230200Y3507500D01*
X1237500Y3511199D01*
X1248400Y3514800D01*
X1266499Y3514800D01*
X1277500Y3511199D01*
X1284700Y3507500D01*
X1291999Y3500300D01*
X1295600Y3489400D01*
X1295600Y3463899D01*
X1262899Y3150000D02*
G01*
X1262899Y3215500D01*
X474499Y3550000D02*
G01*
X522300Y3550000D01*
X474499Y3550000D02*
G01*
X474499Y3565900D01*
X476799Y3572700D01*
X481399Y3577300D01*
X485900Y3579499D01*
X492699Y3581799D01*
X504099Y3581799D01*
X510900Y3579499D01*
X515500Y3577300D01*
X520000Y3572700D01*
X522300Y3565900D01*
X522300Y3550000D01*
X474499Y3596799D02*
G01*
X522300Y3596799D01*
X474499Y3611799D02*
G01*
X522300Y3611799D01*
X474499Y3611799D02*
G01*
X522300Y3630000D01*
X474499Y3648200D02*
G01*
X522300Y3630000D01*
X474499Y3648200D02*
G01*
X522300Y3648200D01*
D19*
X29600Y3375000D02*
G01*
X72500Y3375000D01*
X29600Y3375000D02*
G01*
X29600Y3393400D01*
X31599Y3399499D01*
X33699Y3401599D01*
X37800Y3403600D01*
X43899Y3403600D01*
X48000Y3401599D01*
X50000Y3399499D01*
X52100Y3393400D01*
X52100Y3375000D01*
X37800Y3417100D02*
G01*
X35700Y3421199D01*
X29600Y3427399D01*
X72500Y3427399D01*
X-300000Y2145399D02*
G01*
X-300000Y2102500D01*
X-300000Y2145399D02*
G01*
X-281599Y2145399D01*
X-275500Y2143400D01*
X-273400Y2141300D01*
X-271399Y2137199D01*
X-271399Y2133099D01*
X-273400Y2129000D01*
X-275500Y2126999D01*
X-281599Y2125000D01*
X-300000Y2125000D01*
X-285700Y2125000D02*
G01*
X-271399Y2102500D01*
X-257899Y2137199D02*
G01*
X-253800Y2139299D01*
X-247600Y2145399D01*
X-247600Y2102500D01*
X-300000Y1945399D02*
G01*
X-300000Y1902500D01*
X-300000Y1945399D02*
G01*
X-281599Y1945399D01*
X-275500Y1943400D01*
X-273400Y1941300D01*
X-271399Y1937199D01*
X-271399Y1933099D01*
X-273400Y1929000D01*
X-275500Y1926999D01*
X-281599Y1925000D01*
X-300000Y1925000D01*
X-285700Y1925000D02*
G01*
X-271399Y1902500D01*
X-255799Y1935199D02*
G01*
X-255799Y1937199D01*
X-253800Y1941300D01*
X-251700Y1943400D01*
X-247600Y1945399D01*
X-239499Y1945399D01*
X-235399Y1943400D01*
X-233299Y1941300D01*
X-231300Y1937199D01*
X-231300Y1933099D01*
X-233299Y1929000D01*
X-237399Y1922899D01*
X-257899Y1902500D01*
X-229200Y1902500D01*
X-300000Y1745399D02*
G01*
X-300000Y1702500D01*
X-300000Y1745399D02*
G01*
X-281599Y1745399D01*
X-275500Y1743400D01*
X-273400Y1741300D01*
X-271399Y1737199D01*
X-271399Y1733099D01*
X-273400Y1729000D01*
X-275500Y1726999D01*
X-281599Y1725000D01*
X-300000Y1725000D01*
X-285700Y1725000D02*
G01*
X-271399Y1702500D01*
X-253800Y1745399D02*
G01*
X-231300Y1745399D01*
X-243499Y1729000D01*
X-237399Y1729000D01*
X-233299Y1726999D01*
X-231300Y1725000D01*
X-229200Y1718800D01*
X-229200Y1714699D01*
X-231300Y1708600D01*
X-235399Y1704499D01*
X-241500Y1702500D01*
X-247600Y1702500D01*
X-253800Y1704499D01*
X-255799Y1706500D01*
X-257899Y1710599D01*
X-300000Y1545399D02*
G01*
X-300000Y1502500D01*
X-300000Y1545399D02*
G01*
X-281599Y1545399D01*
X-275500Y1543400D01*
X-273400Y1541300D01*
X-271399Y1537199D01*
X-271399Y1533099D01*
X-273400Y1529000D01*
X-275500Y1526999D01*
X-281599Y1525000D01*
X-300000Y1525000D01*
X-285700Y1525000D02*
G01*
X-271399Y1502500D01*
X-237399Y1545399D02*
G01*
X-257899Y1516799D01*
X-227199Y1516799D01*
X-237399Y1545399D02*
G01*
X-237399Y1502500D01*
X-300000Y1345399D02*
G01*
X-300000Y1302500D01*
X-300000Y1345399D02*
G01*
X-281599Y1345399D01*
X-275500Y1343400D01*
X-273400Y1341300D01*
X-271399Y1337199D01*
X-271399Y1333099D01*
X-273400Y1329000D01*
X-275500Y1326999D01*
X-281599Y1325000D01*
X-300000Y1325000D01*
X-285700Y1325000D02*
G01*
X-271399Y1302500D01*
X-233299Y1345399D02*
G01*
X-253800Y1345399D01*
X-255799Y1326999D01*
X-253800Y1329000D01*
X-247600Y1331100D01*
X-241500Y1331100D01*
X-235399Y1329000D01*
X-231300Y1325000D01*
X-229200Y1318800D01*
X-229200Y1314699D01*
X-231300Y1308600D01*
X-235399Y1304499D01*
X-241500Y1302500D01*
X-247600Y1302500D01*
X-253800Y1304499D01*
X-255799Y1306500D01*
X-257899Y1310599D01*
X-400000Y3555399D02*
G01*
X-400000Y3512500D01*
X-371399Y3555399D02*
G01*
X-371399Y3512500D01*
X-400000Y3535000D02*
G01*
X-371399Y3535000D01*
X-357899Y3547199D02*
G01*
X-353800Y3549299D01*
X-347600Y3555399D01*
X-347600Y3512500D01*
X1600000Y3820399D02*
G01*
X1600000Y3777500D01*
X1600000Y3777500D02*
G01*
X1624499Y3777500D01*
X1638000Y3820399D02*
G01*
X1638000Y3777500D01*
X1638000Y3820399D02*
G01*
X1664600Y3820399D01*
X1638000Y3800000D02*
G01*
X1654399Y3800000D01*
X1638000Y3777500D02*
G01*
X1664600Y3777500D01*
X1678100Y3820399D02*
G01*
X1678100Y3777500D01*
X1678100Y3820399D02*
G01*
X1692500Y3820399D01*
X1698599Y3818400D01*
X1702700Y3814299D01*
X1704700Y3810200D01*
X1706800Y3804000D01*
X1706800Y3793800D01*
X1704700Y3787700D01*
X1702700Y3783600D01*
X1698599Y3779499D01*
X1692500Y3777500D01*
X1678100Y3777500D01*
X1720299Y3812199D02*
G01*
X1724399Y3814299D01*
X1730500Y3820399D01*
X1730500Y3777500D01*
X1600000Y3520399D02*
G01*
X1600000Y3477500D01*
X1600000Y3477500D02*
G01*
X1624499Y3477500D01*
X1638000Y3520399D02*
G01*
X1638000Y3477500D01*
X1638000Y3520399D02*
G01*
X1664600Y3520399D01*
X1638000Y3500000D02*
G01*
X1654399Y3500000D01*
X1638000Y3477500D02*
G01*
X1664600Y3477500D01*
X1678100Y3520399D02*
G01*
X1678100Y3477500D01*
X1678100Y3520399D02*
G01*
X1692500Y3520399D01*
X1698599Y3518400D01*
X1702700Y3514299D01*
X1704700Y3510200D01*
X1706800Y3504000D01*
X1706800Y3493800D01*
X1704700Y3487700D01*
X1702700Y3483600D01*
X1698599Y3479499D01*
X1692500Y3477500D01*
X1678100Y3477500D01*
X1722299Y3510200D02*
G01*
X1722299Y3512199D01*
X1724399Y3516300D01*
X1726400Y3518400D01*
X1730500Y3520399D01*
X1738699Y3520399D01*
X1742799Y3518400D01*
X1744799Y3516300D01*
X1746899Y3512199D01*
X1746899Y3508099D01*
X1744799Y3504000D01*
X1740699Y3497899D01*
X1720299Y3477500D01*
X1748900Y3477500D01*
X1600000Y3220399D02*
G01*
X1600000Y3177500D01*
X1600000Y3177500D02*
G01*
X1624499Y3177500D01*
X1638000Y3220399D02*
G01*
X1638000Y3177500D01*
X1638000Y3220399D02*
G01*
X1664600Y3220399D01*
X1638000Y3200000D02*
G01*
X1654399Y3200000D01*
X1638000Y3177500D02*
G01*
X1664600Y3177500D01*
X1678100Y3220399D02*
G01*
X1678100Y3177500D01*
X1678100Y3220399D02*
G01*
X1692500Y3220399D01*
X1698599Y3218400D01*
X1702700Y3214299D01*
X1704700Y3210200D01*
X1706800Y3204000D01*
X1706800Y3193800D01*
X1704700Y3187700D01*
X1702700Y3183600D01*
X1698599Y3179499D01*
X1692500Y3177500D01*
X1678100Y3177500D01*
X1724399Y3220399D02*
G01*
X1746899Y3220399D01*
X1734600Y3204000D01*
X1740699Y3204000D01*
X1744799Y3201999D01*
X1746899Y3200000D01*
X1748900Y3193800D01*
X1748900Y3189699D01*
X1746899Y3183600D01*
X1742799Y3179499D01*
X1736599Y3177500D01*
X1730500Y3177500D01*
X1724399Y3179499D01*
X1722299Y3181500D01*
X1720299Y3185599D01*
X1600000Y2920399D02*
G01*
X1600000Y2877500D01*
X1600000Y2877500D02*
G01*
X1624499Y2877500D01*
X1638000Y2920399D02*
G01*
X1638000Y2877500D01*
X1638000Y2920399D02*
G01*
X1664600Y2920399D01*
X1638000Y2900000D02*
G01*
X1654399Y2900000D01*
X1638000Y2877500D02*
G01*
X1664600Y2877500D01*
X1678100Y2920399D02*
G01*
X1678100Y2877500D01*
X1678100Y2920399D02*
G01*
X1692500Y2920399D01*
X1698599Y2918400D01*
X1702700Y2914299D01*
X1704700Y2910200D01*
X1706800Y2904000D01*
X1706800Y2893800D01*
X1704700Y2887700D01*
X1702700Y2883600D01*
X1698599Y2879499D01*
X1692500Y2877500D01*
X1678100Y2877500D01*
X1740699Y2920399D02*
G01*
X1720299Y2891799D01*
X1751000Y2891799D01*
X1740699Y2920399D02*
G01*
X1740699Y2877500D01*
X1600000Y2620399D02*
G01*
X1600000Y2577500D01*
X1600000Y2577500D02*
G01*
X1624499Y2577500D01*
X1638000Y2620399D02*
G01*
X1638000Y2577500D01*
X1638000Y2620399D02*
G01*
X1664600Y2620399D01*
X1638000Y2600000D02*
G01*
X1654399Y2600000D01*
X1638000Y2577500D02*
G01*
X1664600Y2577500D01*
X1678100Y2620399D02*
G01*
X1678100Y2577500D01*
X1678100Y2620399D02*
G01*
X1692500Y2620399D01*
X1698599Y2618400D01*
X1702700Y2614299D01*
X1704700Y2610200D01*
X1706800Y2604000D01*
X1706800Y2593800D01*
X1704700Y2587700D01*
X1702700Y2583600D01*
X1698599Y2579499D01*
X1692500Y2577500D01*
X1678100Y2577500D01*
X1744799Y2620399D02*
G01*
X1724399Y2620399D01*
X1722299Y2601999D01*
X1724399Y2604000D01*
X1730500Y2606100D01*
X1736599Y2606100D01*
X1742799Y2604000D01*
X1746899Y2600000D01*
X1748900Y2593800D01*
X1748900Y2589699D01*
X1746899Y2583600D01*
X1742799Y2579499D01*
X1736599Y2577500D01*
X1730500Y2577500D01*
X1724399Y2579499D01*
X1722299Y2581500D01*
X1720299Y2585599D01*
X1600000Y2320399D02*
G01*
X1600000Y2277500D01*
X1600000Y2277500D02*
G01*
X1624499Y2277500D01*
X1638000Y2320399D02*
G01*
X1638000Y2277500D01*
X1638000Y2320399D02*
G01*
X1664600Y2320399D01*
X1638000Y2300000D02*
G01*
X1654399Y2300000D01*
X1638000Y2277500D02*
G01*
X1664600Y2277500D01*
X1678100Y2320399D02*
G01*
X1678100Y2277500D01*
X1678100Y2320399D02*
G01*
X1692500Y2320399D01*
X1698599Y2318400D01*
X1702700Y2314299D01*
X1704700Y2310200D01*
X1706800Y2304000D01*
X1706800Y2293800D01*
X1704700Y2287700D01*
X1702700Y2283600D01*
X1698599Y2279499D01*
X1692500Y2277500D01*
X1678100Y2277500D01*
X1744799Y2314299D02*
G01*
X1742799Y2318400D01*
X1736599Y2320399D01*
X1732500Y2320399D01*
X1726400Y2318400D01*
X1722299Y2312199D01*
X1720299Y2301999D01*
X1720299Y2291799D01*
X1722299Y2283600D01*
X1726400Y2279499D01*
X1732500Y2277500D01*
X1734600Y2277500D01*
X1740699Y2279499D01*
X1744799Y2283600D01*
X1746899Y2289699D01*
X1746899Y2291799D01*
X1744799Y2297899D01*
X1740699Y2301999D01*
X1734600Y2304000D01*
X1732500Y2304000D01*
X1726400Y2301999D01*
X1722299Y2297899D01*
X1720299Y2291799D01*
X1600000Y2020399D02*
G01*
X1600000Y1977500D01*
X1600000Y1977500D02*
G01*
X1624499Y1977500D01*
X1638000Y2020399D02*
G01*
X1638000Y1977500D01*
X1638000Y2020399D02*
G01*
X1664600Y2020399D01*
X1638000Y2000000D02*
G01*
X1654399Y2000000D01*
X1638000Y1977500D02*
G01*
X1664600Y1977500D01*
X1678100Y2020399D02*
G01*
X1678100Y1977500D01*
X1678100Y2020399D02*
G01*
X1692500Y2020399D01*
X1698599Y2018400D01*
X1702700Y2014299D01*
X1704700Y2010199D01*
X1706800Y2004000D01*
X1706800Y1993800D01*
X1704700Y1987699D01*
X1702700Y1983600D01*
X1698599Y1979499D01*
X1692500Y1977500D01*
X1678100Y1977500D01*
X1748900Y2020399D02*
G01*
X1728500Y1977500D01*
X1720299Y2020399D02*
G01*
X1748900Y2020399D01*
X1600000Y1720399D02*
G01*
X1600000Y1677500D01*
X1600000Y1677500D02*
G01*
X1624499Y1677500D01*
X1638000Y1720399D02*
G01*
X1638000Y1677500D01*
X1638000Y1720399D02*
G01*
X1664600Y1720399D01*
X1638000Y1700000D02*
G01*
X1654399Y1700000D01*
X1638000Y1677500D02*
G01*
X1664600Y1677500D01*
X1678100Y1720399D02*
G01*
X1678100Y1677500D01*
X1678100Y1720399D02*
G01*
X1692500Y1720399D01*
X1698599Y1718400D01*
X1702700Y1714299D01*
X1704700Y1710199D01*
X1706800Y1704000D01*
X1706800Y1693800D01*
X1704700Y1687699D01*
X1702700Y1683600D01*
X1698599Y1679499D01*
X1692500Y1677500D01*
X1678100Y1677500D01*
X1730500Y1720399D02*
G01*
X1724399Y1718400D01*
X1722299Y1714299D01*
X1722299Y1710199D01*
X1724399Y1706100D01*
X1728500Y1704000D01*
X1736599Y1701999D01*
X1742799Y1700000D01*
X1746899Y1695900D01*
X1748900Y1691799D01*
X1748900Y1685599D01*
X1746899Y1681500D01*
X1744799Y1679499D01*
X1738699Y1677500D01*
X1730500Y1677500D01*
X1724399Y1679499D01*
X1722299Y1681500D01*
X1720299Y1685599D01*
X1720299Y1691799D01*
X1722299Y1695900D01*
X1726400Y1700000D01*
X1732500Y1701999D01*
X1740699Y1704000D01*
X1744799Y1706100D01*
X1746899Y1710199D01*
X1746899Y1714299D01*
X1744799Y1718400D01*
X1738699Y1720399D01*
X1730500Y1720399D01*
X1600000Y1420399D02*
G01*
X1600000Y1377500D01*
X1600000Y1377500D02*
G01*
X1624499Y1377500D01*
X1638000Y1420399D02*
G01*
X1638000Y1377500D01*
X1638000Y1420399D02*
G01*
X1664600Y1420399D01*
X1638000Y1400000D02*
G01*
X1654399Y1400000D01*
X1638000Y1377500D02*
G01*
X1664600Y1377500D01*
X1678100Y1420399D02*
G01*
X1678100Y1377500D01*
X1678100Y1420399D02*
G01*
X1692500Y1420399D01*
X1698599Y1418400D01*
X1702700Y1414299D01*
X1704700Y1410199D01*
X1706800Y1404000D01*
X1706800Y1393800D01*
X1704700Y1387699D01*
X1702700Y1383600D01*
X1698599Y1379499D01*
X1692500Y1377500D01*
X1678100Y1377500D01*
X1746899Y1406100D02*
G01*
X1744799Y1400000D01*
X1740699Y1395900D01*
X1734600Y1393800D01*
X1732500Y1393800D01*
X1726400Y1395900D01*
X1722299Y1400000D01*
X1720299Y1406100D01*
X1720299Y1408099D01*
X1722299Y1414299D01*
X1726400Y1418400D01*
X1732500Y1420399D01*
X1734600Y1420399D01*
X1740699Y1418400D01*
X1744799Y1414299D01*
X1746899Y1406100D01*
X1746899Y1395900D01*
X1744799Y1385599D01*
X1740699Y1379499D01*
X1734600Y1377500D01*
X1730500Y1377500D01*
X1724399Y1379499D01*
X1722299Y1383600D01*
X1600000Y1120399D02*
G01*
X1600000Y1077500D01*
X1600000Y1077500D02*
G01*
X1624499Y1077500D01*
X1638000Y1120399D02*
G01*
X1638000Y1077500D01*
X1638000Y1120399D02*
G01*
X1664600Y1120399D01*
X1638000Y1100000D02*
G01*
X1654399Y1100000D01*
X1638000Y1077500D02*
G01*
X1664600Y1077500D01*
X1678100Y1120399D02*
G01*
X1678100Y1077500D01*
X1678100Y1120399D02*
G01*
X1692500Y1120399D01*
X1698599Y1118400D01*
X1702700Y1114299D01*
X1704700Y1110199D01*
X1706800Y1104000D01*
X1706800Y1093800D01*
X1704700Y1087699D01*
X1702700Y1083600D01*
X1698599Y1079499D01*
X1692500Y1077500D01*
X1678100Y1077500D01*
X1720299Y1112199D02*
G01*
X1724399Y1114299D01*
X1730500Y1120399D01*
X1730500Y1077500D01*
X1756300Y1120399D02*
G01*
X1750100Y1118400D01*
X1746000Y1112199D01*
X1743999Y1101999D01*
X1743999Y1095900D01*
X1746000Y1085599D01*
X1750100Y1079499D01*
X1756300Y1077500D01*
X1760399Y1077500D01*
X1766499Y1079499D01*
X1770600Y1085599D01*
X1772600Y1095900D01*
X1772600Y1101999D01*
X1770600Y1112199D01*
X1766499Y1118400D01*
X1760399Y1120399D01*
X1756300Y1120399D01*
X1600000Y820399D02*
G01*
X1600000Y777500D01*
X1600000Y777500D02*
G01*
X1624499Y777500D01*
X1638000Y820399D02*
G01*
X1638000Y777500D01*
X1638000Y820399D02*
G01*
X1664600Y820399D01*
X1638000Y800000D02*
G01*
X1654399Y800000D01*
X1638000Y777500D02*
G01*
X1664600Y777500D01*
X1678100Y820399D02*
G01*
X1678100Y777500D01*
X1678100Y820399D02*
G01*
X1692500Y820399D01*
X1698599Y818400D01*
X1702700Y814299D01*
X1704700Y810199D01*
X1706800Y804000D01*
X1706800Y793800D01*
X1704700Y787699D01*
X1702700Y783600D01*
X1698599Y779499D01*
X1692500Y777500D01*
X1678100Y777500D01*
X1720299Y812199D02*
G01*
X1724399Y814299D01*
X1730500Y820399D01*
X1730500Y777500D01*
X1743999Y812199D02*
G01*
X1748100Y814299D01*
X1754200Y820399D01*
X1754200Y777500D01*
X1600000Y520399D02*
G01*
X1600000Y477500D01*
X1600000Y477500D02*
G01*
X1624499Y477500D01*
X1638000Y520399D02*
G01*
X1638000Y477500D01*
X1638000Y520399D02*
G01*
X1664600Y520399D01*
X1638000Y500000D02*
G01*
X1654399Y500000D01*
X1638000Y477500D02*
G01*
X1664600Y477500D01*
X1678100Y520399D02*
G01*
X1678100Y477500D01*
X1678100Y520399D02*
G01*
X1692500Y520399D01*
X1698599Y518400D01*
X1702700Y514299D01*
X1704700Y510199D01*
X1706800Y504000D01*
X1706800Y493800D01*
X1704700Y487699D01*
X1702700Y483600D01*
X1698599Y479499D01*
X1692500Y477500D01*
X1678100Y477500D01*
X1720299Y512199D02*
G01*
X1724399Y514299D01*
X1730500Y520399D01*
X1730500Y477500D01*
X1746000Y510199D02*
G01*
X1746000Y512199D01*
X1748100Y516300D01*
X1750100Y518400D01*
X1754200Y520399D01*
X1762399Y520399D01*
X1766499Y518400D01*
X1768500Y516300D01*
X1770600Y512199D01*
X1770600Y508099D01*
X1768500Y504000D01*
X1764499Y497899D01*
X1743999Y477500D01*
X1772600Y477500D01*
X1600000Y220399D02*
G01*
X1600000Y177500D01*
X1600000Y177500D02*
G01*
X1624499Y177500D01*
X1638000Y220399D02*
G01*
X1638000Y177500D01*
X1638000Y220399D02*
G01*
X1664600Y220399D01*
X1638000Y200000D02*
G01*
X1654399Y200000D01*
X1638000Y177500D02*
G01*
X1664600Y177500D01*
X1678100Y220399D02*
G01*
X1678100Y177500D01*
X1678100Y220399D02*
G01*
X1692500Y220399D01*
X1698599Y218400D01*
X1702700Y214299D01*
X1704700Y210199D01*
X1706800Y204000D01*
X1706800Y193800D01*
X1704700Y187699D01*
X1702700Y183600D01*
X1698599Y179499D01*
X1692500Y177500D01*
X1678100Y177500D01*
X1720299Y212199D02*
G01*
X1724399Y214299D01*
X1730500Y220399D01*
X1730500Y177500D01*
X1748100Y220399D02*
G01*
X1770600Y220399D01*
X1758299Y204000D01*
X1764499Y204000D01*
X1768500Y201999D01*
X1770600Y200000D01*
X1772600Y193800D01*
X1772600Y189699D01*
X1770600Y183600D01*
X1766499Y179499D01*
X1760399Y177500D01*
X1754200Y177500D01*
X1748100Y179499D01*
X1746000Y181500D01*
X1743999Y185599D01*
X1600000Y-79600D02*
G01*
X1600000Y-122500D01*
X1600000Y-122500D02*
G01*
X1624499Y-122500D01*
X1638000Y-79600D02*
G01*
X1638000Y-122500D01*
X1638000Y-79600D02*
G01*
X1664600Y-79600D01*
X1638000Y-100000D02*
G01*
X1654399Y-100000D01*
X1638000Y-122500D02*
G01*
X1664600Y-122500D01*
X1678100Y-79600D02*
G01*
X1678100Y-122500D01*
X1678100Y-79600D02*
G01*
X1692500Y-79600D01*
X1698599Y-81599D01*
X1702700Y-85700D01*
X1704700Y-89800D01*
X1706800Y-95999D01*
X1706800Y-106199D01*
X1704700Y-112300D01*
X1702700Y-116399D01*
X1698599Y-120500D01*
X1692500Y-122500D01*
X1678100Y-122500D01*
X1720299Y-87800D02*
G01*
X1724399Y-85700D01*
X1730500Y-79600D01*
X1730500Y-122500D01*
X1764499Y-79600D02*
G01*
X1743999Y-108200D01*
X1774700Y-108200D01*
X1764499Y-79600D02*
G01*
X1764499Y-122500D01*
X1600000Y-379600D02*
G01*
X1600000Y-422500D01*
X1600000Y-422500D02*
G01*
X1624499Y-422500D01*
X1638000Y-379600D02*
G01*
X1638000Y-422500D01*
X1638000Y-379600D02*
G01*
X1664600Y-379600D01*
X1638000Y-400000D02*
G01*
X1654399Y-400000D01*
X1638000Y-422500D02*
G01*
X1664600Y-422500D01*
X1678100Y-379600D02*
G01*
X1678100Y-422500D01*
X1678100Y-379600D02*
G01*
X1692500Y-379600D01*
X1698599Y-381599D01*
X1702700Y-385700D01*
X1704700Y-389800D01*
X1706800Y-395999D01*
X1706800Y-406199D01*
X1704700Y-412300D01*
X1702700Y-416399D01*
X1698599Y-420500D01*
X1692500Y-422500D01*
X1678100Y-422500D01*
X1720299Y-387800D02*
G01*
X1724399Y-385700D01*
X1730500Y-379600D01*
X1730500Y-422500D01*
X1768500Y-379600D02*
G01*
X1748100Y-379600D01*
X1746000Y-398000D01*
X1748100Y-395999D01*
X1754200Y-393899D01*
X1760399Y-393899D01*
X1766499Y-395999D01*
X1770600Y-400000D01*
X1772600Y-406199D01*
X1772600Y-410300D01*
X1770600Y-416399D01*
X1766499Y-420500D01*
X1760399Y-422500D01*
X1754200Y-422500D01*
X1748100Y-420500D01*
X1746000Y-418499D01*
X1743999Y-414400D01*
D10*
X100000Y2100000D02*
G01*
X100000Y2900000D01*
X1400000Y2900000D01*
X1400000Y2100000D01*
X100000Y2100000D01*
X100000Y1200000D02*
G01*
X100000Y2000000D01*
X1400000Y2000000D01*
X1400000Y1200000D01*
X100000Y1200000D01*
X100000Y300000D02*
G01*
X100000Y1100000D01*
X1400000Y1100000D01*
X1400000Y300000D01*
X100000Y300000D01*
X100000Y-600000D02*
G01*
X100000Y200000D01*
X1400000Y200000D01*
X1400000Y-600000D01*
X100000Y-600000D01*
X100000Y3000000D02*
G01*
X100000Y3800000D01*
X1400000Y3800000D01*
X1400000Y3000000D01*
X100000Y3000000D01*
X-399000Y1978000D02*
G01*
X-399000Y2071999D01*
X-399000Y2071999D02*
G01*
X-150999Y2071999D01*
X-150999Y2071999D02*
G01*
X-150999Y1978000D01*
X-150999Y1978000D02*
G01*
X-399000Y1978000D01*
X-399000Y1778000D02*
G01*
X-399000Y1871999D01*
X-399000Y1871999D02*
G01*
X-150999Y1871999D01*
X-150999Y1871999D02*
G01*
X-150999Y1778000D01*
X-150999Y1778000D02*
G01*
X-399000Y1778000D01*
X-399000Y1578000D02*
G01*
X-399000Y1671999D01*
X-399000Y1671999D02*
G01*
X-150999Y1671999D01*
X-150999Y1671999D02*
G01*
X-150999Y1578000D01*
X-150999Y1578000D02*
G01*
X-399000Y1578000D01*
X-399000Y1378000D02*
G01*
X-399000Y1471999D01*
X-399000Y1471999D02*
G01*
X-150999Y1471999D01*
X-150999Y1471999D02*
G01*
X-150999Y1378000D01*
X-150999Y1378000D02*
G01*
X-399000Y1378000D01*
X-399000Y1178000D02*
G01*
X-399000Y1271999D01*
X-399000Y1271999D02*
G01*
X-150999Y1271999D01*
X-150999Y1271999D02*
G01*
X-150999Y1178000D01*
X-150999Y1178000D02*
G01*
X-399000Y1178000D01*
X-420000Y3488267D02*
G01*
X-420000Y2671732D01*
X-320000Y2671732D02*
G01*
X-420000Y2671732D01*
X-320000Y3488267D02*
G01*
X-320000Y2671732D01*
X-320000Y3379074D02*
G01*
X-420000Y3379074D01*
X-320000Y3488267D02*
G01*
X-420000Y3488267D01*
D17*
X1598029Y3751970D02*
G01*
X1735829Y3751970D01*
X1735829Y3614169D01*
X1598029Y3614169D01*
X1598029Y3751970D01*
X1598029Y3451970D02*
G01*
X1735829Y3451970D01*
X1735829Y3314169D01*
X1598029Y3314169D01*
X1598029Y3451970D01*
X1598029Y3151970D02*
G01*
X1735829Y3151970D01*
X1735829Y3014169D01*
X1598029Y3014169D01*
X1598029Y3151970D01*
X1598029Y2851970D02*
G01*
X1735829Y2851970D01*
X1735829Y2714169D01*
X1598029Y2714169D01*
X1598029Y2851970D01*
X1598029Y2551970D02*
G01*
X1735829Y2551970D01*
X1735829Y2414169D01*
X1598029Y2414169D01*
X1598029Y2551970D01*
X1598029Y2251970D02*
G01*
X1735829Y2251970D01*
X1735829Y2114169D01*
X1598029Y2114169D01*
X1598029Y2251970D01*
X1598029Y1951970D02*
G01*
X1735829Y1951970D01*
X1735829Y1814169D01*
X1598029Y1814169D01*
X1598029Y1951970D01*
X1598029Y1651970D02*
G01*
X1735829Y1651970D01*
X1735829Y1514169D01*
X1598029Y1514169D01*
X1598029Y1651970D01*
X1598029Y1351970D02*
G01*
X1735829Y1351970D01*
X1735829Y1214169D01*
X1598029Y1214169D01*
X1598029Y1351970D01*
X1598029Y1051970D02*
G01*
X1735829Y1051970D01*
X1735829Y914169D01*
X1598029Y914169D01*
X1598029Y1051970D01*
X1598029Y751970D02*
G01*
X1735829Y751970D01*
X1735829Y614169D01*
X1598029Y614169D01*
X1598029Y751970D01*
X1598029Y451970D02*
G01*
X1735829Y451970D01*
X1735829Y314169D01*
X1598029Y314169D01*
X1598029Y451970D01*
X1598029Y151970D02*
G01*
X1735829Y151970D01*
X1735829Y14169D01*
X1598029Y14169D01*
X1598029Y151970D01*
X1598029Y-148029D02*
G01*
X1735829Y-148029D01*
X1735829Y-285830D01*
X1598029Y-285830D01*
X1598029Y-148029D01*
X1598029Y-448029D02*
G01*
X1735829Y-448029D01*
X1735829Y-585830D01*
X1598029Y-585830D01*
X1598029Y-448029D01*
G75*
G01
X1598040Y3683070D02*
G03X1598040Y3683070I-3940J0D01*
G75*
G01
X1598040Y3383070D02*
G03X1598040Y3383070I-3940J0D01*
G75*
G01
X1598040Y3083070D02*
G03X1598040Y3083070I-3940J0D01*
G75*
G01
X1598040Y2783070D02*
G03X1598040Y2783070I-3940J0D01*
G75*
G01
X1598040Y2483070D02*
G03X1598040Y2483070I-3940J0D01*
G75*
G01
X1598040Y2183070D02*
G03X1598040Y2183070I-3940J0D01*
G75*
G01
X1598040Y1883070D02*
G03X1598040Y1883070I-3940J0D01*
G75*
G01
X1598040Y1583070D02*
G03X1598040Y1583070I-3940J0D01*
G75*
G01
X1598040Y1283070D02*
G03X1598040Y1283070I-3940J0D01*
G75*
G01
X1598040Y983070D02*
G03X1598040Y983070I-3940J0D01*
G75*
G01
X1598040Y683070D02*
G03X1598040Y683070I-3940J0D01*
G75*
G01
X1598040Y383070D02*
G03X1598040Y383070I-3940J0D01*
G75*
G01
X1598040Y83070D02*
G03X1598040Y83070I-3940J0D01*
G75*
G01
X1598040Y-216930D02*
G03X1598040Y-216930I-3940J0D01*
G75*
G01
X1598040Y-516930D02*
G03X1598040Y-516930I-3940J0D01*
M02*
