G04 Layer: BottomLayer*
G04 EasyEDA v6.4.19.5, 2021-04-14T00:29:27--4:00*
G04 1aa91caa295b4f419204925acdaed393,7d3a50bdc1ce4050a4f63d2f8b141863,10*
G04 Gerber Generator version 0.2*
G04 Scale: 100 percent, Rotated: No, Reflected: No *
G04 Dimensions in inches *
G04 leading zeros omitted , absolute positions ,3 integer and 6 decimal *
%FSLAX36Y36*%
%MOIN*%

%ADD10C,0.0100*%
%ADD11C,0.0200*%
%ADD12C,0.0400*%
%ADD13C,0.0600*%
%ADD14C,0.0740*%
%ADD15R,0.0669X0.0669*%
%ADD16C,0.0669*%

%LPD*%
G36*
X170060Y2801880D02*
G01*
X156980Y2785260D01*
X185260Y2756980D01*
X201880Y2770059D01*
G37*
G36*
X480160Y2822500D02*
G01*
X459159Y2805000D01*
X459159Y2795000D01*
X480160Y2777500D01*
G37*
G36*
X480160Y2822500D02*
G01*
X459159Y2805000D01*
X459159Y2795000D01*
X480160Y2777500D01*
G37*
G36*
X470060Y2801880D02*
G01*
X467580Y2774660D01*
X474660Y2767580D01*
X501880Y2770059D01*
G37*
G36*
X1219840Y2822500D02*
G01*
X1219840Y2777500D01*
X1240840Y2790000D01*
X1240840Y2810000D01*
G37*
G36*
X1280160Y2822500D02*
G01*
X1259160Y2810000D01*
X1259160Y2790000D01*
X1280160Y2777500D01*
G37*
G36*
X1280160Y2222500D02*
G01*
X1259160Y2210000D01*
X1259160Y2190000D01*
X1280160Y2177500D01*
G37*
G36*
X1219840Y2222500D02*
G01*
X1219840Y2177500D01*
X1240840Y2190000D01*
X1240840Y2210000D01*
G37*
G36*
X470060Y1901879D02*
G01*
X467580Y1874660D01*
X474660Y1867580D01*
X501880Y1870060D01*
G37*
G36*
X1219840Y1922500D02*
G01*
X1219840Y1877500D01*
X1240840Y1890000D01*
X1240840Y1910000D01*
G37*
G36*
X1280160Y1922500D02*
G01*
X1259160Y1910000D01*
X1259160Y1890000D01*
X1280160Y1877500D01*
G37*
G36*
X1280160Y1322500D02*
G01*
X1259160Y1310000D01*
X1259160Y1290000D01*
X1280160Y1277500D01*
G37*
G36*
X1219840Y1322500D02*
G01*
X1219840Y1277500D01*
X1240840Y1290000D01*
X1240840Y1310000D01*
G37*
G36*
X474660Y1032420D02*
G01*
X467580Y1025340D01*
X470060Y998120D01*
X501880Y1029940D01*
G37*
G36*
X1219840Y1022500D02*
G01*
X1219840Y977500D01*
X1240840Y990000D01*
X1240840Y1010000D01*
G37*
G36*
X1280160Y1022500D02*
G01*
X1259160Y1010000D01*
X1259160Y990000D01*
X1280160Y977500D01*
G37*
G36*
X1280160Y422500D02*
G01*
X1259160Y410000D01*
X1259160Y390000D01*
X1280160Y377500D01*
G37*
G36*
X1219840Y422500D02*
G01*
X1219840Y377500D01*
X1240840Y390000D01*
X1240840Y410000D01*
G37*
G36*
X374660Y132420D02*
G01*
X367580Y125340D01*
X370060Y98120D01*
X401880Y129940D01*
G37*
G36*
X1219840Y122500D02*
G01*
X1219840Y77500D01*
X1240840Y90000D01*
X1240840Y110000D01*
G37*
G36*
X1280160Y122500D02*
G01*
X1259160Y110000D01*
X1259160Y90000D01*
X1280160Y77500D01*
G37*
G36*
X1280160Y-477500D02*
G01*
X1259160Y-490000D01*
X1259160Y-510000D01*
X1280160Y-522500D01*
G37*
G36*
X1219840Y-477500D02*
G01*
X1219840Y-522500D01*
X1240840Y-510000D01*
X1240840Y-490000D01*
G37*
G36*
X185260Y3143020D02*
G01*
X156980Y3114740D01*
X170060Y3098120D01*
X201880Y3129940D01*
G37*
G36*
X470060Y3701880D02*
G01*
X467580Y3674660D01*
X474660Y3667580D01*
X501880Y3670059D01*
G37*
G36*
X1219840Y3722500D02*
G01*
X1219840Y3677500D01*
X1240840Y3690000D01*
X1240840Y3710000D01*
G37*
G36*
X1280160Y3722500D02*
G01*
X1259160Y3710000D01*
X1259160Y3690000D01*
X1280160Y3677500D01*
G37*
G36*
X1280160Y3122500D02*
G01*
X1259160Y3110000D01*
X1259160Y3090000D01*
X1280160Y3077500D01*
G37*
G36*
X1219840Y3122500D02*
G01*
X1219840Y3077500D01*
X1240840Y3090000D01*
X1240840Y3110000D01*
G37*
G36*
X-442920Y1864160D02*
G01*
X-477320Y1861920D01*
X-438080Y1822680D01*
X-435840Y1857080D01*
G37*
G36*
X-450520Y1652760D02*
G01*
X-450520Y1597240D01*
X-424620Y1620000D01*
X-424620Y1630000D01*
G37*
G36*
X-438080Y1427320D02*
G01*
X-477320Y1388080D01*
X-442920Y1385840D01*
X-435840Y1392920D01*
G37*
G36*
X-502760Y1200520D02*
G01*
X-480000Y1174620D01*
X-470000Y1174620D01*
X-447239Y1200520D01*
G37*
G36*
X-398680Y3265760D02*
G01*
X-405760Y3258680D01*
X-403400Y3227900D01*
X-367900Y3263399D01*
G37*
G36*
X-347860Y3155100D02*
G01*
X-347860Y3104900D01*
X-324440Y3125000D01*
X-324440Y3135000D01*
G37*
G36*
X-347860Y2755100D02*
G01*
X-347860Y2704900D01*
X-324440Y2710000D01*
X-324440Y2750000D01*
G37*
G36*
X-336540Y3463460D02*
G01*
X-336540Y3396540D01*
X-276540Y3410000D01*
X-276540Y3450000D01*
G37*
D12*
X-370000Y3430000D02*
G01*
X-130000Y3430000D01*
X200000Y3100000D01*
D10*
X500000Y1000000D02*
G01*
X453000Y1046999D01*
X-96999Y1046999D01*
X-475000Y1425000D01*
D11*
X1300000Y100000D02*
G01*
X1200000Y100000D01*
X1200000Y-500000D02*
G01*
X1300000Y-500000D01*
X1300000Y3700000D02*
G01*
X1200000Y3700000D01*
X1200000Y3100000D02*
G01*
X1300000Y3100000D01*
X1300000Y2800000D02*
G01*
X1200000Y2800000D01*
X1200000Y2200000D02*
G01*
X1300000Y2200000D01*
X1300000Y1900000D02*
G01*
X1200000Y1900000D01*
X1200000Y1300000D02*
G01*
X1300000Y1300000D01*
X1300000Y1000000D02*
G01*
X1200000Y1000000D01*
X1200000Y400000D02*
G01*
X1300000Y400000D01*
D10*
X400000Y100000D02*
G01*
X-475000Y975000D01*
X-475000Y1225000D01*
X427500Y2800000D02*
G01*
X500000Y2800000D01*
X-475000Y1825000D01*
D12*
X200000Y2800000D02*
G01*
X130000Y2730000D01*
X-370000Y2730000D01*
D10*
X500000Y2800000D02*
G01*
X427500Y2800000D01*
X427500Y2800000D02*
G01*
X400000Y2800000D01*
X70000Y3130000D01*
X-370000Y3130000D01*
X-370000Y3230000D02*
G01*
X-450000Y3310000D01*
X-450000Y3550000D01*
X-393200Y3606799D01*
X406799Y3606799D01*
X500000Y3700000D01*
X500000Y1900000D02*
G01*
X325000Y1725000D01*
X-275000Y1725000D01*
X-375000Y1625000D01*
X-475000Y1625000D01*
D13*
G01*
X200000Y2200000D03*
G01*
X300000Y2200000D03*
G01*
X200000Y2800000D03*
G01*
X300000Y2800000D03*
G01*
X500000Y2800000D03*
G01*
X1200000Y2800000D03*
G01*
X1300000Y2800000D03*
G01*
X1300000Y2200000D03*
G01*
X1200000Y2200000D03*
G01*
X200000Y1300000D03*
G01*
X300000Y1300000D03*
G01*
X200000Y1900000D03*
G01*
X300000Y1900000D03*
G01*
X500000Y1900000D03*
G01*
X1200000Y1900000D03*
G01*
X1300000Y1900000D03*
G01*
X1300000Y1300000D03*
G01*
X1200000Y1300000D03*
G01*
X200000Y400000D03*
G01*
X300000Y400000D03*
G01*
X200000Y1000000D03*
G01*
X300000Y1000000D03*
G01*
X500000Y1000000D03*
G01*
X1200000Y1000000D03*
G01*
X1300000Y1000000D03*
G01*
X1300000Y400000D03*
G01*
X1200000Y400000D03*
G01*
X200000Y-500000D03*
G01*
X300000Y-500000D03*
G01*
X200000Y100000D03*
G01*
X300000Y100000D03*
G01*
X400000Y100000D03*
G01*
X1200000Y100000D03*
G01*
X1300000Y100000D03*
G01*
X1300000Y-500000D03*
G01*
X1200000Y-500000D03*
G01*
X200000Y3100000D03*
G01*
X300000Y3100000D03*
G01*
X200000Y3700000D03*
G01*
X300000Y3700000D03*
G01*
X500000Y3700000D03*
G01*
X1200000Y3700000D03*
G01*
X1300000Y3700000D03*
G01*
X1300000Y3100000D03*
G01*
X1200000Y3100000D03*
D14*
G01*
X-475000Y2025000D03*
G01*
X-75000Y2025000D03*
G01*
X-475000Y1825000D03*
G01*
X-75000Y1825000D03*
G01*
X-475000Y1625000D03*
G01*
X-75000Y1625000D03*
G01*
X-475000Y1425000D03*
G01*
X-75000Y1425000D03*
G01*
X-475000Y1225000D03*
G01*
X-75000Y1225000D03*
D15*
G01*
X-370000Y3430000D03*
D16*
G01*
X-370000Y3330000D03*
G01*
X-370000Y3230000D03*
G01*
X-370000Y3130000D03*
G01*
X-370000Y3030000D03*
G01*
X-370000Y2930000D03*
G01*
X-370000Y2830000D03*
G01*
X-370000Y2730000D03*
M02*
