G04 EAGLE Gerber RS-274X export*
G75*
%MOMM*%
%FSLAX34Y34*%
%LPD*%
%INBottom Copper*%
%IPPOS*%
%AMOC8*
5,1,8,0,0,1.08239X$1,22.5*%
G01*
G04 Define Apertures*
%ADD10R,1.530000X1.530000*%
%ADD11C,1.530000*%
%ADD12R,1.108000X1.108000*%
%ADD13C,1.108000*%
%ADD14C,2.500000*%
%ADD15C,0.756400*%
%ADD16C,0.254000*%
D10*
X91440Y35200D03*
D11*
X91440Y65200D03*
D12*
X302260Y87600D03*
D13*
X302260Y36800D03*
X302260Y11400D03*
X480060Y87600D03*
X480060Y11400D03*
D14*
X444500Y76200D03*
X444500Y25400D03*
X330200Y76200D03*
X330200Y26540D03*
X368300Y76200D03*
D15*
X238760Y44450D03*
D16*
X241650Y11400D02*
X302260Y11400D01*
X238760Y14290D02*
X238760Y44450D01*
X302260Y11400D02*
X303560Y12700D01*
X317500Y12700D01*
X330200Y25400D01*
X330200Y26540D01*
X137778Y6350D02*
X108928Y35200D01*
X91440Y35200D01*
X238760Y14290D02*
X241650Y11400D01*
D15*
X203200Y6350D03*
D16*
X137778Y6350D01*
X203200Y6350D02*
X236600Y6350D01*
X241650Y11400D01*
X302880Y86980D02*
X302260Y87600D01*
X302880Y86980D02*
X313660Y76200D01*
X330200Y76200D01*
X115140Y88900D02*
X91440Y65200D01*
X115140Y88900D02*
X300960Y88900D01*
X302260Y87600D01*
X316260Y50800D02*
X302260Y36800D01*
X316260Y50800D02*
X342900Y50800D01*
X368300Y76200D01*
X468660Y76200D02*
X480060Y87600D01*
X468660Y76200D02*
X444500Y76200D01*
X466060Y25400D02*
X480060Y11400D01*
X466060Y25400D02*
X444500Y25400D01*
M02*
