G04 EAGLE Gerber RS-274X export*
G75*
%MOMM*%
%FSLAX34Y34*%
%LPD*%
%INSolderpaste Top*%
%IPPOS*%
%AMOC8*
5,1,8,0,0,1.08239X$1,22.5*%
G01*
G04 Define Apertures*
%ADD10R,3.300000X0.500000*%
%ADD11R,3.300000X1.300000*%
%ADD12R,0.800000X1.200000*%
%ADD13R,1.300000X2.150000*%
D10*
X393700Y187178D03*
X393700Y215178D03*
D11*
X393700Y201178D03*
D10*
X393700Y328900D03*
X393700Y356900D03*
D11*
X393700Y342900D03*
D10*
X393700Y468600D03*
X393700Y496600D03*
D11*
X393700Y482600D03*
D10*
X304800Y189200D03*
X304800Y217200D03*
D11*
X304800Y203200D03*
D10*
X304800Y328900D03*
X304800Y356900D03*
D11*
X304800Y342900D03*
D10*
X304800Y468600D03*
X304800Y496600D03*
D11*
X304800Y482600D03*
D10*
X127000Y189200D03*
X127000Y217200D03*
D11*
X127000Y203200D03*
D10*
X127000Y328900D03*
X127000Y356900D03*
D11*
X127000Y342900D03*
D10*
X127000Y468600D03*
X127000Y496600D03*
D11*
X127000Y482600D03*
D10*
X38100Y189200D03*
X38100Y217200D03*
D11*
X38100Y203200D03*
D10*
X38100Y328900D03*
X38100Y356900D03*
D11*
X38100Y342900D03*
D10*
X36840Y468600D03*
X36840Y496600D03*
D11*
X36840Y482600D03*
D10*
X215900Y189200D03*
X215900Y217200D03*
D11*
X215900Y203200D03*
D10*
X215900Y328900D03*
X215900Y356900D03*
D11*
X215900Y342900D03*
D10*
X215900Y468600D03*
X215900Y496600D03*
D11*
X215900Y482600D03*
D12*
X184150Y70022D03*
X196650Y70022D03*
X209150Y70022D03*
X221650Y70022D03*
X234150Y70022D03*
X246650Y70022D03*
D13*
X165150Y47072D03*
X265650Y47072D03*
D12*
X247650Y616540D03*
X235150Y616540D03*
X222650Y616540D03*
X210150Y616540D03*
X197650Y616540D03*
X185150Y616540D03*
D13*
X266650Y639490D03*
X166150Y639490D03*
M02*
