G04 EAGLE Gerber RS-274X export*
G75*
%MOMM*%
%FSLAX34Y34*%
%LPD*%
%INTop Copper*%
%IPPOS*%
%AMOC8*
5,1,8,0,0,1.08239X$1,22.5*%
G01*
G04 Define Apertures*
%ADD10R,1.308000X1.308000*%
%ADD11C,1.308000*%
%ADD12C,2.500000*%
%ADD13R,1.200000X0.800000*%
%ADD14R,2.150000X1.300000*%
%ADD15R,4.315994X4.315994*%
%ADD16C,0.254000*%
%ADD17C,0.756400*%
D10*
X215900Y952500D03*
D11*
X215900Y927100D03*
X215900Y698500D03*
X215900Y673100D03*
X368300Y673100D03*
X368300Y698500D03*
X368300Y901700D03*
X368300Y927100D03*
X368300Y952500D03*
D10*
X444500Y952500D03*
D11*
X444500Y927100D03*
X444500Y698500D03*
X444500Y673100D03*
X596900Y673100D03*
X596900Y698500D03*
X596900Y901700D03*
X596900Y927100D03*
X596900Y952500D03*
D10*
X673100Y952500D03*
D11*
X673100Y927100D03*
X673100Y698500D03*
X673100Y673100D03*
X825500Y673100D03*
X825500Y698500D03*
X825500Y901700D03*
X825500Y927100D03*
X825500Y952500D03*
D10*
X901700Y952500D03*
D11*
X901700Y927100D03*
X901700Y698500D03*
X901700Y673100D03*
X1054100Y673100D03*
X1054100Y698500D03*
X1054100Y901700D03*
X1054100Y927100D03*
X1054100Y952500D03*
D10*
X1130300Y952500D03*
D11*
X1130300Y927100D03*
X1130300Y698500D03*
X1130300Y673100D03*
X1282700Y673100D03*
X1282700Y698500D03*
X1282700Y901700D03*
X1282700Y927100D03*
X1282700Y952500D03*
D12*
X88900Y812800D03*
X165100Y812800D03*
D13*
X43860Y939800D03*
X43860Y927300D03*
X43860Y914800D03*
X43860Y902300D03*
X43860Y889800D03*
X43860Y877300D03*
D14*
X20910Y958800D03*
X20910Y858300D03*
D13*
X1416640Y869950D03*
X1416640Y882450D03*
X1416640Y894950D03*
X1416640Y907450D03*
X1416640Y919950D03*
X1416640Y932450D03*
D14*
X1439590Y850950D03*
X1439590Y951450D03*
D13*
X1416640Y679450D03*
X1416640Y691950D03*
X1416640Y704450D03*
X1416640Y716950D03*
X1416640Y729450D03*
X1416640Y741950D03*
D14*
X1439590Y660450D03*
X1439590Y760950D03*
D15*
X139700Y711200D03*
X109700Y664200D03*
X79700Y711200D03*
D16*
X223520Y889000D02*
X355600Y889000D01*
X368300Y901700D01*
X223520Y889000D02*
X178750Y933770D01*
X129711Y933770D01*
X123681Y939800D02*
X43860Y939800D01*
X123681Y939800D02*
X129711Y933770D01*
X579120Y873760D02*
X596900Y891540D01*
X579120Y873760D02*
X223661Y873760D01*
X177941Y919480D01*
X91440Y919480D01*
X596900Y901700D02*
X596900Y891540D01*
X83620Y927300D02*
X43860Y927300D01*
X83620Y927300D02*
X91440Y919480D01*
X179700Y899800D02*
X215900Y863600D01*
X787400Y863600D01*
X825500Y901700D01*
X75800Y914800D02*
X43860Y914800D01*
X75800Y914800D02*
X90800Y899800D01*
X179700Y899800D01*
X177800Y878840D02*
X91440Y878840D01*
X177800Y878840D02*
X205740Y850900D01*
X1026160Y850900D01*
X1054100Y878840D01*
X1054100Y901700D01*
X67980Y902300D02*
X43860Y902300D01*
X67980Y902300D02*
X91440Y878840D01*
X91440Y858520D02*
X173990Y858520D01*
X191770Y840740D01*
X1221740Y840740D01*
X1282700Y901700D01*
X60160Y889800D02*
X43860Y889800D01*
X60160Y889800D02*
X91440Y858520D01*
D17*
X73632Y843280D03*
D16*
X1130300Y927100D02*
X1130300Y952500D01*
X1104900Y977900D01*
X927100Y977900D01*
X901700Y952500D01*
X901700Y927100D01*
X901700Y952500D02*
X886270Y967930D01*
X688530Y967930D01*
X673100Y952500D01*
X673100Y927100D01*
X673100Y952500D02*
X657670Y967930D01*
X459930Y967930D01*
X444500Y952500D01*
X444500Y927100D01*
X444500Y952500D02*
X429070Y967930D01*
X231330Y967930D01*
X215900Y952500D01*
X1130300Y952500D02*
X1145730Y967930D01*
X1292670Y967930D01*
X1315720Y944880D01*
X43860Y877300D02*
X24860Y858300D01*
X20910Y858300D01*
X20910Y958800D01*
X20910Y858300D02*
X35930Y843280D01*
X48630Y830580D01*
X35930Y843280D02*
X73632Y843280D01*
X1404210Y944880D02*
X1416640Y932450D01*
X1404210Y944880D02*
X1315720Y944880D01*
X1439590Y951450D02*
X1439590Y850950D01*
X1416640Y932450D02*
X1435640Y951450D01*
X1439590Y951450D01*
X1439590Y850950D02*
X1439590Y760950D01*
X1439590Y749300D02*
X1439590Y660450D01*
X1439590Y749300D02*
X1439590Y760950D01*
X1432240Y741950D02*
X1416640Y741950D01*
X1432240Y741950D02*
X1439590Y749300D01*
X48630Y742270D02*
X48630Y830580D01*
X73632Y828068D02*
X88900Y812800D01*
X73632Y828068D02*
X73632Y843280D01*
X48630Y742270D02*
X79700Y711200D01*
D17*
X205740Y767080D03*
D16*
X571500Y901700D02*
X596900Y927100D01*
X571500Y901700D02*
X406400Y901700D01*
D17*
X406400Y901700D03*
D16*
X596900Y927100D02*
X596900Y952500D01*
X596900Y927100D02*
X622300Y901700D01*
X800100Y901700D01*
X825500Y927100D01*
X825500Y952500D01*
X825500Y927100D02*
X853630Y898970D01*
X1025970Y898970D01*
X1054100Y927100D01*
X1054100Y952500D01*
X1054100Y927100D02*
X1079500Y901700D01*
X1257300Y901700D01*
X1282700Y927100D01*
X1282700Y952500D01*
X165100Y812800D02*
X164700Y761600D01*
X152000Y761600D02*
X139700Y749300D01*
X152000Y761600D02*
X164700Y761600D01*
X200260Y761600D01*
X205740Y767080D01*
X139700Y749300D02*
X139700Y711200D01*
X1270000Y723900D02*
X1416050Y869950D01*
D17*
X1270000Y723900D03*
D16*
X1416050Y869950D02*
X1416640Y869950D01*
D17*
X1259076Y747524D03*
D16*
X1261684Y747524D02*
X1396610Y882450D01*
X1261684Y747524D02*
X1259076Y747524D01*
X1396610Y882450D02*
X1416640Y882450D01*
D17*
X1181100Y736600D03*
D16*
X1230232Y736600D01*
X1388582Y894950D01*
X1416640Y894950D01*
X1377350Y907450D02*
X1257300Y787400D01*
D17*
X1257300Y787400D03*
D16*
X1377350Y907450D02*
X1416640Y907450D01*
X1282700Y856850D02*
X1282700Y850900D01*
D17*
X1282700Y850900D03*
D16*
X1282700Y856850D02*
X1345800Y919950D01*
X1416640Y919950D01*
D17*
X1390347Y669335D03*
D16*
X1400462Y679450D02*
X1416640Y679450D01*
X1400462Y679450D02*
X1390347Y669335D01*
X444500Y673100D02*
X444500Y698500D01*
X444500Y673100D02*
X444500Y635000D01*
X457334Y622166D01*
X1299077Y622166D01*
X1377750Y691950D02*
X1416640Y691950D01*
X1377750Y691950D02*
X1362390Y676590D01*
X1353501Y676590D01*
X1299077Y622166D01*
X1003490Y644970D02*
X934530Y713930D01*
X673100Y698500D02*
X673100Y673100D01*
D17*
X1252540Y644998D03*
D16*
X1252512Y644970D02*
X1003490Y644970D01*
X1252512Y644970D02*
X1252540Y644998D01*
X934530Y713930D02*
X688530Y713930D01*
X673100Y698500D01*
D17*
X1353938Y689262D03*
D16*
X1369126Y704450D02*
X1416640Y704450D01*
X1369126Y704450D02*
X1353938Y689262D01*
X901700Y673100D02*
X901700Y662940D01*
X901700Y673100D02*
X901700Y698500D01*
X901700Y662940D02*
X932314Y632326D01*
X1279081Y632326D02*
X1363705Y716950D01*
X1279081Y632326D02*
X932314Y632326D01*
X1363705Y716950D02*
X1416640Y716950D01*
X1130300Y698500D02*
X1130300Y673100D01*
X1145730Y657670D01*
X1289091Y657670D01*
X1360871Y729450D01*
X1416640Y729450D01*
M02*
