G04 EAGLE Gerber RS-274X export*
G75*
%MOMM*%
%FSLAX34Y34*%
%LPD*%
%INTop Copper*%
%IPPOS*%
%AMOC8*
5,1,8,0,0,1.08239X$1,22.5*%
G01*
G04 Define Apertures*
%ADD10R,2.500000X1.000000*%
%ADD11R,3.800000X1.800000*%
%ADD12R,2.050000X2.050000*%
%ADD13R,1.270000X1.270000*%
%ADD14C,1.270000*%
%ADD15C,0.254000*%
%ADD16C,0.756400*%
D10*
X1397000Y656740D03*
X1397000Y676740D03*
X1397000Y696740D03*
X1397000Y716740D03*
X1397000Y736740D03*
X1397000Y756740D03*
D11*
X1438500Y632740D03*
X1438500Y780740D03*
D10*
X1397000Y850900D03*
X1397000Y870900D03*
X1397000Y890900D03*
X1397000Y910900D03*
X1397000Y930900D03*
X1397000Y950900D03*
D11*
X1438500Y826900D03*
X1438500Y974900D03*
D10*
X88900Y949960D03*
X88900Y929960D03*
X88900Y909960D03*
X88900Y889960D03*
X88900Y869960D03*
X88900Y849960D03*
D11*
X47400Y973960D03*
X47400Y825960D03*
D12*
X53700Y766200D03*
X115200Y766200D03*
X53700Y656200D03*
X115200Y656200D03*
D13*
X215900Y939800D03*
D14*
X215900Y914400D03*
X215900Y685800D03*
X215900Y660400D03*
X368300Y660400D03*
X368300Y685800D03*
X368300Y889000D03*
X368300Y914400D03*
X368300Y939800D03*
D13*
X444500Y939800D03*
D14*
X444500Y914400D03*
X444500Y685800D03*
X444500Y660400D03*
X596900Y660400D03*
X596900Y685800D03*
X596900Y889000D03*
X596900Y914400D03*
X596900Y939800D03*
D13*
X673100Y939800D03*
D14*
X673100Y914400D03*
X673100Y685800D03*
X673100Y660400D03*
X825500Y660400D03*
X825500Y685800D03*
X825500Y889000D03*
X825500Y914400D03*
X825500Y939800D03*
D13*
X901700Y939800D03*
D14*
X901700Y914400D03*
X901700Y685800D03*
X901700Y660400D03*
X1054100Y660400D03*
X1054100Y685800D03*
X1054100Y889000D03*
X1054100Y914400D03*
X1054100Y939800D03*
D13*
X1143000Y939800D03*
D14*
X1143000Y914400D03*
X1143000Y685800D03*
X1143000Y660400D03*
X1295400Y660400D03*
X1295400Y685800D03*
X1295400Y889000D03*
X1295400Y914400D03*
X1295400Y939800D03*
D15*
X1466342Y724154D02*
X1399424Y657236D01*
X1466342Y724154D02*
X1466342Y883666D01*
X1409192Y940816D01*
X1317244Y940816D01*
X1304798Y953262D01*
X432054Y953262D01*
X368808Y890016D01*
X1397000Y656740D02*
X1399424Y657236D01*
X368808Y890016D02*
X368300Y889000D01*
X1333246Y676656D02*
X1395984Y676656D01*
X1333246Y676656D02*
X1303528Y646938D01*
X1176020Y646938D01*
X1150112Y672846D01*
X1083564Y672846D01*
X1061466Y650748D01*
X1395984Y676656D02*
X1397000Y676740D01*
X597408Y888492D02*
X596900Y889000D01*
X873484Y650748D02*
X1061466Y650748D01*
X635740Y888492D02*
X597408Y888492D01*
X635740Y888492D02*
X873484Y650748D01*
X1016508Y697992D02*
X1395984Y697992D01*
X1016508Y697992D02*
X825500Y889000D01*
X1395984Y697992D02*
X1397000Y696740D01*
X1395984Y717804D02*
X1225296Y717804D01*
X1054100Y889000D01*
X1395984Y717804D02*
X1397000Y716740D01*
X1384924Y747152D02*
X1295400Y836676D01*
X1295400Y889000D01*
X1384924Y747152D02*
X1397000Y736740D01*
X1307084Y896874D02*
X1298702Y905256D01*
X1152144Y905256D01*
X1143000Y914400D01*
X1395984Y757428D02*
X1397000Y756740D01*
X114300Y656844D02*
X54864Y656844D01*
X53700Y656200D01*
X114300Y656844D02*
X115200Y656200D01*
X216408Y914400D02*
X216408Y938784D01*
X216408Y914400D02*
X215900Y914400D01*
X216408Y938784D02*
X215900Y939800D01*
X445008Y938784D02*
X445008Y931164D01*
X445008Y914400D01*
X444500Y914400D01*
X445008Y938784D02*
X444500Y939800D01*
X609600Y938784D02*
X672084Y938784D01*
X673100Y939800D01*
X838200Y938784D02*
X900684Y938784D01*
X901700Y939800D01*
X673608Y938784D02*
X673100Y939800D01*
X53340Y673862D02*
X53340Y656844D01*
X79756Y973074D02*
X182118Y973074D01*
X214884Y940308D01*
X53340Y656844D02*
X53700Y656200D01*
X214884Y940308D02*
X215900Y939800D01*
X79756Y973074D02*
X17224Y910542D01*
X17224Y709978D01*
X53340Y673862D01*
X445008Y931164D02*
X592604Y931164D01*
X593112Y930656D01*
X601472Y930656D01*
X609600Y938784D01*
X673608Y938784D02*
X681736Y930656D01*
X830072Y930656D01*
X838200Y938784D01*
X1395984Y798420D02*
X1395984Y757428D01*
X1307084Y887320D02*
X1307084Y896874D01*
X1307084Y887320D02*
X1395984Y798420D01*
X1295400Y926592D02*
X1295400Y939800D01*
X1295400Y926592D02*
X1295400Y914400D01*
X1054608Y926592D02*
X1054608Y938784D01*
X1054608Y926592D02*
X1054608Y923544D01*
X1054608Y914400D01*
X1054100Y914400D01*
X1054608Y938784D02*
X1054100Y939800D01*
X888492Y914400D02*
X825500Y914400D01*
X888492Y914400D02*
X897636Y923544D01*
X1054608Y923544D01*
X1054608Y926592D02*
X1295400Y926592D01*
X114300Y766572D02*
X54864Y766572D01*
X53700Y766200D01*
X114300Y766572D02*
X115200Y766200D01*
X368808Y914400D02*
X368808Y938784D01*
X368808Y914400D02*
X368300Y914400D01*
X368808Y938784D02*
X368300Y939800D01*
X824230Y915670D02*
X825500Y914400D01*
X824230Y915670D02*
X821690Y915670D01*
X812546Y924814D01*
X607822Y924814D01*
X597408Y914400D01*
X596900Y914400D01*
D16*
X148872Y766572D03*
D15*
X115572Y766572D01*
X115200Y766200D01*
X1353312Y850392D02*
X1395984Y850392D01*
X1397000Y850900D01*
X368808Y685800D02*
X368808Y661416D01*
X368808Y685800D02*
X368300Y685800D01*
X368808Y661416D02*
X368300Y660400D01*
D16*
X1353312Y850392D03*
D15*
X1347216Y870204D02*
X1395984Y870204D01*
X1397000Y870900D01*
X597408Y685800D02*
X597408Y661416D01*
X597408Y685800D02*
X596900Y685800D01*
X597408Y661416D02*
X596900Y660400D01*
D16*
X1347216Y870204D03*
D15*
X1327404Y890016D02*
X1395984Y890016D01*
X1397000Y890900D01*
D16*
X1327404Y890016D03*
D15*
X1328928Y909828D02*
X1395984Y909828D01*
X1397000Y910900D01*
X1054608Y685800D02*
X1054608Y661416D01*
X1054100Y660400D01*
X1054100Y685800D02*
X1054608Y685800D01*
D16*
X1328928Y909828D03*
D15*
X1397508Y929640D02*
X1405128Y929640D01*
X1415288Y919480D01*
X1415288Y692912D01*
X1408176Y685800D01*
X1295400Y685800D01*
X1397508Y929640D02*
X1397000Y930900D01*
X1295400Y685800D02*
X1295400Y660400D01*
X214884Y826008D02*
X92964Y947928D01*
X214884Y826008D02*
X214884Y685800D01*
X92964Y947928D02*
X88900Y949960D01*
X214884Y685800D02*
X215900Y685800D01*
X216408Y685800D02*
X216408Y661416D01*
X215900Y660400D01*
X215900Y685800D02*
X216408Y685800D01*
X195834Y825246D02*
X92141Y928939D01*
X195834Y825246D02*
X195834Y662940D01*
X210566Y648208D01*
X431800Y648208D01*
X443484Y659892D01*
X92141Y928939D02*
X88900Y929960D01*
X443484Y659892D02*
X444500Y660400D01*
X445008Y661416D02*
X445008Y685800D01*
X444500Y685800D01*
X445008Y661416D02*
X444500Y660400D01*
X200152Y641350D02*
X173736Y667766D01*
X200152Y641350D02*
X653542Y641350D01*
X672084Y659892D01*
X673100Y660400D01*
X673608Y661416D02*
X673608Y685800D01*
X673100Y685800D01*
X673608Y661416D02*
X673100Y660400D01*
X90351Y909960D02*
X88900Y909960D01*
X90351Y909960D02*
X173736Y826575D01*
X173736Y667766D01*
X86679Y890205D02*
X69342Y907542D01*
X86679Y890205D02*
X88900Y889960D01*
X900684Y685800D02*
X901700Y685800D01*
X902208Y685800D02*
X902208Y661416D01*
X901700Y660400D01*
X901700Y685800D02*
X902208Y685800D01*
X574316Y879348D02*
X237744Y879348D01*
X154258Y962834D01*
X574316Y879348D02*
X593112Y898144D01*
X154258Y962834D02*
X79053Y962834D01*
X688340Y898144D02*
X900684Y685800D01*
X688340Y898144D02*
X593112Y898144D01*
X79053Y962834D02*
X69342Y953123D01*
X69342Y907542D01*
X155448Y659892D02*
X193548Y621792D01*
X1104900Y621792D01*
X1143000Y659892D01*
X1143000Y660400D01*
X90351Y869960D02*
X88900Y869960D01*
X90351Y869960D02*
X155448Y804863D01*
X155448Y659892D01*
M02*
