G04 EAGLE Gerber RS-274X export*
G75*
%MOMM*%
%FSLAX34Y34*%
%LPD*%
%INBottom Copper*%
%IPPOS*%
%AMOC8*
5,1,8,0,0,1.08239X$1,22.5*%
G01*
G04 Define Apertures*
%ADD10R,1.270000X1.270000*%
%ADD11C,1.270000*%
%ADD12C,0.254000*%
%ADD13C,0.756400*%
D10*
X215900Y939800D03*
D11*
X215900Y914400D03*
X215900Y685800D03*
X215900Y660400D03*
X368300Y660400D03*
X368300Y685800D03*
X368300Y889000D03*
X368300Y914400D03*
X368300Y939800D03*
D10*
X444500Y939800D03*
D11*
X444500Y914400D03*
X444500Y685800D03*
X444500Y660400D03*
X596900Y660400D03*
X596900Y685800D03*
X596900Y889000D03*
X596900Y914400D03*
X596900Y939800D03*
D10*
X673100Y939800D03*
D11*
X673100Y914400D03*
X673100Y685800D03*
X673100Y660400D03*
X825500Y660400D03*
X825500Y685800D03*
X825500Y889000D03*
X825500Y914400D03*
X825500Y939800D03*
D10*
X901700Y939800D03*
D11*
X901700Y914400D03*
X901700Y685800D03*
X901700Y660400D03*
X1054100Y660400D03*
X1054100Y685800D03*
X1054100Y889000D03*
X1054100Y914400D03*
X1054100Y939800D03*
D10*
X1143000Y939800D03*
D11*
X1143000Y914400D03*
X1143000Y685800D03*
X1143000Y660400D03*
X1295400Y660400D03*
X1295400Y685800D03*
X1295400Y889000D03*
X1295400Y914400D03*
X1295400Y939800D03*
D12*
X1143000Y926592D02*
X1143000Y914400D01*
X1143000Y926592D02*
X1143000Y939800D01*
X902208Y938784D02*
X902208Y926592D01*
X902208Y914400D01*
X901700Y914400D01*
X902208Y938784D02*
X901700Y939800D01*
X673608Y938784D02*
X673608Y914400D01*
X673100Y914400D01*
X673608Y938784D02*
X673100Y939800D01*
X216408Y938784D02*
X215900Y939800D01*
X902208Y926592D02*
X1143000Y926592D01*
X356384Y938784D02*
X216408Y938784D01*
X356384Y938784D02*
X364512Y930656D01*
X435356Y930656D02*
X444500Y939800D01*
X435356Y930656D02*
X364512Y930656D01*
X826008Y938784D02*
X826008Y914400D01*
X825500Y914400D01*
X826008Y938784D02*
X825500Y939800D01*
X597408Y938784D02*
X597408Y914400D01*
X596900Y914400D01*
X597408Y938784D02*
X596900Y939800D01*
X431292Y914400D02*
X368300Y914400D01*
X431292Y914400D02*
X440436Y905256D01*
X586740Y905256D01*
X595884Y914400D01*
X596900Y914400D01*
X367284Y914400D02*
X219456Y766572D01*
X367284Y914400D02*
X368300Y914400D01*
D13*
X148872Y766572D03*
D12*
X219456Y766572D01*
X1341882Y838962D02*
X1353312Y850392D01*
X1341882Y838962D02*
X1280668Y838962D01*
D13*
X1353312Y850392D03*
D12*
X381508Y647192D02*
X368300Y660400D01*
X381508Y647192D02*
X1088898Y647192D01*
X1280668Y838962D01*
X1331976Y854964D02*
X1347216Y870204D01*
X1331976Y854964D02*
X1270508Y854964D01*
D13*
X1347216Y870204D03*
D12*
X606044Y651256D02*
X596900Y660400D01*
X606044Y651256D02*
X1066800Y651256D01*
X1270508Y854964D01*
X835152Y676656D02*
X826008Y685800D01*
X825500Y685800D01*
X826008Y667512D02*
X826008Y661416D01*
X826008Y667512D02*
X835152Y676656D01*
X826008Y661416D02*
X825500Y660400D01*
D13*
X1327404Y890016D03*
D12*
X1070843Y676656D02*
X835152Y676656D01*
X1070843Y676656D02*
X1268201Y874014D01*
X1310132Y874014D01*
X1326134Y890016D02*
X1327404Y890016D01*
X1326134Y890016D02*
X1310132Y874014D01*
X1059180Y685800D02*
X1054100Y685800D01*
D13*
X1328928Y909828D03*
D12*
X1327658Y909828D01*
X1321054Y903224D01*
X1276604Y903224D01*
X1059180Y685800D01*
X1143000Y685800D02*
X1143000Y660400D01*
M02*
