M48
;GenerationSoftware,Autodesk,EAGLE,9.7.0*%
;CreationDate,2021-09-13T20:39:12Z*%
FMAT,2
ICI,OFF
METRIC,TZ,000.000
T4C0.350
T3C0.600
T2C1.700
T1C1.900
%
G90
M71
T1
X9870Y71120
T2
X5370Y71120
T3
X129540Y93980
X67310Y68580
X129540Y91440
X129540Y88900
X67310Y91440
X21590Y93980
X21590Y91440
X21590Y68580
X21590Y66040
X36830Y66040
X36830Y68580
X36830Y88900
X36830Y91440
X36830Y93980
X44450Y93980
X44450Y91440
X44450Y68580
X44450Y66040
X59690Y66040
X59690Y68580
X59690Y88900
X59690Y91440
X59690Y93980
X67310Y93980
X129540Y68580
X129540Y66040
X67310Y66040
X82550Y66040
X82550Y68580
X82550Y88900
X82550Y91440
X82550Y93980
X90170Y93980
X90170Y91440
X90170Y68580
X90170Y66040
X105410Y66040
X105410Y68580
X105410Y88900
X105410Y91440
X105410Y93980
X114300Y93980
X114300Y91440
X114300Y68580
X114300Y66040
T4
X132740Y89002
X134722Y87020
X135331Y85039
X132893Y90983
X14887Y76657
M30