G04 EAGLE Gerber RS-274X export*
G75*
%MOMM*%
%FSLAX34Y34*%
%LPD*%
%INSoldermask Top*%
%IPPOS*%
%AMOC8*
5,1,8,0,0,1.08239X$1,22.5*%
G01*
G04 Define Apertures*
%ADD10C,4.203200*%
%ADD11R,2.253200X2.253200*%
%ADD12C,1.903200*%
%ADD13C,2.103200*%
%ADD14R,1.511200X1.511200*%
%ADD15C,1.511200*%
%ADD16C,2.703200*%
%ADD17R,1.403200X1.003200*%
%ADD18R,2.353200X1.503200*%
%ADD19C,0.959600*%
D10*
X143510Y965200D03*
X1366520Y645160D03*
D11*
X53700Y766200D03*
X115200Y766200D03*
X53700Y656200D03*
X115200Y656200D03*
D12*
X53700Y711200D03*
D13*
X98700Y711200D03*
D14*
X215900Y952500D03*
D15*
X215900Y927100D03*
X215900Y698500D03*
X215900Y673100D03*
X368300Y673100D03*
X368300Y698500D03*
X368300Y901700D03*
X368300Y927100D03*
X368300Y952500D03*
D14*
X444500Y952500D03*
D15*
X444500Y927100D03*
X444500Y698500D03*
X444500Y673100D03*
X596900Y673100D03*
X596900Y698500D03*
X596900Y901700D03*
X596900Y927100D03*
X596900Y952500D03*
D14*
X673100Y952500D03*
D15*
X673100Y927100D03*
X673100Y698500D03*
X673100Y673100D03*
X825500Y673100D03*
X825500Y698500D03*
X825500Y901700D03*
X825500Y927100D03*
X825500Y952500D03*
D14*
X901700Y952500D03*
D15*
X901700Y927100D03*
X901700Y698500D03*
X901700Y673100D03*
X1054100Y673100D03*
X1054100Y698500D03*
X1054100Y901700D03*
X1054100Y927100D03*
X1054100Y952500D03*
D14*
X1130300Y952500D03*
D15*
X1130300Y927100D03*
X1130300Y698500D03*
X1130300Y673100D03*
X1282700Y673100D03*
X1282700Y698500D03*
X1282700Y901700D03*
X1282700Y927100D03*
X1282700Y952500D03*
D16*
X170180Y665480D03*
X152000Y808590D03*
D17*
X43860Y939800D03*
X43860Y927300D03*
X43860Y914800D03*
X43860Y902300D03*
X43860Y889800D03*
X43860Y877300D03*
D18*
X20910Y958800D03*
X20910Y858300D03*
D17*
X1416640Y869950D03*
X1416640Y882450D03*
X1416640Y894950D03*
X1416640Y907450D03*
X1416640Y919950D03*
X1416640Y932450D03*
D18*
X1439590Y850950D03*
X1439590Y951450D03*
D17*
X1416640Y679450D03*
X1416640Y691950D03*
X1416640Y704450D03*
X1416640Y716950D03*
X1416640Y729450D03*
X1416640Y741950D03*
D18*
X1439590Y660450D03*
X1439590Y760950D03*
D19*
X111732Y830580D03*
X205740Y767080D03*
X406400Y901700D03*
X1270000Y723900D03*
X1259076Y747524D03*
X1181100Y736600D03*
X1257300Y787400D03*
X1282700Y850900D03*
X1400462Y654050D03*
X1252540Y644998D03*
X1353938Y689262D03*
M02*
