G04 EAGLE Gerber RS-274X export*
G75*
%MOMM*%
%FSLAX34Y34*%
%LPD*%
%INSoldermask Bottom*%
%IPPOS*%
%AMOC8*
5,1,8,0,0,1.08239X$1,22.5*%
G01*
G04 Define Apertures*
%ADD10C,1.903200*%
%ADD11C,2.103200*%
%ADD12R,1.473200X1.473200*%
%ADD13C,1.473200*%
%ADD14C,0.959600*%
D10*
X53700Y711200D03*
D11*
X98700Y711200D03*
D12*
X215900Y939800D03*
D13*
X215900Y914400D03*
X215900Y685800D03*
X215900Y660400D03*
X368300Y660400D03*
X368300Y685800D03*
X368300Y889000D03*
X368300Y914400D03*
X368300Y939800D03*
D12*
X444500Y939800D03*
D13*
X444500Y914400D03*
X444500Y685800D03*
X444500Y660400D03*
X596900Y660400D03*
X596900Y685800D03*
X596900Y889000D03*
X596900Y914400D03*
X596900Y939800D03*
D12*
X673100Y939800D03*
D13*
X673100Y914400D03*
X673100Y685800D03*
X673100Y660400D03*
X825500Y660400D03*
X825500Y685800D03*
X825500Y889000D03*
X825500Y914400D03*
X825500Y939800D03*
D12*
X901700Y939800D03*
D13*
X901700Y914400D03*
X901700Y685800D03*
X901700Y660400D03*
X1054100Y660400D03*
X1054100Y685800D03*
X1054100Y889000D03*
X1054100Y914400D03*
X1054100Y939800D03*
D12*
X1143000Y939800D03*
D13*
X1143000Y914400D03*
X1143000Y685800D03*
X1143000Y660400D03*
X1295400Y660400D03*
X1295400Y685800D03*
X1295400Y889000D03*
X1295400Y914400D03*
X1295400Y939800D03*
D14*
X148872Y766572D03*
X1353312Y850392D03*
X1347216Y870204D03*
X1327404Y890016D03*
X1328928Y909828D03*
M02*
