G04 EAGLE Gerber RS-274X export*
G75*
%MOMM*%
%FSLAX34Y34*%
%LPD*%
%INSilkscreen Top*%
%IPPOS*%
%AMOC8*
5,1,8,0,0,1.08239X$1,22.5*%
G01*
G04 Define Apertures*
%ADD10C,0.152400*%
%ADD11C,0.127000*%
G36*
X204427Y7959D02*
X204681Y7978D01*
X204926Y8010D01*
X205164Y8055D01*
X205615Y8182D01*
X206034Y8360D01*
X206420Y8589D01*
X206774Y8869D01*
X207095Y9200D01*
X207384Y9582D01*
X207639Y10012D01*
X207861Y10488D01*
X208048Y11009D01*
X208201Y11577D01*
X208321Y12190D01*
X208406Y12848D01*
X208457Y13553D01*
X208474Y14303D01*
X208458Y15065D01*
X208409Y15779D01*
X208328Y16444D01*
X208215Y17062D01*
X208069Y17631D01*
X207890Y18152D01*
X207679Y18625D01*
X207436Y19050D01*
X207159Y19426D01*
X206846Y19751D01*
X206497Y20027D01*
X206113Y20252D01*
X205692Y20427D01*
X205469Y20496D01*
X205236Y20553D01*
X204995Y20596D01*
X204745Y20628D01*
X204486Y20646D01*
X204217Y20653D01*
X203942Y20647D01*
X203676Y20628D01*
X203419Y20597D01*
X203172Y20554D01*
X202934Y20498D01*
X202705Y20430D01*
X202276Y20256D01*
X201885Y20033D01*
X201532Y19761D01*
X201216Y19439D01*
X200937Y19067D01*
X200694Y18646D01*
X200483Y18175D01*
X200305Y17654D01*
X200159Y17084D01*
X200045Y16463D01*
X199964Y15793D01*
X199916Y15073D01*
X199899Y14303D01*
X199916Y13549D01*
X199966Y12841D01*
X200050Y12180D01*
X200167Y11566D01*
X200317Y10998D01*
X200500Y10476D01*
X200718Y10002D01*
X200968Y9573D01*
X201252Y9193D01*
X201568Y8864D01*
X201918Y8586D01*
X202301Y8358D01*
X202718Y8181D01*
X203167Y8054D01*
X203404Y8010D01*
X203649Y7978D01*
X203903Y7959D01*
X204165Y7953D01*
X204427Y7959D01*
G37*
G36*
X254302Y7959D02*
X254556Y7978D01*
X254801Y8010D01*
X255039Y8055D01*
X255490Y8182D01*
X255909Y8360D01*
X256295Y8589D01*
X256649Y8869D01*
X256970Y9200D01*
X257259Y9582D01*
X257514Y10012D01*
X257736Y10488D01*
X257923Y11009D01*
X258076Y11577D01*
X258196Y12190D01*
X258281Y12848D01*
X258332Y13553D01*
X258349Y14303D01*
X258333Y15065D01*
X258284Y15779D01*
X258203Y16444D01*
X258090Y17062D01*
X257944Y17631D01*
X257765Y18152D01*
X257554Y18625D01*
X257311Y19050D01*
X257034Y19426D01*
X256721Y19751D01*
X256372Y20027D01*
X255988Y20252D01*
X255567Y20427D01*
X255344Y20496D01*
X255111Y20553D01*
X254870Y20596D01*
X254620Y20628D01*
X254361Y20646D01*
X254092Y20653D01*
X253817Y20647D01*
X253551Y20628D01*
X253294Y20597D01*
X253047Y20554D01*
X252809Y20498D01*
X252580Y20430D01*
X252151Y20256D01*
X251760Y20033D01*
X251407Y19761D01*
X251091Y19439D01*
X250812Y19067D01*
X250569Y18646D01*
X250358Y18175D01*
X250180Y17654D01*
X250034Y17084D01*
X249920Y16463D01*
X249839Y15793D01*
X249791Y15073D01*
X249774Y14303D01*
X249791Y13549D01*
X249841Y12841D01*
X249925Y12180D01*
X250042Y11566D01*
X250192Y10998D01*
X250375Y10476D01*
X250593Y10002D01*
X250843Y9573D01*
X251127Y9193D01*
X251443Y8864D01*
X251793Y8586D01*
X252176Y8358D01*
X252593Y8181D01*
X253042Y8054D01*
X253279Y8010D01*
X253524Y7978D01*
X253778Y7959D01*
X254040Y7953D01*
X254302Y7959D01*
G37*
G36*
X244591Y7968D02*
X245054Y8013D01*
X245488Y8087D01*
X245893Y8191D01*
X246268Y8326D01*
X246613Y8490D01*
X246929Y8684D01*
X247215Y8908D01*
X247470Y9158D01*
X247691Y9432D01*
X247877Y9729D01*
X248030Y10051D01*
X248149Y10395D01*
X248234Y10763D01*
X248285Y11155D01*
X248301Y11570D01*
X248291Y11868D01*
X248260Y12153D01*
X248209Y12426D01*
X248137Y12686D01*
X248045Y12933D01*
X247932Y13167D01*
X247799Y13389D01*
X247645Y13598D01*
X247611Y13635D01*
X247472Y13791D01*
X247283Y13964D01*
X247078Y14119D01*
X246856Y14254D01*
X246618Y14369D01*
X246364Y14466D01*
X246093Y14543D01*
X245805Y14601D01*
X245805Y14636D01*
X246053Y14695D01*
X246286Y14773D01*
X246507Y14869D01*
X246714Y14984D01*
X246908Y15117D01*
X247070Y15253D01*
X247088Y15268D01*
X247255Y15437D01*
X247408Y15625D01*
X247546Y15827D01*
X247665Y16036D01*
X247766Y16255D01*
X247848Y16481D01*
X247912Y16717D01*
X247958Y16960D01*
X247986Y17213D01*
X247995Y17473D01*
X247978Y17830D01*
X247929Y18167D01*
X247847Y18485D01*
X247731Y18785D01*
X247583Y19066D01*
X247401Y19327D01*
X247187Y19570D01*
X246940Y19794D01*
X246664Y19996D01*
X246364Y20170D01*
X246040Y20317D01*
X245693Y20438D01*
X245321Y20532D01*
X244925Y20599D01*
X244506Y20639D01*
X244062Y20653D01*
X243629Y20639D01*
X243219Y20598D01*
X242830Y20530D01*
X242465Y20434D01*
X242122Y20311D01*
X241802Y20160D01*
X241504Y19982D01*
X241229Y19777D01*
X240982Y19550D01*
X240767Y19306D01*
X240586Y19045D01*
X240437Y18767D01*
X240322Y18473D01*
X240240Y18163D01*
X240190Y17835D01*
X240174Y17491D01*
X240183Y17230D01*
X240210Y16978D01*
X240255Y16734D01*
X240319Y16499D01*
X240401Y16272D01*
X240501Y16054D01*
X240619Y15844D01*
X240756Y15643D01*
X240908Y15454D01*
X241074Y15283D01*
X241253Y15129D01*
X241445Y14993D01*
X241650Y14873D01*
X241869Y14771D01*
X242100Y14686D01*
X242346Y14618D01*
X242346Y14583D01*
X242082Y14529D01*
X241831Y14455D01*
X241592Y14361D01*
X241365Y14246D01*
X241150Y14111D01*
X240946Y13956D01*
X240755Y13780D01*
X240576Y13585D01*
X240414Y13373D01*
X240274Y13149D01*
X240155Y12913D01*
X240057Y12665D01*
X239982Y12405D01*
X239928Y12133D01*
X239895Y11849D01*
X239885Y11553D01*
X239902Y11134D01*
X239954Y10739D01*
X240042Y10369D01*
X240164Y10024D01*
X240321Y9704D01*
X240513Y9408D01*
X240739Y9137D01*
X241001Y8890D01*
X241294Y8670D01*
X241614Y8480D01*
X241960Y8319D01*
X242334Y8187D01*
X242734Y8085D01*
X243162Y8011D01*
X243616Y7968D01*
X244097Y7953D01*
X244591Y7968D01*
G37*
G36*
X264699Y7971D02*
X265127Y8023D01*
X265531Y8112D01*
X265909Y8235D01*
X266262Y8394D01*
X266590Y8588D01*
X266893Y8818D01*
X267170Y9083D01*
X267419Y9378D01*
X267634Y9699D01*
X267816Y10046D01*
X267965Y10418D01*
X268081Y10817D01*
X268164Y11241D01*
X268214Y11690D01*
X268230Y12166D01*
X268215Y12605D01*
X268168Y13022D01*
X268089Y13415D01*
X267980Y13786D01*
X267838Y14134D01*
X267666Y14458D01*
X267462Y14760D01*
X267227Y15038D01*
X266966Y15289D01*
X266682Y15506D01*
X266376Y15690D01*
X266048Y15840D01*
X265698Y15957D01*
X265326Y16040D01*
X264933Y16090D01*
X264517Y16107D01*
X264268Y16101D01*
X264027Y16081D01*
X263793Y16049D01*
X263566Y16003D01*
X263134Y15873D01*
X262730Y15691D01*
X262362Y15459D01*
X262038Y15180D01*
X261758Y14853D01*
X261521Y14478D01*
X261533Y15056D01*
X261567Y15599D01*
X261625Y16106D01*
X261706Y16579D01*
X261810Y17016D01*
X261937Y17418D01*
X262088Y17785D01*
X262261Y18117D01*
X262456Y18412D01*
X262669Y18667D01*
X262902Y18883D01*
X263154Y19060D01*
X263424Y19197D01*
X263714Y19295D01*
X264022Y19354D01*
X264350Y19374D01*
X264725Y19350D01*
X265065Y19280D01*
X265371Y19162D01*
X265642Y18997D01*
X265879Y18786D01*
X266081Y18527D01*
X266249Y18221D01*
X266382Y17868D01*
X267889Y18139D01*
X267790Y18443D01*
X267675Y18728D01*
X267543Y18993D01*
X267396Y19239D01*
X267232Y19465D01*
X267053Y19671D01*
X266857Y19857D01*
X266645Y20024D01*
X266417Y20172D01*
X266173Y20299D01*
X265912Y20407D01*
X265635Y20496D01*
X265343Y20564D01*
X265034Y20613D01*
X264709Y20643D01*
X264368Y20653D01*
X264107Y20646D01*
X263853Y20626D01*
X263607Y20592D01*
X263369Y20545D01*
X263138Y20485D01*
X262915Y20411D01*
X262491Y20224D01*
X262098Y19982D01*
X261735Y19687D01*
X261403Y19338D01*
X261101Y18936D01*
X260832Y18484D01*
X260599Y17985D01*
X260402Y17439D01*
X260240Y16847D01*
X260115Y16209D01*
X260025Y15523D01*
X259971Y14792D01*
X259953Y14014D01*
X259971Y13296D01*
X260022Y12622D01*
X260109Y11992D01*
X260229Y11406D01*
X260384Y10864D01*
X260574Y10366D01*
X260798Y9913D01*
X261057Y9503D01*
X261348Y9140D01*
X261670Y8825D01*
X262023Y8558D01*
X262406Y8340D01*
X262820Y8171D01*
X263264Y8050D01*
X263739Y7977D01*
X263988Y7959D01*
X264245Y7953D01*
X264699Y7971D01*
G37*
%LPC*%
G36*
X203844Y9259D02*
X203529Y9316D01*
X203238Y9412D01*
X202970Y9545D01*
X202727Y9716D01*
X202506Y9925D01*
X202310Y10172D01*
X202137Y10458D01*
X201986Y10784D01*
X201856Y11155D01*
X201745Y11569D01*
X201654Y12028D01*
X201584Y12530D01*
X201534Y13077D01*
X201504Y13668D01*
X201493Y14303D01*
X201503Y14956D01*
X201533Y15561D01*
X201583Y16118D01*
X201652Y16628D01*
X201742Y17090D01*
X201851Y17505D01*
X201980Y17872D01*
X202128Y18192D01*
X202300Y18469D01*
X202497Y18709D01*
X202720Y18912D01*
X202968Y19078D01*
X203242Y19208D01*
X203542Y19300D01*
X203867Y19355D01*
X204217Y19374D01*
X204560Y19355D01*
X204877Y19299D01*
X205169Y19205D01*
X205436Y19074D01*
X205678Y18905D01*
X205895Y18699D01*
X206087Y18455D01*
X206254Y18174D01*
X206398Y17851D01*
X206524Y17482D01*
X206630Y17067D01*
X206717Y16606D01*
X206784Y16099D01*
X206833Y15546D01*
X206862Y14948D01*
X206871Y14303D01*
X206861Y13680D01*
X206831Y13098D01*
X206780Y12559D01*
X206709Y12061D01*
X206618Y11604D01*
X206507Y11189D01*
X206375Y10816D01*
X206223Y10484D01*
X206049Y10193D01*
X205853Y9940D01*
X205632Y9726D01*
X205389Y9551D01*
X205122Y9415D01*
X204832Y9318D01*
X204519Y9260D01*
X204182Y9240D01*
X203844Y9259D01*
G37*
G36*
X253719Y9259D02*
X253404Y9316D01*
X253113Y9412D01*
X252845Y9545D01*
X252602Y9716D01*
X252381Y9925D01*
X252185Y10172D01*
X252012Y10458D01*
X251861Y10784D01*
X251731Y11155D01*
X251620Y11569D01*
X251529Y12028D01*
X251459Y12530D01*
X251409Y13077D01*
X251379Y13668D01*
X251368Y14303D01*
X251378Y14956D01*
X251408Y15561D01*
X251458Y16118D01*
X251527Y16628D01*
X251617Y17090D01*
X251726Y17505D01*
X251855Y17872D01*
X252003Y18192D01*
X252175Y18469D01*
X252372Y18709D01*
X252595Y18912D01*
X252843Y19078D01*
X253117Y19208D01*
X253417Y19300D01*
X253742Y19355D01*
X254092Y19374D01*
X254435Y19355D01*
X254752Y19299D01*
X255044Y19205D01*
X255311Y19074D01*
X255553Y18905D01*
X255770Y18699D01*
X255962Y18455D01*
X256129Y18174D01*
X256273Y17851D01*
X256399Y17482D01*
X256505Y17067D01*
X256592Y16606D01*
X256659Y16099D01*
X256708Y15546D01*
X256737Y14948D01*
X256746Y14303D01*
X256736Y13680D01*
X256706Y13098D01*
X256655Y12559D01*
X256584Y12061D01*
X256493Y11604D01*
X256382Y11189D01*
X256250Y10816D01*
X256098Y10484D01*
X255924Y10193D01*
X255728Y9940D01*
X255507Y9726D01*
X255264Y9551D01*
X254997Y9415D01*
X254707Y9318D01*
X254394Y9260D01*
X254057Y9240D01*
X253719Y9259D01*
G37*
%LPD*%
G36*
X194574Y7970D02*
X195046Y8023D01*
X195491Y8111D01*
X195907Y8233D01*
X196296Y8391D01*
X196656Y8583D01*
X196988Y8811D01*
X197292Y9074D01*
X197564Y9367D01*
X197800Y9686D01*
X197999Y10032D01*
X198163Y10403D01*
X198290Y10800D01*
X198380Y11224D01*
X198435Y11673D01*
X198453Y12148D01*
X198436Y12567D01*
X198385Y12966D01*
X198301Y13345D01*
X198182Y13703D01*
X198030Y14041D01*
X197844Y14359D01*
X197625Y14656D01*
X197371Y14933D01*
X197089Y15184D01*
X196784Y15401D01*
X196456Y15585D01*
X196104Y15735D01*
X195730Y15852D01*
X195332Y15935D01*
X194911Y15985D01*
X194468Y16002D01*
X194094Y15990D01*
X193737Y15953D01*
X193395Y15891D01*
X193068Y15805D01*
X192758Y15694D01*
X192462Y15559D01*
X192183Y15398D01*
X191919Y15214D01*
X192155Y19129D01*
X197735Y19129D01*
X197735Y20469D01*
X190719Y20469D01*
X190307Y13830D01*
X191849Y13830D01*
X192125Y14053D01*
X192401Y14241D01*
X192676Y14395D01*
X192952Y14513D01*
X193234Y14601D01*
X193526Y14664D01*
X193829Y14702D01*
X194144Y14714D01*
X194442Y14703D01*
X194725Y14670D01*
X194992Y14613D01*
X195244Y14535D01*
X195480Y14434D01*
X195700Y14310D01*
X195904Y14165D01*
X196092Y13996D01*
X196262Y13810D01*
X196408Y13609D01*
X196533Y13395D01*
X196634Y13166D01*
X196713Y12924D01*
X196770Y12668D01*
X196804Y12397D01*
X196815Y12113D01*
X196804Y11787D01*
X196770Y11479D01*
X196714Y11189D01*
X196635Y10917D01*
X196534Y10662D01*
X196411Y10426D01*
X196265Y10207D01*
X196097Y10007D01*
X195909Y9827D01*
X195703Y9671D01*
X195480Y9540D01*
X195241Y9432D01*
X194983Y9348D01*
X194709Y9288D01*
X194417Y9252D01*
X194109Y9240D01*
X193856Y9247D01*
X193616Y9269D01*
X193388Y9305D01*
X193173Y9355D01*
X192970Y9419D01*
X192779Y9498D01*
X192600Y9591D01*
X192433Y9698D01*
X192279Y9820D01*
X192137Y9955D01*
X192007Y10106D01*
X191890Y10270D01*
X191785Y10449D01*
X191692Y10642D01*
X191611Y10849D01*
X191542Y11071D01*
X189948Y10887D01*
X190030Y10541D01*
X190137Y10215D01*
X190268Y9911D01*
X190423Y9628D01*
X190603Y9366D01*
X190807Y9125D01*
X191035Y8905D01*
X191288Y8706D01*
X191564Y8530D01*
X191860Y8377D01*
X192177Y8247D01*
X192514Y8141D01*
X192873Y8059D01*
X193252Y8000D01*
X193653Y7965D01*
X194073Y7953D01*
X194574Y7970D01*
G37*
G36*
X214512Y7970D02*
X214984Y8023D01*
X215428Y8111D01*
X215845Y8233D01*
X216233Y8391D01*
X216593Y8583D01*
X216926Y8811D01*
X217230Y9074D01*
X217502Y9367D01*
X217737Y9686D01*
X217937Y10032D01*
X218100Y10403D01*
X218227Y10800D01*
X218318Y11224D01*
X218372Y11673D01*
X218390Y12148D01*
X218373Y12567D01*
X218323Y12966D01*
X218238Y13345D01*
X218120Y13703D01*
X217968Y14041D01*
X217782Y14359D01*
X217562Y14656D01*
X217309Y14933D01*
X217027Y15184D01*
X216721Y15401D01*
X216393Y15585D01*
X216042Y15735D01*
X215667Y15852D01*
X215270Y15935D01*
X214849Y15985D01*
X214405Y16002D01*
X214032Y15990D01*
X213674Y15953D01*
X213332Y15891D01*
X213006Y15805D01*
X212695Y15694D01*
X212400Y15559D01*
X212120Y15398D01*
X211856Y15214D01*
X212093Y19129D01*
X217672Y19129D01*
X217672Y20469D01*
X210656Y20469D01*
X210245Y13830D01*
X211786Y13830D01*
X212062Y14053D01*
X212338Y14241D01*
X212614Y14395D01*
X212890Y14513D01*
X213171Y14601D01*
X213464Y14664D01*
X213767Y14702D01*
X214081Y14714D01*
X214380Y14703D01*
X214663Y14670D01*
X214930Y14613D01*
X215181Y14535D01*
X215417Y14434D01*
X215637Y14310D01*
X215841Y14165D01*
X216030Y13996D01*
X216199Y13810D01*
X216346Y13609D01*
X216470Y13395D01*
X216572Y13166D01*
X216651Y12924D01*
X216707Y12668D01*
X216741Y12397D01*
X216752Y12113D01*
X216741Y11787D01*
X216708Y11479D01*
X216651Y11189D01*
X216573Y10917D01*
X216472Y10662D01*
X216348Y10426D01*
X216203Y10207D01*
X216034Y10007D01*
X215846Y9827D01*
X215641Y9671D01*
X215418Y9540D01*
X215178Y9432D01*
X214921Y9348D01*
X214647Y9288D01*
X214355Y9252D01*
X214046Y9240D01*
X213794Y9247D01*
X213554Y9269D01*
X213326Y9305D01*
X213110Y9355D01*
X212907Y9419D01*
X212716Y9498D01*
X212537Y9591D01*
X212371Y9698D01*
X212217Y9820D01*
X212075Y9955D01*
X211945Y10106D01*
X211827Y10270D01*
X211722Y10449D01*
X211629Y10642D01*
X211548Y10849D01*
X211480Y11071D01*
X209886Y10887D01*
X209968Y10541D01*
X210075Y10215D01*
X210206Y9911D01*
X210361Y9628D01*
X210541Y9366D01*
X210745Y9125D01*
X210973Y8905D01*
X211226Y8706D01*
X211501Y8530D01*
X211797Y8377D01*
X212114Y8247D01*
X212452Y8141D01*
X212811Y8059D01*
X213190Y8000D01*
X213590Y7965D01*
X214011Y7953D01*
X214512Y7970D01*
G37*
G36*
X224480Y7970D02*
X224953Y8023D01*
X225397Y8111D01*
X225814Y8233D01*
X226202Y8391D01*
X226562Y8583D01*
X226894Y8811D01*
X227198Y9074D01*
X227470Y9367D01*
X227706Y9686D01*
X227906Y10032D01*
X228069Y10403D01*
X228196Y10800D01*
X228286Y11224D01*
X228341Y11673D01*
X228359Y12148D01*
X228342Y12567D01*
X228291Y12966D01*
X228207Y13345D01*
X228089Y13703D01*
X227936Y14041D01*
X227751Y14359D01*
X227531Y14656D01*
X227277Y14933D01*
X226995Y15184D01*
X226690Y15401D01*
X226362Y15585D01*
X226011Y15735D01*
X225636Y15852D01*
X225238Y15935D01*
X224818Y15985D01*
X224374Y16002D01*
X224001Y15990D01*
X223643Y15953D01*
X223301Y15891D01*
X222975Y15805D01*
X222664Y15694D01*
X222369Y15559D01*
X222089Y15398D01*
X221825Y15214D01*
X222062Y19129D01*
X227641Y19129D01*
X227641Y20469D01*
X220625Y20469D01*
X220214Y13830D01*
X221755Y13830D01*
X222031Y14053D01*
X222307Y14241D01*
X222583Y14395D01*
X222859Y14513D01*
X223140Y14601D01*
X223432Y14664D01*
X223736Y14702D01*
X224050Y14714D01*
X224348Y14703D01*
X224631Y14670D01*
X224899Y14613D01*
X225150Y14535D01*
X225386Y14434D01*
X225606Y14310D01*
X225810Y14165D01*
X225999Y13996D01*
X226168Y13810D01*
X226315Y13609D01*
X226439Y13395D01*
X226541Y13166D01*
X226620Y12924D01*
X226676Y12668D01*
X226710Y12397D01*
X226721Y12113D01*
X226710Y11787D01*
X226676Y11479D01*
X226620Y11189D01*
X226542Y10917D01*
X226441Y10662D01*
X226317Y10426D01*
X226171Y10207D01*
X226003Y10007D01*
X225815Y9827D01*
X225609Y9671D01*
X225387Y9540D01*
X225147Y9432D01*
X224890Y9348D01*
X224615Y9288D01*
X224324Y9252D01*
X224015Y9240D01*
X223763Y9247D01*
X223523Y9269D01*
X223295Y9305D01*
X223079Y9355D01*
X222876Y9419D01*
X222685Y9498D01*
X222506Y9591D01*
X222340Y9698D01*
X222185Y9820D01*
X222043Y9955D01*
X221914Y10106D01*
X221796Y10270D01*
X221691Y10449D01*
X221598Y10642D01*
X221517Y10849D01*
X221449Y11071D01*
X219854Y10887D01*
X219937Y10541D01*
X220043Y10215D01*
X220174Y9911D01*
X220330Y9628D01*
X220509Y9366D01*
X220713Y9125D01*
X220942Y8905D01*
X221195Y8706D01*
X221470Y8530D01*
X221766Y8377D01*
X222083Y8247D01*
X222421Y8141D01*
X222779Y8059D01*
X223159Y8000D01*
X223559Y7965D01*
X223980Y7953D01*
X224480Y7970D01*
G37*
G36*
X288080Y9468D02*
X285076Y9468D01*
X285076Y20469D01*
X283622Y20469D01*
X280705Y18463D01*
X280705Y16974D01*
X283491Y18962D01*
X283491Y9468D01*
X280346Y9468D01*
X280346Y8128D01*
X288080Y8128D01*
X288080Y9468D01*
G37*
G36*
X233955Y8553D02*
X233973Y8975D01*
X234046Y9807D01*
X234168Y10626D01*
X234338Y11430D01*
X234557Y12230D01*
X234825Y13035D01*
X235142Y13846D01*
X235507Y14662D01*
X235967Y15559D01*
X236565Y16613D01*
X237302Y17823D01*
X238179Y19190D01*
X238179Y20469D01*
X230025Y20469D01*
X230025Y19129D01*
X236655Y19129D01*
X236089Y18289D01*
X235565Y17475D01*
X235083Y16685D01*
X234644Y15920D01*
X234246Y15180D01*
X233890Y14464D01*
X233576Y13773D01*
X233305Y13107D01*
X233070Y12458D01*
X232866Y11816D01*
X232694Y11182D01*
X232553Y10555D01*
X232443Y9937D01*
X232365Y9326D01*
X232318Y8723D01*
X232302Y8128D01*
X233948Y8128D01*
X233955Y8553D01*
G37*
G36*
X273861Y8553D02*
X273879Y8975D01*
X273952Y9807D01*
X274074Y10626D01*
X274244Y11430D01*
X274464Y12230D01*
X274732Y13035D01*
X275048Y13846D01*
X275414Y14662D01*
X275873Y15559D01*
X276471Y16613D01*
X277209Y17823D01*
X278085Y19190D01*
X278085Y20469D01*
X269931Y20469D01*
X269931Y19129D01*
X276561Y19129D01*
X275995Y18289D01*
X275471Y17475D01*
X274990Y16685D01*
X274550Y15920D01*
X274152Y15180D01*
X273796Y14464D01*
X273483Y13773D01*
X273211Y13107D01*
X272976Y12458D01*
X272772Y11816D01*
X272600Y11182D01*
X272459Y10555D01*
X272349Y9937D01*
X272271Y9326D01*
X272224Y8723D01*
X272208Y8128D01*
X273855Y8128D01*
X273861Y8553D01*
G37*
%LPC*%
G36*
X263923Y9237D02*
X263666Y9280D01*
X263421Y9351D01*
X263189Y9451D01*
X262969Y9579D01*
X262761Y9735D01*
X262566Y9920D01*
X262384Y10134D01*
X262219Y10370D01*
X262075Y10621D01*
X261954Y10890D01*
X261855Y11174D01*
X261778Y11474D01*
X261723Y11791D01*
X261690Y12123D01*
X261679Y12472D01*
X261689Y12747D01*
X261721Y13007D01*
X261774Y13251D01*
X261849Y13481D01*
X261944Y13695D01*
X262061Y13894D01*
X262199Y14077D01*
X262358Y14246D01*
X262534Y14397D01*
X262724Y14527D01*
X262926Y14638D01*
X263143Y14729D01*
X263372Y14799D01*
X263615Y14849D01*
X263871Y14880D01*
X264140Y14890D01*
X264425Y14878D01*
X264694Y14844D01*
X264948Y14787D01*
X265184Y14708D01*
X265405Y14606D01*
X265610Y14481D01*
X265798Y14333D01*
X265971Y14163D01*
X266124Y13971D01*
X266258Y13761D01*
X266371Y13531D01*
X266463Y13282D01*
X266535Y13014D01*
X266586Y12727D01*
X266617Y12421D01*
X266627Y12096D01*
X266617Y11770D01*
X266587Y11461D01*
X266536Y11171D01*
X266465Y10899D01*
X266374Y10645D01*
X266263Y10408D01*
X266131Y10190D01*
X265979Y9989D01*
X265810Y9810D01*
X265625Y9654D01*
X265424Y9522D01*
X265209Y9414D01*
X264978Y9331D01*
X264731Y9271D01*
X264470Y9235D01*
X264193Y9223D01*
X263923Y9237D01*
G37*
G36*
X243800Y9145D02*
X243505Y9175D01*
X243231Y9225D01*
X242977Y9295D01*
X242743Y9384D01*
X242530Y9494D01*
X242337Y9623D01*
X242164Y9772D01*
X242012Y9942D01*
X241879Y10131D01*
X241768Y10340D01*
X241676Y10569D01*
X241605Y10818D01*
X241554Y11087D01*
X241524Y11375D01*
X241514Y11684D01*
X241524Y11950D01*
X241556Y12202D01*
X241608Y12439D01*
X241682Y12662D01*
X241777Y12869D01*
X241893Y13063D01*
X242030Y13241D01*
X242188Y13405D01*
X242365Y13552D01*
X242558Y13679D01*
X242768Y13787D01*
X242994Y13875D01*
X243236Y13943D01*
X243495Y13992D01*
X243771Y14021D01*
X244062Y14031D01*
X244362Y14022D01*
X244645Y13995D01*
X244911Y13949D01*
X245159Y13886D01*
X245390Y13804D01*
X245604Y13704D01*
X245801Y13585D01*
X245980Y13449D01*
X246141Y13294D01*
X246279Y13122D01*
X246397Y12933D01*
X246493Y12725D01*
X246568Y12500D01*
X246621Y12257D01*
X246653Y11997D01*
X246664Y11719D01*
X246654Y11393D01*
X246624Y11090D01*
X246575Y10810D01*
X246506Y10553D01*
X246417Y10319D01*
X246309Y10107D01*
X246181Y9919D01*
X246033Y9753D01*
X245865Y9608D01*
X245677Y9483D01*
X245468Y9376D01*
X245238Y9290D01*
X244988Y9222D01*
X244718Y9174D01*
X244427Y9145D01*
X244115Y9135D01*
X243800Y9145D01*
G37*
G36*
X243814Y15222D02*
X243563Y15248D01*
X243328Y15292D01*
X243109Y15353D01*
X242905Y15431D01*
X242716Y15527D01*
X242543Y15639D01*
X242385Y15770D01*
X242244Y15917D01*
X242123Y16079D01*
X242019Y16258D01*
X241935Y16452D01*
X241869Y16662D01*
X241823Y16887D01*
X241794Y17129D01*
X241785Y17386D01*
X241794Y17638D01*
X241822Y17875D01*
X241867Y18095D01*
X241931Y18299D01*
X242013Y18487D01*
X242113Y18659D01*
X242231Y18814D01*
X242368Y18954D01*
X242521Y19077D01*
X242692Y19183D01*
X242879Y19274D01*
X243082Y19348D01*
X243303Y19405D01*
X243539Y19446D01*
X243793Y19471D01*
X244062Y19479D01*
X244340Y19471D01*
X244600Y19446D01*
X244842Y19405D01*
X245066Y19348D01*
X245272Y19275D01*
X245461Y19185D01*
X245631Y19078D01*
X245783Y18956D01*
X245918Y18817D01*
X246034Y18661D01*
X246133Y18490D01*
X246214Y18302D01*
X246276Y18097D01*
X246321Y17876D01*
X246348Y17639D01*
X246357Y17386D01*
X246348Y17109D01*
X246321Y16852D01*
X246275Y16615D01*
X246211Y16397D01*
X246130Y16200D01*
X246029Y16022D01*
X245911Y15864D01*
X245775Y15726D01*
X245621Y15606D01*
X245450Y15502D01*
X245263Y15414D01*
X245060Y15342D01*
X244840Y15286D01*
X244603Y15246D01*
X244350Y15222D01*
X244080Y15214D01*
X243814Y15222D01*
G37*
%LPD*%
G36*
X187741Y172790D02*
X184737Y172790D01*
X184737Y183791D01*
X183283Y183791D01*
X180366Y181785D01*
X180366Y180296D01*
X183151Y182284D01*
X183151Y172790D01*
X180007Y172790D01*
X180007Y171450D01*
X187741Y171450D01*
X187741Y172790D01*
G37*
G36*
X174086Y171291D02*
X174475Y171339D01*
X174841Y171420D01*
X175186Y171532D01*
X175507Y171677D01*
X175806Y171854D01*
X176083Y172063D01*
X176337Y172304D01*
X176565Y172573D01*
X176763Y172866D01*
X176930Y173184D01*
X177066Y173525D01*
X177173Y173890D01*
X177249Y174279D01*
X177294Y174692D01*
X177309Y175129D01*
X177309Y183791D01*
X173272Y183791D01*
X173272Y182424D01*
X175645Y182424D01*
X175645Y175094D01*
X175637Y174800D01*
X175612Y174526D01*
X175571Y174269D01*
X175514Y174030D01*
X175440Y173810D01*
X175350Y173608D01*
X175243Y173424D01*
X175120Y173259D01*
X174982Y173112D01*
X174833Y172985D01*
X174671Y172877D01*
X174498Y172789D01*
X174312Y172720D01*
X174115Y172672D01*
X173905Y172642D01*
X173683Y172632D01*
X173480Y172641D01*
X173285Y172668D01*
X173099Y172712D01*
X172921Y172775D01*
X172753Y172855D01*
X172593Y172953D01*
X172442Y173068D01*
X172300Y173202D01*
X172168Y173351D01*
X172048Y173514D01*
X171941Y173692D01*
X171846Y173883D01*
X171764Y174088D01*
X171694Y174307D01*
X171636Y174540D01*
X171590Y174787D01*
X169952Y174515D01*
X170036Y174123D01*
X170139Y173756D01*
X170262Y173414D01*
X170405Y173098D01*
X170568Y172807D01*
X170751Y172541D01*
X170954Y172300D01*
X171176Y172085D01*
X171419Y171895D01*
X171681Y171731D01*
X171964Y171591D01*
X172266Y171477D01*
X172588Y171389D01*
X172931Y171325D01*
X173293Y171288D01*
X173675Y171275D01*
X174086Y171291D01*
G37*
G36*
X152583Y652454D02*
X152849Y652472D01*
X153106Y652503D01*
X153353Y652546D01*
X153591Y652602D01*
X153820Y652670D01*
X154249Y652844D01*
X154640Y653067D01*
X154993Y653339D01*
X155309Y653661D01*
X155588Y654033D01*
X155831Y654454D01*
X156042Y654925D01*
X156220Y655446D01*
X156366Y656016D01*
X156480Y656637D01*
X156561Y657307D01*
X156609Y658027D01*
X156626Y658797D01*
X156609Y659551D01*
X156559Y660259D01*
X156475Y660920D01*
X156358Y661534D01*
X156208Y662102D01*
X156025Y662624D01*
X155807Y663099D01*
X155557Y663527D01*
X155273Y663907D01*
X154957Y664236D01*
X154607Y664514D01*
X154224Y664742D01*
X153807Y664919D01*
X153358Y665046D01*
X153121Y665090D01*
X152876Y665122D01*
X152622Y665141D01*
X152360Y665147D01*
X152098Y665141D01*
X151844Y665122D01*
X151599Y665090D01*
X151361Y665045D01*
X150910Y664918D01*
X150491Y664740D01*
X150105Y664511D01*
X149752Y664231D01*
X149430Y663900D01*
X149141Y663518D01*
X148886Y663088D01*
X148664Y662612D01*
X148477Y662091D01*
X148324Y661523D01*
X148204Y660910D01*
X148119Y660252D01*
X148068Y659547D01*
X148051Y658797D01*
X148067Y658035D01*
X148116Y657321D01*
X148197Y656656D01*
X148310Y656038D01*
X148456Y655469D01*
X148635Y654948D01*
X148846Y654475D01*
X149089Y654050D01*
X149366Y653674D01*
X149679Y653349D01*
X150028Y653073D01*
X150413Y652848D01*
X150833Y652673D01*
X151056Y652604D01*
X151289Y652547D01*
X151530Y652504D01*
X151780Y652472D01*
X152039Y652454D01*
X152308Y652447D01*
X152583Y652454D01*
G37*
G36*
X202458Y652454D02*
X202724Y652472D01*
X202981Y652503D01*
X203228Y652546D01*
X203466Y652602D01*
X203695Y652670D01*
X204124Y652844D01*
X204515Y653067D01*
X204868Y653339D01*
X205184Y653661D01*
X205463Y654033D01*
X205706Y654454D01*
X205917Y654925D01*
X206095Y655446D01*
X206241Y656016D01*
X206355Y656637D01*
X206436Y657307D01*
X206484Y658027D01*
X206501Y658797D01*
X206484Y659551D01*
X206434Y660259D01*
X206350Y660920D01*
X206233Y661534D01*
X206083Y662102D01*
X205900Y662624D01*
X205682Y663099D01*
X205432Y663527D01*
X205148Y663907D01*
X204832Y664236D01*
X204482Y664514D01*
X204099Y664742D01*
X203682Y664919D01*
X203233Y665046D01*
X202996Y665090D01*
X202751Y665122D01*
X202497Y665141D01*
X202235Y665147D01*
X201973Y665141D01*
X201719Y665122D01*
X201474Y665090D01*
X201236Y665045D01*
X200785Y664918D01*
X200366Y664740D01*
X199980Y664511D01*
X199627Y664231D01*
X199305Y663900D01*
X199016Y663518D01*
X198761Y663088D01*
X198539Y662612D01*
X198352Y662091D01*
X198199Y661523D01*
X198079Y660910D01*
X197994Y660252D01*
X197943Y659547D01*
X197926Y658797D01*
X197942Y658035D01*
X197991Y657321D01*
X198072Y656656D01*
X198185Y656038D01*
X198331Y655469D01*
X198510Y654948D01*
X198721Y654475D01*
X198964Y654050D01*
X199241Y653674D01*
X199554Y653349D01*
X199903Y653073D01*
X200288Y652848D01*
X200708Y652673D01*
X200931Y652604D01*
X201164Y652547D01*
X201405Y652504D01*
X201655Y652472D01*
X201914Y652454D01*
X202183Y652447D01*
X202458Y652454D01*
G37*
G36*
X162771Y652461D02*
X163182Y652502D01*
X163570Y652570D01*
X163935Y652666D01*
X164278Y652789D01*
X164598Y652940D01*
X164896Y653118D01*
X165171Y653323D01*
X165418Y653550D01*
X165633Y653794D01*
X165814Y654055D01*
X165963Y654333D01*
X166078Y654627D01*
X166161Y654937D01*
X166210Y655265D01*
X166226Y655609D01*
X166217Y655870D01*
X166190Y656122D01*
X166145Y656366D01*
X166081Y656601D01*
X165999Y656828D01*
X165899Y657046D01*
X165781Y657256D01*
X165644Y657457D01*
X165492Y657646D01*
X165326Y657817D01*
X165147Y657971D01*
X164955Y658108D01*
X164750Y658227D01*
X164531Y658329D01*
X164300Y658414D01*
X164054Y658482D01*
X164054Y658517D01*
X164318Y658571D01*
X164569Y658645D01*
X164808Y658740D01*
X165035Y658854D01*
X165250Y658989D01*
X165454Y659144D01*
X165645Y659320D01*
X165824Y659515D01*
X165986Y659727D01*
X166126Y659951D01*
X166245Y660187D01*
X166343Y660435D01*
X166418Y660695D01*
X166472Y660967D01*
X166505Y661251D01*
X166516Y661547D01*
X166498Y661966D01*
X166446Y662361D01*
X166358Y662731D01*
X166236Y663076D01*
X166079Y663396D01*
X165887Y663692D01*
X165661Y663963D01*
X165399Y664210D01*
X165106Y664430D01*
X164787Y664620D01*
X164440Y664781D01*
X164066Y664913D01*
X163666Y665015D01*
X163238Y665089D01*
X162784Y665133D01*
X162303Y665147D01*
X161809Y665132D01*
X161346Y665088D01*
X160912Y665013D01*
X160507Y664909D01*
X160132Y664774D01*
X159787Y664610D01*
X159471Y664416D01*
X159185Y664193D01*
X158930Y663942D01*
X158709Y663668D01*
X158523Y663371D01*
X158370Y663050D01*
X158251Y662705D01*
X158166Y662337D01*
X158116Y661945D01*
X158099Y661530D01*
X158109Y661232D01*
X158140Y660947D01*
X158191Y660674D01*
X158263Y660414D01*
X158355Y660167D01*
X158468Y659933D01*
X158601Y659711D01*
X158755Y659502D01*
X158789Y659465D01*
X158928Y659309D01*
X159117Y659136D01*
X159322Y658982D01*
X159544Y658847D01*
X159782Y658731D01*
X160036Y658634D01*
X160307Y658557D01*
X160595Y658499D01*
X160595Y658464D01*
X160347Y658405D01*
X160114Y658327D01*
X159893Y658231D01*
X159686Y658116D01*
X159492Y657983D01*
X159330Y657847D01*
X159312Y657832D01*
X159145Y657663D01*
X158992Y657475D01*
X158854Y657273D01*
X158735Y657064D01*
X158634Y656845D01*
X158552Y656619D01*
X158488Y656383D01*
X158442Y656140D01*
X158414Y655887D01*
X158405Y655627D01*
X158422Y655270D01*
X158471Y654933D01*
X158554Y654615D01*
X158669Y654315D01*
X158817Y654034D01*
X158999Y653773D01*
X159213Y653530D01*
X159461Y653306D01*
X159736Y653104D01*
X160036Y652930D01*
X160360Y652783D01*
X160708Y652662D01*
X161079Y652568D01*
X161475Y652501D01*
X161894Y652461D01*
X162338Y652447D01*
X162771Y652461D01*
G37*
G36*
X142293Y652454D02*
X142547Y652474D01*
X142793Y652508D01*
X143031Y652555D01*
X143262Y652615D01*
X143485Y652689D01*
X143909Y652876D01*
X144302Y653118D01*
X144665Y653413D01*
X144997Y653762D01*
X145299Y654164D01*
X145568Y654616D01*
X145801Y655115D01*
X145998Y655661D01*
X146160Y656253D01*
X146285Y656891D01*
X146375Y657577D01*
X146429Y658308D01*
X146447Y659086D01*
X146429Y659804D01*
X146378Y660478D01*
X146291Y661108D01*
X146171Y661694D01*
X146016Y662236D01*
X145826Y662734D01*
X145602Y663187D01*
X145343Y663597D01*
X145052Y663960D01*
X144730Y664275D01*
X144377Y664542D01*
X143994Y664760D01*
X143580Y664929D01*
X143136Y665050D01*
X142661Y665123D01*
X142412Y665141D01*
X142155Y665147D01*
X141701Y665130D01*
X141273Y665077D01*
X140869Y664988D01*
X140491Y664865D01*
X140138Y664706D01*
X139810Y664512D01*
X139507Y664282D01*
X139230Y664017D01*
X138981Y663722D01*
X138766Y663401D01*
X138584Y663054D01*
X138435Y662682D01*
X138319Y662283D01*
X138236Y661859D01*
X138186Y661410D01*
X138170Y660934D01*
X138185Y660495D01*
X138232Y660078D01*
X138311Y659685D01*
X138421Y659314D01*
X138562Y658966D01*
X138734Y658642D01*
X138938Y658340D01*
X139173Y658062D01*
X139434Y657811D01*
X139718Y657594D01*
X140024Y657410D01*
X140352Y657260D01*
X140702Y657143D01*
X141074Y657060D01*
X141467Y657010D01*
X141883Y656993D01*
X142132Y656999D01*
X142373Y657019D01*
X142607Y657052D01*
X142834Y657097D01*
X143266Y657227D01*
X143670Y657409D01*
X144038Y657641D01*
X144362Y657920D01*
X144642Y658247D01*
X144879Y658622D01*
X144867Y658044D01*
X144833Y657501D01*
X144775Y656994D01*
X144694Y656521D01*
X144590Y656084D01*
X144463Y655682D01*
X144312Y655315D01*
X144139Y654983D01*
X143944Y654688D01*
X143731Y654433D01*
X143498Y654217D01*
X143246Y654040D01*
X142976Y653903D01*
X142686Y653805D01*
X142378Y653746D01*
X142050Y653726D01*
X141675Y653750D01*
X141335Y653820D01*
X141029Y653938D01*
X140758Y654103D01*
X140521Y654315D01*
X140319Y654573D01*
X140151Y654879D01*
X140018Y655233D01*
X138511Y654961D01*
X138610Y654657D01*
X138725Y654372D01*
X138857Y654107D01*
X139004Y653861D01*
X139168Y653635D01*
X139347Y653429D01*
X139543Y653243D01*
X139755Y653076D01*
X139983Y652928D01*
X140228Y652801D01*
X140488Y652693D01*
X140765Y652604D01*
X141057Y652536D01*
X141366Y652487D01*
X141691Y652457D01*
X142032Y652447D01*
X142293Y652454D01*
G37*
%LPC*%
G36*
X151965Y653745D02*
X151648Y653801D01*
X151356Y653895D01*
X151089Y654026D01*
X150847Y654195D01*
X150630Y654401D01*
X150438Y654645D01*
X150271Y654926D01*
X150127Y655249D01*
X150001Y655618D01*
X149895Y656033D01*
X149808Y656494D01*
X149741Y657001D01*
X149692Y657554D01*
X149663Y658152D01*
X149654Y658797D01*
X149664Y659420D01*
X149694Y660002D01*
X149745Y660541D01*
X149816Y661039D01*
X149907Y661496D01*
X150018Y661911D01*
X150150Y662284D01*
X150302Y662616D01*
X150476Y662907D01*
X150673Y663160D01*
X150893Y663374D01*
X151136Y663549D01*
X151403Y663685D01*
X151693Y663782D01*
X152006Y663840D01*
X152343Y663860D01*
X152681Y663841D01*
X152996Y663784D01*
X153287Y663688D01*
X153555Y663555D01*
X153798Y663384D01*
X154019Y663175D01*
X154215Y662928D01*
X154388Y662642D01*
X154539Y662316D01*
X154669Y661945D01*
X154780Y661531D01*
X154871Y661072D01*
X154941Y660570D01*
X154991Y660023D01*
X155021Y659432D01*
X155032Y658797D01*
X155022Y658144D01*
X154992Y657539D01*
X154942Y656982D01*
X154873Y656472D01*
X154783Y656010D01*
X154674Y655595D01*
X154545Y655228D01*
X154397Y654908D01*
X154225Y654631D01*
X154028Y654391D01*
X153805Y654188D01*
X153557Y654022D01*
X153283Y653892D01*
X152983Y653800D01*
X152658Y653745D01*
X152308Y653726D01*
X151965Y653745D01*
G37*
G36*
X201840Y653745D02*
X201523Y653801D01*
X201231Y653895D01*
X200964Y654026D01*
X200722Y654195D01*
X200505Y654401D01*
X200313Y654645D01*
X200146Y654926D01*
X200002Y655249D01*
X199876Y655618D01*
X199770Y656033D01*
X199683Y656494D01*
X199616Y657001D01*
X199567Y657554D01*
X199538Y658152D01*
X199529Y658797D01*
X199539Y659420D01*
X199569Y660002D01*
X199620Y660541D01*
X199691Y661039D01*
X199782Y661496D01*
X199893Y661911D01*
X200025Y662284D01*
X200177Y662616D01*
X200351Y662907D01*
X200548Y663160D01*
X200768Y663374D01*
X201011Y663549D01*
X201278Y663685D01*
X201568Y663782D01*
X201881Y663840D01*
X202218Y663860D01*
X202556Y663841D01*
X202871Y663784D01*
X203162Y663688D01*
X203430Y663555D01*
X203673Y663384D01*
X203894Y663175D01*
X204090Y662928D01*
X204263Y662642D01*
X204414Y662316D01*
X204544Y661945D01*
X204655Y661531D01*
X204746Y661072D01*
X204816Y660570D01*
X204866Y660023D01*
X204896Y659432D01*
X204907Y658797D01*
X204897Y658144D01*
X204867Y657539D01*
X204817Y656982D01*
X204748Y656472D01*
X204658Y656010D01*
X204549Y655595D01*
X204420Y655228D01*
X204272Y654908D01*
X204100Y654631D01*
X203903Y654391D01*
X203680Y654188D01*
X203432Y654022D01*
X203158Y653892D01*
X202858Y653800D01*
X202533Y653745D01*
X202183Y653726D01*
X201840Y653745D01*
G37*
%LPD*%
G36*
X186186Y659270D02*
X184645Y659270D01*
X184369Y659047D01*
X184093Y658859D01*
X183817Y658705D01*
X183541Y658587D01*
X183260Y658499D01*
X182968Y658436D01*
X182664Y658398D01*
X182350Y658386D01*
X182052Y658397D01*
X181769Y658430D01*
X181501Y658487D01*
X181250Y658565D01*
X181014Y658666D01*
X180794Y658790D01*
X180590Y658935D01*
X180401Y659104D01*
X180232Y659290D01*
X180085Y659491D01*
X179961Y659705D01*
X179860Y659934D01*
X179780Y660176D01*
X179724Y660432D01*
X179690Y660703D01*
X179679Y660987D01*
X179690Y661313D01*
X179724Y661621D01*
X179780Y661911D01*
X179858Y662184D01*
X179959Y662438D01*
X180083Y662674D01*
X180229Y662893D01*
X180397Y663093D01*
X180585Y663273D01*
X180791Y663429D01*
X181013Y663560D01*
X181253Y663668D01*
X181510Y663752D01*
X181785Y663812D01*
X182076Y663848D01*
X182385Y663860D01*
X182638Y663853D01*
X182878Y663831D01*
X183105Y663795D01*
X183321Y663745D01*
X183524Y663681D01*
X183715Y663602D01*
X183894Y663509D01*
X184060Y663402D01*
X184215Y663281D01*
X184357Y663145D01*
X184486Y662994D01*
X184604Y662830D01*
X184709Y662651D01*
X184802Y662458D01*
X184883Y662251D01*
X184952Y662029D01*
X186546Y662213D01*
X186463Y662559D01*
X186357Y662885D01*
X186226Y663189D01*
X186070Y663472D01*
X185891Y663734D01*
X185687Y663975D01*
X185458Y664195D01*
X185206Y664394D01*
X184930Y664571D01*
X184634Y664724D01*
X184317Y664853D01*
X183979Y664959D01*
X183621Y665041D01*
X183241Y665100D01*
X182841Y665135D01*
X182420Y665147D01*
X181920Y665130D01*
X181447Y665077D01*
X181003Y664990D01*
X180586Y664867D01*
X180198Y664709D01*
X179838Y664517D01*
X179506Y664289D01*
X179202Y664026D01*
X178930Y663733D01*
X178694Y663414D01*
X178494Y663068D01*
X178331Y662697D01*
X178204Y662300D01*
X178114Y661876D01*
X178059Y661427D01*
X178041Y660952D01*
X178058Y660533D01*
X178109Y660134D01*
X178193Y659755D01*
X178311Y659397D01*
X178464Y659059D01*
X178649Y658741D01*
X178869Y658444D01*
X179123Y658167D01*
X179405Y657916D01*
X179710Y657699D01*
X180038Y657515D01*
X180389Y657365D01*
X180764Y657248D01*
X181162Y657165D01*
X181582Y657115D01*
X182026Y657098D01*
X182399Y657110D01*
X182757Y657147D01*
X183099Y657209D01*
X183425Y657295D01*
X183736Y657406D01*
X184031Y657542D01*
X184311Y657702D01*
X184575Y657886D01*
X184338Y653971D01*
X178759Y653971D01*
X178759Y652631D01*
X185775Y652631D01*
X186186Y659270D01*
G37*
G36*
X196155Y659270D02*
X194614Y659270D01*
X194338Y659047D01*
X194062Y658859D01*
X193786Y658705D01*
X193510Y658587D01*
X193229Y658499D01*
X192936Y658436D01*
X192633Y658398D01*
X192319Y658386D01*
X192020Y658397D01*
X191737Y658430D01*
X191470Y658487D01*
X191219Y658565D01*
X190983Y658666D01*
X190763Y658790D01*
X190559Y658935D01*
X190370Y659104D01*
X190201Y659290D01*
X190054Y659491D01*
X189930Y659705D01*
X189828Y659934D01*
X189749Y660176D01*
X189693Y660432D01*
X189659Y660703D01*
X189648Y660987D01*
X189659Y661313D01*
X189693Y661621D01*
X189749Y661911D01*
X189827Y662184D01*
X189928Y662438D01*
X190052Y662674D01*
X190198Y662893D01*
X190366Y663093D01*
X190554Y663273D01*
X190759Y663429D01*
X190982Y663560D01*
X191222Y663668D01*
X191479Y663752D01*
X191754Y663812D01*
X192045Y663848D01*
X192354Y663860D01*
X192606Y663853D01*
X192846Y663831D01*
X193074Y663795D01*
X193290Y663745D01*
X193493Y663681D01*
X193684Y663602D01*
X193863Y663509D01*
X194029Y663402D01*
X194183Y663281D01*
X194325Y663145D01*
X194455Y662994D01*
X194573Y662830D01*
X194678Y662651D01*
X194771Y662458D01*
X194852Y662251D01*
X194920Y662029D01*
X196514Y662213D01*
X196432Y662559D01*
X196325Y662885D01*
X196195Y663189D01*
X196039Y663472D01*
X195859Y663734D01*
X195655Y663975D01*
X195427Y664195D01*
X195174Y664394D01*
X194899Y664571D01*
X194603Y664724D01*
X194286Y664853D01*
X193948Y664959D01*
X193590Y665041D01*
X193210Y665100D01*
X192810Y665135D01*
X192389Y665147D01*
X191889Y665130D01*
X191416Y665077D01*
X190972Y664990D01*
X190555Y664867D01*
X190167Y664709D01*
X189807Y664517D01*
X189474Y664289D01*
X189170Y664026D01*
X188898Y663733D01*
X188663Y663414D01*
X188463Y663068D01*
X188300Y662697D01*
X188173Y662300D01*
X188082Y661876D01*
X188028Y661427D01*
X188010Y660952D01*
X188027Y660533D01*
X188077Y660134D01*
X188162Y659755D01*
X188280Y659397D01*
X188432Y659059D01*
X188618Y658741D01*
X188838Y658444D01*
X189091Y658167D01*
X189373Y657916D01*
X189679Y657699D01*
X190007Y657515D01*
X190358Y657365D01*
X190733Y657248D01*
X191130Y657165D01*
X191551Y657115D01*
X191995Y657098D01*
X192368Y657110D01*
X192726Y657147D01*
X193068Y657209D01*
X193394Y657295D01*
X193705Y657406D01*
X194000Y657542D01*
X194280Y657702D01*
X194544Y657886D01*
X194307Y653971D01*
X188728Y653971D01*
X188728Y652631D01*
X195744Y652631D01*
X196155Y659270D01*
G37*
G36*
X216093Y659270D02*
X214551Y659270D01*
X214275Y659047D01*
X213999Y658859D01*
X213724Y658705D01*
X213448Y658587D01*
X213166Y658499D01*
X212874Y658436D01*
X212571Y658398D01*
X212256Y658386D01*
X211958Y658397D01*
X211675Y658430D01*
X211408Y658487D01*
X211156Y658565D01*
X210920Y658666D01*
X210700Y658790D01*
X210496Y658935D01*
X210308Y659104D01*
X210138Y659290D01*
X209992Y659491D01*
X209867Y659705D01*
X209766Y659934D01*
X209687Y660176D01*
X209630Y660432D01*
X209596Y660703D01*
X209585Y660987D01*
X209596Y661313D01*
X209630Y661621D01*
X209686Y661911D01*
X209765Y662184D01*
X209866Y662438D01*
X209989Y662674D01*
X210135Y662893D01*
X210303Y663093D01*
X210492Y663273D01*
X210697Y663429D01*
X210920Y663560D01*
X211159Y663668D01*
X211417Y663752D01*
X211691Y663812D01*
X211983Y663848D01*
X212292Y663860D01*
X212544Y663853D01*
X212784Y663831D01*
X213012Y663795D01*
X213227Y663745D01*
X213430Y663681D01*
X213621Y663602D01*
X213800Y663509D01*
X213967Y663402D01*
X214121Y663281D01*
X214263Y663145D01*
X214393Y662994D01*
X214510Y662830D01*
X214615Y662651D01*
X214708Y662458D01*
X214789Y662251D01*
X214858Y662029D01*
X216452Y662213D01*
X216370Y662559D01*
X216263Y662885D01*
X216132Y663189D01*
X215977Y663472D01*
X215797Y663734D01*
X215593Y663975D01*
X215365Y664195D01*
X215112Y664394D01*
X214836Y664571D01*
X214540Y664724D01*
X214223Y664853D01*
X213886Y664959D01*
X213527Y665041D01*
X213148Y665100D01*
X212748Y665135D01*
X212327Y665147D01*
X211826Y665130D01*
X211354Y665077D01*
X210909Y664990D01*
X210493Y664867D01*
X210104Y664709D01*
X209744Y664517D01*
X209412Y664289D01*
X209108Y664026D01*
X208836Y663733D01*
X208600Y663414D01*
X208401Y663068D01*
X208237Y662697D01*
X208110Y662300D01*
X208020Y661876D01*
X207965Y661427D01*
X207947Y660952D01*
X207964Y660533D01*
X208015Y660134D01*
X208099Y659755D01*
X208218Y659397D01*
X208370Y659059D01*
X208556Y658741D01*
X208775Y658444D01*
X209029Y658167D01*
X209311Y657916D01*
X209616Y657699D01*
X209944Y657515D01*
X210296Y657365D01*
X210670Y657248D01*
X211068Y657165D01*
X211489Y657115D01*
X211932Y657098D01*
X212306Y657110D01*
X212663Y657147D01*
X213005Y657209D01*
X213332Y657295D01*
X213642Y657406D01*
X213938Y657542D01*
X214217Y657702D01*
X214481Y657886D01*
X214245Y653971D01*
X208665Y653971D01*
X208665Y652631D01*
X215681Y652631D01*
X216093Y659270D01*
G37*
G36*
X125695Y654637D02*
X125695Y656126D01*
X122909Y654138D01*
X122909Y663632D01*
X126054Y663632D01*
X126054Y664972D01*
X118320Y664972D01*
X118320Y663632D01*
X121324Y663632D01*
X121324Y652631D01*
X122778Y652631D01*
X125695Y654637D01*
G37*
G36*
X136469Y653971D02*
X129839Y653971D01*
X130405Y654811D01*
X130929Y655625D01*
X131410Y656415D01*
X131850Y657180D01*
X132248Y657921D01*
X132604Y658636D01*
X132917Y659327D01*
X133189Y659993D01*
X133424Y660643D01*
X133628Y661284D01*
X133800Y661919D01*
X133941Y662545D01*
X134051Y663163D01*
X134129Y663774D01*
X134176Y664377D01*
X134192Y664972D01*
X132545Y664972D01*
X132539Y664547D01*
X132521Y664125D01*
X132448Y663293D01*
X132326Y662474D01*
X132156Y661670D01*
X131936Y660870D01*
X131668Y660065D01*
X131352Y659254D01*
X130986Y658438D01*
X130527Y657541D01*
X129929Y656487D01*
X129191Y655277D01*
X128315Y653910D01*
X128315Y652631D01*
X136469Y652631D01*
X136469Y653971D01*
G37*
G36*
X176375Y653971D02*
X169745Y653971D01*
X170311Y654811D01*
X170835Y655625D01*
X171317Y656415D01*
X171756Y657180D01*
X172154Y657921D01*
X172510Y658636D01*
X172824Y659327D01*
X173095Y659993D01*
X173330Y660643D01*
X173534Y661284D01*
X173706Y661919D01*
X173847Y662545D01*
X173957Y663163D01*
X174035Y663774D01*
X174082Y664377D01*
X174098Y664972D01*
X172452Y664972D01*
X172445Y664547D01*
X172427Y664125D01*
X172354Y663293D01*
X172232Y662474D01*
X172062Y661670D01*
X171843Y660870D01*
X171575Y660065D01*
X171258Y659254D01*
X170893Y658438D01*
X170433Y657541D01*
X169835Y656487D01*
X169098Y655277D01*
X168221Y653910D01*
X168221Y652631D01*
X176375Y652631D01*
X176375Y653971D01*
G37*
%LPC*%
G36*
X141975Y658222D02*
X141706Y658256D01*
X141452Y658313D01*
X141216Y658392D01*
X140995Y658494D01*
X140790Y658619D01*
X140602Y658767D01*
X140430Y658937D01*
X140276Y659129D01*
X140142Y659339D01*
X140029Y659569D01*
X139937Y659818D01*
X139865Y660086D01*
X139814Y660373D01*
X139783Y660679D01*
X139773Y661004D01*
X139783Y661330D01*
X139813Y661639D01*
X139864Y661929D01*
X139935Y662201D01*
X140026Y662455D01*
X140137Y662692D01*
X140269Y662910D01*
X140421Y663111D01*
X140590Y663290D01*
X140775Y663446D01*
X140976Y663578D01*
X141192Y663686D01*
X141423Y663769D01*
X141669Y663829D01*
X141931Y663865D01*
X142208Y663877D01*
X142477Y663863D01*
X142734Y663820D01*
X142979Y663749D01*
X143211Y663649D01*
X143431Y663521D01*
X143639Y663365D01*
X143834Y663180D01*
X144016Y662966D01*
X144181Y662731D01*
X144325Y662479D01*
X144446Y662210D01*
X144545Y661926D01*
X144622Y661626D01*
X144677Y661309D01*
X144710Y660977D01*
X144721Y660628D01*
X144711Y660353D01*
X144679Y660093D01*
X144626Y659849D01*
X144552Y659619D01*
X144456Y659405D01*
X144339Y659206D01*
X144202Y659023D01*
X144042Y658854D01*
X143866Y658703D01*
X143676Y658573D01*
X143474Y658462D01*
X143257Y658371D01*
X143028Y658301D01*
X142785Y658251D01*
X142529Y658220D01*
X142260Y658210D01*
X141975Y658222D01*
G37*
G36*
X162038Y659078D02*
X161755Y659105D01*
X161489Y659151D01*
X161241Y659214D01*
X161010Y659296D01*
X160796Y659396D01*
X160599Y659515D01*
X160420Y659651D01*
X160259Y659806D01*
X160121Y659978D01*
X160003Y660167D01*
X159907Y660375D01*
X159832Y660600D01*
X159779Y660843D01*
X159747Y661103D01*
X159736Y661381D01*
X159746Y661707D01*
X159776Y662010D01*
X159825Y662290D01*
X159894Y662547D01*
X159983Y662781D01*
X160091Y662993D01*
X160219Y663182D01*
X160367Y663347D01*
X160535Y663492D01*
X160723Y663617D01*
X160932Y663724D01*
X161162Y663810D01*
X161412Y663878D01*
X161682Y663926D01*
X161974Y663955D01*
X162285Y663965D01*
X162600Y663955D01*
X162895Y663925D01*
X163169Y663875D01*
X163423Y663806D01*
X163657Y663716D01*
X163870Y663606D01*
X164063Y663477D01*
X164236Y663328D01*
X164389Y663158D01*
X164521Y662969D01*
X164632Y662760D01*
X164724Y662531D01*
X164795Y662282D01*
X164846Y662013D01*
X164876Y661725D01*
X164886Y661416D01*
X164876Y661150D01*
X164844Y660898D01*
X164792Y660661D01*
X164718Y660438D01*
X164623Y660231D01*
X164507Y660037D01*
X164370Y659859D01*
X164212Y659695D01*
X164035Y659548D01*
X163842Y659421D01*
X163632Y659313D01*
X163406Y659225D01*
X163164Y659157D01*
X162905Y659108D01*
X162629Y659079D01*
X162338Y659069D01*
X162038Y659078D01*
G37*
G36*
X162060Y653629D02*
X161800Y653654D01*
X161558Y653695D01*
X161334Y653752D01*
X161128Y653825D01*
X160939Y653915D01*
X160769Y654022D01*
X160617Y654144D01*
X160482Y654283D01*
X160366Y654439D01*
X160267Y654610D01*
X160186Y654798D01*
X160124Y655003D01*
X160079Y655224D01*
X160052Y655461D01*
X160043Y655714D01*
X160052Y655991D01*
X160079Y656248D01*
X160125Y656485D01*
X160189Y656703D01*
X160270Y656900D01*
X160371Y657078D01*
X160489Y657236D01*
X160625Y657374D01*
X160779Y657494D01*
X160950Y657598D01*
X161137Y657686D01*
X161340Y657758D01*
X161560Y657814D01*
X161797Y657854D01*
X162050Y657878D01*
X162320Y657886D01*
X162586Y657878D01*
X162837Y657852D01*
X163072Y657808D01*
X163291Y657747D01*
X163495Y657669D01*
X163684Y657574D01*
X163857Y657461D01*
X164015Y657330D01*
X164156Y657183D01*
X164277Y657021D01*
X164381Y656842D01*
X164465Y656648D01*
X164531Y656438D01*
X164577Y656213D01*
X164606Y655971D01*
X164615Y655714D01*
X164606Y655462D01*
X164579Y655225D01*
X164533Y655005D01*
X164469Y654801D01*
X164387Y654613D01*
X164287Y654442D01*
X164169Y654286D01*
X164032Y654146D01*
X163879Y654023D01*
X163708Y653917D01*
X163521Y653826D01*
X163318Y653752D01*
X163097Y653695D01*
X162861Y653654D01*
X162607Y653629D01*
X162338Y653621D01*
X162060Y653629D01*
G37*
%LPD*%
G36*
X324765Y552639D02*
X325160Y552680D01*
X325537Y552748D01*
X325894Y552844D01*
X326232Y552967D01*
X326551Y553118D01*
X326850Y553296D01*
X327130Y553501D01*
X327386Y553730D01*
X327614Y553977D01*
X327814Y554243D01*
X327985Y554528D01*
X328128Y554832D01*
X328243Y555155D01*
X328329Y555497D01*
X328387Y555857D01*
X326776Y556006D01*
X326739Y555766D01*
X326685Y555539D01*
X326614Y555326D01*
X326527Y555127D01*
X326423Y554942D01*
X326302Y554770D01*
X326164Y554613D01*
X326009Y554469D01*
X325840Y554341D01*
X325661Y554229D01*
X325470Y554135D01*
X325268Y554058D01*
X325055Y553999D01*
X324831Y553956D01*
X324596Y553930D01*
X324349Y553922D01*
X324092Y553930D01*
X323849Y553957D01*
X323620Y554000D01*
X323406Y554062D01*
X323206Y554141D01*
X323021Y554237D01*
X322850Y554351D01*
X322694Y554482D01*
X322554Y554629D01*
X322433Y554791D01*
X322331Y554967D01*
X322247Y555157D01*
X322182Y555361D01*
X322136Y555579D01*
X322108Y555812D01*
X322098Y556059D01*
X322120Y556425D01*
X322185Y556772D01*
X322293Y557100D01*
X322444Y557407D01*
X322631Y557702D01*
X322844Y557990D01*
X323084Y558271D01*
X323351Y558546D01*
X323945Y559089D01*
X324608Y559632D01*
X325307Y560198D01*
X326014Y560810D01*
X326364Y561137D01*
X326707Y561482D01*
X327041Y561846D01*
X327367Y562229D01*
X327676Y562636D01*
X327961Y563073D01*
X328221Y563540D01*
X328457Y564038D01*
X328457Y565150D01*
X320285Y565150D01*
X320285Y563810D01*
X326723Y563810D01*
X326571Y563500D01*
X326377Y563185D01*
X326142Y562863D01*
X325865Y562536D01*
X325541Y562195D01*
X325166Y561834D01*
X324740Y561453D01*
X324262Y561051D01*
X323420Y560355D01*
X322727Y559757D01*
X322181Y559256D01*
X321783Y558853D01*
X321479Y558498D01*
X321215Y558143D01*
X320991Y557788D01*
X320807Y557434D01*
X320663Y557078D01*
X320560Y556722D01*
X320499Y556365D01*
X320478Y556006D01*
X320494Y555613D01*
X320541Y555242D01*
X320619Y554895D01*
X320729Y554571D01*
X320870Y554270D01*
X321042Y553992D01*
X321246Y553737D01*
X321481Y553506D01*
X321745Y553299D01*
X322036Y553120D01*
X322354Y552969D01*
X322700Y552845D01*
X323072Y552749D01*
X323471Y552680D01*
X323896Y552639D01*
X324349Y552625D01*
X324765Y552639D01*
G37*
G36*
X334728Y554176D02*
X332355Y554176D01*
X332355Y561506D01*
X332363Y561800D01*
X332388Y562074D01*
X332429Y562331D01*
X332486Y562570D01*
X332560Y562790D01*
X332650Y562992D01*
X332757Y563176D01*
X332880Y563341D01*
X333018Y563488D01*
X333167Y563615D01*
X333329Y563723D01*
X333502Y563811D01*
X333688Y563880D01*
X333885Y563928D01*
X334095Y563958D01*
X334317Y563968D01*
X334520Y563959D01*
X334715Y563932D01*
X334901Y563888D01*
X335079Y563825D01*
X335247Y563745D01*
X335407Y563647D01*
X335558Y563532D01*
X335700Y563398D01*
X335832Y563249D01*
X335952Y563086D01*
X336059Y562909D01*
X336154Y562717D01*
X336236Y562512D01*
X336306Y562293D01*
X336364Y562060D01*
X336410Y561813D01*
X338048Y562085D01*
X337964Y562477D01*
X337861Y562844D01*
X337738Y563186D01*
X337595Y563502D01*
X337432Y563793D01*
X337249Y564059D01*
X337046Y564300D01*
X336824Y564515D01*
X336581Y564705D01*
X336319Y564869D01*
X336036Y565009D01*
X335734Y565123D01*
X335412Y565211D01*
X335069Y565275D01*
X334707Y565313D01*
X334325Y565325D01*
X333914Y565309D01*
X333525Y565261D01*
X333159Y565180D01*
X332815Y565068D01*
X332493Y564923D01*
X332194Y564746D01*
X331917Y564537D01*
X331663Y564296D01*
X331435Y564027D01*
X331237Y563734D01*
X331070Y563416D01*
X330934Y563075D01*
X330827Y562710D01*
X330751Y562321D01*
X330706Y561908D01*
X330691Y561471D01*
X330691Y552809D01*
X334728Y552809D01*
X334728Y554176D01*
G37*
G36*
X63490Y231596D02*
X63478Y232036D01*
X63442Y232463D01*
X63383Y232877D01*
X63300Y233278D01*
X63192Y233665D01*
X63061Y234040D01*
X62907Y234401D01*
X62728Y234749D01*
X62527Y235081D01*
X62305Y235393D01*
X62062Y235686D01*
X61799Y235960D01*
X61514Y236214D01*
X61208Y236449D01*
X60882Y236664D01*
X60534Y236860D01*
X60169Y237034D01*
X59788Y237186D01*
X59393Y237314D01*
X58983Y237418D01*
X58558Y237500D01*
X58117Y237558D01*
X57663Y237593D01*
X57193Y237604D01*
X56835Y237598D01*
X56489Y237578D01*
X56152Y237545D01*
X55826Y237498D01*
X55510Y237438D01*
X55205Y237365D01*
X54910Y237278D01*
X54625Y237179D01*
X54351Y237065D01*
X54087Y236939D01*
X53834Y236799D01*
X53590Y236646D01*
X53358Y236480D01*
X53135Y236300D01*
X52923Y236107D01*
X52721Y235901D01*
X52531Y235682D01*
X52353Y235453D01*
X52187Y235212D01*
X52034Y234960D01*
X51892Y234696D01*
X51763Y234422D01*
X51647Y234136D01*
X51542Y233839D01*
X51450Y233531D01*
X51370Y233212D01*
X51303Y232882D01*
X51248Y232540D01*
X51205Y232187D01*
X51174Y231823D01*
X51155Y231448D01*
X51149Y231062D01*
X51149Y226980D01*
X63490Y226980D01*
X63490Y231596D01*
G37*
%LPC*%
G36*
X52489Y228653D02*
X52489Y231027D01*
X52508Y231605D01*
X52565Y232148D01*
X52659Y232655D01*
X52790Y233128D01*
X52960Y233565D01*
X53167Y233967D01*
X53411Y234334D01*
X53694Y234666D01*
X54012Y234961D01*
X54364Y235216D01*
X54750Y235432D01*
X55171Y235609D01*
X55625Y235746D01*
X56113Y235844D01*
X56636Y235903D01*
X57193Y235923D01*
X57567Y235914D01*
X57929Y235888D01*
X58279Y235845D01*
X58616Y235785D01*
X58940Y235707D01*
X59252Y235612D01*
X59551Y235500D01*
X59838Y235371D01*
X60110Y235226D01*
X60365Y235065D01*
X60605Y234890D01*
X60827Y234700D01*
X61034Y234495D01*
X61224Y234275D01*
X61397Y234040D01*
X61554Y233790D01*
X61694Y233528D01*
X61815Y233255D01*
X61917Y232972D01*
X62001Y232679D01*
X62066Y232375D01*
X62113Y232062D01*
X62141Y231738D01*
X62150Y231403D01*
X62150Y228653D01*
X52489Y228653D01*
G37*
%LPD*%
G36*
X63490Y224734D02*
X62124Y224734D01*
X62124Y216684D01*
X57823Y216684D01*
X57823Y223849D01*
X56474Y223849D01*
X56474Y216684D01*
X52516Y216684D01*
X52516Y224374D01*
X51149Y224374D01*
X51149Y215012D01*
X63490Y215012D01*
X63490Y224734D01*
G37*
G36*
X63490Y247547D02*
X62150Y247547D01*
X62150Y244542D01*
X51149Y244542D01*
X51149Y243088D01*
X53155Y240172D01*
X54644Y240172D01*
X52656Y242957D01*
X62150Y242957D01*
X62150Y239813D01*
X63490Y239813D01*
X63490Y247547D01*
G37*
G36*
X63490Y212952D02*
X62124Y212952D01*
X62124Y206716D01*
X51149Y206716D01*
X51149Y205043D01*
X63490Y205043D01*
X63490Y212952D01*
G37*
G36*
X63490Y345896D02*
X63478Y346336D01*
X63442Y346763D01*
X63383Y347177D01*
X63300Y347578D01*
X63192Y347965D01*
X63061Y348340D01*
X62907Y348701D01*
X62728Y349049D01*
X62527Y349381D01*
X62305Y349693D01*
X62062Y349986D01*
X61799Y350260D01*
X61514Y350514D01*
X61208Y350749D01*
X60882Y350964D01*
X60534Y351160D01*
X60169Y351334D01*
X59788Y351486D01*
X59393Y351614D01*
X58983Y351718D01*
X58558Y351800D01*
X58117Y351858D01*
X57663Y351893D01*
X57193Y351904D01*
X56835Y351898D01*
X56489Y351878D01*
X56152Y351845D01*
X55826Y351798D01*
X55510Y351738D01*
X55205Y351665D01*
X54910Y351578D01*
X54625Y351479D01*
X54351Y351365D01*
X54087Y351239D01*
X53834Y351099D01*
X53590Y350946D01*
X53358Y350780D01*
X53135Y350600D01*
X52923Y350407D01*
X52721Y350201D01*
X52531Y349982D01*
X52353Y349753D01*
X52187Y349512D01*
X52034Y349260D01*
X51892Y348996D01*
X51763Y348722D01*
X51647Y348436D01*
X51542Y348139D01*
X51450Y347831D01*
X51370Y347512D01*
X51303Y347182D01*
X51248Y346840D01*
X51205Y346487D01*
X51174Y346123D01*
X51155Y345748D01*
X51149Y345362D01*
X51149Y341280D01*
X63490Y341280D01*
X63490Y345896D01*
G37*
%LPC*%
G36*
X52489Y342953D02*
X52489Y345327D01*
X52508Y345905D01*
X52565Y346448D01*
X52659Y346955D01*
X52790Y347428D01*
X52960Y347865D01*
X53167Y348267D01*
X53411Y348634D01*
X53694Y348966D01*
X54012Y349261D01*
X54364Y349516D01*
X54750Y349732D01*
X55171Y349909D01*
X55625Y350046D01*
X56113Y350144D01*
X56636Y350203D01*
X57193Y350223D01*
X57567Y350214D01*
X57929Y350188D01*
X58279Y350145D01*
X58616Y350085D01*
X58940Y350007D01*
X59252Y349912D01*
X59551Y349800D01*
X59838Y349671D01*
X60110Y349526D01*
X60365Y349365D01*
X60605Y349190D01*
X60827Y349000D01*
X61034Y348795D01*
X61224Y348575D01*
X61397Y348340D01*
X61554Y348090D01*
X61694Y347828D01*
X61815Y347555D01*
X61917Y347272D01*
X62001Y346979D01*
X62066Y346675D01*
X62113Y346362D01*
X62141Y346038D01*
X62150Y345703D01*
X62150Y342953D01*
X52489Y342953D01*
G37*
%LPD*%
G36*
X63490Y339034D02*
X62124Y339034D01*
X62124Y330984D01*
X57823Y330984D01*
X57823Y338149D01*
X56474Y338149D01*
X56474Y330984D01*
X52516Y330984D01*
X52516Y338674D01*
X51149Y338674D01*
X51149Y329312D01*
X63490Y329312D01*
X63490Y339034D01*
G37*
G36*
X63490Y361820D02*
X62150Y361820D01*
X62150Y355383D01*
X61840Y355535D01*
X61525Y355729D01*
X61203Y355964D01*
X60876Y356241D01*
X60535Y356565D01*
X60174Y356940D01*
X59793Y357366D01*
X59391Y357844D01*
X58695Y358685D01*
X58097Y359379D01*
X57596Y359925D01*
X57193Y360323D01*
X56838Y360627D01*
X56483Y360891D01*
X56128Y361115D01*
X55774Y361299D01*
X55418Y361443D01*
X55062Y361545D01*
X54705Y361607D01*
X54346Y361628D01*
X53953Y361612D01*
X53582Y361565D01*
X53235Y361487D01*
X52911Y361377D01*
X52610Y361236D01*
X52332Y361063D01*
X52077Y360860D01*
X51846Y360625D01*
X51639Y360360D01*
X51460Y360069D01*
X51309Y359751D01*
X51185Y359406D01*
X51089Y359034D01*
X51020Y358635D01*
X50979Y358209D01*
X50965Y357756D01*
X50979Y357341D01*
X51020Y356945D01*
X51088Y356569D01*
X51184Y356211D01*
X51307Y355874D01*
X51458Y355555D01*
X51636Y355255D01*
X51841Y354975D01*
X52070Y354719D01*
X52317Y354491D01*
X52583Y354292D01*
X52868Y354120D01*
X53172Y353977D01*
X53495Y353863D01*
X53837Y353777D01*
X54197Y353719D01*
X54346Y355330D01*
X54106Y355367D01*
X53879Y355421D01*
X53666Y355491D01*
X53467Y355579D01*
X53282Y355683D01*
X53110Y355804D01*
X52953Y355942D01*
X52809Y356097D01*
X52681Y356265D01*
X52569Y356445D01*
X52475Y356636D01*
X52398Y356838D01*
X52339Y357051D01*
X52296Y357275D01*
X52270Y357510D01*
X52262Y357756D01*
X52270Y358014D01*
X52297Y358257D01*
X52340Y358486D01*
X52402Y358700D01*
X52481Y358900D01*
X52577Y359085D01*
X52691Y359255D01*
X52822Y359412D01*
X52969Y359551D01*
X53131Y359672D01*
X53307Y359775D01*
X53497Y359858D01*
X53701Y359923D01*
X53919Y359970D01*
X54152Y359998D01*
X54399Y360007D01*
X54765Y359986D01*
X55112Y359921D01*
X55440Y359813D01*
X55747Y359661D01*
X56042Y359475D01*
X56330Y359262D01*
X56611Y359022D01*
X56886Y358755D01*
X57429Y358160D01*
X57972Y357498D01*
X58538Y356798D01*
X59150Y356092D01*
X59477Y355742D01*
X59822Y355399D01*
X60186Y355065D01*
X60569Y354739D01*
X60976Y354429D01*
X61413Y354144D01*
X61880Y353884D01*
X62378Y353649D01*
X63490Y353649D01*
X63490Y361820D01*
G37*
G36*
X63490Y327252D02*
X62124Y327252D01*
X62124Y321016D01*
X51149Y321016D01*
X51149Y319343D01*
X63490Y319343D01*
X63490Y327252D01*
G37*
G36*
X63490Y460196D02*
X63478Y460636D01*
X63442Y461063D01*
X63383Y461477D01*
X63300Y461878D01*
X63192Y462265D01*
X63061Y462640D01*
X62907Y463001D01*
X62728Y463349D01*
X62527Y463681D01*
X62305Y463993D01*
X62062Y464286D01*
X61799Y464560D01*
X61514Y464814D01*
X61208Y465049D01*
X60882Y465264D01*
X60534Y465460D01*
X60169Y465634D01*
X59788Y465786D01*
X59393Y465914D01*
X58983Y466018D01*
X58558Y466100D01*
X58117Y466158D01*
X57663Y466193D01*
X57193Y466204D01*
X56835Y466198D01*
X56489Y466178D01*
X56152Y466145D01*
X55826Y466098D01*
X55510Y466038D01*
X55205Y465965D01*
X54910Y465878D01*
X54625Y465779D01*
X54351Y465665D01*
X54087Y465539D01*
X53834Y465399D01*
X53590Y465246D01*
X53358Y465080D01*
X53135Y464900D01*
X52923Y464707D01*
X52721Y464501D01*
X52531Y464282D01*
X52353Y464053D01*
X52187Y463812D01*
X52034Y463560D01*
X51892Y463296D01*
X51763Y463022D01*
X51647Y462736D01*
X51542Y462439D01*
X51450Y462131D01*
X51370Y461812D01*
X51303Y461482D01*
X51248Y461140D01*
X51205Y460787D01*
X51174Y460423D01*
X51155Y460048D01*
X51149Y459662D01*
X51149Y455580D01*
X63490Y455580D01*
X63490Y460196D01*
G37*
%LPC*%
G36*
X52489Y457253D02*
X52489Y459627D01*
X52508Y460205D01*
X52565Y460748D01*
X52659Y461255D01*
X52790Y461728D01*
X52960Y462165D01*
X53167Y462567D01*
X53411Y462934D01*
X53694Y463266D01*
X54012Y463561D01*
X54364Y463816D01*
X54750Y464032D01*
X55171Y464209D01*
X55625Y464346D01*
X56113Y464444D01*
X56636Y464503D01*
X57193Y464523D01*
X57567Y464514D01*
X57929Y464488D01*
X58279Y464445D01*
X58616Y464385D01*
X58940Y464307D01*
X59252Y464212D01*
X59551Y464100D01*
X59838Y463971D01*
X60110Y463826D01*
X60365Y463665D01*
X60605Y463490D01*
X60827Y463300D01*
X61034Y463095D01*
X61224Y462875D01*
X61397Y462640D01*
X61554Y462390D01*
X61694Y462128D01*
X61815Y461855D01*
X61917Y461572D01*
X62001Y461279D01*
X62066Y460975D01*
X62113Y460662D01*
X62141Y460338D01*
X62150Y460003D01*
X62150Y457253D01*
X52489Y457253D01*
G37*
%LPD*%
G36*
X63490Y453334D02*
X62124Y453334D01*
X62124Y445284D01*
X57823Y445284D01*
X57823Y452449D01*
X56474Y452449D01*
X56474Y445284D01*
X52516Y445284D01*
X52516Y452974D01*
X51149Y452974D01*
X51149Y443612D01*
X63490Y443612D01*
X63490Y453334D01*
G37*
G36*
X60721Y467796D02*
X61096Y467891D01*
X61447Y468015D01*
X61772Y468166D01*
X62072Y468346D01*
X62347Y468555D01*
X62596Y468791D01*
X62820Y469056D01*
X63018Y469347D01*
X63190Y469662D01*
X63335Y470001D01*
X63454Y470363D01*
X63546Y470748D01*
X63612Y471158D01*
X63652Y471591D01*
X63665Y472048D01*
X63651Y472537D01*
X63607Y472997D01*
X63533Y473428D01*
X63431Y473830D01*
X63299Y474203D01*
X63138Y474547D01*
X62948Y474862D01*
X62728Y475148D01*
X62482Y475403D01*
X62211Y475623D01*
X61917Y475810D01*
X61598Y475963D01*
X61256Y476081D01*
X60889Y476166D01*
X60498Y476217D01*
X60083Y476234D01*
X59794Y476222D01*
X59517Y476186D01*
X59253Y476126D01*
X59001Y476041D01*
X58762Y475933D01*
X58536Y475801D01*
X58322Y475644D01*
X58121Y475463D01*
X57936Y475261D01*
X57771Y475040D01*
X57625Y474799D01*
X57499Y474539D01*
X57393Y474260D01*
X57306Y473962D01*
X57240Y473645D01*
X57193Y473309D01*
X57158Y473309D01*
X57084Y473615D01*
X56996Y473902D01*
X56893Y474170D01*
X56776Y474420D01*
X56643Y474651D01*
X56495Y474863D01*
X56332Y475057D01*
X56155Y475231D01*
X55963Y475386D01*
X55757Y475521D01*
X55537Y475634D01*
X55304Y475727D01*
X55057Y475800D01*
X54796Y475851D01*
X54521Y475882D01*
X54232Y475893D01*
X53857Y475876D01*
X53504Y475828D01*
X53172Y475748D01*
X52860Y475635D01*
X52571Y475491D01*
X52302Y475314D01*
X52054Y475105D01*
X51828Y474863D01*
X51626Y474593D01*
X51451Y474297D01*
X51302Y473975D01*
X51181Y473627D01*
X51087Y473254D01*
X51019Y472854D01*
X50979Y472429D01*
X50965Y471977D01*
X50979Y471562D01*
X51018Y471166D01*
X51085Y470790D01*
X51178Y470433D01*
X51297Y470095D01*
X51443Y469776D01*
X51616Y469477D01*
X51815Y469197D01*
X52038Y468940D01*
X52281Y468712D01*
X52546Y468513D01*
X52831Y468342D01*
X53137Y468199D01*
X53464Y468084D01*
X53811Y467998D01*
X54180Y467940D01*
X54302Y469525D01*
X54066Y469560D01*
X53844Y469611D01*
X53635Y469680D01*
X53440Y469765D01*
X53258Y469867D01*
X53090Y469986D01*
X52936Y470121D01*
X52796Y470274D01*
X52671Y470441D01*
X52562Y470621D01*
X52470Y470813D01*
X52395Y471017D01*
X52337Y471234D01*
X52295Y471464D01*
X52270Y471706D01*
X52262Y471960D01*
X52271Y472238D01*
X52297Y472498D01*
X52342Y472741D01*
X52405Y472966D01*
X52486Y473173D01*
X52584Y473363D01*
X52701Y473535D01*
X52835Y473690D01*
X52985Y473826D01*
X53148Y473945D01*
X53324Y474045D01*
X53513Y474127D01*
X53715Y474190D01*
X53930Y474236D01*
X54158Y474263D01*
X54399Y474272D01*
X54642Y474261D01*
X54871Y474228D01*
X55087Y474172D01*
X55289Y474094D01*
X55477Y473993D01*
X55653Y473871D01*
X55814Y473726D01*
X55962Y473558D01*
X56094Y473371D01*
X56209Y473165D01*
X56306Y472941D01*
X56386Y472699D01*
X56448Y472439D01*
X56492Y472160D01*
X56518Y471863D01*
X56527Y471548D01*
X56527Y470690D01*
X57893Y470690D01*
X57893Y471583D01*
X57902Y471938D01*
X57929Y472272D01*
X57973Y472584D01*
X58035Y472874D01*
X58114Y473143D01*
X58211Y473391D01*
X58326Y473617D01*
X58458Y473821D01*
X58606Y474003D01*
X58768Y474160D01*
X58944Y474293D01*
X59134Y474402D01*
X59337Y474487D01*
X59554Y474548D01*
X59786Y474584D01*
X60030Y474596D01*
X60311Y474586D01*
X60573Y474554D01*
X60817Y474501D01*
X61044Y474427D01*
X61253Y474331D01*
X61444Y474214D01*
X61618Y474077D01*
X61773Y473917D01*
X61911Y473740D01*
X62030Y473546D01*
X62131Y473336D01*
X62213Y473111D01*
X62278Y472869D01*
X62324Y472611D01*
X62351Y472337D01*
X62360Y472048D01*
X62352Y471759D01*
X62326Y471486D01*
X62283Y471230D01*
X62223Y470989D01*
X62146Y470765D01*
X62052Y470557D01*
X61941Y470365D01*
X61813Y470189D01*
X61667Y470028D01*
X61505Y469885D01*
X61325Y469757D01*
X61129Y469645D01*
X60915Y469549D01*
X60684Y469470D01*
X60436Y469406D01*
X60171Y469359D01*
X60319Y467730D01*
X60721Y467796D01*
G37*
G36*
X63490Y441552D02*
X62124Y441552D01*
X62124Y435316D01*
X51149Y435316D01*
X51149Y433643D01*
X63490Y433643D01*
X63490Y441552D01*
G37*
G36*
X151130Y231596D02*
X151118Y232036D01*
X151082Y232463D01*
X151023Y232877D01*
X150940Y233278D01*
X150832Y233665D01*
X150701Y234040D01*
X150547Y234401D01*
X150368Y234749D01*
X150167Y235081D01*
X149945Y235393D01*
X149702Y235686D01*
X149439Y235960D01*
X149154Y236214D01*
X148848Y236449D01*
X148522Y236664D01*
X148174Y236860D01*
X147809Y237034D01*
X147428Y237186D01*
X147033Y237314D01*
X146623Y237418D01*
X146198Y237500D01*
X145757Y237558D01*
X145303Y237593D01*
X144833Y237604D01*
X144475Y237598D01*
X144129Y237578D01*
X143792Y237545D01*
X143466Y237498D01*
X143150Y237438D01*
X142845Y237365D01*
X142550Y237278D01*
X142265Y237179D01*
X141991Y237065D01*
X141727Y236939D01*
X141474Y236799D01*
X141230Y236646D01*
X140998Y236480D01*
X140775Y236300D01*
X140563Y236107D01*
X140361Y235901D01*
X140171Y235682D01*
X139993Y235453D01*
X139827Y235212D01*
X139674Y234960D01*
X139532Y234696D01*
X139403Y234422D01*
X139287Y234136D01*
X139182Y233839D01*
X139090Y233531D01*
X139010Y233212D01*
X138943Y232882D01*
X138888Y232540D01*
X138845Y232187D01*
X138814Y231823D01*
X138795Y231448D01*
X138789Y231062D01*
X138789Y226980D01*
X151130Y226980D01*
X151130Y231596D01*
G37*
%LPC*%
G36*
X140129Y228653D02*
X140129Y231027D01*
X140148Y231605D01*
X140205Y232148D01*
X140299Y232655D01*
X140430Y233128D01*
X140600Y233565D01*
X140807Y233967D01*
X141051Y234334D01*
X141334Y234666D01*
X141652Y234961D01*
X142004Y235216D01*
X142390Y235432D01*
X142811Y235609D01*
X143265Y235746D01*
X143753Y235844D01*
X144276Y235903D01*
X144833Y235923D01*
X145207Y235914D01*
X145569Y235888D01*
X145919Y235845D01*
X146256Y235785D01*
X146580Y235707D01*
X146892Y235612D01*
X147191Y235500D01*
X147478Y235371D01*
X147750Y235226D01*
X148005Y235065D01*
X148245Y234890D01*
X148467Y234700D01*
X148674Y234495D01*
X148864Y234275D01*
X149037Y234040D01*
X149194Y233790D01*
X149334Y233528D01*
X149455Y233255D01*
X149557Y232972D01*
X149641Y232679D01*
X149706Y232375D01*
X149753Y232062D01*
X149781Y231738D01*
X149790Y231403D01*
X149790Y228653D01*
X140129Y228653D01*
G37*
%LPD*%
G36*
X148336Y244674D02*
X151130Y244674D01*
X151130Y246163D01*
X148336Y246163D01*
X148336Y247897D01*
X147092Y247897D01*
X147092Y246163D01*
X138789Y246163D01*
X138789Y244507D01*
X147110Y238858D01*
X148336Y238858D01*
X148336Y244674D01*
G37*
G36*
X151130Y224734D02*
X149764Y224734D01*
X149764Y216684D01*
X145463Y216684D01*
X145463Y223849D01*
X144114Y223849D01*
X144114Y216684D01*
X140156Y216684D01*
X140156Y224374D01*
X138789Y224374D01*
X138789Y215012D01*
X151130Y215012D01*
X151130Y224734D01*
G37*
G36*
X151130Y212952D02*
X149764Y212952D01*
X149764Y206716D01*
X138789Y206716D01*
X138789Y205043D01*
X151130Y205043D01*
X151130Y212952D01*
G37*
%LPC*%
G36*
X146917Y240452D02*
X146269Y240925D01*
X141609Y244087D01*
X141031Y244428D01*
X140567Y244674D01*
X147092Y244674D01*
X147092Y240312D01*
X146917Y240452D01*
G37*
%LPD*%
G36*
X151130Y345896D02*
X151118Y346336D01*
X151082Y346763D01*
X151023Y347177D01*
X150940Y347578D01*
X150832Y347965D01*
X150701Y348340D01*
X150547Y348701D01*
X150368Y349049D01*
X150167Y349381D01*
X149945Y349693D01*
X149702Y349986D01*
X149439Y350260D01*
X149154Y350514D01*
X148848Y350749D01*
X148522Y350964D01*
X148174Y351160D01*
X147809Y351334D01*
X147428Y351486D01*
X147033Y351614D01*
X146623Y351718D01*
X146198Y351800D01*
X145757Y351858D01*
X145303Y351893D01*
X144833Y351904D01*
X144475Y351898D01*
X144129Y351878D01*
X143792Y351845D01*
X143466Y351798D01*
X143150Y351738D01*
X142845Y351665D01*
X142550Y351578D01*
X142265Y351479D01*
X141991Y351365D01*
X141727Y351239D01*
X141474Y351099D01*
X141230Y350946D01*
X140998Y350780D01*
X140775Y350600D01*
X140563Y350407D01*
X140361Y350201D01*
X140171Y349982D01*
X139993Y349753D01*
X139827Y349512D01*
X139674Y349260D01*
X139532Y348996D01*
X139403Y348722D01*
X139287Y348436D01*
X139182Y348139D01*
X139090Y347831D01*
X139010Y347512D01*
X138943Y347182D01*
X138888Y346840D01*
X138845Y346487D01*
X138814Y346123D01*
X138795Y345748D01*
X138789Y345362D01*
X138789Y341280D01*
X151130Y341280D01*
X151130Y345896D01*
G37*
%LPC*%
G36*
X140129Y342953D02*
X140129Y345327D01*
X140148Y345905D01*
X140205Y346448D01*
X140299Y346955D01*
X140430Y347428D01*
X140600Y347865D01*
X140807Y348267D01*
X141051Y348634D01*
X141334Y348966D01*
X141652Y349261D01*
X142004Y349516D01*
X142390Y349732D01*
X142811Y349909D01*
X143265Y350046D01*
X143753Y350144D01*
X144276Y350203D01*
X144833Y350223D01*
X145207Y350214D01*
X145569Y350188D01*
X145919Y350145D01*
X146256Y350085D01*
X146580Y350007D01*
X146892Y349912D01*
X147191Y349800D01*
X147478Y349671D01*
X147750Y349526D01*
X148005Y349365D01*
X148245Y349190D01*
X148467Y349000D01*
X148674Y348795D01*
X148864Y348575D01*
X149037Y348340D01*
X149194Y348090D01*
X149334Y347828D01*
X149455Y347555D01*
X149557Y347272D01*
X149641Y346979D01*
X149706Y346675D01*
X149753Y346362D01*
X149781Y346038D01*
X149790Y345703D01*
X149790Y342953D01*
X140129Y342953D01*
G37*
%LPD*%
G36*
X151130Y339034D02*
X149764Y339034D01*
X149764Y330984D01*
X145463Y330984D01*
X145463Y338149D01*
X144114Y338149D01*
X144114Y330984D01*
X140156Y330984D01*
X140156Y338674D01*
X138789Y338674D01*
X138789Y329312D01*
X151130Y329312D01*
X151130Y339034D01*
G37*
G36*
X148717Y353547D02*
X149043Y353653D01*
X149347Y353784D01*
X149630Y353940D01*
X149892Y354119D01*
X150133Y354323D01*
X150353Y354552D01*
X150552Y354805D01*
X150729Y355080D01*
X150882Y355376D01*
X151011Y355693D01*
X151117Y356031D01*
X151199Y356389D01*
X151258Y356769D01*
X151293Y357169D01*
X151305Y357590D01*
X151288Y358090D01*
X151235Y358563D01*
X151148Y359007D01*
X151025Y359424D01*
X150867Y359812D01*
X150675Y360172D01*
X150447Y360504D01*
X150184Y360809D01*
X149891Y361081D01*
X149572Y361316D01*
X149226Y361516D01*
X148855Y361679D01*
X148458Y361806D01*
X148034Y361897D01*
X147585Y361951D01*
X147110Y361969D01*
X146691Y361952D01*
X146292Y361902D01*
X145913Y361817D01*
X145555Y361699D01*
X145217Y361547D01*
X144899Y361361D01*
X144602Y361141D01*
X144325Y360887D01*
X144074Y360605D01*
X143857Y360300D01*
X143673Y359972D01*
X143523Y359621D01*
X143406Y359246D01*
X143323Y358849D01*
X143273Y358428D01*
X143256Y357984D01*
X143268Y357611D01*
X143305Y357253D01*
X143367Y356911D01*
X143453Y356585D01*
X143564Y356274D01*
X143700Y355979D01*
X143860Y355699D01*
X144044Y355435D01*
X140129Y355672D01*
X140129Y361251D01*
X138789Y361251D01*
X138789Y354235D01*
X145428Y353824D01*
X145428Y355365D01*
X145205Y355641D01*
X145017Y355917D01*
X144863Y356193D01*
X144745Y356469D01*
X144657Y356750D01*
X144594Y357042D01*
X144556Y357346D01*
X144544Y357660D01*
X144555Y357959D01*
X144588Y358242D01*
X144645Y358509D01*
X144723Y358760D01*
X144824Y358996D01*
X144948Y359216D01*
X145093Y359420D01*
X145262Y359609D01*
X145448Y359778D01*
X145649Y359925D01*
X145863Y360049D01*
X146092Y360151D01*
X146334Y360230D01*
X146590Y360286D01*
X146861Y360320D01*
X147145Y360331D01*
X147471Y360320D01*
X147779Y360286D01*
X148069Y360230D01*
X148342Y360152D01*
X148596Y360051D01*
X148832Y359927D01*
X149051Y359781D01*
X149251Y359613D01*
X149431Y359425D01*
X149587Y359219D01*
X149718Y358997D01*
X149826Y358757D01*
X149910Y358500D01*
X149970Y358225D01*
X150006Y357934D01*
X150018Y357625D01*
X150011Y357373D01*
X149989Y357133D01*
X149953Y356905D01*
X149903Y356689D01*
X149839Y356486D01*
X149760Y356295D01*
X149667Y356116D01*
X149560Y355950D01*
X149439Y355796D01*
X149303Y355654D01*
X149152Y355524D01*
X148988Y355406D01*
X148809Y355301D01*
X148616Y355208D01*
X148409Y355127D01*
X148187Y355059D01*
X148371Y353465D01*
X148717Y353547D01*
G37*
G36*
X151130Y327252D02*
X149764Y327252D01*
X149764Y321016D01*
X138789Y321016D01*
X138789Y319343D01*
X151130Y319343D01*
X151130Y327252D01*
G37*
G36*
X151130Y460196D02*
X151118Y460636D01*
X151082Y461063D01*
X151023Y461477D01*
X150940Y461878D01*
X150832Y462265D01*
X150701Y462640D01*
X150547Y463001D01*
X150368Y463349D01*
X150167Y463681D01*
X149945Y463993D01*
X149702Y464286D01*
X149439Y464560D01*
X149154Y464814D01*
X148848Y465049D01*
X148522Y465264D01*
X148174Y465460D01*
X147809Y465634D01*
X147428Y465786D01*
X147033Y465914D01*
X146623Y466018D01*
X146198Y466100D01*
X145757Y466158D01*
X145303Y466193D01*
X144833Y466204D01*
X144475Y466198D01*
X144129Y466178D01*
X143792Y466145D01*
X143466Y466098D01*
X143150Y466038D01*
X142845Y465965D01*
X142550Y465878D01*
X142265Y465779D01*
X141991Y465665D01*
X141727Y465539D01*
X141474Y465399D01*
X141230Y465246D01*
X140998Y465080D01*
X140775Y464900D01*
X140563Y464707D01*
X140361Y464501D01*
X140171Y464282D01*
X139993Y464053D01*
X139827Y463812D01*
X139674Y463560D01*
X139532Y463296D01*
X139403Y463022D01*
X139287Y462736D01*
X139182Y462439D01*
X139090Y462131D01*
X139010Y461812D01*
X138943Y461482D01*
X138888Y461140D01*
X138845Y460787D01*
X138814Y460423D01*
X138795Y460048D01*
X138789Y459662D01*
X138789Y455580D01*
X151130Y455580D01*
X151130Y460196D01*
G37*
G36*
X145962Y467975D02*
X146636Y468026D01*
X147266Y468112D01*
X147852Y468233D01*
X148394Y468388D01*
X148892Y468578D01*
X149345Y468802D01*
X149755Y469061D01*
X150118Y469352D01*
X150433Y469674D01*
X150700Y470026D01*
X150918Y470410D01*
X151087Y470823D01*
X151208Y471268D01*
X151281Y471743D01*
X151299Y471992D01*
X151305Y472249D01*
X151288Y472703D01*
X151235Y473131D01*
X151146Y473535D01*
X151023Y473913D01*
X150864Y474266D01*
X150670Y474594D01*
X150440Y474897D01*
X150175Y475174D01*
X149880Y475423D01*
X149559Y475638D01*
X149212Y475820D01*
X148840Y475969D01*
X148441Y476085D01*
X148017Y476168D01*
X147568Y476218D01*
X147092Y476234D01*
X146653Y476218D01*
X146236Y476171D01*
X145843Y476093D01*
X145472Y475983D01*
X145124Y475842D01*
X144800Y475670D01*
X144498Y475466D01*
X144220Y475231D01*
X143969Y474970D01*
X143752Y474686D01*
X143568Y474380D01*
X143418Y474052D01*
X143301Y473702D01*
X143218Y473330D01*
X143168Y472936D01*
X143151Y472520D01*
X143157Y472272D01*
X143177Y472031D01*
X143210Y471797D01*
X143255Y471570D01*
X143385Y471138D01*
X143567Y470734D01*
X143799Y470366D01*
X144078Y470042D01*
X144405Y469762D01*
X144780Y469525D01*
X144202Y469537D01*
X143659Y469571D01*
X143152Y469629D01*
X142679Y469710D01*
X142242Y469814D01*
X141840Y469941D01*
X141473Y470092D01*
X141141Y470265D01*
X140846Y470460D01*
X140591Y470673D01*
X140375Y470906D01*
X140198Y471157D01*
X140061Y471428D01*
X139963Y471718D01*
X139904Y472026D01*
X139884Y472354D01*
X139908Y472729D01*
X139978Y473069D01*
X140096Y473375D01*
X140261Y473646D01*
X140473Y473883D01*
X140731Y474085D01*
X141037Y474253D01*
X141391Y474386D01*
X141119Y475893D01*
X140815Y475794D01*
X140530Y475678D01*
X140265Y475547D01*
X140019Y475400D01*
X139793Y475236D01*
X139587Y475057D01*
X139401Y474861D01*
X139234Y474649D01*
X139086Y474421D01*
X138959Y474176D01*
X138851Y473916D01*
X138762Y473639D01*
X138694Y473347D01*
X138645Y473038D01*
X138615Y472713D01*
X138605Y472372D01*
X138612Y472110D01*
X138632Y471857D01*
X138666Y471611D01*
X138713Y471373D01*
X138773Y471142D01*
X138847Y470919D01*
X139034Y470495D01*
X139276Y470102D01*
X139571Y469739D01*
X139920Y469407D01*
X140322Y469105D01*
X140774Y468836D01*
X141273Y468603D01*
X141819Y468405D01*
X142411Y468244D01*
X143049Y468119D01*
X143735Y468029D01*
X144466Y467975D01*
X145244Y467957D01*
X145962Y467975D01*
G37*
%LPC*%
G36*
X140129Y457253D02*
X140129Y459627D01*
X140148Y460205D01*
X140205Y460748D01*
X140299Y461255D01*
X140430Y461728D01*
X140600Y462165D01*
X140807Y462567D01*
X141051Y462934D01*
X141334Y463266D01*
X141652Y463561D01*
X142004Y463816D01*
X142390Y464032D01*
X142811Y464209D01*
X143265Y464346D01*
X143753Y464444D01*
X144276Y464503D01*
X144833Y464523D01*
X145207Y464514D01*
X145569Y464488D01*
X145919Y464445D01*
X146256Y464385D01*
X146580Y464307D01*
X146892Y464212D01*
X147191Y464100D01*
X147478Y463971D01*
X147750Y463826D01*
X148005Y463665D01*
X148245Y463490D01*
X148467Y463300D01*
X148674Y463095D01*
X148864Y462875D01*
X149037Y462640D01*
X149194Y462390D01*
X149334Y462128D01*
X149455Y461855D01*
X149557Y461572D01*
X149641Y461279D01*
X149706Y460975D01*
X149753Y460662D01*
X149781Y460338D01*
X149790Y460003D01*
X149790Y457253D01*
X140129Y457253D01*
G37*
%LPD*%
G36*
X151130Y453334D02*
X149764Y453334D01*
X149764Y445284D01*
X145463Y445284D01*
X145463Y452449D01*
X144114Y452449D01*
X144114Y445284D01*
X140156Y445284D01*
X140156Y452974D01*
X138789Y452974D01*
X138789Y443612D01*
X151130Y443612D01*
X151130Y453334D01*
G37*
G36*
X151130Y441552D02*
X149764Y441552D01*
X149764Y435316D01*
X138789Y435316D01*
X138789Y433643D01*
X151130Y433643D01*
X151130Y441552D01*
G37*
%LPC*%
G36*
X146511Y469693D02*
X146251Y469725D01*
X146007Y469778D01*
X145777Y469852D01*
X145563Y469948D01*
X145364Y470065D01*
X145181Y470202D01*
X145012Y470361D01*
X144861Y470538D01*
X144731Y470727D01*
X144620Y470930D01*
X144529Y471146D01*
X144459Y471376D01*
X144409Y471619D01*
X144378Y471875D01*
X144368Y472144D01*
X144380Y472429D01*
X144414Y472698D01*
X144471Y472951D01*
X144550Y473188D01*
X144652Y473409D01*
X144777Y473614D01*
X144925Y473802D01*
X145095Y473974D01*
X145287Y474128D01*
X145497Y474262D01*
X145727Y474375D01*
X145976Y474467D01*
X146244Y474539D01*
X146531Y474590D01*
X146837Y474621D01*
X147162Y474631D01*
X147488Y474621D01*
X147797Y474591D01*
X148087Y474540D01*
X148359Y474469D01*
X148613Y474378D01*
X148850Y474267D01*
X149068Y474135D01*
X149269Y473983D01*
X149448Y473813D01*
X149604Y473628D01*
X149736Y473428D01*
X149844Y473212D01*
X149927Y472981D01*
X149987Y472735D01*
X150023Y472473D01*
X150035Y472196D01*
X150021Y471927D01*
X149978Y471670D01*
X149907Y471425D01*
X149807Y471192D01*
X149679Y470973D01*
X149523Y470765D01*
X149338Y470570D01*
X149124Y470388D01*
X148889Y470223D01*
X148637Y470079D01*
X148368Y469958D01*
X148084Y469859D01*
X147784Y469782D01*
X147467Y469727D01*
X147135Y469694D01*
X146786Y469683D01*
X146511Y469693D01*
G37*
%LPD*%
G36*
X240030Y231596D02*
X240018Y232036D01*
X239982Y232463D01*
X239923Y232877D01*
X239840Y233278D01*
X239732Y233665D01*
X239601Y234040D01*
X239447Y234401D01*
X239268Y234749D01*
X239067Y235081D01*
X238845Y235393D01*
X238602Y235686D01*
X238339Y235960D01*
X238054Y236214D01*
X237748Y236449D01*
X237422Y236664D01*
X237074Y236860D01*
X236709Y237034D01*
X236328Y237186D01*
X235933Y237314D01*
X235523Y237418D01*
X235098Y237500D01*
X234657Y237558D01*
X234203Y237593D01*
X233733Y237604D01*
X233375Y237598D01*
X233029Y237578D01*
X232692Y237545D01*
X232366Y237498D01*
X232050Y237438D01*
X231745Y237365D01*
X231450Y237278D01*
X231165Y237179D01*
X230891Y237065D01*
X230627Y236939D01*
X230374Y236799D01*
X230130Y236646D01*
X229898Y236480D01*
X229675Y236300D01*
X229463Y236107D01*
X229261Y235901D01*
X229071Y235682D01*
X228893Y235453D01*
X228727Y235212D01*
X228574Y234960D01*
X228432Y234696D01*
X228303Y234422D01*
X228187Y234136D01*
X228082Y233839D01*
X227990Y233531D01*
X227910Y233212D01*
X227843Y232882D01*
X227788Y232540D01*
X227745Y232187D01*
X227714Y231823D01*
X227695Y231448D01*
X227689Y231062D01*
X227689Y226980D01*
X240030Y226980D01*
X240030Y231596D01*
G37*
%LPC*%
G36*
X229029Y228653D02*
X229029Y231027D01*
X229048Y231605D01*
X229105Y232148D01*
X229199Y232655D01*
X229330Y233128D01*
X229500Y233565D01*
X229707Y233967D01*
X229951Y234334D01*
X230234Y234666D01*
X230552Y234961D01*
X230904Y235216D01*
X231290Y235432D01*
X231711Y235609D01*
X232165Y235746D01*
X232653Y235844D01*
X233176Y235903D01*
X233733Y235923D01*
X234107Y235914D01*
X234469Y235888D01*
X234819Y235845D01*
X235156Y235785D01*
X235480Y235707D01*
X235792Y235612D01*
X236091Y235500D01*
X236378Y235371D01*
X236650Y235226D01*
X236905Y235065D01*
X237145Y234890D01*
X237367Y234700D01*
X237574Y234495D01*
X237764Y234275D01*
X237937Y234040D01*
X238094Y233790D01*
X238234Y233528D01*
X238355Y233255D01*
X238457Y232972D01*
X238541Y232679D01*
X238606Y232375D01*
X238653Y232062D01*
X238681Y231738D01*
X238690Y231403D01*
X238690Y228653D01*
X229029Y228653D01*
G37*
%LPD*%
G36*
X240030Y224734D02*
X238664Y224734D01*
X238664Y216684D01*
X234363Y216684D01*
X234363Y223849D01*
X233014Y223849D01*
X233014Y216684D01*
X229056Y216684D01*
X229056Y224374D01*
X227689Y224374D01*
X227689Y215012D01*
X240030Y215012D01*
X240030Y224734D01*
G37*
G36*
X240030Y212952D02*
X238664Y212952D01*
X238664Y206716D01*
X227689Y206716D01*
X227689Y205043D01*
X240030Y205043D01*
X240030Y212952D01*
G37*
G36*
X229029Y245996D02*
X229869Y245430D01*
X230683Y244907D01*
X231473Y244425D01*
X232238Y243985D01*
X232979Y243587D01*
X233694Y243232D01*
X234385Y242918D01*
X235051Y242646D01*
X235701Y242411D01*
X236342Y242207D01*
X236977Y242035D01*
X237603Y241894D01*
X238221Y241784D01*
X238832Y241706D01*
X239435Y241659D01*
X240030Y241643D01*
X240030Y243290D01*
X239605Y243296D01*
X239183Y243314D01*
X238351Y243387D01*
X237532Y243509D01*
X236728Y243680D01*
X235928Y243899D01*
X235123Y244167D01*
X234312Y244483D01*
X233496Y244849D01*
X232599Y245308D01*
X231545Y245906D01*
X230335Y246644D01*
X228968Y247520D01*
X227689Y247520D01*
X227689Y239366D01*
X229029Y239366D01*
X229029Y245996D01*
G37*
G36*
X240030Y345896D02*
X240018Y346336D01*
X239982Y346763D01*
X239923Y347177D01*
X239840Y347578D01*
X239732Y347965D01*
X239601Y348340D01*
X239447Y348701D01*
X239268Y349049D01*
X239067Y349381D01*
X238845Y349693D01*
X238602Y349986D01*
X238339Y350260D01*
X238054Y350514D01*
X237748Y350749D01*
X237422Y350964D01*
X237074Y351160D01*
X236709Y351334D01*
X236328Y351486D01*
X235933Y351614D01*
X235523Y351718D01*
X235098Y351800D01*
X234657Y351858D01*
X234203Y351893D01*
X233733Y351904D01*
X233375Y351898D01*
X233029Y351878D01*
X232692Y351845D01*
X232366Y351798D01*
X232050Y351738D01*
X231745Y351665D01*
X231450Y351578D01*
X231165Y351479D01*
X230891Y351365D01*
X230627Y351239D01*
X230374Y351099D01*
X230130Y350946D01*
X229898Y350780D01*
X229675Y350600D01*
X229463Y350407D01*
X229261Y350201D01*
X229071Y349982D01*
X228893Y349753D01*
X228727Y349512D01*
X228574Y349260D01*
X228432Y348996D01*
X228303Y348722D01*
X228187Y348436D01*
X228082Y348139D01*
X227990Y347831D01*
X227910Y347512D01*
X227843Y347182D01*
X227788Y346840D01*
X227745Y346487D01*
X227714Y346123D01*
X227695Y345748D01*
X227689Y345362D01*
X227689Y341280D01*
X240030Y341280D01*
X240030Y345896D01*
G37*
G36*
X237024Y353543D02*
X237419Y353596D01*
X237789Y353683D01*
X238134Y353805D01*
X238454Y353962D01*
X238750Y354154D01*
X239021Y354381D01*
X239268Y354643D01*
X239488Y354935D01*
X239678Y355255D01*
X239839Y355601D01*
X239971Y355975D01*
X240073Y356375D01*
X240147Y356803D01*
X240191Y357257D01*
X240205Y357739D01*
X240190Y358232D01*
X240146Y358696D01*
X240071Y359130D01*
X239967Y359534D01*
X239832Y359909D01*
X239668Y360255D01*
X239474Y360570D01*
X239251Y360857D01*
X239000Y361111D01*
X238726Y361332D01*
X238429Y361519D01*
X238108Y361671D01*
X237763Y361790D01*
X237395Y361875D01*
X237003Y361926D01*
X236588Y361943D01*
X236290Y361933D01*
X236005Y361902D01*
X235732Y361850D01*
X235472Y361779D01*
X235225Y361686D01*
X234991Y361573D01*
X234769Y361440D01*
X234560Y361286D01*
X234523Y361252D01*
X234367Y361114D01*
X234194Y360925D01*
X234040Y360719D01*
X233905Y360498D01*
X233789Y360260D01*
X233692Y360005D01*
X233615Y359734D01*
X233557Y359447D01*
X233522Y359447D01*
X233463Y359694D01*
X233385Y359928D01*
X233289Y360148D01*
X233174Y360355D01*
X233041Y360549D01*
X232905Y360712D01*
X232890Y360729D01*
X232721Y360896D01*
X232533Y361049D01*
X232331Y361187D01*
X232122Y361306D01*
X231903Y361407D01*
X231677Y361490D01*
X231441Y361554D01*
X231198Y361600D01*
X230945Y361627D01*
X230685Y361636D01*
X230328Y361620D01*
X229991Y361570D01*
X229673Y361488D01*
X229373Y361372D01*
X229092Y361224D01*
X228831Y361043D01*
X228588Y360828D01*
X228364Y360581D01*
X228162Y360305D01*
X227988Y360005D01*
X227841Y359682D01*
X227720Y359334D01*
X227626Y358962D01*
X227559Y358567D01*
X227519Y358147D01*
X227505Y357704D01*
X227519Y357271D01*
X227560Y356860D01*
X227628Y356472D01*
X227724Y356106D01*
X227847Y355763D01*
X227998Y355443D01*
X228176Y355145D01*
X228381Y354870D01*
X228608Y354623D01*
X228852Y354409D01*
X229113Y354227D01*
X229391Y354079D01*
X229685Y353963D01*
X229995Y353881D01*
X230323Y353831D01*
X230667Y353815D01*
X230928Y353824D01*
X231180Y353851D01*
X231424Y353897D01*
X231659Y353961D01*
X231886Y354042D01*
X232104Y354143D01*
X232314Y354261D01*
X232515Y354397D01*
X232704Y354550D01*
X232875Y354715D01*
X233029Y354894D01*
X233166Y355086D01*
X233285Y355291D01*
X233387Y355510D01*
X233472Y355742D01*
X233540Y355987D01*
X233575Y355987D01*
X233629Y355724D01*
X233703Y355472D01*
X233798Y355233D01*
X233912Y355006D01*
X234047Y354791D01*
X234202Y354588D01*
X234378Y354397D01*
X234573Y354218D01*
X234785Y354056D01*
X235009Y353915D01*
X235245Y353796D01*
X235493Y353699D01*
X235753Y353623D01*
X236025Y353569D01*
X236309Y353537D01*
X236605Y353526D01*
X237024Y353543D01*
G37*
%LPC*%
G36*
X229029Y342953D02*
X229029Y345327D01*
X229048Y345905D01*
X229105Y346448D01*
X229199Y346955D01*
X229330Y347428D01*
X229500Y347865D01*
X229707Y348267D01*
X229951Y348634D01*
X230234Y348966D01*
X230552Y349261D01*
X230904Y349516D01*
X231290Y349732D01*
X231711Y349909D01*
X232165Y350046D01*
X232653Y350144D01*
X233176Y350203D01*
X233733Y350223D01*
X234107Y350214D01*
X234469Y350188D01*
X234819Y350145D01*
X235156Y350085D01*
X235480Y350007D01*
X235792Y349912D01*
X236091Y349800D01*
X236378Y349671D01*
X236650Y349526D01*
X236905Y349365D01*
X237145Y349190D01*
X237367Y349000D01*
X237574Y348795D01*
X237764Y348575D01*
X237937Y348340D01*
X238094Y348090D01*
X238234Y347828D01*
X238355Y347555D01*
X238457Y347272D01*
X238541Y346979D01*
X238606Y346675D01*
X238653Y346362D01*
X238681Y346038D01*
X238690Y345703D01*
X238690Y342953D01*
X229029Y342953D01*
G37*
%LPD*%
G36*
X240030Y339034D02*
X238664Y339034D01*
X238664Y330984D01*
X234363Y330984D01*
X234363Y338149D01*
X233014Y338149D01*
X233014Y330984D01*
X229056Y330984D01*
X229056Y338674D01*
X227689Y338674D01*
X227689Y329312D01*
X240030Y329312D01*
X240030Y339034D01*
G37*
G36*
X240030Y327252D02*
X238664Y327252D01*
X238664Y321016D01*
X227689Y321016D01*
X227689Y319343D01*
X240030Y319343D01*
X240030Y327252D01*
G37*
%LPC*%
G36*
X236208Y355166D02*
X235956Y355197D01*
X235719Y355250D01*
X235496Y355324D01*
X235289Y355418D01*
X235095Y355534D01*
X234917Y355671D01*
X234753Y355829D01*
X234606Y356006D01*
X234479Y356199D01*
X234371Y356409D01*
X234283Y356635D01*
X234215Y356878D01*
X234166Y357137D01*
X234137Y357412D01*
X234127Y357704D01*
X234136Y358004D01*
X234163Y358287D01*
X234209Y358552D01*
X234272Y358801D01*
X234354Y359032D01*
X234454Y359246D01*
X234573Y359442D01*
X234709Y359622D01*
X234864Y359782D01*
X235036Y359921D01*
X235225Y360038D01*
X235433Y360134D01*
X235658Y360209D01*
X235901Y360262D01*
X236161Y360294D01*
X236439Y360305D01*
X236765Y360295D01*
X237068Y360266D01*
X237348Y360216D01*
X237605Y360147D01*
X237839Y360059D01*
X238051Y359950D01*
X238240Y359822D01*
X238405Y359674D01*
X238550Y359506D01*
X238675Y359318D01*
X238782Y359109D01*
X238868Y358880D01*
X238936Y358630D01*
X238984Y358359D01*
X239013Y358068D01*
X239023Y357756D01*
X239013Y357441D01*
X238983Y357147D01*
X238933Y356872D01*
X238864Y356618D01*
X238774Y356384D01*
X238664Y356171D01*
X238535Y355978D01*
X238386Y355805D01*
X238216Y355653D01*
X238027Y355521D01*
X237818Y355409D01*
X237589Y355318D01*
X237340Y355246D01*
X237071Y355196D01*
X236783Y355165D01*
X236474Y355155D01*
X236208Y355166D01*
G37*
G36*
X230520Y355436D02*
X230283Y355463D01*
X230063Y355508D01*
X229859Y355572D01*
X229671Y355654D01*
X229500Y355754D01*
X229344Y355872D01*
X229204Y356009D01*
X229081Y356163D01*
X228975Y356333D01*
X228884Y356520D01*
X228810Y356724D01*
X228753Y356944D01*
X228712Y357181D01*
X228687Y357434D01*
X228679Y357704D01*
X228687Y357982D01*
X228712Y358242D01*
X228753Y358484D01*
X228810Y358708D01*
X228883Y358914D01*
X228973Y359102D01*
X229080Y359272D01*
X229202Y359425D01*
X229341Y359559D01*
X229497Y359676D01*
X229668Y359774D01*
X229856Y359855D01*
X230061Y359918D01*
X230282Y359963D01*
X230519Y359989D01*
X230772Y359998D01*
X231049Y359989D01*
X231306Y359962D01*
X231543Y359917D01*
X231761Y359853D01*
X231958Y359771D01*
X232136Y359671D01*
X232294Y359553D01*
X232432Y359416D01*
X232552Y359262D01*
X232656Y359092D01*
X232744Y358905D01*
X232816Y358701D01*
X232872Y358481D01*
X232912Y358244D01*
X232936Y357991D01*
X232944Y357721D01*
X232936Y357455D01*
X232910Y357205D01*
X232866Y356970D01*
X232805Y356750D01*
X232727Y356546D01*
X232632Y356357D01*
X232519Y356184D01*
X232388Y356026D01*
X232241Y355886D01*
X232079Y355764D01*
X231900Y355661D01*
X231706Y355576D01*
X231496Y355511D01*
X231271Y355464D01*
X231029Y355436D01*
X230772Y355426D01*
X230520Y355436D01*
G37*
%LPD*%
G36*
X240030Y460196D02*
X240018Y460636D01*
X239982Y461063D01*
X239923Y461477D01*
X239840Y461878D01*
X239732Y462265D01*
X239601Y462640D01*
X239447Y463001D01*
X239268Y463349D01*
X239067Y463681D01*
X238845Y463993D01*
X238602Y464286D01*
X238339Y464560D01*
X238054Y464814D01*
X237748Y465049D01*
X237422Y465264D01*
X237074Y465460D01*
X236709Y465634D01*
X236328Y465786D01*
X235933Y465914D01*
X235523Y466018D01*
X235098Y466100D01*
X234657Y466158D01*
X234203Y466193D01*
X233733Y466204D01*
X233375Y466198D01*
X233029Y466178D01*
X232692Y466145D01*
X232366Y466098D01*
X232050Y466038D01*
X231745Y465965D01*
X231450Y465878D01*
X231165Y465779D01*
X230891Y465665D01*
X230627Y465539D01*
X230374Y465399D01*
X230130Y465246D01*
X229898Y465080D01*
X229675Y464900D01*
X229463Y464707D01*
X229261Y464501D01*
X229071Y464282D01*
X228893Y464053D01*
X228727Y463812D01*
X228574Y463560D01*
X228432Y463296D01*
X228303Y463022D01*
X228187Y462736D01*
X228082Y462439D01*
X227990Y462131D01*
X227910Y461812D01*
X227843Y461482D01*
X227788Y461140D01*
X227745Y460787D01*
X227714Y460423D01*
X227695Y460048D01*
X227689Y459662D01*
X227689Y455580D01*
X240030Y455580D01*
X240030Y460196D01*
G37*
G36*
X232116Y467903D02*
X232552Y467950D01*
X232964Y468028D01*
X233354Y468137D01*
X233720Y468277D01*
X234063Y468449D01*
X234382Y468652D01*
X234679Y468886D01*
X234945Y469146D01*
X235177Y469427D01*
X235372Y469728D01*
X235533Y470051D01*
X235657Y470394D01*
X235746Y470758D01*
X235799Y471143D01*
X235817Y471548D01*
X235810Y471800D01*
X235787Y472046D01*
X235750Y472287D01*
X235698Y472523D01*
X235631Y472753D01*
X235549Y472979D01*
X235452Y473199D01*
X235340Y473414D01*
X235216Y473618D01*
X235082Y473807D01*
X234938Y473981D01*
X234785Y474139D01*
X234622Y474281D01*
X234449Y474407D01*
X234266Y474518D01*
X234074Y474614D01*
X234642Y474594D01*
X235176Y474552D01*
X235677Y474488D01*
X236143Y474401D01*
X236577Y474293D01*
X236976Y474162D01*
X237342Y474009D01*
X237674Y473834D01*
X237970Y473639D01*
X238226Y473424D01*
X238443Y473190D01*
X238620Y472936D01*
X238758Y472664D01*
X238856Y472373D01*
X238916Y472062D01*
X238935Y471732D01*
X238929Y471535D01*
X238911Y471347D01*
X238839Y470998D01*
X238718Y470684D01*
X238550Y470405D01*
X238333Y470163D01*
X238068Y469955D01*
X237755Y469784D01*
X237394Y469648D01*
X237630Y468141D01*
X237958Y468243D01*
X238262Y468360D01*
X238543Y468493D01*
X238801Y468642D01*
X239035Y468805D01*
X239245Y468984D01*
X239433Y469179D01*
X239596Y469389D01*
X239739Y469616D01*
X239863Y469861D01*
X239967Y470124D01*
X240053Y470404D01*
X240120Y470703D01*
X240167Y471019D01*
X240196Y471354D01*
X240205Y471706D01*
X240198Y471970D01*
X240178Y472227D01*
X240145Y472476D01*
X240098Y472717D01*
X240038Y472951D01*
X239965Y473177D01*
X239778Y473605D01*
X239538Y474003D01*
X239244Y474370D01*
X238898Y474707D01*
X238497Y475012D01*
X238047Y475284D01*
X237551Y475520D01*
X237009Y475719D01*
X236422Y475883D01*
X235788Y476010D01*
X235108Y476100D01*
X234382Y476155D01*
X233610Y476173D01*
X232870Y476156D01*
X232177Y476107D01*
X231533Y476024D01*
X230936Y475908D01*
X230388Y475759D01*
X229887Y475577D01*
X229434Y475361D01*
X229029Y475113D01*
X228672Y474832D01*
X228363Y474521D01*
X228101Y474178D01*
X227886Y473804D01*
X227720Y473398D01*
X227601Y472962D01*
X227529Y472494D01*
X227511Y472248D01*
X227505Y471995D01*
X227523Y471524D01*
X227575Y471080D01*
X227661Y470663D01*
X227782Y470272D01*
X227938Y469907D01*
X228129Y469569D01*
X228354Y469258D01*
X228613Y468973D01*
X228903Y468719D01*
X229219Y468498D01*
X229561Y468311D01*
X229928Y468159D01*
X230322Y468040D01*
X230741Y467955D01*
X231186Y467904D01*
X231657Y467887D01*
X232116Y467903D01*
G37*
%LPC*%
G36*
X229029Y457253D02*
X229029Y459627D01*
X229048Y460205D01*
X229105Y460748D01*
X229199Y461255D01*
X229330Y461728D01*
X229500Y462165D01*
X229707Y462567D01*
X229951Y462934D01*
X230234Y463266D01*
X230552Y463561D01*
X230904Y463816D01*
X231290Y464032D01*
X231711Y464209D01*
X232165Y464346D01*
X232653Y464444D01*
X233176Y464503D01*
X233733Y464523D01*
X234107Y464514D01*
X234469Y464488D01*
X234819Y464445D01*
X235156Y464385D01*
X235480Y464307D01*
X235792Y464212D01*
X236091Y464100D01*
X236378Y463971D01*
X236650Y463826D01*
X236905Y463665D01*
X237145Y463490D01*
X237367Y463300D01*
X237574Y463095D01*
X237764Y462875D01*
X237937Y462640D01*
X238094Y462390D01*
X238234Y462128D01*
X238355Y461855D01*
X238457Y461572D01*
X238541Y461279D01*
X238606Y460975D01*
X238653Y460662D01*
X238681Y460338D01*
X238690Y460003D01*
X238690Y457253D01*
X229029Y457253D01*
G37*
%LPD*%
G36*
X240030Y453334D02*
X238664Y453334D01*
X238664Y445284D01*
X234363Y445284D01*
X234363Y452449D01*
X233014Y452449D01*
X233014Y445284D01*
X229056Y445284D01*
X229056Y452974D01*
X227689Y452974D01*
X227689Y443612D01*
X240030Y443612D01*
X240030Y453334D01*
G37*
G36*
X240030Y441552D02*
X238664Y441552D01*
X238664Y435316D01*
X227689Y435316D01*
X227689Y433643D01*
X240030Y433643D01*
X240030Y441552D01*
G37*
%LPC*%
G36*
X231335Y469500D02*
X231030Y469531D01*
X230742Y469582D01*
X230471Y469654D01*
X230218Y469747D01*
X229981Y469860D01*
X229762Y469993D01*
X229559Y470147D01*
X229378Y470319D01*
X229220Y470505D01*
X229087Y470707D01*
X228978Y470924D01*
X228893Y471156D01*
X228833Y471403D01*
X228796Y471665D01*
X228784Y471942D01*
X228798Y472222D01*
X228841Y472487D01*
X228912Y472738D01*
X229011Y472974D01*
X229138Y473195D01*
X229294Y473402D01*
X229478Y473595D01*
X229691Y473773D01*
X229926Y473933D01*
X230180Y474072D01*
X230452Y474189D01*
X230743Y474285D01*
X231051Y474360D01*
X231378Y474413D01*
X231723Y474445D01*
X232086Y474456D01*
X232440Y474435D01*
X232774Y474372D01*
X233088Y474266D01*
X233382Y474119D01*
X233651Y473935D01*
X233887Y473719D01*
X234091Y473473D01*
X234263Y473195D01*
X234399Y472895D01*
X234496Y472584D01*
X234554Y472260D01*
X234573Y471925D01*
X234561Y471652D01*
X234524Y471393D01*
X234463Y471149D01*
X234377Y470920D01*
X234267Y470705D01*
X234133Y470504D01*
X233973Y470318D01*
X233790Y470147D01*
X233585Y469993D01*
X233362Y469860D01*
X233122Y469747D01*
X232864Y469654D01*
X232589Y469582D01*
X232296Y469531D01*
X231985Y469500D01*
X231657Y469490D01*
X231335Y469500D01*
G37*
%LPD*%
G36*
X328930Y221620D02*
X328918Y222061D01*
X328882Y222488D01*
X328823Y222901D01*
X328740Y223302D01*
X328632Y223690D01*
X328501Y224064D01*
X328347Y224425D01*
X328168Y224774D01*
X327967Y225105D01*
X327745Y225418D01*
X327502Y225711D01*
X327239Y225984D01*
X326954Y226239D01*
X326648Y226473D01*
X326322Y226689D01*
X325974Y226884D01*
X325609Y227059D01*
X325228Y227210D01*
X324833Y227338D01*
X324423Y227443D01*
X323998Y227524D01*
X323557Y227582D01*
X323103Y227617D01*
X322633Y227629D01*
X322275Y227622D01*
X321929Y227602D01*
X321592Y227569D01*
X321266Y227522D01*
X320950Y227462D01*
X320645Y227389D01*
X320350Y227303D01*
X320065Y227203D01*
X319791Y227090D01*
X319527Y226963D01*
X319274Y226824D01*
X319030Y226671D01*
X318798Y226504D01*
X318575Y226325D01*
X318363Y226132D01*
X318161Y225925D01*
X317971Y225707D01*
X317793Y225477D01*
X317627Y225236D01*
X317474Y224984D01*
X317332Y224721D01*
X317203Y224446D01*
X317087Y224161D01*
X316982Y223864D01*
X316890Y223556D01*
X316810Y223236D01*
X316743Y222906D01*
X316688Y222564D01*
X316645Y222212D01*
X316614Y221848D01*
X316595Y221473D01*
X316589Y221086D01*
X316589Y217005D01*
X328930Y217005D01*
X328930Y221620D01*
G37*
G36*
X323509Y239157D02*
X324217Y239207D01*
X324878Y239290D01*
X325492Y239407D01*
X326060Y239558D01*
X326582Y239741D01*
X327057Y239958D01*
X327485Y240209D01*
X327865Y240492D01*
X328194Y240809D01*
X328472Y241159D01*
X328700Y241542D01*
X328877Y241958D01*
X329004Y242408D01*
X329048Y242645D01*
X329080Y242890D01*
X329099Y243144D01*
X329105Y243406D01*
X329099Y243668D01*
X329080Y243921D01*
X329048Y244167D01*
X329003Y244405D01*
X328876Y244856D01*
X328698Y245274D01*
X328469Y245661D01*
X328189Y246014D01*
X327858Y246336D01*
X327476Y246624D01*
X327046Y246880D01*
X326570Y247101D01*
X326049Y247289D01*
X325481Y247442D01*
X324868Y247561D01*
X324210Y247647D01*
X323505Y247698D01*
X322755Y247715D01*
X321993Y247699D01*
X321279Y247650D01*
X320614Y247569D01*
X319996Y247455D01*
X319427Y247309D01*
X318906Y247131D01*
X318433Y246920D01*
X318008Y246677D01*
X317632Y246400D01*
X317307Y246087D01*
X317031Y245738D01*
X316806Y245353D01*
X316631Y244933D01*
X316562Y244710D01*
X316505Y244477D01*
X316462Y244236D01*
X316430Y243986D01*
X316412Y243726D01*
X316405Y243458D01*
X316412Y243183D01*
X316430Y242916D01*
X316461Y242660D01*
X316504Y242412D01*
X316560Y242174D01*
X316628Y241946D01*
X316802Y241517D01*
X317025Y241126D01*
X317297Y240772D01*
X317619Y240456D01*
X317991Y240178D01*
X318412Y239935D01*
X318883Y239724D01*
X319404Y239546D01*
X319974Y239400D01*
X320595Y239286D01*
X321265Y239205D01*
X321985Y239156D01*
X322755Y239140D01*
X323509Y239157D01*
G37*
%LPC*%
G36*
X317929Y218678D02*
X317929Y221051D01*
X317948Y221629D01*
X318005Y222172D01*
X318099Y222680D01*
X318230Y223152D01*
X318400Y223589D01*
X318607Y223992D01*
X318851Y224359D01*
X319134Y224690D01*
X319452Y224985D01*
X319804Y225240D01*
X320190Y225456D01*
X320611Y225633D01*
X321065Y225770D01*
X321553Y225869D01*
X322076Y225928D01*
X322633Y225947D01*
X323007Y225939D01*
X323369Y225913D01*
X323719Y225870D01*
X324056Y225809D01*
X324380Y225732D01*
X324692Y225637D01*
X324991Y225525D01*
X325278Y225395D01*
X325550Y225250D01*
X325805Y225090D01*
X326045Y224914D01*
X326267Y224724D01*
X326474Y224519D01*
X326664Y224299D01*
X326837Y224064D01*
X326994Y223814D01*
X327134Y223552D01*
X327255Y223279D01*
X327357Y222996D01*
X327441Y222703D01*
X327506Y222400D01*
X327553Y222086D01*
X327581Y221762D01*
X327590Y221428D01*
X327590Y218678D01*
X317929Y218678D01*
G37*
%LPD*%
G36*
X328930Y214758D02*
X327564Y214758D01*
X327564Y206709D01*
X323263Y206709D01*
X323263Y213873D01*
X321914Y213873D01*
X321914Y206709D01*
X317956Y206709D01*
X317956Y214399D01*
X316589Y214399D01*
X316589Y205036D01*
X328930Y205036D01*
X328930Y214758D01*
G37*
%LPC*%
G36*
X322102Y240744D02*
X321497Y240774D01*
X320940Y240824D01*
X320430Y240893D01*
X319968Y240982D01*
X319553Y241091D01*
X319186Y241220D01*
X318866Y241369D01*
X318589Y241541D01*
X318349Y241738D01*
X318146Y241961D01*
X317980Y242209D01*
X317850Y242483D01*
X317758Y242782D01*
X317703Y243107D01*
X317684Y243458D01*
X317703Y243800D01*
X317759Y244118D01*
X317853Y244410D01*
X317984Y244677D01*
X318153Y244919D01*
X318359Y245136D01*
X318603Y245328D01*
X318884Y245495D01*
X319207Y245639D01*
X319576Y245765D01*
X319991Y245871D01*
X320452Y245958D01*
X320959Y246025D01*
X321512Y246073D01*
X322110Y246102D01*
X322755Y246112D01*
X323378Y246102D01*
X323960Y246072D01*
X324499Y246021D01*
X324997Y245950D01*
X325454Y245859D01*
X325869Y245747D01*
X326242Y245616D01*
X326574Y245464D01*
X326865Y245290D01*
X327118Y245093D01*
X327332Y244873D01*
X327507Y244630D01*
X327643Y244363D01*
X327740Y244073D01*
X327798Y243760D01*
X327818Y243423D01*
X327799Y243085D01*
X327742Y242770D01*
X327646Y242479D01*
X327513Y242211D01*
X327342Y241967D01*
X327133Y241747D01*
X326886Y241551D01*
X326600Y241378D01*
X326274Y241227D01*
X325903Y241096D01*
X325489Y240986D01*
X325030Y240895D01*
X324528Y240825D01*
X323981Y240775D01*
X323390Y240744D01*
X322755Y240734D01*
X322102Y240744D01*
G37*
%LPD*%
G36*
X328930Y237571D02*
X327590Y237571D01*
X327590Y234567D01*
X316589Y234567D01*
X316589Y233113D01*
X318595Y230196D01*
X320084Y230196D01*
X318096Y232981D01*
X327590Y232981D01*
X327590Y229837D01*
X328930Y229837D01*
X328930Y237571D01*
G37*
G36*
X328930Y202976D02*
X327564Y202976D01*
X327564Y196740D01*
X316589Y196740D01*
X316589Y195067D01*
X328930Y195067D01*
X328930Y202976D01*
G37*
G36*
X328930Y337252D02*
X328918Y337692D01*
X328882Y338119D01*
X328823Y338533D01*
X328740Y338934D01*
X328632Y339321D01*
X328501Y339696D01*
X328347Y340057D01*
X328168Y340405D01*
X327967Y340737D01*
X327745Y341049D01*
X327502Y341342D01*
X327239Y341616D01*
X326954Y341870D01*
X326648Y342105D01*
X326322Y342320D01*
X325974Y342516D01*
X325609Y342690D01*
X325228Y342842D01*
X324833Y342970D01*
X324423Y343074D01*
X323998Y343156D01*
X323557Y343214D01*
X323103Y343249D01*
X322633Y343260D01*
X322275Y343254D01*
X321929Y343234D01*
X321592Y343200D01*
X321266Y343154D01*
X320950Y343094D01*
X320645Y343021D01*
X320350Y342934D01*
X320065Y342834D01*
X319791Y342721D01*
X319527Y342595D01*
X319274Y342455D01*
X319030Y342302D01*
X318798Y342136D01*
X318575Y341956D01*
X318363Y341763D01*
X318161Y341557D01*
X317971Y341338D01*
X317793Y341109D01*
X317627Y340868D01*
X317474Y340616D01*
X317332Y340352D01*
X317203Y340078D01*
X317087Y339792D01*
X316982Y339495D01*
X316890Y339187D01*
X316810Y338868D01*
X316743Y338538D01*
X316688Y338196D01*
X316645Y337843D01*
X316614Y337479D01*
X316595Y337104D01*
X316589Y336718D01*
X316589Y332636D01*
X328930Y332636D01*
X328930Y337252D01*
G37*
%LPC*%
G36*
X317929Y334309D02*
X317929Y336683D01*
X317948Y337261D01*
X318005Y337804D01*
X318099Y338311D01*
X318230Y338784D01*
X318400Y339221D01*
X318607Y339623D01*
X318851Y339990D01*
X319134Y340322D01*
X319452Y340616D01*
X319804Y340872D01*
X320190Y341088D01*
X320611Y341265D01*
X321065Y341402D01*
X321553Y341500D01*
X322076Y341559D01*
X322633Y341579D01*
X323007Y341570D01*
X323369Y341544D01*
X323719Y341501D01*
X324056Y341441D01*
X324380Y341363D01*
X324692Y341268D01*
X324991Y341156D01*
X325278Y341027D01*
X325550Y340882D01*
X325805Y340721D01*
X326045Y340546D01*
X326267Y340356D01*
X326474Y340151D01*
X326664Y339931D01*
X326837Y339696D01*
X326994Y339446D01*
X327134Y339184D01*
X327255Y338911D01*
X327357Y338628D01*
X327441Y338335D01*
X327506Y338031D01*
X327553Y337718D01*
X327581Y337394D01*
X327590Y337059D01*
X327590Y334309D01*
X317929Y334309D01*
G37*
%LPD*%
G36*
X328930Y330389D02*
X327564Y330389D01*
X327564Y322340D01*
X323263Y322340D01*
X323263Y329505D01*
X321914Y329505D01*
X321914Y322340D01*
X317956Y322340D01*
X317956Y330030D01*
X316589Y330030D01*
X316589Y320667D01*
X328930Y320667D01*
X328930Y330389D01*
G37*
G36*
X328930Y353202D02*
X327590Y353202D01*
X327590Y350198D01*
X316589Y350198D01*
X316589Y348744D01*
X318595Y345828D01*
X320084Y345828D01*
X318096Y348613D01*
X327590Y348613D01*
X327590Y345469D01*
X328930Y345469D01*
X328930Y353202D01*
G37*
G36*
X328930Y361859D02*
X327590Y361859D01*
X327590Y358855D01*
X316589Y358855D01*
X316589Y357401D01*
X318595Y354484D01*
X320084Y354484D01*
X318096Y357269D01*
X327590Y357269D01*
X327590Y354125D01*
X328930Y354125D01*
X328930Y361859D01*
G37*
G36*
X328930Y318608D02*
X327564Y318608D01*
X327564Y312372D01*
X316589Y312372D01*
X316589Y310699D01*
X328930Y310699D01*
X328930Y318608D01*
G37*
G36*
X328930Y450220D02*
X328918Y450661D01*
X328882Y451088D01*
X328823Y451501D01*
X328740Y451902D01*
X328632Y452290D01*
X328501Y452664D01*
X328347Y453025D01*
X328168Y453374D01*
X327967Y453705D01*
X327745Y454018D01*
X327502Y454311D01*
X327239Y454584D01*
X326954Y454839D01*
X326648Y455073D01*
X326322Y455289D01*
X325974Y455484D01*
X325609Y455659D01*
X325228Y455810D01*
X324833Y455938D01*
X324423Y456043D01*
X323998Y456124D01*
X323557Y456182D01*
X323103Y456217D01*
X322633Y456229D01*
X322275Y456222D01*
X321929Y456202D01*
X321592Y456169D01*
X321266Y456122D01*
X320950Y456062D01*
X320645Y455989D01*
X320350Y455903D01*
X320065Y455803D01*
X319791Y455690D01*
X319527Y455563D01*
X319274Y455424D01*
X319030Y455271D01*
X318798Y455104D01*
X318575Y454925D01*
X318363Y454732D01*
X318161Y454525D01*
X317971Y454307D01*
X317793Y454077D01*
X317627Y453836D01*
X317474Y453584D01*
X317332Y453321D01*
X317203Y453046D01*
X317087Y452761D01*
X316982Y452464D01*
X316890Y452156D01*
X316810Y451836D01*
X316743Y451506D01*
X316688Y451164D01*
X316645Y450812D01*
X316614Y450448D01*
X316595Y450073D01*
X316589Y449686D01*
X316589Y445605D01*
X328930Y445605D01*
X328930Y450220D01*
G37*
%LPC*%
G36*
X317929Y447278D02*
X317929Y449651D01*
X317948Y450229D01*
X318005Y450772D01*
X318099Y451280D01*
X318230Y451752D01*
X318400Y452189D01*
X318607Y452592D01*
X318851Y452959D01*
X319134Y453290D01*
X319452Y453585D01*
X319804Y453840D01*
X320190Y454056D01*
X320611Y454233D01*
X321065Y454370D01*
X321553Y454469D01*
X322076Y454528D01*
X322633Y454547D01*
X323007Y454539D01*
X323369Y454513D01*
X323719Y454470D01*
X324056Y454409D01*
X324380Y454332D01*
X324692Y454237D01*
X324991Y454125D01*
X325278Y453995D01*
X325550Y453850D01*
X325805Y453690D01*
X326045Y453514D01*
X326267Y453324D01*
X326474Y453119D01*
X326664Y452899D01*
X326837Y452664D01*
X326994Y452414D01*
X327134Y452152D01*
X327255Y451879D01*
X327357Y451596D01*
X327441Y451303D01*
X327506Y451000D01*
X327553Y450686D01*
X327581Y450362D01*
X327590Y450028D01*
X327590Y447278D01*
X317929Y447278D01*
G37*
%LPD*%
G36*
X328930Y443358D02*
X327564Y443358D01*
X327564Y435309D01*
X323263Y435309D01*
X323263Y442473D01*
X321914Y442473D01*
X321914Y435309D01*
X317956Y435309D01*
X317956Y442999D01*
X316589Y442999D01*
X316589Y433636D01*
X328930Y433636D01*
X328930Y443358D01*
G37*
G36*
X328930Y476113D02*
X327590Y476113D01*
X327590Y469676D01*
X327280Y469828D01*
X326965Y470022D01*
X326643Y470257D01*
X326316Y470534D01*
X325975Y470858D01*
X325614Y471233D01*
X325233Y471659D01*
X324831Y472137D01*
X324135Y472978D01*
X323537Y473672D01*
X323036Y474218D01*
X322633Y474616D01*
X322278Y474920D01*
X321923Y475184D01*
X321568Y475408D01*
X321214Y475592D01*
X320858Y475736D01*
X320502Y475839D01*
X320145Y475900D01*
X319786Y475921D01*
X319393Y475905D01*
X319022Y475858D01*
X318675Y475780D01*
X318351Y475670D01*
X318050Y475529D01*
X317772Y475357D01*
X317517Y475153D01*
X317286Y474918D01*
X317079Y474654D01*
X316900Y474362D01*
X316749Y474044D01*
X316625Y473699D01*
X316529Y473327D01*
X316460Y472928D01*
X316419Y472502D01*
X316405Y472049D01*
X316419Y471634D01*
X316460Y471238D01*
X316528Y470862D01*
X316624Y470505D01*
X316747Y470167D01*
X316898Y469848D01*
X317076Y469549D01*
X317281Y469269D01*
X317510Y469012D01*
X317757Y468784D01*
X318023Y468585D01*
X318308Y468414D01*
X318612Y468271D01*
X318935Y468156D01*
X319277Y468070D01*
X319637Y468012D01*
X319786Y469623D01*
X319546Y469660D01*
X319319Y469714D01*
X319106Y469784D01*
X318907Y469872D01*
X318722Y469976D01*
X318550Y470097D01*
X318393Y470235D01*
X318249Y470390D01*
X318121Y470558D01*
X318009Y470738D01*
X317915Y470929D01*
X317838Y471131D01*
X317779Y471344D01*
X317736Y471568D01*
X317710Y471803D01*
X317702Y472049D01*
X317710Y472307D01*
X317737Y472550D01*
X317780Y472779D01*
X317842Y472993D01*
X317921Y473193D01*
X318017Y473378D01*
X318131Y473549D01*
X318262Y473705D01*
X318409Y473844D01*
X318571Y473965D01*
X318747Y474068D01*
X318937Y474151D01*
X319141Y474217D01*
X319359Y474263D01*
X319592Y474291D01*
X319839Y474300D01*
X320205Y474279D01*
X320552Y474214D01*
X320880Y474106D01*
X321187Y473954D01*
X321482Y473768D01*
X321770Y473555D01*
X322051Y473315D01*
X322326Y473048D01*
X322869Y472453D01*
X323412Y471791D01*
X323978Y471091D01*
X324590Y470385D01*
X324917Y470035D01*
X325262Y469692D01*
X325626Y469358D01*
X326009Y469032D01*
X326416Y468723D01*
X326853Y468438D01*
X327320Y468177D01*
X327818Y467942D01*
X328930Y467942D01*
X328930Y476113D01*
G37*
G36*
X328930Y466171D02*
X327590Y466171D01*
X327590Y463167D01*
X316589Y463167D01*
X316589Y461713D01*
X318595Y458796D01*
X320084Y458796D01*
X318096Y461581D01*
X327590Y461581D01*
X327590Y458437D01*
X328930Y458437D01*
X328930Y466171D01*
G37*
G36*
X328930Y431576D02*
X327564Y431576D01*
X327564Y425340D01*
X316589Y425340D01*
X316589Y423667D01*
X328930Y423667D01*
X328930Y431576D01*
G37*
G36*
X417830Y221620D02*
X417818Y222061D01*
X417782Y222488D01*
X417723Y222901D01*
X417640Y223302D01*
X417532Y223690D01*
X417401Y224064D01*
X417247Y224425D01*
X417068Y224774D01*
X416867Y225105D01*
X416645Y225418D01*
X416402Y225711D01*
X416139Y225984D01*
X415854Y226239D01*
X415548Y226473D01*
X415222Y226689D01*
X414874Y226884D01*
X414509Y227059D01*
X414128Y227210D01*
X413733Y227338D01*
X413323Y227443D01*
X412898Y227524D01*
X412457Y227582D01*
X412003Y227617D01*
X411533Y227629D01*
X411175Y227622D01*
X410829Y227602D01*
X410492Y227569D01*
X410166Y227522D01*
X409850Y227462D01*
X409545Y227389D01*
X409250Y227303D01*
X408965Y227203D01*
X408691Y227090D01*
X408427Y226963D01*
X408174Y226824D01*
X407930Y226671D01*
X407698Y226504D01*
X407475Y226325D01*
X407263Y226132D01*
X407061Y225925D01*
X406871Y225707D01*
X406693Y225477D01*
X406527Y225236D01*
X406374Y224984D01*
X406232Y224721D01*
X406103Y224446D01*
X405987Y224161D01*
X405882Y223864D01*
X405790Y223556D01*
X405710Y223236D01*
X405643Y222906D01*
X405588Y222564D01*
X405545Y222212D01*
X405514Y221848D01*
X405495Y221473D01*
X405489Y221086D01*
X405489Y217005D01*
X417830Y217005D01*
X417830Y221620D01*
G37*
%LPC*%
G36*
X406829Y218678D02*
X406829Y221051D01*
X406848Y221629D01*
X406905Y222172D01*
X406999Y222680D01*
X407130Y223152D01*
X407300Y223589D01*
X407507Y223992D01*
X407751Y224359D01*
X408034Y224690D01*
X408352Y224985D01*
X408704Y225240D01*
X409090Y225456D01*
X409511Y225633D01*
X409965Y225770D01*
X410453Y225869D01*
X410976Y225928D01*
X411533Y225947D01*
X411907Y225939D01*
X412269Y225913D01*
X412619Y225870D01*
X412956Y225809D01*
X413280Y225732D01*
X413592Y225637D01*
X413891Y225525D01*
X414178Y225395D01*
X414450Y225250D01*
X414705Y225090D01*
X414945Y224914D01*
X415167Y224724D01*
X415374Y224519D01*
X415564Y224299D01*
X415737Y224064D01*
X415894Y223814D01*
X416034Y223552D01*
X416155Y223279D01*
X416257Y222996D01*
X416341Y222703D01*
X416406Y222400D01*
X416453Y222086D01*
X416481Y221762D01*
X416490Y221428D01*
X416490Y218678D01*
X406829Y218678D01*
G37*
%LPD*%
G36*
X417830Y214758D02*
X416464Y214758D01*
X416464Y206709D01*
X412163Y206709D01*
X412163Y213873D01*
X410814Y213873D01*
X410814Y206709D01*
X406856Y206709D01*
X406856Y214399D01*
X405489Y214399D01*
X405489Y205036D01*
X417830Y205036D01*
X417830Y214758D01*
G37*
G36*
X415061Y239189D02*
X415436Y239284D01*
X415787Y239408D01*
X416112Y239560D01*
X416412Y239740D01*
X416687Y239948D01*
X416936Y240185D01*
X417160Y240450D01*
X417358Y240741D01*
X417530Y241055D01*
X417675Y241394D01*
X417794Y241756D01*
X417886Y242141D01*
X417952Y242551D01*
X417992Y242984D01*
X418005Y243441D01*
X417991Y243930D01*
X417947Y244390D01*
X417873Y244821D01*
X417771Y245223D01*
X417639Y245596D01*
X417478Y245940D01*
X417288Y246255D01*
X417068Y246541D01*
X416822Y246796D01*
X416551Y247016D01*
X416257Y247203D01*
X415938Y247356D01*
X415596Y247475D01*
X415229Y247559D01*
X414838Y247610D01*
X414423Y247627D01*
X414134Y247615D01*
X413857Y247579D01*
X413593Y247519D01*
X413341Y247435D01*
X413102Y247326D01*
X412876Y247194D01*
X412662Y247037D01*
X412461Y246856D01*
X412276Y246654D01*
X412111Y246433D01*
X411965Y246192D01*
X411839Y245932D01*
X411733Y245654D01*
X411646Y245355D01*
X411580Y245038D01*
X411533Y244702D01*
X411498Y244702D01*
X411424Y245008D01*
X411336Y245295D01*
X411233Y245563D01*
X411116Y245813D01*
X410983Y246044D01*
X410835Y246256D01*
X410672Y246450D01*
X410495Y246624D01*
X410303Y246779D01*
X410097Y246914D01*
X409877Y247027D01*
X409644Y247120D01*
X409397Y247193D01*
X409136Y247244D01*
X408861Y247275D01*
X408572Y247286D01*
X408197Y247270D01*
X407844Y247221D01*
X407512Y247141D01*
X407200Y247028D01*
X406911Y246884D01*
X406642Y246707D01*
X406394Y246498D01*
X406168Y246257D01*
X405966Y245986D01*
X405791Y245690D01*
X405642Y245368D01*
X405521Y245020D01*
X405427Y244647D01*
X405359Y244247D01*
X405319Y243822D01*
X405305Y243371D01*
X405319Y242955D01*
X405358Y242560D01*
X405425Y242183D01*
X405518Y241826D01*
X405637Y241488D01*
X405783Y241169D01*
X405956Y240870D01*
X406155Y240590D01*
X406378Y240333D01*
X406621Y240106D01*
X406886Y239906D01*
X407171Y239735D01*
X407477Y239592D01*
X407804Y239477D01*
X408151Y239391D01*
X408520Y239333D01*
X408642Y240918D01*
X408406Y240953D01*
X408184Y241004D01*
X407975Y241073D01*
X407780Y241158D01*
X407598Y241260D01*
X407430Y241379D01*
X407276Y241515D01*
X407136Y241667D01*
X407011Y241834D01*
X406902Y242014D01*
X406810Y242206D01*
X406735Y242410D01*
X406677Y242627D01*
X406635Y242857D01*
X406610Y243099D01*
X406602Y243353D01*
X406611Y243631D01*
X406637Y243891D01*
X406682Y244134D01*
X406745Y244359D01*
X406826Y244567D01*
X406924Y244756D01*
X407041Y244928D01*
X407175Y245083D01*
X407325Y245219D01*
X407488Y245338D01*
X407664Y245438D01*
X407853Y245520D01*
X408055Y245583D01*
X408270Y245629D01*
X408498Y245656D01*
X408739Y245665D01*
X408982Y245654D01*
X409211Y245621D01*
X409427Y245565D01*
X409629Y245487D01*
X409817Y245386D01*
X409993Y245264D01*
X410154Y245119D01*
X410302Y244952D01*
X410434Y244764D01*
X410549Y244558D01*
X410646Y244334D01*
X410726Y244092D01*
X410788Y243832D01*
X410832Y243553D01*
X410858Y243256D01*
X410867Y242941D01*
X410867Y242083D01*
X412233Y242083D01*
X412233Y242976D01*
X412242Y243331D01*
X412269Y243665D01*
X412313Y243977D01*
X412375Y244267D01*
X412454Y244536D01*
X412551Y244784D01*
X412666Y245010D01*
X412798Y245214D01*
X412946Y245396D01*
X413108Y245553D01*
X413284Y245687D01*
X413474Y245796D01*
X413677Y245880D01*
X413894Y245941D01*
X414126Y245977D01*
X414370Y245989D01*
X414651Y245979D01*
X414913Y245947D01*
X415157Y245894D01*
X415384Y245820D01*
X415593Y245724D01*
X415784Y245608D01*
X415958Y245470D01*
X416113Y245311D01*
X416251Y245133D01*
X416370Y244939D01*
X416471Y244729D01*
X416553Y244504D01*
X416618Y244262D01*
X416664Y244004D01*
X416691Y243730D01*
X416700Y243441D01*
X416692Y243152D01*
X416666Y242879D01*
X416623Y242623D01*
X416563Y242383D01*
X416486Y242158D01*
X416392Y241950D01*
X416281Y241758D01*
X416153Y241582D01*
X416007Y241422D01*
X415845Y241278D01*
X415665Y241150D01*
X415469Y241038D01*
X415255Y240942D01*
X415024Y240863D01*
X414776Y240799D01*
X414511Y240752D01*
X414659Y239123D01*
X415061Y239189D01*
G37*
G36*
X417830Y237571D02*
X416490Y237571D01*
X416490Y234567D01*
X405489Y234567D01*
X405489Y233113D01*
X407495Y230196D01*
X408984Y230196D01*
X406996Y232981D01*
X416490Y232981D01*
X416490Y229837D01*
X417830Y229837D01*
X417830Y237571D01*
G37*
G36*
X417830Y202976D02*
X416464Y202976D01*
X416464Y196740D01*
X405489Y196740D01*
X405489Y195067D01*
X417830Y195067D01*
X417830Y202976D01*
G37*
G36*
X417830Y335920D02*
X417818Y336361D01*
X417782Y336788D01*
X417723Y337201D01*
X417640Y337602D01*
X417532Y337990D01*
X417401Y338364D01*
X417247Y338725D01*
X417068Y339074D01*
X416867Y339405D01*
X416645Y339718D01*
X416402Y340011D01*
X416139Y340284D01*
X415854Y340539D01*
X415548Y340773D01*
X415222Y340989D01*
X414874Y341184D01*
X414509Y341359D01*
X414128Y341510D01*
X413733Y341638D01*
X413323Y341743D01*
X412898Y341824D01*
X412457Y341882D01*
X412003Y341917D01*
X411533Y341929D01*
X411175Y341922D01*
X410829Y341902D01*
X410492Y341869D01*
X410166Y341822D01*
X409850Y341762D01*
X409545Y341689D01*
X409250Y341603D01*
X408965Y341503D01*
X408691Y341390D01*
X408427Y341263D01*
X408174Y341124D01*
X407930Y340971D01*
X407698Y340804D01*
X407475Y340625D01*
X407263Y340432D01*
X407061Y340225D01*
X406871Y340007D01*
X406693Y339777D01*
X406527Y339536D01*
X406374Y339284D01*
X406232Y339021D01*
X406103Y338746D01*
X405987Y338461D01*
X405882Y338164D01*
X405790Y337856D01*
X405710Y337536D01*
X405643Y337206D01*
X405588Y336864D01*
X405545Y336512D01*
X405514Y336148D01*
X405495Y335773D01*
X405489Y335386D01*
X405489Y331305D01*
X417830Y331305D01*
X417830Y335920D01*
G37*
%LPC*%
G36*
X406829Y332978D02*
X406829Y335351D01*
X406848Y335929D01*
X406905Y336472D01*
X406999Y336980D01*
X407130Y337452D01*
X407300Y337889D01*
X407507Y338292D01*
X407751Y338659D01*
X408034Y338990D01*
X408352Y339285D01*
X408704Y339540D01*
X409090Y339756D01*
X409511Y339933D01*
X409965Y340070D01*
X410453Y340169D01*
X410976Y340228D01*
X411533Y340247D01*
X411907Y340239D01*
X412269Y340213D01*
X412619Y340170D01*
X412956Y340109D01*
X413280Y340032D01*
X413592Y339937D01*
X413891Y339825D01*
X414178Y339695D01*
X414450Y339550D01*
X414705Y339390D01*
X414945Y339214D01*
X415167Y339024D01*
X415374Y338819D01*
X415564Y338599D01*
X415737Y338364D01*
X415894Y338114D01*
X416034Y337852D01*
X416155Y337579D01*
X416257Y337296D01*
X416341Y337003D01*
X416406Y336700D01*
X416453Y336386D01*
X416481Y336062D01*
X416490Y335728D01*
X416490Y332978D01*
X406829Y332978D01*
G37*
%LPD*%
G36*
X415036Y358967D02*
X417830Y358967D01*
X417830Y360456D01*
X415036Y360456D01*
X415036Y362190D01*
X413792Y362190D01*
X413792Y360456D01*
X405489Y360456D01*
X405489Y358800D01*
X413810Y353151D01*
X415036Y353151D01*
X415036Y358967D01*
G37*
G36*
X417830Y329058D02*
X416464Y329058D01*
X416464Y321009D01*
X412163Y321009D01*
X412163Y328173D01*
X410814Y328173D01*
X410814Y321009D01*
X406856Y321009D01*
X406856Y328699D01*
X405489Y328699D01*
X405489Y319336D01*
X417830Y319336D01*
X417830Y329058D01*
G37*
G36*
X417830Y351871D02*
X416490Y351871D01*
X416490Y348867D01*
X405489Y348867D01*
X405489Y347413D01*
X407495Y344496D01*
X408984Y344496D01*
X406996Y347281D01*
X416490Y347281D01*
X416490Y344137D01*
X417830Y344137D01*
X417830Y351871D01*
G37*
G36*
X417830Y317276D02*
X416464Y317276D01*
X416464Y311040D01*
X405489Y311040D01*
X405489Y309367D01*
X417830Y309367D01*
X417830Y317276D01*
G37*
%LPC*%
G36*
X413617Y354745D02*
X412969Y355218D01*
X408309Y358380D01*
X407731Y358722D01*
X407267Y358967D01*
X413792Y358967D01*
X413792Y354605D01*
X413617Y354745D01*
G37*
%LPD*%
G36*
X417830Y450220D02*
X417818Y450661D01*
X417782Y451088D01*
X417723Y451501D01*
X417640Y451902D01*
X417532Y452290D01*
X417401Y452664D01*
X417247Y453025D01*
X417068Y453374D01*
X416867Y453705D01*
X416645Y454018D01*
X416402Y454311D01*
X416139Y454584D01*
X415854Y454839D01*
X415548Y455073D01*
X415222Y455289D01*
X414874Y455484D01*
X414509Y455659D01*
X414128Y455810D01*
X413733Y455938D01*
X413323Y456043D01*
X412898Y456124D01*
X412457Y456182D01*
X412003Y456217D01*
X411533Y456229D01*
X411175Y456222D01*
X410829Y456202D01*
X410492Y456169D01*
X410166Y456122D01*
X409850Y456062D01*
X409545Y455989D01*
X409250Y455903D01*
X408965Y455803D01*
X408691Y455690D01*
X408427Y455563D01*
X408174Y455424D01*
X407930Y455271D01*
X407698Y455104D01*
X407475Y454925D01*
X407263Y454732D01*
X407061Y454525D01*
X406871Y454307D01*
X406693Y454077D01*
X406527Y453836D01*
X406374Y453584D01*
X406232Y453321D01*
X406103Y453046D01*
X405987Y452761D01*
X405882Y452464D01*
X405790Y452156D01*
X405710Y451836D01*
X405643Y451506D01*
X405588Y451164D01*
X405545Y450812D01*
X405514Y450448D01*
X405495Y450073D01*
X405489Y449686D01*
X405489Y445605D01*
X417830Y445605D01*
X417830Y450220D01*
G37*
%LPC*%
G36*
X406829Y447278D02*
X406829Y449651D01*
X406848Y450229D01*
X406905Y450772D01*
X406999Y451280D01*
X407130Y451752D01*
X407300Y452189D01*
X407507Y452592D01*
X407751Y452959D01*
X408034Y453290D01*
X408352Y453585D01*
X408704Y453840D01*
X409090Y454056D01*
X409511Y454233D01*
X409965Y454370D01*
X410453Y454469D01*
X410976Y454528D01*
X411533Y454547D01*
X411907Y454539D01*
X412269Y454513D01*
X412619Y454470D01*
X412956Y454409D01*
X413280Y454332D01*
X413592Y454237D01*
X413891Y454125D01*
X414178Y453995D01*
X414450Y453850D01*
X414705Y453690D01*
X414945Y453514D01*
X415167Y453324D01*
X415374Y453119D01*
X415564Y452899D01*
X415737Y452664D01*
X415894Y452414D01*
X416034Y452152D01*
X416155Y451879D01*
X416257Y451596D01*
X416341Y451303D01*
X416406Y451000D01*
X416453Y450686D01*
X416481Y450362D01*
X416490Y450028D01*
X416490Y447278D01*
X406829Y447278D01*
G37*
%LPD*%
G36*
X417830Y443358D02*
X416464Y443358D01*
X416464Y435309D01*
X412163Y435309D01*
X412163Y442473D01*
X410814Y442473D01*
X410814Y435309D01*
X406856Y435309D01*
X406856Y442999D01*
X405489Y442999D01*
X405489Y433636D01*
X417830Y433636D01*
X417830Y443358D01*
G37*
G36*
X415417Y467840D02*
X415743Y467947D01*
X416047Y468078D01*
X416330Y468233D01*
X416592Y468413D01*
X416833Y468617D01*
X417053Y468845D01*
X417252Y469098D01*
X417429Y469373D01*
X417582Y469669D01*
X417711Y469986D01*
X417817Y470324D01*
X417899Y470683D01*
X417958Y471062D01*
X417993Y471462D01*
X418005Y471883D01*
X417988Y472384D01*
X417935Y472856D01*
X417848Y473300D01*
X417725Y473717D01*
X417567Y474105D01*
X417375Y474465D01*
X417147Y474798D01*
X416884Y475102D01*
X416591Y475374D01*
X416272Y475609D01*
X415926Y475809D01*
X415555Y475972D01*
X415158Y476099D01*
X414734Y476190D01*
X414285Y476244D01*
X413810Y476262D01*
X413391Y476245D01*
X412992Y476195D01*
X412613Y476110D01*
X412255Y475992D01*
X411917Y475840D01*
X411599Y475654D01*
X411302Y475434D01*
X411025Y475181D01*
X410774Y474899D01*
X410557Y474594D01*
X410373Y474265D01*
X410223Y473914D01*
X410106Y473539D01*
X410023Y473142D01*
X409973Y472721D01*
X409956Y472277D01*
X409968Y471904D01*
X410005Y471546D01*
X410067Y471204D01*
X410153Y470878D01*
X410264Y470567D01*
X410400Y470272D01*
X410560Y469992D01*
X410744Y469728D01*
X406829Y469965D01*
X406829Y475544D01*
X405489Y475544D01*
X405489Y468528D01*
X412128Y468117D01*
X412128Y469658D01*
X411905Y469934D01*
X411717Y470210D01*
X411563Y470486D01*
X411445Y470762D01*
X411357Y471043D01*
X411294Y471336D01*
X411256Y471639D01*
X411244Y471953D01*
X411255Y472252D01*
X411288Y472535D01*
X411345Y472802D01*
X411423Y473053D01*
X411524Y473289D01*
X411648Y473509D01*
X411793Y473713D01*
X411962Y473902D01*
X412148Y474071D01*
X412349Y474218D01*
X412563Y474342D01*
X412792Y474444D01*
X413034Y474523D01*
X413290Y474579D01*
X413561Y474613D01*
X413845Y474624D01*
X414171Y474613D01*
X414479Y474580D01*
X414769Y474523D01*
X415042Y474445D01*
X415296Y474344D01*
X415532Y474220D01*
X415751Y474075D01*
X415951Y473906D01*
X416131Y473718D01*
X416287Y473513D01*
X416418Y473290D01*
X416526Y473050D01*
X416610Y472793D01*
X416670Y472519D01*
X416706Y472227D01*
X416718Y471918D01*
X416711Y471666D01*
X416689Y471426D01*
X416653Y471198D01*
X416603Y470983D01*
X416539Y470779D01*
X416460Y470588D01*
X416367Y470409D01*
X416260Y470243D01*
X416139Y470089D01*
X416003Y469947D01*
X415852Y469817D01*
X415688Y469699D01*
X415509Y469594D01*
X415316Y469501D01*
X415109Y469420D01*
X414887Y469352D01*
X415071Y467758D01*
X415417Y467840D01*
G37*
G36*
X417830Y466171D02*
X416490Y466171D01*
X416490Y463167D01*
X405489Y463167D01*
X405489Y461713D01*
X407495Y458796D01*
X408984Y458796D01*
X406996Y461581D01*
X416490Y461581D01*
X416490Y458437D01*
X417830Y458437D01*
X417830Y466171D01*
G37*
G36*
X417830Y431576D02*
X416464Y431576D01*
X416464Y425340D01*
X405489Y425340D01*
X405489Y423667D01*
X417830Y423667D01*
X417830Y431576D01*
G37*
D10*
X119888Y114300D02*
X104648Y120650D01*
X104648Y107950D01*
X119888Y114300D01*
X122428Y122682D02*
X122428Y94996D01*
X122428Y28194D02*
X282448Y28194D01*
X282448Y50546D01*
X282448Y122682D02*
X260604Y122682D01*
X144272Y122682D02*
X122428Y122682D01*
X160528Y122682D02*
X164084Y122682D01*
X180594Y122682D02*
X184150Y122682D01*
X200660Y122682D02*
X204216Y122682D01*
X220726Y122682D02*
X224282Y122682D01*
X240538Y122682D02*
X244094Y122682D01*
X122428Y50546D02*
X122428Y28194D01*
X282448Y94996D02*
X282448Y122682D01*
X301752Y552450D02*
X286512Y558800D01*
X301752Y552450D02*
X301752Y565150D01*
X286512Y558800D01*
X283972Y550418D02*
X283972Y578104D01*
X283972Y644906D02*
X123952Y644906D01*
X123952Y622554D01*
X123952Y550418D02*
X145796Y550418D01*
X262128Y550418D02*
X283972Y550418D01*
X245872Y550418D02*
X242316Y550418D01*
X225806Y550418D02*
X222250Y550418D01*
X205740Y550418D02*
X202184Y550418D01*
X185674Y550418D02*
X182118Y550418D01*
X165862Y550418D02*
X162306Y550418D01*
X283972Y622554D02*
X283972Y644906D01*
X123952Y578104D02*
X123952Y550418D01*
D11*
X46660Y247330D02*
X46660Y207330D01*
X6660Y207330D01*
X6660Y247330D01*
X46660Y247330D01*
X24660Y250330D02*
X24662Y250419D01*
X24668Y250508D01*
X24678Y250597D01*
X24692Y250685D01*
X24709Y250772D01*
X24731Y250858D01*
X24757Y250944D01*
X24786Y251028D01*
X24819Y251111D01*
X24855Y251192D01*
X24896Y251272D01*
X24939Y251349D01*
X24986Y251425D01*
X25037Y251498D01*
X25090Y251569D01*
X25147Y251638D01*
X25207Y251704D01*
X25270Y251768D01*
X25335Y251828D01*
X25403Y251886D01*
X25474Y251940D01*
X25547Y251991D01*
X25622Y252039D01*
X25699Y252084D01*
X25778Y252125D01*
X25859Y252162D01*
X25941Y252196D01*
X26025Y252227D01*
X26110Y252253D01*
X26196Y252276D01*
X26283Y252294D01*
X26371Y252309D01*
X26460Y252320D01*
X26549Y252327D01*
X26638Y252330D01*
X26727Y252329D01*
X26816Y252324D01*
X26904Y252315D01*
X26993Y252302D01*
X27080Y252285D01*
X27167Y252265D01*
X27253Y252240D01*
X27337Y252212D01*
X27420Y252180D01*
X27502Y252144D01*
X27582Y252105D01*
X27660Y252062D01*
X27736Y252016D01*
X27810Y251966D01*
X27882Y251913D01*
X27951Y251857D01*
X28018Y251798D01*
X28082Y251736D01*
X28143Y251672D01*
X28202Y251604D01*
X28257Y251534D01*
X28309Y251462D01*
X28358Y251387D01*
X28403Y251311D01*
X28445Y251232D01*
X28483Y251152D01*
X28518Y251070D01*
X28549Y250986D01*
X28577Y250901D01*
X28600Y250815D01*
X28620Y250728D01*
X28636Y250641D01*
X28648Y250552D01*
X28656Y250464D01*
X28660Y250375D01*
X28660Y250285D01*
X28656Y250196D01*
X28648Y250108D01*
X28636Y250019D01*
X28620Y249932D01*
X28600Y249845D01*
X28577Y249759D01*
X28549Y249674D01*
X28518Y249590D01*
X28483Y249508D01*
X28445Y249428D01*
X28403Y249349D01*
X28358Y249273D01*
X28309Y249198D01*
X28257Y249126D01*
X28202Y249056D01*
X28143Y248988D01*
X28082Y248924D01*
X28018Y248862D01*
X27951Y248803D01*
X27882Y248747D01*
X27810Y248694D01*
X27736Y248644D01*
X27660Y248598D01*
X27582Y248555D01*
X27502Y248516D01*
X27420Y248480D01*
X27337Y248448D01*
X27253Y248420D01*
X27167Y248395D01*
X27080Y248375D01*
X26993Y248358D01*
X26904Y248345D01*
X26816Y248336D01*
X26727Y248331D01*
X26638Y248330D01*
X26549Y248333D01*
X26460Y248340D01*
X26371Y248351D01*
X26283Y248366D01*
X26196Y248384D01*
X26110Y248407D01*
X26025Y248433D01*
X25941Y248464D01*
X25859Y248498D01*
X25778Y248535D01*
X25699Y248576D01*
X25622Y248621D01*
X25547Y248669D01*
X25474Y248720D01*
X25403Y248774D01*
X25335Y248832D01*
X25270Y248892D01*
X25207Y248956D01*
X25147Y249022D01*
X25090Y249091D01*
X25037Y249162D01*
X24986Y249235D01*
X24939Y249311D01*
X24896Y249388D01*
X24855Y249468D01*
X24819Y249549D01*
X24786Y249632D01*
X24757Y249716D01*
X24731Y249802D01*
X24709Y249888D01*
X24692Y249975D01*
X24678Y250063D01*
X24668Y250152D01*
X24662Y250241D01*
X24660Y250330D01*
X46660Y321630D02*
X46660Y361630D01*
X46660Y321630D02*
X6660Y321630D01*
X6660Y361630D01*
X46660Y361630D01*
X24660Y364630D02*
X24662Y364719D01*
X24668Y364808D01*
X24678Y364897D01*
X24692Y364985D01*
X24709Y365072D01*
X24731Y365158D01*
X24757Y365244D01*
X24786Y365328D01*
X24819Y365411D01*
X24855Y365492D01*
X24896Y365572D01*
X24939Y365649D01*
X24986Y365725D01*
X25037Y365798D01*
X25090Y365869D01*
X25147Y365938D01*
X25207Y366004D01*
X25270Y366068D01*
X25335Y366128D01*
X25403Y366186D01*
X25474Y366240D01*
X25547Y366291D01*
X25622Y366339D01*
X25699Y366384D01*
X25778Y366425D01*
X25859Y366462D01*
X25941Y366496D01*
X26025Y366527D01*
X26110Y366553D01*
X26196Y366576D01*
X26283Y366594D01*
X26371Y366609D01*
X26460Y366620D01*
X26549Y366627D01*
X26638Y366630D01*
X26727Y366629D01*
X26816Y366624D01*
X26904Y366615D01*
X26993Y366602D01*
X27080Y366585D01*
X27167Y366565D01*
X27253Y366540D01*
X27337Y366512D01*
X27420Y366480D01*
X27502Y366444D01*
X27582Y366405D01*
X27660Y366362D01*
X27736Y366316D01*
X27810Y366266D01*
X27882Y366213D01*
X27951Y366157D01*
X28018Y366098D01*
X28082Y366036D01*
X28143Y365972D01*
X28202Y365904D01*
X28257Y365834D01*
X28309Y365762D01*
X28358Y365687D01*
X28403Y365611D01*
X28445Y365532D01*
X28483Y365452D01*
X28518Y365370D01*
X28549Y365286D01*
X28577Y365201D01*
X28600Y365115D01*
X28620Y365028D01*
X28636Y364941D01*
X28648Y364852D01*
X28656Y364764D01*
X28660Y364675D01*
X28660Y364585D01*
X28656Y364496D01*
X28648Y364408D01*
X28636Y364319D01*
X28620Y364232D01*
X28600Y364145D01*
X28577Y364059D01*
X28549Y363974D01*
X28518Y363890D01*
X28483Y363808D01*
X28445Y363728D01*
X28403Y363649D01*
X28358Y363573D01*
X28309Y363498D01*
X28257Y363426D01*
X28202Y363356D01*
X28143Y363288D01*
X28082Y363224D01*
X28018Y363162D01*
X27951Y363103D01*
X27882Y363047D01*
X27810Y362994D01*
X27736Y362944D01*
X27660Y362898D01*
X27582Y362855D01*
X27502Y362816D01*
X27420Y362780D01*
X27337Y362748D01*
X27253Y362720D01*
X27167Y362695D01*
X27080Y362675D01*
X26993Y362658D01*
X26904Y362645D01*
X26816Y362636D01*
X26727Y362631D01*
X26638Y362630D01*
X26549Y362633D01*
X26460Y362640D01*
X26371Y362651D01*
X26283Y362666D01*
X26196Y362684D01*
X26110Y362707D01*
X26025Y362733D01*
X25941Y362764D01*
X25859Y362798D01*
X25778Y362835D01*
X25699Y362876D01*
X25622Y362921D01*
X25547Y362969D01*
X25474Y363020D01*
X25403Y363074D01*
X25335Y363132D01*
X25270Y363192D01*
X25207Y363256D01*
X25147Y363322D01*
X25090Y363391D01*
X25037Y363462D01*
X24986Y363535D01*
X24939Y363611D01*
X24896Y363688D01*
X24855Y363768D01*
X24819Y363849D01*
X24786Y363932D01*
X24757Y364016D01*
X24731Y364102D01*
X24709Y364188D01*
X24692Y364275D01*
X24678Y364363D01*
X24668Y364452D01*
X24662Y364541D01*
X24660Y364630D01*
X46660Y435930D02*
X46660Y475930D01*
X46660Y435930D02*
X6660Y435930D01*
X6660Y475930D01*
X46660Y475930D01*
X24660Y478930D02*
X24662Y479019D01*
X24668Y479108D01*
X24678Y479197D01*
X24692Y479285D01*
X24709Y479372D01*
X24731Y479458D01*
X24757Y479544D01*
X24786Y479628D01*
X24819Y479711D01*
X24855Y479792D01*
X24896Y479872D01*
X24939Y479949D01*
X24986Y480025D01*
X25037Y480098D01*
X25090Y480169D01*
X25147Y480238D01*
X25207Y480304D01*
X25270Y480368D01*
X25335Y480428D01*
X25403Y480486D01*
X25474Y480540D01*
X25547Y480591D01*
X25622Y480639D01*
X25699Y480684D01*
X25778Y480725D01*
X25859Y480762D01*
X25941Y480796D01*
X26025Y480827D01*
X26110Y480853D01*
X26196Y480876D01*
X26283Y480894D01*
X26371Y480909D01*
X26460Y480920D01*
X26549Y480927D01*
X26638Y480930D01*
X26727Y480929D01*
X26816Y480924D01*
X26904Y480915D01*
X26993Y480902D01*
X27080Y480885D01*
X27167Y480865D01*
X27253Y480840D01*
X27337Y480812D01*
X27420Y480780D01*
X27502Y480744D01*
X27582Y480705D01*
X27660Y480662D01*
X27736Y480616D01*
X27810Y480566D01*
X27882Y480513D01*
X27951Y480457D01*
X28018Y480398D01*
X28082Y480336D01*
X28143Y480272D01*
X28202Y480204D01*
X28257Y480134D01*
X28309Y480062D01*
X28358Y479987D01*
X28403Y479911D01*
X28445Y479832D01*
X28483Y479752D01*
X28518Y479670D01*
X28549Y479586D01*
X28577Y479501D01*
X28600Y479415D01*
X28620Y479328D01*
X28636Y479241D01*
X28648Y479152D01*
X28656Y479064D01*
X28660Y478975D01*
X28660Y478885D01*
X28656Y478796D01*
X28648Y478708D01*
X28636Y478619D01*
X28620Y478532D01*
X28600Y478445D01*
X28577Y478359D01*
X28549Y478274D01*
X28518Y478190D01*
X28483Y478108D01*
X28445Y478028D01*
X28403Y477949D01*
X28358Y477873D01*
X28309Y477798D01*
X28257Y477726D01*
X28202Y477656D01*
X28143Y477588D01*
X28082Y477524D01*
X28018Y477462D01*
X27951Y477403D01*
X27882Y477347D01*
X27810Y477294D01*
X27736Y477244D01*
X27660Y477198D01*
X27582Y477155D01*
X27502Y477116D01*
X27420Y477080D01*
X27337Y477048D01*
X27253Y477020D01*
X27167Y476995D01*
X27080Y476975D01*
X26993Y476958D01*
X26904Y476945D01*
X26816Y476936D01*
X26727Y476931D01*
X26638Y476930D01*
X26549Y476933D01*
X26460Y476940D01*
X26371Y476951D01*
X26283Y476966D01*
X26196Y476984D01*
X26110Y477007D01*
X26025Y477033D01*
X25941Y477064D01*
X25859Y477098D01*
X25778Y477135D01*
X25699Y477176D01*
X25622Y477221D01*
X25547Y477269D01*
X25474Y477320D01*
X25403Y477374D01*
X25335Y477432D01*
X25270Y477492D01*
X25207Y477556D01*
X25147Y477622D01*
X25090Y477691D01*
X25037Y477762D01*
X24986Y477835D01*
X24939Y477911D01*
X24896Y477988D01*
X24855Y478068D01*
X24819Y478149D01*
X24786Y478232D01*
X24757Y478316D01*
X24731Y478402D01*
X24709Y478488D01*
X24692Y478575D01*
X24678Y478663D01*
X24668Y478752D01*
X24662Y478841D01*
X24660Y478930D01*
X134300Y247330D02*
X134300Y207330D01*
X94300Y207330D01*
X94300Y247330D01*
X134300Y247330D01*
X112300Y250330D02*
X112302Y250419D01*
X112308Y250508D01*
X112318Y250597D01*
X112332Y250685D01*
X112349Y250772D01*
X112371Y250858D01*
X112397Y250944D01*
X112426Y251028D01*
X112459Y251111D01*
X112495Y251192D01*
X112536Y251272D01*
X112579Y251349D01*
X112626Y251425D01*
X112677Y251498D01*
X112730Y251569D01*
X112787Y251638D01*
X112847Y251704D01*
X112910Y251768D01*
X112975Y251828D01*
X113043Y251886D01*
X113114Y251940D01*
X113187Y251991D01*
X113262Y252039D01*
X113339Y252084D01*
X113418Y252125D01*
X113499Y252162D01*
X113581Y252196D01*
X113665Y252227D01*
X113750Y252253D01*
X113836Y252276D01*
X113923Y252294D01*
X114011Y252309D01*
X114100Y252320D01*
X114189Y252327D01*
X114278Y252330D01*
X114367Y252329D01*
X114456Y252324D01*
X114544Y252315D01*
X114633Y252302D01*
X114720Y252285D01*
X114807Y252265D01*
X114893Y252240D01*
X114977Y252212D01*
X115060Y252180D01*
X115142Y252144D01*
X115222Y252105D01*
X115300Y252062D01*
X115376Y252016D01*
X115450Y251966D01*
X115522Y251913D01*
X115591Y251857D01*
X115658Y251798D01*
X115722Y251736D01*
X115783Y251672D01*
X115842Y251604D01*
X115897Y251534D01*
X115949Y251462D01*
X115998Y251387D01*
X116043Y251311D01*
X116085Y251232D01*
X116123Y251152D01*
X116158Y251070D01*
X116189Y250986D01*
X116217Y250901D01*
X116240Y250815D01*
X116260Y250728D01*
X116276Y250641D01*
X116288Y250552D01*
X116296Y250464D01*
X116300Y250375D01*
X116300Y250285D01*
X116296Y250196D01*
X116288Y250108D01*
X116276Y250019D01*
X116260Y249932D01*
X116240Y249845D01*
X116217Y249759D01*
X116189Y249674D01*
X116158Y249590D01*
X116123Y249508D01*
X116085Y249428D01*
X116043Y249349D01*
X115998Y249273D01*
X115949Y249198D01*
X115897Y249126D01*
X115842Y249056D01*
X115783Y248988D01*
X115722Y248924D01*
X115658Y248862D01*
X115591Y248803D01*
X115522Y248747D01*
X115450Y248694D01*
X115376Y248644D01*
X115300Y248598D01*
X115222Y248555D01*
X115142Y248516D01*
X115060Y248480D01*
X114977Y248448D01*
X114893Y248420D01*
X114807Y248395D01*
X114720Y248375D01*
X114633Y248358D01*
X114544Y248345D01*
X114456Y248336D01*
X114367Y248331D01*
X114278Y248330D01*
X114189Y248333D01*
X114100Y248340D01*
X114011Y248351D01*
X113923Y248366D01*
X113836Y248384D01*
X113750Y248407D01*
X113665Y248433D01*
X113581Y248464D01*
X113499Y248498D01*
X113418Y248535D01*
X113339Y248576D01*
X113262Y248621D01*
X113187Y248669D01*
X113114Y248720D01*
X113043Y248774D01*
X112975Y248832D01*
X112910Y248892D01*
X112847Y248956D01*
X112787Y249022D01*
X112730Y249091D01*
X112677Y249162D01*
X112626Y249235D01*
X112579Y249311D01*
X112536Y249388D01*
X112495Y249468D01*
X112459Y249549D01*
X112426Y249632D01*
X112397Y249716D01*
X112371Y249802D01*
X112349Y249888D01*
X112332Y249975D01*
X112318Y250063D01*
X112308Y250152D01*
X112302Y250241D01*
X112300Y250330D01*
X134300Y321630D02*
X134300Y361630D01*
X134300Y321630D02*
X94300Y321630D01*
X94300Y361630D01*
X134300Y361630D01*
X112300Y364630D02*
X112302Y364719D01*
X112308Y364808D01*
X112318Y364897D01*
X112332Y364985D01*
X112349Y365072D01*
X112371Y365158D01*
X112397Y365244D01*
X112426Y365328D01*
X112459Y365411D01*
X112495Y365492D01*
X112536Y365572D01*
X112579Y365649D01*
X112626Y365725D01*
X112677Y365798D01*
X112730Y365869D01*
X112787Y365938D01*
X112847Y366004D01*
X112910Y366068D01*
X112975Y366128D01*
X113043Y366186D01*
X113114Y366240D01*
X113187Y366291D01*
X113262Y366339D01*
X113339Y366384D01*
X113418Y366425D01*
X113499Y366462D01*
X113581Y366496D01*
X113665Y366527D01*
X113750Y366553D01*
X113836Y366576D01*
X113923Y366594D01*
X114011Y366609D01*
X114100Y366620D01*
X114189Y366627D01*
X114278Y366630D01*
X114367Y366629D01*
X114456Y366624D01*
X114544Y366615D01*
X114633Y366602D01*
X114720Y366585D01*
X114807Y366565D01*
X114893Y366540D01*
X114977Y366512D01*
X115060Y366480D01*
X115142Y366444D01*
X115222Y366405D01*
X115300Y366362D01*
X115376Y366316D01*
X115450Y366266D01*
X115522Y366213D01*
X115591Y366157D01*
X115658Y366098D01*
X115722Y366036D01*
X115783Y365972D01*
X115842Y365904D01*
X115897Y365834D01*
X115949Y365762D01*
X115998Y365687D01*
X116043Y365611D01*
X116085Y365532D01*
X116123Y365452D01*
X116158Y365370D01*
X116189Y365286D01*
X116217Y365201D01*
X116240Y365115D01*
X116260Y365028D01*
X116276Y364941D01*
X116288Y364852D01*
X116296Y364764D01*
X116300Y364675D01*
X116300Y364585D01*
X116296Y364496D01*
X116288Y364408D01*
X116276Y364319D01*
X116260Y364232D01*
X116240Y364145D01*
X116217Y364059D01*
X116189Y363974D01*
X116158Y363890D01*
X116123Y363808D01*
X116085Y363728D01*
X116043Y363649D01*
X115998Y363573D01*
X115949Y363498D01*
X115897Y363426D01*
X115842Y363356D01*
X115783Y363288D01*
X115722Y363224D01*
X115658Y363162D01*
X115591Y363103D01*
X115522Y363047D01*
X115450Y362994D01*
X115376Y362944D01*
X115300Y362898D01*
X115222Y362855D01*
X115142Y362816D01*
X115060Y362780D01*
X114977Y362748D01*
X114893Y362720D01*
X114807Y362695D01*
X114720Y362675D01*
X114633Y362658D01*
X114544Y362645D01*
X114456Y362636D01*
X114367Y362631D01*
X114278Y362630D01*
X114189Y362633D01*
X114100Y362640D01*
X114011Y362651D01*
X113923Y362666D01*
X113836Y362684D01*
X113750Y362707D01*
X113665Y362733D01*
X113581Y362764D01*
X113499Y362798D01*
X113418Y362835D01*
X113339Y362876D01*
X113262Y362921D01*
X113187Y362969D01*
X113114Y363020D01*
X113043Y363074D01*
X112975Y363132D01*
X112910Y363192D01*
X112847Y363256D01*
X112787Y363322D01*
X112730Y363391D01*
X112677Y363462D01*
X112626Y363535D01*
X112579Y363611D01*
X112536Y363688D01*
X112495Y363768D01*
X112459Y363849D01*
X112426Y363932D01*
X112397Y364016D01*
X112371Y364102D01*
X112349Y364188D01*
X112332Y364275D01*
X112318Y364363D01*
X112308Y364452D01*
X112302Y364541D01*
X112300Y364630D01*
X134300Y435930D02*
X134300Y475930D01*
X134300Y435930D02*
X94300Y435930D01*
X94300Y475930D01*
X134300Y475930D01*
X112300Y478930D02*
X112302Y479019D01*
X112308Y479108D01*
X112318Y479197D01*
X112332Y479285D01*
X112349Y479372D01*
X112371Y479458D01*
X112397Y479544D01*
X112426Y479628D01*
X112459Y479711D01*
X112495Y479792D01*
X112536Y479872D01*
X112579Y479949D01*
X112626Y480025D01*
X112677Y480098D01*
X112730Y480169D01*
X112787Y480238D01*
X112847Y480304D01*
X112910Y480368D01*
X112975Y480428D01*
X113043Y480486D01*
X113114Y480540D01*
X113187Y480591D01*
X113262Y480639D01*
X113339Y480684D01*
X113418Y480725D01*
X113499Y480762D01*
X113581Y480796D01*
X113665Y480827D01*
X113750Y480853D01*
X113836Y480876D01*
X113923Y480894D01*
X114011Y480909D01*
X114100Y480920D01*
X114189Y480927D01*
X114278Y480930D01*
X114367Y480929D01*
X114456Y480924D01*
X114544Y480915D01*
X114633Y480902D01*
X114720Y480885D01*
X114807Y480865D01*
X114893Y480840D01*
X114977Y480812D01*
X115060Y480780D01*
X115142Y480744D01*
X115222Y480705D01*
X115300Y480662D01*
X115376Y480616D01*
X115450Y480566D01*
X115522Y480513D01*
X115591Y480457D01*
X115658Y480398D01*
X115722Y480336D01*
X115783Y480272D01*
X115842Y480204D01*
X115897Y480134D01*
X115949Y480062D01*
X115998Y479987D01*
X116043Y479911D01*
X116085Y479832D01*
X116123Y479752D01*
X116158Y479670D01*
X116189Y479586D01*
X116217Y479501D01*
X116240Y479415D01*
X116260Y479328D01*
X116276Y479241D01*
X116288Y479152D01*
X116296Y479064D01*
X116300Y478975D01*
X116300Y478885D01*
X116296Y478796D01*
X116288Y478708D01*
X116276Y478619D01*
X116260Y478532D01*
X116240Y478445D01*
X116217Y478359D01*
X116189Y478274D01*
X116158Y478190D01*
X116123Y478108D01*
X116085Y478028D01*
X116043Y477949D01*
X115998Y477873D01*
X115949Y477798D01*
X115897Y477726D01*
X115842Y477656D01*
X115783Y477588D01*
X115722Y477524D01*
X115658Y477462D01*
X115591Y477403D01*
X115522Y477347D01*
X115450Y477294D01*
X115376Y477244D01*
X115300Y477198D01*
X115222Y477155D01*
X115142Y477116D01*
X115060Y477080D01*
X114977Y477048D01*
X114893Y477020D01*
X114807Y476995D01*
X114720Y476975D01*
X114633Y476958D01*
X114544Y476945D01*
X114456Y476936D01*
X114367Y476931D01*
X114278Y476930D01*
X114189Y476933D01*
X114100Y476940D01*
X114011Y476951D01*
X113923Y476966D01*
X113836Y476984D01*
X113750Y477007D01*
X113665Y477033D01*
X113581Y477064D01*
X113499Y477098D01*
X113418Y477135D01*
X113339Y477176D01*
X113262Y477221D01*
X113187Y477269D01*
X113114Y477320D01*
X113043Y477374D01*
X112975Y477432D01*
X112910Y477492D01*
X112847Y477556D01*
X112787Y477622D01*
X112730Y477691D01*
X112677Y477762D01*
X112626Y477835D01*
X112579Y477911D01*
X112536Y477988D01*
X112495Y478068D01*
X112459Y478149D01*
X112426Y478232D01*
X112397Y478316D01*
X112371Y478402D01*
X112349Y478488D01*
X112332Y478575D01*
X112318Y478663D01*
X112308Y478752D01*
X112302Y478841D01*
X112300Y478930D01*
X223200Y247330D02*
X223200Y207330D01*
X183200Y207330D01*
X183200Y247330D01*
X223200Y247330D01*
X201200Y250330D02*
X201202Y250419D01*
X201208Y250508D01*
X201218Y250597D01*
X201232Y250685D01*
X201249Y250772D01*
X201271Y250858D01*
X201297Y250944D01*
X201326Y251028D01*
X201359Y251111D01*
X201395Y251192D01*
X201436Y251272D01*
X201479Y251349D01*
X201526Y251425D01*
X201577Y251498D01*
X201630Y251569D01*
X201687Y251638D01*
X201747Y251704D01*
X201810Y251768D01*
X201875Y251828D01*
X201943Y251886D01*
X202014Y251940D01*
X202087Y251991D01*
X202162Y252039D01*
X202239Y252084D01*
X202318Y252125D01*
X202399Y252162D01*
X202481Y252196D01*
X202565Y252227D01*
X202650Y252253D01*
X202736Y252276D01*
X202823Y252294D01*
X202911Y252309D01*
X203000Y252320D01*
X203089Y252327D01*
X203178Y252330D01*
X203267Y252329D01*
X203356Y252324D01*
X203444Y252315D01*
X203533Y252302D01*
X203620Y252285D01*
X203707Y252265D01*
X203793Y252240D01*
X203877Y252212D01*
X203960Y252180D01*
X204042Y252144D01*
X204122Y252105D01*
X204200Y252062D01*
X204276Y252016D01*
X204350Y251966D01*
X204422Y251913D01*
X204491Y251857D01*
X204558Y251798D01*
X204622Y251736D01*
X204683Y251672D01*
X204742Y251604D01*
X204797Y251534D01*
X204849Y251462D01*
X204898Y251387D01*
X204943Y251311D01*
X204985Y251232D01*
X205023Y251152D01*
X205058Y251070D01*
X205089Y250986D01*
X205117Y250901D01*
X205140Y250815D01*
X205160Y250728D01*
X205176Y250641D01*
X205188Y250552D01*
X205196Y250464D01*
X205200Y250375D01*
X205200Y250285D01*
X205196Y250196D01*
X205188Y250108D01*
X205176Y250019D01*
X205160Y249932D01*
X205140Y249845D01*
X205117Y249759D01*
X205089Y249674D01*
X205058Y249590D01*
X205023Y249508D01*
X204985Y249428D01*
X204943Y249349D01*
X204898Y249273D01*
X204849Y249198D01*
X204797Y249126D01*
X204742Y249056D01*
X204683Y248988D01*
X204622Y248924D01*
X204558Y248862D01*
X204491Y248803D01*
X204422Y248747D01*
X204350Y248694D01*
X204276Y248644D01*
X204200Y248598D01*
X204122Y248555D01*
X204042Y248516D01*
X203960Y248480D01*
X203877Y248448D01*
X203793Y248420D01*
X203707Y248395D01*
X203620Y248375D01*
X203533Y248358D01*
X203444Y248345D01*
X203356Y248336D01*
X203267Y248331D01*
X203178Y248330D01*
X203089Y248333D01*
X203000Y248340D01*
X202911Y248351D01*
X202823Y248366D01*
X202736Y248384D01*
X202650Y248407D01*
X202565Y248433D01*
X202481Y248464D01*
X202399Y248498D01*
X202318Y248535D01*
X202239Y248576D01*
X202162Y248621D01*
X202087Y248669D01*
X202014Y248720D01*
X201943Y248774D01*
X201875Y248832D01*
X201810Y248892D01*
X201747Y248956D01*
X201687Y249022D01*
X201630Y249091D01*
X201577Y249162D01*
X201526Y249235D01*
X201479Y249311D01*
X201436Y249388D01*
X201395Y249468D01*
X201359Y249549D01*
X201326Y249632D01*
X201297Y249716D01*
X201271Y249802D01*
X201249Y249888D01*
X201232Y249975D01*
X201218Y250063D01*
X201208Y250152D01*
X201202Y250241D01*
X201200Y250330D01*
X223200Y321630D02*
X223200Y361630D01*
X223200Y321630D02*
X183200Y321630D01*
X183200Y361630D01*
X223200Y361630D01*
X201200Y364630D02*
X201202Y364719D01*
X201208Y364808D01*
X201218Y364897D01*
X201232Y364985D01*
X201249Y365072D01*
X201271Y365158D01*
X201297Y365244D01*
X201326Y365328D01*
X201359Y365411D01*
X201395Y365492D01*
X201436Y365572D01*
X201479Y365649D01*
X201526Y365725D01*
X201577Y365798D01*
X201630Y365869D01*
X201687Y365938D01*
X201747Y366004D01*
X201810Y366068D01*
X201875Y366128D01*
X201943Y366186D01*
X202014Y366240D01*
X202087Y366291D01*
X202162Y366339D01*
X202239Y366384D01*
X202318Y366425D01*
X202399Y366462D01*
X202481Y366496D01*
X202565Y366527D01*
X202650Y366553D01*
X202736Y366576D01*
X202823Y366594D01*
X202911Y366609D01*
X203000Y366620D01*
X203089Y366627D01*
X203178Y366630D01*
X203267Y366629D01*
X203356Y366624D01*
X203444Y366615D01*
X203533Y366602D01*
X203620Y366585D01*
X203707Y366565D01*
X203793Y366540D01*
X203877Y366512D01*
X203960Y366480D01*
X204042Y366444D01*
X204122Y366405D01*
X204200Y366362D01*
X204276Y366316D01*
X204350Y366266D01*
X204422Y366213D01*
X204491Y366157D01*
X204558Y366098D01*
X204622Y366036D01*
X204683Y365972D01*
X204742Y365904D01*
X204797Y365834D01*
X204849Y365762D01*
X204898Y365687D01*
X204943Y365611D01*
X204985Y365532D01*
X205023Y365452D01*
X205058Y365370D01*
X205089Y365286D01*
X205117Y365201D01*
X205140Y365115D01*
X205160Y365028D01*
X205176Y364941D01*
X205188Y364852D01*
X205196Y364764D01*
X205200Y364675D01*
X205200Y364585D01*
X205196Y364496D01*
X205188Y364408D01*
X205176Y364319D01*
X205160Y364232D01*
X205140Y364145D01*
X205117Y364059D01*
X205089Y363974D01*
X205058Y363890D01*
X205023Y363808D01*
X204985Y363728D01*
X204943Y363649D01*
X204898Y363573D01*
X204849Y363498D01*
X204797Y363426D01*
X204742Y363356D01*
X204683Y363288D01*
X204622Y363224D01*
X204558Y363162D01*
X204491Y363103D01*
X204422Y363047D01*
X204350Y362994D01*
X204276Y362944D01*
X204200Y362898D01*
X204122Y362855D01*
X204042Y362816D01*
X203960Y362780D01*
X203877Y362748D01*
X203793Y362720D01*
X203707Y362695D01*
X203620Y362675D01*
X203533Y362658D01*
X203444Y362645D01*
X203356Y362636D01*
X203267Y362631D01*
X203178Y362630D01*
X203089Y362633D01*
X203000Y362640D01*
X202911Y362651D01*
X202823Y362666D01*
X202736Y362684D01*
X202650Y362707D01*
X202565Y362733D01*
X202481Y362764D01*
X202399Y362798D01*
X202318Y362835D01*
X202239Y362876D01*
X202162Y362921D01*
X202087Y362969D01*
X202014Y363020D01*
X201943Y363074D01*
X201875Y363132D01*
X201810Y363192D01*
X201747Y363256D01*
X201687Y363322D01*
X201630Y363391D01*
X201577Y363462D01*
X201526Y363535D01*
X201479Y363611D01*
X201436Y363688D01*
X201395Y363768D01*
X201359Y363849D01*
X201326Y363932D01*
X201297Y364016D01*
X201271Y364102D01*
X201249Y364188D01*
X201232Y364275D01*
X201218Y364363D01*
X201208Y364452D01*
X201202Y364541D01*
X201200Y364630D01*
X223200Y435930D02*
X223200Y475930D01*
X223200Y435930D02*
X183200Y435930D01*
X183200Y475930D01*
X223200Y475930D01*
X201200Y478930D02*
X201202Y479019D01*
X201208Y479108D01*
X201218Y479197D01*
X201232Y479285D01*
X201249Y479372D01*
X201271Y479458D01*
X201297Y479544D01*
X201326Y479628D01*
X201359Y479711D01*
X201395Y479792D01*
X201436Y479872D01*
X201479Y479949D01*
X201526Y480025D01*
X201577Y480098D01*
X201630Y480169D01*
X201687Y480238D01*
X201747Y480304D01*
X201810Y480368D01*
X201875Y480428D01*
X201943Y480486D01*
X202014Y480540D01*
X202087Y480591D01*
X202162Y480639D01*
X202239Y480684D01*
X202318Y480725D01*
X202399Y480762D01*
X202481Y480796D01*
X202565Y480827D01*
X202650Y480853D01*
X202736Y480876D01*
X202823Y480894D01*
X202911Y480909D01*
X203000Y480920D01*
X203089Y480927D01*
X203178Y480930D01*
X203267Y480929D01*
X203356Y480924D01*
X203444Y480915D01*
X203533Y480902D01*
X203620Y480885D01*
X203707Y480865D01*
X203793Y480840D01*
X203877Y480812D01*
X203960Y480780D01*
X204042Y480744D01*
X204122Y480705D01*
X204200Y480662D01*
X204276Y480616D01*
X204350Y480566D01*
X204422Y480513D01*
X204491Y480457D01*
X204558Y480398D01*
X204622Y480336D01*
X204683Y480272D01*
X204742Y480204D01*
X204797Y480134D01*
X204849Y480062D01*
X204898Y479987D01*
X204943Y479911D01*
X204985Y479832D01*
X205023Y479752D01*
X205058Y479670D01*
X205089Y479586D01*
X205117Y479501D01*
X205140Y479415D01*
X205160Y479328D01*
X205176Y479241D01*
X205188Y479152D01*
X205196Y479064D01*
X205200Y478975D01*
X205200Y478885D01*
X205196Y478796D01*
X205188Y478708D01*
X205176Y478619D01*
X205160Y478532D01*
X205140Y478445D01*
X205117Y478359D01*
X205089Y478274D01*
X205058Y478190D01*
X205023Y478108D01*
X204985Y478028D01*
X204943Y477949D01*
X204898Y477873D01*
X204849Y477798D01*
X204797Y477726D01*
X204742Y477656D01*
X204683Y477588D01*
X204622Y477524D01*
X204558Y477462D01*
X204491Y477403D01*
X204422Y477347D01*
X204350Y477294D01*
X204276Y477244D01*
X204200Y477198D01*
X204122Y477155D01*
X204042Y477116D01*
X203960Y477080D01*
X203877Y477048D01*
X203793Y477020D01*
X203707Y476995D01*
X203620Y476975D01*
X203533Y476958D01*
X203444Y476945D01*
X203356Y476936D01*
X203267Y476931D01*
X203178Y476930D01*
X203089Y476933D01*
X203000Y476940D01*
X202911Y476951D01*
X202823Y476966D01*
X202736Y476984D01*
X202650Y477007D01*
X202565Y477033D01*
X202481Y477064D01*
X202399Y477098D01*
X202318Y477135D01*
X202239Y477176D01*
X202162Y477221D01*
X202087Y477269D01*
X202014Y477320D01*
X201943Y477374D01*
X201875Y477432D01*
X201810Y477492D01*
X201747Y477556D01*
X201687Y477622D01*
X201630Y477691D01*
X201577Y477762D01*
X201526Y477835D01*
X201479Y477911D01*
X201436Y477988D01*
X201395Y478068D01*
X201359Y478149D01*
X201326Y478232D01*
X201297Y478316D01*
X201271Y478402D01*
X201249Y478488D01*
X201232Y478575D01*
X201218Y478663D01*
X201208Y478752D01*
X201202Y478841D01*
X201200Y478930D01*
X312100Y247330D02*
X312100Y207330D01*
X272100Y207330D01*
X272100Y247330D01*
X312100Y247330D01*
X290100Y250330D02*
X290102Y250419D01*
X290108Y250508D01*
X290118Y250597D01*
X290132Y250685D01*
X290149Y250772D01*
X290171Y250858D01*
X290197Y250944D01*
X290226Y251028D01*
X290259Y251111D01*
X290295Y251192D01*
X290336Y251272D01*
X290379Y251349D01*
X290426Y251425D01*
X290477Y251498D01*
X290530Y251569D01*
X290587Y251638D01*
X290647Y251704D01*
X290710Y251768D01*
X290775Y251828D01*
X290843Y251886D01*
X290914Y251940D01*
X290987Y251991D01*
X291062Y252039D01*
X291139Y252084D01*
X291218Y252125D01*
X291299Y252162D01*
X291381Y252196D01*
X291465Y252227D01*
X291550Y252253D01*
X291636Y252276D01*
X291723Y252294D01*
X291811Y252309D01*
X291900Y252320D01*
X291989Y252327D01*
X292078Y252330D01*
X292167Y252329D01*
X292256Y252324D01*
X292344Y252315D01*
X292433Y252302D01*
X292520Y252285D01*
X292607Y252265D01*
X292693Y252240D01*
X292777Y252212D01*
X292860Y252180D01*
X292942Y252144D01*
X293022Y252105D01*
X293100Y252062D01*
X293176Y252016D01*
X293250Y251966D01*
X293322Y251913D01*
X293391Y251857D01*
X293458Y251798D01*
X293522Y251736D01*
X293583Y251672D01*
X293642Y251604D01*
X293697Y251534D01*
X293749Y251462D01*
X293798Y251387D01*
X293843Y251311D01*
X293885Y251232D01*
X293923Y251152D01*
X293958Y251070D01*
X293989Y250986D01*
X294017Y250901D01*
X294040Y250815D01*
X294060Y250728D01*
X294076Y250641D01*
X294088Y250552D01*
X294096Y250464D01*
X294100Y250375D01*
X294100Y250285D01*
X294096Y250196D01*
X294088Y250108D01*
X294076Y250019D01*
X294060Y249932D01*
X294040Y249845D01*
X294017Y249759D01*
X293989Y249674D01*
X293958Y249590D01*
X293923Y249508D01*
X293885Y249428D01*
X293843Y249349D01*
X293798Y249273D01*
X293749Y249198D01*
X293697Y249126D01*
X293642Y249056D01*
X293583Y248988D01*
X293522Y248924D01*
X293458Y248862D01*
X293391Y248803D01*
X293322Y248747D01*
X293250Y248694D01*
X293176Y248644D01*
X293100Y248598D01*
X293022Y248555D01*
X292942Y248516D01*
X292860Y248480D01*
X292777Y248448D01*
X292693Y248420D01*
X292607Y248395D01*
X292520Y248375D01*
X292433Y248358D01*
X292344Y248345D01*
X292256Y248336D01*
X292167Y248331D01*
X292078Y248330D01*
X291989Y248333D01*
X291900Y248340D01*
X291811Y248351D01*
X291723Y248366D01*
X291636Y248384D01*
X291550Y248407D01*
X291465Y248433D01*
X291381Y248464D01*
X291299Y248498D01*
X291218Y248535D01*
X291139Y248576D01*
X291062Y248621D01*
X290987Y248669D01*
X290914Y248720D01*
X290843Y248774D01*
X290775Y248832D01*
X290710Y248892D01*
X290647Y248956D01*
X290587Y249022D01*
X290530Y249091D01*
X290477Y249162D01*
X290426Y249235D01*
X290379Y249311D01*
X290336Y249388D01*
X290295Y249468D01*
X290259Y249549D01*
X290226Y249632D01*
X290197Y249716D01*
X290171Y249802D01*
X290149Y249888D01*
X290132Y249975D01*
X290118Y250063D01*
X290108Y250152D01*
X290102Y250241D01*
X290100Y250330D01*
X312100Y321630D02*
X312100Y361630D01*
X312100Y321630D02*
X272100Y321630D01*
X272100Y361630D01*
X312100Y361630D01*
X290100Y364630D02*
X290102Y364719D01*
X290108Y364808D01*
X290118Y364897D01*
X290132Y364985D01*
X290149Y365072D01*
X290171Y365158D01*
X290197Y365244D01*
X290226Y365328D01*
X290259Y365411D01*
X290295Y365492D01*
X290336Y365572D01*
X290379Y365649D01*
X290426Y365725D01*
X290477Y365798D01*
X290530Y365869D01*
X290587Y365938D01*
X290647Y366004D01*
X290710Y366068D01*
X290775Y366128D01*
X290843Y366186D01*
X290914Y366240D01*
X290987Y366291D01*
X291062Y366339D01*
X291139Y366384D01*
X291218Y366425D01*
X291299Y366462D01*
X291381Y366496D01*
X291465Y366527D01*
X291550Y366553D01*
X291636Y366576D01*
X291723Y366594D01*
X291811Y366609D01*
X291900Y366620D01*
X291989Y366627D01*
X292078Y366630D01*
X292167Y366629D01*
X292256Y366624D01*
X292344Y366615D01*
X292433Y366602D01*
X292520Y366585D01*
X292607Y366565D01*
X292693Y366540D01*
X292777Y366512D01*
X292860Y366480D01*
X292942Y366444D01*
X293022Y366405D01*
X293100Y366362D01*
X293176Y366316D01*
X293250Y366266D01*
X293322Y366213D01*
X293391Y366157D01*
X293458Y366098D01*
X293522Y366036D01*
X293583Y365972D01*
X293642Y365904D01*
X293697Y365834D01*
X293749Y365762D01*
X293798Y365687D01*
X293843Y365611D01*
X293885Y365532D01*
X293923Y365452D01*
X293958Y365370D01*
X293989Y365286D01*
X294017Y365201D01*
X294040Y365115D01*
X294060Y365028D01*
X294076Y364941D01*
X294088Y364852D01*
X294096Y364764D01*
X294100Y364675D01*
X294100Y364585D01*
X294096Y364496D01*
X294088Y364408D01*
X294076Y364319D01*
X294060Y364232D01*
X294040Y364145D01*
X294017Y364059D01*
X293989Y363974D01*
X293958Y363890D01*
X293923Y363808D01*
X293885Y363728D01*
X293843Y363649D01*
X293798Y363573D01*
X293749Y363498D01*
X293697Y363426D01*
X293642Y363356D01*
X293583Y363288D01*
X293522Y363224D01*
X293458Y363162D01*
X293391Y363103D01*
X293322Y363047D01*
X293250Y362994D01*
X293176Y362944D01*
X293100Y362898D01*
X293022Y362855D01*
X292942Y362816D01*
X292860Y362780D01*
X292777Y362748D01*
X292693Y362720D01*
X292607Y362695D01*
X292520Y362675D01*
X292433Y362658D01*
X292344Y362645D01*
X292256Y362636D01*
X292167Y362631D01*
X292078Y362630D01*
X291989Y362633D01*
X291900Y362640D01*
X291811Y362651D01*
X291723Y362666D01*
X291636Y362684D01*
X291550Y362707D01*
X291465Y362733D01*
X291381Y362764D01*
X291299Y362798D01*
X291218Y362835D01*
X291139Y362876D01*
X291062Y362921D01*
X290987Y362969D01*
X290914Y363020D01*
X290843Y363074D01*
X290775Y363132D01*
X290710Y363192D01*
X290647Y363256D01*
X290587Y363322D01*
X290530Y363391D01*
X290477Y363462D01*
X290426Y363535D01*
X290379Y363611D01*
X290336Y363688D01*
X290295Y363768D01*
X290259Y363849D01*
X290226Y363932D01*
X290197Y364016D01*
X290171Y364102D01*
X290149Y364188D01*
X290132Y364275D01*
X290118Y364363D01*
X290108Y364452D01*
X290102Y364541D01*
X290100Y364630D01*
X312100Y435930D02*
X312100Y475930D01*
X312100Y435930D02*
X272100Y435930D01*
X272100Y475930D01*
X312100Y475930D01*
X290100Y478930D02*
X290102Y479019D01*
X290108Y479108D01*
X290118Y479197D01*
X290132Y479285D01*
X290149Y479372D01*
X290171Y479458D01*
X290197Y479544D01*
X290226Y479628D01*
X290259Y479711D01*
X290295Y479792D01*
X290336Y479872D01*
X290379Y479949D01*
X290426Y480025D01*
X290477Y480098D01*
X290530Y480169D01*
X290587Y480238D01*
X290647Y480304D01*
X290710Y480368D01*
X290775Y480428D01*
X290843Y480486D01*
X290914Y480540D01*
X290987Y480591D01*
X291062Y480639D01*
X291139Y480684D01*
X291218Y480725D01*
X291299Y480762D01*
X291381Y480796D01*
X291465Y480827D01*
X291550Y480853D01*
X291636Y480876D01*
X291723Y480894D01*
X291811Y480909D01*
X291900Y480920D01*
X291989Y480927D01*
X292078Y480930D01*
X292167Y480929D01*
X292256Y480924D01*
X292344Y480915D01*
X292433Y480902D01*
X292520Y480885D01*
X292607Y480865D01*
X292693Y480840D01*
X292777Y480812D01*
X292860Y480780D01*
X292942Y480744D01*
X293022Y480705D01*
X293100Y480662D01*
X293176Y480616D01*
X293250Y480566D01*
X293322Y480513D01*
X293391Y480457D01*
X293458Y480398D01*
X293522Y480336D01*
X293583Y480272D01*
X293642Y480204D01*
X293697Y480134D01*
X293749Y480062D01*
X293798Y479987D01*
X293843Y479911D01*
X293885Y479832D01*
X293923Y479752D01*
X293958Y479670D01*
X293989Y479586D01*
X294017Y479501D01*
X294040Y479415D01*
X294060Y479328D01*
X294076Y479241D01*
X294088Y479152D01*
X294096Y479064D01*
X294100Y478975D01*
X294100Y478885D01*
X294096Y478796D01*
X294088Y478708D01*
X294076Y478619D01*
X294060Y478532D01*
X294040Y478445D01*
X294017Y478359D01*
X293989Y478274D01*
X293958Y478190D01*
X293923Y478108D01*
X293885Y478028D01*
X293843Y477949D01*
X293798Y477873D01*
X293749Y477798D01*
X293697Y477726D01*
X293642Y477656D01*
X293583Y477588D01*
X293522Y477524D01*
X293458Y477462D01*
X293391Y477403D01*
X293322Y477347D01*
X293250Y477294D01*
X293176Y477244D01*
X293100Y477198D01*
X293022Y477155D01*
X292942Y477116D01*
X292860Y477080D01*
X292777Y477048D01*
X292693Y477020D01*
X292607Y476995D01*
X292520Y476975D01*
X292433Y476958D01*
X292344Y476945D01*
X292256Y476936D01*
X292167Y476931D01*
X292078Y476930D01*
X291989Y476933D01*
X291900Y476940D01*
X291811Y476951D01*
X291723Y476966D01*
X291636Y476984D01*
X291550Y477007D01*
X291465Y477033D01*
X291381Y477064D01*
X291299Y477098D01*
X291218Y477135D01*
X291139Y477176D01*
X291062Y477221D01*
X290987Y477269D01*
X290914Y477320D01*
X290843Y477374D01*
X290775Y477432D01*
X290710Y477492D01*
X290647Y477556D01*
X290587Y477622D01*
X290530Y477691D01*
X290477Y477762D01*
X290426Y477835D01*
X290379Y477911D01*
X290336Y477988D01*
X290295Y478068D01*
X290259Y478149D01*
X290226Y478232D01*
X290197Y478316D01*
X290171Y478402D01*
X290149Y478488D01*
X290132Y478575D01*
X290118Y478663D01*
X290108Y478752D01*
X290102Y478841D01*
X290100Y478930D01*
X401000Y247330D02*
X401000Y207330D01*
X361000Y207330D01*
X361000Y247330D01*
X401000Y247330D01*
X379000Y250330D02*
X379002Y250419D01*
X379008Y250508D01*
X379018Y250597D01*
X379032Y250685D01*
X379049Y250772D01*
X379071Y250858D01*
X379097Y250944D01*
X379126Y251028D01*
X379159Y251111D01*
X379195Y251192D01*
X379236Y251272D01*
X379279Y251349D01*
X379326Y251425D01*
X379377Y251498D01*
X379430Y251569D01*
X379487Y251638D01*
X379547Y251704D01*
X379610Y251768D01*
X379675Y251828D01*
X379743Y251886D01*
X379814Y251940D01*
X379887Y251991D01*
X379962Y252039D01*
X380039Y252084D01*
X380118Y252125D01*
X380199Y252162D01*
X380281Y252196D01*
X380365Y252227D01*
X380450Y252253D01*
X380536Y252276D01*
X380623Y252294D01*
X380711Y252309D01*
X380800Y252320D01*
X380889Y252327D01*
X380978Y252330D01*
X381067Y252329D01*
X381156Y252324D01*
X381244Y252315D01*
X381333Y252302D01*
X381420Y252285D01*
X381507Y252265D01*
X381593Y252240D01*
X381677Y252212D01*
X381760Y252180D01*
X381842Y252144D01*
X381922Y252105D01*
X382000Y252062D01*
X382076Y252016D01*
X382150Y251966D01*
X382222Y251913D01*
X382291Y251857D01*
X382358Y251798D01*
X382422Y251736D01*
X382483Y251672D01*
X382542Y251604D01*
X382597Y251534D01*
X382649Y251462D01*
X382698Y251387D01*
X382743Y251311D01*
X382785Y251232D01*
X382823Y251152D01*
X382858Y251070D01*
X382889Y250986D01*
X382917Y250901D01*
X382940Y250815D01*
X382960Y250728D01*
X382976Y250641D01*
X382988Y250552D01*
X382996Y250464D01*
X383000Y250375D01*
X383000Y250285D01*
X382996Y250196D01*
X382988Y250108D01*
X382976Y250019D01*
X382960Y249932D01*
X382940Y249845D01*
X382917Y249759D01*
X382889Y249674D01*
X382858Y249590D01*
X382823Y249508D01*
X382785Y249428D01*
X382743Y249349D01*
X382698Y249273D01*
X382649Y249198D01*
X382597Y249126D01*
X382542Y249056D01*
X382483Y248988D01*
X382422Y248924D01*
X382358Y248862D01*
X382291Y248803D01*
X382222Y248747D01*
X382150Y248694D01*
X382076Y248644D01*
X382000Y248598D01*
X381922Y248555D01*
X381842Y248516D01*
X381760Y248480D01*
X381677Y248448D01*
X381593Y248420D01*
X381507Y248395D01*
X381420Y248375D01*
X381333Y248358D01*
X381244Y248345D01*
X381156Y248336D01*
X381067Y248331D01*
X380978Y248330D01*
X380889Y248333D01*
X380800Y248340D01*
X380711Y248351D01*
X380623Y248366D01*
X380536Y248384D01*
X380450Y248407D01*
X380365Y248433D01*
X380281Y248464D01*
X380199Y248498D01*
X380118Y248535D01*
X380039Y248576D01*
X379962Y248621D01*
X379887Y248669D01*
X379814Y248720D01*
X379743Y248774D01*
X379675Y248832D01*
X379610Y248892D01*
X379547Y248956D01*
X379487Y249022D01*
X379430Y249091D01*
X379377Y249162D01*
X379326Y249235D01*
X379279Y249311D01*
X379236Y249388D01*
X379195Y249468D01*
X379159Y249549D01*
X379126Y249632D01*
X379097Y249716D01*
X379071Y249802D01*
X379049Y249888D01*
X379032Y249975D01*
X379018Y250063D01*
X379008Y250152D01*
X379002Y250241D01*
X379000Y250330D01*
X401000Y321630D02*
X401000Y361630D01*
X401000Y321630D02*
X361000Y321630D01*
X361000Y361630D01*
X401000Y361630D01*
X379000Y364630D02*
X379002Y364719D01*
X379008Y364808D01*
X379018Y364897D01*
X379032Y364985D01*
X379049Y365072D01*
X379071Y365158D01*
X379097Y365244D01*
X379126Y365328D01*
X379159Y365411D01*
X379195Y365492D01*
X379236Y365572D01*
X379279Y365649D01*
X379326Y365725D01*
X379377Y365798D01*
X379430Y365869D01*
X379487Y365938D01*
X379547Y366004D01*
X379610Y366068D01*
X379675Y366128D01*
X379743Y366186D01*
X379814Y366240D01*
X379887Y366291D01*
X379962Y366339D01*
X380039Y366384D01*
X380118Y366425D01*
X380199Y366462D01*
X380281Y366496D01*
X380365Y366527D01*
X380450Y366553D01*
X380536Y366576D01*
X380623Y366594D01*
X380711Y366609D01*
X380800Y366620D01*
X380889Y366627D01*
X380978Y366630D01*
X381067Y366629D01*
X381156Y366624D01*
X381244Y366615D01*
X381333Y366602D01*
X381420Y366585D01*
X381507Y366565D01*
X381593Y366540D01*
X381677Y366512D01*
X381760Y366480D01*
X381842Y366444D01*
X381922Y366405D01*
X382000Y366362D01*
X382076Y366316D01*
X382150Y366266D01*
X382222Y366213D01*
X382291Y366157D01*
X382358Y366098D01*
X382422Y366036D01*
X382483Y365972D01*
X382542Y365904D01*
X382597Y365834D01*
X382649Y365762D01*
X382698Y365687D01*
X382743Y365611D01*
X382785Y365532D01*
X382823Y365452D01*
X382858Y365370D01*
X382889Y365286D01*
X382917Y365201D01*
X382940Y365115D01*
X382960Y365028D01*
X382976Y364941D01*
X382988Y364852D01*
X382996Y364764D01*
X383000Y364675D01*
X383000Y364585D01*
X382996Y364496D01*
X382988Y364408D01*
X382976Y364319D01*
X382960Y364232D01*
X382940Y364145D01*
X382917Y364059D01*
X382889Y363974D01*
X382858Y363890D01*
X382823Y363808D01*
X382785Y363728D01*
X382743Y363649D01*
X382698Y363573D01*
X382649Y363498D01*
X382597Y363426D01*
X382542Y363356D01*
X382483Y363288D01*
X382422Y363224D01*
X382358Y363162D01*
X382291Y363103D01*
X382222Y363047D01*
X382150Y362994D01*
X382076Y362944D01*
X382000Y362898D01*
X381922Y362855D01*
X381842Y362816D01*
X381760Y362780D01*
X381677Y362748D01*
X381593Y362720D01*
X381507Y362695D01*
X381420Y362675D01*
X381333Y362658D01*
X381244Y362645D01*
X381156Y362636D01*
X381067Y362631D01*
X380978Y362630D01*
X380889Y362633D01*
X380800Y362640D01*
X380711Y362651D01*
X380623Y362666D01*
X380536Y362684D01*
X380450Y362707D01*
X380365Y362733D01*
X380281Y362764D01*
X380199Y362798D01*
X380118Y362835D01*
X380039Y362876D01*
X379962Y362921D01*
X379887Y362969D01*
X379814Y363020D01*
X379743Y363074D01*
X379675Y363132D01*
X379610Y363192D01*
X379547Y363256D01*
X379487Y363322D01*
X379430Y363391D01*
X379377Y363462D01*
X379326Y363535D01*
X379279Y363611D01*
X379236Y363688D01*
X379195Y363768D01*
X379159Y363849D01*
X379126Y363932D01*
X379097Y364016D01*
X379071Y364102D01*
X379049Y364188D01*
X379032Y364275D01*
X379018Y364363D01*
X379008Y364452D01*
X379002Y364541D01*
X379000Y364630D01*
X401000Y435930D02*
X401000Y475930D01*
X401000Y435930D02*
X361000Y435930D01*
X361000Y475930D01*
X401000Y475930D01*
X379000Y478930D02*
X379002Y479019D01*
X379008Y479108D01*
X379018Y479197D01*
X379032Y479285D01*
X379049Y479372D01*
X379071Y479458D01*
X379097Y479544D01*
X379126Y479628D01*
X379159Y479711D01*
X379195Y479792D01*
X379236Y479872D01*
X379279Y479949D01*
X379326Y480025D01*
X379377Y480098D01*
X379430Y480169D01*
X379487Y480238D01*
X379547Y480304D01*
X379610Y480368D01*
X379675Y480428D01*
X379743Y480486D01*
X379814Y480540D01*
X379887Y480591D01*
X379962Y480639D01*
X380039Y480684D01*
X380118Y480725D01*
X380199Y480762D01*
X380281Y480796D01*
X380365Y480827D01*
X380450Y480853D01*
X380536Y480876D01*
X380623Y480894D01*
X380711Y480909D01*
X380800Y480920D01*
X380889Y480927D01*
X380978Y480930D01*
X381067Y480929D01*
X381156Y480924D01*
X381244Y480915D01*
X381333Y480902D01*
X381420Y480885D01*
X381507Y480865D01*
X381593Y480840D01*
X381677Y480812D01*
X381760Y480780D01*
X381842Y480744D01*
X381922Y480705D01*
X382000Y480662D01*
X382076Y480616D01*
X382150Y480566D01*
X382222Y480513D01*
X382291Y480457D01*
X382358Y480398D01*
X382422Y480336D01*
X382483Y480272D01*
X382542Y480204D01*
X382597Y480134D01*
X382649Y480062D01*
X382698Y479987D01*
X382743Y479911D01*
X382785Y479832D01*
X382823Y479752D01*
X382858Y479670D01*
X382889Y479586D01*
X382917Y479501D01*
X382940Y479415D01*
X382960Y479328D01*
X382976Y479241D01*
X382988Y479152D01*
X382996Y479064D01*
X383000Y478975D01*
X383000Y478885D01*
X382996Y478796D01*
X382988Y478708D01*
X382976Y478619D01*
X382960Y478532D01*
X382940Y478445D01*
X382917Y478359D01*
X382889Y478274D01*
X382858Y478190D01*
X382823Y478108D01*
X382785Y478028D01*
X382743Y477949D01*
X382698Y477873D01*
X382649Y477798D01*
X382597Y477726D01*
X382542Y477656D01*
X382483Y477588D01*
X382422Y477524D01*
X382358Y477462D01*
X382291Y477403D01*
X382222Y477347D01*
X382150Y477294D01*
X382076Y477244D01*
X382000Y477198D01*
X381922Y477155D01*
X381842Y477116D01*
X381760Y477080D01*
X381677Y477048D01*
X381593Y477020D01*
X381507Y476995D01*
X381420Y476975D01*
X381333Y476958D01*
X381244Y476945D01*
X381156Y476936D01*
X381067Y476931D01*
X380978Y476930D01*
X380889Y476933D01*
X380800Y476940D01*
X380711Y476951D01*
X380623Y476966D01*
X380536Y476984D01*
X380450Y477007D01*
X380365Y477033D01*
X380281Y477064D01*
X380199Y477098D01*
X380118Y477135D01*
X380039Y477176D01*
X379962Y477221D01*
X379887Y477269D01*
X379814Y477320D01*
X379743Y477374D01*
X379675Y477432D01*
X379610Y477492D01*
X379547Y477556D01*
X379487Y477622D01*
X379430Y477691D01*
X379377Y477762D01*
X379326Y477835D01*
X379279Y477911D01*
X379236Y477988D01*
X379195Y478068D01*
X379159Y478149D01*
X379126Y478232D01*
X379097Y478316D01*
X379071Y478402D01*
X379049Y478488D01*
X379032Y478575D01*
X379018Y478663D01*
X379008Y478752D01*
X379002Y478841D01*
X379000Y478930D01*
M02*
