G04 EAGLE Gerber RS-274X export*
G75*
%MOMM*%
%FSLAX34Y34*%
%LPD*%
%INSilkscreen Top*%
%IPPOS*%
%AMOC8*
5,1,8,0,0,1.08239X$1,22.5*%
G01*
G04 Define Apertures*
%ADD10C,0.127000*%
%ADD11C,0.152400*%
G36*
X31750Y66125D02*
X31738Y66565D01*
X31702Y66992D01*
X31643Y67406D01*
X31560Y67806D01*
X31452Y68194D01*
X31321Y68568D01*
X31167Y68930D01*
X30988Y69278D01*
X30787Y69610D01*
X30565Y69922D01*
X30322Y70215D01*
X30059Y70489D01*
X29774Y70743D01*
X29468Y70977D01*
X29142Y71193D01*
X28794Y71389D01*
X28429Y71563D01*
X28048Y71714D01*
X27653Y71842D01*
X27243Y71947D01*
X26818Y72028D01*
X26377Y72087D01*
X25923Y72121D01*
X25453Y72133D01*
X25095Y72126D01*
X24749Y72106D01*
X24412Y72073D01*
X24086Y72027D01*
X23770Y71967D01*
X23465Y71893D01*
X23170Y71807D01*
X22885Y71707D01*
X22611Y71594D01*
X22347Y71468D01*
X22094Y71328D01*
X21850Y71175D01*
X21618Y71008D01*
X21395Y70829D01*
X21183Y70636D01*
X20981Y70430D01*
X20791Y70211D01*
X20613Y69981D01*
X20447Y69740D01*
X20294Y69488D01*
X20152Y69225D01*
X20023Y68950D01*
X19907Y68665D01*
X19802Y68368D01*
X19710Y68060D01*
X19630Y67741D01*
X19563Y67410D01*
X19508Y67069D01*
X19465Y66716D01*
X19434Y66352D01*
X19415Y65977D01*
X19409Y65590D01*
X19409Y61509D01*
X31750Y61509D01*
X31750Y66125D01*
G37*
%LPC*%
G36*
X20749Y63182D02*
X20749Y65555D01*
X20768Y66133D01*
X20825Y66676D01*
X20919Y67184D01*
X21050Y67656D01*
X21220Y68094D01*
X21427Y68496D01*
X21671Y68863D01*
X21954Y69195D01*
X22272Y69489D01*
X22624Y69744D01*
X23010Y69960D01*
X23431Y70137D01*
X23885Y70275D01*
X24373Y70373D01*
X24896Y70432D01*
X25453Y70451D01*
X25827Y70443D01*
X26189Y70417D01*
X26539Y70374D01*
X26876Y70313D01*
X27200Y70236D01*
X27512Y70141D01*
X27811Y70029D01*
X28098Y69900D01*
X28370Y69754D01*
X28625Y69594D01*
X28865Y69419D01*
X29087Y69228D01*
X29294Y69023D01*
X29484Y68803D01*
X29657Y68569D01*
X29814Y68319D01*
X29954Y68056D01*
X30075Y67784D01*
X30177Y67501D01*
X30261Y67207D01*
X30326Y66904D01*
X30373Y66590D01*
X30401Y66266D01*
X30410Y65932D01*
X30410Y63182D01*
X20749Y63182D01*
G37*
%LPD*%
G36*
X31750Y84456D02*
X31736Y84976D01*
X31693Y85466D01*
X31621Y85927D01*
X31521Y86359D01*
X31393Y86762D01*
X31235Y87135D01*
X31049Y87479D01*
X30835Y87793D01*
X30595Y88075D01*
X30331Y88318D01*
X30045Y88525D01*
X29737Y88693D01*
X29405Y88825D01*
X29050Y88918D01*
X28673Y88975D01*
X28273Y88993D01*
X27971Y88981D01*
X27682Y88943D01*
X27406Y88881D01*
X27144Y88794D01*
X26895Y88682D01*
X26659Y88545D01*
X26437Y88383D01*
X26228Y88196D01*
X26124Y88083D01*
X26035Y87986D01*
X25862Y87756D01*
X25709Y87504D01*
X25576Y87231D01*
X25463Y86936D01*
X25370Y86621D01*
X25296Y86285D01*
X25242Y85928D01*
X25171Y86200D01*
X25085Y86457D01*
X24983Y86697D01*
X24866Y86922D01*
X24733Y87131D01*
X24586Y87324D01*
X24514Y87401D01*
X24422Y87501D01*
X24244Y87662D01*
X24052Y87806D01*
X23850Y87930D01*
X23636Y88036D01*
X23412Y88122D01*
X23177Y88189D01*
X22930Y88237D01*
X22673Y88265D01*
X22405Y88275D01*
X22042Y88258D01*
X21703Y88207D01*
X21387Y88122D01*
X21094Y88004D01*
X20825Y87851D01*
X20579Y87664D01*
X20357Y87444D01*
X20158Y87189D01*
X19983Y86901D01*
X19830Y86578D01*
X19702Y86222D01*
X19596Y85831D01*
X19515Y85407D01*
X19456Y84949D01*
X19421Y84457D01*
X19409Y83931D01*
X19409Y79446D01*
X31750Y79446D01*
X31750Y84456D01*
G37*
%LPC*%
G36*
X25961Y81119D02*
X25961Y84237D01*
X25969Y84609D01*
X25995Y84956D01*
X26037Y85279D01*
X26097Y85579D01*
X26174Y85854D01*
X26267Y86105D01*
X26378Y86333D01*
X26506Y86536D01*
X26651Y86716D01*
X26813Y86872D01*
X26991Y87003D01*
X27187Y87111D01*
X27400Y87195D01*
X27630Y87255D01*
X27877Y87291D01*
X28142Y87303D01*
X28415Y87292D01*
X28671Y87259D01*
X28910Y87204D01*
X29131Y87128D01*
X29335Y87029D01*
X29521Y86909D01*
X29690Y86766D01*
X29841Y86602D01*
X29974Y86414D01*
X30090Y86200D01*
X30188Y85960D01*
X30268Y85693D01*
X30330Y85401D01*
X30374Y85083D01*
X30401Y84739D01*
X30410Y84369D01*
X30410Y81119D01*
X25961Y81119D01*
G37*
G36*
X20749Y81119D02*
X20749Y83931D01*
X20756Y84245D01*
X20776Y84541D01*
X20810Y84817D01*
X20857Y85074D01*
X20917Y85312D01*
X20991Y85530D01*
X21078Y85730D01*
X21178Y85910D01*
X21295Y86070D01*
X21429Y86209D01*
X21580Y86327D01*
X21750Y86423D01*
X21937Y86497D01*
X22142Y86551D01*
X22365Y86583D01*
X22606Y86593D01*
X22858Y86583D01*
X23094Y86552D01*
X23312Y86500D01*
X23514Y86428D01*
X23699Y86335D01*
X23867Y86221D01*
X24018Y86087D01*
X24152Y85932D01*
X24270Y85756D01*
X24372Y85559D01*
X24459Y85341D01*
X24530Y85101D01*
X24585Y84840D01*
X24624Y84558D01*
X24648Y84255D01*
X24656Y83931D01*
X24656Y81119D01*
X20749Y81119D01*
G37*
%LPD*%
G36*
X26329Y143505D02*
X27037Y143555D01*
X27698Y143638D01*
X28312Y143755D01*
X28880Y143906D01*
X29402Y144089D01*
X29877Y144306D01*
X30305Y144557D01*
X30685Y144840D01*
X31014Y145157D01*
X31292Y145507D01*
X31520Y145890D01*
X31697Y146306D01*
X31824Y146756D01*
X31868Y146993D01*
X31900Y147238D01*
X31919Y147492D01*
X31925Y147754D01*
X31919Y148016D01*
X31900Y148269D01*
X31868Y148515D01*
X31823Y148753D01*
X31696Y149204D01*
X31518Y149622D01*
X31289Y150009D01*
X31009Y150362D01*
X30678Y150684D01*
X30296Y150972D01*
X29866Y151228D01*
X29390Y151449D01*
X28869Y151637D01*
X28301Y151790D01*
X27688Y151909D01*
X27030Y151995D01*
X26325Y152046D01*
X25575Y152063D01*
X24813Y152047D01*
X24099Y151998D01*
X23434Y151917D01*
X22816Y151803D01*
X22247Y151657D01*
X21726Y151479D01*
X21253Y151268D01*
X20828Y151025D01*
X20452Y150748D01*
X20127Y150435D01*
X19851Y150086D01*
X19626Y149701D01*
X19451Y149281D01*
X19382Y149058D01*
X19325Y148825D01*
X19282Y148584D01*
X19250Y148334D01*
X19232Y148074D01*
X19225Y147806D01*
X19232Y147531D01*
X19250Y147264D01*
X19281Y147008D01*
X19324Y146760D01*
X19380Y146522D01*
X19448Y146294D01*
X19622Y145865D01*
X19845Y145474D01*
X20117Y145120D01*
X20439Y144804D01*
X20811Y144526D01*
X21232Y144283D01*
X21703Y144072D01*
X22224Y143894D01*
X22794Y143748D01*
X23415Y143634D01*
X24085Y143553D01*
X24805Y143504D01*
X25575Y143488D01*
X26329Y143505D01*
G37*
%LPC*%
G36*
X24922Y145092D02*
X24317Y145122D01*
X23760Y145172D01*
X23250Y145241D01*
X22788Y145330D01*
X22373Y145439D01*
X22006Y145568D01*
X21686Y145717D01*
X21409Y145889D01*
X21169Y146086D01*
X20966Y146309D01*
X20800Y146557D01*
X20670Y146831D01*
X20578Y147130D01*
X20523Y147455D01*
X20504Y147806D01*
X20523Y148148D01*
X20579Y148466D01*
X20673Y148758D01*
X20804Y149025D01*
X20973Y149267D01*
X21179Y149484D01*
X21423Y149676D01*
X21704Y149843D01*
X22027Y149987D01*
X22396Y150113D01*
X22811Y150219D01*
X23272Y150306D01*
X23779Y150373D01*
X24332Y150421D01*
X24930Y150450D01*
X25575Y150460D01*
X26198Y150450D01*
X26780Y150419D01*
X27319Y150369D01*
X27817Y150298D01*
X28274Y150207D01*
X28689Y150095D01*
X29062Y149964D01*
X29394Y149812D01*
X29685Y149638D01*
X29938Y149441D01*
X30152Y149221D01*
X30327Y148978D01*
X30463Y148711D01*
X30560Y148421D01*
X30618Y148108D01*
X30638Y147771D01*
X30619Y147433D01*
X30562Y147118D01*
X30466Y146827D01*
X30333Y146559D01*
X30162Y146315D01*
X29953Y146095D01*
X29706Y145899D01*
X29420Y145726D01*
X29094Y145575D01*
X28723Y145444D01*
X28309Y145334D01*
X27850Y145243D01*
X27348Y145173D01*
X26801Y145122D01*
X26210Y145092D01*
X25575Y145082D01*
X24922Y145092D01*
G37*
%LPD*%
G36*
X8578Y121616D02*
X9136Y121654D01*
X9652Y121718D01*
X10127Y121808D01*
X10561Y121923D01*
X10953Y122064D01*
X11304Y122230D01*
X11614Y122422D01*
X11885Y122641D01*
X12120Y122889D01*
X12318Y123166D01*
X12481Y123472D01*
X12608Y123807D01*
X12698Y124170D01*
X12752Y124563D01*
X12770Y124984D01*
X12763Y125240D01*
X12741Y125489D01*
X12705Y125729D01*
X12655Y125961D01*
X12590Y126184D01*
X12511Y126400D01*
X12418Y126607D01*
X12310Y126806D01*
X12302Y126818D01*
X12188Y126995D01*
X12052Y127175D01*
X11902Y127344D01*
X11738Y127502D01*
X11559Y127650D01*
X11367Y127788D01*
X11160Y127915D01*
X10940Y128032D01*
X10940Y128050D01*
X12464Y128050D01*
X12798Y128040D01*
X13110Y128013D01*
X13401Y127967D01*
X13671Y127902D01*
X13918Y127819D01*
X14145Y127718D01*
X14350Y127599D01*
X14533Y127461D01*
X14694Y127304D01*
X14834Y127129D01*
X14953Y126936D01*
X15050Y126724D01*
X15125Y126494D01*
X15179Y126246D01*
X15210Y125994D01*
X15212Y125979D01*
X15222Y125693D01*
X15200Y125277D01*
X15134Y124902D01*
X15023Y124569D01*
X14868Y124279D01*
X14671Y124033D01*
X14437Y123836D01*
X14166Y123685D01*
X13856Y123583D01*
X14084Y121997D01*
X14356Y122073D01*
X14612Y122170D01*
X14853Y122287D01*
X15077Y122424D01*
X15285Y122582D01*
X15477Y122761D01*
X15653Y122960D01*
X15814Y123180D01*
X15956Y123420D01*
X16080Y123679D01*
X16185Y123958D01*
X16270Y124257D01*
X16337Y124576D01*
X16384Y124914D01*
X16413Y125272D01*
X16422Y125650D01*
X16407Y126130D01*
X16360Y126580D01*
X16282Y126998D01*
X16173Y127386D01*
X16032Y127742D01*
X15861Y128067D01*
X15658Y128362D01*
X15424Y128625D01*
X15159Y128858D01*
X14862Y129059D01*
X14535Y129230D01*
X14176Y129369D01*
X13786Y129478D01*
X13365Y129555D01*
X12912Y129602D01*
X12429Y129617D01*
X5185Y129617D01*
X3950Y129630D01*
X3523Y129647D01*
X3223Y129670D01*
X3223Y128172D01*
X3431Y128137D01*
X3933Y128102D01*
X4844Y128067D01*
X4844Y128050D01*
X4443Y127827D01*
X4091Y127562D01*
X3788Y127256D01*
X3534Y126907D01*
X3426Y126717D01*
X3333Y126520D01*
X3254Y126314D01*
X3189Y126100D01*
X3139Y125877D01*
X3103Y125646D01*
X3082Y125407D01*
X3074Y125159D01*
X3093Y124725D01*
X3149Y124319D01*
X3243Y123941D01*
X3373Y123593D01*
X3541Y123272D01*
X3747Y122981D01*
X3990Y122718D01*
X4270Y122483D01*
X4589Y122277D01*
X4950Y122098D01*
X5352Y121947D01*
X5795Y121823D01*
X6279Y121727D01*
X6805Y121658D01*
X7371Y121617D01*
X7979Y121603D01*
X8578Y121616D01*
G37*
%LPC*%
G36*
X7488Y123241D02*
X7049Y123267D01*
X6643Y123310D01*
X6271Y123370D01*
X5934Y123448D01*
X5630Y123543D01*
X5360Y123655D01*
X5124Y123784D01*
X4919Y123932D01*
X4741Y124101D01*
X4590Y124290D01*
X4467Y124500D01*
X4371Y124730D01*
X4303Y124981D01*
X4262Y125253D01*
X4248Y125545D01*
X4255Y125724D01*
X4276Y125898D01*
X4310Y126068D01*
X4359Y126233D01*
X4497Y126549D01*
X4690Y126845D01*
X4936Y127116D01*
X5231Y127354D01*
X5576Y127560D01*
X5969Y127734D01*
X6407Y127872D01*
X6885Y127971D01*
X7404Y128030D01*
X7962Y128050D01*
X8507Y128030D01*
X9014Y127971D01*
X9482Y127872D01*
X9910Y127734D01*
X10296Y127560D01*
X10634Y127353D01*
X10748Y127259D01*
X10925Y127113D01*
X11167Y126841D01*
X11359Y126541D01*
X11496Y126221D01*
X11544Y126053D01*
X11578Y125880D01*
X11598Y125702D01*
X11605Y125518D01*
X11592Y125217D01*
X11552Y124938D01*
X11486Y124682D01*
X11393Y124450D01*
X11273Y124240D01*
X11127Y124053D01*
X10955Y123890D01*
X10756Y123749D01*
X10526Y123628D01*
X10262Y123523D01*
X9964Y123434D01*
X9632Y123362D01*
X9266Y123305D01*
X8865Y123265D01*
X8431Y123240D01*
X7962Y123232D01*
X7488Y123241D01*
G37*
%LPD*%
G36*
X8578Y160522D02*
X9136Y160561D01*
X9652Y160625D01*
X10127Y160714D01*
X10561Y160829D01*
X10953Y160970D01*
X11304Y161136D01*
X11614Y161328D01*
X11885Y161548D01*
X12120Y161796D01*
X12318Y162073D01*
X12481Y162378D01*
X12608Y162713D01*
X12698Y163077D01*
X12752Y163469D01*
X12770Y163890D01*
X12763Y164147D01*
X12741Y164395D01*
X12705Y164635D01*
X12655Y164867D01*
X12590Y165090D01*
X12511Y165306D01*
X12418Y165513D01*
X12310Y165712D01*
X12302Y165725D01*
X12188Y165902D01*
X12052Y166081D01*
X11902Y166250D01*
X11738Y166408D01*
X11559Y166556D01*
X11367Y166694D01*
X11160Y166821D01*
X10940Y166938D01*
X10940Y166956D01*
X12464Y166956D01*
X12798Y166947D01*
X13110Y166919D01*
X13401Y166873D01*
X13671Y166809D01*
X13918Y166726D01*
X14145Y166624D01*
X14350Y166505D01*
X14533Y166367D01*
X14694Y166210D01*
X14834Y166035D01*
X14953Y165842D01*
X15050Y165630D01*
X15125Y165400D01*
X15179Y165152D01*
X15210Y164900D01*
X15212Y164885D01*
X15222Y164600D01*
X15200Y164183D01*
X15134Y163808D01*
X15023Y163476D01*
X14868Y163185D01*
X14671Y162940D01*
X14437Y162742D01*
X14166Y162592D01*
X13856Y162489D01*
X14084Y160904D01*
X14356Y160980D01*
X14612Y161076D01*
X14853Y161193D01*
X15077Y161331D01*
X15285Y161489D01*
X15477Y161667D01*
X15653Y161866D01*
X15814Y162086D01*
X15956Y162326D01*
X16080Y162585D01*
X16185Y162864D01*
X16270Y163163D01*
X16337Y163482D01*
X16384Y163820D01*
X16413Y164178D01*
X16422Y164556D01*
X16407Y165036D01*
X16360Y165486D01*
X16282Y165904D01*
X16173Y166292D01*
X16032Y166648D01*
X15861Y166974D01*
X15658Y167268D01*
X15424Y167532D01*
X15159Y167764D01*
X14862Y167966D01*
X14535Y168136D01*
X14176Y168276D01*
X13786Y168384D01*
X13365Y168462D01*
X12912Y168508D01*
X12429Y168524D01*
X5185Y168524D01*
X3950Y168537D01*
X3523Y168553D01*
X3223Y168576D01*
X3223Y167078D01*
X3431Y167043D01*
X3933Y167008D01*
X4844Y166973D01*
X4844Y166956D01*
X4443Y166733D01*
X4091Y166469D01*
X3788Y166162D01*
X3534Y165813D01*
X3426Y165624D01*
X3333Y165426D01*
X3254Y165220D01*
X3189Y165006D01*
X3139Y164783D01*
X3103Y164552D01*
X3082Y164313D01*
X3074Y164065D01*
X3093Y163631D01*
X3149Y163225D01*
X3243Y162848D01*
X3373Y162499D01*
X3541Y162179D01*
X3747Y161887D01*
X3990Y161624D01*
X4270Y161390D01*
X4589Y161183D01*
X4950Y161005D01*
X5352Y160853D01*
X5795Y160730D01*
X6279Y160633D01*
X6805Y160564D01*
X7371Y160523D01*
X7979Y160509D01*
X8578Y160522D01*
G37*
%LPC*%
G36*
X7488Y162147D02*
X7049Y162173D01*
X6643Y162216D01*
X6271Y162277D01*
X5934Y162354D01*
X5630Y162449D01*
X5360Y162561D01*
X5124Y162690D01*
X4919Y162839D01*
X4741Y163007D01*
X4590Y163197D01*
X4467Y163406D01*
X4371Y163637D01*
X4303Y163888D01*
X4262Y164159D01*
X4248Y164451D01*
X4255Y164630D01*
X4276Y164805D01*
X4310Y164974D01*
X4359Y165139D01*
X4497Y165455D01*
X4690Y165751D01*
X4936Y166022D01*
X5231Y166261D01*
X5576Y166467D01*
X5969Y166640D01*
X6407Y166778D01*
X6885Y166877D01*
X7404Y166936D01*
X7962Y166956D01*
X8507Y166936D01*
X9014Y166877D01*
X9482Y166778D01*
X9910Y166640D01*
X10296Y166466D01*
X10634Y166259D01*
X10748Y166165D01*
X10925Y166020D01*
X11167Y165747D01*
X11359Y165448D01*
X11496Y165127D01*
X11544Y164960D01*
X11578Y164786D01*
X11598Y164608D01*
X11605Y164425D01*
X11592Y164123D01*
X11552Y163844D01*
X11486Y163589D01*
X11393Y163356D01*
X11273Y163146D01*
X11127Y162960D01*
X10955Y162796D01*
X10756Y162655D01*
X10526Y162534D01*
X10262Y162429D01*
X9964Y162340D01*
X9632Y162268D01*
X9266Y162211D01*
X8865Y162171D01*
X8431Y162147D01*
X7962Y162139D01*
X7488Y162147D01*
G37*
%LPD*%
G36*
X8599Y92710D02*
X9154Y92750D01*
X9670Y92816D01*
X10147Y92908D01*
X10585Y93027D01*
X10984Y93172D01*
X11345Y93344D01*
X11667Y93542D01*
X11950Y93768D01*
X12195Y94024D01*
X12403Y94310D01*
X12573Y94625D01*
X12705Y94970D01*
X12800Y95345D01*
X12856Y95749D01*
X12875Y96183D01*
X12869Y96445D01*
X12851Y96696D01*
X12820Y96936D01*
X12777Y97165D01*
X12721Y97383D01*
X12654Y97591D01*
X12573Y97788D01*
X12481Y97974D01*
X12374Y98150D01*
X12252Y98318D01*
X12113Y98476D01*
X11958Y98625D01*
X11787Y98766D01*
X11599Y98898D01*
X11176Y99135D01*
X11176Y99170D01*
X11579Y99177D01*
X12052Y99200D01*
X12468Y99230D01*
X12700Y99257D01*
X12700Y100764D01*
X12401Y100741D01*
X11975Y100724D01*
X10747Y100711D01*
X-298Y100711D01*
X-298Y99135D01*
X3635Y99135D01*
X4695Y99152D01*
X4695Y99135D01*
X4295Y98898D01*
X3952Y98627D01*
X3803Y98478D01*
X3668Y98320D01*
X3548Y98154D01*
X3442Y97978D01*
X3350Y97793D01*
X3270Y97597D01*
X3202Y97389D01*
X3147Y97170D01*
X3104Y96940D01*
X3073Y96699D01*
X3054Y96447D01*
X3048Y96183D01*
X3067Y95761D01*
X3126Y95366D01*
X3222Y94998D01*
X3358Y94658D01*
X3532Y94345D01*
X3745Y94059D01*
X3997Y93800D01*
X4287Y93568D01*
X4617Y93364D01*
X4985Y93187D01*
X5391Y93037D01*
X5837Y92915D01*
X6321Y92820D01*
X6844Y92751D01*
X7405Y92711D01*
X8005Y92697D01*
X8599Y92710D01*
G37*
%LPC*%
G36*
X7475Y94361D02*
X7032Y94385D01*
X6623Y94427D01*
X6248Y94485D01*
X5908Y94559D01*
X5602Y94650D01*
X5330Y94758D01*
X5093Y94882D01*
X4887Y95025D01*
X4708Y95189D01*
X4557Y95373D01*
X4433Y95577D01*
X4337Y95803D01*
X4268Y96049D01*
X4227Y96316D01*
X4213Y96603D01*
X4227Y96923D01*
X4268Y97220D01*
X4336Y97494D01*
X4432Y97746D01*
X4555Y97976D01*
X4706Y98183D01*
X4884Y98368D01*
X5089Y98530D01*
X5324Y98672D01*
X5590Y98795D01*
X5887Y98898D01*
X6217Y98983D01*
X6577Y99050D01*
X6969Y99097D01*
X7393Y99125D01*
X7848Y99135D01*
X8320Y99125D01*
X8760Y99097D01*
X9169Y99050D01*
X9545Y98983D01*
X9889Y98898D01*
X10201Y98795D01*
X10481Y98672D01*
X10729Y98530D01*
X10756Y98511D01*
X10947Y98368D01*
X11136Y98182D01*
X11295Y97973D01*
X11426Y97742D01*
X11527Y97487D01*
X11600Y97210D01*
X11643Y96909D01*
X11658Y96586D01*
X11644Y96300D01*
X11604Y96036D01*
X11537Y95791D01*
X11443Y95568D01*
X11322Y95364D01*
X11175Y95182D01*
X11001Y95020D01*
X10799Y94878D01*
X10567Y94755D01*
X10300Y94648D01*
X9997Y94558D01*
X9659Y94484D01*
X9285Y94426D01*
X8876Y94385D01*
X8432Y94361D01*
X7953Y94352D01*
X7475Y94361D01*
G37*
%LPD*%
G36*
X27649Y116616D02*
X28204Y116656D01*
X28720Y116722D01*
X29197Y116815D01*
X29635Y116933D01*
X30034Y117079D01*
X30395Y117250D01*
X30717Y117448D01*
X31000Y117675D01*
X31245Y117930D01*
X31453Y118216D01*
X31623Y118531D01*
X31755Y118876D01*
X31850Y119251D01*
X31906Y119655D01*
X31925Y120089D01*
X31919Y120351D01*
X31901Y120602D01*
X31870Y120842D01*
X31827Y121071D01*
X31771Y121290D01*
X31704Y121497D01*
X31623Y121694D01*
X31531Y121880D01*
X31424Y122056D01*
X31302Y122224D01*
X31163Y122382D01*
X31008Y122532D01*
X30837Y122672D01*
X30649Y122804D01*
X30226Y123041D01*
X30226Y123076D01*
X30629Y123083D01*
X31102Y123106D01*
X31518Y123136D01*
X31750Y123163D01*
X31750Y124670D01*
X31451Y124647D01*
X31025Y124630D01*
X29797Y124617D01*
X18752Y124617D01*
X18752Y123041D01*
X22685Y123041D01*
X23745Y123058D01*
X23745Y123041D01*
X23345Y122804D01*
X23002Y122533D01*
X22853Y122384D01*
X22718Y122226D01*
X22598Y122060D01*
X22492Y121885D01*
X22400Y121699D01*
X22320Y121503D01*
X22252Y121295D01*
X22197Y121077D01*
X22154Y120847D01*
X22123Y120605D01*
X22104Y120353D01*
X22098Y120089D01*
X22117Y119667D01*
X22176Y119272D01*
X22272Y118904D01*
X22408Y118564D01*
X22582Y118251D01*
X22795Y117965D01*
X23047Y117706D01*
X23337Y117475D01*
X23667Y117270D01*
X24035Y117093D01*
X24441Y116944D01*
X24887Y116821D01*
X25371Y116726D01*
X25894Y116658D01*
X26455Y116617D01*
X27055Y116603D01*
X27649Y116616D01*
G37*
%LPC*%
G36*
X26525Y118267D02*
X26082Y118292D01*
X25673Y118333D01*
X25298Y118391D01*
X24958Y118466D01*
X24652Y118557D01*
X24380Y118664D01*
X24143Y118788D01*
X23937Y118931D01*
X23758Y119095D01*
X23607Y119279D01*
X23483Y119484D01*
X23387Y119709D01*
X23318Y119955D01*
X23277Y120222D01*
X23263Y120510D01*
X23277Y120829D01*
X23318Y121126D01*
X23386Y121400D01*
X23482Y121653D01*
X23605Y121882D01*
X23756Y122089D01*
X23934Y122274D01*
X24139Y122436D01*
X24374Y122578D01*
X24640Y122701D01*
X24937Y122805D01*
X25267Y122890D01*
X25627Y122956D01*
X26019Y123003D01*
X26443Y123031D01*
X26898Y123041D01*
X27370Y123031D01*
X27810Y123003D01*
X28219Y122956D01*
X28595Y122890D01*
X28939Y122805D01*
X29251Y122701D01*
X29531Y122578D01*
X29779Y122436D01*
X29806Y122417D01*
X29997Y122274D01*
X30186Y122088D01*
X30345Y121880D01*
X30476Y121648D01*
X30577Y121394D01*
X30650Y121116D01*
X30693Y120816D01*
X30708Y120492D01*
X30694Y120207D01*
X30654Y119942D01*
X30587Y119698D01*
X30493Y119474D01*
X30372Y119271D01*
X30225Y119088D01*
X30051Y118926D01*
X29849Y118784D01*
X29617Y118661D01*
X29350Y118554D01*
X29047Y118464D01*
X28709Y118390D01*
X28335Y118333D01*
X27926Y118291D01*
X27482Y118267D01*
X27003Y118259D01*
X26525Y118267D01*
G37*
%LPD*%
G36*
X12700Y41244D02*
X7892Y41244D01*
X7892Y44870D01*
X7875Y45348D01*
X7827Y45800D01*
X7746Y46227D01*
X7633Y46628D01*
X7488Y47003D01*
X7310Y47353D01*
X7100Y47677D01*
X6858Y47975D01*
X6588Y48243D01*
X6296Y48475D01*
X5982Y48672D01*
X5645Y48833D01*
X5286Y48958D01*
X4904Y49047D01*
X4500Y49100D01*
X4073Y49118D01*
X3643Y49100D01*
X3238Y49047D01*
X2858Y48958D01*
X2503Y48834D01*
X2173Y48673D01*
X1867Y48478D01*
X1587Y48247D01*
X1331Y47980D01*
X1104Y47680D01*
X906Y47352D01*
X739Y46994D01*
X602Y46607D01*
X496Y46190D01*
X420Y45745D01*
X374Y45270D01*
X359Y44765D01*
X359Y39571D01*
X12700Y39571D01*
X12700Y41244D01*
G37*
%LPC*%
G36*
X1699Y41244D02*
X1699Y44564D01*
X1709Y44912D01*
X1737Y45237D01*
X1783Y45540D01*
X1849Y45821D01*
X1933Y46079D01*
X2036Y46314D01*
X2157Y46528D01*
X2297Y46718D01*
X2456Y46887D01*
X2633Y47033D01*
X2829Y47156D01*
X3044Y47257D01*
X3278Y47336D01*
X3530Y47392D01*
X3801Y47425D01*
X4090Y47437D01*
X4391Y47426D01*
X4671Y47393D01*
X4933Y47338D01*
X5175Y47261D01*
X5397Y47163D01*
X5601Y47042D01*
X5785Y46900D01*
X5949Y46736D01*
X6095Y46550D01*
X6220Y46342D01*
X6327Y46112D01*
X6414Y45860D01*
X6482Y45586D01*
X6530Y45291D01*
X6559Y44973D01*
X6569Y44634D01*
X6569Y41244D01*
X1699Y41244D01*
G37*
%LPD*%
G36*
X12700Y73151D02*
X7892Y73151D01*
X7892Y76777D01*
X7875Y77254D01*
X7827Y77706D01*
X7746Y78133D01*
X7633Y78534D01*
X7488Y78909D01*
X7310Y79259D01*
X7100Y79583D01*
X6858Y79882D01*
X6588Y80149D01*
X6296Y80382D01*
X5982Y80578D01*
X5645Y80739D01*
X5286Y80864D01*
X4904Y80953D01*
X4500Y81007D01*
X4073Y81024D01*
X3643Y81007D01*
X3238Y80953D01*
X2858Y80864D01*
X2503Y80740D01*
X2173Y80580D01*
X1867Y80384D01*
X1587Y80153D01*
X1331Y79886D01*
X1104Y79587D01*
X906Y79258D01*
X739Y78900D01*
X602Y78513D01*
X496Y78097D01*
X420Y77651D01*
X374Y77176D01*
X359Y76672D01*
X359Y71478D01*
X12700Y71478D01*
X12700Y73151D01*
G37*
%LPC*%
G36*
X1699Y73151D02*
X1699Y76470D01*
X1709Y76818D01*
X1737Y77143D01*
X1783Y77446D01*
X1849Y77727D01*
X1933Y77985D01*
X2036Y78221D01*
X2157Y78434D01*
X2297Y78625D01*
X2456Y78793D01*
X2633Y78939D01*
X2829Y79062D01*
X3044Y79163D01*
X3278Y79242D01*
X3530Y79298D01*
X3801Y79332D01*
X4090Y79343D01*
X4391Y79332D01*
X4671Y79299D01*
X4933Y79244D01*
X5175Y79168D01*
X5397Y79069D01*
X5601Y78949D01*
X5785Y78806D01*
X5949Y78642D01*
X6095Y78456D01*
X6220Y78248D01*
X6327Y78018D01*
X6414Y77766D01*
X6482Y77493D01*
X6530Y77197D01*
X6559Y76880D01*
X6569Y76540D01*
X6569Y73151D01*
X1699Y73151D01*
G37*
%LPD*%
G36*
X8533Y82745D02*
X9078Y82794D01*
X9588Y82877D01*
X10063Y82993D01*
X10502Y83142D01*
X10906Y83324D01*
X11276Y83540D01*
X11610Y83788D01*
X11906Y84069D01*
X12163Y84381D01*
X12381Y84726D01*
X12559Y85102D01*
X12697Y85510D01*
X12796Y85949D01*
X12855Y86421D01*
X12875Y86924D01*
X12856Y87429D01*
X12799Y87904D01*
X12704Y88348D01*
X12571Y88761D01*
X12400Y89143D01*
X12190Y89494D01*
X11943Y89814D01*
X11658Y90103D01*
X11334Y90360D01*
X10970Y90582D01*
X10566Y90770D01*
X10123Y90924D01*
X9640Y91044D01*
X9117Y91129D01*
X8555Y91181D01*
X7953Y91198D01*
X7345Y91182D01*
X6778Y91134D01*
X6253Y91054D01*
X5769Y90942D01*
X5326Y90797D01*
X4924Y90621D01*
X4563Y90413D01*
X4244Y90173D01*
X3963Y89899D01*
X3721Y89589D01*
X3515Y89243D01*
X3347Y88861D01*
X3216Y88444D01*
X3123Y87990D01*
X3067Y87501D01*
X3048Y86976D01*
X3067Y86462D01*
X3125Y85981D01*
X3221Y85533D01*
X3355Y85118D01*
X3527Y84736D01*
X3738Y84388D01*
X3987Y84072D01*
X4274Y83790D01*
X4600Y83541D01*
X4964Y83326D01*
X5366Y83143D01*
X5807Y82994D01*
X6286Y82878D01*
X6803Y82795D01*
X7359Y82745D01*
X7953Y82728D01*
X8533Y82745D01*
G37*
%LPC*%
G36*
X7487Y84393D02*
X7053Y84422D01*
X6651Y84470D01*
X6281Y84538D01*
X5943Y84625D01*
X5637Y84731D01*
X5362Y84856D01*
X5120Y85001D01*
X4907Y85167D01*
X4723Y85358D01*
X4567Y85572D01*
X4440Y85810D01*
X4340Y86072D01*
X4270Y86358D01*
X4227Y86668D01*
X4213Y87002D01*
X4227Y87334D01*
X4269Y87640D01*
X4338Y87922D01*
X4435Y88179D01*
X4560Y88412D01*
X4713Y88619D01*
X4894Y88802D01*
X5102Y88960D01*
X5341Y89096D01*
X5614Y89215D01*
X5920Y89315D01*
X6259Y89397D01*
X6632Y89460D01*
X7039Y89506D01*
X7479Y89533D01*
X7953Y89542D01*
X8421Y89533D01*
X8857Y89504D01*
X9261Y89457D01*
X9632Y89390D01*
X9972Y89305D01*
X10280Y89200D01*
X10556Y89076D01*
X10799Y88934D01*
X11013Y88769D01*
X11198Y88579D01*
X11354Y88363D01*
X11483Y88122D01*
X11582Y87856D01*
X11653Y87565D01*
X11696Y87248D01*
X11710Y86906D01*
X11696Y86591D01*
X11651Y86297D01*
X11578Y86025D01*
X11475Y85775D01*
X11343Y85547D01*
X11181Y85340D01*
X10989Y85155D01*
X10769Y84992D01*
X10519Y84850D01*
X10240Y84726D01*
X9931Y84621D01*
X9594Y84536D01*
X9227Y84469D01*
X8832Y84422D01*
X8407Y84393D01*
X7953Y84384D01*
X7487Y84393D01*
G37*
%LPD*%
G36*
X27583Y90682D02*
X28128Y90732D01*
X28638Y90815D01*
X29113Y90931D01*
X29552Y91080D01*
X29956Y91262D01*
X30326Y91477D01*
X30660Y91726D01*
X30956Y92006D01*
X31213Y92319D01*
X31431Y92663D01*
X31609Y93039D01*
X31747Y93447D01*
X31846Y93887D01*
X31905Y94358D01*
X31925Y94861D01*
X31906Y95367D01*
X31849Y95841D01*
X31754Y96285D01*
X31621Y96698D01*
X31450Y97080D01*
X31240Y97431D01*
X30993Y97751D01*
X30708Y98040D01*
X30384Y98297D01*
X30020Y98519D01*
X29616Y98708D01*
X29173Y98862D01*
X28690Y98981D01*
X28167Y99067D01*
X27605Y99118D01*
X27003Y99135D01*
X26395Y99119D01*
X25828Y99071D01*
X25303Y98991D01*
X24819Y98879D01*
X24376Y98735D01*
X23974Y98559D01*
X23613Y98351D01*
X23294Y98110D01*
X23013Y97836D01*
X22771Y97526D01*
X22565Y97181D01*
X22397Y96799D01*
X22266Y96381D01*
X22173Y95928D01*
X22117Y95439D01*
X22098Y94914D01*
X22117Y94399D01*
X22175Y93918D01*
X22271Y93470D01*
X22405Y93055D01*
X22577Y92674D01*
X22788Y92325D01*
X23037Y92010D01*
X23324Y91728D01*
X23650Y91479D01*
X24014Y91263D01*
X24416Y91081D01*
X24857Y90931D01*
X25336Y90815D01*
X25853Y90732D01*
X26409Y90682D01*
X27003Y90666D01*
X27583Y90682D01*
G37*
%LPC*%
G36*
X26537Y92331D02*
X26103Y92360D01*
X25701Y92408D01*
X25331Y92475D01*
X24993Y92562D01*
X24687Y92668D01*
X24412Y92794D01*
X24170Y92939D01*
X23957Y93105D01*
X23773Y93295D01*
X23617Y93509D01*
X23490Y93748D01*
X23390Y94010D01*
X23320Y94296D01*
X23277Y94606D01*
X23263Y94940D01*
X23277Y95271D01*
X23319Y95578D01*
X23388Y95860D01*
X23485Y96117D01*
X23610Y96349D01*
X23763Y96557D01*
X23944Y96739D01*
X24152Y96897D01*
X24391Y97034D01*
X24664Y97152D01*
X24970Y97252D01*
X25309Y97334D01*
X25682Y97398D01*
X26089Y97443D01*
X26529Y97471D01*
X27003Y97480D01*
X27471Y97470D01*
X27907Y97442D01*
X28311Y97394D01*
X28682Y97328D01*
X29022Y97242D01*
X29330Y97137D01*
X29606Y97014D01*
X29849Y96871D01*
X30063Y96706D01*
X30248Y96516D01*
X30404Y96301D01*
X30533Y96060D01*
X30632Y95794D01*
X30703Y95502D01*
X30746Y95186D01*
X30760Y94844D01*
X30746Y94528D01*
X30701Y94235D01*
X30628Y93963D01*
X30525Y93713D01*
X30393Y93484D01*
X30231Y93278D01*
X30039Y93093D01*
X29819Y92930D01*
X29569Y92787D01*
X29290Y92664D01*
X28981Y92559D01*
X28644Y92473D01*
X28277Y92407D01*
X27882Y92359D01*
X27457Y92331D01*
X27003Y92321D01*
X26537Y92331D01*
G37*
%LPD*%
G36*
X10375Y60811D02*
X10677Y60844D01*
X10961Y60900D01*
X11229Y60979D01*
X11478Y61080D01*
X11710Y61203D01*
X11925Y61349D01*
X12122Y61518D01*
X12299Y61708D01*
X12452Y61921D01*
X12581Y62156D01*
X12687Y62413D01*
X12769Y62693D01*
X12828Y62994D01*
X12863Y63318D01*
X12875Y63664D01*
X12868Y63945D01*
X12847Y64216D01*
X12812Y64475D01*
X12762Y64724D01*
X12699Y64963D01*
X12621Y65190D01*
X12530Y65407D01*
X12424Y65612D01*
X12301Y65810D01*
X12159Y66001D01*
X11997Y66186D01*
X11814Y66364D01*
X11612Y66537D01*
X11390Y66704D01*
X10887Y67018D01*
X10887Y67071D01*
X11345Y67119D01*
X11549Y67159D01*
X11738Y67210D01*
X11910Y67271D01*
X12065Y67344D01*
X12205Y67427D01*
X12328Y67522D01*
X12436Y67629D01*
X12529Y67751D01*
X12608Y67888D01*
X12673Y68040D01*
X12723Y68206D01*
X12759Y68388D01*
X12780Y68585D01*
X12788Y68796D01*
X12779Y69105D01*
X12753Y69411D01*
X12709Y69714D01*
X12647Y70013D01*
X11667Y70013D01*
X11713Y69740D01*
X11728Y69497D01*
X11706Y69259D01*
X11639Y69063D01*
X11528Y68909D01*
X11373Y68796D01*
X11174Y68716D01*
X10932Y68658D01*
X10646Y68624D01*
X10318Y68612D01*
X6236Y68612D01*
X5860Y68598D01*
X5507Y68556D01*
X5176Y68485D01*
X4869Y68387D01*
X4584Y68260D01*
X4322Y68105D01*
X4083Y67921D01*
X3867Y67710D01*
X3675Y67471D01*
X3509Y67204D01*
X3368Y66909D01*
X3253Y66587D01*
X3163Y66237D01*
X3099Y65859D01*
X3061Y65454D01*
X3048Y65021D01*
X3058Y64608D01*
X3088Y64218D01*
X3138Y63852D01*
X3208Y63509D01*
X3298Y63190D01*
X3408Y62894D01*
X3538Y62621D01*
X3687Y62372D01*
X3857Y62146D01*
X4047Y61943D01*
X4257Y61764D01*
X4487Y61609D01*
X4736Y61476D01*
X5006Y61367D01*
X5296Y61282D01*
X5606Y61220D01*
X5755Y62867D01*
X5564Y62897D01*
X5387Y62939D01*
X5224Y62993D01*
X5074Y63059D01*
X4937Y63137D01*
X4814Y63228D01*
X4704Y63330D01*
X4607Y63445D01*
X4523Y63574D01*
X4450Y63722D01*
X4388Y63887D01*
X4338Y64071D01*
X4299Y64273D01*
X4270Y64492D01*
X4248Y64986D01*
X4256Y65240D01*
X4279Y65477D01*
X4318Y65696D01*
X4373Y65897D01*
X4443Y66081D01*
X4529Y66247D01*
X4630Y66396D01*
X4747Y66528D01*
X4882Y66643D01*
X5038Y66742D01*
X5214Y66826D01*
X5411Y66895D01*
X5628Y66949D01*
X5866Y66987D01*
X6124Y67010D01*
X6403Y67018D01*
X6919Y67018D01*
X6954Y64890D01*
X6979Y64370D01*
X7027Y63887D01*
X7097Y63441D01*
X7191Y63032D01*
X7308Y62660D01*
X7447Y62325D01*
X7610Y62028D01*
X7795Y61767D01*
X8003Y61540D01*
X8232Y61344D01*
X8483Y61178D01*
X8754Y61041D01*
X9047Y60936D01*
X9362Y60860D01*
X9698Y60815D01*
X10055Y60799D01*
X10375Y60811D01*
G37*
%LPC*%
G36*
X9743Y62439D02*
X9440Y62496D01*
X9170Y62592D01*
X8934Y62726D01*
X8729Y62896D01*
X8553Y63100D01*
X8405Y63336D01*
X8286Y63607D01*
X8193Y63927D01*
X8124Y64315D01*
X8079Y64770D01*
X8058Y65293D01*
X8023Y67018D01*
X8802Y67018D01*
X9163Y66994D01*
X9520Y66921D01*
X9871Y66799D01*
X10217Y66628D01*
X10542Y66416D01*
X10831Y66167D01*
X11083Y65884D01*
X11299Y65564D01*
X11471Y65215D01*
X11594Y64842D01*
X11668Y64444D01*
X11687Y64236D01*
X11693Y64023D01*
X11686Y63835D01*
X11667Y63659D01*
X11634Y63494D01*
X11588Y63341D01*
X11529Y63198D01*
X11456Y63066D01*
X11371Y62945D01*
X11272Y62836D01*
X11162Y62738D01*
X11040Y62654D01*
X10908Y62582D01*
X10764Y62524D01*
X10610Y62478D01*
X10445Y62446D01*
X10268Y62426D01*
X10081Y62420D01*
X9743Y62439D01*
G37*
%LPD*%
G36*
X29425Y100686D02*
X29727Y100719D01*
X30011Y100775D01*
X30279Y100854D01*
X30528Y100955D01*
X30760Y101078D01*
X30975Y101224D01*
X31172Y101393D01*
X31349Y101583D01*
X31502Y101796D01*
X31631Y102031D01*
X31737Y102288D01*
X31819Y102568D01*
X31878Y102869D01*
X31913Y103193D01*
X31925Y103539D01*
X31918Y103820D01*
X31897Y104091D01*
X31862Y104350D01*
X31812Y104599D01*
X31749Y104838D01*
X31671Y105065D01*
X31580Y105282D01*
X31474Y105487D01*
X31351Y105685D01*
X31209Y105876D01*
X31047Y106061D01*
X30864Y106239D01*
X30662Y106412D01*
X30440Y106579D01*
X29937Y106893D01*
X29937Y106946D01*
X30395Y106994D01*
X30599Y107034D01*
X30788Y107085D01*
X30960Y107146D01*
X31115Y107219D01*
X31255Y107302D01*
X31378Y107397D01*
X31486Y107504D01*
X31579Y107626D01*
X31658Y107763D01*
X31723Y107915D01*
X31773Y108081D01*
X31809Y108263D01*
X31830Y108460D01*
X31838Y108671D01*
X31829Y108980D01*
X31803Y109286D01*
X31759Y109589D01*
X31697Y109888D01*
X30717Y109888D01*
X30763Y109615D01*
X30778Y109372D01*
X30756Y109134D01*
X30689Y108938D01*
X30578Y108784D01*
X30423Y108671D01*
X30224Y108591D01*
X29982Y108533D01*
X29696Y108499D01*
X29368Y108487D01*
X25286Y108487D01*
X24910Y108473D01*
X24557Y108431D01*
X24226Y108360D01*
X23919Y108262D01*
X23634Y108135D01*
X23372Y107980D01*
X23133Y107796D01*
X22917Y107585D01*
X22725Y107346D01*
X22559Y107079D01*
X22418Y106784D01*
X22303Y106462D01*
X22213Y106112D01*
X22149Y105734D01*
X22111Y105329D01*
X22098Y104896D01*
X22108Y104483D01*
X22138Y104093D01*
X22188Y103727D01*
X22258Y103384D01*
X22348Y103065D01*
X22458Y102769D01*
X22588Y102496D01*
X22737Y102247D01*
X22907Y102021D01*
X23097Y101818D01*
X23307Y101639D01*
X23537Y101484D01*
X23786Y101351D01*
X24056Y101242D01*
X24346Y101157D01*
X24656Y101095D01*
X24805Y102742D01*
X24614Y102772D01*
X24437Y102814D01*
X24274Y102868D01*
X24124Y102934D01*
X23987Y103012D01*
X23864Y103103D01*
X23754Y103205D01*
X23657Y103320D01*
X23573Y103449D01*
X23500Y103597D01*
X23438Y103762D01*
X23388Y103946D01*
X23349Y104148D01*
X23320Y104367D01*
X23298Y104861D01*
X23306Y105115D01*
X23329Y105352D01*
X23368Y105571D01*
X23423Y105772D01*
X23493Y105956D01*
X23579Y106122D01*
X23680Y106271D01*
X23797Y106403D01*
X23932Y106518D01*
X24088Y106617D01*
X24264Y106701D01*
X24461Y106770D01*
X24678Y106824D01*
X24916Y106862D01*
X25174Y106885D01*
X25453Y106893D01*
X25969Y106893D01*
X26004Y104765D01*
X26029Y104245D01*
X26077Y103762D01*
X26147Y103316D01*
X26241Y102907D01*
X26358Y102535D01*
X26497Y102200D01*
X26660Y101903D01*
X26845Y101642D01*
X27053Y101415D01*
X27282Y101219D01*
X27533Y101053D01*
X27804Y100916D01*
X28097Y100811D01*
X28412Y100735D01*
X28748Y100690D01*
X29105Y100674D01*
X29425Y100686D01*
G37*
%LPC*%
G36*
X28793Y102314D02*
X28490Y102371D01*
X28220Y102467D01*
X27984Y102601D01*
X27779Y102771D01*
X27603Y102975D01*
X27455Y103211D01*
X27336Y103482D01*
X27243Y103802D01*
X27174Y104190D01*
X27129Y104645D01*
X27108Y105168D01*
X27073Y106893D01*
X27852Y106893D01*
X28213Y106869D01*
X28570Y106796D01*
X28921Y106674D01*
X29267Y106503D01*
X29592Y106291D01*
X29881Y106042D01*
X30133Y105759D01*
X30349Y105439D01*
X30521Y105090D01*
X30644Y104717D01*
X30718Y104319D01*
X30737Y104111D01*
X30743Y103898D01*
X30736Y103710D01*
X30717Y103534D01*
X30684Y103369D01*
X30638Y103216D01*
X30579Y103073D01*
X30506Y102941D01*
X30421Y102820D01*
X30322Y102711D01*
X30212Y102613D01*
X30090Y102529D01*
X29958Y102457D01*
X29814Y102399D01*
X29660Y102353D01*
X29495Y102321D01*
X29318Y102301D01*
X29131Y102295D01*
X28793Y102314D01*
G37*
%LPD*%
G36*
X31750Y59262D02*
X30384Y59262D01*
X30384Y51213D01*
X26083Y51213D01*
X26083Y58378D01*
X24734Y58378D01*
X24734Y51213D01*
X20776Y51213D01*
X20776Y58903D01*
X19409Y58903D01*
X19409Y49540D01*
X31750Y49540D01*
X31750Y59262D01*
G37*
G36*
X8499Y50817D02*
X9059Y50868D01*
X9582Y50954D01*
X10066Y51074D01*
X10512Y51229D01*
X10920Y51418D01*
X11291Y51641D01*
X11623Y51899D01*
X11916Y52189D01*
X12171Y52511D01*
X12386Y52864D01*
X12562Y53249D01*
X12699Y53664D01*
X12797Y54112D01*
X12856Y54590D01*
X12875Y55100D01*
X12866Y55468D01*
X12840Y55819D01*
X12796Y56154D01*
X12735Y56471D01*
X12656Y56772D01*
X12560Y57055D01*
X12446Y57322D01*
X12315Y57572D01*
X12166Y57805D01*
X11999Y58021D01*
X11815Y58220D01*
X11614Y58402D01*
X11395Y58568D01*
X11159Y58716D01*
X10905Y58848D01*
X10633Y58962D01*
X10239Y57579D01*
X10541Y57444D01*
X10815Y57260D01*
X11062Y57026D01*
X11281Y56742D01*
X11378Y56581D01*
X11461Y56408D01*
X11532Y56222D01*
X11590Y56023D01*
X11635Y55811D01*
X11667Y55587D01*
X11686Y55350D01*
X11693Y55100D01*
X11679Y54786D01*
X11638Y54491D01*
X11568Y54215D01*
X11472Y53959D01*
X11347Y53723D01*
X11195Y53505D01*
X11016Y53308D01*
X10808Y53129D01*
X10575Y52971D01*
X10319Y52834D01*
X10040Y52718D01*
X9737Y52623D01*
X9412Y52550D01*
X9062Y52497D01*
X8690Y52465D01*
X8294Y52455D01*
X8294Y59216D01*
X8084Y59216D01*
X7474Y59200D01*
X6904Y59151D01*
X6373Y59070D01*
X5881Y58955D01*
X5428Y58808D01*
X5015Y58629D01*
X4642Y58417D01*
X4307Y58172D01*
X4012Y57895D01*
X3756Y57584D01*
X3540Y57242D01*
X3363Y56866D01*
X3225Y56458D01*
X3127Y56018D01*
X3068Y55545D01*
X3048Y55039D01*
X3068Y54543D01*
X3126Y54077D01*
X3224Y53640D01*
X3361Y53233D01*
X3537Y52855D01*
X3753Y52507D01*
X4007Y52188D01*
X4301Y51899D01*
X4631Y51641D01*
X4995Y51418D01*
X5394Y51229D01*
X5827Y51074D01*
X6294Y50954D01*
X6795Y50868D01*
X7331Y50817D01*
X7900Y50799D01*
X8499Y50817D01*
G37*
%LPC*%
G36*
X6760Y52495D02*
X6452Y52537D01*
X6161Y52599D01*
X5889Y52679D01*
X5635Y52779D01*
X5398Y52899D01*
X5180Y53037D01*
X4979Y53195D01*
X4800Y53370D01*
X4644Y53560D01*
X4512Y53765D01*
X4405Y53984D01*
X4321Y54219D01*
X4261Y54469D01*
X4225Y54733D01*
X4213Y55012D01*
X4224Y55299D01*
X4256Y55569D01*
X4310Y55822D01*
X4385Y56057D01*
X4482Y56275D01*
X4600Y56476D01*
X4739Y56659D01*
X4901Y56825D01*
X5085Y56975D01*
X5295Y57109D01*
X5530Y57228D01*
X5791Y57331D01*
X6076Y57419D01*
X6388Y57490D01*
X6724Y57547D01*
X7086Y57587D01*
X7086Y52472D01*
X6760Y52495D01*
G37*
%LPD*%
G36*
X12700Y133639D02*
X7112Y133639D01*
X6794Y133649D01*
X6493Y133681D01*
X6208Y133733D01*
X5941Y133807D01*
X5690Y133901D01*
X5455Y134016D01*
X5237Y134152D01*
X5036Y134309D01*
X4856Y134483D01*
X4699Y134672D01*
X4567Y134874D01*
X4458Y135090D01*
X4374Y135319D01*
X4314Y135563D01*
X4278Y135820D01*
X4266Y136091D01*
X4280Y136443D01*
X4322Y136755D01*
X4394Y137026D01*
X4493Y137256D01*
X4623Y137452D01*
X4786Y137618D01*
X4980Y137754D01*
X5207Y137861D01*
X5482Y137941D01*
X5821Y137999D01*
X6224Y138033D01*
X6692Y138045D01*
X12700Y138045D01*
X12700Y139630D01*
X6385Y139630D01*
X5950Y139618D01*
X5548Y139584D01*
X5178Y139527D01*
X4840Y139447D01*
X4535Y139344D01*
X4263Y139218D01*
X4022Y139070D01*
X3814Y138899D01*
X3635Y138703D01*
X3479Y138482D01*
X3347Y138236D01*
X3240Y137965D01*
X3156Y137668D01*
X3096Y137346D01*
X3060Y136998D01*
X3048Y136626D01*
X3055Y136358D01*
X3075Y136102D01*
X3109Y135858D01*
X3157Y135626D01*
X3217Y135406D01*
X3292Y135198D01*
X3380Y135001D01*
X3482Y134817D01*
X3729Y134473D01*
X4039Y134155D01*
X4410Y133862D01*
X4844Y133595D01*
X4844Y133569D01*
X4187Y133608D01*
X3626Y133631D01*
X3083Y133639D01*
X-298Y133639D01*
X-298Y132062D01*
X12700Y132062D01*
X12700Y133639D01*
G37*
G36*
X31750Y135934D02*
X31750Y137668D01*
X19409Y142704D01*
X19409Y140944D01*
X28098Y137545D01*
X30279Y136810D01*
X28098Y136074D01*
X19409Y132658D01*
X19409Y130898D01*
X31750Y135934D01*
G37*
G36*
X31750Y166799D02*
X30410Y166799D01*
X30410Y160361D01*
X30100Y160514D01*
X29785Y160707D01*
X29463Y160943D01*
X29136Y161220D01*
X28795Y161543D01*
X28434Y161918D01*
X28053Y162345D01*
X27651Y162822D01*
X26955Y163664D01*
X26357Y164357D01*
X25856Y164903D01*
X25453Y165301D01*
X25098Y165605D01*
X24743Y165869D01*
X24388Y166094D01*
X24034Y166278D01*
X23678Y166421D01*
X23322Y166524D01*
X22965Y166586D01*
X22606Y166606D01*
X22213Y166590D01*
X21842Y166543D01*
X21495Y166465D01*
X21171Y166355D01*
X20870Y166214D01*
X20592Y166042D01*
X20337Y165838D01*
X20106Y165603D01*
X19899Y165339D01*
X19720Y165048D01*
X19569Y164730D01*
X19445Y164385D01*
X19349Y164013D01*
X19280Y163614D01*
X19239Y163188D01*
X19225Y162735D01*
X19239Y162320D01*
X19280Y161924D01*
X19348Y161547D01*
X19444Y161190D01*
X19567Y160852D01*
X19718Y160533D01*
X19896Y160234D01*
X20101Y159954D01*
X20330Y159698D01*
X20577Y159470D01*
X20843Y159270D01*
X21128Y159099D01*
X21432Y158956D01*
X21755Y158841D01*
X22097Y158755D01*
X22457Y158697D01*
X22606Y160309D01*
X22366Y160346D01*
X22139Y160399D01*
X21926Y160470D01*
X21727Y160557D01*
X21542Y160662D01*
X21370Y160783D01*
X21213Y160920D01*
X21069Y161075D01*
X20941Y161244D01*
X20829Y161424D01*
X20735Y161614D01*
X20658Y161816D01*
X20599Y162029D01*
X20556Y162253D01*
X20530Y162489D01*
X20522Y162735D01*
X20530Y162993D01*
X20557Y163236D01*
X20600Y163464D01*
X20662Y163679D01*
X20741Y163878D01*
X20837Y164063D01*
X20951Y164234D01*
X21082Y164390D01*
X21229Y164530D01*
X21391Y164651D01*
X21567Y164753D01*
X21757Y164837D01*
X21961Y164902D01*
X22179Y164949D01*
X22412Y164977D01*
X22659Y164986D01*
X23025Y164964D01*
X23372Y164899D01*
X23700Y164791D01*
X24007Y164640D01*
X24302Y164453D01*
X24590Y164240D01*
X24871Y164000D01*
X25146Y163733D01*
X25689Y163139D01*
X26232Y162477D01*
X26798Y161777D01*
X27410Y161071D01*
X27737Y160720D01*
X28082Y160378D01*
X28446Y160044D01*
X28829Y159718D01*
X29236Y159408D01*
X29673Y159123D01*
X30140Y158863D01*
X30638Y158627D01*
X31750Y158627D01*
X31750Y166799D01*
G37*
G36*
X3488Y151002D02*
X3913Y151018D01*
X5247Y151031D01*
X12700Y151031D01*
X12700Y152608D01*
X7208Y152608D01*
X6872Y152618D01*
X6554Y152649D01*
X6256Y152700D01*
X5976Y152772D01*
X5715Y152864D01*
X5473Y152977D01*
X5249Y153111D01*
X5045Y153265D01*
X4862Y153436D01*
X4704Y153623D01*
X4570Y153825D01*
X4460Y154042D01*
X4375Y154274D01*
X4314Y154521D01*
X4278Y154783D01*
X4266Y155060D01*
X4280Y155426D01*
X4322Y155746D01*
X4394Y156018D01*
X4493Y156243D01*
X4625Y156430D01*
X4793Y156591D01*
X4997Y156724D01*
X5238Y156829D01*
X5522Y156910D01*
X5860Y156967D01*
X6249Y157002D01*
X6692Y157013D01*
X12700Y157013D01*
X12700Y158599D01*
X6385Y158599D01*
X5954Y158587D01*
X5555Y158553D01*
X5187Y158497D01*
X4851Y158418D01*
X4547Y158316D01*
X4274Y158192D01*
X4033Y158045D01*
X3823Y157876D01*
X3642Y157682D01*
X3484Y157462D01*
X3351Y157216D01*
X3242Y156944D01*
X3157Y156646D01*
X3097Y156322D01*
X3060Y155971D01*
X3048Y155594D01*
X3054Y155335D01*
X3074Y155086D01*
X3105Y154848D01*
X3150Y154621D01*
X3207Y154405D01*
X3277Y154199D01*
X3360Y154005D01*
X3455Y153821D01*
X3566Y153645D01*
X3695Y153475D01*
X3842Y153309D01*
X4006Y153150D01*
X4389Y152846D01*
X4844Y152564D01*
X4844Y152538D01*
X3902Y152507D01*
X3460Y152485D01*
X3223Y152468D01*
X3223Y150979D01*
X3488Y151002D01*
G37*
G36*
X12700Y116293D02*
X11334Y116293D01*
X11334Y110057D01*
X359Y110057D01*
X359Y108384D01*
X12700Y108384D01*
X12700Y116293D01*
G37*
G36*
X31750Y47480D02*
X30384Y47480D01*
X30384Y41244D01*
X19409Y41244D01*
X19409Y39571D01*
X31750Y39571D01*
X31750Y47480D01*
G37*
G36*
X4371Y142185D02*
X10694Y142185D01*
X10954Y142192D01*
X11197Y142215D01*
X11424Y142252D01*
X11633Y142303D01*
X11826Y142370D01*
X12002Y142451D01*
X12161Y142547D01*
X12304Y142658D01*
X12429Y142784D01*
X12538Y142924D01*
X12631Y143079D01*
X12706Y143249D01*
X12765Y143434D01*
X12807Y143634D01*
X12832Y143848D01*
X12840Y144077D01*
X12827Y144482D01*
X12788Y144883D01*
X12722Y145279D01*
X12630Y145671D01*
X11465Y145671D01*
X11557Y145145D01*
X11588Y144760D01*
X11570Y144505D01*
X11519Y144290D01*
X11433Y144117D01*
X11312Y143985D01*
X11148Y143887D01*
X10934Y143817D01*
X10669Y143776D01*
X10353Y143762D01*
X4371Y143762D01*
X4371Y145513D01*
X3223Y145513D01*
X3223Y143762D01*
X1104Y143762D01*
X1104Y142711D01*
X3223Y142246D01*
X3223Y141090D01*
X4371Y141090D01*
X4371Y142185D01*
G37*
G36*
X23429Y111112D02*
X24480Y111125D01*
X31750Y111125D01*
X31750Y112702D01*
X26810Y112702D01*
X26428Y112710D01*
X26068Y112734D01*
X25731Y112774D01*
X25417Y112831D01*
X25125Y112903D01*
X24857Y112992D01*
X24611Y113097D01*
X24388Y113218D01*
X24190Y113355D01*
X24019Y113506D01*
X23873Y113671D01*
X23755Y113851D01*
X23662Y114046D01*
X23596Y114255D01*
X23556Y114478D01*
X23543Y114716D01*
X23565Y115189D01*
X23593Y115386D01*
X23631Y115557D01*
X22186Y115557D01*
X22120Y115235D01*
X22098Y114917D01*
X22105Y114700D01*
X22126Y114496D01*
X22161Y114304D01*
X22210Y114125D01*
X22273Y113958D01*
X22349Y113804D01*
X22440Y113662D01*
X22545Y113534D01*
X22669Y113413D01*
X22816Y113295D01*
X23184Y113072D01*
X23648Y112862D01*
X24209Y112666D01*
X24209Y112631D01*
X22273Y112561D01*
X22273Y111072D01*
X23429Y111112D01*
G37*
G36*
X12700Y119658D02*
X3223Y119658D01*
X3223Y118081D01*
X12700Y118081D01*
X12700Y119658D01*
G37*
G36*
X12700Y148564D02*
X3223Y148564D01*
X3223Y146987D01*
X12700Y146987D01*
X12700Y148564D01*
G37*
G36*
X31750Y156102D02*
X29832Y156102D01*
X29832Y154394D01*
X31750Y154394D01*
X31750Y156102D01*
G37*
G36*
X1209Y119658D02*
X-298Y119658D01*
X-298Y118081D01*
X1209Y118081D01*
X1209Y119658D01*
G37*
G36*
X1209Y148564D02*
X-298Y148564D01*
X-298Y146987D01*
X1209Y146987D01*
X1209Y148564D01*
G37*
G36*
X217820Y98544D02*
X228974Y98544D01*
X228974Y102385D01*
X217820Y102385D01*
X217820Y113644D01*
X213953Y113644D01*
X213953Y102385D01*
X202800Y102385D01*
X202800Y98544D01*
X213953Y98544D01*
X213953Y87285D01*
X217820Y87285D01*
X217820Y98544D01*
G37*
G36*
X226860Y592505D02*
X204941Y592505D01*
X204941Y585491D01*
X226860Y585491D01*
X226860Y592505D01*
G37*
G36*
X395928Y618647D02*
X396486Y618686D01*
X397002Y618750D01*
X397477Y618839D01*
X397911Y618954D01*
X398303Y619095D01*
X398654Y619261D01*
X398964Y619453D01*
X399235Y619673D01*
X399470Y619921D01*
X399668Y620198D01*
X399831Y620503D01*
X399958Y620838D01*
X400048Y621202D01*
X400102Y621594D01*
X400120Y622015D01*
X400113Y622272D01*
X400091Y622520D01*
X400055Y622760D01*
X400005Y622992D01*
X399940Y623215D01*
X399861Y623431D01*
X399768Y623638D01*
X399660Y623837D01*
X399652Y623850D01*
X399538Y624027D01*
X399402Y624206D01*
X399252Y624375D01*
X399088Y624533D01*
X398909Y624681D01*
X398717Y624819D01*
X398510Y624946D01*
X398290Y625063D01*
X398290Y625081D01*
X399814Y625081D01*
X400148Y625072D01*
X400460Y625044D01*
X400751Y624998D01*
X401021Y624934D01*
X401268Y624851D01*
X401495Y624749D01*
X401700Y624630D01*
X401883Y624492D01*
X402044Y624335D01*
X402184Y624160D01*
X402303Y623967D01*
X402400Y623755D01*
X402475Y623525D01*
X402529Y623277D01*
X402560Y623025D01*
X402562Y623010D01*
X402572Y622725D01*
X402550Y622308D01*
X402484Y621933D01*
X402373Y621601D01*
X402218Y621310D01*
X402021Y621065D01*
X401787Y620867D01*
X401516Y620717D01*
X401206Y620614D01*
X401434Y619029D01*
X401706Y619105D01*
X401962Y619201D01*
X402203Y619318D01*
X402427Y619456D01*
X402635Y619614D01*
X402827Y619792D01*
X403003Y619991D01*
X403164Y620211D01*
X403306Y620451D01*
X403430Y620710D01*
X403535Y620989D01*
X403620Y621288D01*
X403687Y621607D01*
X403734Y621945D01*
X403763Y622303D01*
X403772Y622681D01*
X403757Y623161D01*
X403710Y623611D01*
X403632Y624029D01*
X403523Y624417D01*
X403382Y624773D01*
X403211Y625099D01*
X403008Y625393D01*
X402774Y625657D01*
X402509Y625889D01*
X402212Y626091D01*
X401885Y626261D01*
X401526Y626401D01*
X401136Y626509D01*
X400715Y626587D01*
X400262Y626633D01*
X399779Y626649D01*
X392535Y626649D01*
X391300Y626662D01*
X390873Y626678D01*
X390573Y626701D01*
X390573Y625203D01*
X390781Y625168D01*
X391283Y625133D01*
X392194Y625098D01*
X392194Y625081D01*
X391793Y624858D01*
X391441Y624594D01*
X391138Y624287D01*
X390884Y623938D01*
X390776Y623749D01*
X390683Y623551D01*
X390604Y623345D01*
X390539Y623131D01*
X390489Y622908D01*
X390453Y622677D01*
X390432Y622438D01*
X390424Y622190D01*
X390443Y621756D01*
X390499Y621350D01*
X390593Y620973D01*
X390723Y620624D01*
X390891Y620304D01*
X391097Y620012D01*
X391340Y619749D01*
X391620Y619515D01*
X391939Y619308D01*
X392300Y619130D01*
X392702Y618978D01*
X393145Y618855D01*
X393629Y618758D01*
X394155Y618689D01*
X394721Y618648D01*
X395329Y618634D01*
X395928Y618647D01*
G37*
%LPC*%
G36*
X394838Y620272D02*
X394399Y620298D01*
X393993Y620341D01*
X393621Y620402D01*
X393284Y620479D01*
X392980Y620574D01*
X392710Y620686D01*
X392474Y620815D01*
X392269Y620964D01*
X392091Y621132D01*
X391940Y621322D01*
X391817Y621531D01*
X391721Y621762D01*
X391653Y622013D01*
X391612Y622284D01*
X391598Y622576D01*
X391605Y622755D01*
X391626Y622930D01*
X391660Y623099D01*
X391709Y623264D01*
X391847Y623580D01*
X392040Y623876D01*
X392286Y624147D01*
X392581Y624386D01*
X392926Y624592D01*
X393319Y624765D01*
X393757Y624903D01*
X394235Y625002D01*
X394754Y625061D01*
X395312Y625081D01*
X395857Y625061D01*
X396364Y625002D01*
X396832Y624903D01*
X397260Y624765D01*
X397646Y624591D01*
X397984Y624384D01*
X398098Y624290D01*
X398275Y624145D01*
X398517Y623872D01*
X398709Y623573D01*
X398846Y623252D01*
X398894Y623085D01*
X398928Y622911D01*
X398948Y622733D01*
X398955Y622550D01*
X398942Y622248D01*
X398902Y621969D01*
X398836Y621714D01*
X398743Y621481D01*
X398623Y621271D01*
X398477Y621085D01*
X398305Y620921D01*
X398106Y620780D01*
X397876Y620659D01*
X397612Y620554D01*
X397314Y620465D01*
X396982Y620393D01*
X396616Y620336D01*
X396215Y620296D01*
X395781Y620272D01*
X395312Y620264D01*
X394838Y620272D01*
G37*
%LPD*%
G36*
X376899Y600710D02*
X377454Y600750D01*
X377970Y600816D01*
X378447Y600908D01*
X378885Y601027D01*
X379284Y601172D01*
X379645Y601344D01*
X379967Y601542D01*
X380250Y601768D01*
X380495Y602024D01*
X380703Y602310D01*
X380873Y602625D01*
X381005Y602970D01*
X381100Y603345D01*
X381156Y603749D01*
X381175Y604183D01*
X381169Y604445D01*
X381151Y604696D01*
X381120Y604936D01*
X381077Y605165D01*
X381021Y605383D01*
X380954Y605591D01*
X380873Y605788D01*
X380781Y605974D01*
X380674Y606150D01*
X380552Y606318D01*
X380413Y606476D01*
X380258Y606625D01*
X380087Y606766D01*
X379899Y606898D01*
X379476Y607135D01*
X379476Y607170D01*
X379879Y607177D01*
X380352Y607200D01*
X380768Y607230D01*
X381000Y607257D01*
X381000Y608764D01*
X380701Y608741D01*
X380275Y608724D01*
X379047Y608711D01*
X368002Y608711D01*
X368002Y607135D01*
X371935Y607135D01*
X372995Y607152D01*
X372995Y607135D01*
X372595Y606898D01*
X372252Y606627D01*
X372103Y606478D01*
X371968Y606320D01*
X371848Y606154D01*
X371742Y605978D01*
X371650Y605793D01*
X371570Y605597D01*
X371502Y605389D01*
X371447Y605170D01*
X371404Y604940D01*
X371373Y604699D01*
X371354Y604447D01*
X371348Y604183D01*
X371367Y603761D01*
X371426Y603366D01*
X371522Y602998D01*
X371658Y602658D01*
X371832Y602345D01*
X372045Y602059D01*
X372297Y601800D01*
X372587Y601568D01*
X372917Y601364D01*
X373285Y601187D01*
X373691Y601037D01*
X374137Y600915D01*
X374621Y600820D01*
X375144Y600751D01*
X375705Y600711D01*
X376305Y600697D01*
X376899Y600710D01*
G37*
%LPC*%
G36*
X375775Y602361D02*
X375332Y602385D01*
X374923Y602427D01*
X374548Y602485D01*
X374208Y602559D01*
X373902Y602650D01*
X373630Y602758D01*
X373393Y602882D01*
X373187Y603025D01*
X373008Y603189D01*
X372857Y603373D01*
X372733Y603577D01*
X372637Y603803D01*
X372568Y604049D01*
X372527Y604316D01*
X372513Y604603D01*
X372527Y604923D01*
X372568Y605220D01*
X372636Y605494D01*
X372732Y605746D01*
X372855Y605976D01*
X373006Y606183D01*
X373184Y606368D01*
X373389Y606530D01*
X373624Y606672D01*
X373890Y606795D01*
X374187Y606898D01*
X374517Y606983D01*
X374877Y607050D01*
X375269Y607097D01*
X375693Y607125D01*
X376148Y607135D01*
X376620Y607125D01*
X377060Y607097D01*
X377469Y607050D01*
X377845Y606983D01*
X378189Y606898D01*
X378501Y606795D01*
X378781Y606672D01*
X379029Y606530D01*
X379056Y606511D01*
X379247Y606368D01*
X379436Y606182D01*
X379595Y605973D01*
X379726Y605742D01*
X379827Y605487D01*
X379900Y605210D01*
X379943Y604909D01*
X379958Y604586D01*
X379944Y604300D01*
X379904Y604036D01*
X379837Y603791D01*
X379743Y603568D01*
X379622Y603364D01*
X379475Y603182D01*
X379301Y603020D01*
X379099Y602878D01*
X378867Y602755D01*
X378600Y602648D01*
X378297Y602558D01*
X377959Y602484D01*
X377585Y602426D01*
X377176Y602385D01*
X376732Y602361D01*
X376253Y602352D01*
X375775Y602361D01*
G37*
%LPD*%
G36*
X381000Y549244D02*
X376192Y549244D01*
X376192Y552870D01*
X376175Y553348D01*
X376127Y553800D01*
X376046Y554227D01*
X375933Y554628D01*
X375788Y555003D01*
X375610Y555353D01*
X375400Y555677D01*
X375158Y555975D01*
X374888Y556243D01*
X374596Y556475D01*
X374282Y556672D01*
X373945Y556833D01*
X373586Y556958D01*
X373204Y557047D01*
X372800Y557100D01*
X372373Y557118D01*
X371943Y557100D01*
X371538Y557047D01*
X371158Y556958D01*
X370803Y556834D01*
X370473Y556673D01*
X370167Y556478D01*
X369887Y556247D01*
X369631Y555980D01*
X369404Y555680D01*
X369206Y555352D01*
X369039Y554994D01*
X368902Y554607D01*
X368796Y554190D01*
X368720Y553745D01*
X368674Y553270D01*
X368659Y552765D01*
X368659Y547571D01*
X381000Y547571D01*
X381000Y549244D01*
G37*
%LPC*%
G36*
X369999Y549244D02*
X369999Y552564D01*
X370009Y552912D01*
X370037Y553237D01*
X370083Y553540D01*
X370149Y553821D01*
X370233Y554079D01*
X370336Y554314D01*
X370457Y554528D01*
X370597Y554718D01*
X370756Y554887D01*
X370933Y555033D01*
X371129Y555156D01*
X371344Y555257D01*
X371578Y555336D01*
X371830Y555392D01*
X372101Y555425D01*
X372390Y555437D01*
X372691Y555426D01*
X372971Y555393D01*
X373233Y555338D01*
X373475Y555261D01*
X373697Y555163D01*
X373901Y555042D01*
X374085Y554900D01*
X374249Y554736D01*
X374395Y554550D01*
X374520Y554342D01*
X374627Y554112D01*
X374714Y553860D01*
X374782Y553586D01*
X374830Y553291D01*
X374859Y552973D01*
X374869Y552634D01*
X374869Y549244D01*
X369999Y549244D01*
G37*
%LPD*%
G36*
X381000Y581151D02*
X376192Y581151D01*
X376192Y584777D01*
X376175Y585254D01*
X376127Y585706D01*
X376046Y586133D01*
X375933Y586534D01*
X375788Y586909D01*
X375610Y587259D01*
X375400Y587583D01*
X375158Y587882D01*
X374888Y588149D01*
X374596Y588382D01*
X374282Y588578D01*
X373945Y588739D01*
X373586Y588864D01*
X373204Y588953D01*
X372800Y589007D01*
X372373Y589024D01*
X371943Y589007D01*
X371538Y588953D01*
X371158Y588864D01*
X370803Y588740D01*
X370473Y588580D01*
X370167Y588384D01*
X369887Y588153D01*
X369631Y587886D01*
X369404Y587587D01*
X369206Y587258D01*
X369039Y586900D01*
X368902Y586513D01*
X368796Y586097D01*
X368720Y585651D01*
X368674Y585176D01*
X368659Y584672D01*
X368659Y579478D01*
X381000Y579478D01*
X381000Y581151D01*
G37*
%LPC*%
G36*
X369999Y581151D02*
X369999Y584470D01*
X370009Y584818D01*
X370037Y585143D01*
X370083Y585446D01*
X370149Y585727D01*
X370233Y585985D01*
X370336Y586221D01*
X370457Y586434D01*
X370597Y586625D01*
X370756Y586793D01*
X370933Y586939D01*
X371129Y587062D01*
X371344Y587163D01*
X371578Y587242D01*
X371830Y587298D01*
X372101Y587332D01*
X372390Y587343D01*
X372691Y587332D01*
X372971Y587299D01*
X373233Y587244D01*
X373475Y587168D01*
X373697Y587069D01*
X373901Y586949D01*
X374085Y586806D01*
X374249Y586642D01*
X374395Y586456D01*
X374520Y586248D01*
X374627Y586018D01*
X374714Y585766D01*
X374782Y585493D01*
X374830Y585197D01*
X374859Y584880D01*
X374869Y584540D01*
X374869Y581151D01*
X369999Y581151D01*
G37*
%LPD*%
G36*
X376833Y590745D02*
X377378Y590794D01*
X377888Y590877D01*
X378363Y590993D01*
X378802Y591142D01*
X379206Y591324D01*
X379576Y591540D01*
X379910Y591788D01*
X380206Y592069D01*
X380463Y592381D01*
X380681Y592726D01*
X380859Y593102D01*
X380997Y593510D01*
X381096Y593949D01*
X381155Y594421D01*
X381175Y594924D01*
X381156Y595429D01*
X381099Y595904D01*
X381004Y596348D01*
X380871Y596761D01*
X380700Y597143D01*
X380490Y597494D01*
X380243Y597814D01*
X379958Y598103D01*
X379634Y598360D01*
X379270Y598582D01*
X378866Y598770D01*
X378423Y598924D01*
X377940Y599044D01*
X377417Y599129D01*
X376855Y599181D01*
X376253Y599198D01*
X375645Y599182D01*
X375078Y599134D01*
X374553Y599054D01*
X374069Y598942D01*
X373626Y598797D01*
X373224Y598621D01*
X372863Y598413D01*
X372544Y598173D01*
X372263Y597899D01*
X372021Y597589D01*
X371815Y597243D01*
X371647Y596861D01*
X371516Y596444D01*
X371423Y595990D01*
X371367Y595501D01*
X371348Y594976D01*
X371367Y594462D01*
X371425Y593981D01*
X371521Y593533D01*
X371655Y593118D01*
X371827Y592736D01*
X372038Y592388D01*
X372287Y592072D01*
X372574Y591790D01*
X372900Y591541D01*
X373264Y591326D01*
X373666Y591143D01*
X374107Y590994D01*
X374586Y590878D01*
X375103Y590795D01*
X375659Y590745D01*
X376253Y590728D01*
X376833Y590745D01*
G37*
%LPC*%
G36*
X375787Y592393D02*
X375353Y592422D01*
X374951Y592470D01*
X374581Y592538D01*
X374243Y592625D01*
X373937Y592731D01*
X373662Y592856D01*
X373420Y593001D01*
X373207Y593167D01*
X373023Y593358D01*
X372867Y593572D01*
X372740Y593810D01*
X372640Y594072D01*
X372570Y594358D01*
X372527Y594668D01*
X372513Y595002D01*
X372527Y595334D01*
X372569Y595640D01*
X372638Y595922D01*
X372735Y596179D01*
X372860Y596412D01*
X373013Y596619D01*
X373194Y596802D01*
X373402Y596960D01*
X373641Y597096D01*
X373914Y597215D01*
X374220Y597315D01*
X374559Y597397D01*
X374932Y597460D01*
X375339Y597506D01*
X375779Y597533D01*
X376253Y597542D01*
X376721Y597533D01*
X377157Y597504D01*
X377561Y597457D01*
X377932Y597390D01*
X378272Y597305D01*
X378580Y597200D01*
X378856Y597076D01*
X379099Y596934D01*
X379313Y596769D01*
X379498Y596579D01*
X379654Y596363D01*
X379783Y596122D01*
X379882Y595856D01*
X379953Y595565D01*
X379996Y595248D01*
X380010Y594906D01*
X379996Y594591D01*
X379951Y594297D01*
X379878Y594025D01*
X379775Y593775D01*
X379643Y593547D01*
X379481Y593340D01*
X379289Y593155D01*
X379069Y592992D01*
X378819Y592850D01*
X378540Y592726D01*
X378231Y592621D01*
X377894Y592536D01*
X377527Y592469D01*
X377132Y592422D01*
X376707Y592393D01*
X376253Y592384D01*
X375787Y592393D01*
G37*
%LPD*%
G36*
X395883Y594714D02*
X396428Y594763D01*
X396938Y594846D01*
X397413Y594962D01*
X397852Y595111D01*
X398256Y595293D01*
X398626Y595508D01*
X398960Y595757D01*
X399256Y596038D01*
X399513Y596350D01*
X399731Y596694D01*
X399909Y597071D01*
X400047Y597478D01*
X400146Y597918D01*
X400205Y598389D01*
X400225Y598892D01*
X400206Y599398D01*
X400149Y599873D01*
X400054Y600317D01*
X399921Y600729D01*
X399750Y601111D01*
X399540Y601462D01*
X399293Y601783D01*
X399008Y602072D01*
X398684Y602328D01*
X398320Y602551D01*
X397916Y602739D01*
X397473Y602893D01*
X396990Y603013D01*
X396467Y603098D01*
X395905Y603149D01*
X395303Y603166D01*
X394695Y603150D01*
X394128Y603102D01*
X393603Y603022D01*
X393119Y602910D01*
X392676Y602766D01*
X392274Y602590D01*
X391913Y602382D01*
X391594Y602142D01*
X391313Y601868D01*
X391071Y601558D01*
X390865Y601212D01*
X390697Y600830D01*
X390566Y600413D01*
X390473Y599959D01*
X390417Y599470D01*
X390398Y598945D01*
X390417Y598430D01*
X390475Y597949D01*
X390571Y597501D01*
X390705Y597086D01*
X390877Y596705D01*
X391088Y596356D01*
X391337Y596041D01*
X391624Y595759D01*
X391950Y595510D01*
X392314Y595294D01*
X392716Y595112D01*
X393157Y594962D01*
X393636Y594846D01*
X394153Y594763D01*
X394709Y594714D01*
X395303Y594697D01*
X395883Y594714D01*
G37*
%LPC*%
G36*
X394837Y596362D02*
X394403Y596391D01*
X394001Y596439D01*
X393631Y596507D01*
X393293Y596594D01*
X392987Y596700D01*
X392712Y596825D01*
X392470Y596970D01*
X392257Y597136D01*
X392073Y597326D01*
X391917Y597541D01*
X391790Y597779D01*
X391690Y598041D01*
X391620Y598327D01*
X391577Y598637D01*
X391563Y598971D01*
X391577Y599303D01*
X391619Y599609D01*
X391688Y599891D01*
X391785Y600148D01*
X391910Y600380D01*
X392063Y600588D01*
X392244Y600771D01*
X392452Y600929D01*
X392691Y601065D01*
X392964Y601184D01*
X393270Y601284D01*
X393609Y601366D01*
X393982Y601429D01*
X394389Y601475D01*
X394829Y601502D01*
X395303Y601511D01*
X395771Y601502D01*
X396207Y601473D01*
X396611Y601426D01*
X396982Y601359D01*
X397322Y601273D01*
X397630Y601169D01*
X397906Y601045D01*
X398149Y600902D01*
X398363Y600738D01*
X398548Y600547D01*
X398704Y600332D01*
X398833Y600091D01*
X398932Y599825D01*
X399003Y599534D01*
X399046Y599217D01*
X399060Y598875D01*
X399046Y598559D01*
X399001Y598266D01*
X398928Y597994D01*
X398825Y597744D01*
X398693Y597516D01*
X398531Y597309D01*
X398339Y597124D01*
X398119Y596961D01*
X397869Y596818D01*
X397590Y596695D01*
X397281Y596590D01*
X396944Y596505D01*
X396577Y596438D01*
X396182Y596390D01*
X395757Y596362D01*
X395303Y596352D01*
X394837Y596362D01*
G37*
%LPD*%
G36*
X395883Y608682D02*
X396428Y608732D01*
X396938Y608815D01*
X397413Y608931D01*
X397852Y609080D01*
X398256Y609262D01*
X398626Y609477D01*
X398960Y609726D01*
X399256Y610006D01*
X399513Y610319D01*
X399731Y610663D01*
X399909Y611039D01*
X400047Y611447D01*
X400146Y611887D01*
X400205Y612358D01*
X400225Y612861D01*
X400206Y613367D01*
X400149Y613841D01*
X400054Y614285D01*
X399921Y614698D01*
X399750Y615080D01*
X399540Y615431D01*
X399293Y615751D01*
X399008Y616040D01*
X398684Y616297D01*
X398320Y616519D01*
X397916Y616708D01*
X397473Y616862D01*
X396990Y616981D01*
X396467Y617067D01*
X395905Y617118D01*
X395303Y617135D01*
X394695Y617119D01*
X394128Y617071D01*
X393603Y616991D01*
X393119Y616879D01*
X392676Y616735D01*
X392274Y616559D01*
X391913Y616351D01*
X391594Y616110D01*
X391313Y615836D01*
X391071Y615526D01*
X390865Y615181D01*
X390697Y614799D01*
X390566Y614381D01*
X390473Y613928D01*
X390417Y613439D01*
X390398Y612914D01*
X390417Y612399D01*
X390475Y611918D01*
X390571Y611470D01*
X390705Y611055D01*
X390877Y610674D01*
X391088Y610325D01*
X391337Y610010D01*
X391624Y609728D01*
X391950Y609479D01*
X392314Y609263D01*
X392716Y609081D01*
X393157Y608931D01*
X393636Y608815D01*
X394153Y608732D01*
X394709Y608682D01*
X395303Y608666D01*
X395883Y608682D01*
G37*
%LPC*%
G36*
X394837Y610331D02*
X394403Y610360D01*
X394001Y610408D01*
X393631Y610475D01*
X393293Y610562D01*
X392987Y610668D01*
X392712Y610794D01*
X392470Y610939D01*
X392257Y611105D01*
X392073Y611295D01*
X391917Y611509D01*
X391790Y611748D01*
X391690Y612010D01*
X391620Y612296D01*
X391577Y612606D01*
X391563Y612940D01*
X391577Y613271D01*
X391619Y613578D01*
X391688Y613860D01*
X391785Y614117D01*
X391910Y614349D01*
X392063Y614557D01*
X392244Y614739D01*
X392452Y614897D01*
X392691Y615034D01*
X392964Y615152D01*
X393270Y615252D01*
X393609Y615334D01*
X393982Y615398D01*
X394389Y615443D01*
X394829Y615471D01*
X395303Y615480D01*
X395771Y615470D01*
X396207Y615442D01*
X396611Y615394D01*
X396982Y615328D01*
X397322Y615242D01*
X397630Y615137D01*
X397906Y615014D01*
X398149Y614871D01*
X398363Y614706D01*
X398548Y614516D01*
X398704Y614301D01*
X398833Y614060D01*
X398932Y613794D01*
X399003Y613502D01*
X399046Y613186D01*
X399060Y612844D01*
X399046Y612528D01*
X399001Y612235D01*
X398928Y611963D01*
X398825Y611713D01*
X398693Y611484D01*
X398531Y611278D01*
X398339Y611093D01*
X398119Y610930D01*
X397869Y610787D01*
X397590Y610664D01*
X397281Y610559D01*
X396944Y610473D01*
X396577Y610407D01*
X396182Y610359D01*
X395757Y610331D01*
X395303Y610321D01*
X394837Y610331D01*
G37*
%LPD*%
G36*
X378675Y568811D02*
X378977Y568844D01*
X379261Y568900D01*
X379529Y568979D01*
X379778Y569080D01*
X380010Y569203D01*
X380225Y569349D01*
X380422Y569518D01*
X380599Y569708D01*
X380752Y569921D01*
X380881Y570156D01*
X380987Y570413D01*
X381069Y570693D01*
X381128Y570994D01*
X381163Y571318D01*
X381175Y571664D01*
X381168Y571945D01*
X381147Y572216D01*
X381112Y572475D01*
X381062Y572724D01*
X380999Y572963D01*
X380921Y573190D01*
X380830Y573407D01*
X380724Y573612D01*
X380601Y573810D01*
X380459Y574001D01*
X380297Y574186D01*
X380114Y574364D01*
X379912Y574537D01*
X379690Y574704D01*
X379187Y575018D01*
X379187Y575071D01*
X379645Y575119D01*
X379849Y575159D01*
X380038Y575210D01*
X380210Y575271D01*
X380365Y575344D01*
X380505Y575427D01*
X380628Y575522D01*
X380736Y575629D01*
X380829Y575751D01*
X380908Y575888D01*
X380973Y576040D01*
X381023Y576206D01*
X381059Y576388D01*
X381080Y576585D01*
X381088Y576796D01*
X381079Y577105D01*
X381053Y577411D01*
X381009Y577714D01*
X380947Y578013D01*
X379967Y578013D01*
X380013Y577740D01*
X380028Y577497D01*
X380006Y577259D01*
X379939Y577063D01*
X379828Y576909D01*
X379673Y576796D01*
X379474Y576716D01*
X379232Y576658D01*
X378946Y576624D01*
X378618Y576612D01*
X374536Y576612D01*
X374160Y576598D01*
X373807Y576556D01*
X373476Y576485D01*
X373169Y576387D01*
X372884Y576260D01*
X372622Y576105D01*
X372383Y575921D01*
X372167Y575710D01*
X371975Y575471D01*
X371809Y575204D01*
X371668Y574909D01*
X371553Y574587D01*
X371463Y574237D01*
X371399Y573859D01*
X371361Y573454D01*
X371348Y573021D01*
X371358Y572608D01*
X371388Y572218D01*
X371438Y571852D01*
X371508Y571509D01*
X371598Y571190D01*
X371708Y570894D01*
X371838Y570621D01*
X371987Y570372D01*
X372157Y570146D01*
X372347Y569943D01*
X372557Y569764D01*
X372787Y569609D01*
X373036Y569476D01*
X373306Y569367D01*
X373596Y569282D01*
X373906Y569220D01*
X374055Y570867D01*
X373864Y570897D01*
X373687Y570939D01*
X373524Y570993D01*
X373374Y571059D01*
X373237Y571137D01*
X373114Y571228D01*
X373004Y571330D01*
X372907Y571445D01*
X372823Y571574D01*
X372750Y571722D01*
X372688Y571887D01*
X372638Y572071D01*
X372599Y572273D01*
X372570Y572492D01*
X372548Y572986D01*
X372556Y573240D01*
X372579Y573477D01*
X372618Y573696D01*
X372673Y573897D01*
X372743Y574081D01*
X372829Y574247D01*
X372930Y574396D01*
X373047Y574528D01*
X373182Y574643D01*
X373338Y574742D01*
X373514Y574826D01*
X373711Y574895D01*
X373928Y574949D01*
X374166Y574987D01*
X374424Y575010D01*
X374703Y575018D01*
X375219Y575018D01*
X375254Y572890D01*
X375279Y572370D01*
X375327Y571887D01*
X375397Y571441D01*
X375491Y571032D01*
X375608Y570660D01*
X375747Y570325D01*
X375910Y570028D01*
X376095Y569767D01*
X376303Y569540D01*
X376532Y569344D01*
X376783Y569178D01*
X377054Y569041D01*
X377347Y568936D01*
X377662Y568860D01*
X377998Y568815D01*
X378355Y568799D01*
X378675Y568811D01*
G37*
%LPC*%
G36*
X378043Y570439D02*
X377740Y570496D01*
X377470Y570592D01*
X377234Y570726D01*
X377029Y570896D01*
X376853Y571100D01*
X376705Y571336D01*
X376586Y571607D01*
X376493Y571927D01*
X376424Y572315D01*
X376379Y572770D01*
X376358Y573293D01*
X376323Y575018D01*
X377102Y575018D01*
X377463Y574994D01*
X377820Y574921D01*
X378171Y574799D01*
X378517Y574628D01*
X378842Y574416D01*
X379131Y574167D01*
X379383Y573884D01*
X379599Y573564D01*
X379771Y573215D01*
X379894Y572842D01*
X379968Y572444D01*
X379987Y572236D01*
X379993Y572023D01*
X379986Y571835D01*
X379967Y571659D01*
X379934Y571494D01*
X379888Y571341D01*
X379829Y571198D01*
X379756Y571066D01*
X379671Y570945D01*
X379572Y570836D01*
X379462Y570738D01*
X379340Y570654D01*
X379208Y570582D01*
X379064Y570524D01*
X378910Y570478D01*
X378745Y570446D01*
X378568Y570426D01*
X378381Y570420D01*
X378043Y570439D01*
G37*
%LPD*%
G36*
X376799Y558817D02*
X377359Y558868D01*
X377882Y558954D01*
X378366Y559074D01*
X378812Y559229D01*
X379220Y559418D01*
X379591Y559641D01*
X379923Y559899D01*
X380216Y560189D01*
X380471Y560511D01*
X380686Y560864D01*
X380862Y561249D01*
X380999Y561664D01*
X381097Y562112D01*
X381156Y562590D01*
X381175Y563100D01*
X381166Y563468D01*
X381140Y563819D01*
X381096Y564154D01*
X381035Y564471D01*
X380956Y564772D01*
X380860Y565055D01*
X380746Y565322D01*
X380615Y565572D01*
X380466Y565805D01*
X380299Y566021D01*
X380115Y566220D01*
X379914Y566402D01*
X379695Y566568D01*
X379459Y566716D01*
X379205Y566848D01*
X378933Y566962D01*
X378539Y565579D01*
X378841Y565444D01*
X379115Y565260D01*
X379362Y565026D01*
X379581Y564742D01*
X379678Y564581D01*
X379761Y564408D01*
X379832Y564222D01*
X379890Y564023D01*
X379935Y563811D01*
X379967Y563587D01*
X379986Y563350D01*
X379993Y563100D01*
X379979Y562786D01*
X379938Y562491D01*
X379868Y562215D01*
X379772Y561959D01*
X379647Y561723D01*
X379495Y561505D01*
X379316Y561308D01*
X379108Y561129D01*
X378875Y560971D01*
X378619Y560834D01*
X378340Y560718D01*
X378037Y560623D01*
X377712Y560550D01*
X377362Y560497D01*
X376990Y560465D01*
X376594Y560455D01*
X376594Y567216D01*
X376384Y567216D01*
X375774Y567200D01*
X375204Y567151D01*
X374673Y567070D01*
X374181Y566955D01*
X373728Y566808D01*
X373315Y566629D01*
X372942Y566417D01*
X372607Y566172D01*
X372312Y565895D01*
X372056Y565584D01*
X371840Y565242D01*
X371663Y564866D01*
X371525Y564458D01*
X371427Y564018D01*
X371368Y563545D01*
X371348Y563039D01*
X371368Y562543D01*
X371426Y562077D01*
X371524Y561640D01*
X371661Y561233D01*
X371837Y560855D01*
X372053Y560507D01*
X372307Y560188D01*
X372601Y559899D01*
X372931Y559641D01*
X373295Y559418D01*
X373694Y559229D01*
X374127Y559074D01*
X374594Y558954D01*
X375095Y558868D01*
X375631Y558817D01*
X376200Y558799D01*
X376799Y558817D01*
G37*
%LPC*%
G36*
X375060Y560495D02*
X374752Y560537D01*
X374461Y560599D01*
X374189Y560679D01*
X373935Y560779D01*
X373698Y560899D01*
X373480Y561037D01*
X373279Y561195D01*
X373100Y561370D01*
X372944Y561560D01*
X372812Y561765D01*
X372705Y561984D01*
X372621Y562219D01*
X372561Y562469D01*
X372525Y562733D01*
X372513Y563012D01*
X372524Y563299D01*
X372556Y563569D01*
X372610Y563822D01*
X372685Y564057D01*
X372782Y564275D01*
X372900Y564476D01*
X373039Y564659D01*
X373201Y564825D01*
X373385Y564975D01*
X373595Y565109D01*
X373830Y565228D01*
X374091Y565331D01*
X374376Y565419D01*
X374688Y565490D01*
X375024Y565547D01*
X375386Y565587D01*
X375386Y560472D01*
X375060Y560495D01*
G37*
%LPD*%
G36*
X395849Y555817D02*
X396409Y555868D01*
X396932Y555954D01*
X397416Y556074D01*
X397862Y556229D01*
X398270Y556418D01*
X398641Y556641D01*
X398973Y556899D01*
X399266Y557189D01*
X399521Y557511D01*
X399736Y557864D01*
X399912Y558249D01*
X400049Y558664D01*
X400147Y559112D01*
X400206Y559590D01*
X400225Y560100D01*
X400216Y560468D01*
X400190Y560819D01*
X400146Y561154D01*
X400085Y561471D01*
X400006Y561772D01*
X399910Y562055D01*
X399796Y562322D01*
X399665Y562572D01*
X399516Y562805D01*
X399349Y563021D01*
X399165Y563220D01*
X398964Y563402D01*
X398745Y563568D01*
X398509Y563716D01*
X398255Y563848D01*
X397983Y563962D01*
X397589Y562579D01*
X397891Y562444D01*
X398165Y562260D01*
X398412Y562026D01*
X398631Y561742D01*
X398728Y561581D01*
X398811Y561408D01*
X398882Y561222D01*
X398940Y561023D01*
X398985Y560811D01*
X399017Y560587D01*
X399036Y560350D01*
X399043Y560100D01*
X399029Y559786D01*
X398988Y559491D01*
X398918Y559215D01*
X398822Y558959D01*
X398697Y558723D01*
X398545Y558505D01*
X398366Y558308D01*
X398158Y558129D01*
X397925Y557971D01*
X397669Y557834D01*
X397390Y557718D01*
X397087Y557623D01*
X396762Y557550D01*
X396412Y557497D01*
X396040Y557465D01*
X395644Y557455D01*
X395644Y564216D01*
X395434Y564216D01*
X394824Y564200D01*
X394254Y564151D01*
X393723Y564070D01*
X393231Y563955D01*
X392778Y563808D01*
X392365Y563629D01*
X391992Y563417D01*
X391657Y563172D01*
X391362Y562895D01*
X391106Y562584D01*
X390890Y562242D01*
X390713Y561866D01*
X390575Y561458D01*
X390477Y561018D01*
X390418Y560545D01*
X390398Y560039D01*
X390418Y559543D01*
X390476Y559077D01*
X390574Y558640D01*
X390711Y558233D01*
X390887Y557855D01*
X391103Y557507D01*
X391357Y557188D01*
X391651Y556899D01*
X391981Y556641D01*
X392345Y556418D01*
X392744Y556229D01*
X393177Y556074D01*
X393644Y555954D01*
X394145Y555868D01*
X394681Y555817D01*
X395250Y555799D01*
X395849Y555817D01*
G37*
%LPC*%
G36*
X394110Y557495D02*
X393802Y557537D01*
X393511Y557599D01*
X393239Y557679D01*
X392985Y557779D01*
X392748Y557899D01*
X392530Y558037D01*
X392329Y558195D01*
X392150Y558370D01*
X391994Y558560D01*
X391862Y558765D01*
X391755Y558984D01*
X391671Y559219D01*
X391611Y559469D01*
X391575Y559733D01*
X391563Y560012D01*
X391574Y560299D01*
X391606Y560569D01*
X391660Y560822D01*
X391735Y561057D01*
X391832Y561275D01*
X391950Y561476D01*
X392089Y561659D01*
X392251Y561825D01*
X392435Y561975D01*
X392645Y562109D01*
X392880Y562228D01*
X393141Y562331D01*
X393426Y562419D01*
X393738Y562490D01*
X394074Y562547D01*
X394436Y562587D01*
X394436Y557472D01*
X394110Y557495D01*
G37*
%LPD*%
G36*
X395849Y632629D02*
X396409Y632681D01*
X396932Y632767D01*
X397416Y632887D01*
X397862Y633041D01*
X398270Y633230D01*
X398641Y633454D01*
X398973Y633711D01*
X399266Y634002D01*
X399521Y634323D01*
X399736Y634677D01*
X399912Y635061D01*
X400049Y635477D01*
X400147Y635924D01*
X400206Y636403D01*
X400225Y636912D01*
X400216Y637281D01*
X400190Y637632D01*
X400146Y637966D01*
X400085Y638284D01*
X400006Y638584D01*
X399910Y638868D01*
X399796Y639135D01*
X399665Y639385D01*
X399516Y639617D01*
X399349Y639834D01*
X399165Y640033D01*
X398964Y640215D01*
X398745Y640380D01*
X398509Y640529D01*
X398255Y640660D01*
X397983Y640775D01*
X397589Y639391D01*
X397891Y639257D01*
X398165Y639073D01*
X398412Y638838D01*
X398631Y638555D01*
X398728Y638394D01*
X398811Y638220D01*
X398882Y638034D01*
X398940Y637835D01*
X398985Y637624D01*
X399017Y637399D01*
X399036Y637162D01*
X399043Y636912D01*
X399029Y636598D01*
X398988Y636303D01*
X398918Y636028D01*
X398822Y635772D01*
X398697Y635535D01*
X398545Y635318D01*
X398366Y635120D01*
X398158Y634942D01*
X397925Y634784D01*
X397669Y634647D01*
X397390Y634531D01*
X397087Y634436D01*
X396762Y634362D01*
X396412Y634310D01*
X396040Y634278D01*
X395644Y634267D01*
X395644Y641029D01*
X395434Y641029D01*
X394824Y641013D01*
X394254Y640964D01*
X393723Y640882D01*
X393231Y640768D01*
X392778Y640621D01*
X392365Y640441D01*
X391992Y640229D01*
X391657Y639984D01*
X391362Y639707D01*
X391106Y639397D01*
X390890Y639054D01*
X390713Y638679D01*
X390575Y638271D01*
X390477Y637830D01*
X390418Y637357D01*
X390398Y636851D01*
X390418Y636356D01*
X390476Y635890D01*
X390574Y635453D01*
X390711Y635046D01*
X390887Y634668D01*
X391103Y634320D01*
X391357Y634001D01*
X391651Y633711D01*
X391981Y633454D01*
X392345Y633230D01*
X392744Y633041D01*
X393177Y632887D01*
X393644Y632767D01*
X394145Y632681D01*
X394681Y632629D01*
X395250Y632612D01*
X395849Y632629D01*
G37*
%LPC*%
G36*
X394110Y634308D02*
X393802Y634350D01*
X393511Y634411D01*
X393239Y634492D01*
X392985Y634592D01*
X392748Y634711D01*
X392530Y634850D01*
X392329Y635007D01*
X392150Y635182D01*
X391994Y635372D01*
X391862Y635577D01*
X391755Y635797D01*
X391671Y636031D01*
X391611Y636281D01*
X391575Y636545D01*
X391563Y636825D01*
X391574Y637112D01*
X391606Y637382D01*
X391660Y637634D01*
X391735Y637869D01*
X391832Y638087D01*
X391950Y638288D01*
X392089Y638472D01*
X392251Y638638D01*
X392435Y638788D01*
X392645Y638922D01*
X392880Y639041D01*
X393141Y639144D01*
X393426Y639231D01*
X393738Y639303D01*
X394074Y639359D01*
X394436Y639400D01*
X394436Y634285D01*
X394110Y634308D01*
G37*
%LPD*%
G36*
X400050Y576827D02*
X394462Y576827D01*
X394144Y576837D01*
X393843Y576868D01*
X393558Y576921D01*
X393291Y576994D01*
X393040Y577088D01*
X392805Y577203D01*
X392587Y577339D01*
X392386Y577497D01*
X392206Y577671D01*
X392049Y577859D01*
X391917Y578061D01*
X391808Y578277D01*
X391724Y578507D01*
X391664Y578750D01*
X391628Y579008D01*
X391616Y579279D01*
X391630Y579631D01*
X391672Y579942D01*
X391744Y580213D01*
X391843Y580444D01*
X391973Y580639D01*
X392136Y580805D01*
X392330Y580941D01*
X392557Y581048D01*
X392832Y581129D01*
X393171Y581186D01*
X393574Y581221D01*
X394042Y581232D01*
X400050Y581232D01*
X400050Y582817D01*
X393735Y582817D01*
X393300Y582806D01*
X392898Y582772D01*
X392528Y582715D01*
X392190Y582635D01*
X391885Y582532D01*
X391613Y582406D01*
X391372Y582257D01*
X391164Y582086D01*
X390985Y581891D01*
X390829Y581670D01*
X390697Y581424D01*
X390590Y581152D01*
X390506Y580855D01*
X390446Y580533D01*
X390410Y580186D01*
X390398Y579813D01*
X390405Y579545D01*
X390425Y579290D01*
X390459Y579046D01*
X390507Y578814D01*
X390567Y578593D01*
X390642Y578385D01*
X390730Y578189D01*
X390832Y578005D01*
X391079Y577660D01*
X391389Y577342D01*
X391760Y577050D01*
X392194Y576783D01*
X392194Y576756D01*
X391537Y576796D01*
X390976Y576819D01*
X390433Y576827D01*
X387052Y576827D01*
X387052Y575250D01*
X400050Y575250D01*
X400050Y576827D01*
G37*
G36*
X390838Y585189D02*
X391263Y585206D01*
X392597Y585219D01*
X400050Y585219D01*
X400050Y586795D01*
X394558Y586795D01*
X394222Y586806D01*
X393904Y586836D01*
X393606Y586888D01*
X393326Y586959D01*
X393065Y587052D01*
X392823Y587165D01*
X392599Y587298D01*
X392395Y587452D01*
X392212Y587624D01*
X392054Y587811D01*
X391920Y588013D01*
X391810Y588229D01*
X391725Y588461D01*
X391664Y588708D01*
X391628Y588971D01*
X391616Y589248D01*
X391630Y589614D01*
X391672Y589933D01*
X391744Y590205D01*
X391843Y590430D01*
X391975Y590618D01*
X392143Y590778D01*
X392347Y590911D01*
X392588Y591017D01*
X392872Y591097D01*
X393210Y591155D01*
X393599Y591189D01*
X394042Y591201D01*
X400050Y591201D01*
X400050Y592786D01*
X393735Y592786D01*
X393304Y592775D01*
X392905Y592741D01*
X392537Y592684D01*
X392201Y592605D01*
X391897Y592504D01*
X391624Y592380D01*
X391383Y592233D01*
X391173Y592064D01*
X390992Y591870D01*
X390834Y591650D01*
X390701Y591404D01*
X390592Y591132D01*
X390507Y590834D01*
X390447Y590509D01*
X390410Y590159D01*
X390398Y589782D01*
X390404Y589522D01*
X390424Y589274D01*
X390455Y589036D01*
X390500Y588809D01*
X390557Y588592D01*
X390627Y588387D01*
X390710Y588192D01*
X390805Y588008D01*
X390916Y587833D01*
X391045Y587662D01*
X391192Y587497D01*
X391356Y587337D01*
X391739Y587034D01*
X392194Y586751D01*
X392194Y586725D01*
X391252Y586695D01*
X390810Y586673D01*
X390573Y586655D01*
X390573Y585166D01*
X390838Y585189D01*
G37*
G36*
X409888Y552283D02*
X410313Y552299D01*
X411647Y552312D01*
X419100Y552312D01*
X419100Y553889D01*
X413608Y553889D01*
X413272Y553899D01*
X412954Y553930D01*
X412656Y553981D01*
X412376Y554053D01*
X412115Y554146D01*
X411873Y554259D01*
X411649Y554392D01*
X411445Y554546D01*
X411262Y554718D01*
X411104Y554904D01*
X410970Y555106D01*
X410860Y555323D01*
X410775Y555555D01*
X410714Y555802D01*
X410678Y556064D01*
X410666Y556341D01*
X410680Y556708D01*
X410722Y557027D01*
X410794Y557299D01*
X410893Y557524D01*
X411025Y557712D01*
X411193Y557872D01*
X411397Y558005D01*
X411638Y558111D01*
X411922Y558191D01*
X412260Y558249D01*
X412649Y558283D01*
X413092Y558295D01*
X419100Y558295D01*
X419100Y559880D01*
X412785Y559880D01*
X412354Y559869D01*
X411955Y559835D01*
X411587Y559778D01*
X411251Y559699D01*
X410947Y559598D01*
X410674Y559473D01*
X410433Y559327D01*
X410223Y559157D01*
X410042Y558964D01*
X409884Y558744D01*
X409751Y558498D01*
X409642Y558226D01*
X409557Y557927D01*
X409497Y557603D01*
X409460Y557252D01*
X409448Y556876D01*
X409454Y556616D01*
X409474Y556367D01*
X409505Y556129D01*
X409550Y555902D01*
X409607Y555686D01*
X409677Y555481D01*
X409760Y555286D01*
X409855Y555102D01*
X409966Y554926D01*
X410095Y554756D01*
X410242Y554591D01*
X410406Y554431D01*
X410789Y554127D01*
X411244Y553845D01*
X411244Y553819D01*
X410302Y553788D01*
X409860Y553766D01*
X409623Y553749D01*
X409623Y552260D01*
X409888Y552283D01*
G37*
G36*
X398124Y642401D02*
X398402Y642504D01*
X398660Y642629D01*
X398897Y642775D01*
X399114Y642941D01*
X399311Y643128D01*
X399487Y643337D01*
X399643Y643566D01*
X399779Y643819D01*
X399898Y644096D01*
X399998Y644399D01*
X400080Y644728D01*
X400143Y645081D01*
X400189Y645460D01*
X400216Y645865D01*
X400225Y646294D01*
X400214Y646737D01*
X400180Y647155D01*
X400123Y647547D01*
X400043Y647914D01*
X399941Y648255D01*
X399816Y648571D01*
X399669Y648862D01*
X399498Y649128D01*
X399307Y649365D01*
X399096Y649570D01*
X398867Y649744D01*
X398618Y649886D01*
X398350Y649997D01*
X398063Y650076D01*
X397757Y650124D01*
X397431Y650139D01*
X397167Y650128D01*
X396918Y650096D01*
X396683Y650041D01*
X396463Y649964D01*
X396257Y649868D01*
X396064Y649753D01*
X395883Y649620D01*
X395715Y649469D01*
X395556Y649295D01*
X395405Y649092D01*
X395260Y648859D01*
X395123Y648598D01*
X394987Y648278D01*
X394844Y647871D01*
X394696Y647376D01*
X394541Y646794D01*
X394252Y645699D01*
X394134Y645322D01*
X394033Y645059D01*
X393936Y644866D01*
X393829Y644698D01*
X393713Y644555D01*
X393586Y644438D01*
X393446Y644346D01*
X393288Y644280D01*
X393113Y644240D01*
X392921Y644227D01*
X392762Y644235D01*
X392613Y644259D01*
X392475Y644299D01*
X392347Y644354D01*
X392229Y644426D01*
X392122Y644513D01*
X392026Y644616D01*
X391940Y644735D01*
X391864Y644871D01*
X391798Y645024D01*
X391742Y645195D01*
X391697Y645383D01*
X391636Y645813D01*
X391616Y646312D01*
X391637Y646769D01*
X391700Y647178D01*
X391805Y647538D01*
X391953Y647849D01*
X392140Y648108D01*
X392363Y648312D01*
X392489Y648393D01*
X392624Y648461D01*
X392768Y648514D01*
X392921Y648554D01*
X392745Y649973D01*
X392451Y649901D01*
X392178Y649808D01*
X391926Y649694D01*
X391694Y649558D01*
X391484Y649401D01*
X391294Y649223D01*
X391125Y649024D01*
X390976Y648804D01*
X390847Y648563D01*
X390735Y648301D01*
X390640Y648020D01*
X390562Y647719D01*
X390502Y647397D01*
X390459Y647056D01*
X390433Y646694D01*
X390424Y646312D01*
X390435Y645883D01*
X390467Y645480D01*
X390520Y645104D01*
X390594Y644754D01*
X390690Y644431D01*
X390806Y644133D01*
X390944Y643863D01*
X391103Y643619D01*
X391283Y643402D01*
X391481Y643214D01*
X391699Y643056D01*
X391936Y642926D01*
X392193Y642825D01*
X392469Y642752D01*
X392764Y642709D01*
X393078Y642695D01*
X393415Y642715D01*
X393724Y642776D01*
X394006Y642877D01*
X394261Y643019D01*
X394492Y643196D01*
X394706Y643405D01*
X394902Y643645D01*
X395080Y643916D01*
X395249Y644252D01*
X395420Y644686D01*
X395593Y645218D01*
X395767Y645848D01*
X396065Y646978D01*
X396186Y647377D01*
X396323Y647718D01*
X396475Y647999D01*
X396643Y648221D01*
X396831Y648390D01*
X397046Y648510D01*
X397287Y648583D01*
X397554Y648607D01*
X397732Y648598D01*
X397899Y648572D01*
X398054Y648528D01*
X398198Y648468D01*
X398330Y648389D01*
X398451Y648294D01*
X398560Y648181D01*
X398657Y648050D01*
X398744Y647901D01*
X398818Y647732D01*
X398882Y647543D01*
X398933Y647333D01*
X398974Y647104D01*
X399002Y646854D01*
X399020Y646584D01*
X399025Y646294D01*
X399003Y645764D01*
X398937Y645296D01*
X398887Y645085D01*
X398826Y644889D01*
X398754Y644708D01*
X398671Y644543D01*
X398576Y644392D01*
X398468Y644254D01*
X398347Y644130D01*
X398214Y644019D01*
X398068Y643922D01*
X397909Y643838D01*
X397738Y643768D01*
X397554Y643711D01*
X397825Y642318D01*
X398124Y642401D01*
G37*
G36*
X389076Y550742D02*
X400050Y550742D01*
X400050Y552406D01*
X389076Y552406D01*
X389076Y556645D01*
X387709Y556645D01*
X387709Y546503D01*
X389076Y546503D01*
X389076Y550742D01*
G37*
G36*
X395887Y565816D02*
X396435Y565865D01*
X396947Y565947D01*
X397424Y566061D01*
X397864Y566208D01*
X398268Y566388D01*
X398636Y566601D01*
X398968Y566846D01*
X399263Y567123D01*
X399518Y567428D01*
X399734Y567764D01*
X399911Y568128D01*
X400048Y568522D01*
X400147Y568946D01*
X400206Y569399D01*
X400225Y569881D01*
X400212Y570249D01*
X400174Y570601D01*
X400111Y570937D01*
X400022Y571256D01*
X399907Y571559D01*
X399767Y571845D01*
X399602Y572115D01*
X399411Y572368D01*
X399198Y572601D01*
X398969Y572809D01*
X398722Y572992D01*
X398458Y573150D01*
X398177Y573283D01*
X397878Y573392D01*
X397563Y573475D01*
X397230Y573533D01*
X397125Y571939D01*
X397353Y571900D01*
X397567Y571846D01*
X397765Y571780D01*
X397948Y571699D01*
X398115Y571606D01*
X398268Y571498D01*
X398405Y571377D01*
X398526Y571243D01*
X398633Y571097D01*
X398725Y570943D01*
X398804Y570780D01*
X398868Y570609D01*
X398917Y570429D01*
X398953Y570240D01*
X398974Y570043D01*
X398981Y569837D01*
X398967Y569547D01*
X398925Y569275D01*
X398853Y569022D01*
X398754Y568788D01*
X398626Y568573D01*
X398469Y568377D01*
X398284Y568200D01*
X398071Y568042D01*
X397828Y567902D01*
X397554Y567781D01*
X397249Y567679D01*
X396914Y567595D01*
X396549Y567530D01*
X396152Y567483D01*
X395725Y567455D01*
X395268Y567446D01*
X394793Y567455D01*
X394354Y567481D01*
X393950Y567525D01*
X393582Y567586D01*
X393249Y567665D01*
X392952Y567761D01*
X392691Y567875D01*
X392465Y568007D01*
X392270Y568158D01*
X392101Y568330D01*
X391958Y568524D01*
X391841Y568740D01*
X391750Y568978D01*
X391685Y569237D01*
X391646Y569517D01*
X391633Y569820D01*
X391640Y570043D01*
X391662Y570253D01*
X391698Y570450D01*
X391749Y570634D01*
X391814Y570805D01*
X391894Y570963D01*
X391988Y571107D01*
X392097Y571239D01*
X392350Y571465D01*
X392642Y571644D01*
X392976Y571776D01*
X393350Y571860D01*
X393227Y573481D01*
X392905Y573408D01*
X392601Y573314D01*
X392315Y573196D01*
X392047Y573057D01*
X391796Y572895D01*
X391564Y572711D01*
X391349Y572505D01*
X391151Y572276D01*
X390975Y572029D01*
X390822Y571766D01*
X390692Y571488D01*
X390586Y571194D01*
X390504Y570884D01*
X390445Y570559D01*
X390410Y570219D01*
X390398Y569863D01*
X390418Y569387D01*
X390477Y568939D01*
X390575Y568520D01*
X390712Y568129D01*
X390889Y567767D01*
X391105Y567433D01*
X391360Y567128D01*
X391655Y566851D01*
X391987Y566604D01*
X392354Y566391D01*
X392757Y566210D01*
X393195Y566062D01*
X393669Y565947D01*
X394178Y565865D01*
X394723Y565816D01*
X395303Y565799D01*
X395887Y565816D01*
G37*
G36*
X414937Y561816D02*
X415485Y561865D01*
X415997Y561947D01*
X416474Y562061D01*
X416914Y562208D01*
X417318Y562388D01*
X417686Y562601D01*
X418018Y562846D01*
X418313Y563123D01*
X418568Y563428D01*
X418784Y563764D01*
X418961Y564128D01*
X419098Y564522D01*
X419197Y564946D01*
X419256Y565399D01*
X419275Y565881D01*
X419262Y566249D01*
X419224Y566601D01*
X419161Y566937D01*
X419072Y567256D01*
X418957Y567559D01*
X418817Y567845D01*
X418652Y568115D01*
X418461Y568368D01*
X418248Y568601D01*
X418019Y568809D01*
X417772Y568992D01*
X417508Y569150D01*
X417227Y569283D01*
X416928Y569392D01*
X416613Y569475D01*
X416280Y569533D01*
X416175Y567939D01*
X416403Y567900D01*
X416617Y567846D01*
X416815Y567780D01*
X416998Y567699D01*
X417165Y567606D01*
X417318Y567498D01*
X417455Y567377D01*
X417576Y567243D01*
X417683Y567097D01*
X417775Y566943D01*
X417854Y566780D01*
X417918Y566609D01*
X417967Y566429D01*
X418003Y566240D01*
X418024Y566043D01*
X418031Y565837D01*
X418017Y565547D01*
X417975Y565275D01*
X417903Y565022D01*
X417804Y564788D01*
X417676Y564573D01*
X417519Y564377D01*
X417334Y564200D01*
X417121Y564042D01*
X416878Y563902D01*
X416604Y563781D01*
X416299Y563679D01*
X415964Y563595D01*
X415599Y563530D01*
X415202Y563483D01*
X414775Y563455D01*
X414318Y563446D01*
X413843Y563455D01*
X413404Y563481D01*
X413000Y563525D01*
X412632Y563586D01*
X412299Y563665D01*
X412002Y563761D01*
X411741Y563875D01*
X411515Y564007D01*
X411320Y564158D01*
X411151Y564330D01*
X411008Y564524D01*
X410891Y564740D01*
X410800Y564978D01*
X410735Y565237D01*
X410696Y565517D01*
X410683Y565820D01*
X410690Y566043D01*
X410712Y566253D01*
X410748Y566450D01*
X410799Y566634D01*
X410864Y566805D01*
X410944Y566963D01*
X411038Y567107D01*
X411147Y567239D01*
X411400Y567465D01*
X411692Y567644D01*
X412026Y567776D01*
X412400Y567860D01*
X412277Y569481D01*
X411955Y569408D01*
X411651Y569314D01*
X411365Y569196D01*
X411097Y569057D01*
X410846Y568895D01*
X410614Y568711D01*
X410399Y568505D01*
X410201Y568276D01*
X410025Y568029D01*
X409872Y567766D01*
X409742Y567488D01*
X409636Y567194D01*
X409554Y566884D01*
X409495Y566559D01*
X409460Y566219D01*
X409448Y565863D01*
X409468Y565387D01*
X409527Y564939D01*
X409625Y564520D01*
X409762Y564129D01*
X409939Y563767D01*
X410155Y563433D01*
X410410Y563128D01*
X410705Y562851D01*
X411037Y562604D01*
X411404Y562391D01*
X411807Y562210D01*
X412245Y562062D01*
X412719Y561947D01*
X413228Y561865D01*
X413773Y561816D01*
X414353Y561799D01*
X414937Y561816D01*
G37*
G36*
X419100Y549428D02*
X406759Y549428D01*
X406759Y547755D01*
X419100Y547755D01*
X419100Y549428D01*
G37*
G36*
X400050Y606698D02*
X387052Y606698D01*
X387052Y605121D01*
X400050Y605121D01*
X400050Y606698D01*
G37*
G36*
X400050Y630626D02*
X390573Y630626D01*
X390573Y629050D01*
X400050Y629050D01*
X400050Y630626D01*
G37*
G36*
X419100Y573352D02*
X417182Y573352D01*
X417182Y571644D01*
X419100Y571644D01*
X419100Y573352D01*
G37*
G36*
X388559Y630626D02*
X387052Y630626D01*
X387052Y629050D01*
X388559Y629050D01*
X388559Y630626D01*
G37*
G36*
X12700Y208790D02*
X12688Y209230D01*
X12652Y209657D01*
X12593Y210071D01*
X12510Y210472D01*
X12402Y210860D01*
X12271Y211234D01*
X12117Y211595D01*
X11938Y211943D01*
X11737Y212275D01*
X11515Y212588D01*
X11272Y212881D01*
X11009Y213154D01*
X10724Y213408D01*
X10418Y213643D01*
X10092Y213858D01*
X9744Y214054D01*
X9379Y214229D01*
X8998Y214380D01*
X8603Y214508D01*
X8193Y214613D01*
X7768Y214694D01*
X7327Y214752D01*
X6873Y214787D01*
X6403Y214799D01*
X6045Y214792D01*
X5699Y214772D01*
X5362Y214739D01*
X5036Y214692D01*
X4720Y214632D01*
X4415Y214559D01*
X4120Y214473D01*
X3835Y214373D01*
X3561Y214260D01*
X3297Y214133D01*
X3044Y213994D01*
X2800Y213840D01*
X2568Y213674D01*
X2345Y213494D01*
X2133Y213301D01*
X1931Y213095D01*
X1741Y212877D01*
X1563Y212647D01*
X1397Y212406D01*
X1244Y212154D01*
X1102Y211891D01*
X973Y211616D01*
X857Y211331D01*
X752Y211034D01*
X660Y210726D01*
X580Y210406D01*
X513Y210076D01*
X458Y209734D01*
X415Y209382D01*
X384Y209018D01*
X365Y208642D01*
X359Y208256D01*
X359Y204175D01*
X12700Y204175D01*
X12700Y208790D01*
G37*
%LPC*%
G36*
X1699Y205848D02*
X1699Y208221D01*
X1718Y208799D01*
X1775Y209342D01*
X1869Y209850D01*
X2000Y210322D01*
X2170Y210759D01*
X2377Y211161D01*
X2621Y211528D01*
X2904Y211860D01*
X3222Y212155D01*
X3574Y212410D01*
X3960Y212626D01*
X4381Y212803D01*
X4835Y212940D01*
X5323Y213039D01*
X5846Y213097D01*
X6403Y213117D01*
X6777Y213108D01*
X7139Y213083D01*
X7489Y213040D01*
X7826Y212979D01*
X8150Y212902D01*
X8462Y212807D01*
X8761Y212695D01*
X9048Y212565D01*
X9320Y212420D01*
X9575Y212260D01*
X9815Y212084D01*
X10037Y211894D01*
X10244Y211689D01*
X10434Y211469D01*
X10607Y211234D01*
X10764Y210984D01*
X10904Y210722D01*
X11025Y210449D01*
X11127Y210166D01*
X11211Y209873D01*
X11276Y209570D01*
X11323Y209256D01*
X11351Y208932D01*
X11360Y208598D01*
X11360Y205848D01*
X1699Y205848D01*
G37*
%LPD*%
G36*
X12700Y201928D02*
X11334Y201928D01*
X11334Y193879D01*
X7033Y193879D01*
X7033Y201043D01*
X5684Y201043D01*
X5684Y193879D01*
X1726Y193879D01*
X1726Y201569D01*
X359Y201569D01*
X359Y192206D01*
X12700Y192206D01*
X12700Y201928D01*
G37*
G36*
X12700Y224741D02*
X11360Y224741D01*
X11360Y221737D01*
X359Y221737D01*
X359Y220283D01*
X2365Y217366D01*
X3854Y217366D01*
X1866Y220151D01*
X11360Y220151D01*
X11360Y217007D01*
X12700Y217007D01*
X12700Y224741D01*
G37*
G36*
X12700Y190146D02*
X11334Y190146D01*
X11334Y183910D01*
X359Y183910D01*
X359Y182237D01*
X12700Y182237D01*
X12700Y190146D01*
G37*
G36*
X12700Y348490D02*
X12688Y348930D01*
X12652Y349357D01*
X12593Y349771D01*
X12510Y350172D01*
X12402Y350560D01*
X12271Y350934D01*
X12117Y351295D01*
X11938Y351643D01*
X11737Y351975D01*
X11515Y352288D01*
X11272Y352581D01*
X11009Y352854D01*
X10724Y353108D01*
X10418Y353343D01*
X10092Y353558D01*
X9744Y353754D01*
X9379Y353929D01*
X8998Y354080D01*
X8603Y354208D01*
X8193Y354313D01*
X7768Y354394D01*
X7327Y354452D01*
X6873Y354487D01*
X6403Y354499D01*
X6045Y354492D01*
X5699Y354472D01*
X5362Y354439D01*
X5036Y354392D01*
X4720Y354332D01*
X4415Y354259D01*
X4120Y354173D01*
X3835Y354073D01*
X3561Y353960D01*
X3297Y353833D01*
X3044Y353694D01*
X2800Y353540D01*
X2568Y353374D01*
X2345Y353194D01*
X2133Y353001D01*
X1931Y352795D01*
X1741Y352577D01*
X1563Y352347D01*
X1397Y352106D01*
X1244Y351854D01*
X1102Y351591D01*
X973Y351316D01*
X857Y351031D01*
X752Y350734D01*
X660Y350426D01*
X580Y350106D01*
X513Y349776D01*
X458Y349434D01*
X415Y349082D01*
X384Y348718D01*
X365Y348342D01*
X359Y347956D01*
X359Y343875D01*
X12700Y343875D01*
X12700Y348490D01*
G37*
%LPC*%
G36*
X1699Y345548D02*
X1699Y347921D01*
X1718Y348499D01*
X1775Y349042D01*
X1869Y349550D01*
X2000Y350022D01*
X2170Y350459D01*
X2377Y350861D01*
X2621Y351228D01*
X2904Y351560D01*
X3222Y351855D01*
X3574Y352110D01*
X3960Y352326D01*
X4381Y352503D01*
X4835Y352640D01*
X5323Y352739D01*
X5846Y352797D01*
X6403Y352817D01*
X6777Y352808D01*
X7139Y352783D01*
X7489Y352740D01*
X7826Y352679D01*
X8150Y352602D01*
X8462Y352507D01*
X8761Y352395D01*
X9048Y352265D01*
X9320Y352120D01*
X9575Y351960D01*
X9815Y351784D01*
X10037Y351594D01*
X10244Y351389D01*
X10434Y351169D01*
X10607Y350934D01*
X10764Y350684D01*
X10904Y350422D01*
X11025Y350149D01*
X11127Y349866D01*
X11211Y349573D01*
X11276Y349270D01*
X11323Y348956D01*
X11351Y348632D01*
X11360Y348298D01*
X11360Y345548D01*
X1699Y345548D01*
G37*
%LPD*%
G36*
X12700Y341628D02*
X11334Y341628D01*
X11334Y333579D01*
X7033Y333579D01*
X7033Y340743D01*
X5684Y340743D01*
X5684Y333579D01*
X1726Y333579D01*
X1726Y341269D01*
X359Y341269D01*
X359Y331906D01*
X12700Y331906D01*
X12700Y341628D01*
G37*
G36*
X12700Y364415D02*
X11360Y364415D01*
X11360Y357977D01*
X11050Y358129D01*
X10735Y358323D01*
X10413Y358558D01*
X10086Y358835D01*
X9745Y359159D01*
X9384Y359534D01*
X9003Y359960D01*
X8601Y360438D01*
X7905Y361280D01*
X7307Y361973D01*
X6806Y362519D01*
X6403Y362917D01*
X6048Y363221D01*
X5693Y363485D01*
X5338Y363709D01*
X4984Y363893D01*
X4628Y364037D01*
X4272Y364140D01*
X3915Y364201D01*
X3556Y364222D01*
X3163Y364206D01*
X2792Y364159D01*
X2445Y364081D01*
X2121Y363971D01*
X1820Y363830D01*
X1542Y363658D01*
X1287Y363454D01*
X1056Y363219D01*
X849Y362955D01*
X670Y362664D01*
X519Y362346D01*
X395Y362000D01*
X299Y361628D01*
X230Y361229D01*
X189Y360803D01*
X175Y360351D01*
X189Y359935D01*
X230Y359540D01*
X298Y359163D01*
X394Y358806D01*
X517Y358468D01*
X668Y358149D01*
X846Y357850D01*
X1051Y357570D01*
X1280Y357313D01*
X1527Y357086D01*
X1793Y356886D01*
X2078Y356715D01*
X2382Y356572D01*
X2705Y356457D01*
X3047Y356371D01*
X3407Y356313D01*
X3556Y357924D01*
X3316Y357961D01*
X3089Y358015D01*
X2876Y358086D01*
X2677Y358173D01*
X2492Y358277D01*
X2320Y358398D01*
X2163Y358536D01*
X2019Y358691D01*
X1891Y358860D01*
X1779Y359039D01*
X1685Y359230D01*
X1608Y359432D01*
X1549Y359645D01*
X1506Y359869D01*
X1480Y360104D01*
X1472Y360351D01*
X1480Y360608D01*
X1507Y360851D01*
X1550Y361080D01*
X1612Y361294D01*
X1691Y361494D01*
X1787Y361679D01*
X1901Y361850D01*
X2032Y362006D01*
X2179Y362146D01*
X2341Y362267D01*
X2517Y362369D01*
X2707Y362453D01*
X2911Y362518D01*
X3129Y362564D01*
X3362Y362592D01*
X3609Y362602D01*
X3975Y362580D01*
X4322Y362515D01*
X4650Y362407D01*
X4957Y362256D01*
X5252Y362069D01*
X5540Y361856D01*
X5821Y361616D01*
X6096Y361349D01*
X6639Y360755D01*
X7182Y360092D01*
X7748Y359393D01*
X8360Y358686D01*
X8687Y358336D01*
X9032Y357993D01*
X9396Y357659D01*
X9779Y357333D01*
X10186Y357024D01*
X10623Y356739D01*
X11090Y356478D01*
X11588Y356243D01*
X12700Y356243D01*
X12700Y364415D01*
G37*
G36*
X12700Y329846D02*
X11334Y329846D01*
X11334Y323610D01*
X359Y323610D01*
X359Y321937D01*
X12700Y321937D01*
X12700Y329846D01*
G37*
G36*
X12700Y488190D02*
X12688Y488630D01*
X12652Y489057D01*
X12593Y489471D01*
X12510Y489872D01*
X12402Y490260D01*
X12271Y490634D01*
X12117Y490995D01*
X11938Y491343D01*
X11737Y491675D01*
X11515Y491988D01*
X11272Y492281D01*
X11009Y492554D01*
X10724Y492808D01*
X10418Y493043D01*
X10092Y493258D01*
X9744Y493454D01*
X9379Y493629D01*
X8998Y493780D01*
X8603Y493908D01*
X8193Y494013D01*
X7768Y494094D01*
X7327Y494152D01*
X6873Y494187D01*
X6403Y494199D01*
X6045Y494192D01*
X5699Y494172D01*
X5362Y494139D01*
X5036Y494092D01*
X4720Y494032D01*
X4415Y493959D01*
X4120Y493873D01*
X3835Y493773D01*
X3561Y493660D01*
X3297Y493533D01*
X3044Y493394D01*
X2800Y493240D01*
X2568Y493074D01*
X2345Y492894D01*
X2133Y492701D01*
X1931Y492495D01*
X1741Y492277D01*
X1563Y492047D01*
X1397Y491806D01*
X1244Y491554D01*
X1102Y491291D01*
X973Y491016D01*
X857Y490731D01*
X752Y490434D01*
X660Y490126D01*
X580Y489806D01*
X513Y489476D01*
X458Y489134D01*
X415Y488782D01*
X384Y488418D01*
X365Y488042D01*
X359Y487656D01*
X359Y483575D01*
X12700Y483575D01*
X12700Y488190D01*
G37*
%LPC*%
G36*
X1699Y485248D02*
X1699Y487621D01*
X1718Y488199D01*
X1775Y488742D01*
X1869Y489250D01*
X2000Y489722D01*
X2170Y490159D01*
X2377Y490561D01*
X2621Y490928D01*
X2904Y491260D01*
X3222Y491555D01*
X3574Y491810D01*
X3960Y492026D01*
X4381Y492203D01*
X4835Y492340D01*
X5323Y492439D01*
X5846Y492497D01*
X6403Y492517D01*
X6777Y492508D01*
X7139Y492483D01*
X7489Y492440D01*
X7826Y492379D01*
X8150Y492302D01*
X8462Y492207D01*
X8761Y492095D01*
X9048Y491965D01*
X9320Y491820D01*
X9575Y491660D01*
X9815Y491484D01*
X10037Y491294D01*
X10244Y491089D01*
X10434Y490869D01*
X10607Y490634D01*
X10764Y490384D01*
X10904Y490122D01*
X11025Y489849D01*
X11127Y489566D01*
X11211Y489273D01*
X11276Y488970D01*
X11323Y488656D01*
X11351Y488332D01*
X11360Y487998D01*
X11360Y485248D01*
X1699Y485248D01*
G37*
%LPD*%
G36*
X12700Y481328D02*
X11334Y481328D01*
X11334Y473279D01*
X7033Y473279D01*
X7033Y480443D01*
X5684Y480443D01*
X5684Y473279D01*
X1726Y473279D01*
X1726Y480969D01*
X359Y480969D01*
X359Y471606D01*
X12700Y471606D01*
X12700Y481328D01*
G37*
G36*
X9931Y495791D02*
X10306Y495886D01*
X10657Y496009D01*
X10982Y496161D01*
X11282Y496341D01*
X11557Y496549D01*
X11806Y496786D01*
X12030Y497051D01*
X12228Y497342D01*
X12400Y497656D01*
X12545Y497995D01*
X12664Y498357D01*
X12756Y498743D01*
X12822Y499152D01*
X12862Y499585D01*
X12875Y500042D01*
X12861Y500531D01*
X12817Y500991D01*
X12743Y501422D01*
X12641Y501824D01*
X12509Y502197D01*
X12348Y502541D01*
X12158Y502856D01*
X11938Y503142D01*
X11692Y503397D01*
X11421Y503617D01*
X11127Y503804D01*
X10808Y503957D01*
X10466Y504076D01*
X10099Y504161D01*
X9708Y504211D01*
X9293Y504228D01*
X9004Y504216D01*
X8727Y504180D01*
X8463Y504120D01*
X8211Y504036D01*
X7972Y503927D01*
X7746Y503795D01*
X7532Y503638D01*
X7331Y503458D01*
X7146Y503255D01*
X6981Y503034D01*
X6835Y502793D01*
X6709Y502534D01*
X6603Y502255D01*
X6516Y501957D01*
X6450Y501639D01*
X6403Y501303D01*
X6368Y501303D01*
X6294Y501609D01*
X6206Y501896D01*
X6103Y502165D01*
X5986Y502414D01*
X5853Y502645D01*
X5705Y502857D01*
X5542Y503051D01*
X5365Y503226D01*
X5173Y503381D01*
X4967Y503515D01*
X4747Y503629D01*
X4514Y503722D01*
X4267Y503794D01*
X4006Y503845D01*
X3731Y503876D01*
X3442Y503887D01*
X3067Y503871D01*
X2714Y503822D01*
X2382Y503742D01*
X2070Y503630D01*
X1781Y503485D01*
X1512Y503308D01*
X1264Y503099D01*
X1038Y502858D01*
X836Y502587D01*
X661Y502291D01*
X512Y501969D01*
X391Y501622D01*
X297Y501248D01*
X229Y500848D01*
X189Y500423D01*
X175Y499972D01*
X189Y499557D01*
X228Y499161D01*
X295Y498784D01*
X388Y498427D01*
X507Y498089D01*
X653Y497770D01*
X826Y497471D01*
X1025Y497191D01*
X1248Y496935D01*
X1491Y496707D01*
X1756Y496507D01*
X2041Y496336D01*
X2347Y496193D01*
X2674Y496078D01*
X3021Y495992D01*
X3390Y495934D01*
X3512Y497519D01*
X3276Y497554D01*
X3054Y497606D01*
X2845Y497674D01*
X2650Y497759D01*
X2468Y497861D01*
X2300Y497980D01*
X2146Y498116D01*
X2006Y498268D01*
X1881Y498435D01*
X1772Y498615D01*
X1680Y498807D01*
X1605Y499012D01*
X1547Y499229D01*
X1505Y499458D01*
X1480Y499700D01*
X1472Y499954D01*
X1481Y500232D01*
X1507Y500493D01*
X1552Y500735D01*
X1615Y500960D01*
X1696Y501168D01*
X1794Y501358D01*
X1911Y501530D01*
X2045Y501684D01*
X2195Y501821D01*
X2358Y501939D01*
X2534Y502039D01*
X2723Y502121D01*
X2925Y502185D01*
X3140Y502230D01*
X3368Y502257D01*
X3609Y502266D01*
X3852Y502255D01*
X4081Y502222D01*
X4297Y502166D01*
X4499Y502088D01*
X4687Y501988D01*
X4863Y501865D01*
X5024Y501720D01*
X5172Y501553D01*
X5304Y501365D01*
X5419Y501159D01*
X5516Y500935D01*
X5596Y500693D01*
X5658Y500433D01*
X5702Y500154D01*
X5728Y499858D01*
X5737Y499543D01*
X5737Y498684D01*
X7103Y498684D01*
X7103Y499578D01*
X7112Y499933D01*
X7139Y500266D01*
X7183Y500578D01*
X7245Y500868D01*
X7324Y501137D01*
X7421Y501385D01*
X7536Y501611D01*
X7668Y501815D01*
X7816Y501997D01*
X7978Y502155D01*
X8154Y502288D01*
X8344Y502397D01*
X8547Y502482D01*
X8764Y502542D01*
X8996Y502578D01*
X9240Y502591D01*
X9521Y502580D01*
X9783Y502548D01*
X10027Y502495D01*
X10254Y502421D01*
X10463Y502325D01*
X10654Y502209D01*
X10828Y502071D01*
X10983Y501912D01*
X11121Y501734D01*
X11240Y501540D01*
X11341Y501331D01*
X11423Y501105D01*
X11488Y500863D01*
X11534Y500605D01*
X11561Y500332D01*
X11570Y500042D01*
X11562Y499753D01*
X11536Y499481D01*
X11493Y499224D01*
X11433Y498984D01*
X11356Y498759D01*
X11262Y498551D01*
X11151Y498359D01*
X11023Y498183D01*
X10877Y498023D01*
X10715Y497879D01*
X10535Y497751D01*
X10339Y497639D01*
X10125Y497544D01*
X9894Y497464D01*
X9646Y497400D01*
X9381Y497353D01*
X9529Y495724D01*
X9931Y495791D01*
G37*
G36*
X12700Y469546D02*
X11334Y469546D01*
X11334Y463310D01*
X359Y463310D01*
X359Y461637D01*
X12700Y461637D01*
X12700Y469546D01*
G37*
G36*
X101600Y208790D02*
X101588Y209230D01*
X101552Y209657D01*
X101493Y210071D01*
X101410Y210472D01*
X101302Y210860D01*
X101171Y211234D01*
X101017Y211595D01*
X100838Y211943D01*
X100637Y212275D01*
X100415Y212588D01*
X100172Y212881D01*
X99909Y213154D01*
X99624Y213408D01*
X99318Y213643D01*
X98992Y213858D01*
X98644Y214054D01*
X98279Y214229D01*
X97898Y214380D01*
X97503Y214508D01*
X97093Y214613D01*
X96668Y214694D01*
X96227Y214752D01*
X95773Y214787D01*
X95303Y214799D01*
X94945Y214792D01*
X94599Y214772D01*
X94262Y214739D01*
X93936Y214692D01*
X93620Y214632D01*
X93315Y214559D01*
X93020Y214473D01*
X92735Y214373D01*
X92461Y214260D01*
X92197Y214133D01*
X91944Y213994D01*
X91700Y213840D01*
X91468Y213674D01*
X91245Y213494D01*
X91033Y213301D01*
X90831Y213095D01*
X90641Y212877D01*
X90463Y212647D01*
X90297Y212406D01*
X90144Y212154D01*
X90002Y211891D01*
X89873Y211616D01*
X89757Y211331D01*
X89652Y211034D01*
X89560Y210726D01*
X89480Y210406D01*
X89413Y210076D01*
X89358Y209734D01*
X89315Y209382D01*
X89284Y209018D01*
X89265Y208642D01*
X89259Y208256D01*
X89259Y204175D01*
X101600Y204175D01*
X101600Y208790D01*
G37*
%LPC*%
G36*
X90599Y205848D02*
X90599Y208221D01*
X90618Y208799D01*
X90675Y209342D01*
X90769Y209850D01*
X90900Y210322D01*
X91070Y210759D01*
X91277Y211161D01*
X91521Y211528D01*
X91804Y211860D01*
X92122Y212155D01*
X92474Y212410D01*
X92860Y212626D01*
X93281Y212803D01*
X93735Y212940D01*
X94223Y213039D01*
X94746Y213097D01*
X95303Y213117D01*
X95677Y213108D01*
X96039Y213083D01*
X96389Y213040D01*
X96726Y212979D01*
X97050Y212902D01*
X97362Y212807D01*
X97661Y212695D01*
X97948Y212565D01*
X98220Y212420D01*
X98475Y212260D01*
X98715Y212084D01*
X98937Y211894D01*
X99144Y211689D01*
X99334Y211469D01*
X99507Y211234D01*
X99664Y210984D01*
X99804Y210722D01*
X99925Y210449D01*
X100027Y210166D01*
X100111Y209873D01*
X100176Y209570D01*
X100223Y209256D01*
X100251Y208932D01*
X100260Y208598D01*
X100260Y205848D01*
X90599Y205848D01*
G37*
%LPD*%
G36*
X98806Y221868D02*
X101600Y221868D01*
X101600Y223357D01*
X98806Y223357D01*
X98806Y225091D01*
X97562Y225091D01*
X97562Y223357D01*
X89259Y223357D01*
X89259Y221702D01*
X97580Y216052D01*
X98806Y216052D01*
X98806Y221868D01*
G37*
%LPC*%
G36*
X97387Y217646D02*
X96739Y218119D01*
X92079Y221281D01*
X91501Y221623D01*
X91037Y221868D01*
X97562Y221868D01*
X97562Y217506D01*
X97387Y217646D01*
G37*
%LPD*%
G36*
X101600Y201928D02*
X100234Y201928D01*
X100234Y193879D01*
X95933Y193879D01*
X95933Y201043D01*
X94584Y201043D01*
X94584Y193879D01*
X90626Y193879D01*
X90626Y201569D01*
X89259Y201569D01*
X89259Y192206D01*
X101600Y192206D01*
X101600Y201928D01*
G37*
G36*
X101600Y190146D02*
X100234Y190146D01*
X100234Y183910D01*
X89259Y183910D01*
X89259Y182237D01*
X101600Y182237D01*
X101600Y190146D01*
G37*
G36*
X101600Y348490D02*
X101588Y348930D01*
X101552Y349357D01*
X101493Y349771D01*
X101410Y350172D01*
X101302Y350560D01*
X101171Y350934D01*
X101017Y351295D01*
X100838Y351643D01*
X100637Y351975D01*
X100415Y352288D01*
X100172Y352581D01*
X99909Y352854D01*
X99624Y353108D01*
X99318Y353343D01*
X98992Y353558D01*
X98644Y353754D01*
X98279Y353929D01*
X97898Y354080D01*
X97503Y354208D01*
X97093Y354313D01*
X96668Y354394D01*
X96227Y354452D01*
X95773Y354487D01*
X95303Y354499D01*
X94945Y354492D01*
X94599Y354472D01*
X94262Y354439D01*
X93936Y354392D01*
X93620Y354332D01*
X93315Y354259D01*
X93020Y354173D01*
X92735Y354073D01*
X92461Y353960D01*
X92197Y353833D01*
X91944Y353694D01*
X91700Y353540D01*
X91468Y353374D01*
X91245Y353194D01*
X91033Y353001D01*
X90831Y352795D01*
X90641Y352577D01*
X90463Y352347D01*
X90297Y352106D01*
X90144Y351854D01*
X90002Y351591D01*
X89873Y351316D01*
X89757Y351031D01*
X89652Y350734D01*
X89560Y350426D01*
X89480Y350106D01*
X89413Y349776D01*
X89358Y349434D01*
X89315Y349082D01*
X89284Y348718D01*
X89265Y348342D01*
X89259Y347956D01*
X89259Y343875D01*
X101600Y343875D01*
X101600Y348490D01*
G37*
%LPC*%
G36*
X90599Y345548D02*
X90599Y347921D01*
X90618Y348499D01*
X90675Y349042D01*
X90769Y349550D01*
X90900Y350022D01*
X91070Y350459D01*
X91277Y350861D01*
X91521Y351228D01*
X91804Y351560D01*
X92122Y351855D01*
X92474Y352110D01*
X92860Y352326D01*
X93281Y352503D01*
X93735Y352640D01*
X94223Y352739D01*
X94746Y352797D01*
X95303Y352817D01*
X95677Y352808D01*
X96039Y352783D01*
X96389Y352740D01*
X96726Y352679D01*
X97050Y352602D01*
X97362Y352507D01*
X97661Y352395D01*
X97948Y352265D01*
X98220Y352120D01*
X98475Y351960D01*
X98715Y351784D01*
X98937Y351594D01*
X99144Y351389D01*
X99334Y351169D01*
X99507Y350934D01*
X99664Y350684D01*
X99804Y350422D01*
X99925Y350149D01*
X100027Y349866D01*
X100111Y349573D01*
X100176Y349270D01*
X100223Y348956D01*
X100251Y348632D01*
X100260Y348298D01*
X100260Y345548D01*
X90599Y345548D01*
G37*
%LPD*%
G36*
X101600Y341628D02*
X100234Y341628D01*
X100234Y333579D01*
X95933Y333579D01*
X95933Y340743D01*
X94584Y340743D01*
X94584Y333579D01*
X90626Y333579D01*
X90626Y341269D01*
X89259Y341269D01*
X89259Y331906D01*
X101600Y331906D01*
X101600Y341628D01*
G37*
G36*
X99187Y356141D02*
X99513Y356248D01*
X99817Y356379D01*
X100100Y356534D01*
X100362Y356714D01*
X100603Y356918D01*
X100823Y357146D01*
X101022Y357399D01*
X101199Y357674D01*
X101352Y357970D01*
X101481Y358287D01*
X101587Y358625D01*
X101669Y358984D01*
X101728Y359363D01*
X101763Y359763D01*
X101775Y360184D01*
X101758Y360685D01*
X101705Y361157D01*
X101618Y361602D01*
X101495Y362018D01*
X101337Y362406D01*
X101145Y362767D01*
X100917Y363099D01*
X100654Y363403D01*
X100361Y363675D01*
X100042Y363911D01*
X99696Y364110D01*
X99325Y364273D01*
X98928Y364400D01*
X98504Y364491D01*
X98055Y364545D01*
X97580Y364563D01*
X97161Y364547D01*
X96762Y364496D01*
X96383Y364411D01*
X96025Y364293D01*
X95687Y364141D01*
X95369Y363955D01*
X95072Y363735D01*
X94795Y363482D01*
X94544Y363200D01*
X94327Y362895D01*
X94143Y362566D01*
X93993Y362215D01*
X93876Y361841D01*
X93793Y361443D01*
X93743Y361022D01*
X93726Y360578D01*
X93738Y360205D01*
X93775Y359848D01*
X93837Y359506D01*
X93923Y359179D01*
X94034Y358868D01*
X94170Y358573D01*
X94330Y358294D01*
X94514Y358030D01*
X90599Y358266D01*
X90599Y363845D01*
X89259Y363845D01*
X89259Y356830D01*
X95898Y356418D01*
X95898Y357959D01*
X95675Y358235D01*
X95487Y358511D01*
X95333Y358787D01*
X95215Y359063D01*
X95127Y359344D01*
X95064Y359637D01*
X95026Y359940D01*
X95014Y360254D01*
X95025Y360553D01*
X95058Y360836D01*
X95115Y361103D01*
X95193Y361355D01*
X95294Y361590D01*
X95418Y361810D01*
X95563Y362014D01*
X95732Y362203D01*
X95918Y362372D01*
X96119Y362519D01*
X96333Y362643D01*
X96562Y362745D01*
X96804Y362824D01*
X97060Y362880D01*
X97331Y362914D01*
X97615Y362926D01*
X97941Y362914D01*
X98249Y362881D01*
X98539Y362825D01*
X98812Y362746D01*
X99066Y362645D01*
X99302Y362522D01*
X99521Y362376D01*
X99721Y362207D01*
X99901Y362019D01*
X100057Y361814D01*
X100188Y361591D01*
X100296Y361351D01*
X100380Y361094D01*
X100440Y360820D01*
X100476Y360528D01*
X100488Y360219D01*
X100481Y359967D01*
X100459Y359727D01*
X100423Y359499D01*
X100373Y359284D01*
X100309Y359080D01*
X100230Y358889D01*
X100137Y358711D01*
X100030Y358544D01*
X99909Y358390D01*
X99773Y358248D01*
X99622Y358118D01*
X99458Y358001D01*
X99279Y357895D01*
X99086Y357802D01*
X98879Y357721D01*
X98657Y357653D01*
X98841Y356059D01*
X99187Y356141D01*
G37*
G36*
X101600Y329846D02*
X100234Y329846D01*
X100234Y323610D01*
X89259Y323610D01*
X89259Y321937D01*
X101600Y321937D01*
X101600Y329846D01*
G37*
G36*
X101600Y488190D02*
X101588Y488630D01*
X101552Y489057D01*
X101493Y489471D01*
X101410Y489872D01*
X101302Y490260D01*
X101171Y490634D01*
X101017Y490995D01*
X100838Y491343D01*
X100637Y491675D01*
X100415Y491988D01*
X100172Y492281D01*
X99909Y492554D01*
X99624Y492808D01*
X99318Y493043D01*
X98992Y493258D01*
X98644Y493454D01*
X98279Y493629D01*
X97898Y493780D01*
X97503Y493908D01*
X97093Y494013D01*
X96668Y494094D01*
X96227Y494152D01*
X95773Y494187D01*
X95303Y494199D01*
X94945Y494192D01*
X94599Y494172D01*
X94262Y494139D01*
X93936Y494092D01*
X93620Y494032D01*
X93315Y493959D01*
X93020Y493873D01*
X92735Y493773D01*
X92461Y493660D01*
X92197Y493533D01*
X91944Y493394D01*
X91700Y493240D01*
X91468Y493074D01*
X91245Y492894D01*
X91033Y492701D01*
X90831Y492495D01*
X90641Y492277D01*
X90463Y492047D01*
X90297Y491806D01*
X90144Y491554D01*
X90002Y491291D01*
X89873Y491016D01*
X89757Y490731D01*
X89652Y490434D01*
X89560Y490126D01*
X89480Y489806D01*
X89413Y489476D01*
X89358Y489134D01*
X89315Y488782D01*
X89284Y488418D01*
X89265Y488042D01*
X89259Y487656D01*
X89259Y483575D01*
X101600Y483575D01*
X101600Y488190D01*
G37*
%LPC*%
G36*
X90599Y485248D02*
X90599Y487621D01*
X90618Y488199D01*
X90675Y488742D01*
X90769Y489250D01*
X90900Y489722D01*
X91070Y490159D01*
X91277Y490561D01*
X91521Y490928D01*
X91804Y491260D01*
X92122Y491555D01*
X92474Y491810D01*
X92860Y492026D01*
X93281Y492203D01*
X93735Y492340D01*
X94223Y492439D01*
X94746Y492497D01*
X95303Y492517D01*
X95677Y492508D01*
X96039Y492483D01*
X96389Y492440D01*
X96726Y492379D01*
X97050Y492302D01*
X97362Y492207D01*
X97661Y492095D01*
X97948Y491965D01*
X98220Y491820D01*
X98475Y491660D01*
X98715Y491484D01*
X98937Y491294D01*
X99144Y491089D01*
X99334Y490869D01*
X99507Y490634D01*
X99664Y490384D01*
X99804Y490122D01*
X99925Y489849D01*
X100027Y489566D01*
X100111Y489273D01*
X100176Y488970D01*
X100223Y488656D01*
X100251Y488332D01*
X100260Y487998D01*
X100260Y485248D01*
X90599Y485248D01*
G37*
%LPD*%
G36*
X96432Y495969D02*
X97106Y496021D01*
X97736Y496107D01*
X98322Y496227D01*
X98864Y496383D01*
X99362Y496572D01*
X99815Y496797D01*
X100225Y497055D01*
X100588Y497346D01*
X100903Y497668D01*
X101170Y498021D01*
X101388Y498404D01*
X101557Y498818D01*
X101678Y499262D01*
X101751Y499737D01*
X101769Y499987D01*
X101775Y500243D01*
X101758Y500697D01*
X101705Y501126D01*
X101616Y501529D01*
X101493Y501907D01*
X101334Y502260D01*
X101140Y502588D01*
X100910Y502891D01*
X100645Y503169D01*
X100350Y503417D01*
X100029Y503632D01*
X99682Y503814D01*
X99310Y503963D01*
X98911Y504079D01*
X98487Y504162D01*
X98038Y504212D01*
X97562Y504228D01*
X97123Y504213D01*
X96706Y504166D01*
X96313Y504087D01*
X95942Y503978D01*
X95594Y503837D01*
X95270Y503664D01*
X94968Y503461D01*
X94690Y503226D01*
X94439Y502964D01*
X94222Y502680D01*
X94038Y502374D01*
X93888Y502046D01*
X93771Y501697D01*
X93688Y501325D01*
X93638Y500931D01*
X93621Y500515D01*
X93627Y500267D01*
X93647Y500025D01*
X93680Y499791D01*
X93725Y499564D01*
X93855Y499132D01*
X94037Y498728D01*
X94269Y498360D01*
X94548Y498036D01*
X94875Y497756D01*
X95250Y497519D01*
X94672Y497531D01*
X94129Y497566D01*
X93622Y497623D01*
X93149Y497704D01*
X92712Y497808D01*
X92310Y497936D01*
X91943Y498086D01*
X91611Y498259D01*
X91316Y498454D01*
X91061Y498668D01*
X90845Y498900D01*
X90668Y499152D01*
X90531Y499422D01*
X90433Y499712D01*
X90374Y500021D01*
X90354Y500348D01*
X90378Y500723D01*
X90448Y501063D01*
X90566Y501369D01*
X90731Y501640D01*
X90943Y501877D01*
X91201Y502079D01*
X91507Y502247D01*
X91861Y502380D01*
X91589Y503887D01*
X91285Y503788D01*
X91000Y503673D01*
X90735Y503542D01*
X90489Y503394D01*
X90263Y503231D01*
X90057Y503051D01*
X89871Y502855D01*
X89704Y502643D01*
X89556Y502415D01*
X89429Y502171D01*
X89321Y501910D01*
X89232Y501634D01*
X89164Y501341D01*
X89115Y501032D01*
X89085Y500707D01*
X89075Y500366D01*
X89082Y500105D01*
X89102Y499851D01*
X89136Y499605D01*
X89183Y499367D01*
X89243Y499136D01*
X89317Y498913D01*
X89504Y498489D01*
X89746Y498096D01*
X90041Y497733D01*
X90390Y497401D01*
X90792Y497099D01*
X91244Y496830D01*
X91743Y496597D01*
X92289Y496400D01*
X92881Y496238D01*
X93519Y496113D01*
X94205Y496023D01*
X94936Y495970D01*
X95714Y495952D01*
X96432Y495969D01*
G37*
%LPC*%
G36*
X96981Y497688D02*
X96721Y497719D01*
X96477Y497772D01*
X96247Y497847D01*
X96033Y497942D01*
X95834Y498059D01*
X95651Y498197D01*
X95482Y498356D01*
X95331Y498532D01*
X95201Y498722D01*
X95090Y498925D01*
X94999Y499141D01*
X94929Y499370D01*
X94879Y499613D01*
X94848Y499869D01*
X94838Y500138D01*
X94850Y500423D01*
X94884Y500693D01*
X94941Y500946D01*
X95020Y501183D01*
X95122Y501403D01*
X95247Y501608D01*
X95395Y501796D01*
X95565Y501969D01*
X95757Y502123D01*
X95967Y502256D01*
X96197Y502369D01*
X96446Y502461D01*
X96714Y502533D01*
X97001Y502585D01*
X97307Y502615D01*
X97632Y502626D01*
X97958Y502615D01*
X98267Y502585D01*
X98557Y502534D01*
X98829Y502464D01*
X99083Y502372D01*
X99320Y502261D01*
X99538Y502129D01*
X99739Y501977D01*
X99918Y501808D01*
X100074Y501623D01*
X100206Y501422D01*
X100314Y501207D01*
X100397Y500976D01*
X100457Y500729D01*
X100493Y500468D01*
X100505Y500191D01*
X100491Y499921D01*
X100448Y499664D01*
X100377Y499419D01*
X100277Y499187D01*
X100149Y498967D01*
X99993Y498760D01*
X99808Y498565D01*
X99594Y498382D01*
X99359Y498217D01*
X99107Y498074D01*
X98838Y497952D01*
X98554Y497853D01*
X98254Y497776D01*
X97937Y497721D01*
X97605Y497688D01*
X97256Y497677D01*
X96981Y497688D01*
G37*
%LPD*%
G36*
X101600Y481328D02*
X100234Y481328D01*
X100234Y473279D01*
X95933Y473279D01*
X95933Y480443D01*
X94584Y480443D01*
X94584Y473279D01*
X90626Y473279D01*
X90626Y480969D01*
X89259Y480969D01*
X89259Y471606D01*
X101600Y471606D01*
X101600Y481328D01*
G37*
G36*
X101600Y469546D02*
X100234Y469546D01*
X100234Y463310D01*
X89259Y463310D01*
X89259Y461637D01*
X101600Y461637D01*
X101600Y469546D01*
G37*
G36*
X279400Y203803D02*
X279388Y204243D01*
X279352Y204670D01*
X279293Y205084D01*
X279210Y205484D01*
X279102Y205872D01*
X278971Y206246D01*
X278817Y206608D01*
X278638Y206956D01*
X278437Y207288D01*
X278215Y207600D01*
X277972Y207893D01*
X277709Y208167D01*
X277424Y208421D01*
X277118Y208655D01*
X276792Y208871D01*
X276444Y209066D01*
X276079Y209241D01*
X275698Y209392D01*
X275303Y209520D01*
X274893Y209625D01*
X274468Y209706D01*
X274027Y209764D01*
X273573Y209799D01*
X273103Y209811D01*
X272745Y209804D01*
X272399Y209784D01*
X272062Y209751D01*
X271736Y209704D01*
X271420Y209645D01*
X271115Y209571D01*
X270820Y209485D01*
X270535Y209385D01*
X270261Y209272D01*
X269997Y209146D01*
X269744Y209006D01*
X269500Y208853D01*
X269268Y208686D01*
X269045Y208507D01*
X268833Y208314D01*
X268631Y208107D01*
X268441Y207889D01*
X268263Y207659D01*
X268097Y207418D01*
X267944Y207166D01*
X267802Y206903D01*
X267673Y206628D01*
X267557Y206343D01*
X267452Y206046D01*
X267360Y205738D01*
X267280Y205419D01*
X267213Y205088D01*
X267158Y204747D01*
X267115Y204394D01*
X267084Y204030D01*
X267065Y203655D01*
X267059Y203268D01*
X267059Y199187D01*
X279400Y199187D01*
X279400Y203803D01*
G37*
%LPC*%
G36*
X268399Y200860D02*
X268399Y203233D01*
X268418Y203811D01*
X268475Y204354D01*
X268569Y204862D01*
X268700Y205334D01*
X268870Y205772D01*
X269077Y206174D01*
X269321Y206541D01*
X269604Y206872D01*
X269922Y207167D01*
X270274Y207422D01*
X270660Y207638D01*
X271081Y207815D01*
X271535Y207953D01*
X272023Y208051D01*
X272546Y208110D01*
X273103Y208129D01*
X273477Y208121D01*
X273839Y208095D01*
X274189Y208052D01*
X274526Y207991D01*
X274850Y207914D01*
X275162Y207819D01*
X275461Y207707D01*
X275748Y207578D01*
X276020Y207432D01*
X276275Y207272D01*
X276515Y207097D01*
X276737Y206906D01*
X276944Y206701D01*
X277134Y206481D01*
X277307Y206246D01*
X277464Y205997D01*
X277604Y205734D01*
X277725Y205462D01*
X277827Y205179D01*
X277911Y204885D01*
X277976Y204582D01*
X278023Y204268D01*
X278051Y203944D01*
X278060Y203610D01*
X278060Y200860D01*
X268399Y200860D01*
G37*
%LPD*%
G36*
X273979Y221339D02*
X274687Y221389D01*
X275348Y221473D01*
X275962Y221589D01*
X276530Y221740D01*
X277052Y221923D01*
X277527Y222140D01*
X277955Y222391D01*
X278335Y222675D01*
X278664Y222991D01*
X278942Y223341D01*
X279170Y223724D01*
X279347Y224141D01*
X279474Y224590D01*
X279518Y224827D01*
X279550Y225072D01*
X279569Y225326D01*
X279575Y225588D01*
X279569Y225850D01*
X279550Y226104D01*
X279518Y226349D01*
X279473Y226587D01*
X279346Y227038D01*
X279168Y227457D01*
X278939Y227843D01*
X278659Y228196D01*
X278328Y228518D01*
X277946Y228807D01*
X277516Y229062D01*
X277040Y229284D01*
X276519Y229471D01*
X275951Y229624D01*
X275338Y229744D01*
X274680Y229829D01*
X273975Y229880D01*
X273225Y229897D01*
X272463Y229881D01*
X271749Y229832D01*
X271084Y229751D01*
X270466Y229637D01*
X269897Y229492D01*
X269376Y229313D01*
X268903Y229102D01*
X268478Y228859D01*
X268102Y228582D01*
X267777Y228269D01*
X267501Y227920D01*
X267276Y227535D01*
X267101Y227115D01*
X267032Y226892D01*
X266975Y226659D01*
X266932Y226418D01*
X266900Y226168D01*
X266882Y225908D01*
X266875Y225640D01*
X266882Y225365D01*
X266900Y225099D01*
X266931Y224842D01*
X266974Y224594D01*
X267030Y224357D01*
X267098Y224128D01*
X267272Y223699D01*
X267495Y223308D01*
X267767Y222954D01*
X268089Y222639D01*
X268461Y222360D01*
X268882Y222117D01*
X269353Y221906D01*
X269874Y221728D01*
X270444Y221582D01*
X271065Y221468D01*
X271735Y221387D01*
X272455Y221339D01*
X273225Y221322D01*
X273979Y221339D01*
G37*
%LPC*%
G36*
X272572Y222926D02*
X271967Y222956D01*
X271410Y223006D01*
X270900Y223075D01*
X270438Y223164D01*
X270023Y223274D01*
X269656Y223403D01*
X269336Y223551D01*
X269059Y223723D01*
X268819Y223920D01*
X268616Y224143D01*
X268450Y224391D01*
X268320Y224665D01*
X268228Y224965D01*
X268173Y225290D01*
X268154Y225640D01*
X268173Y225983D01*
X268229Y226300D01*
X268323Y226592D01*
X268454Y226859D01*
X268623Y227101D01*
X268829Y227318D01*
X269073Y227510D01*
X269354Y227677D01*
X269677Y227821D01*
X270046Y227947D01*
X270461Y228053D01*
X270922Y228140D01*
X271429Y228207D01*
X271982Y228256D01*
X272580Y228284D01*
X273225Y228294D01*
X273848Y228284D01*
X274430Y228254D01*
X274969Y228203D01*
X275467Y228132D01*
X275924Y228041D01*
X276339Y227930D01*
X276712Y227798D01*
X277044Y227646D01*
X277335Y227472D01*
X277588Y227275D01*
X277802Y227055D01*
X277977Y226812D01*
X278113Y226545D01*
X278210Y226255D01*
X278268Y225942D01*
X278288Y225605D01*
X278269Y225267D01*
X278212Y224952D01*
X278116Y224661D01*
X277983Y224393D01*
X277812Y224150D01*
X277603Y223929D01*
X277356Y223733D01*
X277070Y223560D01*
X276744Y223409D01*
X276373Y223279D01*
X275959Y223168D01*
X275500Y223077D01*
X274998Y223007D01*
X274451Y222957D01*
X273860Y222926D01*
X273225Y222916D01*
X272572Y222926D01*
G37*
%LPD*%
G36*
X279400Y196940D02*
X278034Y196940D01*
X278034Y188891D01*
X273733Y188891D01*
X273733Y196055D01*
X272384Y196055D01*
X272384Y188891D01*
X268426Y188891D01*
X268426Y196581D01*
X267059Y196581D01*
X267059Y187218D01*
X279400Y187218D01*
X279400Y196940D01*
G37*
G36*
X279400Y219753D02*
X278060Y219753D01*
X278060Y216749D01*
X267059Y216749D01*
X267059Y215295D01*
X269065Y212378D01*
X270554Y212378D01*
X268566Y215164D01*
X278060Y215164D01*
X278060Y212019D01*
X279400Y212019D01*
X279400Y219753D01*
G37*
G36*
X279400Y185158D02*
X278034Y185158D01*
X278034Y178922D01*
X267059Y178922D01*
X267059Y177249D01*
X279400Y177249D01*
X279400Y185158D01*
G37*
G36*
X279400Y344168D02*
X279388Y344608D01*
X279352Y345035D01*
X279293Y345449D01*
X279210Y345850D01*
X279102Y346238D01*
X278971Y346612D01*
X278817Y346973D01*
X278638Y347321D01*
X278437Y347653D01*
X278215Y347966D01*
X277972Y348259D01*
X277709Y348532D01*
X277424Y348786D01*
X277118Y349021D01*
X276792Y349236D01*
X276444Y349432D01*
X276079Y349607D01*
X275698Y349758D01*
X275303Y349886D01*
X274893Y349991D01*
X274468Y350072D01*
X274027Y350130D01*
X273573Y350165D01*
X273103Y350177D01*
X272745Y350170D01*
X272399Y350150D01*
X272062Y350117D01*
X271736Y350070D01*
X271420Y350010D01*
X271115Y349937D01*
X270820Y349851D01*
X270535Y349751D01*
X270261Y349638D01*
X269997Y349511D01*
X269744Y349372D01*
X269500Y349218D01*
X269268Y349052D01*
X269045Y348872D01*
X268833Y348679D01*
X268631Y348473D01*
X268441Y348255D01*
X268263Y348025D01*
X268097Y347784D01*
X267944Y347532D01*
X267802Y347269D01*
X267673Y346994D01*
X267557Y346708D01*
X267452Y346412D01*
X267360Y346104D01*
X267280Y345784D01*
X267213Y345454D01*
X267158Y345112D01*
X267115Y344760D01*
X267084Y344396D01*
X267065Y344020D01*
X267059Y343634D01*
X267059Y339553D01*
X279400Y339553D01*
X279400Y344168D01*
G37*
%LPC*%
G36*
X268399Y341225D02*
X268399Y343599D01*
X268418Y344177D01*
X268475Y344720D01*
X268569Y345228D01*
X268700Y345700D01*
X268870Y346137D01*
X269077Y346539D01*
X269321Y346906D01*
X269604Y347238D01*
X269922Y347533D01*
X270274Y347788D01*
X270660Y348004D01*
X271081Y348181D01*
X271535Y348318D01*
X272023Y348417D01*
X272546Y348475D01*
X273103Y348495D01*
X273477Y348486D01*
X273839Y348461D01*
X274189Y348417D01*
X274526Y348357D01*
X274850Y348280D01*
X275162Y348185D01*
X275461Y348073D01*
X275748Y347943D01*
X276020Y347798D01*
X276275Y347638D01*
X276515Y347462D01*
X276737Y347272D01*
X276944Y347067D01*
X277134Y346847D01*
X277307Y346612D01*
X277464Y346362D01*
X277604Y346100D01*
X277725Y345827D01*
X277827Y345544D01*
X277911Y345251D01*
X277976Y344948D01*
X278023Y344634D01*
X278051Y344310D01*
X278060Y343976D01*
X278060Y341225D01*
X268399Y341225D01*
G37*
%LPD*%
G36*
X279400Y337306D02*
X278034Y337306D01*
X278034Y329257D01*
X273733Y329257D01*
X273733Y336421D01*
X272384Y336421D01*
X272384Y329257D01*
X268426Y329257D01*
X268426Y336947D01*
X267059Y336947D01*
X267059Y327584D01*
X279400Y327584D01*
X279400Y337306D01*
G37*
G36*
X279400Y360119D02*
X278060Y360119D01*
X278060Y357115D01*
X267059Y357115D01*
X267059Y355661D01*
X269065Y352744D01*
X270554Y352744D01*
X268566Y355529D01*
X278060Y355529D01*
X278060Y352385D01*
X279400Y352385D01*
X279400Y360119D01*
G37*
G36*
X279400Y368775D02*
X278060Y368775D01*
X278060Y365771D01*
X267059Y365771D01*
X267059Y364317D01*
X269065Y361400D01*
X270554Y361400D01*
X268566Y364186D01*
X278060Y364186D01*
X278060Y361041D01*
X279400Y361041D01*
X279400Y368775D01*
G37*
G36*
X279400Y325524D02*
X278034Y325524D01*
X278034Y319288D01*
X267059Y319288D01*
X267059Y317615D01*
X279400Y317615D01*
X279400Y325524D01*
G37*
G36*
X279400Y483203D02*
X279388Y483643D01*
X279352Y484070D01*
X279293Y484484D01*
X279210Y484884D01*
X279102Y485272D01*
X278971Y485646D01*
X278817Y486008D01*
X278638Y486356D01*
X278437Y486688D01*
X278215Y487000D01*
X277972Y487293D01*
X277709Y487567D01*
X277424Y487821D01*
X277118Y488055D01*
X276792Y488271D01*
X276444Y488466D01*
X276079Y488641D01*
X275698Y488792D01*
X275303Y488920D01*
X274893Y489025D01*
X274468Y489106D01*
X274027Y489164D01*
X273573Y489199D01*
X273103Y489211D01*
X272745Y489204D01*
X272399Y489184D01*
X272062Y489151D01*
X271736Y489104D01*
X271420Y489045D01*
X271115Y488971D01*
X270820Y488885D01*
X270535Y488785D01*
X270261Y488672D01*
X269997Y488546D01*
X269744Y488406D01*
X269500Y488253D01*
X269268Y488086D01*
X269045Y487907D01*
X268833Y487714D01*
X268631Y487507D01*
X268441Y487289D01*
X268263Y487059D01*
X268097Y486818D01*
X267944Y486566D01*
X267802Y486303D01*
X267673Y486028D01*
X267557Y485743D01*
X267452Y485446D01*
X267360Y485138D01*
X267280Y484819D01*
X267213Y484488D01*
X267158Y484147D01*
X267115Y483794D01*
X267084Y483430D01*
X267065Y483055D01*
X267059Y482668D01*
X267059Y478587D01*
X279400Y478587D01*
X279400Y483203D01*
G37*
%LPC*%
G36*
X268399Y480260D02*
X268399Y482633D01*
X268418Y483211D01*
X268475Y483754D01*
X268569Y484262D01*
X268700Y484734D01*
X268870Y485172D01*
X269077Y485574D01*
X269321Y485941D01*
X269604Y486272D01*
X269922Y486567D01*
X270274Y486822D01*
X270660Y487038D01*
X271081Y487215D01*
X271535Y487353D01*
X272023Y487451D01*
X272546Y487510D01*
X273103Y487529D01*
X273477Y487521D01*
X273839Y487495D01*
X274189Y487452D01*
X274526Y487391D01*
X274850Y487314D01*
X275162Y487219D01*
X275461Y487107D01*
X275748Y486978D01*
X276020Y486832D01*
X276275Y486672D01*
X276515Y486497D01*
X276737Y486306D01*
X276944Y486101D01*
X277134Y485881D01*
X277307Y485646D01*
X277464Y485397D01*
X277604Y485134D01*
X277725Y484862D01*
X277827Y484579D01*
X277911Y484285D01*
X277976Y483982D01*
X278023Y483668D01*
X278051Y483344D01*
X278060Y483010D01*
X278060Y480260D01*
X268399Y480260D01*
G37*
%LPD*%
G36*
X279400Y476340D02*
X278034Y476340D01*
X278034Y468291D01*
X273733Y468291D01*
X273733Y475455D01*
X272384Y475455D01*
X272384Y468291D01*
X268426Y468291D01*
X268426Y475981D01*
X267059Y475981D01*
X267059Y466618D01*
X279400Y466618D01*
X279400Y476340D01*
G37*
G36*
X279400Y509096D02*
X278060Y509096D01*
X278060Y502658D01*
X277750Y502810D01*
X277435Y503004D01*
X277113Y503239D01*
X276786Y503516D01*
X276445Y503840D01*
X276084Y504215D01*
X275703Y504641D01*
X275301Y505119D01*
X274605Y505960D01*
X274007Y506654D01*
X273506Y507200D01*
X273103Y507598D01*
X272748Y507902D01*
X272393Y508166D01*
X272038Y508390D01*
X271684Y508574D01*
X271328Y508718D01*
X270972Y508821D01*
X270615Y508882D01*
X270256Y508903D01*
X269863Y508887D01*
X269492Y508840D01*
X269145Y508762D01*
X268821Y508652D01*
X268520Y508511D01*
X268242Y508339D01*
X267987Y508135D01*
X267756Y507900D01*
X267549Y507636D01*
X267370Y507345D01*
X267219Y507027D01*
X267095Y506681D01*
X266999Y506309D01*
X266930Y505910D01*
X266889Y505484D01*
X266875Y505032D01*
X266889Y504616D01*
X266930Y504221D01*
X266998Y503844D01*
X267094Y503487D01*
X267217Y503149D01*
X267368Y502830D01*
X267546Y502531D01*
X267751Y502251D01*
X267980Y501994D01*
X268227Y501767D01*
X268493Y501567D01*
X268778Y501396D01*
X269082Y501253D01*
X269405Y501138D01*
X269747Y501052D01*
X270107Y500994D01*
X270256Y502605D01*
X270016Y502642D01*
X269789Y502696D01*
X269576Y502767D01*
X269377Y502854D01*
X269192Y502958D01*
X269020Y503079D01*
X268863Y503217D01*
X268719Y503372D01*
X268591Y503540D01*
X268479Y503720D01*
X268385Y503911D01*
X268308Y504113D01*
X268249Y504326D01*
X268206Y504550D01*
X268180Y504785D01*
X268172Y505032D01*
X268180Y505289D01*
X268207Y505532D01*
X268250Y505761D01*
X268312Y505975D01*
X268391Y506175D01*
X268487Y506360D01*
X268601Y506531D01*
X268732Y506687D01*
X268879Y506826D01*
X269041Y506947D01*
X269217Y507050D01*
X269407Y507134D01*
X269611Y507199D01*
X269829Y507245D01*
X270062Y507273D01*
X270309Y507282D01*
X270675Y507261D01*
X271022Y507196D01*
X271350Y507088D01*
X271657Y506937D01*
X271952Y506750D01*
X272240Y506537D01*
X272521Y506297D01*
X272796Y506030D01*
X273339Y505436D01*
X273882Y504773D01*
X274448Y504074D01*
X275060Y503367D01*
X275387Y503017D01*
X275732Y502674D01*
X276096Y502340D01*
X276479Y502014D01*
X276886Y501705D01*
X277323Y501420D01*
X277790Y501159D01*
X278288Y500924D01*
X279400Y500924D01*
X279400Y509096D01*
G37*
G36*
X279400Y499153D02*
X278060Y499153D01*
X278060Y496149D01*
X267059Y496149D01*
X267059Y494695D01*
X269065Y491778D01*
X270554Y491778D01*
X268566Y494564D01*
X278060Y494564D01*
X278060Y491419D01*
X279400Y491419D01*
X279400Y499153D01*
G37*
G36*
X279400Y464558D02*
X278034Y464558D01*
X278034Y458322D01*
X267059Y458322D01*
X267059Y456649D01*
X279400Y456649D01*
X279400Y464558D01*
G37*
G36*
X368300Y203803D02*
X368288Y204243D01*
X368252Y204670D01*
X368193Y205084D01*
X368110Y205484D01*
X368002Y205872D01*
X367871Y206246D01*
X367717Y206608D01*
X367538Y206956D01*
X367337Y207288D01*
X367115Y207600D01*
X366872Y207893D01*
X366609Y208167D01*
X366324Y208421D01*
X366018Y208655D01*
X365692Y208871D01*
X365344Y209066D01*
X364979Y209241D01*
X364598Y209392D01*
X364203Y209520D01*
X363793Y209625D01*
X363368Y209706D01*
X362927Y209764D01*
X362473Y209799D01*
X362003Y209811D01*
X361645Y209804D01*
X361299Y209784D01*
X360962Y209751D01*
X360636Y209704D01*
X360320Y209645D01*
X360015Y209571D01*
X359720Y209485D01*
X359435Y209385D01*
X359161Y209272D01*
X358897Y209146D01*
X358644Y209006D01*
X358400Y208853D01*
X358168Y208686D01*
X357945Y208507D01*
X357733Y208314D01*
X357531Y208107D01*
X357341Y207889D01*
X357163Y207659D01*
X356997Y207418D01*
X356844Y207166D01*
X356702Y206903D01*
X356573Y206628D01*
X356457Y206343D01*
X356352Y206046D01*
X356260Y205738D01*
X356180Y205419D01*
X356113Y205088D01*
X356058Y204747D01*
X356015Y204394D01*
X355984Y204030D01*
X355965Y203655D01*
X355959Y203268D01*
X355959Y199187D01*
X368300Y199187D01*
X368300Y203803D01*
G37*
%LPC*%
G36*
X357299Y200860D02*
X357299Y203233D01*
X357318Y203811D01*
X357375Y204354D01*
X357469Y204862D01*
X357600Y205334D01*
X357770Y205772D01*
X357977Y206174D01*
X358221Y206541D01*
X358504Y206872D01*
X358822Y207167D01*
X359174Y207422D01*
X359560Y207638D01*
X359981Y207815D01*
X360435Y207953D01*
X360923Y208051D01*
X361446Y208110D01*
X362003Y208129D01*
X362377Y208121D01*
X362739Y208095D01*
X363089Y208052D01*
X363426Y207991D01*
X363750Y207914D01*
X364062Y207819D01*
X364361Y207707D01*
X364648Y207578D01*
X364920Y207432D01*
X365175Y207272D01*
X365415Y207097D01*
X365637Y206906D01*
X365844Y206701D01*
X366034Y206481D01*
X366207Y206246D01*
X366364Y205997D01*
X366504Y205734D01*
X366625Y205462D01*
X366727Y205179D01*
X366811Y204885D01*
X366876Y204582D01*
X366923Y204268D01*
X366951Y203944D01*
X366960Y203610D01*
X366960Y200860D01*
X357299Y200860D01*
G37*
%LPD*%
G36*
X368300Y196940D02*
X366934Y196940D01*
X366934Y188891D01*
X362633Y188891D01*
X362633Y196055D01*
X361284Y196055D01*
X361284Y188891D01*
X357326Y188891D01*
X357326Y196581D01*
X355959Y196581D01*
X355959Y187218D01*
X368300Y187218D01*
X368300Y196940D01*
G37*
G36*
X365531Y221372D02*
X365906Y221467D01*
X366257Y221590D01*
X366582Y221742D01*
X366882Y221922D01*
X367157Y222130D01*
X367406Y222367D01*
X367630Y222632D01*
X367828Y222923D01*
X368000Y223237D01*
X368145Y223576D01*
X368264Y223938D01*
X368356Y224324D01*
X368422Y224733D01*
X368462Y225166D01*
X368475Y225623D01*
X368461Y226112D01*
X368417Y226572D01*
X368343Y227003D01*
X368241Y227405D01*
X368109Y227778D01*
X367948Y228122D01*
X367758Y228437D01*
X367538Y228723D01*
X367292Y228978D01*
X367021Y229198D01*
X366727Y229385D01*
X366408Y229538D01*
X366066Y229657D01*
X365699Y229741D01*
X365308Y229792D01*
X364893Y229809D01*
X364604Y229797D01*
X364327Y229761D01*
X364063Y229701D01*
X363811Y229617D01*
X363572Y229508D01*
X363346Y229376D01*
X363132Y229219D01*
X362931Y229039D01*
X362746Y228836D01*
X362581Y228615D01*
X362435Y228374D01*
X362309Y228115D01*
X362203Y227836D01*
X362116Y227538D01*
X362050Y227220D01*
X362003Y226884D01*
X361968Y226884D01*
X361894Y227190D01*
X361806Y227477D01*
X361703Y227746D01*
X361586Y227995D01*
X361453Y228226D01*
X361305Y228438D01*
X361142Y228632D01*
X360965Y228807D01*
X360773Y228962D01*
X360567Y229096D01*
X360347Y229209D01*
X360114Y229302D01*
X359867Y229375D01*
X359606Y229426D01*
X359331Y229457D01*
X359042Y229468D01*
X358667Y229452D01*
X358314Y229403D01*
X357982Y229323D01*
X357670Y229211D01*
X357381Y229066D01*
X357112Y228889D01*
X356864Y228680D01*
X356638Y228439D01*
X356436Y228168D01*
X356261Y227872D01*
X356112Y227550D01*
X355991Y227203D01*
X355897Y226829D01*
X355829Y226429D01*
X355789Y226004D01*
X355775Y225553D01*
X355789Y225138D01*
X355828Y224742D01*
X355895Y224365D01*
X355988Y224008D01*
X356107Y223670D01*
X356253Y223351D01*
X356426Y223052D01*
X356625Y222772D01*
X356848Y222516D01*
X357091Y222288D01*
X357356Y222088D01*
X357641Y221917D01*
X357947Y221774D01*
X358274Y221659D01*
X358621Y221573D01*
X358990Y221515D01*
X359112Y223100D01*
X358876Y223135D01*
X358654Y223187D01*
X358445Y223255D01*
X358250Y223340D01*
X358068Y223442D01*
X357900Y223561D01*
X357746Y223697D01*
X357606Y223849D01*
X357481Y224016D01*
X357372Y224196D01*
X357280Y224388D01*
X357205Y224593D01*
X357147Y224810D01*
X357105Y225039D01*
X357080Y225281D01*
X357072Y225535D01*
X357081Y225813D01*
X357107Y226074D01*
X357152Y226316D01*
X357215Y226541D01*
X357296Y226749D01*
X357394Y226938D01*
X357511Y227111D01*
X357645Y227265D01*
X357795Y227402D01*
X357958Y227520D01*
X358134Y227620D01*
X358323Y227702D01*
X358525Y227766D01*
X358740Y227811D01*
X358968Y227838D01*
X359209Y227847D01*
X359452Y227836D01*
X359681Y227803D01*
X359897Y227747D01*
X360099Y227669D01*
X360287Y227569D01*
X360463Y227446D01*
X360624Y227301D01*
X360772Y227134D01*
X360904Y226946D01*
X361019Y226740D01*
X361116Y226516D01*
X361196Y226274D01*
X361258Y226014D01*
X361302Y225735D01*
X361328Y225439D01*
X361337Y225124D01*
X361337Y224265D01*
X362703Y224265D01*
X362703Y225159D01*
X362712Y225514D01*
X362739Y225847D01*
X362783Y226159D01*
X362845Y226449D01*
X362924Y226718D01*
X363021Y226966D01*
X363136Y227192D01*
X363268Y227396D01*
X363416Y227578D01*
X363578Y227736D01*
X363754Y227869D01*
X363944Y227978D01*
X364147Y228063D01*
X364364Y228123D01*
X364596Y228159D01*
X364840Y228172D01*
X365121Y228161D01*
X365383Y228129D01*
X365627Y228076D01*
X365854Y228002D01*
X366063Y227906D01*
X366254Y227790D01*
X366428Y227652D01*
X366583Y227493D01*
X366721Y227315D01*
X366840Y227121D01*
X366941Y226912D01*
X367023Y226686D01*
X367088Y226444D01*
X367134Y226186D01*
X367161Y225913D01*
X367170Y225623D01*
X367162Y225334D01*
X367136Y225062D01*
X367093Y224805D01*
X367033Y224565D01*
X366956Y224340D01*
X366862Y224132D01*
X366751Y223940D01*
X366623Y223764D01*
X366477Y223604D01*
X366315Y223460D01*
X366135Y223332D01*
X365939Y223220D01*
X365725Y223125D01*
X365494Y223045D01*
X365246Y222981D01*
X364981Y222934D01*
X365129Y221305D01*
X365531Y221372D01*
G37*
G36*
X368300Y219753D02*
X366960Y219753D01*
X366960Y216749D01*
X355959Y216749D01*
X355959Y215295D01*
X357965Y212378D01*
X359454Y212378D01*
X357466Y215164D01*
X366960Y215164D01*
X366960Y212019D01*
X368300Y212019D01*
X368300Y219753D01*
G37*
G36*
X368300Y185158D02*
X366934Y185158D01*
X366934Y178922D01*
X355959Y178922D01*
X355959Y177249D01*
X368300Y177249D01*
X368300Y185158D01*
G37*
G36*
X368300Y343503D02*
X368288Y343943D01*
X368252Y344370D01*
X368193Y344784D01*
X368110Y345184D01*
X368002Y345572D01*
X367871Y345946D01*
X367717Y346308D01*
X367538Y346656D01*
X367337Y346988D01*
X367115Y347300D01*
X366872Y347593D01*
X366609Y347867D01*
X366324Y348121D01*
X366018Y348355D01*
X365692Y348571D01*
X365344Y348766D01*
X364979Y348941D01*
X364598Y349092D01*
X364203Y349220D01*
X363793Y349325D01*
X363368Y349406D01*
X362927Y349464D01*
X362473Y349499D01*
X362003Y349511D01*
X361645Y349504D01*
X361299Y349484D01*
X360962Y349451D01*
X360636Y349404D01*
X360320Y349345D01*
X360015Y349271D01*
X359720Y349185D01*
X359435Y349085D01*
X359161Y348972D01*
X358897Y348846D01*
X358644Y348706D01*
X358400Y348553D01*
X358168Y348386D01*
X357945Y348207D01*
X357733Y348014D01*
X357531Y347807D01*
X357341Y347589D01*
X357163Y347359D01*
X356997Y347118D01*
X356844Y346866D01*
X356702Y346603D01*
X356573Y346328D01*
X356457Y346043D01*
X356352Y345746D01*
X356260Y345438D01*
X356180Y345119D01*
X356113Y344788D01*
X356058Y344447D01*
X356015Y344094D01*
X355984Y343730D01*
X355965Y343355D01*
X355959Y342968D01*
X355959Y338887D01*
X368300Y338887D01*
X368300Y343503D01*
G37*
%LPC*%
G36*
X357299Y340560D02*
X357299Y342933D01*
X357318Y343511D01*
X357375Y344054D01*
X357469Y344562D01*
X357600Y345034D01*
X357770Y345472D01*
X357977Y345874D01*
X358221Y346241D01*
X358504Y346572D01*
X358822Y346867D01*
X359174Y347122D01*
X359560Y347338D01*
X359981Y347515D01*
X360435Y347653D01*
X360923Y347751D01*
X361446Y347810D01*
X362003Y347829D01*
X362377Y347821D01*
X362739Y347795D01*
X363089Y347752D01*
X363426Y347691D01*
X363750Y347614D01*
X364062Y347519D01*
X364361Y347407D01*
X364648Y347278D01*
X364920Y347132D01*
X365175Y346972D01*
X365415Y346797D01*
X365637Y346606D01*
X365844Y346401D01*
X366034Y346181D01*
X366207Y345946D01*
X366364Y345697D01*
X366504Y345434D01*
X366625Y345162D01*
X366727Y344879D01*
X366811Y344585D01*
X366876Y344282D01*
X366923Y343968D01*
X366951Y343644D01*
X366960Y343310D01*
X366960Y340560D01*
X357299Y340560D01*
G37*
%LPD*%
G36*
X365506Y366549D02*
X368300Y366549D01*
X368300Y368038D01*
X365506Y368038D01*
X365506Y369772D01*
X364262Y369772D01*
X364262Y368038D01*
X355959Y368038D01*
X355959Y366383D01*
X364280Y360733D01*
X365506Y360733D01*
X365506Y366549D01*
G37*
%LPC*%
G36*
X364087Y362327D02*
X363439Y362800D01*
X358779Y365962D01*
X358201Y366304D01*
X357737Y366549D01*
X364262Y366549D01*
X364262Y362187D01*
X364087Y362327D01*
G37*
%LPD*%
G36*
X368300Y336640D02*
X366934Y336640D01*
X366934Y328591D01*
X362633Y328591D01*
X362633Y335755D01*
X361284Y335755D01*
X361284Y328591D01*
X357326Y328591D01*
X357326Y336281D01*
X355959Y336281D01*
X355959Y326918D01*
X368300Y326918D01*
X368300Y336640D01*
G37*
G36*
X368300Y359453D02*
X366960Y359453D01*
X366960Y356449D01*
X355959Y356449D01*
X355959Y354995D01*
X357965Y352078D01*
X359454Y352078D01*
X357466Y354864D01*
X366960Y354864D01*
X366960Y351719D01*
X368300Y351719D01*
X368300Y359453D01*
G37*
G36*
X368300Y324858D02*
X366934Y324858D01*
X366934Y318622D01*
X355959Y318622D01*
X355959Y316949D01*
X368300Y316949D01*
X368300Y324858D01*
G37*
G36*
X368300Y483203D02*
X368288Y483643D01*
X368252Y484070D01*
X368193Y484484D01*
X368110Y484884D01*
X368002Y485272D01*
X367871Y485646D01*
X367717Y486008D01*
X367538Y486356D01*
X367337Y486688D01*
X367115Y487000D01*
X366872Y487293D01*
X366609Y487567D01*
X366324Y487821D01*
X366018Y488055D01*
X365692Y488271D01*
X365344Y488466D01*
X364979Y488641D01*
X364598Y488792D01*
X364203Y488920D01*
X363793Y489025D01*
X363368Y489106D01*
X362927Y489164D01*
X362473Y489199D01*
X362003Y489211D01*
X361645Y489204D01*
X361299Y489184D01*
X360962Y489151D01*
X360636Y489104D01*
X360320Y489045D01*
X360015Y488971D01*
X359720Y488885D01*
X359435Y488785D01*
X359161Y488672D01*
X358897Y488546D01*
X358644Y488406D01*
X358400Y488253D01*
X358168Y488086D01*
X357945Y487907D01*
X357733Y487714D01*
X357531Y487507D01*
X357341Y487289D01*
X357163Y487059D01*
X356997Y486818D01*
X356844Y486566D01*
X356702Y486303D01*
X356573Y486028D01*
X356457Y485743D01*
X356352Y485446D01*
X356260Y485138D01*
X356180Y484819D01*
X356113Y484488D01*
X356058Y484147D01*
X356015Y483794D01*
X355984Y483430D01*
X355965Y483055D01*
X355959Y482668D01*
X355959Y478587D01*
X368300Y478587D01*
X368300Y483203D01*
G37*
%LPC*%
G36*
X357299Y480260D02*
X357299Y482633D01*
X357318Y483211D01*
X357375Y483754D01*
X357469Y484262D01*
X357600Y484734D01*
X357770Y485172D01*
X357977Y485574D01*
X358221Y485941D01*
X358504Y486272D01*
X358822Y486567D01*
X359174Y486822D01*
X359560Y487038D01*
X359981Y487215D01*
X360435Y487353D01*
X360923Y487451D01*
X361446Y487510D01*
X362003Y487529D01*
X362377Y487521D01*
X362739Y487495D01*
X363089Y487452D01*
X363426Y487391D01*
X363750Y487314D01*
X364062Y487219D01*
X364361Y487107D01*
X364648Y486978D01*
X364920Y486832D01*
X365175Y486672D01*
X365415Y486497D01*
X365637Y486306D01*
X365844Y486101D01*
X366034Y485881D01*
X366207Y485646D01*
X366364Y485397D01*
X366504Y485134D01*
X366625Y484862D01*
X366727Y484579D01*
X366811Y484285D01*
X366876Y483982D01*
X366923Y483668D01*
X366951Y483344D01*
X366960Y483010D01*
X366960Y480260D01*
X357299Y480260D01*
G37*
%LPD*%
G36*
X368300Y476340D02*
X366934Y476340D01*
X366934Y468291D01*
X362633Y468291D01*
X362633Y475455D01*
X361284Y475455D01*
X361284Y468291D01*
X357326Y468291D01*
X357326Y475981D01*
X355959Y475981D01*
X355959Y466618D01*
X368300Y466618D01*
X368300Y476340D01*
G37*
G36*
X365887Y500822D02*
X366213Y500929D01*
X366517Y501060D01*
X366800Y501215D01*
X367062Y501395D01*
X367303Y501599D01*
X367523Y501827D01*
X367722Y502080D01*
X367899Y502355D01*
X368052Y502651D01*
X368181Y502968D01*
X368287Y503306D01*
X368369Y503665D01*
X368428Y504044D01*
X368463Y504444D01*
X368475Y504865D01*
X368458Y505366D01*
X368405Y505838D01*
X368318Y506283D01*
X368195Y506699D01*
X368037Y507087D01*
X367845Y507448D01*
X367617Y507780D01*
X367354Y508084D01*
X367061Y508356D01*
X366742Y508592D01*
X366396Y508791D01*
X366025Y508954D01*
X365628Y509081D01*
X365204Y509172D01*
X364755Y509226D01*
X364280Y509244D01*
X363861Y509228D01*
X363462Y509177D01*
X363083Y509092D01*
X362725Y508974D01*
X362387Y508822D01*
X362069Y508636D01*
X361772Y508416D01*
X361495Y508163D01*
X361244Y507881D01*
X361027Y507576D01*
X360843Y507247D01*
X360693Y506896D01*
X360576Y506522D01*
X360493Y506124D01*
X360443Y505703D01*
X360426Y505259D01*
X360438Y504886D01*
X360475Y504528D01*
X360537Y504186D01*
X360623Y503860D01*
X360734Y503549D01*
X360870Y503254D01*
X361030Y502975D01*
X361214Y502711D01*
X357299Y502947D01*
X357299Y508526D01*
X355959Y508526D01*
X355959Y501511D01*
X362598Y501099D01*
X362598Y502640D01*
X362375Y502916D01*
X362187Y503192D01*
X362033Y503468D01*
X361915Y503744D01*
X361827Y504025D01*
X361764Y504318D01*
X361726Y504621D01*
X361714Y504935D01*
X361725Y505234D01*
X361758Y505517D01*
X361815Y505784D01*
X361893Y506035D01*
X361994Y506271D01*
X362118Y506491D01*
X362263Y506695D01*
X362432Y506884D01*
X362618Y507053D01*
X362819Y507200D01*
X363033Y507324D01*
X363262Y507426D01*
X363504Y507505D01*
X363760Y507561D01*
X364031Y507595D01*
X364315Y507607D01*
X364641Y507595D01*
X364949Y507562D01*
X365239Y507506D01*
X365512Y507427D01*
X365766Y507326D01*
X366002Y507203D01*
X366221Y507057D01*
X366421Y506888D01*
X366601Y506700D01*
X366757Y506495D01*
X366888Y506272D01*
X366996Y506032D01*
X367080Y505775D01*
X367140Y505501D01*
X367176Y505209D01*
X367188Y504900D01*
X367181Y504648D01*
X367159Y504408D01*
X367123Y504180D01*
X367073Y503965D01*
X367009Y503761D01*
X366930Y503570D01*
X366837Y503392D01*
X366730Y503225D01*
X366609Y503071D01*
X366473Y502929D01*
X366322Y502799D01*
X366158Y502682D01*
X365979Y502576D01*
X365786Y502483D01*
X365579Y502402D01*
X365357Y502334D01*
X365541Y500740D01*
X365887Y500822D01*
G37*
G36*
X368300Y499153D02*
X366960Y499153D01*
X366960Y496149D01*
X355959Y496149D01*
X355959Y494695D01*
X357965Y491778D01*
X359454Y491778D01*
X357466Y494564D01*
X366960Y494564D01*
X366960Y491419D01*
X368300Y491419D01*
X368300Y499153D01*
G37*
G36*
X368300Y464558D02*
X366934Y464558D01*
X366934Y458322D01*
X355959Y458322D01*
X355959Y456649D01*
X368300Y456649D01*
X368300Y464558D01*
G37*
G36*
X190500Y208790D02*
X190488Y209230D01*
X190452Y209657D01*
X190393Y210071D01*
X190310Y210472D01*
X190202Y210860D01*
X190071Y211234D01*
X189917Y211595D01*
X189738Y211943D01*
X189537Y212275D01*
X189315Y212588D01*
X189072Y212881D01*
X188809Y213154D01*
X188524Y213408D01*
X188218Y213643D01*
X187892Y213858D01*
X187544Y214054D01*
X187179Y214229D01*
X186798Y214380D01*
X186403Y214508D01*
X185993Y214613D01*
X185568Y214694D01*
X185127Y214752D01*
X184673Y214787D01*
X184203Y214799D01*
X183845Y214792D01*
X183499Y214772D01*
X183162Y214739D01*
X182836Y214692D01*
X182520Y214632D01*
X182215Y214559D01*
X181920Y214473D01*
X181635Y214373D01*
X181361Y214260D01*
X181097Y214133D01*
X180844Y213994D01*
X180600Y213840D01*
X180368Y213674D01*
X180145Y213494D01*
X179933Y213301D01*
X179731Y213095D01*
X179541Y212877D01*
X179363Y212647D01*
X179197Y212406D01*
X179044Y212154D01*
X178902Y211891D01*
X178773Y211616D01*
X178657Y211331D01*
X178552Y211034D01*
X178460Y210726D01*
X178380Y210406D01*
X178313Y210076D01*
X178258Y209734D01*
X178215Y209382D01*
X178184Y209018D01*
X178165Y208642D01*
X178159Y208256D01*
X178159Y204175D01*
X190500Y204175D01*
X190500Y208790D01*
G37*
%LPC*%
G36*
X179499Y205848D02*
X179499Y208221D01*
X179518Y208799D01*
X179575Y209342D01*
X179669Y209850D01*
X179800Y210322D01*
X179970Y210759D01*
X180177Y211161D01*
X180421Y211528D01*
X180704Y211860D01*
X181022Y212155D01*
X181374Y212410D01*
X181760Y212626D01*
X182181Y212803D01*
X182635Y212940D01*
X183123Y213039D01*
X183646Y213097D01*
X184203Y213117D01*
X184577Y213108D01*
X184939Y213083D01*
X185289Y213040D01*
X185626Y212979D01*
X185950Y212902D01*
X186262Y212807D01*
X186561Y212695D01*
X186848Y212565D01*
X187120Y212420D01*
X187375Y212260D01*
X187615Y212084D01*
X187837Y211894D01*
X188044Y211689D01*
X188234Y211469D01*
X188407Y211234D01*
X188564Y210984D01*
X188704Y210722D01*
X188825Y210449D01*
X188927Y210166D01*
X189011Y209873D01*
X189076Y209570D01*
X189123Y209256D01*
X189151Y208932D01*
X189160Y208598D01*
X189160Y205848D01*
X179499Y205848D01*
G37*
%LPD*%
G36*
X190500Y201928D02*
X189134Y201928D01*
X189134Y193879D01*
X184833Y193879D01*
X184833Y201043D01*
X183484Y201043D01*
X183484Y193879D01*
X179526Y193879D01*
X179526Y201569D01*
X178159Y201569D01*
X178159Y192206D01*
X190500Y192206D01*
X190500Y201928D01*
G37*
G36*
X190500Y190146D02*
X189134Y190146D01*
X189134Y183910D01*
X178159Y183910D01*
X178159Y182237D01*
X190500Y182237D01*
X190500Y190146D01*
G37*
G36*
X179499Y223191D02*
X180339Y222625D01*
X181153Y222101D01*
X181943Y221619D01*
X182708Y221179D01*
X183449Y220782D01*
X184164Y220426D01*
X184855Y220112D01*
X185521Y219840D01*
X186171Y219605D01*
X186812Y219402D01*
X187447Y219229D01*
X188073Y219088D01*
X188691Y218979D01*
X189302Y218900D01*
X189905Y218853D01*
X190500Y218838D01*
X190500Y220484D01*
X190075Y220490D01*
X189653Y220509D01*
X188821Y220582D01*
X188002Y220703D01*
X187198Y220874D01*
X186398Y221093D01*
X185593Y221361D01*
X184782Y221678D01*
X183966Y222043D01*
X183069Y222502D01*
X182015Y223101D01*
X180805Y223838D01*
X179438Y224715D01*
X178159Y224715D01*
X178159Y216560D01*
X179499Y216560D01*
X179499Y223191D01*
G37*
G36*
X190500Y348490D02*
X190488Y348930D01*
X190452Y349357D01*
X190393Y349771D01*
X190310Y350172D01*
X190202Y350560D01*
X190071Y350934D01*
X189917Y351295D01*
X189738Y351643D01*
X189537Y351975D01*
X189315Y352288D01*
X189072Y352581D01*
X188809Y352854D01*
X188524Y353108D01*
X188218Y353343D01*
X187892Y353558D01*
X187544Y353754D01*
X187179Y353929D01*
X186798Y354080D01*
X186403Y354208D01*
X185993Y354313D01*
X185568Y354394D01*
X185127Y354452D01*
X184673Y354487D01*
X184203Y354499D01*
X183845Y354492D01*
X183499Y354472D01*
X183162Y354439D01*
X182836Y354392D01*
X182520Y354332D01*
X182215Y354259D01*
X181920Y354173D01*
X181635Y354073D01*
X181361Y353960D01*
X181097Y353833D01*
X180844Y353694D01*
X180600Y353540D01*
X180368Y353374D01*
X180145Y353194D01*
X179933Y353001D01*
X179731Y352795D01*
X179541Y352577D01*
X179363Y352347D01*
X179197Y352106D01*
X179044Y351854D01*
X178902Y351591D01*
X178773Y351316D01*
X178657Y351031D01*
X178552Y350734D01*
X178460Y350426D01*
X178380Y350106D01*
X178313Y349776D01*
X178258Y349434D01*
X178215Y349082D01*
X178184Y348718D01*
X178165Y348342D01*
X178159Y347956D01*
X178159Y343875D01*
X190500Y343875D01*
X190500Y348490D01*
G37*
%LPC*%
G36*
X179499Y345548D02*
X179499Y347921D01*
X179518Y348499D01*
X179575Y349042D01*
X179669Y349550D01*
X179800Y350022D01*
X179970Y350459D01*
X180177Y350861D01*
X180421Y351228D01*
X180704Y351560D01*
X181022Y351855D01*
X181374Y352110D01*
X181760Y352326D01*
X182181Y352503D01*
X182635Y352640D01*
X183123Y352739D01*
X183646Y352797D01*
X184203Y352817D01*
X184577Y352808D01*
X184939Y352783D01*
X185289Y352740D01*
X185626Y352679D01*
X185950Y352602D01*
X186262Y352507D01*
X186561Y352395D01*
X186848Y352265D01*
X187120Y352120D01*
X187375Y351960D01*
X187615Y351784D01*
X187837Y351594D01*
X188044Y351389D01*
X188234Y351169D01*
X188407Y350934D01*
X188564Y350684D01*
X188704Y350422D01*
X188825Y350149D01*
X188927Y349866D01*
X189011Y349573D01*
X189076Y349270D01*
X189123Y348956D01*
X189151Y348632D01*
X189160Y348298D01*
X189160Y345548D01*
X179499Y345548D01*
G37*
%LPD*%
G36*
X187494Y356138D02*
X187889Y356190D01*
X188259Y356277D01*
X188604Y356399D01*
X188924Y356556D01*
X189220Y356748D01*
X189491Y356975D01*
X189738Y357237D01*
X189958Y357530D01*
X190148Y357849D01*
X190309Y358196D01*
X190441Y358569D01*
X190543Y358970D01*
X190617Y359397D01*
X190661Y359852D01*
X190675Y360333D01*
X190660Y360826D01*
X190616Y361290D01*
X190541Y361724D01*
X190437Y362129D01*
X190302Y362504D01*
X190138Y362849D01*
X189944Y363165D01*
X189721Y363451D01*
X189470Y363706D01*
X189196Y363926D01*
X188899Y364113D01*
X188578Y364266D01*
X188233Y364384D01*
X187865Y364469D01*
X187473Y364520D01*
X187058Y364537D01*
X186760Y364527D01*
X186475Y364496D01*
X186202Y364445D01*
X185942Y364373D01*
X185695Y364281D01*
X185461Y364168D01*
X185239Y364034D01*
X185030Y363880D01*
X184993Y363847D01*
X184837Y363708D01*
X184664Y363519D01*
X184510Y363314D01*
X184375Y363092D01*
X184259Y362854D01*
X184162Y362599D01*
X184085Y362328D01*
X184027Y362041D01*
X183992Y362041D01*
X183933Y362288D01*
X183855Y362522D01*
X183759Y362743D01*
X183644Y362950D01*
X183511Y363143D01*
X183375Y363306D01*
X183360Y363324D01*
X183191Y363490D01*
X183003Y363644D01*
X182801Y363781D01*
X182592Y363901D01*
X182373Y364001D01*
X182147Y364084D01*
X181911Y364148D01*
X181668Y364194D01*
X181415Y364221D01*
X181155Y364231D01*
X180798Y364214D01*
X180461Y364165D01*
X180143Y364082D01*
X179843Y363967D01*
X179562Y363818D01*
X179301Y363637D01*
X179058Y363423D01*
X178834Y363175D01*
X178632Y362899D01*
X178458Y362600D01*
X178311Y362276D01*
X178190Y361928D01*
X178096Y361557D01*
X178029Y361161D01*
X177989Y360741D01*
X177975Y360298D01*
X177989Y359865D01*
X178030Y359454D01*
X178098Y359066D01*
X178194Y358701D01*
X178317Y358358D01*
X178468Y358037D01*
X178646Y357740D01*
X178851Y357465D01*
X179078Y357217D01*
X179322Y357003D01*
X179583Y356821D01*
X179861Y356673D01*
X180155Y356558D01*
X180465Y356475D01*
X180793Y356426D01*
X181137Y356409D01*
X181398Y356418D01*
X181650Y356446D01*
X181894Y356491D01*
X182129Y356555D01*
X182356Y356637D01*
X182574Y356737D01*
X182784Y356855D01*
X182985Y356992D01*
X183174Y357144D01*
X183345Y357309D01*
X183499Y357488D01*
X183636Y357680D01*
X183755Y357886D01*
X183857Y358104D01*
X183942Y358336D01*
X184010Y358581D01*
X184045Y358581D01*
X184099Y358318D01*
X184173Y358067D01*
X184268Y357828D01*
X184382Y357600D01*
X184517Y357385D01*
X184672Y357182D01*
X184848Y356991D01*
X185043Y356812D01*
X185255Y356650D01*
X185479Y356509D01*
X185715Y356390D01*
X185963Y356293D01*
X186223Y356217D01*
X186495Y356163D01*
X186779Y356131D01*
X187075Y356120D01*
X187494Y356138D01*
G37*
%LPC*%
G36*
X186678Y357760D02*
X186426Y357791D01*
X186189Y357844D01*
X185966Y357918D01*
X185759Y358013D01*
X185565Y358129D01*
X185387Y358266D01*
X185223Y358424D01*
X185076Y358601D01*
X184949Y358794D01*
X184841Y359003D01*
X184753Y359229D01*
X184685Y359472D01*
X184636Y359731D01*
X184607Y360006D01*
X184597Y360298D01*
X184606Y360598D01*
X184633Y360881D01*
X184679Y361147D01*
X184742Y361395D01*
X184824Y361626D01*
X184924Y361840D01*
X185043Y362037D01*
X185179Y362216D01*
X185334Y362376D01*
X185506Y362515D01*
X185695Y362632D01*
X185903Y362729D01*
X186128Y362803D01*
X186371Y362857D01*
X186631Y362889D01*
X186909Y362899D01*
X187235Y362889D01*
X187538Y362860D01*
X187818Y362811D01*
X188075Y362742D01*
X188309Y362653D01*
X188521Y362545D01*
X188710Y362416D01*
X188875Y362269D01*
X189020Y362101D01*
X189145Y361912D01*
X189252Y361703D01*
X189338Y361474D01*
X189406Y361224D01*
X189454Y360953D01*
X189483Y360662D01*
X189493Y360351D01*
X189483Y360036D01*
X189453Y359741D01*
X189403Y359467D01*
X189334Y359213D01*
X189244Y358979D01*
X189134Y358765D01*
X189005Y358572D01*
X188856Y358400D01*
X188686Y358247D01*
X188497Y358115D01*
X188288Y358003D01*
X188059Y357912D01*
X187810Y357841D01*
X187541Y357790D01*
X187253Y357759D01*
X186944Y357749D01*
X186678Y357760D01*
G37*
G36*
X180990Y358030D02*
X180753Y358057D01*
X180533Y358103D01*
X180329Y358166D01*
X180141Y358248D01*
X179970Y358348D01*
X179814Y358467D01*
X179674Y358603D01*
X179551Y358757D01*
X179445Y358928D01*
X179354Y359115D01*
X179280Y359318D01*
X179223Y359538D01*
X179182Y359775D01*
X179157Y360028D01*
X179149Y360298D01*
X179157Y360576D01*
X179182Y360836D01*
X179223Y361078D01*
X179280Y361302D01*
X179353Y361508D01*
X179443Y361696D01*
X179550Y361867D01*
X179672Y362019D01*
X179811Y362154D01*
X179967Y362270D01*
X180138Y362369D01*
X180326Y362449D01*
X180531Y362512D01*
X180752Y362557D01*
X180989Y362584D01*
X181242Y362593D01*
X181519Y362584D01*
X181776Y362556D01*
X182013Y362511D01*
X182231Y362447D01*
X182428Y362365D01*
X182606Y362265D01*
X182764Y362147D01*
X182902Y362010D01*
X183022Y361856D01*
X183126Y361686D01*
X183214Y361499D01*
X183286Y361295D01*
X183342Y361075D01*
X183382Y360839D01*
X183406Y360585D01*
X183414Y360316D01*
X183406Y360050D01*
X183380Y359799D01*
X183336Y359564D01*
X183275Y359344D01*
X183197Y359140D01*
X183102Y358952D01*
X182989Y358778D01*
X182858Y358621D01*
X182711Y358480D01*
X182549Y358358D01*
X182370Y358255D01*
X182176Y358171D01*
X181966Y358105D01*
X181741Y358058D01*
X181499Y358030D01*
X181242Y358021D01*
X180990Y358030D01*
G37*
%LPD*%
G36*
X190500Y341628D02*
X189134Y341628D01*
X189134Y333579D01*
X184833Y333579D01*
X184833Y340743D01*
X183484Y340743D01*
X183484Y333579D01*
X179526Y333579D01*
X179526Y341269D01*
X178159Y341269D01*
X178159Y331906D01*
X190500Y331906D01*
X190500Y341628D01*
G37*
G36*
X190500Y329846D02*
X189134Y329846D01*
X189134Y323610D01*
X178159Y323610D01*
X178159Y321937D01*
X190500Y321937D01*
X190500Y329846D01*
G37*
G36*
X190500Y488190D02*
X190488Y488630D01*
X190452Y489057D01*
X190393Y489471D01*
X190310Y489872D01*
X190202Y490260D01*
X190071Y490634D01*
X189917Y490995D01*
X189738Y491343D01*
X189537Y491675D01*
X189315Y491988D01*
X189072Y492281D01*
X188809Y492554D01*
X188524Y492808D01*
X188218Y493043D01*
X187892Y493258D01*
X187544Y493454D01*
X187179Y493629D01*
X186798Y493780D01*
X186403Y493908D01*
X185993Y494013D01*
X185568Y494094D01*
X185127Y494152D01*
X184673Y494187D01*
X184203Y494199D01*
X183845Y494192D01*
X183499Y494172D01*
X183162Y494139D01*
X182836Y494092D01*
X182520Y494032D01*
X182215Y493959D01*
X181920Y493873D01*
X181635Y493773D01*
X181361Y493660D01*
X181097Y493533D01*
X180844Y493394D01*
X180600Y493240D01*
X180368Y493074D01*
X180145Y492894D01*
X179933Y492701D01*
X179731Y492495D01*
X179541Y492277D01*
X179363Y492047D01*
X179197Y491806D01*
X179044Y491554D01*
X178902Y491291D01*
X178773Y491016D01*
X178657Y490731D01*
X178552Y490434D01*
X178460Y490126D01*
X178380Y489806D01*
X178313Y489476D01*
X178258Y489134D01*
X178215Y488782D01*
X178184Y488418D01*
X178165Y488042D01*
X178159Y487656D01*
X178159Y483575D01*
X190500Y483575D01*
X190500Y488190D01*
G37*
%LPC*%
G36*
X179499Y485248D02*
X179499Y487621D01*
X179518Y488199D01*
X179575Y488742D01*
X179669Y489250D01*
X179800Y489722D01*
X179970Y490159D01*
X180177Y490561D01*
X180421Y490928D01*
X180704Y491260D01*
X181022Y491555D01*
X181374Y491810D01*
X181760Y492026D01*
X182181Y492203D01*
X182635Y492340D01*
X183123Y492439D01*
X183646Y492497D01*
X184203Y492517D01*
X184577Y492508D01*
X184939Y492483D01*
X185289Y492440D01*
X185626Y492379D01*
X185950Y492302D01*
X186262Y492207D01*
X186561Y492095D01*
X186848Y491965D01*
X187120Y491820D01*
X187375Y491660D01*
X187615Y491484D01*
X187837Y491294D01*
X188044Y491089D01*
X188234Y490869D01*
X188407Y490634D01*
X188564Y490384D01*
X188704Y490122D01*
X188825Y489849D01*
X188927Y489566D01*
X189011Y489273D01*
X189076Y488970D01*
X189123Y488656D01*
X189151Y488332D01*
X189160Y487998D01*
X189160Y485248D01*
X179499Y485248D01*
G37*
%LPD*%
G36*
X182586Y495897D02*
X183022Y495944D01*
X183434Y496022D01*
X183824Y496131D01*
X184190Y496272D01*
X184533Y496443D01*
X184852Y496646D01*
X185149Y496880D01*
X185415Y497140D01*
X185647Y497421D01*
X185842Y497722D01*
X186003Y498045D01*
X186127Y498388D01*
X186216Y498752D01*
X186269Y499137D01*
X186287Y499543D01*
X186280Y499794D01*
X186257Y500040D01*
X186220Y500281D01*
X186168Y500517D01*
X186101Y500748D01*
X186019Y500973D01*
X185922Y501193D01*
X185810Y501408D01*
X185686Y501613D01*
X185552Y501802D01*
X185408Y501975D01*
X185255Y502133D01*
X185092Y502275D01*
X184919Y502402D01*
X184736Y502513D01*
X184544Y502608D01*
X185112Y502588D01*
X185646Y502546D01*
X186147Y502482D01*
X186613Y502396D01*
X187047Y502287D01*
X187446Y502156D01*
X187812Y502004D01*
X188144Y501829D01*
X188440Y501633D01*
X188696Y501418D01*
X188913Y501184D01*
X189090Y500931D01*
X189228Y500658D01*
X189326Y500367D01*
X189386Y500056D01*
X189405Y499727D01*
X189399Y499530D01*
X189381Y499341D01*
X189309Y498992D01*
X189188Y498678D01*
X189020Y498400D01*
X188803Y498157D01*
X188538Y497950D01*
X188225Y497778D01*
X187864Y497642D01*
X188100Y496136D01*
X188428Y496237D01*
X188732Y496355D01*
X189013Y496488D01*
X189271Y496636D01*
X189505Y496800D01*
X189715Y496979D01*
X189903Y497173D01*
X190066Y497384D01*
X190209Y497610D01*
X190333Y497855D01*
X190437Y498118D01*
X190523Y498398D01*
X190590Y498697D01*
X190637Y499014D01*
X190666Y499348D01*
X190675Y499700D01*
X190668Y499965D01*
X190648Y500221D01*
X190615Y500470D01*
X190568Y500712D01*
X190508Y500945D01*
X190435Y501171D01*
X190248Y501600D01*
X190008Y501998D01*
X189714Y502365D01*
X189368Y502701D01*
X188967Y503007D01*
X188517Y503279D01*
X188021Y503514D01*
X187479Y503714D01*
X186892Y503877D01*
X186258Y504004D01*
X185578Y504095D01*
X184852Y504149D01*
X184080Y504167D01*
X183340Y504151D01*
X182647Y504101D01*
X182003Y504018D01*
X181406Y503902D01*
X180858Y503753D01*
X180357Y503571D01*
X179904Y503356D01*
X179499Y503107D01*
X179142Y502827D01*
X178833Y502515D01*
X178571Y502172D01*
X178356Y501798D01*
X178190Y501393D01*
X178071Y500956D01*
X177999Y500488D01*
X177981Y500243D01*
X177975Y499989D01*
X177993Y499519D01*
X178045Y499075D01*
X178131Y498657D01*
X178252Y498266D01*
X178408Y497902D01*
X178599Y497564D01*
X178824Y497252D01*
X179083Y496968D01*
X179373Y496713D01*
X179689Y496492D01*
X180031Y496306D01*
X180398Y496153D01*
X180792Y496034D01*
X181211Y495949D01*
X181656Y495898D01*
X182127Y495882D01*
X182586Y495897D01*
G37*
%LPC*%
G36*
X181805Y497495D02*
X181500Y497525D01*
X181212Y497577D01*
X180941Y497649D01*
X180688Y497741D01*
X180451Y497854D01*
X180232Y497987D01*
X180029Y498141D01*
X179848Y498313D01*
X179690Y498500D01*
X179557Y498702D01*
X179448Y498919D01*
X179363Y499150D01*
X179303Y499398D01*
X179266Y499660D01*
X179254Y499937D01*
X179268Y500216D01*
X179311Y500481D01*
X179382Y500732D01*
X179481Y500968D01*
X179608Y501190D01*
X179764Y501397D01*
X179948Y501589D01*
X180161Y501767D01*
X180396Y501927D01*
X180650Y502066D01*
X180922Y502184D01*
X181213Y502280D01*
X181521Y502354D01*
X181848Y502408D01*
X182193Y502440D01*
X182556Y502450D01*
X182910Y502429D01*
X183244Y502366D01*
X183558Y502261D01*
X183852Y502113D01*
X184121Y501929D01*
X184357Y501714D01*
X184561Y501467D01*
X184733Y501189D01*
X184869Y500890D01*
X184966Y500578D01*
X185024Y500255D01*
X185043Y499919D01*
X185031Y499646D01*
X184994Y499388D01*
X184933Y499144D01*
X184847Y498914D01*
X184737Y498699D01*
X184603Y498499D01*
X184443Y498313D01*
X184260Y498141D01*
X184055Y497987D01*
X183832Y497854D01*
X183592Y497741D01*
X183334Y497649D01*
X183059Y497577D01*
X182766Y497525D01*
X182455Y497495D01*
X182127Y497484D01*
X181805Y497495D01*
G37*
%LPD*%
G36*
X190500Y481328D02*
X189134Y481328D01*
X189134Y473279D01*
X184833Y473279D01*
X184833Y480443D01*
X183484Y480443D01*
X183484Y473279D01*
X179526Y473279D01*
X179526Y480969D01*
X178159Y480969D01*
X178159Y471606D01*
X190500Y471606D01*
X190500Y481328D01*
G37*
G36*
X190500Y469546D02*
X189134Y469546D01*
X189134Y463310D01*
X178159Y463310D01*
X178159Y461637D01*
X190500Y461637D01*
X190500Y469546D01*
G37*
G36*
X281248Y61307D02*
X292249Y61307D01*
X292249Y62761D01*
X290243Y65678D01*
X288754Y65678D01*
X290742Y62893D01*
X281248Y62893D01*
X281248Y66037D01*
X279908Y66037D01*
X279908Y58303D01*
X281248Y58303D01*
X281248Y61307D01*
G37*
G36*
X292249Y72772D02*
X290882Y72772D01*
X290882Y70399D01*
X283552Y70399D01*
X283258Y70407D01*
X282984Y70432D01*
X282727Y70473D01*
X282488Y70530D01*
X282268Y70604D01*
X282066Y70694D01*
X281882Y70801D01*
X281717Y70924D01*
X281570Y71062D01*
X281443Y71211D01*
X281335Y71373D01*
X281247Y71546D01*
X281178Y71732D01*
X281130Y71929D01*
X281100Y72139D01*
X281090Y72361D01*
X281099Y72564D01*
X281126Y72759D01*
X281170Y72945D01*
X281233Y73123D01*
X281313Y73291D01*
X281411Y73451D01*
X281526Y73602D01*
X281660Y73744D01*
X281809Y73876D01*
X281972Y73996D01*
X282150Y74103D01*
X282341Y74198D01*
X282546Y74280D01*
X282765Y74350D01*
X282998Y74408D01*
X283245Y74454D01*
X282973Y76092D01*
X282581Y76008D01*
X282214Y75905D01*
X281872Y75782D01*
X281556Y75639D01*
X281265Y75476D01*
X280999Y75293D01*
X280758Y75090D01*
X280543Y74868D01*
X280353Y74625D01*
X280189Y74363D01*
X280049Y74080D01*
X279935Y73778D01*
X279847Y73456D01*
X279783Y73113D01*
X279746Y72751D01*
X279733Y72369D01*
X279749Y71958D01*
X279797Y71569D01*
X279878Y71203D01*
X279990Y70859D01*
X280135Y70537D01*
X280312Y70238D01*
X280521Y69961D01*
X280762Y69707D01*
X281031Y69479D01*
X281324Y69281D01*
X281642Y69114D01*
X281983Y68978D01*
X282348Y68871D01*
X282737Y68795D01*
X283150Y68750D01*
X283587Y68735D01*
X292249Y68735D01*
X292249Y72772D01*
G37*
G36*
X151892Y628233D02*
X150552Y628233D01*
X150552Y621795D01*
X150242Y621947D01*
X149927Y622141D01*
X149605Y622376D01*
X149278Y622653D01*
X148937Y622977D01*
X148576Y623352D01*
X148195Y623778D01*
X147793Y624256D01*
X147097Y625098D01*
X146499Y625791D01*
X145998Y626337D01*
X145595Y626735D01*
X145240Y627039D01*
X144885Y627303D01*
X144530Y627527D01*
X144176Y627711D01*
X143820Y627855D01*
X143464Y627958D01*
X143107Y628019D01*
X142748Y628040D01*
X142355Y628024D01*
X141984Y627977D01*
X141637Y627899D01*
X141313Y627789D01*
X141012Y627648D01*
X140734Y627476D01*
X140479Y627272D01*
X140248Y627037D01*
X140041Y626773D01*
X139862Y626482D01*
X139711Y626164D01*
X139587Y625819D01*
X139491Y625446D01*
X139422Y625048D01*
X139381Y624622D01*
X139367Y624169D01*
X139381Y623753D01*
X139422Y623358D01*
X139490Y622981D01*
X139586Y622624D01*
X139709Y622286D01*
X139860Y621967D01*
X140038Y621668D01*
X140243Y621388D01*
X140472Y621132D01*
X140719Y620904D01*
X140985Y620704D01*
X141270Y620533D01*
X141574Y620390D01*
X141897Y620275D01*
X142239Y620189D01*
X142599Y620131D01*
X142748Y621743D01*
X142508Y621779D01*
X142281Y621833D01*
X142068Y621904D01*
X141869Y621991D01*
X141684Y622095D01*
X141512Y622216D01*
X141355Y622354D01*
X141211Y622509D01*
X141083Y622678D01*
X140971Y622857D01*
X140877Y623048D01*
X140800Y623250D01*
X140741Y623463D01*
X140698Y623687D01*
X140672Y623922D01*
X140664Y624169D01*
X140672Y624426D01*
X140699Y624670D01*
X140742Y624898D01*
X140804Y625112D01*
X140883Y625312D01*
X140979Y625497D01*
X141093Y625668D01*
X141224Y625824D01*
X141371Y625964D01*
X141533Y626085D01*
X141709Y626187D01*
X141899Y626271D01*
X142103Y626336D01*
X142321Y626382D01*
X142554Y626410D01*
X142801Y626420D01*
X143167Y626398D01*
X143514Y626333D01*
X143842Y626225D01*
X144149Y626074D01*
X144444Y625887D01*
X144732Y625674D01*
X145013Y625434D01*
X145288Y625167D01*
X145831Y624573D01*
X146374Y623910D01*
X146940Y623211D01*
X147552Y622505D01*
X147879Y622154D01*
X148224Y621811D01*
X148588Y621477D01*
X148971Y621151D01*
X149378Y620842D01*
X149815Y620557D01*
X150282Y620297D01*
X150780Y620061D01*
X151892Y620061D01*
X151892Y628233D01*
G37*
G36*
X149219Y610554D02*
X149586Y610657D01*
X149928Y610780D01*
X150244Y610923D01*
X150535Y611086D01*
X150801Y611269D01*
X151042Y611472D01*
X151257Y611694D01*
X151447Y611937D01*
X151611Y612199D01*
X151751Y612482D01*
X151865Y612784D01*
X151953Y613106D01*
X152017Y613449D01*
X152055Y613811D01*
X152067Y614193D01*
X152051Y614604D01*
X152003Y614993D01*
X151922Y615359D01*
X151810Y615704D01*
X151665Y616025D01*
X151488Y616324D01*
X151279Y616601D01*
X151038Y616855D01*
X150769Y617083D01*
X150476Y617281D01*
X150158Y617448D01*
X149817Y617584D01*
X149452Y617691D01*
X149063Y617767D01*
X148650Y617812D01*
X148213Y617827D01*
X139551Y617827D01*
X139551Y613790D01*
X140918Y613790D01*
X140918Y616163D01*
X148248Y616163D01*
X148542Y616155D01*
X148816Y616130D01*
X149073Y616089D01*
X149312Y616032D01*
X149532Y615958D01*
X149734Y615868D01*
X149918Y615761D01*
X150083Y615638D01*
X150230Y615500D01*
X150357Y615351D01*
X150465Y615189D01*
X150553Y615016D01*
X150622Y614830D01*
X150670Y614633D01*
X150700Y614423D01*
X150710Y614201D01*
X150701Y613998D01*
X150674Y613803D01*
X150630Y613617D01*
X150567Y613439D01*
X150487Y613271D01*
X150389Y613111D01*
X150274Y612960D01*
X150140Y612818D01*
X149991Y612686D01*
X149828Y612566D01*
X149651Y612459D01*
X149459Y612364D01*
X149254Y612282D01*
X149035Y612212D01*
X148802Y612154D01*
X148555Y612108D01*
X148827Y610470D01*
X149219Y610554D01*
G37*
D10*
X18100Y183200D02*
X18100Y223200D01*
X58100Y223200D01*
X58100Y183200D01*
X18100Y183200D01*
X36100Y180200D02*
X36102Y180289D01*
X36108Y180378D01*
X36118Y180467D01*
X36132Y180555D01*
X36149Y180642D01*
X36171Y180728D01*
X36197Y180814D01*
X36226Y180898D01*
X36259Y180981D01*
X36295Y181062D01*
X36336Y181142D01*
X36379Y181219D01*
X36426Y181295D01*
X36477Y181368D01*
X36530Y181439D01*
X36587Y181508D01*
X36647Y181574D01*
X36710Y181638D01*
X36775Y181698D01*
X36843Y181756D01*
X36914Y181810D01*
X36987Y181861D01*
X37062Y181909D01*
X37139Y181954D01*
X37218Y181995D01*
X37299Y182032D01*
X37381Y182066D01*
X37465Y182097D01*
X37550Y182123D01*
X37636Y182146D01*
X37723Y182164D01*
X37811Y182179D01*
X37900Y182190D01*
X37989Y182197D01*
X38078Y182200D01*
X38167Y182199D01*
X38256Y182194D01*
X38344Y182185D01*
X38433Y182172D01*
X38520Y182155D01*
X38607Y182135D01*
X38693Y182110D01*
X38777Y182082D01*
X38860Y182050D01*
X38942Y182014D01*
X39022Y181975D01*
X39100Y181932D01*
X39176Y181886D01*
X39250Y181836D01*
X39322Y181783D01*
X39391Y181727D01*
X39458Y181668D01*
X39522Y181606D01*
X39583Y181542D01*
X39642Y181474D01*
X39697Y181404D01*
X39749Y181332D01*
X39798Y181257D01*
X39843Y181181D01*
X39885Y181102D01*
X39923Y181022D01*
X39958Y180940D01*
X39989Y180856D01*
X40017Y180771D01*
X40040Y180685D01*
X40060Y180598D01*
X40076Y180511D01*
X40088Y180422D01*
X40096Y180334D01*
X40100Y180245D01*
X40100Y180155D01*
X40096Y180066D01*
X40088Y179978D01*
X40076Y179889D01*
X40060Y179802D01*
X40040Y179715D01*
X40017Y179629D01*
X39989Y179544D01*
X39958Y179460D01*
X39923Y179378D01*
X39885Y179298D01*
X39843Y179219D01*
X39798Y179143D01*
X39749Y179068D01*
X39697Y178996D01*
X39642Y178926D01*
X39583Y178858D01*
X39522Y178794D01*
X39458Y178732D01*
X39391Y178673D01*
X39322Y178617D01*
X39250Y178564D01*
X39176Y178514D01*
X39100Y178468D01*
X39022Y178425D01*
X38942Y178386D01*
X38860Y178350D01*
X38777Y178318D01*
X38693Y178290D01*
X38607Y178265D01*
X38520Y178245D01*
X38433Y178228D01*
X38344Y178215D01*
X38256Y178206D01*
X38167Y178201D01*
X38078Y178200D01*
X37989Y178203D01*
X37900Y178210D01*
X37811Y178221D01*
X37723Y178236D01*
X37636Y178254D01*
X37550Y178277D01*
X37465Y178303D01*
X37381Y178334D01*
X37299Y178368D01*
X37218Y178405D01*
X37139Y178446D01*
X37062Y178491D01*
X36987Y178539D01*
X36914Y178590D01*
X36843Y178644D01*
X36775Y178702D01*
X36710Y178762D01*
X36647Y178826D01*
X36587Y178892D01*
X36530Y178961D01*
X36477Y179032D01*
X36426Y179105D01*
X36379Y179181D01*
X36336Y179258D01*
X36295Y179338D01*
X36259Y179419D01*
X36226Y179502D01*
X36197Y179586D01*
X36171Y179672D01*
X36149Y179758D01*
X36132Y179845D01*
X36118Y179933D01*
X36108Y180022D01*
X36102Y180111D01*
X36100Y180200D01*
X18100Y322900D02*
X18100Y362900D01*
X58100Y362900D01*
X58100Y322900D01*
X18100Y322900D01*
X36100Y319900D02*
X36102Y319989D01*
X36108Y320078D01*
X36118Y320167D01*
X36132Y320255D01*
X36149Y320342D01*
X36171Y320428D01*
X36197Y320514D01*
X36226Y320598D01*
X36259Y320681D01*
X36295Y320762D01*
X36336Y320842D01*
X36379Y320919D01*
X36426Y320995D01*
X36477Y321068D01*
X36530Y321139D01*
X36587Y321208D01*
X36647Y321274D01*
X36710Y321338D01*
X36775Y321398D01*
X36843Y321456D01*
X36914Y321510D01*
X36987Y321561D01*
X37062Y321609D01*
X37139Y321654D01*
X37218Y321695D01*
X37299Y321732D01*
X37381Y321766D01*
X37465Y321797D01*
X37550Y321823D01*
X37636Y321846D01*
X37723Y321864D01*
X37811Y321879D01*
X37900Y321890D01*
X37989Y321897D01*
X38078Y321900D01*
X38167Y321899D01*
X38256Y321894D01*
X38344Y321885D01*
X38433Y321872D01*
X38520Y321855D01*
X38607Y321835D01*
X38693Y321810D01*
X38777Y321782D01*
X38860Y321750D01*
X38942Y321714D01*
X39022Y321675D01*
X39100Y321632D01*
X39176Y321586D01*
X39250Y321536D01*
X39322Y321483D01*
X39391Y321427D01*
X39458Y321368D01*
X39522Y321306D01*
X39583Y321242D01*
X39642Y321174D01*
X39697Y321104D01*
X39749Y321032D01*
X39798Y320957D01*
X39843Y320881D01*
X39885Y320802D01*
X39923Y320722D01*
X39958Y320640D01*
X39989Y320556D01*
X40017Y320471D01*
X40040Y320385D01*
X40060Y320298D01*
X40076Y320211D01*
X40088Y320122D01*
X40096Y320034D01*
X40100Y319945D01*
X40100Y319855D01*
X40096Y319766D01*
X40088Y319678D01*
X40076Y319589D01*
X40060Y319502D01*
X40040Y319415D01*
X40017Y319329D01*
X39989Y319244D01*
X39958Y319160D01*
X39923Y319078D01*
X39885Y318998D01*
X39843Y318919D01*
X39798Y318843D01*
X39749Y318768D01*
X39697Y318696D01*
X39642Y318626D01*
X39583Y318558D01*
X39522Y318494D01*
X39458Y318432D01*
X39391Y318373D01*
X39322Y318317D01*
X39250Y318264D01*
X39176Y318214D01*
X39100Y318168D01*
X39022Y318125D01*
X38942Y318086D01*
X38860Y318050D01*
X38777Y318018D01*
X38693Y317990D01*
X38607Y317965D01*
X38520Y317945D01*
X38433Y317928D01*
X38344Y317915D01*
X38256Y317906D01*
X38167Y317901D01*
X38078Y317900D01*
X37989Y317903D01*
X37900Y317910D01*
X37811Y317921D01*
X37723Y317936D01*
X37636Y317954D01*
X37550Y317977D01*
X37465Y318003D01*
X37381Y318034D01*
X37299Y318068D01*
X37218Y318105D01*
X37139Y318146D01*
X37062Y318191D01*
X36987Y318239D01*
X36914Y318290D01*
X36843Y318344D01*
X36775Y318402D01*
X36710Y318462D01*
X36647Y318526D01*
X36587Y318592D01*
X36530Y318661D01*
X36477Y318732D01*
X36426Y318805D01*
X36379Y318881D01*
X36336Y318958D01*
X36295Y319038D01*
X36259Y319119D01*
X36226Y319202D01*
X36197Y319286D01*
X36171Y319372D01*
X36149Y319458D01*
X36132Y319545D01*
X36118Y319633D01*
X36108Y319722D01*
X36102Y319811D01*
X36100Y319900D01*
X18100Y462600D02*
X18100Y502600D01*
X58100Y502600D01*
X58100Y462600D01*
X18100Y462600D01*
X36100Y459600D02*
X36102Y459689D01*
X36108Y459778D01*
X36118Y459867D01*
X36132Y459955D01*
X36149Y460042D01*
X36171Y460128D01*
X36197Y460214D01*
X36226Y460298D01*
X36259Y460381D01*
X36295Y460462D01*
X36336Y460542D01*
X36379Y460619D01*
X36426Y460695D01*
X36477Y460768D01*
X36530Y460839D01*
X36587Y460908D01*
X36647Y460974D01*
X36710Y461038D01*
X36775Y461098D01*
X36843Y461156D01*
X36914Y461210D01*
X36987Y461261D01*
X37062Y461309D01*
X37139Y461354D01*
X37218Y461395D01*
X37299Y461432D01*
X37381Y461466D01*
X37465Y461497D01*
X37550Y461523D01*
X37636Y461546D01*
X37723Y461564D01*
X37811Y461579D01*
X37900Y461590D01*
X37989Y461597D01*
X38078Y461600D01*
X38167Y461599D01*
X38256Y461594D01*
X38344Y461585D01*
X38433Y461572D01*
X38520Y461555D01*
X38607Y461535D01*
X38693Y461510D01*
X38777Y461482D01*
X38860Y461450D01*
X38942Y461414D01*
X39022Y461375D01*
X39100Y461332D01*
X39176Y461286D01*
X39250Y461236D01*
X39322Y461183D01*
X39391Y461127D01*
X39458Y461068D01*
X39522Y461006D01*
X39583Y460942D01*
X39642Y460874D01*
X39697Y460804D01*
X39749Y460732D01*
X39798Y460657D01*
X39843Y460581D01*
X39885Y460502D01*
X39923Y460422D01*
X39958Y460340D01*
X39989Y460256D01*
X40017Y460171D01*
X40040Y460085D01*
X40060Y459998D01*
X40076Y459911D01*
X40088Y459822D01*
X40096Y459734D01*
X40100Y459645D01*
X40100Y459555D01*
X40096Y459466D01*
X40088Y459378D01*
X40076Y459289D01*
X40060Y459202D01*
X40040Y459115D01*
X40017Y459029D01*
X39989Y458944D01*
X39958Y458860D01*
X39923Y458778D01*
X39885Y458698D01*
X39843Y458619D01*
X39798Y458543D01*
X39749Y458468D01*
X39697Y458396D01*
X39642Y458326D01*
X39583Y458258D01*
X39522Y458194D01*
X39458Y458132D01*
X39391Y458073D01*
X39322Y458017D01*
X39250Y457964D01*
X39176Y457914D01*
X39100Y457868D01*
X39022Y457825D01*
X38942Y457786D01*
X38860Y457750D01*
X38777Y457718D01*
X38693Y457690D01*
X38607Y457665D01*
X38520Y457645D01*
X38433Y457628D01*
X38344Y457615D01*
X38256Y457606D01*
X38167Y457601D01*
X38078Y457600D01*
X37989Y457603D01*
X37900Y457610D01*
X37811Y457621D01*
X37723Y457636D01*
X37636Y457654D01*
X37550Y457677D01*
X37465Y457703D01*
X37381Y457734D01*
X37299Y457768D01*
X37218Y457805D01*
X37139Y457846D01*
X37062Y457891D01*
X36987Y457939D01*
X36914Y457990D01*
X36843Y458044D01*
X36775Y458102D01*
X36710Y458162D01*
X36647Y458226D01*
X36587Y458292D01*
X36530Y458361D01*
X36477Y458432D01*
X36426Y458505D01*
X36379Y458581D01*
X36336Y458658D01*
X36295Y458738D01*
X36259Y458819D01*
X36226Y458902D01*
X36197Y458986D01*
X36171Y459072D01*
X36149Y459158D01*
X36132Y459245D01*
X36118Y459333D01*
X36108Y459422D01*
X36102Y459511D01*
X36100Y459600D01*
X107000Y223200D02*
X107000Y183200D01*
X107000Y223200D02*
X147000Y223200D01*
X147000Y183200D01*
X107000Y183200D01*
X125000Y180200D02*
X125002Y180289D01*
X125008Y180378D01*
X125018Y180467D01*
X125032Y180555D01*
X125049Y180642D01*
X125071Y180728D01*
X125097Y180814D01*
X125126Y180898D01*
X125159Y180981D01*
X125195Y181062D01*
X125236Y181142D01*
X125279Y181219D01*
X125326Y181295D01*
X125377Y181368D01*
X125430Y181439D01*
X125487Y181508D01*
X125547Y181574D01*
X125610Y181638D01*
X125675Y181698D01*
X125743Y181756D01*
X125814Y181810D01*
X125887Y181861D01*
X125962Y181909D01*
X126039Y181954D01*
X126118Y181995D01*
X126199Y182032D01*
X126281Y182066D01*
X126365Y182097D01*
X126450Y182123D01*
X126536Y182146D01*
X126623Y182164D01*
X126711Y182179D01*
X126800Y182190D01*
X126889Y182197D01*
X126978Y182200D01*
X127067Y182199D01*
X127156Y182194D01*
X127244Y182185D01*
X127333Y182172D01*
X127420Y182155D01*
X127507Y182135D01*
X127593Y182110D01*
X127677Y182082D01*
X127760Y182050D01*
X127842Y182014D01*
X127922Y181975D01*
X128000Y181932D01*
X128076Y181886D01*
X128150Y181836D01*
X128222Y181783D01*
X128291Y181727D01*
X128358Y181668D01*
X128422Y181606D01*
X128483Y181542D01*
X128542Y181474D01*
X128597Y181404D01*
X128649Y181332D01*
X128698Y181257D01*
X128743Y181181D01*
X128785Y181102D01*
X128823Y181022D01*
X128858Y180940D01*
X128889Y180856D01*
X128917Y180771D01*
X128940Y180685D01*
X128960Y180598D01*
X128976Y180511D01*
X128988Y180422D01*
X128996Y180334D01*
X129000Y180245D01*
X129000Y180155D01*
X128996Y180066D01*
X128988Y179978D01*
X128976Y179889D01*
X128960Y179802D01*
X128940Y179715D01*
X128917Y179629D01*
X128889Y179544D01*
X128858Y179460D01*
X128823Y179378D01*
X128785Y179298D01*
X128743Y179219D01*
X128698Y179143D01*
X128649Y179068D01*
X128597Y178996D01*
X128542Y178926D01*
X128483Y178858D01*
X128422Y178794D01*
X128358Y178732D01*
X128291Y178673D01*
X128222Y178617D01*
X128150Y178564D01*
X128076Y178514D01*
X128000Y178468D01*
X127922Y178425D01*
X127842Y178386D01*
X127760Y178350D01*
X127677Y178318D01*
X127593Y178290D01*
X127507Y178265D01*
X127420Y178245D01*
X127333Y178228D01*
X127244Y178215D01*
X127156Y178206D01*
X127067Y178201D01*
X126978Y178200D01*
X126889Y178203D01*
X126800Y178210D01*
X126711Y178221D01*
X126623Y178236D01*
X126536Y178254D01*
X126450Y178277D01*
X126365Y178303D01*
X126281Y178334D01*
X126199Y178368D01*
X126118Y178405D01*
X126039Y178446D01*
X125962Y178491D01*
X125887Y178539D01*
X125814Y178590D01*
X125743Y178644D01*
X125675Y178702D01*
X125610Y178762D01*
X125547Y178826D01*
X125487Y178892D01*
X125430Y178961D01*
X125377Y179032D01*
X125326Y179105D01*
X125279Y179181D01*
X125236Y179258D01*
X125195Y179338D01*
X125159Y179419D01*
X125126Y179502D01*
X125097Y179586D01*
X125071Y179672D01*
X125049Y179758D01*
X125032Y179845D01*
X125018Y179933D01*
X125008Y180022D01*
X125002Y180111D01*
X125000Y180200D01*
X107000Y322900D02*
X107000Y362900D01*
X147000Y362900D01*
X147000Y322900D01*
X107000Y322900D01*
X125000Y319900D02*
X125002Y319989D01*
X125008Y320078D01*
X125018Y320167D01*
X125032Y320255D01*
X125049Y320342D01*
X125071Y320428D01*
X125097Y320514D01*
X125126Y320598D01*
X125159Y320681D01*
X125195Y320762D01*
X125236Y320842D01*
X125279Y320919D01*
X125326Y320995D01*
X125377Y321068D01*
X125430Y321139D01*
X125487Y321208D01*
X125547Y321274D01*
X125610Y321338D01*
X125675Y321398D01*
X125743Y321456D01*
X125814Y321510D01*
X125887Y321561D01*
X125962Y321609D01*
X126039Y321654D01*
X126118Y321695D01*
X126199Y321732D01*
X126281Y321766D01*
X126365Y321797D01*
X126450Y321823D01*
X126536Y321846D01*
X126623Y321864D01*
X126711Y321879D01*
X126800Y321890D01*
X126889Y321897D01*
X126978Y321900D01*
X127067Y321899D01*
X127156Y321894D01*
X127244Y321885D01*
X127333Y321872D01*
X127420Y321855D01*
X127507Y321835D01*
X127593Y321810D01*
X127677Y321782D01*
X127760Y321750D01*
X127842Y321714D01*
X127922Y321675D01*
X128000Y321632D01*
X128076Y321586D01*
X128150Y321536D01*
X128222Y321483D01*
X128291Y321427D01*
X128358Y321368D01*
X128422Y321306D01*
X128483Y321242D01*
X128542Y321174D01*
X128597Y321104D01*
X128649Y321032D01*
X128698Y320957D01*
X128743Y320881D01*
X128785Y320802D01*
X128823Y320722D01*
X128858Y320640D01*
X128889Y320556D01*
X128917Y320471D01*
X128940Y320385D01*
X128960Y320298D01*
X128976Y320211D01*
X128988Y320122D01*
X128996Y320034D01*
X129000Y319945D01*
X129000Y319855D01*
X128996Y319766D01*
X128988Y319678D01*
X128976Y319589D01*
X128960Y319502D01*
X128940Y319415D01*
X128917Y319329D01*
X128889Y319244D01*
X128858Y319160D01*
X128823Y319078D01*
X128785Y318998D01*
X128743Y318919D01*
X128698Y318843D01*
X128649Y318768D01*
X128597Y318696D01*
X128542Y318626D01*
X128483Y318558D01*
X128422Y318494D01*
X128358Y318432D01*
X128291Y318373D01*
X128222Y318317D01*
X128150Y318264D01*
X128076Y318214D01*
X128000Y318168D01*
X127922Y318125D01*
X127842Y318086D01*
X127760Y318050D01*
X127677Y318018D01*
X127593Y317990D01*
X127507Y317965D01*
X127420Y317945D01*
X127333Y317928D01*
X127244Y317915D01*
X127156Y317906D01*
X127067Y317901D01*
X126978Y317900D01*
X126889Y317903D01*
X126800Y317910D01*
X126711Y317921D01*
X126623Y317936D01*
X126536Y317954D01*
X126450Y317977D01*
X126365Y318003D01*
X126281Y318034D01*
X126199Y318068D01*
X126118Y318105D01*
X126039Y318146D01*
X125962Y318191D01*
X125887Y318239D01*
X125814Y318290D01*
X125743Y318344D01*
X125675Y318402D01*
X125610Y318462D01*
X125547Y318526D01*
X125487Y318592D01*
X125430Y318661D01*
X125377Y318732D01*
X125326Y318805D01*
X125279Y318881D01*
X125236Y318958D01*
X125195Y319038D01*
X125159Y319119D01*
X125126Y319202D01*
X125097Y319286D01*
X125071Y319372D01*
X125049Y319458D01*
X125032Y319545D01*
X125018Y319633D01*
X125008Y319722D01*
X125002Y319811D01*
X125000Y319900D01*
X107000Y462600D02*
X107000Y502600D01*
X147000Y502600D01*
X147000Y462600D01*
X107000Y462600D01*
X125000Y459600D02*
X125002Y459689D01*
X125008Y459778D01*
X125018Y459867D01*
X125032Y459955D01*
X125049Y460042D01*
X125071Y460128D01*
X125097Y460214D01*
X125126Y460298D01*
X125159Y460381D01*
X125195Y460462D01*
X125236Y460542D01*
X125279Y460619D01*
X125326Y460695D01*
X125377Y460768D01*
X125430Y460839D01*
X125487Y460908D01*
X125547Y460974D01*
X125610Y461038D01*
X125675Y461098D01*
X125743Y461156D01*
X125814Y461210D01*
X125887Y461261D01*
X125962Y461309D01*
X126039Y461354D01*
X126118Y461395D01*
X126199Y461432D01*
X126281Y461466D01*
X126365Y461497D01*
X126450Y461523D01*
X126536Y461546D01*
X126623Y461564D01*
X126711Y461579D01*
X126800Y461590D01*
X126889Y461597D01*
X126978Y461600D01*
X127067Y461599D01*
X127156Y461594D01*
X127244Y461585D01*
X127333Y461572D01*
X127420Y461555D01*
X127507Y461535D01*
X127593Y461510D01*
X127677Y461482D01*
X127760Y461450D01*
X127842Y461414D01*
X127922Y461375D01*
X128000Y461332D01*
X128076Y461286D01*
X128150Y461236D01*
X128222Y461183D01*
X128291Y461127D01*
X128358Y461068D01*
X128422Y461006D01*
X128483Y460942D01*
X128542Y460874D01*
X128597Y460804D01*
X128649Y460732D01*
X128698Y460657D01*
X128743Y460581D01*
X128785Y460502D01*
X128823Y460422D01*
X128858Y460340D01*
X128889Y460256D01*
X128917Y460171D01*
X128940Y460085D01*
X128960Y459998D01*
X128976Y459911D01*
X128988Y459822D01*
X128996Y459734D01*
X129000Y459645D01*
X129000Y459555D01*
X128996Y459466D01*
X128988Y459378D01*
X128976Y459289D01*
X128960Y459202D01*
X128940Y459115D01*
X128917Y459029D01*
X128889Y458944D01*
X128858Y458860D01*
X128823Y458778D01*
X128785Y458698D01*
X128743Y458619D01*
X128698Y458543D01*
X128649Y458468D01*
X128597Y458396D01*
X128542Y458326D01*
X128483Y458258D01*
X128422Y458194D01*
X128358Y458132D01*
X128291Y458073D01*
X128222Y458017D01*
X128150Y457964D01*
X128076Y457914D01*
X128000Y457868D01*
X127922Y457825D01*
X127842Y457786D01*
X127760Y457750D01*
X127677Y457718D01*
X127593Y457690D01*
X127507Y457665D01*
X127420Y457645D01*
X127333Y457628D01*
X127244Y457615D01*
X127156Y457606D01*
X127067Y457601D01*
X126978Y457600D01*
X126889Y457603D01*
X126800Y457610D01*
X126711Y457621D01*
X126623Y457636D01*
X126536Y457654D01*
X126450Y457677D01*
X126365Y457703D01*
X126281Y457734D01*
X126199Y457768D01*
X126118Y457805D01*
X126039Y457846D01*
X125962Y457891D01*
X125887Y457939D01*
X125814Y457990D01*
X125743Y458044D01*
X125675Y458102D01*
X125610Y458162D01*
X125547Y458226D01*
X125487Y458292D01*
X125430Y458361D01*
X125377Y458432D01*
X125326Y458505D01*
X125279Y458581D01*
X125236Y458658D01*
X125195Y458738D01*
X125159Y458819D01*
X125126Y458902D01*
X125097Y458986D01*
X125071Y459072D01*
X125049Y459158D01*
X125032Y459245D01*
X125018Y459333D01*
X125008Y459422D01*
X125002Y459511D01*
X125000Y459600D01*
X284800Y223200D02*
X284800Y183200D01*
X284800Y223200D02*
X324800Y223200D01*
X324800Y183200D01*
X284800Y183200D01*
X302800Y180200D02*
X302802Y180289D01*
X302808Y180378D01*
X302818Y180467D01*
X302832Y180555D01*
X302849Y180642D01*
X302871Y180728D01*
X302897Y180814D01*
X302926Y180898D01*
X302959Y180981D01*
X302995Y181062D01*
X303036Y181142D01*
X303079Y181219D01*
X303126Y181295D01*
X303177Y181368D01*
X303230Y181439D01*
X303287Y181508D01*
X303347Y181574D01*
X303410Y181638D01*
X303475Y181698D01*
X303543Y181756D01*
X303614Y181810D01*
X303687Y181861D01*
X303762Y181909D01*
X303839Y181954D01*
X303918Y181995D01*
X303999Y182032D01*
X304081Y182066D01*
X304165Y182097D01*
X304250Y182123D01*
X304336Y182146D01*
X304423Y182164D01*
X304511Y182179D01*
X304600Y182190D01*
X304689Y182197D01*
X304778Y182200D01*
X304867Y182199D01*
X304956Y182194D01*
X305044Y182185D01*
X305133Y182172D01*
X305220Y182155D01*
X305307Y182135D01*
X305393Y182110D01*
X305477Y182082D01*
X305560Y182050D01*
X305642Y182014D01*
X305722Y181975D01*
X305800Y181932D01*
X305876Y181886D01*
X305950Y181836D01*
X306022Y181783D01*
X306091Y181727D01*
X306158Y181668D01*
X306222Y181606D01*
X306283Y181542D01*
X306342Y181474D01*
X306397Y181404D01*
X306449Y181332D01*
X306498Y181257D01*
X306543Y181181D01*
X306585Y181102D01*
X306623Y181022D01*
X306658Y180940D01*
X306689Y180856D01*
X306717Y180771D01*
X306740Y180685D01*
X306760Y180598D01*
X306776Y180511D01*
X306788Y180422D01*
X306796Y180334D01*
X306800Y180245D01*
X306800Y180155D01*
X306796Y180066D01*
X306788Y179978D01*
X306776Y179889D01*
X306760Y179802D01*
X306740Y179715D01*
X306717Y179629D01*
X306689Y179544D01*
X306658Y179460D01*
X306623Y179378D01*
X306585Y179298D01*
X306543Y179219D01*
X306498Y179143D01*
X306449Y179068D01*
X306397Y178996D01*
X306342Y178926D01*
X306283Y178858D01*
X306222Y178794D01*
X306158Y178732D01*
X306091Y178673D01*
X306022Y178617D01*
X305950Y178564D01*
X305876Y178514D01*
X305800Y178468D01*
X305722Y178425D01*
X305642Y178386D01*
X305560Y178350D01*
X305477Y178318D01*
X305393Y178290D01*
X305307Y178265D01*
X305220Y178245D01*
X305133Y178228D01*
X305044Y178215D01*
X304956Y178206D01*
X304867Y178201D01*
X304778Y178200D01*
X304689Y178203D01*
X304600Y178210D01*
X304511Y178221D01*
X304423Y178236D01*
X304336Y178254D01*
X304250Y178277D01*
X304165Y178303D01*
X304081Y178334D01*
X303999Y178368D01*
X303918Y178405D01*
X303839Y178446D01*
X303762Y178491D01*
X303687Y178539D01*
X303614Y178590D01*
X303543Y178644D01*
X303475Y178702D01*
X303410Y178762D01*
X303347Y178826D01*
X303287Y178892D01*
X303230Y178961D01*
X303177Y179032D01*
X303126Y179105D01*
X303079Y179181D01*
X303036Y179258D01*
X302995Y179338D01*
X302959Y179419D01*
X302926Y179502D01*
X302897Y179586D01*
X302871Y179672D01*
X302849Y179758D01*
X302832Y179845D01*
X302818Y179933D01*
X302808Y180022D01*
X302802Y180111D01*
X302800Y180200D01*
X284800Y322900D02*
X284800Y362900D01*
X324800Y362900D01*
X324800Y322900D01*
X284800Y322900D01*
X302800Y319900D02*
X302802Y319989D01*
X302808Y320078D01*
X302818Y320167D01*
X302832Y320255D01*
X302849Y320342D01*
X302871Y320428D01*
X302897Y320514D01*
X302926Y320598D01*
X302959Y320681D01*
X302995Y320762D01*
X303036Y320842D01*
X303079Y320919D01*
X303126Y320995D01*
X303177Y321068D01*
X303230Y321139D01*
X303287Y321208D01*
X303347Y321274D01*
X303410Y321338D01*
X303475Y321398D01*
X303543Y321456D01*
X303614Y321510D01*
X303687Y321561D01*
X303762Y321609D01*
X303839Y321654D01*
X303918Y321695D01*
X303999Y321732D01*
X304081Y321766D01*
X304165Y321797D01*
X304250Y321823D01*
X304336Y321846D01*
X304423Y321864D01*
X304511Y321879D01*
X304600Y321890D01*
X304689Y321897D01*
X304778Y321900D01*
X304867Y321899D01*
X304956Y321894D01*
X305044Y321885D01*
X305133Y321872D01*
X305220Y321855D01*
X305307Y321835D01*
X305393Y321810D01*
X305477Y321782D01*
X305560Y321750D01*
X305642Y321714D01*
X305722Y321675D01*
X305800Y321632D01*
X305876Y321586D01*
X305950Y321536D01*
X306022Y321483D01*
X306091Y321427D01*
X306158Y321368D01*
X306222Y321306D01*
X306283Y321242D01*
X306342Y321174D01*
X306397Y321104D01*
X306449Y321032D01*
X306498Y320957D01*
X306543Y320881D01*
X306585Y320802D01*
X306623Y320722D01*
X306658Y320640D01*
X306689Y320556D01*
X306717Y320471D01*
X306740Y320385D01*
X306760Y320298D01*
X306776Y320211D01*
X306788Y320122D01*
X306796Y320034D01*
X306800Y319945D01*
X306800Y319855D01*
X306796Y319766D01*
X306788Y319678D01*
X306776Y319589D01*
X306760Y319502D01*
X306740Y319415D01*
X306717Y319329D01*
X306689Y319244D01*
X306658Y319160D01*
X306623Y319078D01*
X306585Y318998D01*
X306543Y318919D01*
X306498Y318843D01*
X306449Y318768D01*
X306397Y318696D01*
X306342Y318626D01*
X306283Y318558D01*
X306222Y318494D01*
X306158Y318432D01*
X306091Y318373D01*
X306022Y318317D01*
X305950Y318264D01*
X305876Y318214D01*
X305800Y318168D01*
X305722Y318125D01*
X305642Y318086D01*
X305560Y318050D01*
X305477Y318018D01*
X305393Y317990D01*
X305307Y317965D01*
X305220Y317945D01*
X305133Y317928D01*
X305044Y317915D01*
X304956Y317906D01*
X304867Y317901D01*
X304778Y317900D01*
X304689Y317903D01*
X304600Y317910D01*
X304511Y317921D01*
X304423Y317936D01*
X304336Y317954D01*
X304250Y317977D01*
X304165Y318003D01*
X304081Y318034D01*
X303999Y318068D01*
X303918Y318105D01*
X303839Y318146D01*
X303762Y318191D01*
X303687Y318239D01*
X303614Y318290D01*
X303543Y318344D01*
X303475Y318402D01*
X303410Y318462D01*
X303347Y318526D01*
X303287Y318592D01*
X303230Y318661D01*
X303177Y318732D01*
X303126Y318805D01*
X303079Y318881D01*
X303036Y318958D01*
X302995Y319038D01*
X302959Y319119D01*
X302926Y319202D01*
X302897Y319286D01*
X302871Y319372D01*
X302849Y319458D01*
X302832Y319545D01*
X302818Y319633D01*
X302808Y319722D01*
X302802Y319811D01*
X302800Y319900D01*
X284800Y462600D02*
X284800Y502600D01*
X324800Y502600D01*
X324800Y462600D01*
X284800Y462600D01*
X302800Y459600D02*
X302802Y459689D01*
X302808Y459778D01*
X302818Y459867D01*
X302832Y459955D01*
X302849Y460042D01*
X302871Y460128D01*
X302897Y460214D01*
X302926Y460298D01*
X302959Y460381D01*
X302995Y460462D01*
X303036Y460542D01*
X303079Y460619D01*
X303126Y460695D01*
X303177Y460768D01*
X303230Y460839D01*
X303287Y460908D01*
X303347Y460974D01*
X303410Y461038D01*
X303475Y461098D01*
X303543Y461156D01*
X303614Y461210D01*
X303687Y461261D01*
X303762Y461309D01*
X303839Y461354D01*
X303918Y461395D01*
X303999Y461432D01*
X304081Y461466D01*
X304165Y461497D01*
X304250Y461523D01*
X304336Y461546D01*
X304423Y461564D01*
X304511Y461579D01*
X304600Y461590D01*
X304689Y461597D01*
X304778Y461600D01*
X304867Y461599D01*
X304956Y461594D01*
X305044Y461585D01*
X305133Y461572D01*
X305220Y461555D01*
X305307Y461535D01*
X305393Y461510D01*
X305477Y461482D01*
X305560Y461450D01*
X305642Y461414D01*
X305722Y461375D01*
X305800Y461332D01*
X305876Y461286D01*
X305950Y461236D01*
X306022Y461183D01*
X306091Y461127D01*
X306158Y461068D01*
X306222Y461006D01*
X306283Y460942D01*
X306342Y460874D01*
X306397Y460804D01*
X306449Y460732D01*
X306498Y460657D01*
X306543Y460581D01*
X306585Y460502D01*
X306623Y460422D01*
X306658Y460340D01*
X306689Y460256D01*
X306717Y460171D01*
X306740Y460085D01*
X306760Y459998D01*
X306776Y459911D01*
X306788Y459822D01*
X306796Y459734D01*
X306800Y459645D01*
X306800Y459555D01*
X306796Y459466D01*
X306788Y459378D01*
X306776Y459289D01*
X306760Y459202D01*
X306740Y459115D01*
X306717Y459029D01*
X306689Y458944D01*
X306658Y458860D01*
X306623Y458778D01*
X306585Y458698D01*
X306543Y458619D01*
X306498Y458543D01*
X306449Y458468D01*
X306397Y458396D01*
X306342Y458326D01*
X306283Y458258D01*
X306222Y458194D01*
X306158Y458132D01*
X306091Y458073D01*
X306022Y458017D01*
X305950Y457964D01*
X305876Y457914D01*
X305800Y457868D01*
X305722Y457825D01*
X305642Y457786D01*
X305560Y457750D01*
X305477Y457718D01*
X305393Y457690D01*
X305307Y457665D01*
X305220Y457645D01*
X305133Y457628D01*
X305044Y457615D01*
X304956Y457606D01*
X304867Y457601D01*
X304778Y457600D01*
X304689Y457603D01*
X304600Y457610D01*
X304511Y457621D01*
X304423Y457636D01*
X304336Y457654D01*
X304250Y457677D01*
X304165Y457703D01*
X304081Y457734D01*
X303999Y457768D01*
X303918Y457805D01*
X303839Y457846D01*
X303762Y457891D01*
X303687Y457939D01*
X303614Y457990D01*
X303543Y458044D01*
X303475Y458102D01*
X303410Y458162D01*
X303347Y458226D01*
X303287Y458292D01*
X303230Y458361D01*
X303177Y458432D01*
X303126Y458505D01*
X303079Y458581D01*
X303036Y458658D01*
X302995Y458738D01*
X302959Y458819D01*
X302926Y458902D01*
X302897Y458986D01*
X302871Y459072D01*
X302849Y459158D01*
X302832Y459245D01*
X302818Y459333D01*
X302808Y459422D01*
X302802Y459511D01*
X302800Y459600D01*
X373700Y223200D02*
X373700Y183200D01*
X373700Y223200D02*
X413700Y223200D01*
X413700Y183200D01*
X373700Y183200D01*
X391700Y180200D02*
X391702Y180289D01*
X391708Y180378D01*
X391718Y180467D01*
X391732Y180555D01*
X391749Y180642D01*
X391771Y180728D01*
X391797Y180814D01*
X391826Y180898D01*
X391859Y180981D01*
X391895Y181062D01*
X391936Y181142D01*
X391979Y181219D01*
X392026Y181295D01*
X392077Y181368D01*
X392130Y181439D01*
X392187Y181508D01*
X392247Y181574D01*
X392310Y181638D01*
X392375Y181698D01*
X392443Y181756D01*
X392514Y181810D01*
X392587Y181861D01*
X392662Y181909D01*
X392739Y181954D01*
X392818Y181995D01*
X392899Y182032D01*
X392981Y182066D01*
X393065Y182097D01*
X393150Y182123D01*
X393236Y182146D01*
X393323Y182164D01*
X393411Y182179D01*
X393500Y182190D01*
X393589Y182197D01*
X393678Y182200D01*
X393767Y182199D01*
X393856Y182194D01*
X393944Y182185D01*
X394033Y182172D01*
X394120Y182155D01*
X394207Y182135D01*
X394293Y182110D01*
X394377Y182082D01*
X394460Y182050D01*
X394542Y182014D01*
X394622Y181975D01*
X394700Y181932D01*
X394776Y181886D01*
X394850Y181836D01*
X394922Y181783D01*
X394991Y181727D01*
X395058Y181668D01*
X395122Y181606D01*
X395183Y181542D01*
X395242Y181474D01*
X395297Y181404D01*
X395349Y181332D01*
X395398Y181257D01*
X395443Y181181D01*
X395485Y181102D01*
X395523Y181022D01*
X395558Y180940D01*
X395589Y180856D01*
X395617Y180771D01*
X395640Y180685D01*
X395660Y180598D01*
X395676Y180511D01*
X395688Y180422D01*
X395696Y180334D01*
X395700Y180245D01*
X395700Y180155D01*
X395696Y180066D01*
X395688Y179978D01*
X395676Y179889D01*
X395660Y179802D01*
X395640Y179715D01*
X395617Y179629D01*
X395589Y179544D01*
X395558Y179460D01*
X395523Y179378D01*
X395485Y179298D01*
X395443Y179219D01*
X395398Y179143D01*
X395349Y179068D01*
X395297Y178996D01*
X395242Y178926D01*
X395183Y178858D01*
X395122Y178794D01*
X395058Y178732D01*
X394991Y178673D01*
X394922Y178617D01*
X394850Y178564D01*
X394776Y178514D01*
X394700Y178468D01*
X394622Y178425D01*
X394542Y178386D01*
X394460Y178350D01*
X394377Y178318D01*
X394293Y178290D01*
X394207Y178265D01*
X394120Y178245D01*
X394033Y178228D01*
X393944Y178215D01*
X393856Y178206D01*
X393767Y178201D01*
X393678Y178200D01*
X393589Y178203D01*
X393500Y178210D01*
X393411Y178221D01*
X393323Y178236D01*
X393236Y178254D01*
X393150Y178277D01*
X393065Y178303D01*
X392981Y178334D01*
X392899Y178368D01*
X392818Y178405D01*
X392739Y178446D01*
X392662Y178491D01*
X392587Y178539D01*
X392514Y178590D01*
X392443Y178644D01*
X392375Y178702D01*
X392310Y178762D01*
X392247Y178826D01*
X392187Y178892D01*
X392130Y178961D01*
X392077Y179032D01*
X392026Y179105D01*
X391979Y179181D01*
X391936Y179258D01*
X391895Y179338D01*
X391859Y179419D01*
X391826Y179502D01*
X391797Y179586D01*
X391771Y179672D01*
X391749Y179758D01*
X391732Y179845D01*
X391718Y179933D01*
X391708Y180022D01*
X391702Y180111D01*
X391700Y180200D01*
X373700Y322900D02*
X373700Y362900D01*
X413700Y362900D01*
X413700Y322900D01*
X373700Y322900D01*
X391700Y319900D02*
X391702Y319989D01*
X391708Y320078D01*
X391718Y320167D01*
X391732Y320255D01*
X391749Y320342D01*
X391771Y320428D01*
X391797Y320514D01*
X391826Y320598D01*
X391859Y320681D01*
X391895Y320762D01*
X391936Y320842D01*
X391979Y320919D01*
X392026Y320995D01*
X392077Y321068D01*
X392130Y321139D01*
X392187Y321208D01*
X392247Y321274D01*
X392310Y321338D01*
X392375Y321398D01*
X392443Y321456D01*
X392514Y321510D01*
X392587Y321561D01*
X392662Y321609D01*
X392739Y321654D01*
X392818Y321695D01*
X392899Y321732D01*
X392981Y321766D01*
X393065Y321797D01*
X393150Y321823D01*
X393236Y321846D01*
X393323Y321864D01*
X393411Y321879D01*
X393500Y321890D01*
X393589Y321897D01*
X393678Y321900D01*
X393767Y321899D01*
X393856Y321894D01*
X393944Y321885D01*
X394033Y321872D01*
X394120Y321855D01*
X394207Y321835D01*
X394293Y321810D01*
X394377Y321782D01*
X394460Y321750D01*
X394542Y321714D01*
X394622Y321675D01*
X394700Y321632D01*
X394776Y321586D01*
X394850Y321536D01*
X394922Y321483D01*
X394991Y321427D01*
X395058Y321368D01*
X395122Y321306D01*
X395183Y321242D01*
X395242Y321174D01*
X395297Y321104D01*
X395349Y321032D01*
X395398Y320957D01*
X395443Y320881D01*
X395485Y320802D01*
X395523Y320722D01*
X395558Y320640D01*
X395589Y320556D01*
X395617Y320471D01*
X395640Y320385D01*
X395660Y320298D01*
X395676Y320211D01*
X395688Y320122D01*
X395696Y320034D01*
X395700Y319945D01*
X395700Y319855D01*
X395696Y319766D01*
X395688Y319678D01*
X395676Y319589D01*
X395660Y319502D01*
X395640Y319415D01*
X395617Y319329D01*
X395589Y319244D01*
X395558Y319160D01*
X395523Y319078D01*
X395485Y318998D01*
X395443Y318919D01*
X395398Y318843D01*
X395349Y318768D01*
X395297Y318696D01*
X395242Y318626D01*
X395183Y318558D01*
X395122Y318494D01*
X395058Y318432D01*
X394991Y318373D01*
X394922Y318317D01*
X394850Y318264D01*
X394776Y318214D01*
X394700Y318168D01*
X394622Y318125D01*
X394542Y318086D01*
X394460Y318050D01*
X394377Y318018D01*
X394293Y317990D01*
X394207Y317965D01*
X394120Y317945D01*
X394033Y317928D01*
X393944Y317915D01*
X393856Y317906D01*
X393767Y317901D01*
X393678Y317900D01*
X393589Y317903D01*
X393500Y317910D01*
X393411Y317921D01*
X393323Y317936D01*
X393236Y317954D01*
X393150Y317977D01*
X393065Y318003D01*
X392981Y318034D01*
X392899Y318068D01*
X392818Y318105D01*
X392739Y318146D01*
X392662Y318191D01*
X392587Y318239D01*
X392514Y318290D01*
X392443Y318344D01*
X392375Y318402D01*
X392310Y318462D01*
X392247Y318526D01*
X392187Y318592D01*
X392130Y318661D01*
X392077Y318732D01*
X392026Y318805D01*
X391979Y318881D01*
X391936Y318958D01*
X391895Y319038D01*
X391859Y319119D01*
X391826Y319202D01*
X391797Y319286D01*
X391771Y319372D01*
X391749Y319458D01*
X391732Y319545D01*
X391718Y319633D01*
X391708Y319722D01*
X391702Y319811D01*
X391700Y319900D01*
X373700Y462600D02*
X373700Y502600D01*
X413700Y502600D01*
X413700Y462600D01*
X373700Y462600D01*
X391700Y459600D02*
X391702Y459689D01*
X391708Y459778D01*
X391718Y459867D01*
X391732Y459955D01*
X391749Y460042D01*
X391771Y460128D01*
X391797Y460214D01*
X391826Y460298D01*
X391859Y460381D01*
X391895Y460462D01*
X391936Y460542D01*
X391979Y460619D01*
X392026Y460695D01*
X392077Y460768D01*
X392130Y460839D01*
X392187Y460908D01*
X392247Y460974D01*
X392310Y461038D01*
X392375Y461098D01*
X392443Y461156D01*
X392514Y461210D01*
X392587Y461261D01*
X392662Y461309D01*
X392739Y461354D01*
X392818Y461395D01*
X392899Y461432D01*
X392981Y461466D01*
X393065Y461497D01*
X393150Y461523D01*
X393236Y461546D01*
X393323Y461564D01*
X393411Y461579D01*
X393500Y461590D01*
X393589Y461597D01*
X393678Y461600D01*
X393767Y461599D01*
X393856Y461594D01*
X393944Y461585D01*
X394033Y461572D01*
X394120Y461555D01*
X394207Y461535D01*
X394293Y461510D01*
X394377Y461482D01*
X394460Y461450D01*
X394542Y461414D01*
X394622Y461375D01*
X394700Y461332D01*
X394776Y461286D01*
X394850Y461236D01*
X394922Y461183D01*
X394991Y461127D01*
X395058Y461068D01*
X395122Y461006D01*
X395183Y460942D01*
X395242Y460874D01*
X395297Y460804D01*
X395349Y460732D01*
X395398Y460657D01*
X395443Y460581D01*
X395485Y460502D01*
X395523Y460422D01*
X395558Y460340D01*
X395589Y460256D01*
X395617Y460171D01*
X395640Y460085D01*
X395660Y459998D01*
X395676Y459911D01*
X395688Y459822D01*
X395696Y459734D01*
X395700Y459645D01*
X395700Y459555D01*
X395696Y459466D01*
X395688Y459378D01*
X395676Y459289D01*
X395660Y459202D01*
X395640Y459115D01*
X395617Y459029D01*
X395589Y458944D01*
X395558Y458860D01*
X395523Y458778D01*
X395485Y458698D01*
X395443Y458619D01*
X395398Y458543D01*
X395349Y458468D01*
X395297Y458396D01*
X395242Y458326D01*
X395183Y458258D01*
X395122Y458194D01*
X395058Y458132D01*
X394991Y458073D01*
X394922Y458017D01*
X394850Y457964D01*
X394776Y457914D01*
X394700Y457868D01*
X394622Y457825D01*
X394542Y457786D01*
X394460Y457750D01*
X394377Y457718D01*
X394293Y457690D01*
X394207Y457665D01*
X394120Y457645D01*
X394033Y457628D01*
X393944Y457615D01*
X393856Y457606D01*
X393767Y457601D01*
X393678Y457600D01*
X393589Y457603D01*
X393500Y457610D01*
X393411Y457621D01*
X393323Y457636D01*
X393236Y457654D01*
X393150Y457677D01*
X393065Y457703D01*
X392981Y457734D01*
X392899Y457768D01*
X392818Y457805D01*
X392739Y457846D01*
X392662Y457891D01*
X392587Y457939D01*
X392514Y457990D01*
X392443Y458044D01*
X392375Y458102D01*
X392310Y458162D01*
X392247Y458226D01*
X392187Y458292D01*
X392130Y458361D01*
X392077Y458432D01*
X392026Y458505D01*
X391979Y458581D01*
X391936Y458658D01*
X391895Y458738D01*
X391859Y458819D01*
X391826Y458902D01*
X391797Y458986D01*
X391771Y459072D01*
X391749Y459158D01*
X391732Y459245D01*
X391718Y459333D01*
X391708Y459422D01*
X391702Y459511D01*
X391700Y459600D01*
X195900Y223200D02*
X195900Y183200D01*
X195900Y223200D02*
X235900Y223200D01*
X235900Y183200D01*
X195900Y183200D01*
X213900Y180200D02*
X213902Y180289D01*
X213908Y180378D01*
X213918Y180467D01*
X213932Y180555D01*
X213949Y180642D01*
X213971Y180728D01*
X213997Y180814D01*
X214026Y180898D01*
X214059Y180981D01*
X214095Y181062D01*
X214136Y181142D01*
X214179Y181219D01*
X214226Y181295D01*
X214277Y181368D01*
X214330Y181439D01*
X214387Y181508D01*
X214447Y181574D01*
X214510Y181638D01*
X214575Y181698D01*
X214643Y181756D01*
X214714Y181810D01*
X214787Y181861D01*
X214862Y181909D01*
X214939Y181954D01*
X215018Y181995D01*
X215099Y182032D01*
X215181Y182066D01*
X215265Y182097D01*
X215350Y182123D01*
X215436Y182146D01*
X215523Y182164D01*
X215611Y182179D01*
X215700Y182190D01*
X215789Y182197D01*
X215878Y182200D01*
X215967Y182199D01*
X216056Y182194D01*
X216144Y182185D01*
X216233Y182172D01*
X216320Y182155D01*
X216407Y182135D01*
X216493Y182110D01*
X216577Y182082D01*
X216660Y182050D01*
X216742Y182014D01*
X216822Y181975D01*
X216900Y181932D01*
X216976Y181886D01*
X217050Y181836D01*
X217122Y181783D01*
X217191Y181727D01*
X217258Y181668D01*
X217322Y181606D01*
X217383Y181542D01*
X217442Y181474D01*
X217497Y181404D01*
X217549Y181332D01*
X217598Y181257D01*
X217643Y181181D01*
X217685Y181102D01*
X217723Y181022D01*
X217758Y180940D01*
X217789Y180856D01*
X217817Y180771D01*
X217840Y180685D01*
X217860Y180598D01*
X217876Y180511D01*
X217888Y180422D01*
X217896Y180334D01*
X217900Y180245D01*
X217900Y180155D01*
X217896Y180066D01*
X217888Y179978D01*
X217876Y179889D01*
X217860Y179802D01*
X217840Y179715D01*
X217817Y179629D01*
X217789Y179544D01*
X217758Y179460D01*
X217723Y179378D01*
X217685Y179298D01*
X217643Y179219D01*
X217598Y179143D01*
X217549Y179068D01*
X217497Y178996D01*
X217442Y178926D01*
X217383Y178858D01*
X217322Y178794D01*
X217258Y178732D01*
X217191Y178673D01*
X217122Y178617D01*
X217050Y178564D01*
X216976Y178514D01*
X216900Y178468D01*
X216822Y178425D01*
X216742Y178386D01*
X216660Y178350D01*
X216577Y178318D01*
X216493Y178290D01*
X216407Y178265D01*
X216320Y178245D01*
X216233Y178228D01*
X216144Y178215D01*
X216056Y178206D01*
X215967Y178201D01*
X215878Y178200D01*
X215789Y178203D01*
X215700Y178210D01*
X215611Y178221D01*
X215523Y178236D01*
X215436Y178254D01*
X215350Y178277D01*
X215265Y178303D01*
X215181Y178334D01*
X215099Y178368D01*
X215018Y178405D01*
X214939Y178446D01*
X214862Y178491D01*
X214787Y178539D01*
X214714Y178590D01*
X214643Y178644D01*
X214575Y178702D01*
X214510Y178762D01*
X214447Y178826D01*
X214387Y178892D01*
X214330Y178961D01*
X214277Y179032D01*
X214226Y179105D01*
X214179Y179181D01*
X214136Y179258D01*
X214095Y179338D01*
X214059Y179419D01*
X214026Y179502D01*
X213997Y179586D01*
X213971Y179672D01*
X213949Y179758D01*
X213932Y179845D01*
X213918Y179933D01*
X213908Y180022D01*
X213902Y180111D01*
X213900Y180200D01*
X195900Y322900D02*
X195900Y362900D01*
X235900Y362900D01*
X235900Y322900D01*
X195900Y322900D01*
X213900Y319900D02*
X213902Y319989D01*
X213908Y320078D01*
X213918Y320167D01*
X213932Y320255D01*
X213949Y320342D01*
X213971Y320428D01*
X213997Y320514D01*
X214026Y320598D01*
X214059Y320681D01*
X214095Y320762D01*
X214136Y320842D01*
X214179Y320919D01*
X214226Y320995D01*
X214277Y321068D01*
X214330Y321139D01*
X214387Y321208D01*
X214447Y321274D01*
X214510Y321338D01*
X214575Y321398D01*
X214643Y321456D01*
X214714Y321510D01*
X214787Y321561D01*
X214862Y321609D01*
X214939Y321654D01*
X215018Y321695D01*
X215099Y321732D01*
X215181Y321766D01*
X215265Y321797D01*
X215350Y321823D01*
X215436Y321846D01*
X215523Y321864D01*
X215611Y321879D01*
X215700Y321890D01*
X215789Y321897D01*
X215878Y321900D01*
X215967Y321899D01*
X216056Y321894D01*
X216144Y321885D01*
X216233Y321872D01*
X216320Y321855D01*
X216407Y321835D01*
X216493Y321810D01*
X216577Y321782D01*
X216660Y321750D01*
X216742Y321714D01*
X216822Y321675D01*
X216900Y321632D01*
X216976Y321586D01*
X217050Y321536D01*
X217122Y321483D01*
X217191Y321427D01*
X217258Y321368D01*
X217322Y321306D01*
X217383Y321242D01*
X217442Y321174D01*
X217497Y321104D01*
X217549Y321032D01*
X217598Y320957D01*
X217643Y320881D01*
X217685Y320802D01*
X217723Y320722D01*
X217758Y320640D01*
X217789Y320556D01*
X217817Y320471D01*
X217840Y320385D01*
X217860Y320298D01*
X217876Y320211D01*
X217888Y320122D01*
X217896Y320034D01*
X217900Y319945D01*
X217900Y319855D01*
X217896Y319766D01*
X217888Y319678D01*
X217876Y319589D01*
X217860Y319502D01*
X217840Y319415D01*
X217817Y319329D01*
X217789Y319244D01*
X217758Y319160D01*
X217723Y319078D01*
X217685Y318998D01*
X217643Y318919D01*
X217598Y318843D01*
X217549Y318768D01*
X217497Y318696D01*
X217442Y318626D01*
X217383Y318558D01*
X217322Y318494D01*
X217258Y318432D01*
X217191Y318373D01*
X217122Y318317D01*
X217050Y318264D01*
X216976Y318214D01*
X216900Y318168D01*
X216822Y318125D01*
X216742Y318086D01*
X216660Y318050D01*
X216577Y318018D01*
X216493Y317990D01*
X216407Y317965D01*
X216320Y317945D01*
X216233Y317928D01*
X216144Y317915D01*
X216056Y317906D01*
X215967Y317901D01*
X215878Y317900D01*
X215789Y317903D01*
X215700Y317910D01*
X215611Y317921D01*
X215523Y317936D01*
X215436Y317954D01*
X215350Y317977D01*
X215265Y318003D01*
X215181Y318034D01*
X215099Y318068D01*
X215018Y318105D01*
X214939Y318146D01*
X214862Y318191D01*
X214787Y318239D01*
X214714Y318290D01*
X214643Y318344D01*
X214575Y318402D01*
X214510Y318462D01*
X214447Y318526D01*
X214387Y318592D01*
X214330Y318661D01*
X214277Y318732D01*
X214226Y318805D01*
X214179Y318881D01*
X214136Y318958D01*
X214095Y319038D01*
X214059Y319119D01*
X214026Y319202D01*
X213997Y319286D01*
X213971Y319372D01*
X213949Y319458D01*
X213932Y319545D01*
X213918Y319633D01*
X213908Y319722D01*
X213902Y319811D01*
X213900Y319900D01*
X195900Y462600D02*
X195900Y502600D01*
X235900Y502600D01*
X235900Y462600D01*
X195900Y462600D01*
X213900Y459600D02*
X213902Y459689D01*
X213908Y459778D01*
X213918Y459867D01*
X213932Y459955D01*
X213949Y460042D01*
X213971Y460128D01*
X213997Y460214D01*
X214026Y460298D01*
X214059Y460381D01*
X214095Y460462D01*
X214136Y460542D01*
X214179Y460619D01*
X214226Y460695D01*
X214277Y460768D01*
X214330Y460839D01*
X214387Y460908D01*
X214447Y460974D01*
X214510Y461038D01*
X214575Y461098D01*
X214643Y461156D01*
X214714Y461210D01*
X214787Y461261D01*
X214862Y461309D01*
X214939Y461354D01*
X215018Y461395D01*
X215099Y461432D01*
X215181Y461466D01*
X215265Y461497D01*
X215350Y461523D01*
X215436Y461546D01*
X215523Y461564D01*
X215611Y461579D01*
X215700Y461590D01*
X215789Y461597D01*
X215878Y461600D01*
X215967Y461599D01*
X216056Y461594D01*
X216144Y461585D01*
X216233Y461572D01*
X216320Y461555D01*
X216407Y461535D01*
X216493Y461510D01*
X216577Y461482D01*
X216660Y461450D01*
X216742Y461414D01*
X216822Y461375D01*
X216900Y461332D01*
X216976Y461286D01*
X217050Y461236D01*
X217122Y461183D01*
X217191Y461127D01*
X217258Y461068D01*
X217322Y461006D01*
X217383Y460942D01*
X217442Y460874D01*
X217497Y460804D01*
X217549Y460732D01*
X217598Y460657D01*
X217643Y460581D01*
X217685Y460502D01*
X217723Y460422D01*
X217758Y460340D01*
X217789Y460256D01*
X217817Y460171D01*
X217840Y460085D01*
X217860Y459998D01*
X217876Y459911D01*
X217888Y459822D01*
X217896Y459734D01*
X217900Y459645D01*
X217900Y459555D01*
X217896Y459466D01*
X217888Y459378D01*
X217876Y459289D01*
X217860Y459202D01*
X217840Y459115D01*
X217817Y459029D01*
X217789Y458944D01*
X217758Y458860D01*
X217723Y458778D01*
X217685Y458698D01*
X217643Y458619D01*
X217598Y458543D01*
X217549Y458468D01*
X217497Y458396D01*
X217442Y458326D01*
X217383Y458258D01*
X217322Y458194D01*
X217258Y458132D01*
X217191Y458073D01*
X217122Y458017D01*
X217050Y457964D01*
X216976Y457914D01*
X216900Y457868D01*
X216822Y457825D01*
X216742Y457786D01*
X216660Y457750D01*
X216577Y457718D01*
X216493Y457690D01*
X216407Y457665D01*
X216320Y457645D01*
X216233Y457628D01*
X216144Y457615D01*
X216056Y457606D01*
X215967Y457601D01*
X215878Y457600D01*
X215789Y457603D01*
X215700Y457610D01*
X215611Y457621D01*
X215523Y457636D01*
X215436Y457654D01*
X215350Y457677D01*
X215265Y457703D01*
X215181Y457734D01*
X215099Y457768D01*
X215018Y457805D01*
X214939Y457846D01*
X214862Y457891D01*
X214787Y457939D01*
X214714Y457990D01*
X214643Y458044D01*
X214575Y458102D01*
X214510Y458162D01*
X214447Y458226D01*
X214387Y458292D01*
X214330Y458361D01*
X214277Y458432D01*
X214226Y458505D01*
X214179Y458581D01*
X214136Y458658D01*
X214095Y458738D01*
X214059Y458819D01*
X214026Y458902D01*
X213997Y458986D01*
X213971Y459072D01*
X213949Y459158D01*
X213932Y459245D01*
X213918Y459333D01*
X213908Y459422D01*
X213902Y459511D01*
X213900Y459600D01*
D11*
X159004Y70022D02*
X143764Y63672D01*
X143764Y76372D01*
X159004Y70022D01*
X269240Y33192D02*
X269240Y31414D01*
X269240Y73578D02*
X253746Y73578D01*
X161544Y73578D02*
X161544Y61132D01*
X161544Y31414D02*
X269240Y31414D01*
X177038Y73578D02*
X161544Y73578D01*
X161544Y33192D02*
X161544Y31414D01*
X269240Y61132D02*
X269240Y73578D01*
X272796Y616540D02*
X288036Y622890D01*
X288036Y610190D01*
X272796Y616540D01*
X162560Y653370D02*
X162560Y655148D01*
X162560Y612984D02*
X178054Y612984D01*
X270256Y612984D02*
X270256Y625430D01*
X270256Y655148D02*
X162560Y655148D01*
X254762Y612984D02*
X270256Y612984D01*
X270256Y653370D02*
X270256Y655148D01*
X162560Y625430D02*
X162560Y612984D01*
M02*
