G04 EAGLE Gerber RS-274X export*
G75*
%MOMM*%
%FSLAX34Y34*%
%LPD*%
%INSoldermask Top*%
%IPPOS*%
%AMOC8*
5,1,8,0,0,1.08239X$1,22.5*%
G01*
G04 Define Apertures*
%ADD10C,4.203700*%
%ADD11R,1.203200X2.703200*%
%ADD12R,2.003200X4.003200*%
%ADD13R,3.503200X0.703200*%
%ADD14R,3.503200X1.503200*%
%ADD15C,0.959600*%
D10*
X35052Y596648D03*
X371148Y73152D03*
D11*
X152400Y114300D03*
X172400Y114300D03*
X192400Y114300D03*
X212400Y114300D03*
X232400Y114300D03*
X252400Y114300D03*
D12*
X128400Y72800D03*
X276400Y72800D03*
D11*
X254000Y558800D03*
X234000Y558800D03*
X214000Y558800D03*
X194000Y558800D03*
X174000Y558800D03*
X154000Y558800D03*
D12*
X278000Y600300D03*
X130000Y600300D03*
D13*
X26660Y241330D03*
X26660Y213330D03*
D14*
X26660Y227330D03*
D13*
X26660Y355630D03*
X26660Y327630D03*
D14*
X26660Y341630D03*
D13*
X26660Y469930D03*
X26660Y441930D03*
D14*
X26660Y455930D03*
D13*
X114300Y241330D03*
X114300Y213330D03*
D14*
X114300Y227330D03*
D13*
X114300Y355630D03*
X114300Y327630D03*
D14*
X114300Y341630D03*
D13*
X114300Y469930D03*
X114300Y441930D03*
D14*
X114300Y455930D03*
D13*
X203200Y241330D03*
X203200Y213330D03*
D14*
X203200Y227330D03*
D13*
X203200Y355630D03*
X203200Y327630D03*
D14*
X203200Y341630D03*
D13*
X203200Y469930D03*
X203200Y441930D03*
D14*
X203200Y455930D03*
D13*
X292100Y241330D03*
X292100Y213330D03*
D14*
X292100Y227330D03*
D13*
X292100Y355630D03*
X292100Y327630D03*
D14*
X292100Y341630D03*
D13*
X292100Y469930D03*
X292100Y441930D03*
D14*
X292100Y455930D03*
D13*
X381000Y241330D03*
X381000Y213330D03*
D14*
X381000Y227330D03*
D13*
X381000Y355630D03*
X381000Y327630D03*
D14*
X381000Y341630D03*
D13*
X381000Y469930D03*
X381000Y441930D03*
D14*
X381000Y455930D03*
D15*
X355600Y533400D03*
X190500Y533400D03*
X225806Y521208D03*
X32258Y503174D03*
M02*
