G04 EAGLE Gerber RS-274X export*
G75*
%MOMM*%
%FSLAX34Y34*%
%LPD*%
%INSilkscreen Top*%
%IPPOS*%
%AMOC8*
5,1,8,0,0,1.08239X$1,22.5*%
G01*
G04 Define Apertures*
%ADD10C,0.127000*%
%ADD11C,0.152400*%
%ADD12C,0.508000*%
%ADD13R,0.762000X10.668000*%
%ADD14R,0.508000X1.905000*%
%ADD15R,0.508000X0.762000*%
%ADD16C,0.500000*%
%ADD17C,0.120000*%
G36*
X1881828Y936147D02*
X1882386Y936186D01*
X1882902Y936250D01*
X1883377Y936339D01*
X1883811Y936454D01*
X1884203Y936595D01*
X1884554Y936761D01*
X1884864Y936953D01*
X1885135Y937173D01*
X1885370Y937421D01*
X1885568Y937698D01*
X1885731Y938003D01*
X1885858Y938338D01*
X1885948Y938702D01*
X1886002Y939094D01*
X1886020Y939515D01*
X1886013Y939772D01*
X1885991Y940020D01*
X1885955Y940260D01*
X1885905Y940492D01*
X1885840Y940715D01*
X1885761Y940931D01*
X1885668Y941138D01*
X1885560Y941337D01*
X1885552Y941350D01*
X1885438Y941527D01*
X1885302Y941706D01*
X1885152Y941875D01*
X1884988Y942033D01*
X1884809Y942181D01*
X1884617Y942319D01*
X1884410Y942446D01*
X1884190Y942563D01*
X1884190Y942581D01*
X1885714Y942581D01*
X1886048Y942572D01*
X1886360Y942544D01*
X1886651Y942498D01*
X1886921Y942434D01*
X1887168Y942351D01*
X1887395Y942249D01*
X1887600Y942130D01*
X1887783Y941992D01*
X1887944Y941835D01*
X1888084Y941660D01*
X1888203Y941467D01*
X1888300Y941255D01*
X1888375Y941025D01*
X1888429Y940777D01*
X1888460Y940525D01*
X1888462Y940510D01*
X1888472Y940225D01*
X1888450Y939808D01*
X1888384Y939433D01*
X1888273Y939101D01*
X1888118Y938810D01*
X1887921Y938565D01*
X1887687Y938367D01*
X1887416Y938217D01*
X1887106Y938114D01*
X1887334Y936529D01*
X1887606Y936605D01*
X1887862Y936701D01*
X1888103Y936818D01*
X1888327Y936956D01*
X1888535Y937114D01*
X1888727Y937292D01*
X1888903Y937491D01*
X1889064Y937711D01*
X1889206Y937951D01*
X1889330Y938210D01*
X1889435Y938489D01*
X1889520Y938788D01*
X1889587Y939107D01*
X1889634Y939445D01*
X1889663Y939803D01*
X1889672Y940181D01*
X1889657Y940661D01*
X1889610Y941111D01*
X1889532Y941529D01*
X1889423Y941917D01*
X1889282Y942273D01*
X1889111Y942599D01*
X1888908Y942893D01*
X1888674Y943157D01*
X1888409Y943389D01*
X1888112Y943591D01*
X1887785Y943761D01*
X1887426Y943901D01*
X1887036Y944009D01*
X1886615Y944087D01*
X1886162Y944133D01*
X1885679Y944149D01*
X1878435Y944149D01*
X1877200Y944162D01*
X1876773Y944178D01*
X1876473Y944201D01*
X1876473Y942703D01*
X1876681Y942668D01*
X1877183Y942633D01*
X1878094Y942598D01*
X1878094Y942581D01*
X1877693Y942358D01*
X1877341Y942094D01*
X1877038Y941787D01*
X1876784Y941438D01*
X1876676Y941249D01*
X1876583Y941051D01*
X1876504Y940845D01*
X1876439Y940631D01*
X1876389Y940408D01*
X1876353Y940177D01*
X1876332Y939938D01*
X1876324Y939690D01*
X1876343Y939256D01*
X1876399Y938850D01*
X1876493Y938473D01*
X1876623Y938124D01*
X1876791Y937804D01*
X1876997Y937512D01*
X1877240Y937249D01*
X1877520Y937015D01*
X1877839Y936808D01*
X1878200Y936630D01*
X1878602Y936478D01*
X1879045Y936355D01*
X1879529Y936258D01*
X1880055Y936189D01*
X1880621Y936148D01*
X1881229Y936134D01*
X1881828Y936147D01*
G37*
%LPC*%
G36*
X1880738Y937772D02*
X1880299Y937798D01*
X1879893Y937841D01*
X1879521Y937902D01*
X1879184Y937979D01*
X1878880Y938074D01*
X1878610Y938186D01*
X1878374Y938315D01*
X1878169Y938464D01*
X1877991Y938632D01*
X1877840Y938822D01*
X1877717Y939031D01*
X1877621Y939262D01*
X1877553Y939513D01*
X1877512Y939784D01*
X1877498Y940076D01*
X1877505Y940255D01*
X1877526Y940430D01*
X1877560Y940599D01*
X1877609Y940764D01*
X1877747Y941080D01*
X1877940Y941376D01*
X1878186Y941647D01*
X1878481Y941886D01*
X1878826Y942092D01*
X1879219Y942265D01*
X1879657Y942403D01*
X1880135Y942502D01*
X1880654Y942561D01*
X1881212Y942581D01*
X1881757Y942561D01*
X1882264Y942502D01*
X1882732Y942403D01*
X1883160Y942265D01*
X1883546Y942091D01*
X1883884Y941884D01*
X1883998Y941790D01*
X1884175Y941645D01*
X1884417Y941372D01*
X1884609Y941073D01*
X1884746Y940752D01*
X1884794Y940585D01*
X1884828Y940411D01*
X1884848Y940233D01*
X1884855Y940050D01*
X1884842Y939748D01*
X1884802Y939469D01*
X1884736Y939214D01*
X1884643Y938981D01*
X1884523Y938771D01*
X1884377Y938585D01*
X1884205Y938421D01*
X1884006Y938280D01*
X1883776Y938159D01*
X1883512Y938054D01*
X1883214Y937965D01*
X1882882Y937893D01*
X1882516Y937836D01*
X1882115Y937796D01*
X1881681Y937772D01*
X1881212Y937764D01*
X1880738Y937772D01*
G37*
%LPD*%
G36*
X1862799Y918210D02*
X1863354Y918250D01*
X1863870Y918316D01*
X1864347Y918408D01*
X1864785Y918527D01*
X1865184Y918672D01*
X1865545Y918844D01*
X1865867Y919042D01*
X1866150Y919268D01*
X1866395Y919524D01*
X1866603Y919810D01*
X1866773Y920125D01*
X1866905Y920470D01*
X1867000Y920845D01*
X1867056Y921249D01*
X1867075Y921683D01*
X1867069Y921945D01*
X1867051Y922196D01*
X1867020Y922436D01*
X1866977Y922665D01*
X1866921Y922883D01*
X1866854Y923091D01*
X1866773Y923288D01*
X1866681Y923474D01*
X1866574Y923650D01*
X1866452Y923818D01*
X1866313Y923976D01*
X1866158Y924125D01*
X1865987Y924266D01*
X1865799Y924398D01*
X1865376Y924635D01*
X1865376Y924670D01*
X1865779Y924677D01*
X1866252Y924700D01*
X1866668Y924730D01*
X1866900Y924757D01*
X1866900Y926264D01*
X1866601Y926241D01*
X1866175Y926224D01*
X1864947Y926211D01*
X1853902Y926211D01*
X1853902Y924635D01*
X1857835Y924635D01*
X1858895Y924652D01*
X1858895Y924635D01*
X1858495Y924398D01*
X1858152Y924127D01*
X1858003Y923978D01*
X1857868Y923820D01*
X1857748Y923654D01*
X1857642Y923478D01*
X1857550Y923293D01*
X1857470Y923097D01*
X1857402Y922889D01*
X1857347Y922670D01*
X1857304Y922440D01*
X1857273Y922199D01*
X1857254Y921947D01*
X1857248Y921683D01*
X1857267Y921261D01*
X1857326Y920866D01*
X1857422Y920498D01*
X1857558Y920158D01*
X1857732Y919845D01*
X1857945Y919559D01*
X1858197Y919300D01*
X1858487Y919068D01*
X1858817Y918864D01*
X1859185Y918687D01*
X1859591Y918537D01*
X1860037Y918415D01*
X1860521Y918320D01*
X1861044Y918251D01*
X1861605Y918211D01*
X1862205Y918197D01*
X1862799Y918210D01*
G37*
%LPC*%
G36*
X1861675Y919861D02*
X1861232Y919885D01*
X1860823Y919927D01*
X1860448Y919985D01*
X1860108Y920059D01*
X1859802Y920150D01*
X1859530Y920258D01*
X1859293Y920382D01*
X1859087Y920525D01*
X1858908Y920689D01*
X1858757Y920873D01*
X1858633Y921077D01*
X1858537Y921303D01*
X1858468Y921549D01*
X1858427Y921816D01*
X1858413Y922103D01*
X1858427Y922423D01*
X1858468Y922720D01*
X1858536Y922994D01*
X1858632Y923246D01*
X1858755Y923476D01*
X1858906Y923683D01*
X1859084Y923868D01*
X1859289Y924030D01*
X1859524Y924172D01*
X1859790Y924295D01*
X1860087Y924398D01*
X1860417Y924483D01*
X1860777Y924550D01*
X1861169Y924597D01*
X1861593Y924625D01*
X1862048Y924635D01*
X1862520Y924625D01*
X1862960Y924597D01*
X1863369Y924550D01*
X1863745Y924483D01*
X1864089Y924398D01*
X1864401Y924295D01*
X1864681Y924172D01*
X1864929Y924030D01*
X1864956Y924011D01*
X1865147Y923868D01*
X1865336Y923682D01*
X1865495Y923473D01*
X1865626Y923242D01*
X1865727Y922987D01*
X1865800Y922710D01*
X1865843Y922409D01*
X1865858Y922086D01*
X1865844Y921800D01*
X1865804Y921536D01*
X1865737Y921291D01*
X1865643Y921068D01*
X1865522Y920864D01*
X1865375Y920682D01*
X1865201Y920520D01*
X1864999Y920378D01*
X1864767Y920255D01*
X1864500Y920148D01*
X1864197Y920058D01*
X1863859Y919984D01*
X1863485Y919926D01*
X1863076Y919885D01*
X1862632Y919861D01*
X1862153Y919852D01*
X1861675Y919861D01*
G37*
%LPD*%
G36*
X1866900Y866744D02*
X1862092Y866744D01*
X1862092Y870370D01*
X1862075Y870848D01*
X1862027Y871300D01*
X1861946Y871727D01*
X1861833Y872128D01*
X1861688Y872503D01*
X1861510Y872853D01*
X1861300Y873177D01*
X1861058Y873475D01*
X1860788Y873743D01*
X1860496Y873975D01*
X1860182Y874172D01*
X1859845Y874333D01*
X1859486Y874458D01*
X1859104Y874547D01*
X1858700Y874600D01*
X1858273Y874618D01*
X1857843Y874600D01*
X1857438Y874547D01*
X1857058Y874458D01*
X1856703Y874334D01*
X1856373Y874173D01*
X1856067Y873978D01*
X1855787Y873747D01*
X1855531Y873480D01*
X1855304Y873180D01*
X1855106Y872852D01*
X1854939Y872494D01*
X1854802Y872107D01*
X1854696Y871690D01*
X1854620Y871245D01*
X1854574Y870770D01*
X1854559Y870265D01*
X1854559Y865071D01*
X1866900Y865071D01*
X1866900Y866744D01*
G37*
%LPC*%
G36*
X1855899Y866744D02*
X1855899Y870064D01*
X1855909Y870412D01*
X1855937Y870737D01*
X1855983Y871040D01*
X1856049Y871321D01*
X1856133Y871579D01*
X1856236Y871814D01*
X1856357Y872028D01*
X1856497Y872218D01*
X1856656Y872387D01*
X1856833Y872533D01*
X1857029Y872656D01*
X1857244Y872757D01*
X1857478Y872836D01*
X1857730Y872892D01*
X1858001Y872925D01*
X1858290Y872937D01*
X1858591Y872926D01*
X1858871Y872893D01*
X1859133Y872838D01*
X1859375Y872761D01*
X1859597Y872663D01*
X1859801Y872542D01*
X1859985Y872400D01*
X1860149Y872236D01*
X1860295Y872050D01*
X1860420Y871842D01*
X1860527Y871612D01*
X1860614Y871360D01*
X1860682Y871086D01*
X1860730Y870791D01*
X1860759Y870473D01*
X1860769Y870134D01*
X1860769Y866744D01*
X1855899Y866744D01*
G37*
%LPD*%
G36*
X1866900Y898651D02*
X1862092Y898651D01*
X1862092Y902277D01*
X1862075Y902754D01*
X1862027Y903206D01*
X1861946Y903633D01*
X1861833Y904034D01*
X1861688Y904409D01*
X1861510Y904759D01*
X1861300Y905083D01*
X1861058Y905382D01*
X1860788Y905649D01*
X1860496Y905882D01*
X1860182Y906078D01*
X1859845Y906239D01*
X1859486Y906364D01*
X1859104Y906453D01*
X1858700Y906507D01*
X1858273Y906524D01*
X1857843Y906507D01*
X1857438Y906453D01*
X1857058Y906364D01*
X1856703Y906240D01*
X1856373Y906080D01*
X1856067Y905884D01*
X1855787Y905653D01*
X1855531Y905386D01*
X1855304Y905087D01*
X1855106Y904758D01*
X1854939Y904400D01*
X1854802Y904013D01*
X1854696Y903597D01*
X1854620Y903151D01*
X1854574Y902676D01*
X1854559Y902172D01*
X1854559Y896978D01*
X1866900Y896978D01*
X1866900Y898651D01*
G37*
%LPC*%
G36*
X1855899Y898651D02*
X1855899Y901970D01*
X1855909Y902318D01*
X1855937Y902643D01*
X1855983Y902946D01*
X1856049Y903227D01*
X1856133Y903485D01*
X1856236Y903721D01*
X1856357Y903934D01*
X1856497Y904125D01*
X1856656Y904293D01*
X1856833Y904439D01*
X1857029Y904562D01*
X1857244Y904663D01*
X1857478Y904742D01*
X1857730Y904798D01*
X1858001Y904832D01*
X1858290Y904843D01*
X1858591Y904832D01*
X1858871Y904799D01*
X1859133Y904744D01*
X1859375Y904668D01*
X1859597Y904569D01*
X1859801Y904449D01*
X1859985Y904306D01*
X1860149Y904142D01*
X1860295Y903956D01*
X1860420Y903748D01*
X1860527Y903518D01*
X1860614Y903266D01*
X1860682Y902993D01*
X1860730Y902697D01*
X1860759Y902380D01*
X1860769Y902040D01*
X1860769Y898651D01*
X1855899Y898651D01*
G37*
%LPD*%
G36*
X1862733Y908245D02*
X1863278Y908294D01*
X1863788Y908377D01*
X1864263Y908493D01*
X1864702Y908642D01*
X1865106Y908824D01*
X1865476Y909040D01*
X1865810Y909288D01*
X1866106Y909569D01*
X1866363Y909881D01*
X1866581Y910226D01*
X1866759Y910602D01*
X1866897Y911010D01*
X1866996Y911449D01*
X1867055Y911921D01*
X1867075Y912424D01*
X1867056Y912929D01*
X1866999Y913404D01*
X1866904Y913848D01*
X1866771Y914261D01*
X1866600Y914643D01*
X1866390Y914994D01*
X1866143Y915314D01*
X1865858Y915603D01*
X1865534Y915860D01*
X1865170Y916082D01*
X1864766Y916270D01*
X1864323Y916424D01*
X1863840Y916544D01*
X1863317Y916629D01*
X1862755Y916681D01*
X1862153Y916698D01*
X1861545Y916682D01*
X1860978Y916634D01*
X1860453Y916554D01*
X1859969Y916442D01*
X1859526Y916297D01*
X1859124Y916121D01*
X1858763Y915913D01*
X1858444Y915673D01*
X1858163Y915399D01*
X1857921Y915089D01*
X1857715Y914743D01*
X1857547Y914361D01*
X1857416Y913944D01*
X1857323Y913490D01*
X1857267Y913001D01*
X1857248Y912476D01*
X1857267Y911962D01*
X1857325Y911481D01*
X1857421Y911033D01*
X1857555Y910618D01*
X1857727Y910236D01*
X1857938Y909888D01*
X1858187Y909572D01*
X1858474Y909290D01*
X1858800Y909041D01*
X1859164Y908826D01*
X1859566Y908643D01*
X1860007Y908494D01*
X1860486Y908378D01*
X1861003Y908295D01*
X1861559Y908245D01*
X1862153Y908228D01*
X1862733Y908245D01*
G37*
%LPC*%
G36*
X1861687Y909893D02*
X1861253Y909922D01*
X1860851Y909970D01*
X1860481Y910038D01*
X1860143Y910125D01*
X1859837Y910231D01*
X1859562Y910356D01*
X1859320Y910501D01*
X1859107Y910667D01*
X1858923Y910858D01*
X1858767Y911072D01*
X1858640Y911310D01*
X1858540Y911572D01*
X1858470Y911858D01*
X1858427Y912168D01*
X1858413Y912502D01*
X1858427Y912834D01*
X1858469Y913140D01*
X1858538Y913422D01*
X1858635Y913679D01*
X1858760Y913912D01*
X1858913Y914119D01*
X1859094Y914302D01*
X1859302Y914460D01*
X1859541Y914596D01*
X1859814Y914715D01*
X1860120Y914815D01*
X1860459Y914897D01*
X1860832Y914960D01*
X1861239Y915006D01*
X1861679Y915033D01*
X1862153Y915042D01*
X1862621Y915033D01*
X1863057Y915004D01*
X1863461Y914957D01*
X1863832Y914890D01*
X1864172Y914805D01*
X1864480Y914700D01*
X1864756Y914576D01*
X1864999Y914434D01*
X1865213Y914269D01*
X1865398Y914079D01*
X1865554Y913863D01*
X1865683Y913622D01*
X1865782Y913356D01*
X1865853Y913065D01*
X1865896Y912748D01*
X1865910Y912406D01*
X1865896Y912091D01*
X1865851Y911797D01*
X1865778Y911525D01*
X1865675Y911275D01*
X1865543Y911047D01*
X1865381Y910840D01*
X1865189Y910655D01*
X1864969Y910492D01*
X1864719Y910350D01*
X1864440Y910226D01*
X1864131Y910121D01*
X1863794Y910036D01*
X1863427Y909969D01*
X1863032Y909922D01*
X1862607Y909893D01*
X1862153Y909884D01*
X1861687Y909893D01*
G37*
%LPD*%
G36*
X1881783Y912214D02*
X1882328Y912263D01*
X1882838Y912346D01*
X1883313Y912462D01*
X1883752Y912611D01*
X1884156Y912793D01*
X1884526Y913008D01*
X1884860Y913257D01*
X1885156Y913538D01*
X1885413Y913850D01*
X1885631Y914194D01*
X1885809Y914571D01*
X1885947Y914978D01*
X1886046Y915418D01*
X1886105Y915889D01*
X1886125Y916392D01*
X1886106Y916898D01*
X1886049Y917373D01*
X1885954Y917817D01*
X1885821Y918229D01*
X1885650Y918611D01*
X1885440Y918962D01*
X1885193Y919283D01*
X1884908Y919572D01*
X1884584Y919828D01*
X1884220Y920051D01*
X1883816Y920239D01*
X1883373Y920393D01*
X1882890Y920513D01*
X1882367Y920598D01*
X1881805Y920649D01*
X1881203Y920666D01*
X1880595Y920650D01*
X1880028Y920602D01*
X1879503Y920522D01*
X1879019Y920410D01*
X1878576Y920266D01*
X1878174Y920090D01*
X1877813Y919882D01*
X1877494Y919642D01*
X1877213Y919368D01*
X1876971Y919058D01*
X1876765Y918712D01*
X1876597Y918330D01*
X1876466Y917913D01*
X1876373Y917459D01*
X1876317Y916970D01*
X1876298Y916445D01*
X1876317Y915930D01*
X1876375Y915449D01*
X1876471Y915001D01*
X1876605Y914586D01*
X1876777Y914205D01*
X1876988Y913856D01*
X1877237Y913541D01*
X1877524Y913259D01*
X1877850Y913010D01*
X1878214Y912794D01*
X1878616Y912612D01*
X1879057Y912462D01*
X1879536Y912346D01*
X1880053Y912263D01*
X1880609Y912214D01*
X1881203Y912197D01*
X1881783Y912214D01*
G37*
%LPC*%
G36*
X1880737Y913862D02*
X1880303Y913891D01*
X1879901Y913939D01*
X1879531Y914007D01*
X1879193Y914094D01*
X1878887Y914200D01*
X1878612Y914325D01*
X1878370Y914470D01*
X1878157Y914636D01*
X1877973Y914826D01*
X1877817Y915041D01*
X1877690Y915279D01*
X1877590Y915541D01*
X1877520Y915827D01*
X1877477Y916137D01*
X1877463Y916471D01*
X1877477Y916803D01*
X1877519Y917109D01*
X1877588Y917391D01*
X1877685Y917648D01*
X1877810Y917880D01*
X1877963Y918088D01*
X1878144Y918271D01*
X1878352Y918429D01*
X1878591Y918565D01*
X1878864Y918684D01*
X1879170Y918784D01*
X1879509Y918866D01*
X1879882Y918929D01*
X1880289Y918975D01*
X1880729Y919002D01*
X1881203Y919011D01*
X1881671Y919002D01*
X1882107Y918973D01*
X1882511Y918926D01*
X1882882Y918859D01*
X1883222Y918773D01*
X1883530Y918669D01*
X1883806Y918545D01*
X1884049Y918402D01*
X1884263Y918238D01*
X1884448Y918047D01*
X1884604Y917832D01*
X1884733Y917591D01*
X1884832Y917325D01*
X1884903Y917034D01*
X1884946Y916717D01*
X1884960Y916375D01*
X1884946Y916059D01*
X1884901Y915766D01*
X1884828Y915494D01*
X1884725Y915244D01*
X1884593Y915016D01*
X1884431Y914809D01*
X1884239Y914624D01*
X1884019Y914461D01*
X1883769Y914318D01*
X1883490Y914195D01*
X1883181Y914090D01*
X1882844Y914005D01*
X1882477Y913938D01*
X1882082Y913890D01*
X1881657Y913862D01*
X1881203Y913852D01*
X1880737Y913862D01*
G37*
%LPD*%
G36*
X1881783Y926182D02*
X1882328Y926232D01*
X1882838Y926315D01*
X1883313Y926431D01*
X1883752Y926580D01*
X1884156Y926762D01*
X1884526Y926977D01*
X1884860Y927226D01*
X1885156Y927506D01*
X1885413Y927819D01*
X1885631Y928163D01*
X1885809Y928539D01*
X1885947Y928947D01*
X1886046Y929387D01*
X1886105Y929858D01*
X1886125Y930361D01*
X1886106Y930867D01*
X1886049Y931341D01*
X1885954Y931785D01*
X1885821Y932198D01*
X1885650Y932580D01*
X1885440Y932931D01*
X1885193Y933251D01*
X1884908Y933540D01*
X1884584Y933797D01*
X1884220Y934019D01*
X1883816Y934208D01*
X1883373Y934362D01*
X1882890Y934481D01*
X1882367Y934567D01*
X1881805Y934618D01*
X1881203Y934635D01*
X1880595Y934619D01*
X1880028Y934571D01*
X1879503Y934491D01*
X1879019Y934379D01*
X1878576Y934235D01*
X1878174Y934059D01*
X1877813Y933851D01*
X1877494Y933610D01*
X1877213Y933336D01*
X1876971Y933026D01*
X1876765Y932681D01*
X1876597Y932299D01*
X1876466Y931881D01*
X1876373Y931428D01*
X1876317Y930939D01*
X1876298Y930414D01*
X1876317Y929899D01*
X1876375Y929418D01*
X1876471Y928970D01*
X1876605Y928555D01*
X1876777Y928174D01*
X1876988Y927825D01*
X1877237Y927510D01*
X1877524Y927228D01*
X1877850Y926979D01*
X1878214Y926763D01*
X1878616Y926581D01*
X1879057Y926431D01*
X1879536Y926315D01*
X1880053Y926232D01*
X1880609Y926182D01*
X1881203Y926166D01*
X1881783Y926182D01*
G37*
%LPC*%
G36*
X1880737Y927831D02*
X1880303Y927860D01*
X1879901Y927908D01*
X1879531Y927975D01*
X1879193Y928062D01*
X1878887Y928168D01*
X1878612Y928294D01*
X1878370Y928439D01*
X1878157Y928605D01*
X1877973Y928795D01*
X1877817Y929009D01*
X1877690Y929248D01*
X1877590Y929510D01*
X1877520Y929796D01*
X1877477Y930106D01*
X1877463Y930440D01*
X1877477Y930771D01*
X1877519Y931078D01*
X1877588Y931360D01*
X1877685Y931617D01*
X1877810Y931849D01*
X1877963Y932057D01*
X1878144Y932239D01*
X1878352Y932397D01*
X1878591Y932534D01*
X1878864Y932652D01*
X1879170Y932752D01*
X1879509Y932834D01*
X1879882Y932898D01*
X1880289Y932943D01*
X1880729Y932971D01*
X1881203Y932980D01*
X1881671Y932970D01*
X1882107Y932942D01*
X1882511Y932894D01*
X1882882Y932828D01*
X1883222Y932742D01*
X1883530Y932637D01*
X1883806Y932514D01*
X1884049Y932371D01*
X1884263Y932206D01*
X1884448Y932016D01*
X1884604Y931801D01*
X1884733Y931560D01*
X1884832Y931294D01*
X1884903Y931002D01*
X1884946Y930686D01*
X1884960Y930344D01*
X1884946Y930028D01*
X1884901Y929735D01*
X1884828Y929463D01*
X1884725Y929213D01*
X1884593Y928984D01*
X1884431Y928778D01*
X1884239Y928593D01*
X1884019Y928430D01*
X1883769Y928287D01*
X1883490Y928164D01*
X1883181Y928059D01*
X1882844Y927973D01*
X1882477Y927907D01*
X1882082Y927859D01*
X1881657Y927831D01*
X1881203Y927821D01*
X1880737Y927831D01*
G37*
%LPD*%
G36*
X1864575Y886311D02*
X1864877Y886344D01*
X1865161Y886400D01*
X1865429Y886479D01*
X1865678Y886580D01*
X1865910Y886703D01*
X1866125Y886849D01*
X1866322Y887018D01*
X1866499Y887208D01*
X1866652Y887421D01*
X1866781Y887656D01*
X1866887Y887913D01*
X1866969Y888193D01*
X1867028Y888494D01*
X1867063Y888818D01*
X1867075Y889164D01*
X1867068Y889445D01*
X1867047Y889716D01*
X1867012Y889975D01*
X1866962Y890224D01*
X1866899Y890463D01*
X1866821Y890690D01*
X1866730Y890907D01*
X1866624Y891112D01*
X1866501Y891310D01*
X1866359Y891501D01*
X1866197Y891686D01*
X1866014Y891864D01*
X1865812Y892037D01*
X1865590Y892204D01*
X1865087Y892518D01*
X1865087Y892571D01*
X1865545Y892619D01*
X1865749Y892659D01*
X1865938Y892710D01*
X1866110Y892771D01*
X1866265Y892844D01*
X1866405Y892927D01*
X1866528Y893022D01*
X1866636Y893129D01*
X1866729Y893251D01*
X1866808Y893388D01*
X1866873Y893540D01*
X1866923Y893706D01*
X1866959Y893888D01*
X1866980Y894085D01*
X1866988Y894296D01*
X1866979Y894605D01*
X1866953Y894911D01*
X1866909Y895214D01*
X1866847Y895513D01*
X1865867Y895513D01*
X1865913Y895240D01*
X1865928Y894997D01*
X1865906Y894759D01*
X1865839Y894563D01*
X1865728Y894409D01*
X1865573Y894296D01*
X1865374Y894216D01*
X1865132Y894158D01*
X1864846Y894124D01*
X1864518Y894112D01*
X1860436Y894112D01*
X1860060Y894098D01*
X1859707Y894056D01*
X1859376Y893985D01*
X1859069Y893887D01*
X1858784Y893760D01*
X1858522Y893605D01*
X1858283Y893421D01*
X1858067Y893210D01*
X1857875Y892971D01*
X1857709Y892704D01*
X1857568Y892409D01*
X1857453Y892087D01*
X1857363Y891737D01*
X1857299Y891359D01*
X1857261Y890954D01*
X1857248Y890521D01*
X1857258Y890108D01*
X1857288Y889718D01*
X1857338Y889352D01*
X1857408Y889009D01*
X1857498Y888690D01*
X1857608Y888394D01*
X1857738Y888121D01*
X1857887Y887872D01*
X1858057Y887646D01*
X1858247Y887443D01*
X1858457Y887264D01*
X1858687Y887109D01*
X1858936Y886976D01*
X1859206Y886867D01*
X1859496Y886782D01*
X1859806Y886720D01*
X1859955Y888367D01*
X1859764Y888397D01*
X1859587Y888439D01*
X1859424Y888493D01*
X1859274Y888559D01*
X1859137Y888637D01*
X1859014Y888728D01*
X1858904Y888830D01*
X1858807Y888945D01*
X1858723Y889074D01*
X1858650Y889222D01*
X1858588Y889387D01*
X1858538Y889571D01*
X1858499Y889773D01*
X1858470Y889992D01*
X1858448Y890486D01*
X1858456Y890740D01*
X1858479Y890977D01*
X1858518Y891196D01*
X1858573Y891397D01*
X1858643Y891581D01*
X1858729Y891747D01*
X1858830Y891896D01*
X1858947Y892028D01*
X1859082Y892143D01*
X1859238Y892242D01*
X1859414Y892326D01*
X1859611Y892395D01*
X1859828Y892449D01*
X1860066Y892487D01*
X1860324Y892510D01*
X1860603Y892518D01*
X1861119Y892518D01*
X1861154Y890390D01*
X1861179Y889870D01*
X1861227Y889387D01*
X1861297Y888941D01*
X1861391Y888532D01*
X1861508Y888160D01*
X1861647Y887825D01*
X1861810Y887528D01*
X1861995Y887267D01*
X1862203Y887040D01*
X1862432Y886844D01*
X1862683Y886678D01*
X1862954Y886541D01*
X1863247Y886436D01*
X1863562Y886360D01*
X1863898Y886315D01*
X1864255Y886299D01*
X1864575Y886311D01*
G37*
%LPC*%
G36*
X1863943Y887939D02*
X1863640Y887996D01*
X1863370Y888092D01*
X1863134Y888226D01*
X1862929Y888396D01*
X1862753Y888600D01*
X1862605Y888836D01*
X1862486Y889107D01*
X1862393Y889427D01*
X1862324Y889815D01*
X1862279Y890270D01*
X1862258Y890793D01*
X1862223Y892518D01*
X1863002Y892518D01*
X1863363Y892494D01*
X1863720Y892421D01*
X1864071Y892299D01*
X1864417Y892128D01*
X1864742Y891916D01*
X1865031Y891667D01*
X1865283Y891384D01*
X1865499Y891064D01*
X1865671Y890715D01*
X1865794Y890342D01*
X1865868Y889944D01*
X1865887Y889736D01*
X1865893Y889523D01*
X1865886Y889335D01*
X1865867Y889159D01*
X1865834Y888994D01*
X1865788Y888841D01*
X1865729Y888698D01*
X1865656Y888566D01*
X1865571Y888445D01*
X1865472Y888336D01*
X1865362Y888238D01*
X1865240Y888154D01*
X1865108Y888082D01*
X1864964Y888024D01*
X1864810Y887978D01*
X1864645Y887946D01*
X1864468Y887926D01*
X1864281Y887920D01*
X1863943Y887939D01*
G37*
%LPD*%
G36*
X1862699Y876317D02*
X1863259Y876368D01*
X1863782Y876454D01*
X1864266Y876574D01*
X1864712Y876729D01*
X1865120Y876918D01*
X1865491Y877141D01*
X1865823Y877399D01*
X1866116Y877689D01*
X1866371Y878011D01*
X1866586Y878364D01*
X1866762Y878749D01*
X1866899Y879164D01*
X1866997Y879612D01*
X1867056Y880090D01*
X1867075Y880600D01*
X1867066Y880968D01*
X1867040Y881319D01*
X1866996Y881654D01*
X1866935Y881971D01*
X1866856Y882272D01*
X1866760Y882555D01*
X1866646Y882822D01*
X1866515Y883072D01*
X1866366Y883305D01*
X1866199Y883521D01*
X1866015Y883720D01*
X1865814Y883902D01*
X1865595Y884068D01*
X1865359Y884216D01*
X1865105Y884348D01*
X1864833Y884462D01*
X1864439Y883079D01*
X1864741Y882944D01*
X1865015Y882760D01*
X1865262Y882526D01*
X1865481Y882242D01*
X1865578Y882081D01*
X1865661Y881908D01*
X1865732Y881722D01*
X1865790Y881523D01*
X1865835Y881311D01*
X1865867Y881087D01*
X1865886Y880850D01*
X1865893Y880600D01*
X1865879Y880286D01*
X1865838Y879991D01*
X1865768Y879715D01*
X1865672Y879459D01*
X1865547Y879223D01*
X1865395Y879005D01*
X1865216Y878808D01*
X1865008Y878629D01*
X1864775Y878471D01*
X1864519Y878334D01*
X1864240Y878218D01*
X1863937Y878123D01*
X1863612Y878050D01*
X1863262Y877997D01*
X1862890Y877965D01*
X1862494Y877955D01*
X1862494Y884716D01*
X1862284Y884716D01*
X1861674Y884700D01*
X1861104Y884651D01*
X1860573Y884570D01*
X1860081Y884455D01*
X1859628Y884308D01*
X1859215Y884129D01*
X1858842Y883917D01*
X1858507Y883672D01*
X1858212Y883395D01*
X1857956Y883084D01*
X1857740Y882742D01*
X1857563Y882366D01*
X1857425Y881958D01*
X1857327Y881518D01*
X1857268Y881045D01*
X1857248Y880539D01*
X1857268Y880043D01*
X1857326Y879577D01*
X1857424Y879140D01*
X1857561Y878733D01*
X1857737Y878355D01*
X1857953Y878007D01*
X1858207Y877688D01*
X1858501Y877399D01*
X1858831Y877141D01*
X1859195Y876918D01*
X1859594Y876729D01*
X1860027Y876574D01*
X1860494Y876454D01*
X1860995Y876368D01*
X1861531Y876317D01*
X1862100Y876299D01*
X1862699Y876317D01*
G37*
%LPC*%
G36*
X1860960Y877995D02*
X1860652Y878037D01*
X1860361Y878099D01*
X1860089Y878179D01*
X1859835Y878279D01*
X1859598Y878399D01*
X1859380Y878537D01*
X1859179Y878695D01*
X1859000Y878870D01*
X1858844Y879060D01*
X1858712Y879265D01*
X1858605Y879484D01*
X1858521Y879719D01*
X1858461Y879969D01*
X1858425Y880233D01*
X1858413Y880512D01*
X1858424Y880799D01*
X1858456Y881069D01*
X1858510Y881322D01*
X1858585Y881557D01*
X1858682Y881775D01*
X1858800Y881976D01*
X1858939Y882159D01*
X1859101Y882325D01*
X1859285Y882475D01*
X1859495Y882609D01*
X1859730Y882728D01*
X1859991Y882831D01*
X1860276Y882919D01*
X1860588Y882990D01*
X1860924Y883047D01*
X1861286Y883087D01*
X1861286Y877972D01*
X1860960Y877995D01*
G37*
%LPD*%
G36*
X1881749Y873317D02*
X1882309Y873368D01*
X1882832Y873454D01*
X1883316Y873574D01*
X1883762Y873729D01*
X1884170Y873918D01*
X1884541Y874141D01*
X1884873Y874399D01*
X1885166Y874689D01*
X1885421Y875011D01*
X1885636Y875364D01*
X1885812Y875749D01*
X1885949Y876164D01*
X1886047Y876612D01*
X1886106Y877090D01*
X1886125Y877600D01*
X1886116Y877968D01*
X1886090Y878319D01*
X1886046Y878654D01*
X1885985Y878971D01*
X1885906Y879272D01*
X1885810Y879555D01*
X1885696Y879822D01*
X1885565Y880072D01*
X1885416Y880305D01*
X1885249Y880521D01*
X1885065Y880720D01*
X1884864Y880902D01*
X1884645Y881068D01*
X1884409Y881216D01*
X1884155Y881348D01*
X1883883Y881462D01*
X1883489Y880079D01*
X1883791Y879944D01*
X1884065Y879760D01*
X1884312Y879526D01*
X1884531Y879242D01*
X1884628Y879081D01*
X1884711Y878908D01*
X1884782Y878722D01*
X1884840Y878523D01*
X1884885Y878311D01*
X1884917Y878087D01*
X1884936Y877850D01*
X1884943Y877600D01*
X1884929Y877286D01*
X1884888Y876991D01*
X1884818Y876715D01*
X1884722Y876459D01*
X1884597Y876223D01*
X1884445Y876005D01*
X1884266Y875808D01*
X1884058Y875629D01*
X1883825Y875471D01*
X1883569Y875334D01*
X1883290Y875218D01*
X1882987Y875123D01*
X1882662Y875050D01*
X1882312Y874997D01*
X1881940Y874965D01*
X1881544Y874955D01*
X1881544Y881716D01*
X1881334Y881716D01*
X1880724Y881700D01*
X1880154Y881651D01*
X1879623Y881570D01*
X1879131Y881455D01*
X1878678Y881308D01*
X1878265Y881129D01*
X1877892Y880917D01*
X1877557Y880672D01*
X1877262Y880395D01*
X1877006Y880084D01*
X1876790Y879742D01*
X1876613Y879366D01*
X1876475Y878958D01*
X1876377Y878518D01*
X1876318Y878045D01*
X1876298Y877539D01*
X1876318Y877043D01*
X1876376Y876577D01*
X1876474Y876140D01*
X1876611Y875733D01*
X1876787Y875355D01*
X1877003Y875007D01*
X1877257Y874688D01*
X1877551Y874399D01*
X1877881Y874141D01*
X1878245Y873918D01*
X1878644Y873729D01*
X1879077Y873574D01*
X1879544Y873454D01*
X1880045Y873368D01*
X1880581Y873317D01*
X1881150Y873299D01*
X1881749Y873317D01*
G37*
%LPC*%
G36*
X1880010Y874995D02*
X1879702Y875037D01*
X1879411Y875099D01*
X1879139Y875179D01*
X1878885Y875279D01*
X1878648Y875399D01*
X1878430Y875537D01*
X1878229Y875695D01*
X1878050Y875870D01*
X1877894Y876060D01*
X1877762Y876265D01*
X1877655Y876484D01*
X1877571Y876719D01*
X1877511Y876969D01*
X1877475Y877233D01*
X1877463Y877512D01*
X1877474Y877799D01*
X1877506Y878069D01*
X1877560Y878322D01*
X1877635Y878557D01*
X1877732Y878775D01*
X1877850Y878976D01*
X1877989Y879159D01*
X1878151Y879325D01*
X1878335Y879475D01*
X1878545Y879609D01*
X1878780Y879728D01*
X1879041Y879831D01*
X1879326Y879919D01*
X1879638Y879990D01*
X1879974Y880047D01*
X1880336Y880087D01*
X1880336Y874972D01*
X1880010Y874995D01*
G37*
%LPD*%
G36*
X1881749Y950129D02*
X1882309Y950181D01*
X1882832Y950267D01*
X1883316Y950387D01*
X1883762Y950541D01*
X1884170Y950730D01*
X1884541Y950954D01*
X1884873Y951211D01*
X1885166Y951502D01*
X1885421Y951823D01*
X1885636Y952177D01*
X1885812Y952561D01*
X1885949Y952977D01*
X1886047Y953424D01*
X1886106Y953903D01*
X1886125Y954412D01*
X1886116Y954781D01*
X1886090Y955132D01*
X1886046Y955466D01*
X1885985Y955784D01*
X1885906Y956084D01*
X1885810Y956368D01*
X1885696Y956635D01*
X1885565Y956885D01*
X1885416Y957117D01*
X1885249Y957334D01*
X1885065Y957533D01*
X1884864Y957715D01*
X1884645Y957880D01*
X1884409Y958029D01*
X1884155Y958160D01*
X1883883Y958275D01*
X1883489Y956891D01*
X1883791Y956757D01*
X1884065Y956573D01*
X1884312Y956338D01*
X1884531Y956055D01*
X1884628Y955894D01*
X1884711Y955720D01*
X1884782Y955534D01*
X1884840Y955335D01*
X1884885Y955124D01*
X1884917Y954899D01*
X1884936Y954662D01*
X1884943Y954412D01*
X1884929Y954098D01*
X1884888Y953803D01*
X1884818Y953528D01*
X1884722Y953272D01*
X1884597Y953035D01*
X1884445Y952818D01*
X1884266Y952620D01*
X1884058Y952442D01*
X1883825Y952284D01*
X1883569Y952147D01*
X1883290Y952031D01*
X1882987Y951936D01*
X1882662Y951862D01*
X1882312Y951810D01*
X1881940Y951778D01*
X1881544Y951767D01*
X1881544Y958529D01*
X1881334Y958529D01*
X1880724Y958513D01*
X1880154Y958464D01*
X1879623Y958382D01*
X1879131Y958268D01*
X1878678Y958121D01*
X1878265Y957941D01*
X1877892Y957729D01*
X1877557Y957484D01*
X1877262Y957207D01*
X1877006Y956897D01*
X1876790Y956554D01*
X1876613Y956179D01*
X1876475Y955771D01*
X1876377Y955330D01*
X1876318Y954857D01*
X1876298Y954351D01*
X1876318Y953856D01*
X1876376Y953390D01*
X1876474Y952953D01*
X1876611Y952546D01*
X1876787Y952168D01*
X1877003Y951820D01*
X1877257Y951501D01*
X1877551Y951211D01*
X1877881Y950954D01*
X1878245Y950730D01*
X1878644Y950541D01*
X1879077Y950387D01*
X1879544Y950267D01*
X1880045Y950181D01*
X1880581Y950129D01*
X1881150Y950112D01*
X1881749Y950129D01*
G37*
%LPC*%
G36*
X1880010Y951808D02*
X1879702Y951850D01*
X1879411Y951911D01*
X1879139Y951992D01*
X1878885Y952092D01*
X1878648Y952211D01*
X1878430Y952350D01*
X1878229Y952507D01*
X1878050Y952682D01*
X1877894Y952872D01*
X1877762Y953077D01*
X1877655Y953297D01*
X1877571Y953531D01*
X1877511Y953781D01*
X1877475Y954045D01*
X1877463Y954325D01*
X1877474Y954612D01*
X1877506Y954882D01*
X1877560Y955134D01*
X1877635Y955369D01*
X1877732Y955587D01*
X1877850Y955788D01*
X1877989Y955972D01*
X1878151Y956138D01*
X1878335Y956288D01*
X1878545Y956422D01*
X1878780Y956541D01*
X1879041Y956644D01*
X1879326Y956731D01*
X1879638Y956803D01*
X1879974Y956859D01*
X1880336Y956900D01*
X1880336Y951785D01*
X1880010Y951808D01*
G37*
%LPD*%
G36*
X1885950Y894327D02*
X1880362Y894327D01*
X1880044Y894337D01*
X1879743Y894368D01*
X1879458Y894421D01*
X1879191Y894494D01*
X1878940Y894588D01*
X1878705Y894703D01*
X1878487Y894839D01*
X1878286Y894997D01*
X1878106Y895171D01*
X1877949Y895359D01*
X1877817Y895561D01*
X1877708Y895777D01*
X1877624Y896007D01*
X1877564Y896250D01*
X1877528Y896508D01*
X1877516Y896779D01*
X1877530Y897131D01*
X1877572Y897442D01*
X1877644Y897713D01*
X1877743Y897944D01*
X1877873Y898139D01*
X1878036Y898305D01*
X1878230Y898441D01*
X1878457Y898548D01*
X1878732Y898629D01*
X1879071Y898686D01*
X1879474Y898721D01*
X1879942Y898732D01*
X1885950Y898732D01*
X1885950Y900317D01*
X1879635Y900317D01*
X1879200Y900306D01*
X1878798Y900272D01*
X1878428Y900215D01*
X1878090Y900135D01*
X1877785Y900032D01*
X1877513Y899906D01*
X1877272Y899757D01*
X1877064Y899586D01*
X1876885Y899391D01*
X1876729Y899170D01*
X1876597Y898924D01*
X1876490Y898652D01*
X1876406Y898355D01*
X1876346Y898033D01*
X1876310Y897686D01*
X1876298Y897313D01*
X1876305Y897045D01*
X1876325Y896790D01*
X1876359Y896546D01*
X1876407Y896314D01*
X1876467Y896093D01*
X1876542Y895885D01*
X1876630Y895689D01*
X1876732Y895505D01*
X1876979Y895160D01*
X1877289Y894842D01*
X1877660Y894550D01*
X1878094Y894283D01*
X1878094Y894256D01*
X1877437Y894296D01*
X1876876Y894319D01*
X1876333Y894327D01*
X1872952Y894327D01*
X1872952Y892750D01*
X1885950Y892750D01*
X1885950Y894327D01*
G37*
G36*
X1876738Y902689D02*
X1877163Y902706D01*
X1878497Y902719D01*
X1885950Y902719D01*
X1885950Y904295D01*
X1880458Y904295D01*
X1880122Y904306D01*
X1879804Y904336D01*
X1879506Y904388D01*
X1879226Y904459D01*
X1878965Y904552D01*
X1878723Y904665D01*
X1878499Y904798D01*
X1878295Y904952D01*
X1878112Y905124D01*
X1877954Y905311D01*
X1877820Y905513D01*
X1877710Y905729D01*
X1877625Y905961D01*
X1877564Y906208D01*
X1877528Y906471D01*
X1877516Y906748D01*
X1877530Y907114D01*
X1877572Y907433D01*
X1877644Y907705D01*
X1877743Y907930D01*
X1877875Y908118D01*
X1878043Y908278D01*
X1878247Y908411D01*
X1878488Y908517D01*
X1878772Y908597D01*
X1879110Y908655D01*
X1879499Y908689D01*
X1879942Y908701D01*
X1885950Y908701D01*
X1885950Y910286D01*
X1879635Y910286D01*
X1879204Y910275D01*
X1878805Y910241D01*
X1878437Y910184D01*
X1878101Y910105D01*
X1877797Y910004D01*
X1877524Y909880D01*
X1877283Y909733D01*
X1877073Y909564D01*
X1876892Y909370D01*
X1876734Y909150D01*
X1876601Y908904D01*
X1876492Y908632D01*
X1876407Y908334D01*
X1876347Y908009D01*
X1876310Y907659D01*
X1876298Y907282D01*
X1876304Y907022D01*
X1876324Y906774D01*
X1876355Y906536D01*
X1876400Y906309D01*
X1876457Y906092D01*
X1876527Y905887D01*
X1876610Y905692D01*
X1876705Y905508D01*
X1876816Y905333D01*
X1876945Y905162D01*
X1877092Y904997D01*
X1877256Y904837D01*
X1877639Y904534D01*
X1878094Y904251D01*
X1878094Y904225D01*
X1877152Y904195D01*
X1876710Y904173D01*
X1876473Y904155D01*
X1876473Y902666D01*
X1876738Y902689D01*
G37*
G36*
X1895788Y869783D02*
X1896213Y869799D01*
X1897547Y869812D01*
X1905000Y869812D01*
X1905000Y871389D01*
X1899508Y871389D01*
X1899172Y871399D01*
X1898854Y871430D01*
X1898556Y871481D01*
X1898276Y871553D01*
X1898015Y871646D01*
X1897773Y871759D01*
X1897549Y871892D01*
X1897345Y872046D01*
X1897162Y872218D01*
X1897004Y872404D01*
X1896870Y872606D01*
X1896760Y872823D01*
X1896675Y873055D01*
X1896614Y873302D01*
X1896578Y873564D01*
X1896566Y873841D01*
X1896580Y874208D01*
X1896622Y874527D01*
X1896694Y874799D01*
X1896793Y875024D01*
X1896925Y875212D01*
X1897093Y875372D01*
X1897297Y875505D01*
X1897538Y875611D01*
X1897822Y875691D01*
X1898160Y875749D01*
X1898549Y875783D01*
X1898992Y875795D01*
X1905000Y875795D01*
X1905000Y877380D01*
X1898685Y877380D01*
X1898254Y877369D01*
X1897855Y877335D01*
X1897487Y877278D01*
X1897151Y877199D01*
X1896847Y877098D01*
X1896574Y876973D01*
X1896333Y876827D01*
X1896123Y876657D01*
X1895942Y876464D01*
X1895784Y876244D01*
X1895651Y875998D01*
X1895542Y875726D01*
X1895457Y875427D01*
X1895397Y875103D01*
X1895360Y874752D01*
X1895348Y874376D01*
X1895354Y874116D01*
X1895374Y873867D01*
X1895405Y873629D01*
X1895450Y873402D01*
X1895507Y873186D01*
X1895577Y872981D01*
X1895660Y872786D01*
X1895755Y872602D01*
X1895866Y872426D01*
X1895995Y872256D01*
X1896142Y872091D01*
X1896306Y871931D01*
X1896689Y871627D01*
X1897144Y871345D01*
X1897144Y871319D01*
X1896202Y871288D01*
X1895760Y871266D01*
X1895523Y871249D01*
X1895523Y869760D01*
X1895788Y869783D01*
G37*
G36*
X1884024Y959901D02*
X1884302Y960004D01*
X1884560Y960129D01*
X1884797Y960275D01*
X1885014Y960441D01*
X1885211Y960628D01*
X1885387Y960837D01*
X1885543Y961066D01*
X1885679Y961319D01*
X1885798Y961596D01*
X1885898Y961899D01*
X1885980Y962228D01*
X1886043Y962581D01*
X1886089Y962960D01*
X1886116Y963365D01*
X1886125Y963794D01*
X1886114Y964237D01*
X1886080Y964655D01*
X1886023Y965047D01*
X1885943Y965414D01*
X1885841Y965755D01*
X1885716Y966071D01*
X1885569Y966362D01*
X1885398Y966628D01*
X1885207Y966865D01*
X1884996Y967070D01*
X1884767Y967244D01*
X1884518Y967386D01*
X1884250Y967497D01*
X1883963Y967576D01*
X1883657Y967624D01*
X1883331Y967639D01*
X1883067Y967628D01*
X1882818Y967596D01*
X1882583Y967541D01*
X1882363Y967464D01*
X1882157Y967368D01*
X1881964Y967253D01*
X1881783Y967120D01*
X1881615Y966969D01*
X1881456Y966795D01*
X1881305Y966592D01*
X1881160Y966359D01*
X1881023Y966098D01*
X1880887Y965778D01*
X1880744Y965371D01*
X1880596Y964876D01*
X1880441Y964294D01*
X1880152Y963199D01*
X1880034Y962822D01*
X1879933Y962559D01*
X1879836Y962366D01*
X1879729Y962198D01*
X1879613Y962055D01*
X1879486Y961938D01*
X1879346Y961846D01*
X1879188Y961780D01*
X1879013Y961740D01*
X1878821Y961727D01*
X1878662Y961735D01*
X1878513Y961759D01*
X1878375Y961799D01*
X1878247Y961854D01*
X1878129Y961926D01*
X1878022Y962013D01*
X1877926Y962116D01*
X1877840Y962235D01*
X1877764Y962371D01*
X1877698Y962524D01*
X1877642Y962695D01*
X1877597Y962883D01*
X1877536Y963313D01*
X1877516Y963812D01*
X1877537Y964269D01*
X1877600Y964678D01*
X1877705Y965038D01*
X1877853Y965349D01*
X1878040Y965608D01*
X1878263Y965812D01*
X1878389Y965893D01*
X1878524Y965961D01*
X1878668Y966014D01*
X1878821Y966054D01*
X1878645Y967473D01*
X1878351Y967401D01*
X1878078Y967308D01*
X1877826Y967194D01*
X1877594Y967058D01*
X1877384Y966901D01*
X1877194Y966723D01*
X1877025Y966524D01*
X1876876Y966304D01*
X1876747Y966063D01*
X1876635Y965801D01*
X1876540Y965520D01*
X1876462Y965219D01*
X1876402Y964897D01*
X1876359Y964556D01*
X1876333Y964194D01*
X1876324Y963812D01*
X1876335Y963383D01*
X1876367Y962980D01*
X1876420Y962604D01*
X1876494Y962254D01*
X1876590Y961931D01*
X1876706Y961633D01*
X1876844Y961363D01*
X1877003Y961119D01*
X1877183Y960902D01*
X1877381Y960714D01*
X1877599Y960556D01*
X1877836Y960426D01*
X1878093Y960325D01*
X1878369Y960252D01*
X1878664Y960209D01*
X1878978Y960195D01*
X1879315Y960215D01*
X1879624Y960276D01*
X1879906Y960377D01*
X1880161Y960519D01*
X1880392Y960696D01*
X1880606Y960905D01*
X1880802Y961145D01*
X1880980Y961416D01*
X1881149Y961752D01*
X1881320Y962186D01*
X1881493Y962718D01*
X1881667Y963348D01*
X1881965Y964478D01*
X1882086Y964877D01*
X1882223Y965218D01*
X1882375Y965499D01*
X1882543Y965721D01*
X1882731Y965890D01*
X1882946Y966010D01*
X1883187Y966083D01*
X1883454Y966107D01*
X1883632Y966098D01*
X1883799Y966072D01*
X1883954Y966028D01*
X1884098Y965968D01*
X1884230Y965889D01*
X1884351Y965794D01*
X1884460Y965681D01*
X1884557Y965550D01*
X1884644Y965401D01*
X1884718Y965232D01*
X1884782Y965043D01*
X1884833Y964833D01*
X1884874Y964604D01*
X1884902Y964354D01*
X1884920Y964084D01*
X1884925Y963794D01*
X1884903Y963264D01*
X1884837Y962796D01*
X1884787Y962585D01*
X1884726Y962389D01*
X1884654Y962208D01*
X1884571Y962043D01*
X1884476Y961892D01*
X1884368Y961754D01*
X1884247Y961630D01*
X1884114Y961519D01*
X1883968Y961422D01*
X1883809Y961338D01*
X1883638Y961268D01*
X1883454Y961211D01*
X1883725Y959818D01*
X1884024Y959901D01*
G37*
G36*
X1874976Y868242D02*
X1885950Y868242D01*
X1885950Y869906D01*
X1874976Y869906D01*
X1874976Y874145D01*
X1873609Y874145D01*
X1873609Y864003D01*
X1874976Y864003D01*
X1874976Y868242D01*
G37*
G36*
X1881787Y883316D02*
X1882335Y883365D01*
X1882847Y883447D01*
X1883324Y883561D01*
X1883764Y883708D01*
X1884168Y883888D01*
X1884536Y884101D01*
X1884868Y884346D01*
X1885163Y884623D01*
X1885418Y884928D01*
X1885634Y885264D01*
X1885811Y885628D01*
X1885948Y886022D01*
X1886047Y886446D01*
X1886106Y886899D01*
X1886125Y887381D01*
X1886112Y887749D01*
X1886074Y888101D01*
X1886011Y888437D01*
X1885922Y888756D01*
X1885807Y889059D01*
X1885667Y889345D01*
X1885502Y889615D01*
X1885311Y889868D01*
X1885098Y890101D01*
X1884869Y890309D01*
X1884622Y890492D01*
X1884358Y890650D01*
X1884077Y890783D01*
X1883778Y890892D01*
X1883463Y890975D01*
X1883130Y891033D01*
X1883025Y889439D01*
X1883253Y889400D01*
X1883467Y889346D01*
X1883665Y889280D01*
X1883848Y889199D01*
X1884015Y889106D01*
X1884168Y888998D01*
X1884305Y888877D01*
X1884426Y888743D01*
X1884533Y888597D01*
X1884625Y888443D01*
X1884704Y888280D01*
X1884768Y888109D01*
X1884817Y887929D01*
X1884853Y887740D01*
X1884874Y887543D01*
X1884881Y887337D01*
X1884867Y887047D01*
X1884825Y886775D01*
X1884753Y886522D01*
X1884654Y886288D01*
X1884526Y886073D01*
X1884369Y885877D01*
X1884184Y885700D01*
X1883971Y885542D01*
X1883728Y885402D01*
X1883454Y885281D01*
X1883149Y885179D01*
X1882814Y885095D01*
X1882449Y885030D01*
X1882052Y884983D01*
X1881625Y884955D01*
X1881168Y884946D01*
X1880693Y884955D01*
X1880254Y884981D01*
X1879850Y885025D01*
X1879482Y885086D01*
X1879149Y885165D01*
X1878852Y885261D01*
X1878591Y885375D01*
X1878365Y885507D01*
X1878170Y885658D01*
X1878001Y885830D01*
X1877858Y886024D01*
X1877741Y886240D01*
X1877650Y886478D01*
X1877585Y886737D01*
X1877546Y887017D01*
X1877533Y887320D01*
X1877540Y887543D01*
X1877562Y887753D01*
X1877598Y887950D01*
X1877649Y888134D01*
X1877714Y888305D01*
X1877794Y888463D01*
X1877888Y888607D01*
X1877997Y888739D01*
X1878250Y888965D01*
X1878542Y889144D01*
X1878876Y889276D01*
X1879250Y889360D01*
X1879127Y890981D01*
X1878805Y890908D01*
X1878501Y890814D01*
X1878215Y890696D01*
X1877947Y890557D01*
X1877696Y890395D01*
X1877464Y890211D01*
X1877249Y890005D01*
X1877051Y889776D01*
X1876875Y889529D01*
X1876722Y889266D01*
X1876592Y888988D01*
X1876486Y888694D01*
X1876404Y888384D01*
X1876345Y888059D01*
X1876310Y887719D01*
X1876298Y887363D01*
X1876318Y886887D01*
X1876377Y886439D01*
X1876475Y886020D01*
X1876612Y885629D01*
X1876789Y885267D01*
X1877005Y884933D01*
X1877260Y884628D01*
X1877555Y884351D01*
X1877887Y884104D01*
X1878254Y883891D01*
X1878657Y883710D01*
X1879095Y883562D01*
X1879569Y883447D01*
X1880078Y883365D01*
X1880623Y883316D01*
X1881203Y883299D01*
X1881787Y883316D01*
G37*
G36*
X1900837Y879316D02*
X1901385Y879365D01*
X1901897Y879447D01*
X1902374Y879561D01*
X1902814Y879708D01*
X1903218Y879888D01*
X1903586Y880101D01*
X1903918Y880346D01*
X1904213Y880623D01*
X1904468Y880928D01*
X1904684Y881264D01*
X1904861Y881628D01*
X1904998Y882022D01*
X1905097Y882446D01*
X1905156Y882899D01*
X1905175Y883381D01*
X1905162Y883749D01*
X1905124Y884101D01*
X1905061Y884437D01*
X1904972Y884756D01*
X1904857Y885059D01*
X1904717Y885345D01*
X1904552Y885615D01*
X1904361Y885868D01*
X1904148Y886101D01*
X1903919Y886309D01*
X1903672Y886492D01*
X1903408Y886650D01*
X1903127Y886783D01*
X1902828Y886892D01*
X1902513Y886975D01*
X1902180Y887033D01*
X1902075Y885439D01*
X1902303Y885400D01*
X1902517Y885346D01*
X1902715Y885280D01*
X1902898Y885199D01*
X1903065Y885106D01*
X1903218Y884998D01*
X1903355Y884877D01*
X1903476Y884743D01*
X1903583Y884597D01*
X1903675Y884443D01*
X1903754Y884280D01*
X1903818Y884109D01*
X1903867Y883929D01*
X1903903Y883740D01*
X1903924Y883543D01*
X1903931Y883337D01*
X1903917Y883047D01*
X1903875Y882775D01*
X1903803Y882522D01*
X1903704Y882288D01*
X1903576Y882073D01*
X1903419Y881877D01*
X1903234Y881700D01*
X1903021Y881542D01*
X1902778Y881402D01*
X1902504Y881281D01*
X1902199Y881179D01*
X1901864Y881095D01*
X1901499Y881030D01*
X1901102Y880983D01*
X1900675Y880955D01*
X1900218Y880946D01*
X1899743Y880955D01*
X1899304Y880981D01*
X1898900Y881025D01*
X1898532Y881086D01*
X1898199Y881165D01*
X1897902Y881261D01*
X1897641Y881375D01*
X1897415Y881507D01*
X1897220Y881658D01*
X1897051Y881830D01*
X1896908Y882024D01*
X1896791Y882240D01*
X1896700Y882478D01*
X1896635Y882737D01*
X1896596Y883017D01*
X1896583Y883320D01*
X1896590Y883543D01*
X1896612Y883753D01*
X1896648Y883950D01*
X1896699Y884134D01*
X1896764Y884305D01*
X1896844Y884463D01*
X1896938Y884607D01*
X1897047Y884739D01*
X1897300Y884965D01*
X1897592Y885144D01*
X1897926Y885276D01*
X1898300Y885360D01*
X1898177Y886981D01*
X1897855Y886908D01*
X1897551Y886814D01*
X1897265Y886696D01*
X1896997Y886557D01*
X1896746Y886395D01*
X1896514Y886211D01*
X1896299Y886005D01*
X1896101Y885776D01*
X1895925Y885529D01*
X1895772Y885266D01*
X1895642Y884988D01*
X1895536Y884694D01*
X1895454Y884384D01*
X1895395Y884059D01*
X1895360Y883719D01*
X1895348Y883363D01*
X1895368Y882887D01*
X1895427Y882439D01*
X1895525Y882020D01*
X1895662Y881629D01*
X1895839Y881267D01*
X1896055Y880933D01*
X1896310Y880628D01*
X1896605Y880351D01*
X1896937Y880104D01*
X1897304Y879891D01*
X1897707Y879710D01*
X1898145Y879562D01*
X1898619Y879447D01*
X1899128Y879365D01*
X1899673Y879316D01*
X1900253Y879299D01*
X1900837Y879316D01*
G37*
G36*
X1905000Y866928D02*
X1892659Y866928D01*
X1892659Y865255D01*
X1905000Y865255D01*
X1905000Y866928D01*
G37*
G36*
X1885950Y924198D02*
X1872952Y924198D01*
X1872952Y922621D01*
X1885950Y922621D01*
X1885950Y924198D01*
G37*
G36*
X1885950Y948126D02*
X1876473Y948126D01*
X1876473Y946550D01*
X1885950Y946550D01*
X1885950Y948126D01*
G37*
G36*
X1905000Y890852D02*
X1903082Y890852D01*
X1903082Y889144D01*
X1905000Y889144D01*
X1905000Y890852D01*
G37*
G36*
X1874459Y948126D02*
X1872952Y948126D01*
X1872952Y946550D01*
X1874459Y946550D01*
X1874459Y948126D01*
G37*
G36*
X1873250Y620700D02*
X1873238Y621140D01*
X1873202Y621567D01*
X1873143Y621981D01*
X1873060Y622381D01*
X1872952Y622769D01*
X1872821Y623143D01*
X1872667Y623505D01*
X1872488Y623853D01*
X1872287Y624185D01*
X1872065Y624497D01*
X1871822Y624790D01*
X1871559Y625064D01*
X1871274Y625318D01*
X1870968Y625552D01*
X1870642Y625768D01*
X1870294Y625964D01*
X1869929Y626138D01*
X1869548Y626289D01*
X1869153Y626417D01*
X1868743Y626522D01*
X1868318Y626603D01*
X1867877Y626662D01*
X1867423Y626696D01*
X1866953Y626708D01*
X1866595Y626701D01*
X1866249Y626681D01*
X1865912Y626648D01*
X1865586Y626602D01*
X1865270Y626542D01*
X1864965Y626468D01*
X1864670Y626382D01*
X1864385Y626282D01*
X1864111Y626169D01*
X1863847Y626043D01*
X1863594Y625903D01*
X1863350Y625750D01*
X1863118Y625583D01*
X1862895Y625404D01*
X1862683Y625211D01*
X1862481Y625005D01*
X1862291Y624786D01*
X1862113Y624556D01*
X1861947Y624315D01*
X1861794Y624063D01*
X1861652Y623800D01*
X1861523Y623525D01*
X1861407Y623240D01*
X1861302Y622943D01*
X1861210Y622635D01*
X1861130Y622316D01*
X1861063Y621985D01*
X1861008Y621644D01*
X1860965Y621291D01*
X1860934Y620927D01*
X1860915Y620552D01*
X1860909Y620165D01*
X1860909Y616084D01*
X1873250Y616084D01*
X1873250Y620700D01*
G37*
%LPC*%
G36*
X1862249Y617757D02*
X1862249Y620130D01*
X1862268Y620708D01*
X1862325Y621251D01*
X1862419Y621759D01*
X1862550Y622231D01*
X1862720Y622669D01*
X1862927Y623071D01*
X1863171Y623438D01*
X1863454Y623770D01*
X1863772Y624064D01*
X1864124Y624319D01*
X1864510Y624535D01*
X1864931Y624712D01*
X1865385Y624850D01*
X1865873Y624948D01*
X1866396Y625007D01*
X1866953Y625026D01*
X1867327Y625018D01*
X1867689Y624992D01*
X1868039Y624949D01*
X1868376Y624888D01*
X1868700Y624811D01*
X1869012Y624716D01*
X1869311Y624604D01*
X1869598Y624475D01*
X1869870Y624329D01*
X1870125Y624169D01*
X1870365Y623994D01*
X1870587Y623803D01*
X1870794Y623598D01*
X1870984Y623378D01*
X1871157Y623144D01*
X1871314Y622894D01*
X1871454Y622631D01*
X1871575Y622359D01*
X1871677Y622076D01*
X1871761Y621782D01*
X1871826Y621479D01*
X1871873Y621165D01*
X1871901Y620841D01*
X1871910Y620507D01*
X1871910Y617757D01*
X1862249Y617757D01*
G37*
%LPD*%
G36*
X1892300Y565281D02*
X1892286Y565801D01*
X1892243Y566291D01*
X1892171Y566752D01*
X1892071Y567184D01*
X1891943Y567587D01*
X1891785Y567960D01*
X1891599Y568304D01*
X1891385Y568618D01*
X1891145Y568900D01*
X1890881Y569143D01*
X1890595Y569350D01*
X1890287Y569518D01*
X1889955Y569650D01*
X1889600Y569743D01*
X1889223Y569800D01*
X1888823Y569818D01*
X1888521Y569806D01*
X1888232Y569768D01*
X1887956Y569706D01*
X1887694Y569619D01*
X1887445Y569507D01*
X1887209Y569370D01*
X1886987Y569208D01*
X1886778Y569021D01*
X1886674Y568908D01*
X1886585Y568811D01*
X1886412Y568581D01*
X1886259Y568329D01*
X1886126Y568056D01*
X1886013Y567761D01*
X1885920Y567446D01*
X1885846Y567110D01*
X1885792Y566753D01*
X1885721Y567025D01*
X1885635Y567282D01*
X1885533Y567522D01*
X1885416Y567747D01*
X1885283Y567956D01*
X1885136Y568149D01*
X1885064Y568226D01*
X1884972Y568326D01*
X1884794Y568487D01*
X1884602Y568631D01*
X1884400Y568755D01*
X1884186Y568861D01*
X1883962Y568947D01*
X1883727Y569014D01*
X1883480Y569062D01*
X1883223Y569090D01*
X1882955Y569100D01*
X1882592Y569083D01*
X1882253Y569032D01*
X1881937Y568947D01*
X1881644Y568829D01*
X1881375Y568676D01*
X1881129Y568489D01*
X1880907Y568269D01*
X1880708Y568014D01*
X1880533Y567726D01*
X1880380Y567403D01*
X1880252Y567047D01*
X1880146Y566656D01*
X1880065Y566232D01*
X1880006Y565774D01*
X1879971Y565282D01*
X1879959Y564756D01*
X1879959Y560271D01*
X1892300Y560271D01*
X1892300Y565281D01*
G37*
%LPC*%
G36*
X1886511Y561944D02*
X1886511Y565062D01*
X1886519Y565434D01*
X1886545Y565781D01*
X1886587Y566104D01*
X1886647Y566404D01*
X1886724Y566679D01*
X1886817Y566930D01*
X1886928Y567158D01*
X1887056Y567361D01*
X1887201Y567541D01*
X1887363Y567697D01*
X1887541Y567828D01*
X1887737Y567936D01*
X1887950Y568020D01*
X1888180Y568080D01*
X1888427Y568116D01*
X1888692Y568128D01*
X1888965Y568117D01*
X1889221Y568084D01*
X1889460Y568029D01*
X1889681Y567953D01*
X1889885Y567854D01*
X1890071Y567734D01*
X1890240Y567591D01*
X1890391Y567427D01*
X1890524Y567239D01*
X1890640Y567025D01*
X1890738Y566785D01*
X1890818Y566518D01*
X1890880Y566226D01*
X1890924Y565908D01*
X1890951Y565564D01*
X1890960Y565194D01*
X1890960Y561944D01*
X1886511Y561944D01*
G37*
G36*
X1881299Y561944D02*
X1881299Y564756D01*
X1881306Y565070D01*
X1881326Y565366D01*
X1881360Y565642D01*
X1881407Y565899D01*
X1881467Y566137D01*
X1881541Y566355D01*
X1881628Y566555D01*
X1881728Y566735D01*
X1881845Y566895D01*
X1881979Y567034D01*
X1882130Y567152D01*
X1882300Y567248D01*
X1882487Y567322D01*
X1882692Y567376D01*
X1882915Y567408D01*
X1883156Y567418D01*
X1883408Y567408D01*
X1883644Y567377D01*
X1883862Y567325D01*
X1884064Y567253D01*
X1884249Y567160D01*
X1884417Y567046D01*
X1884568Y566912D01*
X1884702Y566757D01*
X1884820Y566581D01*
X1884922Y566384D01*
X1885009Y566166D01*
X1885080Y565926D01*
X1885135Y565665D01*
X1885174Y565383D01*
X1885198Y565080D01*
X1885206Y564756D01*
X1885206Y561944D01*
X1881299Y561944D01*
G37*
%LPD*%
G36*
X1886879Y624299D02*
X1887587Y624349D01*
X1888248Y624432D01*
X1888862Y624549D01*
X1889430Y624699D01*
X1889952Y624883D01*
X1890427Y625100D01*
X1890855Y625350D01*
X1891235Y625634D01*
X1891564Y625951D01*
X1891842Y626301D01*
X1892070Y626684D01*
X1892247Y627100D01*
X1892374Y627549D01*
X1892418Y627786D01*
X1892450Y628032D01*
X1892469Y628285D01*
X1892475Y628547D01*
X1892469Y628809D01*
X1892450Y629063D01*
X1892418Y629309D01*
X1892373Y629547D01*
X1892246Y629998D01*
X1892068Y630416D01*
X1891839Y630802D01*
X1891559Y631156D01*
X1891228Y631477D01*
X1890846Y631766D01*
X1890416Y632022D01*
X1889940Y632243D01*
X1889419Y632431D01*
X1888851Y632584D01*
X1888238Y632703D01*
X1887580Y632788D01*
X1886875Y632840D01*
X1886125Y632857D01*
X1885363Y632840D01*
X1884649Y632792D01*
X1883984Y632711D01*
X1883366Y632597D01*
X1882797Y632451D01*
X1882276Y632273D01*
X1881803Y632062D01*
X1881378Y631819D01*
X1881002Y631541D01*
X1880677Y631228D01*
X1880401Y630880D01*
X1880176Y630495D01*
X1880001Y630075D01*
X1879932Y629851D01*
X1879875Y629619D01*
X1879832Y629378D01*
X1879800Y629127D01*
X1879782Y628868D01*
X1879775Y628600D01*
X1879782Y628324D01*
X1879800Y628058D01*
X1879831Y627801D01*
X1879874Y627554D01*
X1879930Y627316D01*
X1879998Y627088D01*
X1880172Y626659D01*
X1880395Y626268D01*
X1880667Y625914D01*
X1880989Y625598D01*
X1881361Y625320D01*
X1881782Y625077D01*
X1882253Y624866D01*
X1882774Y624687D01*
X1883344Y624541D01*
X1883965Y624428D01*
X1884635Y624347D01*
X1885355Y624298D01*
X1886125Y624282D01*
X1886879Y624299D01*
G37*
%LPC*%
G36*
X1885472Y625886D02*
X1884867Y625916D01*
X1884310Y625965D01*
X1883800Y626035D01*
X1883338Y626124D01*
X1882923Y626233D01*
X1882556Y626362D01*
X1882236Y626511D01*
X1881959Y626683D01*
X1881719Y626880D01*
X1881516Y627102D01*
X1881350Y627351D01*
X1881220Y627625D01*
X1881128Y627924D01*
X1881073Y628249D01*
X1881054Y628600D01*
X1881073Y628942D01*
X1881129Y629259D01*
X1881223Y629551D01*
X1881354Y629818D01*
X1881523Y630060D01*
X1881729Y630277D01*
X1881973Y630469D01*
X1882254Y630636D01*
X1882577Y630781D01*
X1882946Y630906D01*
X1883361Y631013D01*
X1883822Y631099D01*
X1884329Y631167D01*
X1884882Y631215D01*
X1885480Y631244D01*
X1886125Y631254D01*
X1886748Y631244D01*
X1887330Y631213D01*
X1887869Y631163D01*
X1888367Y631092D01*
X1888824Y631001D01*
X1889239Y630889D01*
X1889612Y630758D01*
X1889944Y630606D01*
X1890235Y630432D01*
X1890488Y630235D01*
X1890702Y630015D01*
X1890877Y629771D01*
X1891013Y629505D01*
X1891110Y629215D01*
X1891168Y628901D01*
X1891188Y628565D01*
X1891169Y628226D01*
X1891112Y627912D01*
X1891016Y627620D01*
X1890883Y627353D01*
X1890712Y627109D01*
X1890503Y626889D01*
X1890256Y626693D01*
X1889970Y626520D01*
X1889644Y626369D01*
X1889273Y626238D01*
X1888859Y626127D01*
X1888400Y626037D01*
X1887898Y625967D01*
X1887351Y625916D01*
X1886760Y625886D01*
X1886125Y625876D01*
X1885472Y625886D01*
G37*
%LPD*%
G36*
X1888199Y597441D02*
X1888754Y597481D01*
X1889270Y597547D01*
X1889747Y597640D01*
X1890185Y597758D01*
X1890584Y597904D01*
X1890945Y598075D01*
X1891267Y598273D01*
X1891550Y598500D01*
X1891795Y598755D01*
X1892003Y599041D01*
X1892173Y599356D01*
X1892305Y599701D01*
X1892400Y600076D01*
X1892456Y600480D01*
X1892475Y600914D01*
X1892469Y601176D01*
X1892451Y601427D01*
X1892420Y601667D01*
X1892377Y601896D01*
X1892321Y602115D01*
X1892254Y602322D01*
X1892173Y602519D01*
X1892081Y602705D01*
X1891974Y602881D01*
X1891852Y603049D01*
X1891713Y603207D01*
X1891558Y603357D01*
X1891387Y603497D01*
X1891199Y603629D01*
X1890776Y603866D01*
X1890776Y603901D01*
X1891179Y603908D01*
X1891652Y603931D01*
X1892068Y603961D01*
X1892300Y603988D01*
X1892300Y605495D01*
X1892001Y605472D01*
X1891575Y605455D01*
X1890347Y605442D01*
X1879302Y605442D01*
X1879302Y603866D01*
X1883235Y603866D01*
X1884295Y603883D01*
X1884295Y603866D01*
X1883895Y603629D01*
X1883552Y603358D01*
X1883403Y603209D01*
X1883268Y603051D01*
X1883148Y602885D01*
X1883042Y602710D01*
X1882950Y602524D01*
X1882870Y602328D01*
X1882802Y602120D01*
X1882747Y601902D01*
X1882704Y601672D01*
X1882673Y601430D01*
X1882654Y601178D01*
X1882648Y600914D01*
X1882667Y600492D01*
X1882726Y600097D01*
X1882822Y599729D01*
X1882958Y599389D01*
X1883132Y599076D01*
X1883345Y598790D01*
X1883597Y598531D01*
X1883887Y598300D01*
X1884217Y598095D01*
X1884585Y597918D01*
X1884991Y597769D01*
X1885437Y597646D01*
X1885921Y597551D01*
X1886444Y597483D01*
X1887005Y597442D01*
X1887605Y597428D01*
X1888199Y597441D01*
G37*
%LPC*%
G36*
X1887075Y599092D02*
X1886632Y599117D01*
X1886223Y599158D01*
X1885848Y599216D01*
X1885508Y599291D01*
X1885202Y599382D01*
X1884930Y599489D01*
X1884693Y599613D01*
X1884487Y599756D01*
X1884308Y599920D01*
X1884157Y600104D01*
X1884033Y600309D01*
X1883937Y600534D01*
X1883868Y600780D01*
X1883827Y601047D01*
X1883813Y601335D01*
X1883827Y601654D01*
X1883868Y601951D01*
X1883936Y602225D01*
X1884032Y602478D01*
X1884155Y602707D01*
X1884306Y602914D01*
X1884484Y603099D01*
X1884689Y603261D01*
X1884924Y603403D01*
X1885190Y603526D01*
X1885487Y603630D01*
X1885817Y603715D01*
X1886177Y603781D01*
X1886569Y603828D01*
X1886993Y603856D01*
X1887448Y603866D01*
X1887920Y603856D01*
X1888360Y603828D01*
X1888769Y603781D01*
X1889145Y603715D01*
X1889489Y603630D01*
X1889801Y603526D01*
X1890081Y603403D01*
X1890329Y603261D01*
X1890356Y603242D01*
X1890547Y603099D01*
X1890736Y602913D01*
X1890895Y602705D01*
X1891026Y602473D01*
X1891127Y602219D01*
X1891200Y601941D01*
X1891243Y601641D01*
X1891258Y601317D01*
X1891244Y601032D01*
X1891204Y600767D01*
X1891137Y600523D01*
X1891043Y600299D01*
X1890922Y600096D01*
X1890775Y599913D01*
X1890601Y599751D01*
X1890399Y599609D01*
X1890167Y599486D01*
X1889900Y599379D01*
X1889597Y599289D01*
X1889259Y599215D01*
X1888885Y599158D01*
X1888476Y599116D01*
X1888032Y599092D01*
X1887553Y599084D01*
X1887075Y599092D01*
G37*
%LPD*%
G36*
X1873250Y561944D02*
X1868442Y561944D01*
X1868442Y565570D01*
X1868425Y566048D01*
X1868377Y566500D01*
X1868296Y566927D01*
X1868183Y567328D01*
X1868038Y567703D01*
X1867860Y568053D01*
X1867650Y568377D01*
X1867408Y568675D01*
X1867138Y568943D01*
X1866846Y569175D01*
X1866532Y569372D01*
X1866195Y569533D01*
X1865836Y569658D01*
X1865454Y569747D01*
X1865050Y569800D01*
X1864623Y569818D01*
X1864193Y569800D01*
X1863788Y569747D01*
X1863408Y569658D01*
X1863053Y569534D01*
X1862723Y569373D01*
X1862417Y569178D01*
X1862137Y568947D01*
X1861881Y568680D01*
X1861654Y568380D01*
X1861456Y568052D01*
X1861289Y567694D01*
X1861152Y567307D01*
X1861046Y566890D01*
X1860970Y566445D01*
X1860924Y565970D01*
X1860909Y565465D01*
X1860909Y560271D01*
X1873250Y560271D01*
X1873250Y561944D01*
G37*
%LPC*%
G36*
X1862249Y561944D02*
X1862249Y565264D01*
X1862259Y565612D01*
X1862287Y565937D01*
X1862333Y566240D01*
X1862399Y566521D01*
X1862483Y566779D01*
X1862586Y567014D01*
X1862707Y567228D01*
X1862847Y567418D01*
X1863006Y567587D01*
X1863183Y567733D01*
X1863379Y567856D01*
X1863594Y567957D01*
X1863828Y568036D01*
X1864080Y568092D01*
X1864351Y568125D01*
X1864640Y568137D01*
X1864941Y568126D01*
X1865221Y568093D01*
X1865483Y568038D01*
X1865725Y567961D01*
X1865947Y567863D01*
X1866151Y567742D01*
X1866335Y567600D01*
X1866499Y567436D01*
X1866645Y567250D01*
X1866770Y567042D01*
X1866877Y566812D01*
X1866964Y566560D01*
X1867032Y566286D01*
X1867080Y565991D01*
X1867109Y565673D01*
X1867119Y565334D01*
X1867119Y561944D01*
X1862249Y561944D01*
G37*
%LPD*%
G36*
X1888133Y571507D02*
X1888678Y571557D01*
X1889188Y571640D01*
X1889663Y571756D01*
X1890102Y571905D01*
X1890506Y572087D01*
X1890876Y572302D01*
X1891210Y572551D01*
X1891506Y572831D01*
X1891763Y573144D01*
X1891981Y573488D01*
X1892159Y573864D01*
X1892297Y574272D01*
X1892396Y574712D01*
X1892455Y575183D01*
X1892475Y575686D01*
X1892456Y576192D01*
X1892399Y576666D01*
X1892304Y577110D01*
X1892171Y577523D01*
X1892000Y577905D01*
X1891790Y578256D01*
X1891543Y578576D01*
X1891258Y578865D01*
X1890934Y579122D01*
X1890570Y579344D01*
X1890166Y579533D01*
X1889723Y579687D01*
X1889240Y579806D01*
X1888717Y579892D01*
X1888155Y579943D01*
X1887553Y579960D01*
X1886945Y579944D01*
X1886378Y579896D01*
X1885853Y579816D01*
X1885369Y579704D01*
X1884926Y579560D01*
X1884524Y579384D01*
X1884163Y579176D01*
X1883844Y578935D01*
X1883563Y578661D01*
X1883321Y578351D01*
X1883115Y578006D01*
X1882947Y577624D01*
X1882816Y577206D01*
X1882723Y576753D01*
X1882667Y576264D01*
X1882648Y575739D01*
X1882667Y575224D01*
X1882725Y574743D01*
X1882821Y574295D01*
X1882955Y573880D01*
X1883127Y573499D01*
X1883338Y573150D01*
X1883587Y572835D01*
X1883874Y572553D01*
X1884200Y572304D01*
X1884564Y572088D01*
X1884966Y571906D01*
X1885407Y571756D01*
X1885886Y571640D01*
X1886403Y571557D01*
X1886959Y571507D01*
X1887553Y571491D01*
X1888133Y571507D01*
G37*
%LPC*%
G36*
X1887087Y573156D02*
X1886653Y573185D01*
X1886251Y573233D01*
X1885881Y573300D01*
X1885543Y573387D01*
X1885237Y573493D01*
X1884962Y573619D01*
X1884720Y573764D01*
X1884507Y573930D01*
X1884323Y574120D01*
X1884167Y574334D01*
X1884040Y574573D01*
X1883940Y574835D01*
X1883870Y575121D01*
X1883827Y575431D01*
X1883813Y575765D01*
X1883827Y576096D01*
X1883869Y576403D01*
X1883938Y576685D01*
X1884035Y576942D01*
X1884160Y577174D01*
X1884313Y577382D01*
X1884494Y577564D01*
X1884702Y577722D01*
X1884941Y577859D01*
X1885214Y577977D01*
X1885520Y578077D01*
X1885859Y578159D01*
X1886232Y578223D01*
X1886639Y578268D01*
X1887079Y578296D01*
X1887553Y578305D01*
X1888021Y578295D01*
X1888457Y578267D01*
X1888861Y578219D01*
X1889232Y578153D01*
X1889572Y578067D01*
X1889880Y577962D01*
X1890156Y577839D01*
X1890399Y577696D01*
X1890613Y577531D01*
X1890798Y577341D01*
X1890954Y577126D01*
X1891083Y576885D01*
X1891182Y576619D01*
X1891253Y576327D01*
X1891296Y576011D01*
X1891310Y575669D01*
X1891296Y575353D01*
X1891251Y575060D01*
X1891178Y574788D01*
X1891075Y574538D01*
X1890943Y574309D01*
X1890781Y574103D01*
X1890589Y573918D01*
X1890369Y573755D01*
X1890119Y573612D01*
X1889840Y573489D01*
X1889531Y573384D01*
X1889194Y573298D01*
X1888827Y573232D01*
X1888432Y573184D01*
X1888007Y573156D01*
X1887553Y573146D01*
X1887087Y573156D01*
G37*
%LPD*%
G36*
X1889975Y581511D02*
X1890277Y581544D01*
X1890561Y581600D01*
X1890829Y581679D01*
X1891078Y581780D01*
X1891310Y581903D01*
X1891525Y582049D01*
X1891722Y582218D01*
X1891899Y582408D01*
X1892052Y582621D01*
X1892181Y582856D01*
X1892287Y583113D01*
X1892369Y583393D01*
X1892428Y583694D01*
X1892463Y584018D01*
X1892475Y584364D01*
X1892468Y584645D01*
X1892447Y584916D01*
X1892412Y585175D01*
X1892362Y585424D01*
X1892299Y585663D01*
X1892221Y585890D01*
X1892130Y586107D01*
X1892024Y586312D01*
X1891901Y586510D01*
X1891759Y586701D01*
X1891597Y586886D01*
X1891414Y587064D01*
X1891212Y587237D01*
X1890990Y587404D01*
X1890487Y587718D01*
X1890487Y587771D01*
X1890945Y587819D01*
X1891149Y587859D01*
X1891338Y587910D01*
X1891510Y587971D01*
X1891665Y588044D01*
X1891805Y588127D01*
X1891928Y588222D01*
X1892036Y588329D01*
X1892129Y588451D01*
X1892208Y588588D01*
X1892273Y588740D01*
X1892323Y588906D01*
X1892359Y589088D01*
X1892380Y589285D01*
X1892388Y589496D01*
X1892379Y589805D01*
X1892353Y590111D01*
X1892309Y590414D01*
X1892247Y590713D01*
X1891267Y590713D01*
X1891313Y590440D01*
X1891328Y590197D01*
X1891306Y589959D01*
X1891239Y589763D01*
X1891128Y589609D01*
X1890973Y589496D01*
X1890774Y589416D01*
X1890532Y589358D01*
X1890246Y589324D01*
X1889918Y589312D01*
X1885836Y589312D01*
X1885460Y589298D01*
X1885107Y589256D01*
X1884776Y589185D01*
X1884469Y589087D01*
X1884184Y588960D01*
X1883922Y588805D01*
X1883683Y588621D01*
X1883467Y588410D01*
X1883275Y588171D01*
X1883109Y587904D01*
X1882968Y587609D01*
X1882853Y587287D01*
X1882763Y586937D01*
X1882699Y586559D01*
X1882661Y586154D01*
X1882648Y585721D01*
X1882658Y585308D01*
X1882688Y584918D01*
X1882738Y584552D01*
X1882808Y584209D01*
X1882898Y583890D01*
X1883008Y583594D01*
X1883138Y583321D01*
X1883287Y583072D01*
X1883457Y582846D01*
X1883647Y582643D01*
X1883857Y582464D01*
X1884087Y582309D01*
X1884336Y582176D01*
X1884606Y582067D01*
X1884896Y581982D01*
X1885206Y581920D01*
X1885355Y583567D01*
X1885164Y583597D01*
X1884987Y583639D01*
X1884824Y583693D01*
X1884674Y583759D01*
X1884537Y583837D01*
X1884414Y583928D01*
X1884304Y584030D01*
X1884207Y584145D01*
X1884123Y584274D01*
X1884050Y584422D01*
X1883988Y584587D01*
X1883938Y584771D01*
X1883899Y584973D01*
X1883870Y585192D01*
X1883848Y585686D01*
X1883856Y585940D01*
X1883879Y586177D01*
X1883918Y586396D01*
X1883973Y586597D01*
X1884043Y586781D01*
X1884129Y586947D01*
X1884230Y587096D01*
X1884347Y587228D01*
X1884482Y587343D01*
X1884638Y587442D01*
X1884814Y587526D01*
X1885011Y587595D01*
X1885228Y587649D01*
X1885466Y587687D01*
X1885724Y587710D01*
X1886003Y587718D01*
X1886519Y587718D01*
X1886554Y585590D01*
X1886579Y585070D01*
X1886627Y584587D01*
X1886697Y584141D01*
X1886791Y583732D01*
X1886908Y583360D01*
X1887047Y583025D01*
X1887210Y582728D01*
X1887395Y582467D01*
X1887603Y582240D01*
X1887832Y582044D01*
X1888083Y581878D01*
X1888354Y581741D01*
X1888647Y581636D01*
X1888962Y581560D01*
X1889298Y581515D01*
X1889655Y581499D01*
X1889975Y581511D01*
G37*
%LPC*%
G36*
X1889343Y583139D02*
X1889040Y583196D01*
X1888770Y583292D01*
X1888534Y583426D01*
X1888329Y583596D01*
X1888153Y583800D01*
X1888005Y584036D01*
X1887886Y584307D01*
X1887793Y584627D01*
X1887724Y585015D01*
X1887679Y585470D01*
X1887658Y585993D01*
X1887623Y587718D01*
X1888402Y587718D01*
X1888763Y587694D01*
X1889120Y587621D01*
X1889471Y587499D01*
X1889817Y587328D01*
X1890142Y587116D01*
X1890431Y586867D01*
X1890683Y586584D01*
X1890899Y586264D01*
X1891071Y585915D01*
X1891194Y585542D01*
X1891268Y585144D01*
X1891287Y584936D01*
X1891293Y584723D01*
X1891286Y584535D01*
X1891267Y584359D01*
X1891234Y584194D01*
X1891188Y584041D01*
X1891129Y583898D01*
X1891056Y583766D01*
X1890971Y583645D01*
X1890872Y583536D01*
X1890762Y583438D01*
X1890640Y583354D01*
X1890508Y583282D01*
X1890364Y583224D01*
X1890210Y583178D01*
X1890045Y583146D01*
X1889868Y583126D01*
X1889681Y583120D01*
X1889343Y583139D01*
G37*
%LPD*%
G36*
X1869049Y571517D02*
X1869609Y571568D01*
X1870132Y571654D01*
X1870616Y571774D01*
X1871062Y571929D01*
X1871470Y572118D01*
X1871841Y572341D01*
X1872173Y572599D01*
X1872466Y572889D01*
X1872721Y573211D01*
X1872936Y573564D01*
X1873112Y573949D01*
X1873249Y574364D01*
X1873347Y574812D01*
X1873406Y575290D01*
X1873425Y575800D01*
X1873416Y576168D01*
X1873390Y576519D01*
X1873346Y576854D01*
X1873285Y577171D01*
X1873206Y577472D01*
X1873110Y577755D01*
X1872996Y578022D01*
X1872865Y578272D01*
X1872716Y578505D01*
X1872549Y578721D01*
X1872365Y578920D01*
X1872164Y579102D01*
X1871945Y579268D01*
X1871709Y579416D01*
X1871455Y579548D01*
X1871183Y579662D01*
X1870789Y578279D01*
X1871091Y578144D01*
X1871365Y577960D01*
X1871612Y577726D01*
X1871831Y577442D01*
X1871928Y577281D01*
X1872011Y577108D01*
X1872082Y576922D01*
X1872140Y576723D01*
X1872185Y576511D01*
X1872217Y576287D01*
X1872236Y576050D01*
X1872243Y575800D01*
X1872229Y575486D01*
X1872188Y575191D01*
X1872118Y574915D01*
X1872022Y574659D01*
X1871897Y574423D01*
X1871745Y574205D01*
X1871566Y574008D01*
X1871358Y573829D01*
X1871125Y573671D01*
X1870869Y573534D01*
X1870590Y573418D01*
X1870287Y573323D01*
X1869962Y573250D01*
X1869612Y573197D01*
X1869240Y573165D01*
X1868844Y573155D01*
X1868844Y579916D01*
X1868634Y579916D01*
X1868024Y579900D01*
X1867454Y579851D01*
X1866923Y579770D01*
X1866431Y579655D01*
X1865978Y579508D01*
X1865565Y579329D01*
X1865192Y579117D01*
X1864857Y578872D01*
X1864562Y578595D01*
X1864306Y578284D01*
X1864090Y577942D01*
X1863913Y577566D01*
X1863775Y577158D01*
X1863677Y576718D01*
X1863618Y576245D01*
X1863598Y575739D01*
X1863618Y575243D01*
X1863676Y574777D01*
X1863774Y574340D01*
X1863911Y573933D01*
X1864087Y573555D01*
X1864303Y573207D01*
X1864557Y572888D01*
X1864851Y572599D01*
X1865181Y572341D01*
X1865545Y572118D01*
X1865944Y571929D01*
X1866377Y571774D01*
X1866844Y571654D01*
X1867345Y571568D01*
X1867881Y571517D01*
X1868450Y571499D01*
X1869049Y571517D01*
G37*
%LPC*%
G36*
X1867310Y573195D02*
X1867002Y573237D01*
X1866711Y573299D01*
X1866439Y573379D01*
X1866185Y573479D01*
X1865948Y573599D01*
X1865730Y573737D01*
X1865529Y573895D01*
X1865350Y574070D01*
X1865194Y574260D01*
X1865062Y574465D01*
X1864955Y574684D01*
X1864871Y574919D01*
X1864811Y575169D01*
X1864775Y575433D01*
X1864763Y575712D01*
X1864774Y575999D01*
X1864806Y576269D01*
X1864860Y576522D01*
X1864935Y576757D01*
X1865032Y576975D01*
X1865150Y577176D01*
X1865289Y577359D01*
X1865451Y577525D01*
X1865635Y577675D01*
X1865845Y577809D01*
X1866080Y577928D01*
X1866341Y578031D01*
X1866626Y578119D01*
X1866938Y578190D01*
X1867274Y578247D01*
X1867636Y578287D01*
X1867636Y573172D01*
X1867310Y573195D01*
G37*
%LPD*%
G36*
X1869049Y594454D02*
X1869609Y594506D01*
X1870132Y594592D01*
X1870616Y594712D01*
X1871062Y594866D01*
X1871470Y595055D01*
X1871841Y595279D01*
X1872173Y595536D01*
X1872466Y595827D01*
X1872721Y596148D01*
X1872936Y596502D01*
X1873112Y596886D01*
X1873249Y597302D01*
X1873347Y597749D01*
X1873406Y598228D01*
X1873425Y598737D01*
X1873416Y599106D01*
X1873390Y599457D01*
X1873346Y599791D01*
X1873285Y600109D01*
X1873206Y600409D01*
X1873110Y600693D01*
X1872996Y600960D01*
X1872865Y601210D01*
X1872716Y601442D01*
X1872549Y601659D01*
X1872365Y601858D01*
X1872164Y602040D01*
X1871945Y602205D01*
X1871709Y602354D01*
X1871455Y602485D01*
X1871183Y602600D01*
X1870789Y601216D01*
X1871091Y601082D01*
X1871365Y600898D01*
X1871612Y600663D01*
X1871831Y600380D01*
X1871928Y600219D01*
X1872011Y600045D01*
X1872082Y599859D01*
X1872140Y599660D01*
X1872185Y599449D01*
X1872217Y599224D01*
X1872236Y598987D01*
X1872243Y598737D01*
X1872229Y598423D01*
X1872188Y598128D01*
X1872118Y597853D01*
X1872022Y597597D01*
X1871897Y597360D01*
X1871745Y597143D01*
X1871566Y596945D01*
X1871358Y596767D01*
X1871125Y596609D01*
X1870869Y596472D01*
X1870590Y596356D01*
X1870287Y596261D01*
X1869962Y596187D01*
X1869612Y596135D01*
X1869240Y596103D01*
X1868844Y596092D01*
X1868844Y602854D01*
X1868634Y602854D01*
X1868024Y602838D01*
X1867454Y602789D01*
X1866923Y602707D01*
X1866431Y602593D01*
X1865978Y602446D01*
X1865565Y602266D01*
X1865192Y602054D01*
X1864857Y601809D01*
X1864562Y601532D01*
X1864306Y601222D01*
X1864090Y600879D01*
X1863913Y600504D01*
X1863775Y600096D01*
X1863677Y599655D01*
X1863618Y599182D01*
X1863598Y598676D01*
X1863618Y598181D01*
X1863676Y597715D01*
X1863774Y597278D01*
X1863911Y596871D01*
X1864087Y596493D01*
X1864303Y596145D01*
X1864557Y595826D01*
X1864851Y595536D01*
X1865181Y595279D01*
X1865545Y595055D01*
X1865944Y594866D01*
X1866377Y594712D01*
X1866844Y594592D01*
X1867345Y594506D01*
X1867881Y594454D01*
X1868450Y594437D01*
X1869049Y594454D01*
G37*
%LPC*%
G36*
X1867310Y596133D02*
X1867002Y596175D01*
X1866711Y596236D01*
X1866439Y596317D01*
X1866185Y596417D01*
X1865948Y596536D01*
X1865730Y596675D01*
X1865529Y596832D01*
X1865350Y597007D01*
X1865194Y597197D01*
X1865062Y597402D01*
X1864955Y597622D01*
X1864871Y597856D01*
X1864811Y598106D01*
X1864775Y598370D01*
X1864763Y598650D01*
X1864774Y598937D01*
X1864806Y599207D01*
X1864860Y599459D01*
X1864935Y599694D01*
X1865032Y599912D01*
X1865150Y600113D01*
X1865289Y600297D01*
X1865451Y600463D01*
X1865635Y600613D01*
X1865845Y600747D01*
X1866080Y600866D01*
X1866341Y600969D01*
X1866626Y601056D01*
X1866938Y601128D01*
X1867274Y601184D01*
X1867636Y601225D01*
X1867636Y596110D01*
X1867310Y596133D01*
G37*
%LPD*%
G36*
X1869049Y647267D02*
X1869609Y647318D01*
X1870132Y647404D01*
X1870616Y647524D01*
X1871062Y647679D01*
X1871470Y647868D01*
X1871841Y648091D01*
X1872173Y648349D01*
X1872466Y648639D01*
X1872721Y648961D01*
X1872936Y649314D01*
X1873112Y649699D01*
X1873249Y650114D01*
X1873347Y650562D01*
X1873406Y651040D01*
X1873425Y651550D01*
X1873416Y651918D01*
X1873390Y652269D01*
X1873346Y652604D01*
X1873285Y652921D01*
X1873206Y653222D01*
X1873110Y653505D01*
X1872996Y653772D01*
X1872865Y654022D01*
X1872716Y654255D01*
X1872549Y654471D01*
X1872365Y654670D01*
X1872164Y654852D01*
X1871945Y655018D01*
X1871709Y655166D01*
X1871455Y655298D01*
X1871183Y655412D01*
X1870789Y654029D01*
X1871091Y653894D01*
X1871365Y653710D01*
X1871612Y653476D01*
X1871831Y653192D01*
X1871928Y653031D01*
X1872011Y652858D01*
X1872082Y652672D01*
X1872140Y652473D01*
X1872185Y652261D01*
X1872217Y652037D01*
X1872236Y651800D01*
X1872243Y651550D01*
X1872229Y651236D01*
X1872188Y650941D01*
X1872118Y650665D01*
X1872022Y650409D01*
X1871897Y650173D01*
X1871745Y649955D01*
X1871566Y649758D01*
X1871358Y649579D01*
X1871125Y649421D01*
X1870869Y649284D01*
X1870590Y649168D01*
X1870287Y649073D01*
X1869962Y649000D01*
X1869612Y648947D01*
X1869240Y648915D01*
X1868844Y648905D01*
X1868844Y655666D01*
X1868634Y655666D01*
X1868024Y655650D01*
X1867454Y655601D01*
X1866923Y655520D01*
X1866431Y655405D01*
X1865978Y655258D01*
X1865565Y655079D01*
X1865192Y654867D01*
X1864857Y654622D01*
X1864562Y654345D01*
X1864306Y654034D01*
X1864090Y653692D01*
X1863913Y653316D01*
X1863775Y652908D01*
X1863677Y652468D01*
X1863618Y651995D01*
X1863598Y651489D01*
X1863618Y650993D01*
X1863676Y650527D01*
X1863774Y650090D01*
X1863911Y649683D01*
X1864087Y649305D01*
X1864303Y648957D01*
X1864557Y648638D01*
X1864851Y648349D01*
X1865181Y648091D01*
X1865545Y647868D01*
X1865944Y647679D01*
X1866377Y647524D01*
X1866844Y647404D01*
X1867345Y647318D01*
X1867881Y647267D01*
X1868450Y647249D01*
X1869049Y647267D01*
G37*
%LPC*%
G36*
X1867310Y648945D02*
X1867002Y648987D01*
X1866711Y649049D01*
X1866439Y649129D01*
X1866185Y649229D01*
X1865948Y649349D01*
X1865730Y649487D01*
X1865529Y649645D01*
X1865350Y649820D01*
X1865194Y650010D01*
X1865062Y650215D01*
X1864955Y650434D01*
X1864871Y650669D01*
X1864811Y650919D01*
X1864775Y651183D01*
X1864763Y651462D01*
X1864774Y651749D01*
X1864806Y652019D01*
X1864860Y652272D01*
X1864935Y652507D01*
X1865032Y652725D01*
X1865150Y652926D01*
X1865289Y653109D01*
X1865451Y653275D01*
X1865635Y653425D01*
X1865845Y653559D01*
X1866080Y653678D01*
X1866341Y653781D01*
X1866626Y653869D01*
X1866938Y653940D01*
X1867274Y653997D01*
X1867636Y654037D01*
X1867636Y648922D01*
X1867310Y648945D01*
G37*
%LPD*%
G36*
X1892300Y616759D02*
X1892300Y618493D01*
X1879959Y623529D01*
X1879959Y621769D01*
X1888648Y618370D01*
X1890829Y617635D01*
X1888648Y616899D01*
X1879959Y613483D01*
X1879959Y611723D01*
X1892300Y616759D01*
G37*
G36*
X1892300Y647650D02*
X1890960Y647650D01*
X1890960Y644646D01*
X1879959Y644646D01*
X1879959Y643192D01*
X1881965Y640275D01*
X1883454Y640275D01*
X1881466Y643061D01*
X1890960Y643061D01*
X1890960Y639916D01*
X1892300Y639916D01*
X1892300Y647650D01*
G37*
G36*
X1873250Y641022D02*
X1873250Y642888D01*
X1863773Y646426D01*
X1863773Y644753D01*
X1869957Y642599D01*
X1870990Y642257D01*
X1872015Y641951D01*
X1869939Y641346D01*
X1863773Y639262D01*
X1863773Y637580D01*
X1873250Y641022D01*
G37*
G36*
X1864921Y586073D02*
X1871244Y586073D01*
X1871504Y586080D01*
X1871747Y586102D01*
X1871974Y586139D01*
X1872183Y586191D01*
X1872376Y586257D01*
X1872552Y586339D01*
X1872711Y586435D01*
X1872854Y586546D01*
X1872979Y586671D01*
X1873088Y586812D01*
X1873181Y586967D01*
X1873256Y587137D01*
X1873315Y587321D01*
X1873357Y587521D01*
X1873382Y587735D01*
X1873390Y587964D01*
X1873377Y588370D01*
X1873338Y588770D01*
X1873272Y589167D01*
X1873180Y589558D01*
X1872015Y589558D01*
X1872107Y589033D01*
X1872138Y588648D01*
X1872120Y588392D01*
X1872069Y588178D01*
X1871983Y588005D01*
X1871862Y587872D01*
X1871698Y587775D01*
X1871484Y587705D01*
X1871219Y587663D01*
X1870903Y587649D01*
X1864921Y587649D01*
X1864921Y589401D01*
X1863773Y589401D01*
X1863773Y587649D01*
X1861654Y587649D01*
X1861654Y586598D01*
X1863773Y586134D01*
X1863773Y584978D01*
X1864921Y584978D01*
X1864921Y586073D01*
G37*
G36*
X1873250Y583523D02*
X1860252Y583523D01*
X1860252Y581946D01*
X1873250Y581946D01*
X1873250Y583523D01*
G37*
G36*
X1864929Y604874D02*
X1865980Y604887D01*
X1873250Y604887D01*
X1873250Y606464D01*
X1868310Y606464D01*
X1867928Y606472D01*
X1867568Y606496D01*
X1867231Y606537D01*
X1866917Y606593D01*
X1866625Y606666D01*
X1866357Y606755D01*
X1866111Y606860D01*
X1865888Y606981D01*
X1865690Y607117D01*
X1865519Y607268D01*
X1865373Y607434D01*
X1865255Y607614D01*
X1865162Y607808D01*
X1865096Y608017D01*
X1865056Y608240D01*
X1865043Y608478D01*
X1865065Y608951D01*
X1865093Y609148D01*
X1865131Y609319D01*
X1863686Y609319D01*
X1863620Y608997D01*
X1863598Y608680D01*
X1863605Y608463D01*
X1863626Y608258D01*
X1863661Y608067D01*
X1863710Y607887D01*
X1863773Y607721D01*
X1863849Y607566D01*
X1863940Y607425D01*
X1864045Y607296D01*
X1864169Y607175D01*
X1864316Y607058D01*
X1864684Y606834D01*
X1865148Y606624D01*
X1865709Y606429D01*
X1865709Y606394D01*
X1863773Y606324D01*
X1863773Y604835D01*
X1864929Y604874D01*
G37*
G36*
X1864929Y628781D02*
X1865980Y628794D01*
X1873250Y628794D01*
X1873250Y630370D01*
X1868310Y630370D01*
X1867928Y630378D01*
X1867568Y630403D01*
X1867231Y630443D01*
X1866917Y630499D01*
X1866625Y630572D01*
X1866357Y630661D01*
X1866111Y630766D01*
X1865888Y630887D01*
X1865690Y631023D01*
X1865519Y631174D01*
X1865373Y631340D01*
X1865255Y631520D01*
X1865162Y631714D01*
X1865096Y631923D01*
X1865056Y632147D01*
X1865043Y632385D01*
X1865065Y632858D01*
X1865093Y633055D01*
X1865131Y633226D01*
X1863686Y633226D01*
X1863620Y632904D01*
X1863598Y632586D01*
X1863605Y632369D01*
X1863626Y632165D01*
X1863661Y631973D01*
X1863710Y631794D01*
X1863773Y631627D01*
X1863849Y631473D01*
X1863940Y631331D01*
X1864045Y631202D01*
X1864169Y631081D01*
X1864316Y630964D01*
X1864684Y630740D01*
X1865148Y630531D01*
X1865709Y630335D01*
X1865709Y630300D01*
X1863773Y630230D01*
X1863773Y628741D01*
X1864929Y628781D01*
G37*
G36*
X1864929Y657687D02*
X1865980Y657700D01*
X1873250Y657700D01*
X1873250Y659277D01*
X1868310Y659277D01*
X1867928Y659285D01*
X1867568Y659309D01*
X1867231Y659349D01*
X1866917Y659406D01*
X1866625Y659478D01*
X1866357Y659567D01*
X1866111Y659672D01*
X1865888Y659793D01*
X1865690Y659930D01*
X1865519Y660081D01*
X1865373Y660246D01*
X1865255Y660426D01*
X1865162Y660621D01*
X1865096Y660830D01*
X1865056Y661053D01*
X1865043Y661291D01*
X1865065Y661764D01*
X1865093Y661961D01*
X1865131Y662132D01*
X1863686Y662132D01*
X1863620Y661810D01*
X1863598Y661492D01*
X1863605Y661275D01*
X1863626Y661071D01*
X1863661Y660879D01*
X1863710Y660700D01*
X1863773Y660533D01*
X1863849Y660379D01*
X1863940Y660237D01*
X1864045Y660109D01*
X1864169Y659988D01*
X1864316Y659870D01*
X1864684Y659647D01*
X1865148Y659437D01*
X1865709Y659241D01*
X1865709Y659206D01*
X1863773Y659136D01*
X1863773Y657647D01*
X1864929Y657687D01*
G37*
G36*
X1883979Y591937D02*
X1885030Y591950D01*
X1892300Y591950D01*
X1892300Y593527D01*
X1887360Y593527D01*
X1886978Y593535D01*
X1886618Y593559D01*
X1886281Y593599D01*
X1885967Y593656D01*
X1885675Y593728D01*
X1885407Y593817D01*
X1885161Y593922D01*
X1884938Y594043D01*
X1884740Y594180D01*
X1884569Y594331D01*
X1884423Y594496D01*
X1884305Y594676D01*
X1884212Y594871D01*
X1884146Y595080D01*
X1884106Y595303D01*
X1884093Y595541D01*
X1884115Y596014D01*
X1884143Y596211D01*
X1884181Y596382D01*
X1882736Y596382D01*
X1882670Y596060D01*
X1882648Y595742D01*
X1882655Y595525D01*
X1882676Y595321D01*
X1882711Y595129D01*
X1882760Y594950D01*
X1882823Y594783D01*
X1882899Y594629D01*
X1882990Y594487D01*
X1883095Y594359D01*
X1883219Y594238D01*
X1883366Y594120D01*
X1883734Y593897D01*
X1884198Y593687D01*
X1884759Y593491D01*
X1884759Y593456D01*
X1882823Y593386D01*
X1882823Y591897D01*
X1883979Y591937D01*
G37*
G36*
X1873250Y592483D02*
X1863773Y592483D01*
X1863773Y590906D01*
X1873250Y590906D01*
X1873250Y592483D01*
G37*
G36*
X1873250Y636326D02*
X1863773Y636326D01*
X1863773Y634750D01*
X1873250Y634750D01*
X1873250Y636326D01*
G37*
G36*
X1892300Y636927D02*
X1890382Y636927D01*
X1890382Y635219D01*
X1892300Y635219D01*
X1892300Y636927D01*
G37*
G36*
X1861759Y592483D02*
X1860252Y592483D01*
X1860252Y590906D01*
X1861759Y590906D01*
X1861759Y592483D01*
G37*
G36*
X1861759Y636326D02*
X1860252Y636326D01*
X1860252Y634750D01*
X1861759Y634750D01*
X1861759Y636326D01*
G37*
G36*
X1331050Y827879D02*
X1331310Y827902D01*
X1331563Y827941D01*
X1331807Y827996D01*
X1332042Y828066D01*
X1332270Y828152D01*
X1332489Y828253D01*
X1332700Y828370D01*
X1332901Y828501D01*
X1333090Y828648D01*
X1333268Y828808D01*
X1333434Y828983D01*
X1333589Y829171D01*
X1333732Y829375D01*
X1333863Y829592D01*
X1333983Y829824D01*
X1333164Y830233D01*
X1332957Y829873D01*
X1332725Y829560D01*
X1332469Y829296D01*
X1332189Y829080D01*
X1331885Y828911D01*
X1331557Y828791D01*
X1331205Y828719D01*
X1330828Y828695D01*
X1330533Y828708D01*
X1330253Y828747D01*
X1329989Y828811D01*
X1329741Y828902D01*
X1329509Y829018D01*
X1329292Y829160D01*
X1329090Y829328D01*
X1328905Y829522D01*
X1328738Y829737D01*
X1328593Y829968D01*
X1328471Y830217D01*
X1328371Y830482D01*
X1328293Y830763D01*
X1328238Y831062D01*
X1328204Y831377D01*
X1328193Y831708D01*
X1328204Y832043D01*
X1328236Y832359D01*
X1328289Y832657D01*
X1328364Y832937D01*
X1328460Y833198D01*
X1328577Y833442D01*
X1328716Y833667D01*
X1328876Y833873D01*
X1329055Y834058D01*
X1329251Y834219D01*
X1329464Y834355D01*
X1329695Y834466D01*
X1329942Y834552D01*
X1330206Y834614D01*
X1330488Y834651D01*
X1330786Y834663D01*
X1331164Y834642D01*
X1331515Y834578D01*
X1331840Y834471D01*
X1332138Y834322D01*
X1332403Y834132D01*
X1332629Y833905D01*
X1332817Y833639D01*
X1332965Y833335D01*
X1333915Y833650D01*
X1333815Y833870D01*
X1333702Y834076D01*
X1333576Y834269D01*
X1333437Y834447D01*
X1333285Y834611D01*
X1333120Y834761D01*
X1332941Y834898D01*
X1332750Y835020D01*
X1332545Y835128D01*
X1332329Y835222D01*
X1332100Y835302D01*
X1331860Y835367D01*
X1331607Y835417D01*
X1331342Y835453D01*
X1331065Y835475D01*
X1330776Y835482D01*
X1330365Y835466D01*
X1329977Y835419D01*
X1329612Y835341D01*
X1329269Y835231D01*
X1328950Y835090D01*
X1328654Y834918D01*
X1328381Y834715D01*
X1328130Y834480D01*
X1327906Y834217D01*
X1327712Y833930D01*
X1327548Y833620D01*
X1327414Y833285D01*
X1327309Y832927D01*
X1327235Y832545D01*
X1327190Y832138D01*
X1327175Y831708D01*
X1327182Y831418D01*
X1327202Y831137D01*
X1327235Y830867D01*
X1327282Y830606D01*
X1327342Y830356D01*
X1327416Y830115D01*
X1327503Y829884D01*
X1327603Y829664D01*
X1327716Y829454D01*
X1327841Y829257D01*
X1327978Y829072D01*
X1328128Y828900D01*
X1328289Y828740D01*
X1328463Y828593D01*
X1328649Y828458D01*
X1328847Y828336D01*
X1329056Y828227D01*
X1329274Y828132D01*
X1329501Y828052D01*
X1329739Y827987D01*
X1329985Y827936D01*
X1330241Y827900D01*
X1330506Y827878D01*
X1330781Y827871D01*
X1331050Y827879D01*
G37*
G36*
X1339833Y828779D02*
X1338032Y828779D01*
X1338032Y835372D01*
X1337161Y835372D01*
X1335413Y834170D01*
X1335413Y833278D01*
X1337082Y834469D01*
X1337082Y828779D01*
X1335198Y828779D01*
X1335198Y827976D01*
X1339833Y827976D01*
X1339833Y828779D01*
G37*
G36*
X1539149Y845157D02*
X1534941Y845157D01*
X1534941Y860566D01*
X1532905Y860566D01*
X1528819Y857756D01*
X1528819Y855671D01*
X1532721Y858456D01*
X1532721Y845157D01*
X1528316Y845157D01*
X1528316Y843280D01*
X1539149Y843280D01*
X1539149Y845157D01*
G37*
G36*
X1520023Y843057D02*
X1520568Y843125D01*
X1521081Y843237D01*
X1521563Y843395D01*
X1522013Y843598D01*
X1522432Y843845D01*
X1522820Y844138D01*
X1523176Y844476D01*
X1523495Y844853D01*
X1523772Y845264D01*
X1524006Y845708D01*
X1524197Y846186D01*
X1524346Y846697D01*
X1524453Y847242D01*
X1524516Y847821D01*
X1524538Y848433D01*
X1524538Y860566D01*
X1518882Y860566D01*
X1518882Y858652D01*
X1522207Y858652D01*
X1522207Y848384D01*
X1522195Y847973D01*
X1522161Y847588D01*
X1522103Y847228D01*
X1522023Y846894D01*
X1521919Y846586D01*
X1521793Y846303D01*
X1521643Y846045D01*
X1521471Y845813D01*
X1521278Y845608D01*
X1521069Y845430D01*
X1520843Y845279D01*
X1520600Y845155D01*
X1520340Y845060D01*
X1520063Y844991D01*
X1519769Y844950D01*
X1519459Y844936D01*
X1519174Y844949D01*
X1518901Y844986D01*
X1518640Y845048D01*
X1518391Y845136D01*
X1518155Y845248D01*
X1517931Y845385D01*
X1517720Y845547D01*
X1517520Y845734D01*
X1517336Y845943D01*
X1517168Y846171D01*
X1517018Y846420D01*
X1516886Y846687D01*
X1516770Y846975D01*
X1516672Y847282D01*
X1516591Y847608D01*
X1516527Y847954D01*
X1514233Y847574D01*
X1514349Y847024D01*
X1514494Y846510D01*
X1514666Y846031D01*
X1514867Y845588D01*
X1515095Y845180D01*
X1515351Y844808D01*
X1515635Y844471D01*
X1515947Y844169D01*
X1516287Y843903D01*
X1516655Y843673D01*
X1517050Y843478D01*
X1517474Y843318D01*
X1517925Y843194D01*
X1518404Y843106D01*
X1518911Y843052D01*
X1519447Y843035D01*
X1520023Y843057D01*
G37*
G36*
X1296162Y977993D02*
X1294822Y977993D01*
X1294822Y971555D01*
X1294512Y971707D01*
X1294197Y971901D01*
X1293875Y972136D01*
X1293548Y972413D01*
X1293207Y972737D01*
X1292846Y973112D01*
X1292465Y973538D01*
X1292063Y974016D01*
X1291367Y974858D01*
X1290769Y975551D01*
X1290268Y976097D01*
X1289865Y976495D01*
X1289510Y976799D01*
X1289155Y977063D01*
X1288800Y977287D01*
X1288446Y977471D01*
X1288090Y977615D01*
X1287734Y977718D01*
X1287377Y977779D01*
X1287018Y977800D01*
X1286625Y977784D01*
X1286254Y977737D01*
X1285907Y977659D01*
X1285583Y977549D01*
X1285282Y977408D01*
X1285004Y977236D01*
X1284749Y977032D01*
X1284518Y976797D01*
X1284311Y976533D01*
X1284132Y976242D01*
X1283981Y975924D01*
X1283857Y975579D01*
X1283761Y975206D01*
X1283692Y974808D01*
X1283651Y974382D01*
X1283637Y973929D01*
X1283651Y973513D01*
X1283692Y973118D01*
X1283760Y972741D01*
X1283856Y972384D01*
X1283979Y972046D01*
X1284130Y971727D01*
X1284308Y971428D01*
X1284513Y971148D01*
X1284742Y970892D01*
X1284989Y970664D01*
X1285255Y970464D01*
X1285540Y970293D01*
X1285844Y970150D01*
X1286167Y970035D01*
X1286509Y969949D01*
X1286869Y969891D01*
X1287018Y971503D01*
X1286778Y971539D01*
X1286551Y971593D01*
X1286338Y971664D01*
X1286139Y971751D01*
X1285954Y971855D01*
X1285782Y971976D01*
X1285625Y972114D01*
X1285481Y972269D01*
X1285353Y972438D01*
X1285241Y972617D01*
X1285147Y972808D01*
X1285070Y973010D01*
X1285011Y973223D01*
X1284968Y973447D01*
X1284942Y973682D01*
X1284934Y973929D01*
X1284942Y974186D01*
X1284969Y974430D01*
X1285012Y974658D01*
X1285074Y974872D01*
X1285153Y975072D01*
X1285249Y975257D01*
X1285363Y975428D01*
X1285494Y975584D01*
X1285641Y975724D01*
X1285803Y975845D01*
X1285979Y975947D01*
X1286169Y976031D01*
X1286373Y976096D01*
X1286591Y976142D01*
X1286824Y976170D01*
X1287071Y976180D01*
X1287437Y976158D01*
X1287784Y976093D01*
X1288112Y975985D01*
X1288419Y975834D01*
X1288714Y975647D01*
X1289002Y975434D01*
X1289283Y975194D01*
X1289558Y974927D01*
X1290101Y974333D01*
X1290644Y973670D01*
X1291210Y972971D01*
X1291822Y972265D01*
X1292149Y971914D01*
X1292494Y971571D01*
X1292858Y971237D01*
X1293241Y970911D01*
X1293648Y970602D01*
X1294085Y970317D01*
X1294552Y970057D01*
X1295050Y969821D01*
X1296162Y969821D01*
X1296162Y977993D01*
G37*
G36*
X1293489Y960314D02*
X1293856Y960417D01*
X1294198Y960540D01*
X1294514Y960683D01*
X1294805Y960846D01*
X1295071Y961029D01*
X1295312Y961232D01*
X1295527Y961454D01*
X1295717Y961697D01*
X1295881Y961959D01*
X1296021Y962242D01*
X1296135Y962544D01*
X1296223Y962866D01*
X1296287Y963209D01*
X1296325Y963571D01*
X1296337Y963953D01*
X1296321Y964364D01*
X1296273Y964753D01*
X1296192Y965119D01*
X1296080Y965464D01*
X1295935Y965785D01*
X1295758Y966084D01*
X1295549Y966361D01*
X1295308Y966615D01*
X1295039Y966843D01*
X1294746Y967041D01*
X1294428Y967208D01*
X1294087Y967344D01*
X1293722Y967451D01*
X1293333Y967527D01*
X1292920Y967572D01*
X1292483Y967587D01*
X1283821Y967587D01*
X1283821Y963550D01*
X1285188Y963550D01*
X1285188Y965923D01*
X1292518Y965923D01*
X1292812Y965915D01*
X1293086Y965890D01*
X1293343Y965849D01*
X1293582Y965792D01*
X1293802Y965718D01*
X1294004Y965628D01*
X1294188Y965521D01*
X1294353Y965398D01*
X1294500Y965260D01*
X1294627Y965111D01*
X1294735Y964949D01*
X1294823Y964776D01*
X1294892Y964590D01*
X1294940Y964393D01*
X1294970Y964183D01*
X1294980Y963961D01*
X1294971Y963758D01*
X1294944Y963563D01*
X1294900Y963377D01*
X1294837Y963199D01*
X1294757Y963031D01*
X1294659Y962871D01*
X1294544Y962720D01*
X1294410Y962578D01*
X1294261Y962446D01*
X1294098Y962326D01*
X1293921Y962219D01*
X1293729Y962124D01*
X1293524Y962042D01*
X1293305Y961972D01*
X1293072Y961914D01*
X1292825Y961868D01*
X1293097Y960230D01*
X1293489Y960314D01*
G37*
G36*
X1281295Y677527D02*
X1281758Y677561D01*
X1282206Y677618D01*
X1282639Y677698D01*
X1283057Y677800D01*
X1283459Y677925D01*
X1283847Y678072D01*
X1284219Y678243D01*
X1284573Y678435D01*
X1284905Y678647D01*
X1285216Y678880D01*
X1285505Y679133D01*
X1285773Y679406D01*
X1286019Y679700D01*
X1286244Y680015D01*
X1286448Y680349D01*
X1286628Y680702D01*
X1286785Y681072D01*
X1286917Y681457D01*
X1287026Y681859D01*
X1287110Y682277D01*
X1287170Y682712D01*
X1287206Y683162D01*
X1287218Y683629D01*
X1287206Y684092D01*
X1287170Y684540D01*
X1287109Y684971D01*
X1287024Y685388D01*
X1286914Y685788D01*
X1286780Y686173D01*
X1286622Y686543D01*
X1286439Y686896D01*
X1286234Y687232D01*
X1286007Y687548D01*
X1285760Y687844D01*
X1285491Y688119D01*
X1285201Y688375D01*
X1284890Y688610D01*
X1284559Y688825D01*
X1284206Y689020D01*
X1283835Y689194D01*
X1283449Y689344D01*
X1283047Y689471D01*
X1282631Y689575D01*
X1282200Y689656D01*
X1281754Y689714D01*
X1281292Y689749D01*
X1280816Y689760D01*
X1280338Y689749D01*
X1279876Y689715D01*
X1279430Y689657D01*
X1279001Y689578D01*
X1278587Y689475D01*
X1278190Y689349D01*
X1277809Y689200D01*
X1277444Y689029D01*
X1277098Y688836D01*
X1276773Y688623D01*
X1276469Y688389D01*
X1276186Y688135D01*
X1275925Y687860D01*
X1275684Y687565D01*
X1275465Y687250D01*
X1275267Y686914D01*
X1275092Y686560D01*
X1274940Y686191D01*
X1274811Y685806D01*
X1274706Y685405D01*
X1274624Y684989D01*
X1274565Y684557D01*
X1274530Y684110D01*
X1274519Y683647D01*
X1274525Y683291D01*
X1274545Y682944D01*
X1274577Y682608D01*
X1274623Y682281D01*
X1274682Y681964D01*
X1274753Y681658D01*
X1274838Y681361D01*
X1274936Y681074D01*
X1275047Y680797D01*
X1275170Y680530D01*
X1275307Y680273D01*
X1275457Y680026D01*
X1275620Y679788D01*
X1275796Y679561D01*
X1276187Y679136D01*
X1276624Y678756D01*
X1277102Y678427D01*
X1277356Y678282D01*
X1277620Y678149D01*
X1277894Y678029D01*
X1278179Y677921D01*
X1278473Y677826D01*
X1278777Y677744D01*
X1279092Y677674D01*
X1279417Y677617D01*
X1279751Y677573D01*
X1280096Y677541D01*
X1280451Y677522D01*
X1280816Y677516D01*
X1281295Y677527D01*
G37*
%LPC*%
G36*
X1280248Y679233D02*
X1279712Y679287D01*
X1279209Y679378D01*
X1278738Y679504D01*
X1278300Y679667D01*
X1277894Y679865D01*
X1277522Y680100D01*
X1277181Y680371D01*
X1276877Y680675D01*
X1276614Y681009D01*
X1276391Y681374D01*
X1276209Y681768D01*
X1276067Y682193D01*
X1275966Y682647D01*
X1275905Y683132D01*
X1275885Y683647D01*
X1275905Y684158D01*
X1275967Y684639D01*
X1276070Y685090D01*
X1276213Y685511D01*
X1276398Y685903D01*
X1276624Y686265D01*
X1276891Y686598D01*
X1277199Y686901D01*
X1277543Y687171D01*
X1277917Y687405D01*
X1278323Y687603D01*
X1278760Y687764D01*
X1279228Y687890D01*
X1279726Y687980D01*
X1280256Y688034D01*
X1280816Y688052D01*
X1281401Y688035D01*
X1281952Y687981D01*
X1282469Y687892D01*
X1282952Y687767D01*
X1283401Y687606D01*
X1283816Y687409D01*
X1284196Y687177D01*
X1284543Y686909D01*
X1284852Y686608D01*
X1285119Y686276D01*
X1285346Y685912D01*
X1285531Y685518D01*
X1285676Y685092D01*
X1285779Y684636D01*
X1285840Y684148D01*
X1285861Y683629D01*
X1285840Y683125D01*
X1285776Y682648D01*
X1285669Y682200D01*
X1285520Y681780D01*
X1285329Y681389D01*
X1285095Y681026D01*
X1284818Y680691D01*
X1284499Y680384D01*
X1284144Y680110D01*
X1283758Y679873D01*
X1283343Y679672D01*
X1282897Y679507D01*
X1282422Y679379D01*
X1281917Y679288D01*
X1281381Y679233D01*
X1280816Y679215D01*
X1280248Y679233D01*
G37*
%LPD*%
G36*
X1287043Y693748D02*
X1282235Y693748D01*
X1282235Y697374D01*
X1282219Y697852D01*
X1282170Y698304D01*
X1282090Y698730D01*
X1281977Y699131D01*
X1281831Y699507D01*
X1281654Y699856D01*
X1281444Y700181D01*
X1281201Y700479D01*
X1280932Y700747D01*
X1280640Y700979D01*
X1280325Y701176D01*
X1279988Y701336D01*
X1279629Y701461D01*
X1279247Y701551D01*
X1278843Y701604D01*
X1278416Y701622D01*
X1277986Y701604D01*
X1277581Y701551D01*
X1277201Y701462D01*
X1276846Y701337D01*
X1276516Y701177D01*
X1276211Y700982D01*
X1275930Y700750D01*
X1275675Y700483D01*
X1275447Y700184D01*
X1275249Y699856D01*
X1275082Y699498D01*
X1274946Y699111D01*
X1274839Y698694D01*
X1274763Y698248D01*
X1274718Y697773D01*
X1274703Y697269D01*
X1274703Y692075D01*
X1287043Y692075D01*
X1287043Y693748D01*
G37*
%LPC*%
G36*
X1276043Y693748D02*
X1276043Y697068D01*
X1276052Y697415D01*
X1276080Y697741D01*
X1276127Y698044D01*
X1276192Y698324D01*
X1276276Y698583D01*
X1276379Y698818D01*
X1276500Y699031D01*
X1276640Y699222D01*
X1276799Y699391D01*
X1276977Y699536D01*
X1277173Y699660D01*
X1277388Y699761D01*
X1277621Y699839D01*
X1277873Y699896D01*
X1278144Y699929D01*
X1278434Y699940D01*
X1278734Y699929D01*
X1279015Y699897D01*
X1279276Y699842D01*
X1279518Y699765D01*
X1279741Y699667D01*
X1279944Y699546D01*
X1280128Y699404D01*
X1280293Y699240D01*
X1280438Y699054D01*
X1280564Y698846D01*
X1280670Y698616D01*
X1280757Y698364D01*
X1280825Y698090D01*
X1280874Y697795D01*
X1280903Y697477D01*
X1280912Y697138D01*
X1280912Y693748D01*
X1276043Y693748D01*
G37*
%LPD*%
G36*
X1287043Y731279D02*
X1282235Y731279D01*
X1282235Y734905D01*
X1282219Y735383D01*
X1282170Y735835D01*
X1282090Y736262D01*
X1281977Y736663D01*
X1281831Y737038D01*
X1281654Y737388D01*
X1281444Y737712D01*
X1281201Y738010D01*
X1280932Y738278D01*
X1280640Y738510D01*
X1280325Y738707D01*
X1279988Y738868D01*
X1279629Y738993D01*
X1279247Y739082D01*
X1278843Y739135D01*
X1278416Y739153D01*
X1277986Y739136D01*
X1277581Y739082D01*
X1277201Y738993D01*
X1276846Y738869D01*
X1276516Y738709D01*
X1276211Y738513D01*
X1275930Y738282D01*
X1275675Y738015D01*
X1275447Y737715D01*
X1275249Y737387D01*
X1275082Y737029D01*
X1274946Y736642D01*
X1274839Y736225D01*
X1274763Y735780D01*
X1274718Y735305D01*
X1274703Y734800D01*
X1274703Y729606D01*
X1287043Y729606D01*
X1287043Y731279D01*
G37*
%LPC*%
G36*
X1276043Y731279D02*
X1276043Y734599D01*
X1276052Y734947D01*
X1276080Y735272D01*
X1276127Y735575D01*
X1276192Y735856D01*
X1276276Y736114D01*
X1276379Y736349D01*
X1276500Y736563D01*
X1276640Y736753D01*
X1276799Y736922D01*
X1276977Y737068D01*
X1277173Y737191D01*
X1277388Y737292D01*
X1277621Y737371D01*
X1277873Y737427D01*
X1278144Y737460D01*
X1278434Y737472D01*
X1278734Y737461D01*
X1279015Y737428D01*
X1279276Y737373D01*
X1279518Y737297D01*
X1279741Y737198D01*
X1279944Y737078D01*
X1280128Y736935D01*
X1280293Y736771D01*
X1280438Y736585D01*
X1280564Y736377D01*
X1280670Y736147D01*
X1280757Y735895D01*
X1280825Y735621D01*
X1280874Y735326D01*
X1280903Y735008D01*
X1280912Y734669D01*
X1280912Y731279D01*
X1276043Y731279D01*
G37*
%LPD*%
G36*
X1287043Y716158D02*
X1278810Y716158D01*
X1277155Y716123D01*
X1276183Y716097D01*
X1277146Y716386D01*
X1278635Y716876D01*
X1287043Y720108D01*
X1287043Y721282D01*
X1278635Y724470D01*
X1278150Y724646D01*
X1277580Y724833D01*
X1276183Y725241D01*
X1277470Y725181D01*
X1278810Y725162D01*
X1287043Y725162D01*
X1287043Y726668D01*
X1274703Y726668D01*
X1274703Y724522D01*
X1283260Y721299D01*
X1283576Y721184D01*
X1284157Y720997D01*
X1284780Y720812D01*
X1285222Y720704D01*
X1284368Y720489D01*
X1283795Y720324D01*
X1283260Y720152D01*
X1274703Y716867D01*
X1274703Y714669D01*
X1287043Y714669D01*
X1287043Y716158D01*
G37*
G36*
X1287043Y702998D02*
X1283435Y704417D01*
X1283435Y710040D01*
X1287043Y711450D01*
X1287043Y713158D01*
X1274703Y708201D01*
X1274703Y706300D01*
X1287043Y701264D01*
X1287043Y702998D01*
G37*
%LPC*%
G36*
X1278075Y706501D02*
X1277039Y706878D01*
X1276209Y707150D01*
X1275964Y707228D01*
X1276691Y707465D01*
X1277413Y707710D01*
X1278057Y707955D01*
X1282130Y709541D01*
X1282130Y704925D01*
X1278075Y706501D01*
G37*
%LPD*%
G36*
X1287043Y749204D02*
X1285703Y749204D01*
X1285703Y746200D01*
X1274703Y746200D01*
X1274703Y744746D01*
X1276708Y741829D01*
X1278197Y741829D01*
X1276209Y744614D01*
X1285703Y744614D01*
X1285703Y741470D01*
X1287043Y741470D01*
X1287043Y749204D01*
G37*
G36*
X1381580Y877160D02*
X1382025Y877191D01*
X1382456Y877243D01*
X1382874Y877315D01*
X1383276Y877408D01*
X1383665Y877522D01*
X1384040Y877656D01*
X1384401Y877811D01*
X1384745Y877985D01*
X1385069Y878179D01*
X1385374Y878391D01*
X1385660Y878621D01*
X1385926Y878870D01*
X1386173Y879138D01*
X1386400Y879424D01*
X1386608Y879729D01*
X1386795Y880051D01*
X1386960Y880387D01*
X1387103Y880739D01*
X1387224Y881105D01*
X1387323Y881486D01*
X1387400Y881883D01*
X1387455Y882294D01*
X1387488Y882720D01*
X1387910Y882861D01*
X1388301Y883011D01*
X1388661Y883171D01*
X1388989Y883341D01*
X1389286Y883520D01*
X1389552Y883709D01*
X1389786Y883908D01*
X1389989Y884117D01*
X1390164Y884338D01*
X1390316Y884573D01*
X1390445Y884823D01*
X1390550Y885088D01*
X1390632Y885367D01*
X1390691Y885662D01*
X1390726Y885970D01*
X1390738Y886293D01*
X1390726Y886670D01*
X1390689Y887055D01*
X1390629Y887450D01*
X1390545Y887853D01*
X1389371Y887853D01*
X1389457Y887338D01*
X1389478Y887089D01*
X1389485Y886845D01*
X1389477Y886627D01*
X1389454Y886418D01*
X1389416Y886219D01*
X1389362Y886030D01*
X1389293Y885850D01*
X1389209Y885680D01*
X1389110Y885520D01*
X1388995Y885369D01*
X1388862Y885227D01*
X1388711Y885092D01*
X1388541Y884964D01*
X1388351Y884843D01*
X1387914Y884621D01*
X1387401Y884428D01*
X1387302Y884997D01*
X1387161Y885533D01*
X1386977Y886038D01*
X1386750Y886510D01*
X1386480Y886951D01*
X1386167Y887359D01*
X1385811Y887736D01*
X1385412Y888080D01*
X1384977Y888388D01*
X1384514Y888655D01*
X1384021Y888881D01*
X1383499Y889066D01*
X1382948Y889209D01*
X1382368Y889312D01*
X1381759Y889373D01*
X1381121Y889394D01*
X1380643Y889383D01*
X1380181Y889348D01*
X1379735Y889291D01*
X1379305Y889211D01*
X1378892Y889108D01*
X1378495Y888983D01*
X1378114Y888834D01*
X1377749Y888663D01*
X1377402Y888470D01*
X1377077Y888256D01*
X1376773Y888022D01*
X1376491Y887768D01*
X1376229Y887494D01*
X1375989Y887199D01*
X1375770Y886883D01*
X1375572Y886547D01*
X1375397Y886194D01*
X1375245Y885824D01*
X1375116Y885439D01*
X1375011Y885039D01*
X1374929Y884623D01*
X1374870Y884191D01*
X1374835Y883744D01*
X1374823Y883281D01*
X1374830Y882924D01*
X1374849Y882578D01*
X1374882Y882241D01*
X1374928Y881915D01*
X1374986Y881598D01*
X1375058Y881291D01*
X1375143Y880995D01*
X1375240Y880708D01*
X1375351Y880431D01*
X1375475Y880164D01*
X1375612Y879907D01*
X1375762Y879659D01*
X1375925Y879422D01*
X1376101Y879195D01*
X1376492Y878770D01*
X1376929Y878390D01*
X1377407Y878061D01*
X1377661Y877915D01*
X1377925Y877783D01*
X1378199Y877662D01*
X1378483Y877555D01*
X1378778Y877460D01*
X1379082Y877377D01*
X1379397Y877308D01*
X1379721Y877251D01*
X1380056Y877207D01*
X1380401Y877175D01*
X1380756Y877156D01*
X1381121Y877150D01*
X1381580Y877160D01*
G37*
%LPC*%
G36*
X1380552Y878867D02*
X1380017Y878921D01*
X1379513Y879011D01*
X1379043Y879138D01*
X1378605Y879300D01*
X1378199Y879499D01*
X1377826Y879734D01*
X1377486Y880005D01*
X1377182Y880309D01*
X1376919Y880643D01*
X1376696Y881007D01*
X1376514Y881402D01*
X1376372Y881826D01*
X1376271Y882281D01*
X1376210Y882766D01*
X1376190Y883281D01*
X1376210Y883791D01*
X1376272Y884272D01*
X1376374Y884723D01*
X1376518Y885145D01*
X1376703Y885537D01*
X1376929Y885899D01*
X1377196Y886232D01*
X1377503Y886534D01*
X1377847Y886804D01*
X1378222Y887038D01*
X1378628Y887236D01*
X1379065Y887398D01*
X1379532Y887524D01*
X1380031Y887614D01*
X1380560Y887668D01*
X1381121Y887686D01*
X1381706Y887668D01*
X1382257Y887615D01*
X1382774Y887525D01*
X1383257Y887400D01*
X1383706Y887240D01*
X1384120Y887043D01*
X1384501Y886811D01*
X1384847Y886543D01*
X1385156Y886242D01*
X1385424Y885909D01*
X1385651Y885546D01*
X1385836Y885152D01*
X1385980Y884726D01*
X1386083Y884269D01*
X1386145Y883782D01*
X1386166Y883263D01*
X1386144Y882758D01*
X1386081Y882282D01*
X1385974Y881834D01*
X1385825Y881414D01*
X1385634Y881022D01*
X1385400Y880659D01*
X1385123Y880324D01*
X1384804Y880018D01*
X1384448Y879744D01*
X1384063Y879506D01*
X1383647Y879305D01*
X1383202Y879141D01*
X1382727Y879013D01*
X1382221Y878922D01*
X1381686Y878867D01*
X1381121Y878849D01*
X1380552Y878867D01*
G37*
%LPD*%
G36*
X1384579Y890987D02*
X1384954Y891082D01*
X1385305Y891206D01*
X1385630Y891357D01*
X1385930Y891538D01*
X1386205Y891746D01*
X1386454Y891983D01*
X1386678Y892248D01*
X1386876Y892539D01*
X1387048Y892853D01*
X1387193Y893192D01*
X1387312Y893554D01*
X1387404Y893939D01*
X1387470Y894349D01*
X1387510Y894782D01*
X1387523Y895239D01*
X1387509Y895728D01*
X1387465Y896188D01*
X1387391Y896619D01*
X1387289Y897021D01*
X1387157Y897394D01*
X1386996Y897738D01*
X1386806Y898053D01*
X1386586Y898339D01*
X1386340Y898594D01*
X1386069Y898814D01*
X1385775Y899001D01*
X1385456Y899154D01*
X1385114Y899272D01*
X1384747Y899357D01*
X1384356Y899408D01*
X1383941Y899425D01*
X1383652Y899413D01*
X1383375Y899377D01*
X1383111Y899317D01*
X1382859Y899233D01*
X1382620Y899124D01*
X1382394Y898992D01*
X1382180Y898835D01*
X1381979Y898654D01*
X1381794Y898452D01*
X1381629Y898231D01*
X1381483Y897990D01*
X1381357Y897730D01*
X1381251Y897452D01*
X1381164Y897153D01*
X1381098Y896836D01*
X1381051Y896500D01*
X1381016Y896500D01*
X1380942Y896806D01*
X1380854Y897093D01*
X1380751Y897361D01*
X1380634Y897611D01*
X1380501Y897842D01*
X1380353Y898054D01*
X1380190Y898248D01*
X1380013Y898422D01*
X1379821Y898577D01*
X1379615Y898712D01*
X1379395Y898825D01*
X1379162Y898918D01*
X1378915Y898991D01*
X1378654Y899042D01*
X1378379Y899073D01*
X1378090Y899084D01*
X1377715Y899068D01*
X1377362Y899019D01*
X1377030Y898939D01*
X1376718Y898826D01*
X1376429Y898682D01*
X1376160Y898505D01*
X1375912Y898296D01*
X1375686Y898055D01*
X1375484Y897784D01*
X1375309Y897488D01*
X1375160Y897166D01*
X1375039Y896818D01*
X1374945Y896445D01*
X1374877Y896045D01*
X1374837Y895620D01*
X1374823Y895169D01*
X1374837Y894753D01*
X1374876Y894358D01*
X1374943Y893981D01*
X1375036Y893624D01*
X1375155Y893286D01*
X1375301Y892967D01*
X1375474Y892668D01*
X1375673Y892388D01*
X1375896Y892131D01*
X1376139Y891904D01*
X1376404Y891704D01*
X1376689Y891533D01*
X1376995Y891390D01*
X1377322Y891275D01*
X1377669Y891189D01*
X1378038Y891131D01*
X1378160Y892716D01*
X1377924Y892751D01*
X1377702Y892802D01*
X1377493Y892871D01*
X1377298Y892956D01*
X1377116Y893058D01*
X1376948Y893177D01*
X1376794Y893313D01*
X1376654Y893465D01*
X1376529Y893632D01*
X1376420Y893812D01*
X1376328Y894004D01*
X1376253Y894208D01*
X1376195Y894425D01*
X1376153Y894655D01*
X1376128Y894897D01*
X1376120Y895151D01*
X1376129Y895429D01*
X1376155Y895689D01*
X1376200Y895932D01*
X1376263Y896157D01*
X1376344Y896365D01*
X1376442Y896554D01*
X1376559Y896726D01*
X1376693Y896881D01*
X1376843Y897017D01*
X1377006Y897136D01*
X1377182Y897236D01*
X1377371Y897318D01*
X1377573Y897381D01*
X1377788Y897427D01*
X1378016Y897454D01*
X1378257Y897463D01*
X1378500Y897452D01*
X1378729Y897419D01*
X1378945Y897363D01*
X1379147Y897285D01*
X1379335Y897184D01*
X1379511Y897062D01*
X1379672Y896917D01*
X1379820Y896749D01*
X1379952Y896562D01*
X1380067Y896356D01*
X1380164Y896132D01*
X1380244Y895890D01*
X1380306Y895630D01*
X1380350Y895351D01*
X1380376Y895054D01*
X1380385Y894739D01*
X1380385Y893881D01*
X1381751Y893881D01*
X1381751Y894774D01*
X1381760Y895129D01*
X1381787Y895463D01*
X1381831Y895775D01*
X1381893Y896065D01*
X1381972Y896334D01*
X1382069Y896582D01*
X1382184Y896808D01*
X1382316Y897012D01*
X1382464Y897194D01*
X1382626Y897351D01*
X1382802Y897485D01*
X1382992Y897594D01*
X1383195Y897678D01*
X1383412Y897739D01*
X1383644Y897775D01*
X1383888Y897787D01*
X1384169Y897777D01*
X1384431Y897745D01*
X1384675Y897692D01*
X1384902Y897618D01*
X1385111Y897522D01*
X1385302Y897406D01*
X1385476Y897268D01*
X1385631Y897109D01*
X1385769Y896931D01*
X1385888Y896737D01*
X1385989Y896527D01*
X1386071Y896302D01*
X1386136Y896060D01*
X1386182Y895802D01*
X1386209Y895528D01*
X1386218Y895239D01*
X1386210Y894950D01*
X1386184Y894677D01*
X1386141Y894421D01*
X1386081Y894180D01*
X1386004Y893956D01*
X1385910Y893748D01*
X1385799Y893556D01*
X1385671Y893380D01*
X1385525Y893220D01*
X1385363Y893076D01*
X1385183Y892948D01*
X1384987Y892836D01*
X1384773Y892740D01*
X1384542Y892661D01*
X1384294Y892597D01*
X1384029Y892550D01*
X1384177Y890921D01*
X1384579Y890987D01*
G37*
G36*
X1287874Y836181D02*
X1290178Y836181D01*
X1292099Y833110D01*
X1293254Y833110D01*
X1292048Y834940D01*
X1291154Y836296D01*
X1291360Y836339D01*
X1291554Y836396D01*
X1291737Y836465D01*
X1291908Y836547D01*
X1292002Y836602D01*
X1292068Y836642D01*
X1292217Y836750D01*
X1292354Y836871D01*
X1292480Y837005D01*
X1292592Y837149D01*
X1292690Y837302D01*
X1292772Y837463D01*
X1292840Y837632D01*
X1292892Y837809D01*
X1292930Y837995D01*
X1292952Y838189D01*
X1292960Y838391D01*
X1292949Y838633D01*
X1292917Y838862D01*
X1292864Y839077D01*
X1292790Y839278D01*
X1292694Y839466D01*
X1292578Y839640D01*
X1292439Y839800D01*
X1292280Y839947D01*
X1292101Y840078D01*
X1291905Y840191D01*
X1291690Y840288D01*
X1291458Y840366D01*
X1291208Y840427D01*
X1290940Y840471D01*
X1290655Y840497D01*
X1290351Y840506D01*
X1286871Y840506D01*
X1286871Y833110D01*
X1287874Y833110D01*
X1287874Y836181D01*
G37*
%LPC*%
G36*
X1287874Y836973D02*
X1287874Y839703D01*
X1290251Y839703D01*
X1290639Y839682D01*
X1290979Y839618D01*
X1291270Y839512D01*
X1291514Y839364D01*
X1291706Y839176D01*
X1291781Y839067D01*
X1291842Y838949D01*
X1291890Y838821D01*
X1291925Y838684D01*
X1291945Y838537D01*
X1291952Y838380D01*
X1291945Y838218D01*
X1291925Y838065D01*
X1291891Y837922D01*
X1291844Y837788D01*
X1291783Y837663D01*
X1291708Y837547D01*
X1291519Y837343D01*
X1291280Y837181D01*
X1290996Y837066D01*
X1290667Y836996D01*
X1290293Y836973D01*
X1287874Y836973D01*
G37*
%LPD*%
G36*
X1296942Y833016D02*
X1297225Y833047D01*
X1297491Y833100D01*
X1297741Y833173D01*
X1297974Y833267D01*
X1298190Y833383D01*
X1298389Y833519D01*
X1298571Y833677D01*
X1298734Y833853D01*
X1298875Y834044D01*
X1298995Y834251D01*
X1299093Y834473D01*
X1299169Y834712D01*
X1299223Y834965D01*
X1299256Y835234D01*
X1299266Y835519D01*
X1299256Y835770D01*
X1299226Y836009D01*
X1299175Y836236D01*
X1299104Y836451D01*
X1299013Y836654D01*
X1298902Y836844D01*
X1298770Y837022D01*
X1298618Y837188D01*
X1298449Y837339D01*
X1298266Y837469D01*
X1298070Y837579D01*
X1297859Y837669D01*
X1297635Y837739D01*
X1297396Y837789D01*
X1297144Y837819D01*
X1296878Y837829D01*
X1296654Y837821D01*
X1296440Y837799D01*
X1296235Y837762D01*
X1296040Y837711D01*
X1295853Y837644D01*
X1295676Y837563D01*
X1295509Y837467D01*
X1295351Y837356D01*
X1295492Y839703D01*
X1298836Y839703D01*
X1298836Y840506D01*
X1294631Y840506D01*
X1294385Y836527D01*
X1295309Y836527D01*
X1295474Y836661D01*
X1295639Y836774D01*
X1295805Y836866D01*
X1295970Y836937D01*
X1296139Y836989D01*
X1296314Y837027D01*
X1296496Y837050D01*
X1296684Y837057D01*
X1296863Y837051D01*
X1297032Y837030D01*
X1297193Y836997D01*
X1297343Y836950D01*
X1297485Y836889D01*
X1297616Y836815D01*
X1297852Y836627D01*
X1298041Y836395D01*
X1298116Y836266D01*
X1298177Y836130D01*
X1298224Y835984D01*
X1298258Y835831D01*
X1298278Y835669D01*
X1298285Y835498D01*
X1298278Y835303D01*
X1298258Y835118D01*
X1298224Y834944D01*
X1298177Y834781D01*
X1298117Y834629D01*
X1298043Y834487D01*
X1297955Y834356D01*
X1297854Y834236D01*
X1297742Y834128D01*
X1297619Y834035D01*
X1297485Y833956D01*
X1297341Y833891D01*
X1297187Y833841D01*
X1297023Y833805D01*
X1296848Y833784D01*
X1296663Y833777D01*
X1296368Y833794D01*
X1296102Y833845D01*
X1295866Y833931D01*
X1295659Y834051D01*
X1295481Y834205D01*
X1295333Y834394D01*
X1295214Y834617D01*
X1295125Y834874D01*
X1294170Y834763D01*
X1294219Y834556D01*
X1294283Y834361D01*
X1294361Y834179D01*
X1294454Y834009D01*
X1294562Y833852D01*
X1294684Y833707D01*
X1294821Y833576D01*
X1294973Y833456D01*
X1295138Y833351D01*
X1295315Y833259D01*
X1295505Y833181D01*
X1295708Y833118D01*
X1295922Y833069D01*
X1296150Y833033D01*
X1296390Y833012D01*
X1296642Y833005D01*
X1296942Y833016D01*
G37*
G36*
X1287874Y820961D02*
X1290178Y820961D01*
X1292099Y817890D01*
X1293254Y817890D01*
X1292048Y819720D01*
X1291154Y821076D01*
X1291360Y821119D01*
X1291554Y821176D01*
X1291737Y821245D01*
X1291908Y821327D01*
X1292002Y821382D01*
X1292068Y821422D01*
X1292217Y821530D01*
X1292354Y821651D01*
X1292480Y821785D01*
X1292592Y821929D01*
X1292690Y822082D01*
X1292772Y822243D01*
X1292840Y822412D01*
X1292892Y822589D01*
X1292930Y822775D01*
X1292952Y822969D01*
X1292960Y823171D01*
X1292949Y823413D01*
X1292917Y823642D01*
X1292864Y823857D01*
X1292790Y824058D01*
X1292694Y824246D01*
X1292578Y824420D01*
X1292439Y824580D01*
X1292280Y824727D01*
X1292101Y824858D01*
X1291905Y824971D01*
X1291690Y825068D01*
X1291458Y825146D01*
X1291208Y825207D01*
X1290940Y825251D01*
X1290655Y825277D01*
X1290351Y825286D01*
X1286871Y825286D01*
X1286871Y817890D01*
X1287874Y817890D01*
X1287874Y820961D01*
G37*
%LPC*%
G36*
X1287874Y821753D02*
X1287874Y824483D01*
X1290251Y824483D01*
X1290639Y824462D01*
X1290979Y824398D01*
X1291270Y824292D01*
X1291514Y824144D01*
X1291706Y823956D01*
X1291781Y823847D01*
X1291842Y823729D01*
X1291890Y823601D01*
X1291925Y823464D01*
X1291945Y823317D01*
X1291952Y823160D01*
X1291945Y822998D01*
X1291925Y822845D01*
X1291891Y822702D01*
X1291844Y822568D01*
X1291783Y822443D01*
X1291708Y822327D01*
X1291519Y822123D01*
X1291280Y821961D01*
X1290996Y821846D01*
X1290667Y821776D01*
X1290293Y821753D01*
X1287874Y821753D01*
G37*
%LPD*%
G36*
X1297129Y817796D02*
X1297386Y817827D01*
X1297628Y817880D01*
X1297854Y817954D01*
X1298066Y818050D01*
X1298263Y818166D01*
X1298444Y818303D01*
X1298610Y818462D01*
X1298759Y818639D01*
X1298888Y818832D01*
X1298997Y819039D01*
X1299087Y819263D01*
X1299156Y819501D01*
X1299206Y819755D01*
X1299235Y820025D01*
X1299245Y820310D01*
X1299236Y820573D01*
X1299208Y820823D01*
X1299161Y821059D01*
X1299095Y821281D01*
X1299011Y821489D01*
X1298907Y821684D01*
X1298785Y821864D01*
X1298644Y822031D01*
X1298488Y822182D01*
X1298317Y822312D01*
X1298134Y822422D01*
X1297938Y822512D01*
X1297728Y822582D01*
X1297505Y822632D01*
X1297269Y822662D01*
X1297020Y822672D01*
X1296727Y822656D01*
X1296450Y822610D01*
X1296191Y822532D01*
X1295949Y822423D01*
X1295729Y822284D01*
X1295534Y822116D01*
X1295366Y821920D01*
X1295225Y821696D01*
X1295232Y822042D01*
X1295252Y822367D01*
X1295287Y822671D01*
X1295336Y822955D01*
X1295398Y823217D01*
X1295474Y823458D01*
X1295564Y823678D01*
X1295668Y823877D01*
X1295785Y824053D01*
X1295913Y824206D01*
X1296052Y824336D01*
X1296203Y824441D01*
X1296365Y824524D01*
X1296539Y824583D01*
X1296724Y824618D01*
X1296920Y824630D01*
X1297145Y824616D01*
X1297349Y824573D01*
X1297532Y824503D01*
X1297694Y824404D01*
X1297836Y824277D01*
X1297957Y824122D01*
X1298058Y823939D01*
X1298138Y823727D01*
X1299041Y823890D01*
X1298912Y824243D01*
X1298745Y824549D01*
X1298540Y824808D01*
X1298295Y825019D01*
X1298012Y825184D01*
X1297690Y825302D01*
X1297330Y825373D01*
X1296931Y825396D01*
X1296622Y825380D01*
X1296332Y825332D01*
X1296060Y825251D01*
X1295806Y825139D01*
X1295570Y824994D01*
X1295353Y824817D01*
X1295154Y824608D01*
X1294973Y824367D01*
X1294812Y824096D01*
X1294672Y823797D01*
X1294554Y823470D01*
X1294457Y823115D01*
X1294382Y822733D01*
X1294328Y822322D01*
X1294296Y821884D01*
X1294285Y821417D01*
X1294295Y820987D01*
X1294326Y820583D01*
X1294378Y820206D01*
X1294450Y819854D01*
X1294543Y819530D01*
X1294657Y819231D01*
X1294791Y818960D01*
X1294946Y818714D01*
X1295121Y818496D01*
X1295314Y818308D01*
X1295525Y818148D01*
X1295755Y818017D01*
X1296003Y817916D01*
X1296269Y817843D01*
X1296554Y817800D01*
X1296857Y817785D01*
X1297129Y817796D01*
G37*
%LPC*%
G36*
X1296664Y818555D02*
X1296510Y818580D01*
X1296363Y818623D01*
X1296224Y818683D01*
X1296092Y818759D01*
X1295968Y818853D01*
X1295851Y818964D01*
X1295742Y819092D01*
X1295643Y819233D01*
X1295557Y819384D01*
X1295484Y819545D01*
X1295425Y819715D01*
X1295379Y819895D01*
X1295346Y820085D01*
X1295326Y820284D01*
X1295319Y820494D01*
X1295325Y820658D01*
X1295345Y820814D01*
X1295376Y820960D01*
X1295421Y821098D01*
X1295548Y821345D01*
X1295726Y821556D01*
X1295945Y821725D01*
X1296196Y821846D01*
X1296479Y821918D01*
X1296633Y821936D01*
X1296794Y821942D01*
X1296965Y821935D01*
X1297126Y821915D01*
X1297278Y821881D01*
X1297420Y821833D01*
X1297552Y821772D01*
X1297675Y821697D01*
X1297788Y821609D01*
X1297891Y821507D01*
X1297983Y821392D01*
X1298063Y821266D01*
X1298131Y821128D01*
X1298186Y820979D01*
X1298229Y820818D01*
X1298260Y820646D01*
X1298279Y820463D01*
X1298285Y820268D01*
X1298279Y820072D01*
X1298261Y819888D01*
X1298230Y819714D01*
X1298188Y819551D01*
X1298133Y819398D01*
X1298066Y819257D01*
X1297896Y819005D01*
X1297795Y818898D01*
X1297684Y818804D01*
X1297564Y818726D01*
X1297434Y818661D01*
X1297296Y818611D01*
X1297148Y818575D01*
X1296992Y818553D01*
X1296826Y818546D01*
X1296664Y818555D01*
G37*
%LPD*%
G36*
X1353914Y902241D02*
X1356218Y902241D01*
X1358139Y899170D01*
X1359294Y899170D01*
X1358088Y901000D01*
X1357194Y902356D01*
X1357400Y902399D01*
X1357594Y902456D01*
X1357777Y902525D01*
X1357948Y902607D01*
X1358042Y902662D01*
X1358108Y902702D01*
X1358257Y902810D01*
X1358394Y902931D01*
X1358520Y903065D01*
X1358632Y903209D01*
X1358730Y903362D01*
X1358812Y903523D01*
X1358880Y903692D01*
X1358932Y903869D01*
X1358970Y904055D01*
X1358992Y904249D01*
X1359000Y904451D01*
X1358989Y904693D01*
X1358957Y904922D01*
X1358904Y905137D01*
X1358830Y905338D01*
X1358734Y905526D01*
X1358618Y905700D01*
X1358479Y905860D01*
X1358320Y906007D01*
X1358141Y906138D01*
X1357945Y906251D01*
X1357730Y906348D01*
X1357498Y906426D01*
X1357248Y906487D01*
X1356980Y906531D01*
X1356695Y906557D01*
X1356391Y906566D01*
X1352911Y906566D01*
X1352911Y899170D01*
X1353914Y899170D01*
X1353914Y902241D01*
G37*
%LPC*%
G36*
X1353914Y903033D02*
X1353914Y905763D01*
X1356291Y905763D01*
X1356679Y905742D01*
X1357019Y905678D01*
X1357310Y905572D01*
X1357554Y905424D01*
X1357746Y905236D01*
X1357821Y905127D01*
X1357882Y905009D01*
X1357930Y904881D01*
X1357965Y904744D01*
X1357985Y904597D01*
X1357992Y904440D01*
X1357985Y904278D01*
X1357965Y904125D01*
X1357931Y903982D01*
X1357884Y903848D01*
X1357823Y903723D01*
X1357748Y903607D01*
X1357559Y903403D01*
X1357320Y903241D01*
X1357036Y903126D01*
X1356707Y903056D01*
X1356333Y903033D01*
X1353914Y903033D01*
G37*
%LPD*%
G36*
X1363069Y899074D02*
X1363345Y899100D01*
X1363604Y899144D01*
X1363845Y899205D01*
X1364068Y899284D01*
X1364274Y899381D01*
X1364463Y899495D01*
X1364635Y899627D01*
X1364787Y899774D01*
X1364919Y899936D01*
X1365031Y900113D01*
X1365123Y900304D01*
X1365194Y900509D01*
X1365245Y900729D01*
X1365275Y900963D01*
X1365285Y901212D01*
X1365278Y901385D01*
X1365257Y901551D01*
X1365220Y901709D01*
X1365170Y901860D01*
X1365105Y902003D01*
X1365026Y902139D01*
X1364823Y902388D01*
X1364570Y902598D01*
X1364270Y902760D01*
X1364103Y902824D01*
X1363924Y902876D01*
X1363734Y902916D01*
X1363532Y902944D01*
X1363532Y902965D01*
X1363888Y903062D01*
X1364198Y903194D01*
X1364464Y903362D01*
X1364684Y903566D01*
X1364858Y903804D01*
X1364982Y904076D01*
X1365056Y904380D01*
X1365074Y904545D01*
X1365081Y904718D01*
X1365071Y904943D01*
X1365042Y905155D01*
X1364994Y905354D01*
X1364926Y905540D01*
X1364840Y905714D01*
X1364734Y905875D01*
X1364608Y906023D01*
X1364464Y906159D01*
X1364302Y906280D01*
X1364125Y906385D01*
X1363932Y906474D01*
X1363723Y906547D01*
X1363499Y906603D01*
X1363260Y906644D01*
X1363005Y906668D01*
X1362734Y906676D01*
X1362486Y906668D01*
X1362248Y906644D01*
X1362023Y906605D01*
X1361809Y906549D01*
X1361606Y906477D01*
X1361415Y906390D01*
X1361236Y906286D01*
X1361068Y906167D01*
X1360914Y906033D01*
X1360778Y905887D01*
X1360658Y905729D01*
X1360555Y905558D01*
X1360470Y905375D01*
X1360401Y905179D01*
X1360349Y904970D01*
X1360315Y904750D01*
X1361265Y904676D01*
X1361316Y904951D01*
X1361408Y905193D01*
X1361541Y905403D01*
X1361713Y905579D01*
X1361921Y905719D01*
X1362159Y905819D01*
X1362426Y905879D01*
X1362724Y905899D01*
X1363047Y905878D01*
X1363327Y905813D01*
X1363565Y905706D01*
X1363761Y905555D01*
X1363913Y905368D01*
X1364022Y905149D01*
X1364088Y904899D01*
X1364110Y904618D01*
X1364103Y904473D01*
X1364083Y904336D01*
X1364049Y904206D01*
X1364003Y904085D01*
X1363869Y903867D01*
X1363682Y903682D01*
X1363446Y903533D01*
X1363167Y903428D01*
X1362844Y903364D01*
X1362477Y903343D01*
X1361963Y903343D01*
X1361963Y902524D01*
X1362498Y902524D01*
X1362911Y902503D01*
X1363272Y902439D01*
X1363581Y902334D01*
X1363839Y902186D01*
X1364043Y902000D01*
X1364122Y901894D01*
X1364188Y901781D01*
X1364238Y901659D01*
X1364275Y901529D01*
X1364297Y901390D01*
X1364304Y901243D01*
X1364297Y901075D01*
X1364278Y900918D01*
X1364247Y900772D01*
X1364202Y900636D01*
X1364145Y900511D01*
X1364075Y900396D01*
X1363992Y900292D01*
X1363897Y900199D01*
X1363674Y900045D01*
X1363413Y899935D01*
X1363114Y899869D01*
X1362776Y899847D01*
X1362440Y899868D01*
X1362142Y899929D01*
X1361883Y900032D01*
X1361662Y900175D01*
X1361480Y900360D01*
X1361336Y900585D01*
X1361231Y900852D01*
X1361165Y901159D01*
X1360189Y901070D01*
X1360229Y900830D01*
X1360286Y900604D01*
X1360359Y900394D01*
X1360450Y900199D01*
X1360558Y900020D01*
X1360683Y899855D01*
X1360825Y899706D01*
X1360984Y899572D01*
X1361158Y899453D01*
X1361347Y899350D01*
X1361550Y899263D01*
X1361767Y899192D01*
X1361998Y899136D01*
X1362243Y899097D01*
X1362503Y899073D01*
X1362776Y899065D01*
X1363069Y899074D01*
G37*
G36*
X1353914Y920021D02*
X1356218Y920021D01*
X1358139Y916950D01*
X1359294Y916950D01*
X1358088Y918780D01*
X1357194Y920136D01*
X1357400Y920179D01*
X1357594Y920236D01*
X1357777Y920305D01*
X1357948Y920387D01*
X1358042Y920442D01*
X1358108Y920482D01*
X1358257Y920590D01*
X1358394Y920711D01*
X1358520Y920845D01*
X1358632Y920989D01*
X1358730Y921142D01*
X1358812Y921303D01*
X1358880Y921472D01*
X1358932Y921649D01*
X1358970Y921835D01*
X1358992Y922029D01*
X1359000Y922231D01*
X1358989Y922473D01*
X1358957Y922702D01*
X1358904Y922917D01*
X1358830Y923118D01*
X1358734Y923306D01*
X1358618Y923480D01*
X1358479Y923640D01*
X1358320Y923787D01*
X1358141Y923918D01*
X1357945Y924031D01*
X1357730Y924128D01*
X1357498Y924206D01*
X1357248Y924267D01*
X1356980Y924311D01*
X1356695Y924337D01*
X1356391Y924346D01*
X1352911Y924346D01*
X1352911Y916950D01*
X1353914Y916950D01*
X1353914Y920021D01*
G37*
%LPC*%
G36*
X1353914Y920813D02*
X1353914Y923543D01*
X1356291Y923543D01*
X1356679Y923522D01*
X1357019Y923458D01*
X1357310Y923352D01*
X1357554Y923204D01*
X1357746Y923016D01*
X1357821Y922907D01*
X1357882Y922789D01*
X1357930Y922661D01*
X1357965Y922524D01*
X1357985Y922377D01*
X1357992Y922220D01*
X1357985Y922058D01*
X1357965Y921905D01*
X1357931Y921762D01*
X1357884Y921628D01*
X1357823Y921503D01*
X1357748Y921387D01*
X1357559Y921183D01*
X1357320Y921021D01*
X1357036Y920906D01*
X1356707Y920836D01*
X1356333Y920813D01*
X1353914Y920813D01*
G37*
%LPD*%
G36*
X1365217Y917753D02*
X1361359Y917753D01*
X1361450Y917939D01*
X1361566Y918128D01*
X1361708Y918320D01*
X1361874Y918517D01*
X1362292Y918937D01*
X1362834Y919407D01*
X1363754Y920182D01*
X1364081Y920482D01*
X1364320Y920724D01*
X1364502Y920937D01*
X1364660Y921149D01*
X1364794Y921362D01*
X1364905Y921574D01*
X1364991Y921787D01*
X1365052Y922001D01*
X1365089Y922215D01*
X1365102Y922430D01*
X1365092Y922666D01*
X1365064Y922888D01*
X1365017Y923096D01*
X1364951Y923290D01*
X1364867Y923471D01*
X1364764Y923637D01*
X1364642Y923790D01*
X1364501Y923929D01*
X1364342Y924052D01*
X1364168Y924159D01*
X1363977Y924250D01*
X1363770Y924324D01*
X1363547Y924382D01*
X1363308Y924423D01*
X1363053Y924448D01*
X1362782Y924456D01*
X1362533Y924448D01*
X1362296Y924423D01*
X1362070Y924382D01*
X1361856Y924325D01*
X1361653Y924251D01*
X1361462Y924161D01*
X1361283Y924054D01*
X1361115Y923931D01*
X1360961Y923794D01*
X1360825Y923646D01*
X1360705Y923487D01*
X1360603Y923316D01*
X1360517Y923134D01*
X1360448Y922940D01*
X1360397Y922735D01*
X1360362Y922519D01*
X1361328Y922430D01*
X1361382Y922710D01*
X1361477Y922957D01*
X1361612Y923171D01*
X1361787Y923351D01*
X1361996Y923495D01*
X1362231Y923597D01*
X1362493Y923659D01*
X1362782Y923679D01*
X1363082Y923658D01*
X1363347Y923595D01*
X1363578Y923490D01*
X1363774Y923343D01*
X1363930Y923158D01*
X1364041Y922939D01*
X1364108Y922686D01*
X1364131Y922398D01*
X1364118Y922179D01*
X1364079Y921971D01*
X1364014Y921775D01*
X1363923Y921590D01*
X1363684Y921241D01*
X1363380Y920908D01*
X1363024Y920582D01*
X1362627Y920257D01*
X1362207Y919918D01*
X1361784Y919551D01*
X1361369Y919148D01*
X1360973Y918701D01*
X1360788Y918457D01*
X1360617Y918195D01*
X1360461Y917915D01*
X1360320Y917617D01*
X1360320Y916950D01*
X1365217Y916950D01*
X1365217Y917753D01*
G37*
G36*
X1287874Y800641D02*
X1290178Y800641D01*
X1292099Y797570D01*
X1293254Y797570D01*
X1292048Y799400D01*
X1291154Y800756D01*
X1291360Y800799D01*
X1291554Y800856D01*
X1291737Y800925D01*
X1291908Y801007D01*
X1292002Y801062D01*
X1292068Y801102D01*
X1292217Y801210D01*
X1292354Y801331D01*
X1292480Y801465D01*
X1292592Y801609D01*
X1292690Y801762D01*
X1292772Y801923D01*
X1292840Y802092D01*
X1292892Y802269D01*
X1292930Y802455D01*
X1292952Y802649D01*
X1292960Y802851D01*
X1292949Y803093D01*
X1292917Y803322D01*
X1292864Y803537D01*
X1292790Y803738D01*
X1292694Y803926D01*
X1292578Y804100D01*
X1292439Y804260D01*
X1292280Y804407D01*
X1292101Y804538D01*
X1291905Y804651D01*
X1291690Y804748D01*
X1291458Y804826D01*
X1291208Y804887D01*
X1290940Y804931D01*
X1290655Y804957D01*
X1290351Y804966D01*
X1286871Y804966D01*
X1286871Y797570D01*
X1287874Y797570D01*
X1287874Y800641D01*
G37*
%LPC*%
G36*
X1287874Y801433D02*
X1287874Y804163D01*
X1290251Y804163D01*
X1290639Y804142D01*
X1290979Y804078D01*
X1291270Y803972D01*
X1291514Y803824D01*
X1291706Y803636D01*
X1291781Y803527D01*
X1291842Y803409D01*
X1291890Y803281D01*
X1291925Y803144D01*
X1291945Y802997D01*
X1291952Y802840D01*
X1291945Y802678D01*
X1291925Y802525D01*
X1291891Y802382D01*
X1291844Y802248D01*
X1291783Y802123D01*
X1291708Y802007D01*
X1291519Y801803D01*
X1291280Y801641D01*
X1290996Y801526D01*
X1290667Y801456D01*
X1290293Y801433D01*
X1287874Y801433D01*
G37*
%LPD*%
G36*
X1296656Y798078D02*
X1296700Y798577D01*
X1296773Y799067D01*
X1296875Y799549D01*
X1297007Y800028D01*
X1297167Y800511D01*
X1297357Y800997D01*
X1297576Y801486D01*
X1297851Y802023D01*
X1298210Y802655D01*
X1298652Y803380D01*
X1299177Y804200D01*
X1299177Y804966D01*
X1294290Y804966D01*
X1294290Y804163D01*
X1298264Y804163D01*
X1297611Y803172D01*
X1297059Y802240D01*
X1296607Y801367D01*
X1296419Y800953D01*
X1296256Y800554D01*
X1296115Y800165D01*
X1295993Y799780D01*
X1295890Y799400D01*
X1295805Y799025D01*
X1295740Y798654D01*
X1295693Y798288D01*
X1295664Y797927D01*
X1295655Y797570D01*
X1296642Y797570D01*
X1296656Y798078D01*
G37*
G36*
X1337667Y858434D02*
X1337945Y858461D01*
X1338205Y858506D01*
X1338447Y858568D01*
X1338672Y858649D01*
X1338879Y858747D01*
X1339068Y858863D01*
X1339240Y858997D01*
X1339392Y859147D01*
X1339525Y859311D01*
X1339636Y859490D01*
X1339728Y859682D01*
X1339799Y859889D01*
X1339850Y860109D01*
X1339880Y860344D01*
X1339891Y860593D01*
X1339884Y860771D01*
X1339866Y860942D01*
X1339792Y861261D01*
X1339669Y861550D01*
X1339497Y861808D01*
X1339478Y861827D01*
X1339280Y862028D01*
X1339025Y862201D01*
X1338729Y862328D01*
X1338395Y862409D01*
X1338395Y862430D01*
X1338683Y862512D01*
X1338939Y862639D01*
X1339152Y862801D01*
X1339163Y862809D01*
X1339355Y863023D01*
X1339509Y863270D01*
X1339619Y863536D01*
X1339685Y863823D01*
X1339707Y864131D01*
X1339697Y864344D01*
X1339667Y864546D01*
X1339618Y864737D01*
X1339549Y864917D01*
X1339460Y865085D01*
X1339351Y865242D01*
X1339223Y865387D01*
X1339074Y865522D01*
X1338909Y865642D01*
X1338729Y865747D01*
X1338535Y865835D01*
X1338327Y865908D01*
X1338104Y865964D01*
X1337867Y866004D01*
X1337616Y866028D01*
X1337350Y866036D01*
X1337090Y866028D01*
X1336844Y866003D01*
X1336612Y865962D01*
X1336393Y865905D01*
X1336187Y865831D01*
X1335995Y865741D01*
X1335817Y865634D01*
X1335652Y865511D01*
X1335504Y865375D01*
X1335375Y865229D01*
X1335267Y865072D01*
X1335178Y864906D01*
X1335108Y864730D01*
X1335059Y864544D01*
X1335029Y864347D01*
X1335020Y864141D01*
X1335041Y863834D01*
X1335107Y863547D01*
X1335216Y863280D01*
X1335369Y863034D01*
X1335559Y862818D01*
X1335781Y862644D01*
X1336035Y862511D01*
X1336321Y862420D01*
X1336321Y862399D01*
X1336013Y862322D01*
X1335733Y862196D01*
X1335483Y862023D01*
X1335261Y861800D01*
X1335080Y861539D01*
X1334950Y861249D01*
X1334905Y861093D01*
X1334872Y860930D01*
X1334853Y860760D01*
X1334846Y860582D01*
X1334857Y860331D01*
X1334888Y860095D01*
X1334940Y859873D01*
X1335014Y859666D01*
X1335108Y859474D01*
X1335223Y859297D01*
X1335359Y859134D01*
X1335516Y858987D01*
X1335691Y858855D01*
X1335883Y858741D01*
X1336090Y858644D01*
X1336314Y858565D01*
X1336554Y858504D01*
X1336810Y858460D01*
X1337083Y858434D01*
X1337371Y858425D01*
X1337667Y858434D01*
G37*
%LPC*%
G36*
X1337193Y859140D02*
X1337016Y859158D01*
X1336852Y859187D01*
X1336700Y859229D01*
X1336559Y859283D01*
X1336432Y859348D01*
X1336316Y859426D01*
X1336212Y859516D01*
X1336121Y859617D01*
X1336042Y859730D01*
X1335975Y859856D01*
X1335920Y859993D01*
X1335877Y860142D01*
X1335847Y860303D01*
X1335829Y860476D01*
X1335823Y860661D01*
X1335829Y860821D01*
X1335848Y860972D01*
X1335879Y861114D01*
X1335924Y861247D01*
X1336050Y861487D01*
X1336227Y861693D01*
X1336449Y861857D01*
X1336710Y861974D01*
X1337010Y862044D01*
X1337350Y862068D01*
X1337699Y862046D01*
X1338008Y861981D01*
X1338274Y861871D01*
X1338500Y861719D01*
X1338596Y861626D01*
X1338679Y861523D01*
X1338749Y861409D01*
X1338807Y861285D01*
X1338851Y861150D01*
X1338883Y861005D01*
X1338903Y860849D01*
X1338909Y860682D01*
X1338903Y860487D01*
X1338885Y860305D01*
X1338856Y860137D01*
X1338815Y859983D01*
X1338761Y859843D01*
X1338696Y859716D01*
X1338620Y859603D01*
X1338531Y859504D01*
X1338431Y859417D01*
X1338318Y859342D01*
X1338192Y859278D01*
X1338055Y859226D01*
X1337743Y859157D01*
X1337382Y859134D01*
X1337193Y859140D01*
G37*
G36*
X1337051Y862797D02*
X1336779Y862860D01*
X1336543Y862964D01*
X1336345Y863110D01*
X1336188Y863295D01*
X1336075Y863519D01*
X1336008Y863780D01*
X1335985Y864078D01*
X1336007Y864371D01*
X1336073Y864625D01*
X1336182Y864841D01*
X1336334Y865018D01*
X1336529Y865156D01*
X1336763Y865254D01*
X1337037Y865313D01*
X1337350Y865333D01*
X1337672Y865313D01*
X1337952Y865254D01*
X1338188Y865156D01*
X1338382Y865019D01*
X1338532Y864843D01*
X1338639Y864627D01*
X1338704Y864372D01*
X1338725Y864078D01*
X1338704Y863758D01*
X1338638Y863486D01*
X1338529Y863261D01*
X1338376Y863084D01*
X1338182Y862949D01*
X1337948Y862853D01*
X1337674Y862796D01*
X1337361Y862776D01*
X1337051Y862797D01*
G37*
%LPD*%
G36*
X1328514Y861601D02*
X1330818Y861601D01*
X1332739Y858530D01*
X1333894Y858530D01*
X1332688Y860360D01*
X1331794Y861716D01*
X1332000Y861759D01*
X1332194Y861816D01*
X1332377Y861885D01*
X1332548Y861967D01*
X1332642Y862022D01*
X1332708Y862062D01*
X1332857Y862170D01*
X1332994Y862291D01*
X1333120Y862425D01*
X1333232Y862569D01*
X1333330Y862722D01*
X1333412Y862883D01*
X1333480Y863052D01*
X1333532Y863229D01*
X1333570Y863415D01*
X1333592Y863609D01*
X1333600Y863811D01*
X1333589Y864053D01*
X1333557Y864282D01*
X1333504Y864497D01*
X1333430Y864698D01*
X1333334Y864886D01*
X1333218Y865060D01*
X1333079Y865220D01*
X1332920Y865367D01*
X1332741Y865498D01*
X1332545Y865611D01*
X1332330Y865708D01*
X1332098Y865786D01*
X1331848Y865847D01*
X1331580Y865891D01*
X1331295Y865917D01*
X1330991Y865926D01*
X1327511Y865926D01*
X1327511Y858530D01*
X1328514Y858530D01*
X1328514Y861601D01*
G37*
%LPC*%
G36*
X1328514Y862393D02*
X1328514Y865123D01*
X1330891Y865123D01*
X1331279Y865102D01*
X1331619Y865038D01*
X1331910Y864932D01*
X1332154Y864784D01*
X1332346Y864596D01*
X1332421Y864487D01*
X1332482Y864369D01*
X1332530Y864241D01*
X1332565Y864104D01*
X1332585Y863957D01*
X1332592Y863800D01*
X1332585Y863638D01*
X1332565Y863485D01*
X1332531Y863342D01*
X1332484Y863208D01*
X1332423Y863083D01*
X1332348Y862967D01*
X1332159Y862763D01*
X1331920Y862601D01*
X1331636Y862486D01*
X1331307Y862416D01*
X1330933Y862393D01*
X1328514Y862393D01*
G37*
%LPD*%
G36*
X1285437Y917905D02*
X1285704Y917924D01*
X1285962Y917955D01*
X1286212Y917998D01*
X1286687Y918122D01*
X1287128Y918296D01*
X1287528Y918516D01*
X1287882Y918781D01*
X1288190Y919091D01*
X1288450Y919445D01*
X1288662Y919840D01*
X1288747Y920050D01*
X1288820Y920270D01*
X1288879Y920498D01*
X1288925Y920736D01*
X1288958Y920982D01*
X1288978Y921238D01*
X1289465Y921412D01*
X1289878Y921610D01*
X1290215Y921831D01*
X1290355Y921950D01*
X1290477Y922075D01*
X1290582Y922207D01*
X1290673Y922348D01*
X1290750Y922498D01*
X1290813Y922657D01*
X1290862Y922824D01*
X1290897Y923000D01*
X1290918Y923185D01*
X1290925Y923379D01*
X1290918Y923605D01*
X1290897Y923836D01*
X1290810Y924314D01*
X1290107Y924314D01*
X1290158Y924005D01*
X1290175Y923710D01*
X1290156Y923454D01*
X1290101Y923221D01*
X1290009Y923012D01*
X1289881Y922825D01*
X1289711Y922659D01*
X1289495Y922510D01*
X1289233Y922377D01*
X1288925Y922261D01*
X1288867Y922602D01*
X1288782Y922924D01*
X1288672Y923226D01*
X1288536Y923509D01*
X1288374Y923773D01*
X1288186Y924018D01*
X1287973Y924244D01*
X1287734Y924450D01*
X1287473Y924635D01*
X1287195Y924794D01*
X1286900Y924930D01*
X1286587Y925041D01*
X1286257Y925127D01*
X1285909Y925188D01*
X1285544Y925225D01*
X1285162Y925237D01*
X1284875Y925231D01*
X1284599Y925210D01*
X1284332Y925176D01*
X1284074Y925128D01*
X1283826Y925066D01*
X1283588Y924991D01*
X1283360Y924902D01*
X1283141Y924799D01*
X1282934Y924683D01*
X1282739Y924556D01*
X1282557Y924415D01*
X1282387Y924263D01*
X1282231Y924098D01*
X1282087Y923922D01*
X1281955Y923733D01*
X1281837Y923531D01*
X1281732Y923319D01*
X1281640Y923098D01*
X1281563Y922867D01*
X1281500Y922627D01*
X1281451Y922378D01*
X1281416Y922119D01*
X1281395Y921851D01*
X1281388Y921574D01*
X1281404Y921152D01*
X1281450Y920755D01*
X1281529Y920381D01*
X1281638Y920032D01*
X1281779Y919706D01*
X1281950Y919403D01*
X1282154Y919125D01*
X1282388Y918870D01*
X1282650Y918643D01*
X1282936Y918445D01*
X1283247Y918279D01*
X1283581Y918142D01*
X1283940Y918036D01*
X1284323Y917960D01*
X1284731Y917914D01*
X1285162Y917899D01*
X1285437Y917905D01*
G37*
%LPC*%
G36*
X1284821Y918928D02*
X1284500Y918961D01*
X1284199Y919015D01*
X1283917Y919091D01*
X1283654Y919188D01*
X1283411Y919307D01*
X1283188Y919448D01*
X1282984Y919610D01*
X1282802Y919793D01*
X1282644Y919993D01*
X1282510Y920211D01*
X1282401Y920448D01*
X1282316Y920702D01*
X1282255Y920975D01*
X1282219Y921265D01*
X1282207Y921574D01*
X1282219Y921880D01*
X1282256Y922168D01*
X1282317Y922438D01*
X1282404Y922691D01*
X1282514Y922926D01*
X1282650Y923143D01*
X1282810Y923342D01*
X1282994Y923524D01*
X1283200Y923685D01*
X1283425Y923826D01*
X1283668Y923944D01*
X1283930Y924041D01*
X1284210Y924117D01*
X1284509Y924171D01*
X1284826Y924203D01*
X1285162Y924214D01*
X1285513Y924203D01*
X1285843Y924171D01*
X1286153Y924117D01*
X1286442Y924043D01*
X1286711Y923946D01*
X1286960Y923829D01*
X1287188Y923689D01*
X1287395Y923529D01*
X1287581Y923348D01*
X1287741Y923149D01*
X1287877Y922931D01*
X1287988Y922695D01*
X1288074Y922440D01*
X1288136Y922166D01*
X1288173Y921874D01*
X1288185Y921563D01*
X1288173Y921261D01*
X1288134Y920975D01*
X1288071Y920706D01*
X1287981Y920455D01*
X1287867Y920220D01*
X1287726Y920003D01*
X1287560Y919802D01*
X1287369Y919618D01*
X1287156Y919454D01*
X1286925Y919312D01*
X1286676Y919191D01*
X1286409Y919093D01*
X1286124Y919016D01*
X1285822Y918961D01*
X1285501Y918929D01*
X1285162Y918918D01*
X1284821Y918928D01*
G37*
%LPD*%
G36*
X1288894Y931188D02*
X1288091Y931188D01*
X1288091Y929387D01*
X1281498Y929387D01*
X1281498Y928516D01*
X1282700Y926768D01*
X1283593Y926768D01*
X1282401Y928437D01*
X1288091Y928437D01*
X1288091Y926553D01*
X1288894Y926553D01*
X1288894Y931188D01*
G37*
G36*
X1291905Y880782D02*
X1292136Y880804D01*
X1292614Y880890D01*
X1292614Y881594D01*
X1292305Y881542D01*
X1292010Y881525D01*
X1291754Y881544D01*
X1291521Y881599D01*
X1291312Y881691D01*
X1291125Y881819D01*
X1290959Y881989D01*
X1290810Y882205D01*
X1290677Y882467D01*
X1290561Y882775D01*
X1290902Y882833D01*
X1291224Y882918D01*
X1291526Y883028D01*
X1291809Y883164D01*
X1292073Y883326D01*
X1292318Y883514D01*
X1292544Y883727D01*
X1292750Y883966D01*
X1292935Y884227D01*
X1293094Y884505D01*
X1293230Y884800D01*
X1293341Y885113D01*
X1293427Y885443D01*
X1293488Y885791D01*
X1293525Y886156D01*
X1293537Y886538D01*
X1293531Y886825D01*
X1293510Y887101D01*
X1293476Y887368D01*
X1293428Y887626D01*
X1293366Y887874D01*
X1293291Y888112D01*
X1293202Y888340D01*
X1293099Y888559D01*
X1292983Y888766D01*
X1292856Y888961D01*
X1292715Y889143D01*
X1292563Y889313D01*
X1292398Y889470D01*
X1292222Y889613D01*
X1292033Y889745D01*
X1291831Y889863D01*
X1291619Y889968D01*
X1291398Y890060D01*
X1291167Y890137D01*
X1290927Y890200D01*
X1290678Y890249D01*
X1290419Y890284D01*
X1290151Y890305D01*
X1289874Y890312D01*
X1289452Y890296D01*
X1289055Y890250D01*
X1288681Y890171D01*
X1288332Y890062D01*
X1288006Y889922D01*
X1287703Y889750D01*
X1287425Y889547D01*
X1287170Y889312D01*
X1286943Y889050D01*
X1286745Y888764D01*
X1286579Y888453D01*
X1286442Y888119D01*
X1286336Y887760D01*
X1286260Y887377D01*
X1286214Y886970D01*
X1286199Y886538D01*
X1286205Y886263D01*
X1286224Y885996D01*
X1286255Y885738D01*
X1286298Y885488D01*
X1286422Y885013D01*
X1286596Y884572D01*
X1286816Y884172D01*
X1287081Y883818D01*
X1287391Y883510D01*
X1287745Y883250D01*
X1288140Y883038D01*
X1288350Y882953D01*
X1288570Y882880D01*
X1288798Y882821D01*
X1289036Y882775D01*
X1289282Y882742D01*
X1289538Y882722D01*
X1289712Y882235D01*
X1289910Y881822D01*
X1290131Y881485D01*
X1290250Y881345D01*
X1290375Y881223D01*
X1290507Y881118D01*
X1290648Y881027D01*
X1290798Y880950D01*
X1290957Y880887D01*
X1291124Y880838D01*
X1291300Y880803D01*
X1291485Y880782D01*
X1291679Y880775D01*
X1291905Y880782D01*
G37*
%LPC*%
G36*
X1289561Y883527D02*
X1289275Y883566D01*
X1289006Y883629D01*
X1288755Y883719D01*
X1288520Y883833D01*
X1288303Y883974D01*
X1288102Y884140D01*
X1287918Y884331D01*
X1287754Y884544D01*
X1287612Y884775D01*
X1287491Y885024D01*
X1287393Y885291D01*
X1287316Y885576D01*
X1287261Y885878D01*
X1287229Y886199D01*
X1287218Y886538D01*
X1287228Y886879D01*
X1287261Y887200D01*
X1287315Y887501D01*
X1287391Y887783D01*
X1287488Y888046D01*
X1287607Y888289D01*
X1287748Y888512D01*
X1287910Y888716D01*
X1288093Y888898D01*
X1288293Y889056D01*
X1288511Y889190D01*
X1288748Y889299D01*
X1289002Y889384D01*
X1289275Y889445D01*
X1289565Y889481D01*
X1289874Y889493D01*
X1290180Y889481D01*
X1290468Y889444D01*
X1290738Y889383D01*
X1290991Y889296D01*
X1291226Y889186D01*
X1291443Y889050D01*
X1291642Y888890D01*
X1291824Y888706D01*
X1291985Y888500D01*
X1292126Y888275D01*
X1292244Y888032D01*
X1292341Y887770D01*
X1292417Y887490D01*
X1292471Y887191D01*
X1292503Y886874D01*
X1292514Y886538D01*
X1292503Y886187D01*
X1292471Y885857D01*
X1292417Y885547D01*
X1292343Y885258D01*
X1292246Y884989D01*
X1292129Y884740D01*
X1291989Y884512D01*
X1291829Y884305D01*
X1291648Y884119D01*
X1291449Y883959D01*
X1291231Y883823D01*
X1290995Y883712D01*
X1290740Y883626D01*
X1290466Y883564D01*
X1290174Y883527D01*
X1289863Y883515D01*
X1289561Y883527D01*
G37*
%LPD*%
G36*
X1299472Y883609D02*
X1295614Y883609D01*
X1295705Y883795D01*
X1295821Y883984D01*
X1295962Y884176D01*
X1296128Y884373D01*
X1296547Y884793D01*
X1297089Y885263D01*
X1298009Y886038D01*
X1298336Y886338D01*
X1298574Y886580D01*
X1298756Y886793D01*
X1298915Y887005D01*
X1299049Y887218D01*
X1299160Y887430D01*
X1299246Y887643D01*
X1299307Y887857D01*
X1299344Y888071D01*
X1299356Y888286D01*
X1299347Y888522D01*
X1299319Y888744D01*
X1299272Y888952D01*
X1299206Y889146D01*
X1299122Y889327D01*
X1299018Y889493D01*
X1298896Y889646D01*
X1298755Y889785D01*
X1298597Y889908D01*
X1298423Y890015D01*
X1298232Y890106D01*
X1298025Y890180D01*
X1297802Y890238D01*
X1297563Y890279D01*
X1297308Y890304D01*
X1297036Y890312D01*
X1296787Y890304D01*
X1296550Y890279D01*
X1296325Y890238D01*
X1296110Y890181D01*
X1295908Y890107D01*
X1295717Y890017D01*
X1295538Y889910D01*
X1295370Y889787D01*
X1295216Y889650D01*
X1295080Y889502D01*
X1294960Y889343D01*
X1294857Y889172D01*
X1294772Y888990D01*
X1294703Y888796D01*
X1294651Y888591D01*
X1294616Y888375D01*
X1295582Y888286D01*
X1295637Y888566D01*
X1295731Y888813D01*
X1295866Y889027D01*
X1296042Y889207D01*
X1296250Y889351D01*
X1296486Y889453D01*
X1296748Y889515D01*
X1297036Y889535D01*
X1297336Y889514D01*
X1297602Y889451D01*
X1297832Y889346D01*
X1298028Y889199D01*
X1298185Y889014D01*
X1298296Y888795D01*
X1298363Y888542D01*
X1298385Y888254D01*
X1298372Y888035D01*
X1298333Y887827D01*
X1298269Y887631D01*
X1298178Y887446D01*
X1297938Y887097D01*
X1297635Y886764D01*
X1297278Y886438D01*
X1296881Y886113D01*
X1296462Y885774D01*
X1296039Y885407D01*
X1295624Y885004D01*
X1295228Y884557D01*
X1295042Y884313D01*
X1294872Y884051D01*
X1294716Y883771D01*
X1294574Y883473D01*
X1294574Y882806D01*
X1299472Y882806D01*
X1299472Y883609D01*
G37*
G36*
X1353914Y940341D02*
X1356218Y940341D01*
X1358139Y937270D01*
X1359294Y937270D01*
X1358088Y939100D01*
X1357194Y940456D01*
X1357400Y940499D01*
X1357594Y940556D01*
X1357777Y940625D01*
X1357948Y940707D01*
X1358042Y940762D01*
X1358108Y940802D01*
X1358257Y940910D01*
X1358394Y941031D01*
X1358520Y941165D01*
X1358632Y941309D01*
X1358730Y941462D01*
X1358812Y941623D01*
X1358880Y941792D01*
X1358932Y941969D01*
X1358970Y942155D01*
X1358992Y942349D01*
X1359000Y942551D01*
X1358989Y942793D01*
X1358957Y943022D01*
X1358904Y943237D01*
X1358830Y943438D01*
X1358734Y943626D01*
X1358618Y943800D01*
X1358479Y943960D01*
X1358320Y944107D01*
X1358141Y944238D01*
X1357945Y944351D01*
X1357730Y944448D01*
X1357498Y944526D01*
X1357248Y944587D01*
X1356980Y944631D01*
X1356695Y944657D01*
X1356391Y944666D01*
X1352911Y944666D01*
X1352911Y937270D01*
X1353914Y937270D01*
X1353914Y940341D01*
G37*
%LPC*%
G36*
X1353914Y941133D02*
X1353914Y943863D01*
X1356291Y943863D01*
X1356679Y943842D01*
X1357019Y943778D01*
X1357310Y943672D01*
X1357554Y943524D01*
X1357746Y943336D01*
X1357821Y943227D01*
X1357882Y943109D01*
X1357930Y942981D01*
X1357965Y942844D01*
X1357985Y942697D01*
X1357992Y942540D01*
X1357985Y942378D01*
X1357965Y942225D01*
X1357931Y942082D01*
X1357884Y941948D01*
X1357823Y941823D01*
X1357748Y941707D01*
X1357559Y941503D01*
X1357320Y941341D01*
X1357036Y941226D01*
X1356707Y941156D01*
X1356333Y941133D01*
X1353914Y941133D01*
G37*
%LPD*%
G36*
X1365233Y938073D02*
X1363432Y938073D01*
X1363432Y944666D01*
X1362561Y944666D01*
X1360813Y943464D01*
X1360813Y942572D01*
X1362482Y943763D01*
X1362482Y938073D01*
X1360598Y938073D01*
X1360598Y937270D01*
X1365233Y937270D01*
X1365233Y938073D01*
G37*
G36*
X1353914Y884461D02*
X1356218Y884461D01*
X1358139Y881390D01*
X1359294Y881390D01*
X1358088Y883220D01*
X1357194Y884576D01*
X1357400Y884619D01*
X1357594Y884676D01*
X1357777Y884745D01*
X1357948Y884827D01*
X1358042Y884882D01*
X1358108Y884922D01*
X1358257Y885030D01*
X1358394Y885151D01*
X1358520Y885285D01*
X1358632Y885429D01*
X1358730Y885582D01*
X1358812Y885743D01*
X1358880Y885912D01*
X1358932Y886089D01*
X1358970Y886275D01*
X1358992Y886469D01*
X1359000Y886671D01*
X1358989Y886913D01*
X1358957Y887142D01*
X1358904Y887357D01*
X1358830Y887558D01*
X1358734Y887746D01*
X1358618Y887920D01*
X1358479Y888080D01*
X1358320Y888227D01*
X1358141Y888358D01*
X1357945Y888471D01*
X1357730Y888568D01*
X1357498Y888646D01*
X1357248Y888707D01*
X1356980Y888751D01*
X1356695Y888777D01*
X1356391Y888786D01*
X1352911Y888786D01*
X1352911Y881390D01*
X1353914Y881390D01*
X1353914Y884461D01*
G37*
%LPC*%
G36*
X1353914Y885253D02*
X1353914Y887983D01*
X1356291Y887983D01*
X1356679Y887962D01*
X1357019Y887898D01*
X1357310Y887792D01*
X1357554Y887644D01*
X1357746Y887456D01*
X1357821Y887347D01*
X1357882Y887229D01*
X1357930Y887101D01*
X1357965Y886964D01*
X1357985Y886817D01*
X1357992Y886660D01*
X1357985Y886498D01*
X1357965Y886345D01*
X1357931Y886202D01*
X1357884Y886068D01*
X1357823Y885943D01*
X1357748Y885827D01*
X1357559Y885623D01*
X1357320Y885461D01*
X1357036Y885346D01*
X1356707Y885276D01*
X1356333Y885253D01*
X1353914Y885253D01*
G37*
%LPD*%
G36*
X1364404Y883064D02*
X1365443Y883064D01*
X1365443Y883810D01*
X1364404Y883810D01*
X1364404Y888786D01*
X1363411Y888786D01*
X1360026Y883799D01*
X1360026Y883064D01*
X1363511Y883064D01*
X1363511Y881390D01*
X1364404Y881390D01*
X1364404Y883064D01*
G37*
%LPC*%
G36*
X1360897Y883810D02*
X1360981Y883915D01*
X1361265Y884303D01*
X1363160Y887096D01*
X1363364Y887442D01*
X1363511Y887720D01*
X1363511Y883810D01*
X1360897Y883810D01*
G37*
%LPD*%
G36*
X1401125Y608690D02*
X1401356Y608712D01*
X1401834Y608798D01*
X1401834Y609502D01*
X1401525Y609450D01*
X1401230Y609433D01*
X1400974Y609452D01*
X1400741Y609507D01*
X1400532Y609599D01*
X1400345Y609727D01*
X1400179Y609897D01*
X1400030Y610113D01*
X1399897Y610375D01*
X1399781Y610683D01*
X1400122Y610741D01*
X1400444Y610826D01*
X1400746Y610936D01*
X1401029Y611072D01*
X1401293Y611234D01*
X1401538Y611422D01*
X1401764Y611635D01*
X1401970Y611874D01*
X1402155Y612135D01*
X1402314Y612413D01*
X1402450Y612708D01*
X1402561Y613021D01*
X1402647Y613351D01*
X1402708Y613699D01*
X1402745Y614064D01*
X1402757Y614446D01*
X1402751Y614733D01*
X1402730Y615009D01*
X1402696Y615276D01*
X1402648Y615534D01*
X1402586Y615782D01*
X1402511Y616020D01*
X1402422Y616248D01*
X1402319Y616467D01*
X1402203Y616674D01*
X1402076Y616869D01*
X1401935Y617051D01*
X1401783Y617221D01*
X1401618Y617378D01*
X1401442Y617521D01*
X1401253Y617653D01*
X1401051Y617771D01*
X1400839Y617876D01*
X1400618Y617968D01*
X1400387Y618045D01*
X1400147Y618108D01*
X1399898Y618157D01*
X1399639Y618192D01*
X1399371Y618213D01*
X1399094Y618220D01*
X1398672Y618204D01*
X1398275Y618158D01*
X1397901Y618079D01*
X1397552Y617970D01*
X1397226Y617830D01*
X1396923Y617658D01*
X1396645Y617455D01*
X1396390Y617220D01*
X1396163Y616958D01*
X1395965Y616672D01*
X1395799Y616361D01*
X1395662Y616027D01*
X1395556Y615668D01*
X1395480Y615285D01*
X1395434Y614878D01*
X1395419Y614446D01*
X1395425Y614171D01*
X1395444Y613904D01*
X1395475Y613646D01*
X1395518Y613396D01*
X1395642Y612921D01*
X1395816Y612480D01*
X1396036Y612080D01*
X1396301Y611726D01*
X1396611Y611418D01*
X1396965Y611158D01*
X1397360Y610946D01*
X1397570Y610861D01*
X1397790Y610788D01*
X1398018Y610729D01*
X1398256Y610683D01*
X1398502Y610650D01*
X1398758Y610630D01*
X1398932Y610143D01*
X1399130Y609730D01*
X1399351Y609393D01*
X1399470Y609253D01*
X1399595Y609131D01*
X1399727Y609026D01*
X1399868Y608935D01*
X1400018Y608858D01*
X1400177Y608795D01*
X1400344Y608746D01*
X1400520Y608711D01*
X1400705Y608690D01*
X1400899Y608683D01*
X1401125Y608690D01*
G37*
%LPC*%
G36*
X1398781Y611435D02*
X1398495Y611474D01*
X1398226Y611537D01*
X1397975Y611627D01*
X1397740Y611741D01*
X1397523Y611882D01*
X1397322Y612048D01*
X1397138Y612239D01*
X1396974Y612452D01*
X1396832Y612683D01*
X1396711Y612932D01*
X1396613Y613199D01*
X1396536Y613484D01*
X1396481Y613786D01*
X1396449Y614107D01*
X1396438Y614446D01*
X1396448Y614787D01*
X1396481Y615108D01*
X1396535Y615409D01*
X1396611Y615691D01*
X1396708Y615954D01*
X1396827Y616197D01*
X1396968Y616420D01*
X1397130Y616624D01*
X1397313Y616806D01*
X1397513Y616964D01*
X1397731Y617098D01*
X1397968Y617207D01*
X1398222Y617292D01*
X1398495Y617353D01*
X1398785Y617389D01*
X1399094Y617401D01*
X1399400Y617389D01*
X1399688Y617352D01*
X1399958Y617291D01*
X1400211Y617204D01*
X1400446Y617094D01*
X1400663Y616958D01*
X1400862Y616798D01*
X1401044Y616614D01*
X1401205Y616408D01*
X1401346Y616183D01*
X1401464Y615940D01*
X1401561Y615678D01*
X1401637Y615398D01*
X1401691Y615099D01*
X1401723Y614782D01*
X1401734Y614446D01*
X1401723Y614095D01*
X1401691Y613765D01*
X1401637Y613455D01*
X1401563Y613166D01*
X1401466Y612897D01*
X1401349Y612648D01*
X1401209Y612420D01*
X1401049Y612213D01*
X1400868Y612027D01*
X1400669Y611867D01*
X1400451Y611731D01*
X1400215Y611620D01*
X1399960Y611534D01*
X1399686Y611472D01*
X1399394Y611435D01*
X1399083Y611423D01*
X1398781Y611435D01*
G37*
%LPD*%
G36*
X1407878Y612388D02*
X1408918Y612388D01*
X1408918Y613134D01*
X1407878Y613134D01*
X1407878Y618110D01*
X1406886Y618110D01*
X1403501Y613123D01*
X1403501Y612388D01*
X1406986Y612388D01*
X1406986Y610714D01*
X1407878Y610714D01*
X1407878Y612388D01*
G37*
%LPC*%
G36*
X1404372Y613134D02*
X1404456Y613239D01*
X1404739Y613627D01*
X1406634Y616420D01*
X1406839Y616766D01*
X1406986Y617044D01*
X1406986Y613134D01*
X1404372Y613134D01*
G37*
%LPD*%
G36*
X1477325Y608690D02*
X1477556Y608712D01*
X1478034Y608798D01*
X1478034Y609502D01*
X1477725Y609450D01*
X1477430Y609433D01*
X1477174Y609452D01*
X1476941Y609507D01*
X1476732Y609599D01*
X1476545Y609727D01*
X1476379Y609897D01*
X1476230Y610113D01*
X1476097Y610375D01*
X1475981Y610683D01*
X1476322Y610741D01*
X1476644Y610826D01*
X1476946Y610936D01*
X1477229Y611072D01*
X1477493Y611234D01*
X1477738Y611422D01*
X1477964Y611635D01*
X1478170Y611874D01*
X1478355Y612135D01*
X1478514Y612413D01*
X1478650Y612708D01*
X1478761Y613021D01*
X1478847Y613351D01*
X1478908Y613699D01*
X1478945Y614064D01*
X1478957Y614446D01*
X1478951Y614733D01*
X1478930Y615009D01*
X1478896Y615276D01*
X1478848Y615534D01*
X1478786Y615782D01*
X1478711Y616020D01*
X1478622Y616248D01*
X1478519Y616467D01*
X1478403Y616674D01*
X1478276Y616869D01*
X1478135Y617051D01*
X1477983Y617221D01*
X1477818Y617378D01*
X1477642Y617521D01*
X1477453Y617653D01*
X1477251Y617771D01*
X1477039Y617876D01*
X1476818Y617968D01*
X1476587Y618045D01*
X1476347Y618108D01*
X1476098Y618157D01*
X1475839Y618192D01*
X1475571Y618213D01*
X1475294Y618220D01*
X1474872Y618204D01*
X1474475Y618158D01*
X1474101Y618079D01*
X1473752Y617970D01*
X1473426Y617830D01*
X1473123Y617658D01*
X1472845Y617455D01*
X1472590Y617220D01*
X1472363Y616958D01*
X1472165Y616672D01*
X1471999Y616361D01*
X1471862Y616027D01*
X1471756Y615668D01*
X1471680Y615285D01*
X1471634Y614878D01*
X1471619Y614446D01*
X1471625Y614171D01*
X1471644Y613904D01*
X1471675Y613646D01*
X1471718Y613396D01*
X1471842Y612921D01*
X1472016Y612480D01*
X1472236Y612080D01*
X1472501Y611726D01*
X1472811Y611418D01*
X1473165Y611158D01*
X1473560Y610946D01*
X1473770Y610861D01*
X1473990Y610788D01*
X1474218Y610729D01*
X1474456Y610683D01*
X1474702Y610650D01*
X1474958Y610630D01*
X1475132Y610143D01*
X1475330Y609730D01*
X1475551Y609393D01*
X1475670Y609253D01*
X1475795Y609131D01*
X1475927Y609026D01*
X1476068Y608935D01*
X1476218Y608858D01*
X1476377Y608795D01*
X1476544Y608746D01*
X1476720Y608711D01*
X1476905Y608690D01*
X1477099Y608683D01*
X1477325Y608690D01*
G37*
%LPC*%
G36*
X1474981Y611435D02*
X1474695Y611474D01*
X1474426Y611537D01*
X1474175Y611627D01*
X1473940Y611741D01*
X1473723Y611882D01*
X1473522Y612048D01*
X1473338Y612239D01*
X1473174Y612452D01*
X1473032Y612683D01*
X1472911Y612932D01*
X1472813Y613199D01*
X1472736Y613484D01*
X1472681Y613786D01*
X1472649Y614107D01*
X1472638Y614446D01*
X1472648Y614787D01*
X1472681Y615108D01*
X1472735Y615409D01*
X1472811Y615691D01*
X1472908Y615954D01*
X1473027Y616197D01*
X1473168Y616420D01*
X1473330Y616624D01*
X1473513Y616806D01*
X1473713Y616964D01*
X1473931Y617098D01*
X1474168Y617207D01*
X1474422Y617292D01*
X1474695Y617353D01*
X1474985Y617389D01*
X1475294Y617401D01*
X1475600Y617389D01*
X1475888Y617352D01*
X1476158Y617291D01*
X1476411Y617204D01*
X1476646Y617094D01*
X1476863Y616958D01*
X1477062Y616798D01*
X1477244Y616614D01*
X1477405Y616408D01*
X1477546Y616183D01*
X1477664Y615940D01*
X1477761Y615678D01*
X1477837Y615398D01*
X1477891Y615099D01*
X1477923Y614782D01*
X1477934Y614446D01*
X1477923Y614095D01*
X1477891Y613765D01*
X1477837Y613455D01*
X1477763Y613166D01*
X1477666Y612897D01*
X1477549Y612648D01*
X1477409Y612420D01*
X1477249Y612213D01*
X1477068Y612027D01*
X1476869Y611867D01*
X1476651Y611731D01*
X1476415Y611620D01*
X1476160Y611534D01*
X1475886Y611472D01*
X1475594Y611435D01*
X1475283Y611423D01*
X1474981Y611435D01*
G37*
%LPD*%
G36*
X1482657Y610620D02*
X1482940Y610651D01*
X1483206Y610704D01*
X1483456Y610777D01*
X1483688Y610871D01*
X1483904Y610987D01*
X1484103Y611123D01*
X1484286Y611281D01*
X1484449Y611457D01*
X1484590Y611648D01*
X1484709Y611855D01*
X1484807Y612077D01*
X1484883Y612316D01*
X1484938Y612569D01*
X1484970Y612838D01*
X1484981Y613123D01*
X1484971Y613374D01*
X1484941Y613613D01*
X1484890Y613840D01*
X1484819Y614055D01*
X1484728Y614258D01*
X1484616Y614448D01*
X1484485Y614626D01*
X1484333Y614792D01*
X1484164Y614943D01*
X1483981Y615073D01*
X1483784Y615183D01*
X1483574Y615273D01*
X1483349Y615343D01*
X1483111Y615393D01*
X1482859Y615423D01*
X1482593Y615433D01*
X1482369Y615425D01*
X1482155Y615403D01*
X1481950Y615366D01*
X1481754Y615315D01*
X1481568Y615248D01*
X1481391Y615167D01*
X1481224Y615071D01*
X1481065Y614960D01*
X1481207Y617307D01*
X1484551Y617307D01*
X1484551Y618110D01*
X1480346Y618110D01*
X1480099Y614131D01*
X1481023Y614131D01*
X1481189Y614265D01*
X1481354Y614378D01*
X1481519Y614470D01*
X1481685Y614541D01*
X1481853Y614593D01*
X1482028Y614631D01*
X1482210Y614654D01*
X1482399Y614661D01*
X1482578Y614655D01*
X1482747Y614634D01*
X1482907Y614601D01*
X1483058Y614554D01*
X1483199Y614493D01*
X1483331Y614419D01*
X1483566Y614231D01*
X1483756Y613999D01*
X1483830Y613870D01*
X1483891Y613734D01*
X1483939Y613588D01*
X1483972Y613435D01*
X1483993Y613273D01*
X1483999Y613102D01*
X1483993Y612907D01*
X1483973Y612722D01*
X1483939Y612548D01*
X1483892Y612385D01*
X1483831Y612233D01*
X1483757Y612091D01*
X1483670Y611960D01*
X1483569Y611840D01*
X1483456Y611732D01*
X1483333Y611639D01*
X1483200Y611560D01*
X1483056Y611495D01*
X1482902Y611445D01*
X1482737Y611409D01*
X1482563Y611388D01*
X1482378Y611381D01*
X1482083Y611398D01*
X1481817Y611449D01*
X1481581Y611535D01*
X1481374Y611655D01*
X1481196Y611809D01*
X1481048Y611998D01*
X1480929Y612221D01*
X1480840Y612478D01*
X1479884Y612367D01*
X1479934Y612160D01*
X1479997Y611965D01*
X1480076Y611783D01*
X1480169Y611613D01*
X1480277Y611456D01*
X1480399Y611311D01*
X1480536Y611180D01*
X1480687Y611060D01*
X1480852Y610955D01*
X1481030Y610863D01*
X1481220Y610785D01*
X1481422Y610722D01*
X1481637Y610673D01*
X1481864Y610637D01*
X1482104Y610616D01*
X1482357Y610609D01*
X1482657Y610620D01*
G37*
G36*
X1366614Y620301D02*
X1368918Y620301D01*
X1370839Y617230D01*
X1371994Y617230D01*
X1370788Y619060D01*
X1369894Y620416D01*
X1370100Y620459D01*
X1370294Y620516D01*
X1370477Y620585D01*
X1370648Y620667D01*
X1370742Y620722D01*
X1370808Y620762D01*
X1370957Y620870D01*
X1371094Y620991D01*
X1371220Y621125D01*
X1371332Y621269D01*
X1371430Y621422D01*
X1371512Y621583D01*
X1371580Y621752D01*
X1371632Y621929D01*
X1371670Y622115D01*
X1371692Y622309D01*
X1371700Y622511D01*
X1371689Y622753D01*
X1371657Y622982D01*
X1371604Y623197D01*
X1371530Y623398D01*
X1371434Y623586D01*
X1371318Y623760D01*
X1371179Y623920D01*
X1371020Y624067D01*
X1370841Y624198D01*
X1370645Y624311D01*
X1370430Y624408D01*
X1370198Y624486D01*
X1369948Y624547D01*
X1369680Y624591D01*
X1369395Y624617D01*
X1369091Y624626D01*
X1365611Y624626D01*
X1365611Y617230D01*
X1366614Y617230D01*
X1366614Y620301D01*
G37*
%LPC*%
G36*
X1366614Y621093D02*
X1366614Y623823D01*
X1368991Y623823D01*
X1369379Y623802D01*
X1369719Y623738D01*
X1370010Y623632D01*
X1370254Y623484D01*
X1370446Y623296D01*
X1370521Y623187D01*
X1370582Y623069D01*
X1370630Y622941D01*
X1370665Y622804D01*
X1370685Y622657D01*
X1370692Y622500D01*
X1370685Y622338D01*
X1370665Y622185D01*
X1370631Y622042D01*
X1370584Y621908D01*
X1370523Y621783D01*
X1370448Y621667D01*
X1370259Y621463D01*
X1370020Y621301D01*
X1369736Y621186D01*
X1369407Y621116D01*
X1369033Y621093D01*
X1366614Y621093D01*
G37*
%LPD*%
G36*
X1375584Y617141D02*
X1375878Y617189D01*
X1376153Y617269D01*
X1376410Y617381D01*
X1376648Y617525D01*
X1376868Y617701D01*
X1377070Y617909D01*
X1377253Y618149D01*
X1377416Y618418D01*
X1377557Y618715D01*
X1377677Y619040D01*
X1377775Y619393D01*
X1377851Y619772D01*
X1377905Y620180D01*
X1377938Y620615D01*
X1377949Y621078D01*
X1377939Y621521D01*
X1377909Y621936D01*
X1377859Y622322D01*
X1377790Y622680D01*
X1377701Y623009D01*
X1377591Y623309D01*
X1377462Y623580D01*
X1377314Y623823D01*
X1377145Y624037D01*
X1376959Y624222D01*
X1376753Y624379D01*
X1376529Y624508D01*
X1376286Y624608D01*
X1376024Y624679D01*
X1375744Y624722D01*
X1375445Y624736D01*
X1375163Y624726D01*
X1374897Y624695D01*
X1374646Y624643D01*
X1374412Y624570D01*
X1374194Y624477D01*
X1373991Y624363D01*
X1373805Y624228D01*
X1373634Y624072D01*
X1373481Y623898D01*
X1373349Y623709D01*
X1373237Y623504D01*
X1373146Y623284D01*
X1373075Y623048D01*
X1373024Y622797D01*
X1372993Y622530D01*
X1372983Y622248D01*
X1372992Y621973D01*
X1373020Y621712D01*
X1373067Y621464D01*
X1373133Y621231D01*
X1373217Y621012D01*
X1373320Y620806D01*
X1373441Y620615D01*
X1373581Y620437D01*
X1373737Y620277D01*
X1373906Y620139D01*
X1374086Y620021D01*
X1374280Y619925D01*
X1374485Y619851D01*
X1374703Y619797D01*
X1374934Y619765D01*
X1375177Y619755D01*
X1375475Y619773D01*
X1375761Y619826D01*
X1376034Y619916D01*
X1376295Y620041D01*
X1376531Y620196D01*
X1376730Y620374D01*
X1376891Y620575D01*
X1377014Y620799D01*
X1377002Y620459D01*
X1376977Y620139D01*
X1376939Y619839D01*
X1376887Y619559D01*
X1376822Y619300D01*
X1376744Y619060D01*
X1376652Y618841D01*
X1376547Y618642D01*
X1376430Y618465D01*
X1376301Y618311D01*
X1376161Y618181D01*
X1376009Y618075D01*
X1375846Y617992D01*
X1375671Y617933D01*
X1375485Y617898D01*
X1375287Y617886D01*
X1375057Y617901D01*
X1374847Y617944D01*
X1374659Y618016D01*
X1374492Y618117D01*
X1374347Y618247D01*
X1374222Y618406D01*
X1374120Y618593D01*
X1374038Y618810D01*
X1373135Y618668D01*
X1373267Y618289D01*
X1373435Y617967D01*
X1373641Y617700D01*
X1373757Y617588D01*
X1373883Y617490D01*
X1374166Y617330D01*
X1374492Y617216D01*
X1374860Y617148D01*
X1375272Y617125D01*
X1375584Y617141D01*
G37*
%LPC*%
G36*
X1375239Y620507D02*
X1375084Y620530D01*
X1374938Y620566D01*
X1374801Y620618D01*
X1374672Y620684D01*
X1374552Y620764D01*
X1374440Y620860D01*
X1374337Y620970D01*
X1374165Y621226D01*
X1374097Y621370D01*
X1374042Y621524D01*
X1373999Y621689D01*
X1373968Y621865D01*
X1373950Y622051D01*
X1373944Y622248D01*
X1373950Y622441D01*
X1373968Y622624D01*
X1373999Y622796D01*
X1374042Y622959D01*
X1374165Y623252D01*
X1374337Y623505D01*
X1374440Y623614D01*
X1374552Y623708D01*
X1374673Y623788D01*
X1374803Y623854D01*
X1374942Y623904D01*
X1375090Y623941D01*
X1375247Y623962D01*
X1375413Y623970D01*
X1375581Y623961D01*
X1375740Y623936D01*
X1375890Y623893D01*
X1376031Y623834D01*
X1376164Y623758D01*
X1376288Y623664D01*
X1376404Y623554D01*
X1376510Y623426D01*
X1376606Y623285D01*
X1376690Y623133D01*
X1376760Y622970D01*
X1376817Y622796D01*
X1376862Y622611D01*
X1376894Y622415D01*
X1376913Y622208D01*
X1376920Y621991D01*
X1376907Y621779D01*
X1376869Y621579D01*
X1376806Y621391D01*
X1376718Y621214D01*
X1376607Y621053D01*
X1376478Y620912D01*
X1376330Y620789D01*
X1376164Y620686D01*
X1375985Y620605D01*
X1375798Y620547D01*
X1375604Y620512D01*
X1375403Y620500D01*
X1375239Y620507D01*
G37*
%LPD*%
G36*
X1454944Y617140D02*
X1455234Y617186D01*
X1455504Y617262D01*
X1455755Y617369D01*
X1455986Y617506D01*
X1456198Y617674D01*
X1456391Y617873D01*
X1456564Y618101D01*
X1456717Y618359D01*
X1456850Y618644D01*
X1456962Y618957D01*
X1457054Y619297D01*
X1457125Y619664D01*
X1457177Y620059D01*
X1457207Y620481D01*
X1457217Y620931D01*
X1457208Y621387D01*
X1457178Y621815D01*
X1457130Y622214D01*
X1457062Y622584D01*
X1456974Y622925D01*
X1456867Y623238D01*
X1456741Y623521D01*
X1456595Y623776D01*
X1456429Y624001D01*
X1456242Y624196D01*
X1456033Y624361D01*
X1455802Y624496D01*
X1455550Y624601D01*
X1455277Y624676D01*
X1454982Y624721D01*
X1454666Y624736D01*
X1454342Y624721D01*
X1454040Y624677D01*
X1453760Y624602D01*
X1453503Y624499D01*
X1453269Y624365D01*
X1453057Y624202D01*
X1452867Y624009D01*
X1452701Y623786D01*
X1452555Y623534D01*
X1452428Y623251D01*
X1452322Y622939D01*
X1452234Y622597D01*
X1452166Y622225D01*
X1452117Y621824D01*
X1452088Y621392D01*
X1452079Y620931D01*
X1452089Y620479D01*
X1452119Y620055D01*
X1452169Y619658D01*
X1452239Y619290D01*
X1452329Y618950D01*
X1452439Y618637D01*
X1452569Y618353D01*
X1452719Y618096D01*
X1452889Y617868D01*
X1453079Y617671D01*
X1453289Y617504D01*
X1453518Y617368D01*
X1453768Y617262D01*
X1454037Y617186D01*
X1454326Y617140D01*
X1454635Y617125D01*
X1454944Y617140D01*
G37*
%LPC*%
G36*
X1454442Y617908D02*
X1454254Y617942D01*
X1454079Y617999D01*
X1453919Y618079D01*
X1453773Y618182D01*
X1453641Y618307D01*
X1453523Y618455D01*
X1453420Y618626D01*
X1453329Y618822D01*
X1453251Y619044D01*
X1453185Y619292D01*
X1453130Y619567D01*
X1453088Y619868D01*
X1453058Y620196D01*
X1453040Y620550D01*
X1453034Y620931D01*
X1453040Y621322D01*
X1453058Y621684D01*
X1453087Y622019D01*
X1453129Y622324D01*
X1453183Y622601D01*
X1453248Y622850D01*
X1453325Y623070D01*
X1453414Y623261D01*
X1453517Y623427D01*
X1453635Y623571D01*
X1453769Y623693D01*
X1453918Y623793D01*
X1454082Y623870D01*
X1454261Y623925D01*
X1454456Y623959D01*
X1454666Y623970D01*
X1454871Y623959D01*
X1455061Y623925D01*
X1455237Y623869D01*
X1455397Y623790D01*
X1455542Y623689D01*
X1455672Y623565D01*
X1455787Y623419D01*
X1455887Y623251D01*
X1455973Y623057D01*
X1456049Y622836D01*
X1456112Y622587D01*
X1456164Y622311D01*
X1456205Y622007D01*
X1456234Y621676D01*
X1456251Y621317D01*
X1456257Y620931D01*
X1456251Y620557D01*
X1456233Y620209D01*
X1456202Y619885D01*
X1456160Y619587D01*
X1456105Y619313D01*
X1456038Y619065D01*
X1455959Y618841D01*
X1455868Y618642D01*
X1455764Y618467D01*
X1455646Y618316D01*
X1455514Y618188D01*
X1455368Y618083D01*
X1455209Y618001D01*
X1455035Y617943D01*
X1454847Y617908D01*
X1454645Y617897D01*
X1454442Y617908D01*
G37*
%LPD*%
G36*
X1439824Y620301D02*
X1442129Y620301D01*
X1444050Y617230D01*
X1445205Y617230D01*
X1443999Y619060D01*
X1443105Y620416D01*
X1443311Y620459D01*
X1443505Y620516D01*
X1443687Y620585D01*
X1443859Y620667D01*
X1443952Y620722D01*
X1444019Y620762D01*
X1444167Y620870D01*
X1444305Y620991D01*
X1444430Y621125D01*
X1444543Y621269D01*
X1444640Y621422D01*
X1444723Y621583D01*
X1444791Y621752D01*
X1444843Y621929D01*
X1444881Y622115D01*
X1444903Y622309D01*
X1444911Y622511D01*
X1444900Y622753D01*
X1444868Y622982D01*
X1444815Y623197D01*
X1444741Y623398D01*
X1444645Y623586D01*
X1444528Y623760D01*
X1444390Y623920D01*
X1444231Y624067D01*
X1444052Y624198D01*
X1443855Y624311D01*
X1443641Y624408D01*
X1443409Y624486D01*
X1443159Y624547D01*
X1442891Y624591D01*
X1442605Y624617D01*
X1442302Y624626D01*
X1438822Y624626D01*
X1438822Y617230D01*
X1439824Y617230D01*
X1439824Y620301D01*
G37*
%LPC*%
G36*
X1439824Y621093D02*
X1439824Y623823D01*
X1442202Y623823D01*
X1442590Y623802D01*
X1442930Y623738D01*
X1443221Y623632D01*
X1443465Y623484D01*
X1443656Y623296D01*
X1443732Y623187D01*
X1443793Y623069D01*
X1443841Y622941D01*
X1443875Y622804D01*
X1443896Y622657D01*
X1443903Y622500D01*
X1443896Y622338D01*
X1443876Y622185D01*
X1443842Y622042D01*
X1443795Y621908D01*
X1443734Y621783D01*
X1443659Y621667D01*
X1443470Y621463D01*
X1443231Y621301D01*
X1442947Y621186D01*
X1442618Y621116D01*
X1442244Y621093D01*
X1439824Y621093D01*
G37*
%LPD*%
G36*
X1451144Y618033D02*
X1449343Y618033D01*
X1449343Y624626D01*
X1448472Y624626D01*
X1446724Y623424D01*
X1446724Y622532D01*
X1448393Y623723D01*
X1448393Y618033D01*
X1446509Y618033D01*
X1446509Y617230D01*
X1451144Y617230D01*
X1451144Y618033D01*
G37*
G36*
X1346243Y592361D02*
X1348548Y592361D01*
X1350469Y589290D01*
X1351623Y589290D01*
X1350418Y591120D01*
X1349524Y592476D01*
X1349729Y592519D01*
X1349924Y592576D01*
X1350106Y592645D01*
X1350278Y592727D01*
X1350371Y592782D01*
X1350438Y592822D01*
X1350586Y592930D01*
X1350723Y593051D01*
X1350849Y593185D01*
X1350962Y593329D01*
X1351059Y593482D01*
X1351142Y593643D01*
X1351209Y593812D01*
X1351262Y593989D01*
X1351300Y594175D01*
X1351322Y594369D01*
X1351330Y594571D01*
X1351319Y594813D01*
X1351287Y595042D01*
X1351234Y595257D01*
X1351160Y595458D01*
X1351064Y595646D01*
X1350947Y595820D01*
X1350809Y595980D01*
X1350650Y596127D01*
X1350471Y596258D01*
X1350274Y596371D01*
X1350060Y596468D01*
X1349828Y596546D01*
X1349578Y596607D01*
X1349310Y596651D01*
X1349024Y596677D01*
X1348721Y596686D01*
X1345241Y596686D01*
X1345241Y589290D01*
X1346243Y589290D01*
X1346243Y592361D01*
G37*
%LPC*%
G36*
X1346243Y593153D02*
X1346243Y595883D01*
X1348621Y595883D01*
X1349009Y595862D01*
X1349349Y595798D01*
X1349640Y595692D01*
X1349883Y595544D01*
X1350075Y595356D01*
X1350151Y595247D01*
X1350212Y595129D01*
X1350260Y595001D01*
X1350294Y594864D01*
X1350315Y594717D01*
X1350322Y594560D01*
X1350315Y594398D01*
X1350295Y594245D01*
X1350261Y594102D01*
X1350213Y593968D01*
X1350153Y593843D01*
X1350078Y593727D01*
X1349889Y593523D01*
X1349650Y593361D01*
X1349366Y593246D01*
X1349037Y593176D01*
X1348663Y593153D01*
X1346243Y593153D01*
G37*
%LPD*%
G36*
X1357563Y590093D02*
X1355762Y590093D01*
X1355762Y596686D01*
X1354891Y596686D01*
X1353143Y595484D01*
X1353143Y594592D01*
X1354812Y595783D01*
X1354812Y590093D01*
X1352928Y590093D01*
X1352928Y589290D01*
X1357563Y589290D01*
X1357563Y590093D01*
G37*
G36*
X1362750Y590093D02*
X1360950Y590093D01*
X1360950Y596686D01*
X1360078Y596686D01*
X1358330Y595484D01*
X1358330Y594592D01*
X1360000Y595783D01*
X1360000Y590093D01*
X1358115Y590093D01*
X1358115Y589290D01*
X1362750Y589290D01*
X1362750Y590093D01*
G37*
G36*
X1422044Y592361D02*
X1424349Y592361D01*
X1426270Y589290D01*
X1427425Y589290D01*
X1426219Y591120D01*
X1425325Y592476D01*
X1425531Y592519D01*
X1425725Y592576D01*
X1425907Y592645D01*
X1426079Y592727D01*
X1426172Y592782D01*
X1426239Y592822D01*
X1426387Y592930D01*
X1426525Y593051D01*
X1426650Y593185D01*
X1426763Y593329D01*
X1426860Y593482D01*
X1426943Y593643D01*
X1427011Y593812D01*
X1427063Y593989D01*
X1427101Y594175D01*
X1427123Y594369D01*
X1427131Y594571D01*
X1427120Y594813D01*
X1427088Y595042D01*
X1427035Y595257D01*
X1426961Y595458D01*
X1426865Y595646D01*
X1426748Y595820D01*
X1426610Y595980D01*
X1426451Y596127D01*
X1426272Y596258D01*
X1426075Y596371D01*
X1425861Y596468D01*
X1425629Y596546D01*
X1425379Y596607D01*
X1425111Y596651D01*
X1424825Y596677D01*
X1424522Y596686D01*
X1421042Y596686D01*
X1421042Y589290D01*
X1422044Y589290D01*
X1422044Y592361D01*
G37*
%LPC*%
G36*
X1422044Y593153D02*
X1422044Y595883D01*
X1424422Y595883D01*
X1424810Y595862D01*
X1425150Y595798D01*
X1425441Y595692D01*
X1425685Y595544D01*
X1425876Y595356D01*
X1425952Y595247D01*
X1426013Y595129D01*
X1426061Y595001D01*
X1426095Y594864D01*
X1426116Y594717D01*
X1426123Y594560D01*
X1426116Y594398D01*
X1426096Y594245D01*
X1426062Y594102D01*
X1426015Y593968D01*
X1425954Y593843D01*
X1425879Y593727D01*
X1425690Y593523D01*
X1425451Y593361D01*
X1425167Y593246D01*
X1424838Y593176D01*
X1424464Y593153D01*
X1422044Y593153D01*
G37*
%LPD*%
G36*
X1439317Y590093D02*
X1435459Y590093D01*
X1435550Y590279D01*
X1435666Y590468D01*
X1435807Y590660D01*
X1435973Y590857D01*
X1436392Y591277D01*
X1436934Y591747D01*
X1437853Y592522D01*
X1438181Y592822D01*
X1438419Y593064D01*
X1438601Y593277D01*
X1438760Y593489D01*
X1438894Y593702D01*
X1439004Y593914D01*
X1439090Y594127D01*
X1439152Y594341D01*
X1439189Y594555D01*
X1439201Y594770D01*
X1439192Y595006D01*
X1439164Y595228D01*
X1439117Y595436D01*
X1439051Y595630D01*
X1438966Y595811D01*
X1438863Y595977D01*
X1438741Y596130D01*
X1438600Y596269D01*
X1438442Y596392D01*
X1438267Y596499D01*
X1438077Y596590D01*
X1437870Y596664D01*
X1437647Y596722D01*
X1437408Y596763D01*
X1437153Y596788D01*
X1436881Y596796D01*
X1436632Y596788D01*
X1436395Y596763D01*
X1436169Y596722D01*
X1435955Y596665D01*
X1435753Y596591D01*
X1435562Y596501D01*
X1435382Y596394D01*
X1435215Y596271D01*
X1435061Y596134D01*
X1434924Y595986D01*
X1434805Y595827D01*
X1434702Y595656D01*
X1434616Y595474D01*
X1434548Y595280D01*
X1434496Y595075D01*
X1434461Y594859D01*
X1435427Y594770D01*
X1435481Y595050D01*
X1435576Y595297D01*
X1435711Y595511D01*
X1435886Y595691D01*
X1436095Y595835D01*
X1436331Y595937D01*
X1436593Y595999D01*
X1436881Y596019D01*
X1437181Y595998D01*
X1437447Y595935D01*
X1437677Y595830D01*
X1437873Y595683D01*
X1438029Y595498D01*
X1438141Y595279D01*
X1438208Y595026D01*
X1438230Y594738D01*
X1438217Y594519D01*
X1438178Y594311D01*
X1438113Y594115D01*
X1438023Y593930D01*
X1437783Y593581D01*
X1437479Y593248D01*
X1437123Y592922D01*
X1436726Y592597D01*
X1436307Y592258D01*
X1435884Y591891D01*
X1435468Y591488D01*
X1435073Y591041D01*
X1434887Y590797D01*
X1434717Y590535D01*
X1434561Y590255D01*
X1434419Y589957D01*
X1434419Y589290D01*
X1439317Y589290D01*
X1439317Y590093D01*
G37*
G36*
X1433364Y590093D02*
X1431563Y590093D01*
X1431563Y596686D01*
X1430692Y596686D01*
X1428944Y595484D01*
X1428944Y594592D01*
X1430613Y595783D01*
X1430613Y590093D01*
X1428729Y590093D01*
X1428729Y589290D01*
X1433364Y589290D01*
X1433364Y590093D01*
G37*
G36*
X1358544Y555602D02*
X1360849Y555602D01*
X1362770Y552531D01*
X1363925Y552531D01*
X1362719Y554361D01*
X1361825Y555717D01*
X1362031Y555760D01*
X1362225Y555817D01*
X1362407Y555886D01*
X1362579Y555968D01*
X1362672Y556023D01*
X1362739Y556063D01*
X1362887Y556171D01*
X1363025Y556292D01*
X1363150Y556426D01*
X1363263Y556570D01*
X1363360Y556723D01*
X1363443Y556884D01*
X1363511Y557053D01*
X1363563Y557230D01*
X1363601Y557416D01*
X1363623Y557610D01*
X1363631Y557812D01*
X1363620Y558054D01*
X1363588Y558283D01*
X1363535Y558498D01*
X1363461Y558699D01*
X1363365Y558887D01*
X1363248Y559061D01*
X1363110Y559221D01*
X1362951Y559368D01*
X1362772Y559499D01*
X1362575Y559612D01*
X1362361Y559709D01*
X1362129Y559787D01*
X1361879Y559848D01*
X1361611Y559892D01*
X1361325Y559918D01*
X1361022Y559927D01*
X1357542Y559927D01*
X1357542Y552531D01*
X1358544Y552531D01*
X1358544Y555602D01*
G37*
%LPC*%
G36*
X1358544Y556394D02*
X1358544Y559124D01*
X1360922Y559124D01*
X1361310Y559103D01*
X1361650Y559039D01*
X1361941Y558933D01*
X1362185Y558785D01*
X1362376Y558597D01*
X1362452Y558488D01*
X1362513Y558370D01*
X1362561Y558242D01*
X1362595Y558105D01*
X1362616Y557958D01*
X1362623Y557801D01*
X1362616Y557639D01*
X1362596Y557486D01*
X1362562Y557343D01*
X1362515Y557209D01*
X1362454Y557084D01*
X1362379Y556968D01*
X1362190Y556764D01*
X1361951Y556602D01*
X1361667Y556487D01*
X1361338Y556417D01*
X1360964Y556394D01*
X1358544Y556394D01*
G37*
%LPD*%
G36*
X1373669Y552435D02*
X1373945Y552461D01*
X1374203Y552505D01*
X1374444Y552566D01*
X1374668Y552645D01*
X1374874Y552742D01*
X1375063Y552856D01*
X1375234Y552988D01*
X1375387Y553135D01*
X1375519Y553297D01*
X1375631Y553474D01*
X1375722Y553665D01*
X1375793Y553870D01*
X1375844Y554090D01*
X1375875Y554324D01*
X1375885Y554573D01*
X1375878Y554746D01*
X1375856Y554912D01*
X1375820Y555070D01*
X1375769Y555221D01*
X1375704Y555364D01*
X1375625Y555500D01*
X1375423Y555749D01*
X1375169Y555959D01*
X1374869Y556121D01*
X1374702Y556185D01*
X1374523Y556237D01*
X1374333Y556277D01*
X1374132Y556305D01*
X1374132Y556326D01*
X1374487Y556423D01*
X1374798Y556555D01*
X1375063Y556723D01*
X1375284Y556927D01*
X1375457Y557165D01*
X1375581Y557437D01*
X1375655Y557741D01*
X1375674Y557906D01*
X1375680Y558079D01*
X1375671Y558304D01*
X1375642Y558516D01*
X1375593Y558715D01*
X1375526Y558901D01*
X1375439Y559075D01*
X1375333Y559236D01*
X1375208Y559384D01*
X1375063Y559520D01*
X1374901Y559641D01*
X1374724Y559746D01*
X1374531Y559835D01*
X1374323Y559908D01*
X1374099Y559964D01*
X1373859Y560005D01*
X1373604Y560029D01*
X1373334Y560037D01*
X1373085Y560029D01*
X1372848Y560005D01*
X1372622Y559966D01*
X1372408Y559910D01*
X1372206Y559838D01*
X1372015Y559751D01*
X1371835Y559647D01*
X1371667Y559528D01*
X1371514Y559394D01*
X1371377Y559248D01*
X1371257Y559090D01*
X1371155Y558919D01*
X1371069Y558736D01*
X1371001Y558540D01*
X1370949Y558331D01*
X1370914Y558111D01*
X1371864Y558037D01*
X1371916Y558312D01*
X1372008Y558554D01*
X1372140Y558764D01*
X1372313Y558940D01*
X1372521Y559080D01*
X1372758Y559180D01*
X1373026Y559240D01*
X1373323Y559260D01*
X1373646Y559239D01*
X1373926Y559174D01*
X1374164Y559067D01*
X1374360Y558916D01*
X1374513Y558729D01*
X1374622Y558510D01*
X1374687Y558260D01*
X1374709Y557979D01*
X1374702Y557834D01*
X1374682Y557697D01*
X1374649Y557567D01*
X1374602Y557446D01*
X1374468Y557228D01*
X1374281Y557043D01*
X1374046Y556894D01*
X1373766Y556789D01*
X1373443Y556725D01*
X1373077Y556704D01*
X1372562Y556704D01*
X1372562Y555885D01*
X1373098Y555885D01*
X1373510Y555864D01*
X1373871Y555800D01*
X1374181Y555695D01*
X1374439Y555547D01*
X1374642Y555361D01*
X1374722Y555255D01*
X1374787Y555142D01*
X1374838Y555020D01*
X1374874Y554890D01*
X1374896Y554751D01*
X1374903Y554604D01*
X1374897Y554436D01*
X1374878Y554279D01*
X1374846Y554133D01*
X1374802Y553997D01*
X1374744Y553872D01*
X1374674Y553757D01*
X1374592Y553653D01*
X1374497Y553560D01*
X1374274Y553406D01*
X1374013Y553296D01*
X1373714Y553230D01*
X1373376Y553208D01*
X1373040Y553229D01*
X1372742Y553290D01*
X1372482Y553393D01*
X1372262Y553536D01*
X1372080Y553721D01*
X1371936Y553946D01*
X1371831Y554213D01*
X1371764Y554520D01*
X1370788Y554431D01*
X1370828Y554191D01*
X1370885Y553965D01*
X1370959Y553755D01*
X1371050Y553560D01*
X1371158Y553381D01*
X1371283Y553216D01*
X1371424Y553067D01*
X1371583Y552933D01*
X1371758Y552814D01*
X1371946Y552711D01*
X1372149Y552624D01*
X1372366Y552553D01*
X1372597Y552497D01*
X1372843Y552458D01*
X1373102Y552434D01*
X1373376Y552426D01*
X1373669Y552435D01*
G37*
G36*
X1369864Y553334D02*
X1368063Y553334D01*
X1368063Y559927D01*
X1367192Y559927D01*
X1365444Y558725D01*
X1365444Y557833D01*
X1367113Y559024D01*
X1367113Y553334D01*
X1365229Y553334D01*
X1365229Y552531D01*
X1369864Y552531D01*
X1369864Y553334D01*
G37*
G36*
X1434744Y555602D02*
X1437049Y555602D01*
X1438970Y552531D01*
X1440125Y552531D01*
X1438919Y554361D01*
X1438025Y555717D01*
X1438231Y555760D01*
X1438425Y555817D01*
X1438607Y555886D01*
X1438779Y555968D01*
X1438872Y556023D01*
X1438939Y556063D01*
X1439087Y556171D01*
X1439225Y556292D01*
X1439350Y556426D01*
X1439463Y556570D01*
X1439560Y556723D01*
X1439643Y556884D01*
X1439711Y557053D01*
X1439763Y557230D01*
X1439801Y557416D01*
X1439823Y557610D01*
X1439831Y557812D01*
X1439820Y558054D01*
X1439788Y558283D01*
X1439735Y558498D01*
X1439661Y558699D01*
X1439565Y558887D01*
X1439448Y559061D01*
X1439310Y559221D01*
X1439151Y559368D01*
X1438972Y559499D01*
X1438775Y559612D01*
X1438561Y559709D01*
X1438329Y559787D01*
X1438079Y559848D01*
X1437811Y559892D01*
X1437525Y559918D01*
X1437222Y559927D01*
X1433742Y559927D01*
X1433742Y552531D01*
X1434744Y552531D01*
X1434744Y555602D01*
G37*
%LPC*%
G36*
X1434744Y556394D02*
X1434744Y559124D01*
X1437122Y559124D01*
X1437510Y559103D01*
X1437850Y559039D01*
X1438141Y558933D01*
X1438385Y558785D01*
X1438576Y558597D01*
X1438652Y558488D01*
X1438713Y558370D01*
X1438761Y558242D01*
X1438795Y558105D01*
X1438816Y557958D01*
X1438823Y557801D01*
X1438816Y557639D01*
X1438796Y557486D01*
X1438762Y557343D01*
X1438715Y557209D01*
X1438654Y557084D01*
X1438579Y556968D01*
X1438390Y556764D01*
X1438151Y556602D01*
X1437867Y556487D01*
X1437538Y556417D01*
X1437164Y556394D01*
X1434744Y556394D01*
G37*
%LPD*%
G36*
X1451203Y554205D02*
X1452242Y554205D01*
X1452242Y554951D01*
X1451203Y554951D01*
X1451203Y559927D01*
X1450211Y559927D01*
X1446825Y554940D01*
X1446825Y554205D01*
X1450311Y554205D01*
X1450311Y552531D01*
X1451203Y552531D01*
X1451203Y554205D01*
G37*
%LPC*%
G36*
X1447697Y554951D02*
X1447781Y555056D01*
X1448064Y555444D01*
X1449959Y558237D01*
X1450164Y558583D01*
X1450311Y558861D01*
X1450311Y554951D01*
X1447697Y554951D01*
G37*
%LPD*%
G36*
X1446064Y553334D02*
X1444263Y553334D01*
X1444263Y559927D01*
X1443392Y559927D01*
X1441644Y558725D01*
X1441644Y557833D01*
X1443313Y559024D01*
X1443313Y553334D01*
X1441429Y553334D01*
X1441429Y552531D01*
X1446064Y552531D01*
X1446064Y553334D01*
G37*
D10*
X1339000Y826706D02*
X1328000Y826706D01*
X1328000Y814134D02*
X1339000Y814134D01*
D11*
X1435100Y863600D02*
X1536700Y863600D01*
X1536700Y1003300D01*
X1435100Y1003300D01*
X1435100Y863600D01*
X1409446Y968840D02*
X1424686Y975190D01*
X1424686Y962490D01*
X1409446Y968840D01*
X1299210Y1005670D02*
X1299210Y1007448D01*
X1299210Y965284D02*
X1314704Y965284D01*
X1406906Y965284D02*
X1406906Y977730D01*
X1406906Y1007448D02*
X1299210Y1007448D01*
X1391412Y965284D02*
X1406906Y965284D01*
X1406906Y1005670D02*
X1406906Y1007448D01*
X1299210Y977730D02*
X1299210Y965284D01*
X1873250Y846050D02*
X1879600Y830810D01*
X1873250Y846050D02*
X1885950Y846050D01*
X1879600Y830810D01*
X1869800Y731770D02*
X1968800Y731770D01*
X1968800Y828270D01*
X1869800Y828270D01*
X1869800Y804909D01*
X1869800Y785131D02*
X1869800Y769499D01*
X1869800Y760541D02*
X1869800Y731770D01*
X1777900Y969540D02*
X1777900Y982240D01*
X1784250Y975890D02*
X1771550Y975890D01*
X1804670Y968270D02*
X1804670Y809730D01*
X1586130Y809730D02*
X1586130Y968270D01*
X1586130Y809730D02*
X1804670Y809730D01*
X1804670Y968270D02*
X1586130Y968270D01*
X1777900Y740940D02*
X1777900Y728240D01*
X1784250Y734590D02*
X1771550Y734590D01*
X1804670Y726970D02*
X1804670Y568430D01*
X1586130Y568430D02*
X1586130Y726970D01*
X1586130Y568430D02*
X1804670Y568430D01*
X1804670Y726970D02*
X1586130Y726970D01*
X1461880Y750096D02*
X1461880Y645386D01*
X1287320Y645386D01*
X1287320Y750096D01*
X1461880Y750096D01*
X1369060Y775970D02*
X1366520Y778510D01*
X1366520Y872490D01*
X1369060Y875030D01*
X1369060Y775970D02*
X1398270Y774700D01*
X1398270Y876300D02*
X1369060Y875030D01*
D12*
X1372616Y870458D03*
D13*
X1405890Y825500D03*
D14*
X1399540Y869315D03*
D15*
X1399540Y838200D03*
X1399540Y812800D03*
D14*
X1399540Y781685D03*
D10*
X1313600Y831840D02*
X1302600Y831840D01*
X1302600Y844560D02*
X1313600Y844560D01*
X1313600Y826780D02*
X1302600Y826780D01*
X1302600Y814060D02*
X1313600Y814060D01*
X1340700Y908060D02*
X1351700Y908060D01*
X1351700Y895340D02*
X1340700Y895340D01*
X1340700Y925840D02*
X1351700Y925840D01*
X1351700Y913120D02*
X1340700Y913120D01*
X1313600Y806460D02*
X1302600Y806460D01*
X1302600Y793740D02*
X1313600Y793740D01*
X1328000Y857260D02*
X1339000Y857260D01*
X1339000Y844540D02*
X1328000Y844540D01*
D16*
X1325764Y939140D03*
D17*
X1323864Y934100D02*
X1323864Y920100D01*
X1313764Y920100D01*
X1292336Y920100D02*
X1292336Y934100D01*
X1292336Y920100D02*
X1302436Y920100D01*
D16*
X1320140Y858636D03*
D17*
X1315100Y860536D02*
X1301100Y860536D01*
X1301100Y870636D01*
X1301100Y892064D02*
X1315100Y892064D01*
X1301100Y892064D02*
X1301100Y881964D01*
D10*
X1340700Y946160D02*
X1351700Y946160D01*
X1351700Y933440D02*
X1340700Y933440D01*
X1340700Y890280D02*
X1351700Y890280D01*
X1351700Y877560D02*
X1340700Y877560D01*
D16*
X1390040Y609484D03*
D17*
X1395080Y607584D02*
X1409080Y607584D01*
X1409080Y597484D01*
X1409080Y576056D02*
X1395080Y576056D01*
X1409080Y576056D02*
X1409080Y586156D01*
D16*
X1466240Y609484D03*
D17*
X1471280Y607584D02*
X1485280Y607584D01*
X1485280Y597484D01*
X1485280Y576056D02*
X1471280Y576056D01*
X1485280Y576056D02*
X1485280Y586156D01*
D10*
X1377100Y615960D02*
X1366100Y615960D01*
X1366100Y603240D02*
X1377100Y603240D01*
X1442300Y615960D02*
X1453300Y615960D01*
X1453300Y603240D02*
X1442300Y603240D01*
X1377100Y598180D02*
X1366100Y598180D01*
X1366100Y585460D02*
X1377100Y585460D01*
X1442300Y598180D02*
X1453300Y598180D01*
X1453300Y585460D02*
X1442300Y585460D01*
X1377270Y581741D02*
X1355770Y581741D01*
X1355770Y561259D02*
X1377270Y561259D01*
X1431970Y581741D02*
X1453470Y581741D01*
X1453470Y561259D02*
X1431970Y561259D01*
M02*
