G04 EAGLE Gerber RS-274X export*
G75*
%MOMM*%
%FSLAX34Y34*%
%LPD*%
%INSilkscreen Bottom*%
%IPPOS*%
%AMOC8*
5,1,8,0,0,1.08239X$1,22.5*%
G01*
G04 Define Apertures*
G36*
X1111069Y25400D02*
X1107352Y25400D01*
X1106836Y25409D01*
X1106338Y25435D01*
X1105856Y25478D01*
X1105392Y25539D01*
X1104945Y25617D01*
X1104516Y25713D01*
X1104104Y25826D01*
X1103708Y25957D01*
X1103331Y26105D01*
X1102970Y26270D01*
X1102627Y26452D01*
X1102301Y26652D01*
X1101992Y26870D01*
X1101700Y27105D01*
X1101426Y27357D01*
X1101169Y27627D01*
X1100928Y27915D01*
X1100703Y28222D01*
X1100494Y28548D01*
X1100299Y28894D01*
X1100121Y29259D01*
X1099958Y29643D01*
X1099810Y30046D01*
X1099678Y30468D01*
X1099562Y30910D01*
X1099461Y31371D01*
X1099376Y31851D01*
X1099306Y32350D01*
X1099251Y32869D01*
X1099213Y33407D01*
X1099189Y33964D01*
X1099182Y34540D01*
X1099189Y35119D01*
X1099213Y35679D01*
X1099251Y36219D01*
X1099306Y36740D01*
X1099376Y37242D01*
X1099461Y37724D01*
X1099562Y38187D01*
X1099678Y38631D01*
X1099810Y39055D01*
X1099958Y39460D01*
X1100121Y39846D01*
X1100299Y40212D01*
X1100494Y40559D01*
X1100703Y40887D01*
X1100928Y41195D01*
X1101169Y41483D01*
X1101426Y41754D01*
X1101700Y42007D01*
X1101992Y42242D01*
X1102301Y42460D01*
X1102627Y42661D01*
X1102970Y42844D01*
X1103331Y43010D01*
X1103708Y43158D01*
X1104104Y43289D01*
X1104516Y43402D01*
X1104945Y43498D01*
X1105392Y43577D01*
X1105856Y43638D01*
X1106338Y43681D01*
X1106836Y43708D01*
X1107352Y43716D01*
X1111069Y43716D01*
X1111069Y25400D01*
G37*
%LPC*%
G36*
X1108579Y27436D02*
X1108579Y41680D01*
X1107401Y41680D01*
X1107358Y41679D01*
X1107016Y41674D01*
X1106646Y41656D01*
X1106290Y41626D01*
X1105950Y41583D01*
X1105625Y41529D01*
X1105314Y41463D01*
X1105018Y41385D01*
X1104737Y41295D01*
X1104472Y41193D01*
X1104221Y41078D01*
X1103984Y40952D01*
X1103763Y40814D01*
X1103557Y40663D01*
X1103366Y40501D01*
X1103189Y40327D01*
X1103028Y40140D01*
X1102878Y39938D01*
X1102739Y39716D01*
X1102609Y39474D01*
X1102488Y39213D01*
X1102377Y38932D01*
X1102276Y38631D01*
X1102185Y38310D01*
X1102103Y37970D01*
X1101968Y37231D01*
X1101872Y36413D01*
X1101814Y35515D01*
X1101795Y34540D01*
X1101814Y33573D01*
X1101872Y32683D01*
X1101969Y31871D01*
X1102104Y31137D01*
X1102187Y30799D01*
X1102279Y30480D01*
X1102380Y30181D01*
X1102492Y29901D01*
X1102613Y29641D01*
X1102743Y29400D01*
X1102884Y29178D01*
X1103034Y28976D01*
X1103196Y28790D01*
X1103373Y28615D01*
X1103565Y28453D01*
X1103771Y28303D01*
X1103993Y28164D01*
X1104229Y28038D01*
X1104480Y27924D01*
X1104745Y27821D01*
X1105025Y27731D01*
X1105321Y27653D01*
X1105630Y27587D01*
X1105955Y27533D01*
X1106294Y27491D01*
X1106649Y27461D01*
X1107017Y27443D01*
X1107401Y27436D01*
X1108579Y27436D01*
G37*
%LPD*%
G36*
X909095Y46672D02*
X908747Y46678D01*
X908408Y46697D01*
X908081Y46728D01*
X907764Y46772D01*
X907458Y46828D01*
X907163Y46896D01*
X906879Y46977D01*
X906605Y47071D01*
X906342Y47177D01*
X906090Y47295D01*
X905848Y47426D01*
X905617Y47569D01*
X905188Y47893D01*
X904802Y48267D01*
X904459Y48689D01*
X904163Y49158D01*
X903912Y49674D01*
X903707Y50236D01*
X903547Y50845D01*
X903433Y51501D01*
X903365Y52204D01*
X903342Y52953D01*
X903342Y65761D01*
X905599Y65761D01*
X905599Y63982D01*
X905749Y64249D01*
X905909Y64498D01*
X906080Y64729D01*
X906262Y64942D01*
X906454Y65137D01*
X906657Y65314D01*
X906871Y65473D01*
X907096Y65614D01*
X907332Y65738D01*
X907581Y65845D01*
X907843Y65935D01*
X908117Y66010D01*
X908404Y66067D01*
X908704Y66109D01*
X909016Y66133D01*
X909341Y66141D01*
X909638Y66134D01*
X909927Y66111D01*
X910208Y66074D01*
X910482Y66021D01*
X910749Y65953D01*
X911008Y65871D01*
X911259Y65773D01*
X911503Y65660D01*
X911739Y65532D01*
X911968Y65389D01*
X912189Y65231D01*
X912402Y65058D01*
X912807Y64667D01*
X913181Y64215D01*
X913517Y63713D01*
X913809Y63170D01*
X914055Y62586D01*
X914257Y61961D01*
X914414Y61295D01*
X914526Y60588D01*
X914594Y59840D01*
X914616Y59051D01*
X914594Y58264D01*
X914526Y57519D01*
X914414Y56814D01*
X914257Y56149D01*
X914055Y55525D01*
X913809Y54942D01*
X913517Y54400D01*
X913181Y53898D01*
X912807Y53447D01*
X912402Y53055D01*
X912189Y52882D01*
X911968Y52724D01*
X911739Y52581D01*
X911503Y52453D01*
X911259Y52341D01*
X911008Y52243D01*
X910749Y52160D01*
X910482Y52092D01*
X910208Y52040D01*
X909927Y52002D01*
X909638Y51979D01*
X909341Y51972D01*
X909013Y51981D01*
X908697Y52007D01*
X908395Y52051D01*
X908105Y52113D01*
X907827Y52192D01*
X907563Y52289D01*
X907311Y52404D01*
X907071Y52536D01*
X906844Y52686D01*
X906630Y52855D01*
X906427Y53042D01*
X906237Y53248D01*
X906059Y53472D01*
X905893Y53714D01*
X905740Y53975D01*
X905599Y54254D01*
X905599Y52622D01*
X905612Y52100D01*
X905651Y51615D01*
X905716Y51167D01*
X905808Y50754D01*
X905925Y50378D01*
X906068Y50039D01*
X906238Y49736D01*
X906433Y49469D01*
X906657Y49236D01*
X906912Y49034D01*
X907199Y48864D01*
X907516Y48724D01*
X907864Y48615D01*
X908244Y48538D01*
X908654Y48491D01*
X909095Y48475D01*
X909516Y48492D01*
X909957Y48543D01*
X910418Y48627D01*
X910899Y48745D01*
X911403Y48899D01*
X911935Y49089D01*
X912495Y49316D01*
X913083Y49580D01*
X913083Y47347D01*
X912573Y47191D01*
X912064Y47055D01*
X911555Y46940D01*
X911046Y46844D01*
X910542Y46769D01*
X910049Y46715D01*
X909567Y46683D01*
X909095Y46672D01*
G37*
%LPC*%
G36*
X908813Y53849D02*
X909218Y53870D01*
X909598Y53932D01*
X909953Y54036D01*
X910284Y54182D01*
X910590Y54369D01*
X910871Y54598D01*
X911127Y54868D01*
X911359Y55180D01*
X911564Y55532D01*
X911743Y55921D01*
X911893Y56348D01*
X912017Y56813D01*
X912113Y57316D01*
X912181Y57856D01*
X912222Y58435D01*
X912236Y59051D01*
X912222Y59666D01*
X912182Y60244D01*
X912114Y60783D01*
X912018Y61285D01*
X911896Y61748D01*
X911746Y62173D01*
X911569Y62560D01*
X911365Y62909D01*
X911135Y63218D01*
X910880Y63486D01*
X910601Y63712D01*
X910298Y63898D01*
X909970Y64042D01*
X909617Y64145D01*
X909240Y64207D01*
X908838Y64228D01*
X908454Y64207D01*
X908094Y64145D01*
X907757Y64042D01*
X907444Y63898D01*
X907154Y63712D01*
X906888Y63486D01*
X906646Y63218D01*
X906427Y62909D01*
X906233Y62560D01*
X906065Y62173D01*
X905923Y61748D01*
X905806Y61285D01*
X905715Y60783D01*
X905651Y60244D01*
X905612Y59666D01*
X905599Y59051D01*
X905612Y58437D01*
X905651Y57861D01*
X905715Y57322D01*
X905806Y56821D01*
X905923Y56356D01*
X906065Y55929D01*
X906233Y55539D01*
X906427Y55186D01*
X906646Y54873D01*
X906887Y54601D01*
X907151Y54371D01*
X907438Y54183D01*
X907747Y54037D01*
X908080Y53932D01*
X908435Y53870D01*
X908813Y53849D01*
G37*
%LPD*%
G36*
X1060517Y51714D02*
X1060215Y51723D01*
X1059922Y51748D01*
X1059638Y51789D01*
X1059362Y51848D01*
X1059096Y51923D01*
X1058839Y52014D01*
X1058591Y52123D01*
X1058352Y52248D01*
X1058123Y52389D01*
X1057906Y52545D01*
X1057701Y52716D01*
X1057507Y52903D01*
X1057325Y53104D01*
X1057155Y53321D01*
X1056996Y53553D01*
X1056849Y53800D01*
X1056849Y52070D01*
X1054592Y52070D01*
X1054592Y71159D01*
X1056849Y71159D01*
X1056849Y64056D01*
X1056990Y64303D01*
X1057144Y64535D01*
X1057311Y64751D01*
X1057490Y64953D01*
X1057682Y65139D01*
X1057886Y65311D01*
X1058104Y65467D01*
X1058333Y65608D01*
X1058574Y65733D01*
X1058824Y65841D01*
X1059083Y65933D01*
X1059352Y66008D01*
X1059629Y66066D01*
X1059916Y66108D01*
X1060212Y66133D01*
X1060517Y66141D01*
X1060823Y66134D01*
X1061120Y66112D01*
X1061410Y66074D01*
X1061691Y66022D01*
X1061964Y65955D01*
X1062229Y65873D01*
X1062486Y65776D01*
X1062735Y65665D01*
X1062975Y65538D01*
X1063208Y65396D01*
X1063432Y65240D01*
X1063648Y65068D01*
X1064056Y64681D01*
X1064431Y64234D01*
X1064767Y63734D01*
X1065059Y63190D01*
X1065305Y62600D01*
X1065507Y61966D01*
X1065664Y61286D01*
X1065776Y60561D01*
X1065844Y59792D01*
X1065866Y58977D01*
X1065844Y58150D01*
X1065777Y57369D01*
X1065665Y56634D01*
X1065509Y55945D01*
X1065308Y55302D01*
X1065062Y54704D01*
X1064772Y54152D01*
X1064437Y53646D01*
X1064063Y53194D01*
X1063864Y52990D01*
X1063656Y52801D01*
X1063440Y52628D01*
X1063216Y52469D01*
X1062983Y52326D01*
X1062742Y52197D01*
X1062493Y52084D01*
X1062236Y51986D01*
X1061970Y51903D01*
X1061696Y51835D01*
X1061414Y51782D01*
X1061123Y51744D01*
X1060824Y51722D01*
X1060517Y51714D01*
G37*
%LPC*%
G36*
X1060186Y53628D02*
X1060581Y53649D01*
X1060952Y53712D01*
X1061298Y53816D01*
X1061618Y53962D01*
X1061914Y54150D01*
X1062185Y54380D01*
X1062431Y54652D01*
X1062652Y54965D01*
X1062847Y55320D01*
X1063017Y55714D01*
X1063160Y56149D01*
X1063277Y56625D01*
X1063369Y57140D01*
X1063434Y57696D01*
X1063473Y58292D01*
X1063486Y58928D01*
X1063473Y59564D01*
X1063434Y60160D01*
X1063369Y60716D01*
X1063277Y61231D01*
X1063160Y61706D01*
X1063017Y62141D01*
X1062847Y62536D01*
X1062652Y62890D01*
X1062431Y63204D01*
X1062185Y63475D01*
X1061914Y63705D01*
X1061618Y63893D01*
X1061298Y64040D01*
X1060952Y64144D01*
X1060581Y64207D01*
X1060186Y64228D01*
X1059790Y64207D01*
X1059419Y64144D01*
X1059072Y64039D01*
X1058749Y63892D01*
X1058451Y63703D01*
X1058177Y63472D01*
X1057940Y63213D01*
X1057927Y63199D01*
X1057702Y62884D01*
X1057502Y62529D01*
X1057329Y62133D01*
X1057182Y61698D01*
X1057062Y61224D01*
X1056969Y60709D01*
X1056902Y60155D01*
X1056862Y59561D01*
X1056849Y58928D01*
X1056862Y58297D01*
X1056902Y57706D01*
X1056969Y57153D01*
X1057062Y56640D01*
X1057182Y56166D01*
X1057329Y55730D01*
X1057502Y55334D01*
X1057702Y54978D01*
X1057927Y54661D01*
X1058177Y54387D01*
X1058451Y54155D01*
X1058749Y53965D01*
X1059072Y53818D01*
X1059419Y53712D01*
X1059790Y53649D01*
X1060186Y53628D01*
G37*
%LPD*%
G36*
X1019669Y20174D02*
X1017400Y20174D01*
X1017400Y27130D01*
X1017258Y26883D01*
X1017105Y26651D01*
X1016939Y26434D01*
X1016760Y26233D01*
X1016569Y26046D01*
X1016366Y25875D01*
X1016150Y25719D01*
X1015921Y25578D01*
X1015682Y25453D01*
X1015432Y25344D01*
X1015173Y25253D01*
X1014904Y25178D01*
X1014626Y25119D01*
X1014337Y25078D01*
X1014039Y25053D01*
X1013731Y25044D01*
X1013426Y25052D01*
X1013128Y25074D01*
X1012839Y25111D01*
X1012558Y25163D01*
X1012286Y25231D01*
X1012021Y25313D01*
X1011765Y25409D01*
X1011517Y25521D01*
X1011277Y25648D01*
X1011046Y25789D01*
X1010823Y25946D01*
X1010608Y26117D01*
X1010202Y26505D01*
X1009830Y26952D01*
X1009497Y27451D01*
X1009208Y27996D01*
X1008963Y28585D01*
X1008763Y29220D01*
X1008607Y29900D01*
X1008496Y30624D01*
X1008429Y31394D01*
X1008407Y32209D01*
X1008429Y33038D01*
X1008496Y33821D01*
X1008606Y34558D01*
X1008761Y35248D01*
X1008961Y35892D01*
X1009204Y36490D01*
X1009492Y37041D01*
X1009824Y37545D01*
X1010195Y37997D01*
X1010393Y38200D01*
X1010600Y38388D01*
X1010814Y38561D01*
X1011038Y38719D01*
X1011269Y38862D01*
X1011509Y38990D01*
X1011758Y39103D01*
X1012014Y39201D01*
X1012280Y39283D01*
X1012553Y39351D01*
X1012835Y39404D01*
X1013126Y39441D01*
X1013424Y39464D01*
X1013731Y39471D01*
X1014034Y39463D01*
X1014327Y39438D01*
X1014611Y39396D01*
X1014886Y39338D01*
X1015152Y39263D01*
X1015409Y39171D01*
X1015658Y39063D01*
X1015897Y38938D01*
X1016125Y38797D01*
X1016343Y38641D01*
X1016548Y38469D01*
X1016742Y38283D01*
X1016924Y38081D01*
X1017094Y37865D01*
X1017253Y37633D01*
X1017400Y37386D01*
X1017400Y39140D01*
X1019669Y39140D01*
X1019669Y20174D01*
G37*
%LPC*%
G36*
X1014063Y26958D02*
X1014461Y26979D01*
X1014835Y27042D01*
X1015183Y27148D01*
X1015507Y27295D01*
X1015806Y27485D01*
X1016080Y27717D01*
X1016311Y27972D01*
X1016329Y27991D01*
X1016553Y28308D01*
X1016751Y28664D01*
X1016923Y29060D01*
X1017069Y29496D01*
X1017188Y29970D01*
X1017280Y30483D01*
X1017347Y31036D01*
X1017386Y31627D01*
X1017400Y32258D01*
X1017386Y32891D01*
X1017347Y33485D01*
X1017280Y34039D01*
X1017188Y34554D01*
X1017069Y35028D01*
X1016923Y35463D01*
X1016751Y35859D01*
X1016553Y36214D01*
X1016329Y36529D01*
X1016080Y36802D01*
X1015806Y37033D01*
X1015507Y37222D01*
X1015183Y37369D01*
X1014835Y37474D01*
X1014461Y37537D01*
X1014063Y37558D01*
X1013667Y37537D01*
X1013297Y37474D01*
X1012952Y37370D01*
X1012632Y37223D01*
X1012337Y37035D01*
X1012067Y36805D01*
X1011822Y36534D01*
X1011603Y36220D01*
X1011409Y35866D01*
X1011241Y35471D01*
X1011098Y35036D01*
X1010982Y34561D01*
X1010891Y34046D01*
X1010827Y33490D01*
X1010788Y32894D01*
X1010775Y32258D01*
X1010788Y31622D01*
X1010827Y31026D01*
X1010891Y30470D01*
X1010982Y29955D01*
X1011098Y29479D01*
X1011241Y29044D01*
X1011409Y28650D01*
X1011603Y28295D01*
X1011822Y27982D01*
X1012067Y27710D01*
X1012337Y27480D01*
X1012632Y27292D01*
X1012952Y27146D01*
X1013297Y27042D01*
X1013667Y26979D01*
X1014063Y26958D01*
G37*
%LPD*%
G36*
X923693Y51714D02*
X923339Y51721D01*
X922996Y51743D01*
X922664Y51779D01*
X922343Y51830D01*
X922032Y51895D01*
X921731Y51974D01*
X921442Y52068D01*
X921163Y52176D01*
X920894Y52298D01*
X920636Y52435D01*
X920389Y52587D01*
X920153Y52753D01*
X919927Y52933D01*
X919712Y53128D01*
X919507Y53337D01*
X919313Y53561D01*
X919130Y53798D01*
X918960Y54048D01*
X918800Y54312D01*
X918653Y54588D01*
X918517Y54878D01*
X918394Y55181D01*
X918282Y55497D01*
X918181Y55826D01*
X918093Y56168D01*
X918016Y56523D01*
X917952Y56891D01*
X917899Y57272D01*
X917857Y57666D01*
X917828Y58074D01*
X917810Y58494D01*
X917804Y58928D01*
X917810Y59360D01*
X917828Y59779D01*
X917857Y60185D01*
X917899Y60579D01*
X917952Y60959D01*
X918017Y61326D01*
X918094Y61681D01*
X918183Y62022D01*
X918284Y62351D01*
X918396Y62667D01*
X918520Y62969D01*
X918656Y63259D01*
X918804Y63536D01*
X918964Y63800D01*
X919136Y64051D01*
X919319Y64289D01*
X919514Y64513D01*
X919719Y64723D01*
X919935Y64919D01*
X920161Y65099D01*
X920397Y65266D01*
X920645Y65418D01*
X920902Y65555D01*
X921170Y65678D01*
X921449Y65787D01*
X921738Y65881D01*
X922038Y65961D01*
X922348Y66026D01*
X922668Y66076D01*
X922999Y66113D01*
X923341Y66134D01*
X923693Y66141D01*
X924045Y66134D01*
X924386Y66113D01*
X924717Y66076D01*
X925038Y66026D01*
X925348Y65961D01*
X925647Y65881D01*
X925936Y65787D01*
X926214Y65678D01*
X926482Y65555D01*
X926739Y65418D01*
X926985Y65266D01*
X927222Y65099D01*
X927447Y64919D01*
X927662Y64723D01*
X927866Y64513D01*
X928060Y64289D01*
X928243Y64051D01*
X928414Y63800D01*
X928573Y63536D01*
X928721Y63259D01*
X928856Y62969D01*
X928980Y62667D01*
X929092Y62351D01*
X929192Y62022D01*
X929280Y61681D01*
X929357Y61326D01*
X929422Y60959D01*
X929475Y60579D01*
X929516Y60185D01*
X929546Y59779D01*
X929563Y59360D01*
X929569Y58928D01*
X929563Y58494D01*
X929546Y58074D01*
X929516Y57666D01*
X929475Y57272D01*
X929422Y56891D01*
X929357Y56523D01*
X929280Y56168D01*
X929192Y55826D01*
X929092Y55497D01*
X928980Y55181D01*
X928856Y54878D01*
X928721Y54588D01*
X928573Y54312D01*
X928414Y54048D01*
X928243Y53798D01*
X928060Y53561D01*
X927866Y53337D01*
X927662Y53128D01*
X927447Y52933D01*
X927222Y52753D01*
X926985Y52587D01*
X926739Y52435D01*
X926482Y52298D01*
X926214Y52176D01*
X925936Y52068D01*
X925647Y51974D01*
X925348Y51895D01*
X925038Y51830D01*
X924717Y51779D01*
X924386Y51743D01*
X924045Y51721D01*
X923693Y51714D01*
G37*
%LPC*%
G36*
X923693Y53628D02*
X924109Y53649D01*
X924500Y53712D01*
X924864Y53817D01*
X925202Y53964D01*
X925514Y54153D01*
X925800Y54384D01*
X926060Y54657D01*
X926294Y54971D01*
X926501Y55327D01*
X926680Y55722D01*
X926832Y56157D01*
X926956Y56632D01*
X927053Y57147D01*
X927122Y57701D01*
X927163Y58294D01*
X927177Y58928D01*
X927163Y59564D01*
X927122Y60160D01*
X927053Y60716D01*
X926956Y61231D01*
X926832Y61706D01*
X926680Y62141D01*
X926501Y62536D01*
X926294Y62890D01*
X926060Y63204D01*
X925800Y63475D01*
X925514Y63705D01*
X925202Y63893D01*
X924864Y64040D01*
X924500Y64144D01*
X924109Y64207D01*
X923693Y64228D01*
X923274Y64207D01*
X922881Y64144D01*
X922515Y64040D01*
X922175Y63893D01*
X921861Y63705D01*
X921574Y63475D01*
X921314Y63204D01*
X921080Y62890D01*
X920873Y62536D01*
X920693Y62141D01*
X920542Y61706D01*
X920417Y61231D01*
X920321Y60716D01*
X920252Y60160D01*
X920210Y59564D01*
X920197Y58928D01*
X920210Y58294D01*
X920252Y57701D01*
X920321Y57147D01*
X920417Y56632D01*
X920542Y56157D01*
X920693Y55722D01*
X920873Y55327D01*
X921080Y54971D01*
X921314Y54657D01*
X921574Y54384D01*
X921861Y54153D01*
X922175Y53964D01*
X922515Y53817D01*
X922881Y53712D01*
X923274Y53649D01*
X923693Y53628D01*
G37*
%LPD*%
G36*
X953943Y51714D02*
X953589Y51721D01*
X953246Y51743D01*
X952914Y51779D01*
X952593Y51830D01*
X952282Y51895D01*
X951981Y51974D01*
X951692Y52068D01*
X951413Y52176D01*
X951144Y52298D01*
X950886Y52435D01*
X950639Y52587D01*
X950403Y52753D01*
X950177Y52933D01*
X949962Y53128D01*
X949757Y53337D01*
X949563Y53561D01*
X949380Y53798D01*
X949210Y54048D01*
X949050Y54312D01*
X948903Y54588D01*
X948767Y54878D01*
X948644Y55181D01*
X948532Y55497D01*
X948431Y55826D01*
X948343Y56168D01*
X948266Y56523D01*
X948202Y56891D01*
X948149Y57272D01*
X948107Y57666D01*
X948078Y58074D01*
X948060Y58494D01*
X948054Y58928D01*
X948060Y59360D01*
X948078Y59779D01*
X948107Y60185D01*
X948149Y60579D01*
X948202Y60959D01*
X948267Y61326D01*
X948344Y61681D01*
X948433Y62022D01*
X948534Y62351D01*
X948646Y62667D01*
X948770Y62969D01*
X948906Y63259D01*
X949054Y63536D01*
X949214Y63800D01*
X949386Y64051D01*
X949569Y64289D01*
X949764Y64513D01*
X949969Y64723D01*
X950185Y64919D01*
X950411Y65099D01*
X950647Y65266D01*
X950895Y65418D01*
X951152Y65555D01*
X951420Y65678D01*
X951699Y65787D01*
X951988Y65881D01*
X952288Y65961D01*
X952598Y66026D01*
X952918Y66076D01*
X953249Y66113D01*
X953591Y66134D01*
X953943Y66141D01*
X954295Y66134D01*
X954636Y66113D01*
X954967Y66076D01*
X955288Y66026D01*
X955598Y65961D01*
X955897Y65881D01*
X956186Y65787D01*
X956464Y65678D01*
X956732Y65555D01*
X956989Y65418D01*
X957235Y65266D01*
X957472Y65099D01*
X957697Y64919D01*
X957912Y64723D01*
X958116Y64513D01*
X958310Y64289D01*
X958493Y64051D01*
X958664Y63800D01*
X958823Y63536D01*
X958971Y63259D01*
X959106Y62969D01*
X959230Y62667D01*
X959342Y62351D01*
X959442Y62022D01*
X959530Y61681D01*
X959607Y61326D01*
X959672Y60959D01*
X959725Y60579D01*
X959766Y60185D01*
X959796Y59779D01*
X959813Y59360D01*
X959819Y58928D01*
X959813Y58494D01*
X959796Y58074D01*
X959766Y57666D01*
X959725Y57272D01*
X959672Y56891D01*
X959607Y56523D01*
X959530Y56168D01*
X959442Y55826D01*
X959342Y55497D01*
X959230Y55181D01*
X959106Y54878D01*
X958971Y54588D01*
X958823Y54312D01*
X958664Y54048D01*
X958493Y53798D01*
X958310Y53561D01*
X958116Y53337D01*
X957912Y53128D01*
X957697Y52933D01*
X957472Y52753D01*
X957235Y52587D01*
X956989Y52435D01*
X956732Y52298D01*
X956464Y52176D01*
X956186Y52068D01*
X955897Y51974D01*
X955598Y51895D01*
X955288Y51830D01*
X954967Y51779D01*
X954636Y51743D01*
X954295Y51721D01*
X953943Y51714D01*
G37*
%LPC*%
G36*
X953943Y53628D02*
X954359Y53649D01*
X954750Y53712D01*
X955114Y53817D01*
X955452Y53964D01*
X955764Y54153D01*
X956050Y54384D01*
X956310Y54657D01*
X956544Y54971D01*
X956751Y55327D01*
X956930Y55722D01*
X957082Y56157D01*
X957206Y56632D01*
X957303Y57147D01*
X957372Y57701D01*
X957413Y58294D01*
X957427Y58928D01*
X957413Y59564D01*
X957372Y60160D01*
X957303Y60716D01*
X957206Y61231D01*
X957082Y61706D01*
X956930Y62141D01*
X956751Y62536D01*
X956544Y62890D01*
X956310Y63204D01*
X956050Y63475D01*
X955764Y63705D01*
X955452Y63893D01*
X955114Y64040D01*
X954750Y64144D01*
X954359Y64207D01*
X953943Y64228D01*
X953524Y64207D01*
X953131Y64144D01*
X952765Y64040D01*
X952425Y63893D01*
X952111Y63705D01*
X951824Y63475D01*
X951564Y63204D01*
X951330Y62890D01*
X951123Y62536D01*
X950943Y62141D01*
X950792Y61706D01*
X950667Y61231D01*
X950571Y60716D01*
X950502Y60160D01*
X950460Y59564D01*
X950447Y58928D01*
X950460Y58294D01*
X950502Y57701D01*
X950571Y57147D01*
X950667Y56632D01*
X950792Y56157D01*
X950943Y55722D01*
X951123Y55327D01*
X951330Y54971D01*
X951564Y54657D01*
X951824Y54384D01*
X952111Y54153D01*
X952425Y53964D01*
X952765Y53817D01*
X953131Y53712D01*
X953524Y53649D01*
X953943Y53628D01*
G37*
%LPD*%
G36*
X1074943Y51714D02*
X1074589Y51721D01*
X1074246Y51743D01*
X1073914Y51779D01*
X1073593Y51830D01*
X1073282Y51895D01*
X1072981Y51974D01*
X1072692Y52068D01*
X1072413Y52176D01*
X1072144Y52298D01*
X1071886Y52435D01*
X1071639Y52587D01*
X1071403Y52753D01*
X1071177Y52933D01*
X1070962Y53128D01*
X1070757Y53337D01*
X1070563Y53561D01*
X1070380Y53798D01*
X1070210Y54048D01*
X1070050Y54312D01*
X1069903Y54588D01*
X1069767Y54878D01*
X1069644Y55181D01*
X1069532Y55497D01*
X1069431Y55826D01*
X1069343Y56168D01*
X1069266Y56523D01*
X1069202Y56891D01*
X1069149Y57272D01*
X1069107Y57666D01*
X1069078Y58074D01*
X1069060Y58494D01*
X1069054Y58928D01*
X1069060Y59360D01*
X1069078Y59779D01*
X1069107Y60185D01*
X1069149Y60579D01*
X1069202Y60959D01*
X1069267Y61326D01*
X1069344Y61681D01*
X1069433Y62022D01*
X1069534Y62351D01*
X1069646Y62667D01*
X1069770Y62969D01*
X1069906Y63259D01*
X1070054Y63536D01*
X1070214Y63800D01*
X1070386Y64051D01*
X1070569Y64289D01*
X1070764Y64513D01*
X1070969Y64723D01*
X1071185Y64919D01*
X1071411Y65099D01*
X1071647Y65266D01*
X1071895Y65418D01*
X1072152Y65555D01*
X1072420Y65678D01*
X1072699Y65787D01*
X1072988Y65881D01*
X1073288Y65961D01*
X1073598Y66026D01*
X1073918Y66076D01*
X1074249Y66113D01*
X1074591Y66134D01*
X1074943Y66141D01*
X1075295Y66134D01*
X1075636Y66113D01*
X1075967Y66076D01*
X1076288Y66026D01*
X1076598Y65961D01*
X1076897Y65881D01*
X1077186Y65787D01*
X1077464Y65678D01*
X1077732Y65555D01*
X1077989Y65418D01*
X1078235Y65266D01*
X1078472Y65099D01*
X1078697Y64919D01*
X1078912Y64723D01*
X1079116Y64513D01*
X1079310Y64289D01*
X1079493Y64051D01*
X1079664Y63800D01*
X1079823Y63536D01*
X1079971Y63259D01*
X1080106Y62969D01*
X1080230Y62667D01*
X1080342Y62351D01*
X1080442Y62022D01*
X1080530Y61681D01*
X1080607Y61326D01*
X1080672Y60959D01*
X1080725Y60579D01*
X1080766Y60185D01*
X1080796Y59779D01*
X1080813Y59360D01*
X1080819Y58928D01*
X1080813Y58494D01*
X1080796Y58074D01*
X1080766Y57666D01*
X1080725Y57272D01*
X1080672Y56891D01*
X1080607Y56523D01*
X1080530Y56168D01*
X1080442Y55826D01*
X1080342Y55497D01*
X1080230Y55181D01*
X1080106Y54878D01*
X1079971Y54588D01*
X1079823Y54312D01*
X1079664Y54048D01*
X1079493Y53798D01*
X1079310Y53561D01*
X1079116Y53337D01*
X1078912Y53128D01*
X1078697Y52933D01*
X1078472Y52753D01*
X1078235Y52587D01*
X1077989Y52435D01*
X1077732Y52298D01*
X1077464Y52176D01*
X1077186Y52068D01*
X1076897Y51974D01*
X1076598Y51895D01*
X1076288Y51830D01*
X1075967Y51779D01*
X1075636Y51743D01*
X1075295Y51721D01*
X1074943Y51714D01*
G37*
%LPC*%
G36*
X1074943Y53628D02*
X1075359Y53649D01*
X1075750Y53712D01*
X1076114Y53817D01*
X1076452Y53964D01*
X1076764Y54153D01*
X1077050Y54384D01*
X1077310Y54657D01*
X1077544Y54971D01*
X1077751Y55327D01*
X1077930Y55722D01*
X1078082Y56157D01*
X1078206Y56632D01*
X1078303Y57147D01*
X1078372Y57701D01*
X1078413Y58294D01*
X1078427Y58928D01*
X1078413Y59564D01*
X1078372Y60160D01*
X1078303Y60716D01*
X1078206Y61231D01*
X1078082Y61706D01*
X1077930Y62141D01*
X1077751Y62536D01*
X1077544Y62890D01*
X1077310Y63204D01*
X1077050Y63475D01*
X1076764Y63705D01*
X1076452Y63893D01*
X1076114Y64040D01*
X1075750Y64144D01*
X1075359Y64207D01*
X1074943Y64228D01*
X1074524Y64207D01*
X1074131Y64144D01*
X1073765Y64040D01*
X1073425Y63893D01*
X1073111Y63705D01*
X1072824Y63475D01*
X1072564Y63204D01*
X1072330Y62890D01*
X1072123Y62536D01*
X1071943Y62141D01*
X1071792Y61706D01*
X1071667Y61231D01*
X1071571Y60716D01*
X1071502Y60160D01*
X1071460Y59564D01*
X1071447Y58928D01*
X1071460Y58294D01*
X1071502Y57701D01*
X1071571Y57147D01*
X1071667Y56632D01*
X1071792Y56157D01*
X1071943Y55722D01*
X1072123Y55327D01*
X1072330Y54971D01*
X1072564Y54657D01*
X1072824Y54384D01*
X1073111Y54153D01*
X1073425Y53964D01*
X1073765Y53817D01*
X1074131Y53712D01*
X1074524Y53649D01*
X1074943Y53628D01*
G37*
%LPD*%
G36*
X1095208Y52070D02*
X1092730Y52070D01*
X1092730Y59431D01*
X1089859Y59431D01*
X1089113Y59453D01*
X1088414Y59517D01*
X1087761Y59626D01*
X1087156Y59777D01*
X1086597Y59972D01*
X1086086Y60211D01*
X1085621Y60492D01*
X1085204Y60817D01*
X1084834Y61184D01*
X1084514Y61593D01*
X1084243Y62043D01*
X1084021Y62535D01*
X1083929Y62796D01*
X1083849Y63068D01*
X1083781Y63350D01*
X1083726Y63642D01*
X1083683Y63945D01*
X1083652Y64258D01*
X1083633Y64581D01*
X1083627Y64915D01*
X1083633Y65245D01*
X1083652Y65566D01*
X1083683Y65877D01*
X1083726Y66177D01*
X1083782Y66467D01*
X1083850Y66748D01*
X1083930Y67018D01*
X1084023Y67278D01*
X1084245Y67767D01*
X1084517Y68217D01*
X1084839Y68625D01*
X1085210Y68994D01*
X1085629Y69320D01*
X1086094Y69603D01*
X1086605Y69842D01*
X1087163Y70038D01*
X1087768Y70190D01*
X1088419Y70299D01*
X1089116Y70364D01*
X1089859Y70386D01*
X1095208Y70386D01*
X1095208Y52070D01*
G37*
%LPC*%
G36*
X1092730Y61467D02*
X1092730Y68350D01*
X1089859Y68350D01*
X1089439Y68336D01*
X1089043Y68293D01*
X1088671Y68223D01*
X1088323Y68124D01*
X1087999Y67997D01*
X1087699Y67843D01*
X1087424Y67659D01*
X1087173Y67448D01*
X1086948Y67211D01*
X1086754Y66952D01*
X1086590Y66669D01*
X1086455Y66364D01*
X1086350Y66036D01*
X1086276Y65685D01*
X1086231Y65311D01*
X1086216Y64915D01*
X1086231Y64518D01*
X1086276Y64144D01*
X1086351Y63793D01*
X1086456Y63464D01*
X1086592Y63158D01*
X1086757Y62874D01*
X1086953Y62613D01*
X1087179Y62375D01*
X1087431Y62162D01*
X1087707Y61978D01*
X1088007Y61822D01*
X1088330Y61694D01*
X1088677Y61595D01*
X1089048Y61524D01*
X1089442Y61482D01*
X1089859Y61467D01*
X1092730Y61467D01*
G37*
%LPD*%
G36*
X1140583Y52070D02*
X1138105Y52070D01*
X1138105Y59431D01*
X1135234Y59431D01*
X1134488Y59453D01*
X1133789Y59517D01*
X1133136Y59626D01*
X1132531Y59777D01*
X1131972Y59972D01*
X1131461Y60211D01*
X1130996Y60492D01*
X1130579Y60817D01*
X1130209Y61184D01*
X1129889Y61593D01*
X1129618Y62043D01*
X1129396Y62535D01*
X1129304Y62796D01*
X1129224Y63068D01*
X1129156Y63350D01*
X1129101Y63642D01*
X1129058Y63945D01*
X1129027Y64258D01*
X1129008Y64581D01*
X1129002Y64915D01*
X1129008Y65245D01*
X1129027Y65566D01*
X1129058Y65877D01*
X1129101Y66177D01*
X1129157Y66467D01*
X1129225Y66748D01*
X1129305Y67018D01*
X1129398Y67278D01*
X1129620Y67767D01*
X1129892Y68217D01*
X1130214Y68625D01*
X1130585Y68994D01*
X1131004Y69320D01*
X1131469Y69603D01*
X1131980Y69842D01*
X1132538Y70038D01*
X1133143Y70190D01*
X1133794Y70299D01*
X1134491Y70364D01*
X1135234Y70386D01*
X1140583Y70386D01*
X1140583Y52070D01*
G37*
%LPC*%
G36*
X1138105Y61467D02*
X1138105Y68350D01*
X1135234Y68350D01*
X1134814Y68336D01*
X1134418Y68293D01*
X1134046Y68223D01*
X1133698Y68124D01*
X1133374Y67997D01*
X1133074Y67843D01*
X1132799Y67659D01*
X1132548Y67448D01*
X1132323Y67211D01*
X1132129Y66952D01*
X1131965Y66669D01*
X1131830Y66364D01*
X1131725Y66036D01*
X1131651Y65685D01*
X1131606Y65311D01*
X1131591Y64915D01*
X1131606Y64518D01*
X1131651Y64144D01*
X1131726Y63793D01*
X1131831Y63464D01*
X1131967Y63158D01*
X1132132Y62874D01*
X1132328Y62613D01*
X1132554Y62375D01*
X1132806Y62162D01*
X1133082Y61978D01*
X1133382Y61822D01*
X1133705Y61694D01*
X1134052Y61595D01*
X1134423Y61524D01*
X1134817Y61482D01*
X1135234Y61467D01*
X1138105Y61467D01*
G37*
%LPD*%
G36*
X1106518Y51714D02*
X1106133Y51723D01*
X1105762Y51751D01*
X1105407Y51796D01*
X1105066Y51860D01*
X1104739Y51942D01*
X1104428Y52042D01*
X1104131Y52160D01*
X1103850Y52297D01*
X1103581Y52453D01*
X1103324Y52629D01*
X1103079Y52825D01*
X1102845Y53041D01*
X1102623Y53277D01*
X1102413Y53533D01*
X1102215Y53810D01*
X1102028Y54106D01*
X1102028Y52070D01*
X1099758Y52070D01*
X1099758Y59909D01*
X1099770Y60755D01*
X1099807Y61487D01*
X1099869Y62107D01*
X1099954Y62614D01*
X1100069Y63047D01*
X1100218Y63444D01*
X1100401Y63805D01*
X1100617Y64130D01*
X1100811Y64373D01*
X1101020Y64601D01*
X1101243Y64813D01*
X1101480Y65010D01*
X1101732Y65191D01*
X1101998Y65356D01*
X1102279Y65505D01*
X1102574Y65638D01*
X1102884Y65756D01*
X1103209Y65859D01*
X1103550Y65945D01*
X1103906Y66016D01*
X1104278Y66071D01*
X1104666Y66110D01*
X1105069Y66134D01*
X1105487Y66141D01*
X1106031Y66127D01*
X1106584Y66082D01*
X1107145Y66007D01*
X1107714Y65902D01*
X1108294Y65768D01*
X1108887Y65603D01*
X1109493Y65409D01*
X1110112Y65185D01*
X1110112Y62927D01*
X1109550Y63227D01*
X1108981Y63489D01*
X1108403Y63712D01*
X1107818Y63896D01*
X1107231Y64041D01*
X1106647Y64145D01*
X1106065Y64207D01*
X1105487Y64228D01*
X1105052Y64216D01*
X1104647Y64181D01*
X1104273Y64123D01*
X1103929Y64042D01*
X1103616Y63938D01*
X1103334Y63810D01*
X1103083Y63659D01*
X1102862Y63485D01*
X1102669Y63286D01*
X1102502Y63058D01*
X1102359Y62802D01*
X1102242Y62518D01*
X1102151Y62205D01*
X1102084Y61865D01*
X1102043Y61496D01*
X1102028Y61099D01*
X1102028Y60744D01*
X1105058Y60744D01*
X1105781Y60725D01*
X1106458Y60669D01*
X1107091Y60576D01*
X1107679Y60446D01*
X1108221Y60279D01*
X1108719Y60074D01*
X1109171Y59832D01*
X1109579Y59554D01*
X1109940Y59239D01*
X1110252Y58890D01*
X1110517Y58506D01*
X1110733Y58087D01*
X1110902Y57635D01*
X1111022Y57147D01*
X1111094Y56626D01*
X1111112Y56352D01*
X1111118Y56069D01*
X1111099Y55585D01*
X1111040Y55126D01*
X1110942Y54692D01*
X1110806Y54283D01*
X1110630Y53899D01*
X1110414Y53540D01*
X1110160Y53207D01*
X1109867Y52898D01*
X1109541Y52621D01*
X1109188Y52380D01*
X1108809Y52177D01*
X1108404Y52010D01*
X1107972Y51881D01*
X1107514Y51788D01*
X1107029Y51733D01*
X1106518Y51714D01*
G37*
%LPC*%
G36*
X1106039Y53604D02*
X1106362Y53614D01*
X1106666Y53646D01*
X1106952Y53700D01*
X1107220Y53775D01*
X1107470Y53872D01*
X1107702Y53990D01*
X1107917Y54130D01*
X1108113Y54291D01*
X1108288Y54471D01*
X1108440Y54669D01*
X1108569Y54883D01*
X1108674Y55116D01*
X1108756Y55365D01*
X1108814Y55632D01*
X1108849Y55915D01*
X1108861Y56217D01*
X1108845Y56549D01*
X1108799Y56861D01*
X1108720Y57151D01*
X1108611Y57420D01*
X1108470Y57668D01*
X1108299Y57895D01*
X1108096Y58100D01*
X1107861Y58284D01*
X1107596Y58446D01*
X1107300Y58587D01*
X1106974Y58706D01*
X1106618Y58804D01*
X1106230Y58879D01*
X1105813Y58934D01*
X1105365Y58966D01*
X1104886Y58977D01*
X1102028Y58977D01*
X1102028Y58474D01*
X1102047Y57919D01*
X1102100Y57395D01*
X1102185Y56901D01*
X1102304Y56439D01*
X1102455Y56007D01*
X1102640Y55607D01*
X1102857Y55237D01*
X1103107Y54898D01*
X1103387Y54594D01*
X1103691Y54332D01*
X1104020Y54109D01*
X1104374Y53927D01*
X1104753Y53786D01*
X1105157Y53684D01*
X1105586Y53624D01*
X1106039Y53604D01*
G37*
%LPD*%
G36*
X877557Y51714D02*
X876994Y51731D01*
X876421Y51780D01*
X875838Y51863D01*
X875245Y51978D01*
X874641Y52126D01*
X874026Y52308D01*
X873399Y52522D01*
X872760Y52769D01*
X872760Y55014D01*
X873419Y54687D01*
X874058Y54404D01*
X874677Y54166D01*
X875275Y53972D01*
X875858Y53821D01*
X876429Y53714D01*
X876987Y53650D01*
X877533Y53628D01*
X878051Y53647D01*
X878540Y53705D01*
X878998Y53801D01*
X879427Y53935D01*
X879825Y54107D01*
X880193Y54318D01*
X880531Y54567D01*
X880839Y54855D01*
X881112Y55186D01*
X881345Y55567D01*
X881539Y55998D01*
X881693Y56477D01*
X881807Y57007D01*
X881882Y57585D01*
X881917Y58213D01*
X881912Y58891D01*
X881912Y58965D01*
X872135Y58965D01*
X872135Y60069D01*
X872181Y60686D01*
X872272Y61280D01*
X872408Y61851D01*
X872587Y62400D01*
X872811Y62925D01*
X873079Y63427D01*
X873391Y63906D01*
X873748Y64363D01*
X874144Y64780D01*
X874575Y65141D01*
X874803Y65301D01*
X875041Y65447D01*
X875286Y65579D01*
X875541Y65697D01*
X875804Y65801D01*
X876076Y65891D01*
X876356Y65968D01*
X876645Y66030D01*
X876943Y66079D01*
X877250Y66114D01*
X877565Y66135D01*
X877889Y66141D01*
X878252Y66134D01*
X878606Y66111D01*
X878951Y66072D01*
X879287Y66019D01*
X879614Y65950D01*
X879931Y65865D01*
X880239Y65766D01*
X880538Y65651D01*
X880828Y65520D01*
X881109Y65375D01*
X881380Y65214D01*
X881643Y65037D01*
X881896Y64846D01*
X882139Y64639D01*
X882374Y64416D01*
X882599Y64179D01*
X882813Y63928D01*
X883014Y63667D01*
X883200Y63396D01*
X883372Y63114D01*
X883531Y62822D01*
X883676Y62520D01*
X883807Y62207D01*
X883924Y61884D01*
X884028Y61551D01*
X884118Y61207D01*
X884194Y60853D01*
X884256Y60489D01*
X884304Y60114D01*
X884338Y59729D01*
X884359Y59334D01*
X884366Y58928D01*
X884359Y58512D01*
X884338Y58107D01*
X884303Y57714D01*
X884253Y57332D01*
X884190Y56961D01*
X884112Y56602D01*
X884021Y56254D01*
X883915Y55918D01*
X883795Y55592D01*
X883662Y55279D01*
X883514Y54976D01*
X883352Y54685D01*
X883176Y54405D01*
X882985Y54137D01*
X882781Y53880D01*
X882563Y53634D01*
X882332Y53402D01*
X882090Y53184D01*
X881837Y52982D01*
X881574Y52794D01*
X881299Y52622D01*
X881013Y52464D01*
X880717Y52322D01*
X880410Y52194D01*
X880091Y52082D01*
X879762Y51984D01*
X879422Y51902D01*
X879071Y51834D01*
X878709Y51782D01*
X878336Y51744D01*
X877952Y51722D01*
X877557Y51714D01*
G37*
%LPC*%
G36*
X881827Y60719D02*
X881787Y61052D01*
X881718Y61377D01*
X881618Y61693D01*
X881489Y62001D01*
X881330Y62300D01*
X881141Y62591D01*
X880922Y62874D01*
X880673Y63148D01*
X880401Y63401D01*
X880110Y63620D01*
X879801Y63806D01*
X879474Y63958D01*
X879129Y64076D01*
X878766Y64160D01*
X878386Y64211D01*
X877987Y64228D01*
X877582Y64211D01*
X877201Y64163D01*
X876845Y64082D01*
X876513Y63968D01*
X876205Y63823D01*
X875922Y63645D01*
X875663Y63434D01*
X875429Y63191D01*
X875218Y62926D01*
X875030Y62649D01*
X874866Y62359D01*
X874725Y62058D01*
X874607Y61744D01*
X874512Y61419D01*
X874441Y61081D01*
X874392Y60731D01*
X881827Y60719D01*
G37*
%LPD*%
G36*
X1013682Y51714D02*
X1013119Y51731D01*
X1012546Y51780D01*
X1011963Y51863D01*
X1011370Y51978D01*
X1010766Y52126D01*
X1010151Y52308D01*
X1009524Y52522D01*
X1008885Y52769D01*
X1008885Y55014D01*
X1009544Y54687D01*
X1010183Y54404D01*
X1010802Y54166D01*
X1011400Y53972D01*
X1011983Y53821D01*
X1012554Y53714D01*
X1013112Y53650D01*
X1013658Y53628D01*
X1014176Y53647D01*
X1014665Y53705D01*
X1015123Y53801D01*
X1015552Y53935D01*
X1015950Y54107D01*
X1016318Y54318D01*
X1016656Y54567D01*
X1016964Y54855D01*
X1017237Y55186D01*
X1017470Y55567D01*
X1017664Y55998D01*
X1017818Y56477D01*
X1017932Y57007D01*
X1018007Y57585D01*
X1018042Y58213D01*
X1018037Y58891D01*
X1018037Y58965D01*
X1008260Y58965D01*
X1008260Y60069D01*
X1008306Y60686D01*
X1008397Y61280D01*
X1008533Y61851D01*
X1008712Y62400D01*
X1008936Y62925D01*
X1009204Y63427D01*
X1009516Y63906D01*
X1009873Y64363D01*
X1010269Y64780D01*
X1010700Y65141D01*
X1010928Y65301D01*
X1011166Y65447D01*
X1011411Y65579D01*
X1011666Y65697D01*
X1011929Y65801D01*
X1012201Y65891D01*
X1012481Y65968D01*
X1012770Y66030D01*
X1013068Y66079D01*
X1013375Y66114D01*
X1013690Y66135D01*
X1014014Y66141D01*
X1014377Y66134D01*
X1014731Y66111D01*
X1015076Y66072D01*
X1015412Y66019D01*
X1015739Y65950D01*
X1016056Y65865D01*
X1016364Y65766D01*
X1016663Y65651D01*
X1016953Y65520D01*
X1017234Y65375D01*
X1017505Y65214D01*
X1017768Y65037D01*
X1018021Y64846D01*
X1018264Y64639D01*
X1018499Y64416D01*
X1018724Y64179D01*
X1018938Y63928D01*
X1019139Y63667D01*
X1019325Y63396D01*
X1019497Y63114D01*
X1019656Y62822D01*
X1019801Y62520D01*
X1019932Y62207D01*
X1020049Y61884D01*
X1020153Y61551D01*
X1020243Y61207D01*
X1020319Y60853D01*
X1020381Y60489D01*
X1020429Y60114D01*
X1020463Y59729D01*
X1020484Y59334D01*
X1020491Y58928D01*
X1020484Y58512D01*
X1020463Y58107D01*
X1020428Y57714D01*
X1020378Y57332D01*
X1020315Y56961D01*
X1020237Y56602D01*
X1020146Y56254D01*
X1020040Y55918D01*
X1019920Y55592D01*
X1019787Y55279D01*
X1019639Y54976D01*
X1019477Y54685D01*
X1019301Y54405D01*
X1019110Y54137D01*
X1018906Y53880D01*
X1018688Y53634D01*
X1018457Y53402D01*
X1018215Y53184D01*
X1017962Y52982D01*
X1017699Y52794D01*
X1017424Y52622D01*
X1017138Y52464D01*
X1016842Y52322D01*
X1016535Y52194D01*
X1016216Y52082D01*
X1015887Y51984D01*
X1015547Y51902D01*
X1015196Y51834D01*
X1014834Y51782D01*
X1014461Y51744D01*
X1014077Y51722D01*
X1013682Y51714D01*
G37*
%LPC*%
G36*
X1017952Y60719D02*
X1017912Y61052D01*
X1017843Y61377D01*
X1017743Y61693D01*
X1017614Y62001D01*
X1017455Y62300D01*
X1017266Y62591D01*
X1017047Y62874D01*
X1016798Y63148D01*
X1016526Y63401D01*
X1016235Y63620D01*
X1015926Y63806D01*
X1015599Y63958D01*
X1015254Y64076D01*
X1014891Y64160D01*
X1014511Y64211D01*
X1014112Y64228D01*
X1013707Y64211D01*
X1013326Y64163D01*
X1012970Y64082D01*
X1012638Y63968D01*
X1012330Y63823D01*
X1012047Y63645D01*
X1011788Y63434D01*
X1011554Y63191D01*
X1011343Y62926D01*
X1011155Y62649D01*
X1010991Y62359D01*
X1010850Y62058D01*
X1010732Y61744D01*
X1010637Y61419D01*
X1010566Y61081D01*
X1010517Y60731D01*
X1017952Y60719D01*
G37*
%LPD*%
G36*
X1119557Y51714D02*
X1118994Y51731D01*
X1118421Y51780D01*
X1117838Y51863D01*
X1117245Y51978D01*
X1116641Y52126D01*
X1116026Y52308D01*
X1115399Y52522D01*
X1114760Y52769D01*
X1114760Y55014D01*
X1115419Y54687D01*
X1116058Y54404D01*
X1116677Y54166D01*
X1117275Y53972D01*
X1117858Y53821D01*
X1118429Y53714D01*
X1118987Y53650D01*
X1119533Y53628D01*
X1120051Y53647D01*
X1120540Y53705D01*
X1120998Y53801D01*
X1121427Y53935D01*
X1121825Y54107D01*
X1122193Y54318D01*
X1122531Y54567D01*
X1122839Y54855D01*
X1123112Y55186D01*
X1123345Y55567D01*
X1123539Y55998D01*
X1123693Y56477D01*
X1123807Y57007D01*
X1123882Y57585D01*
X1123917Y58213D01*
X1123912Y58891D01*
X1123912Y58965D01*
X1114135Y58965D01*
X1114135Y60069D01*
X1114181Y60686D01*
X1114272Y61280D01*
X1114408Y61851D01*
X1114587Y62400D01*
X1114811Y62925D01*
X1115079Y63427D01*
X1115391Y63906D01*
X1115748Y64363D01*
X1116144Y64780D01*
X1116575Y65141D01*
X1116803Y65301D01*
X1117041Y65447D01*
X1117286Y65579D01*
X1117541Y65697D01*
X1117804Y65801D01*
X1118076Y65891D01*
X1118356Y65968D01*
X1118645Y66030D01*
X1118943Y66079D01*
X1119250Y66114D01*
X1119565Y66135D01*
X1119889Y66141D01*
X1120252Y66134D01*
X1120606Y66111D01*
X1120951Y66072D01*
X1121287Y66019D01*
X1121614Y65950D01*
X1121931Y65865D01*
X1122239Y65766D01*
X1122538Y65651D01*
X1122828Y65520D01*
X1123109Y65375D01*
X1123380Y65214D01*
X1123643Y65037D01*
X1123896Y64846D01*
X1124139Y64639D01*
X1124374Y64416D01*
X1124599Y64179D01*
X1124813Y63928D01*
X1125014Y63667D01*
X1125200Y63396D01*
X1125372Y63114D01*
X1125531Y62822D01*
X1125676Y62520D01*
X1125807Y62207D01*
X1125924Y61884D01*
X1126028Y61551D01*
X1126118Y61207D01*
X1126194Y60853D01*
X1126256Y60489D01*
X1126304Y60114D01*
X1126338Y59729D01*
X1126359Y59334D01*
X1126366Y58928D01*
X1126359Y58512D01*
X1126338Y58107D01*
X1126303Y57714D01*
X1126253Y57332D01*
X1126190Y56961D01*
X1126112Y56602D01*
X1126021Y56254D01*
X1125915Y55918D01*
X1125795Y55592D01*
X1125662Y55279D01*
X1125514Y54976D01*
X1125352Y54685D01*
X1125176Y54405D01*
X1124985Y54137D01*
X1124781Y53880D01*
X1124563Y53634D01*
X1124332Y53402D01*
X1124090Y53184D01*
X1123837Y52982D01*
X1123574Y52794D01*
X1123299Y52622D01*
X1123013Y52464D01*
X1122717Y52322D01*
X1122410Y52194D01*
X1122091Y52082D01*
X1121762Y51984D01*
X1121422Y51902D01*
X1121071Y51834D01*
X1120709Y51782D01*
X1120336Y51744D01*
X1119952Y51722D01*
X1119557Y51714D01*
G37*
%LPC*%
G36*
X1123827Y60719D02*
X1123787Y61052D01*
X1123718Y61377D01*
X1123618Y61693D01*
X1123489Y62001D01*
X1123330Y62300D01*
X1123141Y62591D01*
X1122922Y62874D01*
X1122673Y63148D01*
X1122401Y63401D01*
X1122110Y63620D01*
X1121801Y63806D01*
X1121474Y63958D01*
X1121129Y64076D01*
X1120766Y64160D01*
X1120386Y64211D01*
X1119987Y64228D01*
X1119582Y64211D01*
X1119201Y64163D01*
X1118845Y64082D01*
X1118513Y63968D01*
X1118205Y63823D01*
X1117922Y63645D01*
X1117663Y63434D01*
X1117429Y63191D01*
X1117218Y62926D01*
X1117030Y62649D01*
X1116866Y62359D01*
X1116725Y62058D01*
X1116607Y61744D01*
X1116512Y61419D01*
X1116441Y61081D01*
X1116392Y60731D01*
X1123827Y60719D01*
G37*
%LPD*%
G36*
X1125458Y25400D02*
X1114356Y25400D01*
X1114356Y27486D01*
X1122980Y27486D01*
X1122980Y34613D01*
X1114957Y34613D01*
X1114957Y36699D01*
X1122980Y36699D01*
X1122980Y41631D01*
X1114589Y41631D01*
X1114589Y43716D01*
X1125458Y43716D01*
X1125458Y25400D01*
G37*
G36*
X1075360Y25044D02*
X1074610Y25066D01*
X1073906Y25130D01*
X1073248Y25237D01*
X1072637Y25388D01*
X1072071Y25581D01*
X1071551Y25817D01*
X1071077Y26096D01*
X1070649Y26418D01*
X1070270Y26781D01*
X1069941Y27183D01*
X1069662Y27623D01*
X1069435Y28102D01*
X1069340Y28356D01*
X1069257Y28620D01*
X1069188Y28893D01*
X1069131Y29176D01*
X1069087Y29469D01*
X1069055Y29771D01*
X1069036Y30084D01*
X1069030Y30405D01*
X1069048Y30946D01*
X1069103Y31457D01*
X1069195Y31940D01*
X1069324Y32393D01*
X1069490Y32817D01*
X1069692Y33212D01*
X1069931Y33577D01*
X1070207Y33914D01*
X1070524Y34225D01*
X1070884Y34515D01*
X1071287Y34784D01*
X1071735Y35030D01*
X1072226Y35256D01*
X1072761Y35460D01*
X1073339Y35642D01*
X1073961Y35803D01*
X1075262Y36098D01*
X1075701Y36208D01*
X1076103Y36325D01*
X1076470Y36449D01*
X1076800Y36579D01*
X1077094Y36716D01*
X1077352Y36859D01*
X1077573Y37009D01*
X1077758Y37165D01*
X1077915Y37334D01*
X1078051Y37520D01*
X1078166Y37725D01*
X1078260Y37947D01*
X1078333Y38188D01*
X1078385Y38446D01*
X1078417Y38723D01*
X1078427Y39018D01*
X1078411Y39355D01*
X1078363Y39675D01*
X1078284Y39977D01*
X1078172Y40261D01*
X1078029Y40528D01*
X1077854Y40776D01*
X1077647Y41007D01*
X1077409Y41220D01*
X1077143Y41411D01*
X1076854Y41577D01*
X1076542Y41717D01*
X1076207Y41832D01*
X1075848Y41921D01*
X1075467Y41985D01*
X1075063Y42023D01*
X1074636Y42035D01*
X1074061Y42012D01*
X1073488Y41943D01*
X1072917Y41828D01*
X1072348Y41667D01*
X1071781Y41461D01*
X1071215Y41210D01*
X1070649Y40915D01*
X1070085Y40576D01*
X1070085Y43091D01*
X1070721Y43315D01*
X1071342Y43509D01*
X1071948Y43674D01*
X1072538Y43808D01*
X1073114Y43913D01*
X1073676Y43988D01*
X1074224Y44033D01*
X1074759Y44047D01*
X1075426Y44024D01*
X1076059Y43955D01*
X1076658Y43840D01*
X1077223Y43678D01*
X1077754Y43470D01*
X1078252Y43216D01*
X1078715Y42916D01*
X1079145Y42569D01*
X1079531Y42184D01*
X1079867Y41769D01*
X1080150Y41323D01*
X1080382Y40847D01*
X1080563Y40340D01*
X1080634Y40076D01*
X1080692Y39803D01*
X1080737Y39523D01*
X1080769Y39235D01*
X1080788Y38940D01*
X1080795Y38637D01*
X1080777Y38159D01*
X1080723Y37706D01*
X1080633Y37277D01*
X1080506Y36874D01*
X1080344Y36495D01*
X1080146Y36141D01*
X1079912Y35813D01*
X1079642Y35509D01*
X1079331Y35227D01*
X1078978Y34963D01*
X1078580Y34718D01*
X1078139Y34491D01*
X1077654Y34282D01*
X1077125Y34092D01*
X1076553Y33920D01*
X1075937Y33767D01*
X1074612Y33460D01*
X1074184Y33357D01*
X1073789Y33243D01*
X1073427Y33119D01*
X1073098Y32985D01*
X1072803Y32840D01*
X1072540Y32685D01*
X1072311Y32520D01*
X1072115Y32344D01*
X1071947Y32153D01*
X1071801Y31941D01*
X1071678Y31709D01*
X1071577Y31457D01*
X1071498Y31185D01*
X1071442Y30892D01*
X1071409Y30579D01*
X1071397Y30246D01*
X1071414Y29879D01*
X1071463Y29533D01*
X1071544Y29208D01*
X1071658Y28904D01*
X1071805Y28621D01*
X1071984Y28359D01*
X1072196Y28117D01*
X1072440Y27897D01*
X1072714Y27700D01*
X1073014Y27529D01*
X1073340Y27384D01*
X1073692Y27266D01*
X1074070Y27174D01*
X1074474Y27109D01*
X1074904Y27069D01*
X1075360Y27056D01*
X1075679Y27063D01*
X1075997Y27082D01*
X1076631Y27160D01*
X1077263Y27291D01*
X1077893Y27473D01*
X1078532Y27712D01*
X1079189Y28010D01*
X1079866Y28368D01*
X1080562Y28786D01*
X1080562Y26148D01*
X1079906Y25890D01*
X1079252Y25665D01*
X1078600Y25476D01*
X1077949Y25320D01*
X1077299Y25200D01*
X1076651Y25113D01*
X1076005Y25062D01*
X1075360Y25044D01*
G37*
G36*
X981126Y52070D02*
X978856Y52070D01*
X978856Y60584D01*
X978872Y61261D01*
X978921Y61894D01*
X979002Y62483D01*
X979115Y63027D01*
X979261Y63527D01*
X979439Y63983D01*
X979650Y64394D01*
X979893Y64761D01*
X980169Y65085D01*
X980478Y65365D01*
X980820Y65602D01*
X981195Y65796D01*
X981603Y65947D01*
X982045Y66055D01*
X982520Y66120D01*
X983027Y66141D01*
X983374Y66132D01*
X983709Y66104D01*
X984032Y66056D01*
X984343Y65990D01*
X984642Y65904D01*
X984930Y65800D01*
X985205Y65677D01*
X985469Y65534D01*
X985720Y65373D01*
X985957Y65195D01*
X986181Y64999D01*
X986392Y64784D01*
X986589Y64552D01*
X986773Y64302D01*
X986943Y64035D01*
X987100Y63749D01*
X987100Y71159D01*
X989358Y71159D01*
X989358Y52070D01*
X987100Y52070D01*
X987100Y59836D01*
X987087Y60345D01*
X987047Y60824D01*
X986981Y61272D01*
X986887Y61690D01*
X986767Y62077D01*
X986621Y62434D01*
X986448Y62760D01*
X986248Y63056D01*
X986023Y63319D01*
X985776Y63547D01*
X985506Y63740D01*
X985213Y63898D01*
X984897Y64021D01*
X984558Y64108D01*
X984197Y64161D01*
X983813Y64179D01*
X983478Y64165D01*
X983165Y64124D01*
X982876Y64056D01*
X982610Y63961D01*
X982367Y63838D01*
X982147Y63689D01*
X981950Y63512D01*
X981776Y63308D01*
X981624Y63074D01*
X981492Y62811D01*
X981380Y62516D01*
X981288Y62191D01*
X981217Y61835D01*
X981167Y61449D01*
X981136Y61032D01*
X981126Y60584D01*
X981126Y52070D01*
G37*
G36*
X966001Y52070D02*
X963731Y52070D01*
X963731Y60584D01*
X963747Y61261D01*
X963796Y61894D01*
X963877Y62483D01*
X963990Y63027D01*
X964136Y63527D01*
X964314Y63983D01*
X964525Y64394D01*
X964768Y64761D01*
X965044Y65085D01*
X965353Y65365D01*
X965695Y65602D01*
X966070Y65796D01*
X966478Y65947D01*
X966920Y66055D01*
X967395Y66120D01*
X967902Y66141D01*
X968249Y66132D01*
X968584Y66104D01*
X968907Y66056D01*
X969218Y65990D01*
X969517Y65904D01*
X969805Y65800D01*
X970080Y65677D01*
X970344Y65534D01*
X970595Y65373D01*
X970832Y65195D01*
X971056Y64999D01*
X971267Y64784D01*
X971464Y64552D01*
X971648Y64302D01*
X971818Y64035D01*
X971975Y63749D01*
X971975Y65810D01*
X974233Y65810D01*
X974233Y52070D01*
X971975Y52070D01*
X971975Y59836D01*
X971962Y60345D01*
X971922Y60824D01*
X971856Y61272D01*
X971762Y61690D01*
X971642Y62077D01*
X971496Y62434D01*
X971323Y62760D01*
X971123Y63056D01*
X970898Y63319D01*
X970651Y63547D01*
X970381Y63740D01*
X970088Y63898D01*
X969772Y64021D01*
X969433Y64108D01*
X969072Y64161D01*
X968688Y64179D01*
X968353Y64165D01*
X968040Y64124D01*
X967751Y64056D01*
X967485Y63961D01*
X967242Y63838D01*
X967022Y63689D01*
X966825Y63512D01*
X966651Y63308D01*
X966499Y63074D01*
X966367Y62811D01*
X966255Y62516D01*
X966163Y62191D01*
X966092Y61835D01*
X966042Y61449D01*
X966011Y61032D01*
X966001Y60584D01*
X966001Y52070D01*
G37*
G36*
X1030795Y52070D02*
X1028304Y52070D01*
X1028304Y68301D01*
X1022575Y68301D01*
X1022575Y70386D01*
X1036548Y70386D01*
X1036548Y68301D01*
X1030795Y68301D01*
X1030795Y52070D01*
G37*
G36*
X863585Y51714D02*
X862959Y51732D01*
X862368Y51786D01*
X861812Y51876D01*
X861291Y52001D01*
X860806Y52162D01*
X860356Y52359D01*
X859941Y52592D01*
X859562Y52861D01*
X859222Y53162D01*
X858928Y53490D01*
X858679Y53847D01*
X858476Y54231D01*
X858317Y54643D01*
X858204Y55082D01*
X858137Y55550D01*
X858114Y56045D01*
X858127Y56419D01*
X858168Y56776D01*
X858236Y57114D01*
X858330Y57434D01*
X858452Y57737D01*
X858600Y58021D01*
X858776Y58287D01*
X858979Y58535D01*
X859208Y58765D01*
X859462Y58974D01*
X859742Y59163D01*
X860048Y59333D01*
X860379Y59482D01*
X860735Y59612D01*
X861117Y59721D01*
X861524Y59811D01*
X862432Y59983D01*
X863450Y60199D01*
X863880Y60308D01*
X864257Y60418D01*
X864582Y60529D01*
X864854Y60641D01*
X865074Y60753D01*
X865242Y60866D01*
X865374Y60987D01*
X865489Y61122D01*
X865586Y61272D01*
X865665Y61437D01*
X865727Y61616D01*
X865771Y61809D01*
X865797Y62017D01*
X865806Y62240D01*
X865794Y62487D01*
X865759Y62717D01*
X865700Y62931D01*
X865617Y63128D01*
X865511Y63309D01*
X865382Y63474D01*
X865228Y63623D01*
X865052Y63755D01*
X864851Y63872D01*
X864626Y63973D01*
X864376Y64058D01*
X864102Y64128D01*
X863804Y64182D01*
X863482Y64221D01*
X863135Y64244D01*
X862764Y64252D01*
X862257Y64235D01*
X861754Y64182D01*
X861257Y64093D01*
X860764Y63970D01*
X860274Y63811D01*
X859785Y63617D01*
X859299Y63388D01*
X858813Y63124D01*
X858813Y65332D01*
X859306Y65522D01*
X859804Y65686D01*
X860306Y65825D01*
X860813Y65939D01*
X861327Y66028D01*
X861853Y66091D01*
X862389Y66129D01*
X862935Y66141D01*
X863537Y66125D01*
X864103Y66074D01*
X864633Y65991D01*
X865128Y65873D01*
X865587Y65722D01*
X866011Y65538D01*
X866399Y65320D01*
X866751Y65068D01*
X867064Y64786D01*
X867336Y64475D01*
X867566Y64136D01*
X867754Y63769D01*
X867900Y63374D01*
X868004Y62951D01*
X868067Y62499D01*
X868088Y62019D01*
X868074Y61640D01*
X868032Y61281D01*
X867962Y60943D01*
X867864Y60625D01*
X867738Y60328D01*
X867584Y60052D01*
X867402Y59795D01*
X867192Y59560D01*
X866952Y59342D01*
X866679Y59141D01*
X866372Y58957D01*
X866033Y58788D01*
X865661Y58636D01*
X865255Y58500D01*
X864817Y58381D01*
X864346Y58278D01*
X863500Y58106D01*
X863401Y58081D01*
X862697Y57916D01*
X862086Y57720D01*
X861816Y57611D01*
X861570Y57494D01*
X861347Y57370D01*
X861147Y57238D01*
X860971Y57098D01*
X860818Y56951D01*
X860689Y56797D01*
X860584Y56634D01*
X860501Y56465D01*
X860443Y56287D01*
X860408Y56102D01*
X860396Y55910D01*
X860409Y55645D01*
X860447Y55394D01*
X860511Y55159D01*
X860601Y54939D01*
X860717Y54734D01*
X860858Y54545D01*
X861025Y54370D01*
X861218Y54211D01*
X861434Y54068D01*
X861671Y53945D01*
X861929Y53841D01*
X862208Y53755D01*
X862509Y53689D01*
X862830Y53641D01*
X863173Y53613D01*
X863536Y53604D01*
X864059Y53624D01*
X864598Y53685D01*
X865151Y53786D01*
X865720Y53929D01*
X866304Y54111D01*
X866901Y54335D01*
X867512Y54599D01*
X868137Y54904D01*
X868137Y52573D01*
X867498Y52372D01*
X866883Y52197D01*
X866290Y52050D01*
X865720Y51929D01*
X865168Y51835D01*
X864628Y51768D01*
X864101Y51728D01*
X863585Y51714D01*
G37*
G36*
X1140362Y25400D02*
X1129027Y25400D01*
X1129027Y27486D01*
X1137872Y27486D01*
X1137872Y43716D01*
X1140362Y43716D01*
X1140362Y25400D01*
G37*
G36*
X1057475Y25400D02*
X1054714Y25400D01*
X1054714Y27203D01*
X1057254Y27203D01*
X1057599Y27213D01*
X1057918Y27241D01*
X1058210Y27288D01*
X1058475Y27354D01*
X1058713Y27438D01*
X1058924Y27542D01*
X1059108Y27664D01*
X1059266Y27805D01*
X1059401Y27969D01*
X1059518Y28163D01*
X1059617Y28385D01*
X1059698Y28636D01*
X1059761Y28915D01*
X1059806Y29224D01*
X1059833Y29561D01*
X1059842Y29927D01*
X1059842Y37386D01*
X1054714Y37386D01*
X1054714Y39140D01*
X1059842Y39140D01*
X1059842Y43041D01*
X1062100Y43041D01*
X1062100Y39140D01*
X1065768Y39140D01*
X1065768Y37386D01*
X1062100Y37386D01*
X1062100Y29927D01*
X1062083Y29327D01*
X1062035Y28774D01*
X1061953Y28266D01*
X1061839Y27805D01*
X1061692Y27389D01*
X1061513Y27019D01*
X1061301Y26696D01*
X1061057Y26418D01*
X1060773Y26180D01*
X1060442Y25973D01*
X1060064Y25798D01*
X1059640Y25655D01*
X1059169Y25543D01*
X1058651Y25464D01*
X1058086Y25416D01*
X1057475Y25400D01*
G37*
G36*
X997699Y51714D02*
X997198Y51731D01*
X996703Y51780D01*
X996214Y51863D01*
X995729Y51978D01*
X995251Y52126D01*
X994780Y52308D01*
X994316Y52522D01*
X993859Y52769D01*
X993859Y55112D01*
X994266Y54757D01*
X994690Y54452D01*
X995131Y54196D01*
X995588Y53990D01*
X996070Y53832D01*
X996582Y53719D01*
X997125Y53651D01*
X997699Y53628D01*
X998211Y53650D01*
X998693Y53714D01*
X999146Y53822D01*
X999568Y53973D01*
X999960Y54167D01*
X1000322Y54404D01*
X1000654Y54685D01*
X1000956Y55008D01*
X1001225Y55371D01*
X1001458Y55771D01*
X1001655Y56206D01*
X1001816Y56678D01*
X1001941Y57186D01*
X1002031Y57731D01*
X1002085Y58311D01*
X1002103Y58928D01*
X1002085Y59547D01*
X1002031Y60130D01*
X1001942Y60676D01*
X1001818Y61185D01*
X1001657Y61657D01*
X1001461Y62093D01*
X1001229Y62492D01*
X1000962Y62854D01*
X1000661Y63176D01*
X1000330Y63455D01*
X999968Y63691D01*
X999576Y63884D01*
X999152Y64034D01*
X998698Y64142D01*
X998214Y64206D01*
X997699Y64228D01*
X997143Y64205D01*
X996617Y64139D01*
X996122Y64028D01*
X995656Y63872D01*
X995205Y63666D01*
X994756Y63406D01*
X994307Y63090D01*
X993859Y62719D01*
X993859Y65086D01*
X994336Y65339D01*
X994812Y65556D01*
X995287Y65737D01*
X995760Y65884D01*
X996236Y65997D01*
X996717Y66077D01*
X997205Y66125D01*
X997699Y66141D01*
X998092Y66134D01*
X998474Y66112D01*
X998846Y66074D01*
X999206Y66022D01*
X999556Y65955D01*
X999895Y65872D01*
X1000223Y65775D01*
X1000540Y65663D01*
X1000846Y65536D01*
X1001142Y65394D01*
X1001426Y65237D01*
X1001700Y65065D01*
X1001963Y64878D01*
X1002214Y64676D01*
X1002455Y64459D01*
X1002685Y64228D01*
X1002903Y63983D01*
X1003107Y63726D01*
X1003296Y63458D01*
X1003472Y63179D01*
X1003633Y62888D01*
X1003781Y62585D01*
X1003914Y62271D01*
X1004033Y61946D01*
X1004139Y61609D01*
X1004230Y61260D01*
X1004307Y60900D01*
X1004370Y60529D01*
X1004420Y60146D01*
X1004455Y59751D01*
X1004476Y59345D01*
X1004483Y58928D01*
X1004476Y58510D01*
X1004455Y58104D01*
X1004420Y57710D01*
X1004370Y57327D01*
X1004307Y56955D01*
X1004230Y56595D01*
X1004139Y56247D01*
X1004033Y55910D01*
X1003914Y55584D01*
X1003781Y55270D01*
X1003633Y54968D01*
X1003472Y54677D01*
X1003296Y54397D01*
X1003107Y54130D01*
X1002903Y53873D01*
X1002685Y53628D01*
X1002455Y53396D01*
X1002214Y53179D01*
X1001963Y52978D01*
X1001700Y52791D01*
X1001426Y52619D01*
X1001142Y52462D01*
X1000846Y52320D01*
X1000540Y52193D01*
X1000223Y52081D01*
X999895Y51983D01*
X999556Y51901D01*
X999206Y51834D01*
X998846Y51782D01*
X998474Y51744D01*
X998092Y51722D01*
X997699Y51714D01*
G37*
G36*
X935567Y52070D02*
X932708Y52070D01*
X932708Y53972D01*
X935346Y53972D01*
X935611Y53984D01*
X935859Y54020D01*
X936090Y54080D01*
X936304Y54165D01*
X936502Y54273D01*
X936684Y54406D01*
X936848Y54563D01*
X936996Y54744D01*
X937127Y54949D01*
X937240Y55178D01*
X937336Y55429D01*
X937415Y55704D01*
X937476Y56003D01*
X937519Y56325D01*
X937546Y56670D01*
X937554Y57039D01*
X937554Y71233D01*
X943431Y71233D01*
X943431Y69466D01*
X939812Y69466D01*
X939812Y57039D01*
X939794Y56461D01*
X939742Y55916D01*
X939655Y55406D01*
X939534Y54930D01*
X939378Y54488D01*
X939187Y54079D01*
X938962Y53705D01*
X938701Y53364D01*
X938410Y53061D01*
X938089Y52798D01*
X937740Y52576D01*
X937363Y52394D01*
X936957Y52252D01*
X936522Y52151D01*
X936059Y52090D01*
X935567Y52070D01*
G37*
G36*
X898080Y52070D02*
X886867Y52070D01*
X886867Y53824D01*
X891345Y53824D01*
X891345Y65761D01*
X897123Y65761D01*
X897123Y64007D01*
X893602Y64007D01*
X893602Y53824D01*
X898080Y53824D01*
X898080Y52070D01*
G37*
G36*
X1034205Y25400D02*
X1022992Y25400D01*
X1022992Y27154D01*
X1027470Y27154D01*
X1027470Y39091D01*
X1033248Y39091D01*
X1033248Y37337D01*
X1029727Y37337D01*
X1029727Y27154D01*
X1034205Y27154D01*
X1034205Y25400D01*
G37*
G36*
X1047809Y25400D02*
X1045539Y25400D01*
X1045539Y32233D01*
X1045522Y32841D01*
X1045470Y33411D01*
X1045382Y33945D01*
X1045260Y34442D01*
X1045103Y34902D01*
X1044911Y35325D01*
X1044685Y35711D01*
X1044423Y36061D01*
X1044128Y36371D01*
X1043803Y36641D01*
X1043446Y36868D01*
X1043058Y37055D01*
X1042639Y37200D01*
X1042189Y37303D01*
X1041709Y37365D01*
X1041197Y37386D01*
X1040758Y37370D01*
X1040338Y37321D01*
X1039936Y37241D01*
X1039553Y37128D01*
X1039180Y36980D01*
X1038810Y36794D01*
X1038444Y36569D01*
X1038080Y36306D01*
X1038080Y38613D01*
X1038415Y38819D01*
X1038758Y38996D01*
X1039109Y39144D01*
X1039467Y39263D01*
X1039836Y39354D01*
X1040218Y39419D01*
X1040615Y39458D01*
X1041025Y39471D01*
X1041420Y39459D01*
X1041801Y39423D01*
X1042169Y39362D01*
X1042523Y39277D01*
X1042864Y39167D01*
X1043190Y39033D01*
X1043504Y38875D01*
X1043803Y38692D01*
X1044087Y38487D01*
X1044351Y38260D01*
X1044597Y38012D01*
X1044823Y37743D01*
X1045031Y37453D01*
X1045219Y37141D01*
X1045389Y36808D01*
X1045539Y36454D01*
X1045539Y39140D01*
X1047809Y39140D01*
X1047809Y25400D01*
G37*
G36*
X893602Y68252D02*
X891345Y68252D01*
X891345Y71098D01*
X893602Y71098D01*
X893602Y68252D01*
G37*
G36*
X1029727Y41582D02*
X1027470Y41582D01*
X1027470Y44428D01*
X1029727Y44428D01*
X1029727Y41582D01*
G37*
G36*
X446519Y91440D02*
X445683Y91440D01*
X445683Y93844D01*
X443870Y93844D01*
X443631Y93852D01*
X443405Y93877D01*
X443192Y93917D01*
X442991Y93973D01*
X442804Y94046D01*
X442629Y94135D01*
X442467Y94240D01*
X442318Y94361D01*
X442184Y94496D01*
X442067Y94642D01*
X441969Y94799D01*
X441889Y94968D01*
X441826Y95147D01*
X441782Y95338D01*
X441755Y95540D01*
X441746Y95754D01*
X441755Y95969D01*
X441782Y96171D01*
X441826Y96361D01*
X441888Y96539D01*
X441968Y96704D01*
X442066Y96856D01*
X442182Y96997D01*
X442315Y97124D01*
X442465Y97238D01*
X442629Y97337D01*
X442808Y97421D01*
X443002Y97489D01*
X443210Y97542D01*
X443433Y97580D01*
X443670Y97603D01*
X443923Y97610D01*
X446519Y97610D01*
X446519Y91440D01*
G37*
%LPC*%
G36*
X445683Y94505D02*
X445683Y96940D01*
X444023Y96940D01*
X443687Y96922D01*
X443395Y96866D01*
X443148Y96772D01*
X442946Y96641D01*
X442789Y96473D01*
X442677Y96268D01*
X442609Y96025D01*
X442587Y95745D01*
X442609Y95454D01*
X442674Y95203D01*
X442784Y94990D01*
X442937Y94815D01*
X443134Y94680D01*
X443375Y94583D01*
X443660Y94525D01*
X443988Y94505D01*
X445683Y94505D01*
G37*
%LPD*%
G36*
X450403Y91440D02*
X449571Y91440D01*
X449571Y96927D01*
X447451Y96927D01*
X447451Y97610D01*
X452522Y97610D01*
X452522Y96927D01*
X450403Y96927D01*
X450403Y91440D01*
G37*
G36*
X440603Y91440D02*
X436736Y91440D01*
X436736Y92110D01*
X438238Y92110D01*
X438238Y97610D01*
X438965Y97610D01*
X440424Y96608D01*
X440424Y95863D01*
X439031Y96857D01*
X439031Y92110D01*
X440603Y92110D01*
X440603Y91440D01*
G37*
G36*
X444012Y52070D02*
X440780Y52070D01*
X440471Y52078D01*
X440172Y52103D01*
X439882Y52145D01*
X439602Y52203D01*
X439330Y52278D01*
X439068Y52370D01*
X438815Y52479D01*
X438571Y52604D01*
X438339Y52744D01*
X438120Y52900D01*
X437915Y53070D01*
X437723Y53255D01*
X437545Y53454D01*
X437381Y53668D01*
X437230Y53897D01*
X437093Y54140D01*
X436971Y54396D01*
X436865Y54663D01*
X436775Y54939D01*
X436702Y55227D01*
X436645Y55524D01*
X436604Y55833D01*
X436580Y56151D01*
X436572Y56480D01*
X436590Y56973D01*
X436646Y57437D01*
X436739Y57872D01*
X436870Y58278D01*
X437038Y58655D01*
X437243Y59003D01*
X437485Y59322D01*
X437765Y59612D01*
X438079Y59870D01*
X438424Y60094D01*
X438801Y60283D01*
X439209Y60438D01*
X439648Y60558D01*
X440118Y60644D01*
X440620Y60696D01*
X441154Y60713D01*
X444012Y60713D01*
X444012Y52070D01*
G37*
%LPC*%
G36*
X442841Y53009D02*
X442841Y59774D01*
X441178Y59774D01*
X440774Y59761D01*
X440393Y59722D01*
X440038Y59656D01*
X439707Y59563D01*
X439401Y59445D01*
X439119Y59300D01*
X438862Y59129D01*
X438630Y58931D01*
X438423Y58708D01*
X438245Y58461D01*
X438093Y58191D01*
X437969Y57897D01*
X437873Y57578D01*
X437804Y57236D01*
X437763Y56870D01*
X437749Y56480D01*
X437755Y56218D01*
X437774Y55964D01*
X437846Y55484D01*
X437967Y55038D01*
X438136Y54628D01*
X438350Y54258D01*
X438606Y53935D01*
X438904Y53657D01*
X439243Y53426D01*
X439618Y53243D01*
X440021Y53113D01*
X440234Y53067D01*
X440454Y53035D01*
X440680Y53015D01*
X440915Y53009D01*
X442841Y53009D01*
G37*
%LPD*%
G36*
X452387Y52070D02*
X445578Y52070D01*
X445578Y53027D01*
X451216Y53027D01*
X451216Y56039D01*
X446198Y56039D01*
X446198Y56983D01*
X451216Y56983D01*
X451216Y59756D01*
X445830Y59756D01*
X445830Y60713D01*
X452387Y60713D01*
X452387Y52070D01*
G37*
G36*
X459356Y52070D02*
X453817Y52070D01*
X453817Y53027D01*
X458184Y53027D01*
X458184Y60713D01*
X459356Y60713D01*
X459356Y52070D01*
G37*
G36*
X432766Y53174D02*
X431864Y53174D01*
X431864Y55799D01*
X429263Y55799D01*
X429263Y56695D01*
X431864Y56695D01*
X431864Y59320D01*
X432766Y59320D01*
X432766Y56695D01*
X435367Y56695D01*
X435367Y55799D01*
X432766Y55799D01*
X432766Y53174D01*
G37*
G36*
X446519Y40640D02*
X445683Y40640D01*
X445683Y43044D01*
X443870Y43044D01*
X443631Y43052D01*
X443405Y43077D01*
X443192Y43117D01*
X442991Y43173D01*
X442804Y43246D01*
X442629Y43335D01*
X442467Y43440D01*
X442318Y43561D01*
X442184Y43696D01*
X442067Y43842D01*
X441969Y43999D01*
X441889Y44168D01*
X441826Y44347D01*
X441782Y44538D01*
X441755Y44740D01*
X441746Y44954D01*
X441755Y45169D01*
X441782Y45371D01*
X441826Y45561D01*
X441888Y45739D01*
X441968Y45904D01*
X442066Y46056D01*
X442182Y46197D01*
X442315Y46324D01*
X442465Y46438D01*
X442629Y46537D01*
X442808Y46621D01*
X443002Y46689D01*
X443210Y46742D01*
X443433Y46780D01*
X443670Y46803D01*
X443923Y46810D01*
X446519Y46810D01*
X446519Y40640D01*
G37*
%LPC*%
G36*
X445683Y43705D02*
X445683Y46140D01*
X444023Y46140D01*
X443687Y46122D01*
X443395Y46066D01*
X443148Y45972D01*
X442946Y45841D01*
X442789Y45673D01*
X442677Y45468D01*
X442609Y45225D01*
X442587Y44945D01*
X442609Y44654D01*
X442674Y44403D01*
X442784Y44190D01*
X442937Y44015D01*
X443134Y43880D01*
X443375Y43783D01*
X443660Y43725D01*
X443988Y43705D01*
X445683Y43705D01*
G37*
%LPD*%
G36*
X440835Y40640D02*
X436749Y40640D01*
X436749Y41310D01*
X439968Y41310D01*
X439892Y41465D01*
X439795Y41623D01*
X439539Y41947D01*
X439190Y42298D01*
X438738Y42689D01*
X437970Y43337D01*
X437498Y43789D01*
X437214Y44143D01*
X437102Y44321D01*
X437010Y44498D01*
X436938Y44676D01*
X436887Y44854D01*
X436856Y45033D01*
X436846Y45212D01*
X436854Y45409D01*
X436877Y45594D01*
X436916Y45768D01*
X436971Y45930D01*
X437042Y46080D01*
X437128Y46219D01*
X437230Y46346D01*
X437347Y46462D01*
X437479Y46565D01*
X437625Y46655D01*
X437784Y46730D01*
X437957Y46792D01*
X438143Y46840D01*
X438342Y46875D01*
X438555Y46895D01*
X438781Y46902D01*
X438989Y46896D01*
X439187Y46875D01*
X439375Y46841D01*
X439554Y46793D01*
X439723Y46731D01*
X439882Y46656D01*
X440032Y46567D01*
X440172Y46464D01*
X440300Y46350D01*
X440414Y46227D01*
X440514Y46093D01*
X440599Y45951D01*
X440671Y45799D01*
X440728Y45638D01*
X440771Y45467D01*
X440800Y45286D01*
X439995Y45212D01*
X439949Y45446D01*
X439870Y45652D01*
X439758Y45830D01*
X439611Y45981D01*
X439437Y46100D01*
X439241Y46186D01*
X439022Y46237D01*
X438781Y46254D01*
X438531Y46237D01*
X438310Y46184D01*
X438117Y46097D01*
X437954Y45974D01*
X437823Y45820D01*
X437730Y45637D01*
X437675Y45425D01*
X437656Y45186D01*
X437667Y45002D01*
X437699Y44829D01*
X437753Y44665D01*
X437829Y44511D01*
X438029Y44220D01*
X438282Y43942D01*
X438579Y43670D01*
X438911Y43399D01*
X439614Y42810D01*
X439960Y42474D01*
X440290Y42100D01*
X440445Y41897D01*
X440587Y41678D01*
X440718Y41445D01*
X440835Y41196D01*
X440835Y40640D01*
G37*
G36*
X450403Y40640D02*
X449571Y40640D01*
X449571Y46127D01*
X447451Y46127D01*
X447451Y46810D01*
X452522Y46810D01*
X452522Y46127D01*
X450403Y46127D01*
X450403Y40640D01*
G37*
G36*
X442436Y1270D02*
X439203Y1270D01*
X438895Y1278D01*
X438596Y1303D01*
X438306Y1345D01*
X438025Y1403D01*
X437754Y1478D01*
X437492Y1570D01*
X437239Y1679D01*
X436995Y1804D01*
X436762Y1944D01*
X436544Y2100D01*
X436338Y2270D01*
X436147Y2455D01*
X435969Y2654D01*
X435805Y2868D01*
X435654Y3097D01*
X435517Y3340D01*
X435394Y3596D01*
X435288Y3863D01*
X435199Y4139D01*
X435126Y4427D01*
X435069Y4724D01*
X435028Y5033D01*
X435003Y5351D01*
X434995Y5680D01*
X435014Y6173D01*
X435070Y6637D01*
X435163Y7072D01*
X435293Y7478D01*
X435461Y7855D01*
X435666Y8203D01*
X435909Y8522D01*
X436188Y8812D01*
X436502Y9070D01*
X436847Y9294D01*
X437224Y9483D01*
X437632Y9638D01*
X438071Y9758D01*
X438542Y9844D01*
X439044Y9896D01*
X439577Y9913D01*
X442436Y9913D01*
X442436Y1270D01*
G37*
%LPC*%
G36*
X441264Y2209D02*
X441264Y8974D01*
X439602Y8974D01*
X439197Y8961D01*
X438817Y8922D01*
X438461Y8856D01*
X438130Y8763D01*
X437824Y8645D01*
X437543Y8500D01*
X437286Y8329D01*
X437053Y8131D01*
X436847Y7908D01*
X436668Y7661D01*
X436517Y7391D01*
X436393Y7097D01*
X436297Y6778D01*
X436228Y6436D01*
X436187Y6070D01*
X436173Y5680D01*
X436179Y5418D01*
X436197Y5164D01*
X436270Y4684D01*
X436390Y4238D01*
X436559Y3828D01*
X436774Y3458D01*
X437029Y3135D01*
X437327Y2857D01*
X437667Y2626D01*
X438041Y2443D01*
X438445Y2313D01*
X438657Y2267D01*
X438877Y2235D01*
X439104Y2215D01*
X439338Y2209D01*
X441264Y2209D01*
G37*
%LPD*%
G36*
X450811Y1270D02*
X444002Y1270D01*
X444002Y2227D01*
X449639Y2227D01*
X449639Y5239D01*
X444622Y5239D01*
X444622Y6183D01*
X449639Y6183D01*
X449639Y8956D01*
X444254Y8956D01*
X444254Y9913D01*
X450811Y9913D01*
X450811Y1270D01*
G37*
G36*
X457780Y1270D02*
X452241Y1270D01*
X452241Y2227D01*
X456608Y2227D01*
X456608Y9913D01*
X457780Y9913D01*
X457780Y1270D01*
G37*
G36*
X433846Y4116D02*
X430779Y4116D01*
X430779Y5098D01*
X433846Y5098D01*
X433846Y4116D01*
G37*
G36*
X332219Y91440D02*
X331383Y91440D01*
X331383Y93844D01*
X329570Y93844D01*
X329331Y93852D01*
X329105Y93877D01*
X328892Y93917D01*
X328691Y93973D01*
X328504Y94046D01*
X328329Y94135D01*
X328167Y94240D01*
X328018Y94361D01*
X327884Y94496D01*
X327767Y94642D01*
X327669Y94799D01*
X327589Y94968D01*
X327526Y95147D01*
X327482Y95338D01*
X327455Y95540D01*
X327446Y95754D01*
X327455Y95969D01*
X327482Y96171D01*
X327526Y96361D01*
X327588Y96539D01*
X327668Y96704D01*
X327766Y96856D01*
X327882Y96997D01*
X328015Y97124D01*
X328165Y97238D01*
X328329Y97337D01*
X328508Y97421D01*
X328702Y97489D01*
X328910Y97542D01*
X329133Y97580D01*
X329370Y97603D01*
X329623Y97610D01*
X332219Y97610D01*
X332219Y91440D01*
G37*
%LPC*%
G36*
X331383Y94505D02*
X331383Y96940D01*
X329723Y96940D01*
X329387Y96922D01*
X329095Y96866D01*
X328848Y96772D01*
X328646Y96641D01*
X328489Y96473D01*
X328377Y96268D01*
X328309Y96025D01*
X328287Y95745D01*
X328309Y95454D01*
X328374Y95203D01*
X328484Y94990D01*
X328637Y94815D01*
X328834Y94680D01*
X329075Y94583D01*
X329360Y94525D01*
X329688Y94505D01*
X331383Y94505D01*
G37*
%LPD*%
G36*
X324486Y91352D02*
X324241Y91360D01*
X324011Y91382D01*
X323796Y91418D01*
X323595Y91470D01*
X323408Y91535D01*
X323236Y91616D01*
X323079Y91711D01*
X322936Y91821D01*
X322808Y91944D01*
X322698Y92079D01*
X322605Y92227D01*
X322528Y92386D01*
X322469Y92557D01*
X322426Y92741D01*
X322401Y92936D01*
X322393Y93144D01*
X322417Y93427D01*
X322489Y93684D01*
X322609Y93917D01*
X322778Y94124D01*
X322990Y94300D01*
X323240Y94435D01*
X323528Y94532D01*
X323855Y94589D01*
X323855Y94606D01*
X323559Y94687D01*
X323300Y94797D01*
X323078Y94938D01*
X322894Y95108D01*
X322749Y95306D01*
X322646Y95533D01*
X322584Y95787D01*
X322563Y96069D01*
X322571Y96256D01*
X322596Y96433D01*
X322636Y96599D01*
X322692Y96755D01*
X322764Y96900D01*
X322853Y97034D01*
X322957Y97158D01*
X323078Y97271D01*
X323213Y97372D01*
X323361Y97460D01*
X323522Y97534D01*
X323696Y97595D01*
X323883Y97642D01*
X324083Y97675D01*
X324295Y97696D01*
X324521Y97702D01*
X324728Y97696D01*
X324926Y97676D01*
X325115Y97643D01*
X325293Y97596D01*
X325462Y97536D01*
X325622Y97463D01*
X325771Y97377D01*
X325911Y97278D01*
X326039Y97166D01*
X326153Y97044D01*
X326253Y96912D01*
X326339Y96770D01*
X326410Y96617D01*
X326468Y96453D01*
X326511Y96279D01*
X326540Y96095D01*
X325747Y96034D01*
X325704Y96263D01*
X325627Y96465D01*
X325517Y96640D01*
X325373Y96787D01*
X325199Y96904D01*
X325001Y96987D01*
X324778Y97038D01*
X324530Y97054D01*
X324260Y97036D01*
X324027Y96983D01*
X323828Y96893D01*
X323665Y96767D01*
X323537Y96611D01*
X323446Y96429D01*
X323392Y96220D01*
X323374Y95986D01*
X323396Y95750D01*
X323463Y95541D01*
X323574Y95359D01*
X323730Y95204D01*
X323927Y95080D01*
X324160Y94992D01*
X324430Y94939D01*
X324735Y94922D01*
X325165Y94922D01*
X325165Y94238D01*
X324718Y94238D01*
X324374Y94221D01*
X324073Y94168D01*
X323814Y94079D01*
X323599Y93956D01*
X323429Y93801D01*
X323308Y93618D01*
X323236Y93408D01*
X323211Y93170D01*
X323233Y92899D01*
X323296Y92663D01*
X323402Y92463D01*
X323551Y92298D01*
X323737Y92170D01*
X323954Y92078D01*
X324204Y92023D01*
X324486Y92005D01*
X324766Y92022D01*
X325015Y92073D01*
X325231Y92159D01*
X325415Y92279D01*
X325567Y92433D01*
X325687Y92621D01*
X325775Y92843D01*
X325830Y93100D01*
X326645Y93025D01*
X326611Y92825D01*
X326564Y92637D01*
X326502Y92461D01*
X326426Y92299D01*
X326336Y92149D01*
X326232Y92012D01*
X326114Y91887D01*
X325981Y91775D01*
X325836Y91676D01*
X325679Y91590D01*
X325509Y91517D01*
X325328Y91458D01*
X325135Y91412D01*
X324931Y91379D01*
X324714Y91359D01*
X324486Y91352D01*
G37*
G36*
X336103Y91440D02*
X335271Y91440D01*
X335271Y96927D01*
X333151Y96927D01*
X333151Y97610D01*
X338222Y97610D01*
X338222Y96927D01*
X336103Y96927D01*
X336103Y91440D01*
G37*
G36*
X321172Y51947D02*
X320858Y51956D01*
X320553Y51984D01*
X320258Y52029D01*
X319973Y52093D01*
X319698Y52175D01*
X319432Y52275D01*
X319176Y52393D01*
X318930Y52530D01*
X318695Y52684D01*
X318474Y52855D01*
X318266Y53042D01*
X318072Y53246D01*
X317891Y53467D01*
X317724Y53704D01*
X317570Y53958D01*
X317430Y54229D01*
X318387Y54708D01*
X318629Y54286D01*
X318900Y53921D01*
X319199Y53612D01*
X319526Y53360D01*
X319882Y53163D01*
X320070Y53086D01*
X320265Y53023D01*
X320467Y52974D01*
X320677Y52938D01*
X320893Y52917D01*
X321117Y52910D01*
X321462Y52925D01*
X321788Y52971D01*
X322097Y53046D01*
X322387Y53152D01*
X322659Y53288D01*
X322912Y53454D01*
X323148Y53650D01*
X323365Y53876D01*
X323559Y54128D01*
X323728Y54398D01*
X323871Y54689D01*
X323988Y54998D01*
X324079Y55327D01*
X324144Y55676D01*
X324183Y56044D01*
X324196Y56431D01*
X324183Y56822D01*
X324146Y57192D01*
X324084Y57540D01*
X323996Y57867D01*
X323884Y58173D01*
X323747Y58457D01*
X323585Y58720D01*
X323398Y58962D01*
X323189Y59178D01*
X322960Y59365D01*
X322711Y59524D01*
X322441Y59654D01*
X322152Y59755D01*
X321843Y59827D01*
X321514Y59870D01*
X321166Y59885D01*
X320941Y59879D01*
X320724Y59860D01*
X320515Y59829D01*
X320314Y59785D01*
X319934Y59660D01*
X319586Y59486D01*
X319276Y59264D01*
X319012Y58998D01*
X318793Y58688D01*
X318620Y58333D01*
X317510Y58701D01*
X317626Y58958D01*
X317758Y59199D01*
X317905Y59423D01*
X318068Y59632D01*
X318246Y59824D01*
X318439Y59999D01*
X318648Y60159D01*
X318871Y60302D01*
X319110Y60428D01*
X319363Y60538D01*
X319630Y60631D01*
X319911Y60707D01*
X320207Y60766D01*
X320516Y60808D01*
X320840Y60833D01*
X321178Y60842D01*
X321658Y60823D01*
X322112Y60768D01*
X322538Y60677D01*
X322938Y60549D01*
X323311Y60384D01*
X323658Y60183D01*
X323977Y59945D01*
X324269Y59670D01*
X324531Y59363D01*
X324758Y59028D01*
X324950Y58665D01*
X325107Y58275D01*
X325229Y57856D01*
X325316Y57409D01*
X325368Y56934D01*
X325386Y56431D01*
X325378Y56092D01*
X325355Y55764D01*
X325316Y55448D01*
X325261Y55144D01*
X325191Y54851D01*
X325105Y54570D01*
X325003Y54300D01*
X324886Y54042D01*
X324754Y53797D01*
X324608Y53567D01*
X324447Y53351D01*
X324272Y53150D01*
X324084Y52963D01*
X323881Y52791D01*
X323663Y52633D01*
X323432Y52490D01*
X323188Y52363D01*
X322933Y52253D01*
X322667Y52159D01*
X322390Y52083D01*
X322102Y52024D01*
X321803Y51981D01*
X321493Y51956D01*
X321172Y51947D01*
G37*
G36*
X330234Y51947D02*
X329920Y51956D01*
X329616Y51984D01*
X329321Y52029D01*
X329036Y52093D01*
X328760Y52175D01*
X328495Y52275D01*
X328239Y52393D01*
X327992Y52530D01*
X327757Y52684D01*
X327536Y52855D01*
X327328Y53042D01*
X327134Y53246D01*
X326954Y53467D01*
X326786Y53704D01*
X326633Y53958D01*
X326492Y54229D01*
X327449Y54708D01*
X327692Y54286D01*
X327963Y53921D01*
X328262Y53612D01*
X328589Y53360D01*
X328944Y53163D01*
X329132Y53086D01*
X329328Y53023D01*
X329530Y52974D01*
X329739Y52938D01*
X329956Y52917D01*
X330179Y52910D01*
X330524Y52925D01*
X330851Y52971D01*
X331159Y53046D01*
X331450Y53152D01*
X331721Y53288D01*
X331975Y53454D01*
X332210Y53650D01*
X332427Y53876D01*
X332622Y54128D01*
X332791Y54398D01*
X332934Y54689D01*
X333051Y54998D01*
X333141Y55327D01*
X333206Y55676D01*
X333245Y56044D01*
X333258Y56431D01*
X333246Y56822D01*
X333208Y57192D01*
X333146Y57540D01*
X333059Y57867D01*
X332947Y58173D01*
X332810Y58457D01*
X332648Y58720D01*
X332461Y58962D01*
X332252Y59178D01*
X332022Y59365D01*
X331773Y59524D01*
X331504Y59654D01*
X331215Y59755D01*
X330906Y59827D01*
X330577Y59870D01*
X330228Y59885D01*
X330003Y59879D01*
X329787Y59860D01*
X329578Y59829D01*
X329376Y59785D01*
X328997Y59660D01*
X328649Y59486D01*
X328339Y59264D01*
X328074Y58998D01*
X327856Y58688D01*
X327682Y58333D01*
X326572Y58701D01*
X326689Y58958D01*
X326821Y59199D01*
X326968Y59423D01*
X327130Y59632D01*
X327308Y59824D01*
X327502Y59999D01*
X327710Y60159D01*
X327934Y60302D01*
X328173Y60428D01*
X328425Y60538D01*
X328692Y60631D01*
X328974Y60707D01*
X329269Y60766D01*
X329579Y60808D01*
X329902Y60833D01*
X330240Y60842D01*
X330721Y60823D01*
X331174Y60768D01*
X331601Y60677D01*
X332001Y60549D01*
X332374Y60384D01*
X332720Y60183D01*
X333039Y59945D01*
X333332Y59670D01*
X333594Y59363D01*
X333820Y59028D01*
X334012Y58665D01*
X334169Y58275D01*
X334291Y57856D01*
X334379Y57409D01*
X334431Y56934D01*
X334448Y56431D01*
X334440Y56092D01*
X334417Y55764D01*
X334378Y55448D01*
X334323Y55144D01*
X334253Y54851D01*
X334167Y54570D01*
X334066Y54300D01*
X333948Y54042D01*
X333816Y53797D01*
X333670Y53567D01*
X333510Y53351D01*
X333335Y53150D01*
X333146Y52963D01*
X332943Y52791D01*
X332726Y52633D01*
X332495Y52490D01*
X332251Y52363D01*
X331996Y52253D01*
X331730Y52159D01*
X331453Y52083D01*
X331165Y52024D01*
X330865Y51981D01*
X330555Y51956D01*
X330234Y51947D01*
G37*
G36*
X339879Y52070D02*
X338664Y52070D01*
X335137Y60713D01*
X336370Y60713D01*
X338750Y54628D01*
X339266Y53101D01*
X339781Y54628D01*
X342173Y60713D01*
X343406Y60713D01*
X339879Y52070D01*
G37*
G36*
X332219Y41780D02*
X331383Y41780D01*
X331383Y44184D01*
X329570Y44184D01*
X329331Y44192D01*
X329105Y44217D01*
X328892Y44257D01*
X328691Y44313D01*
X328504Y44386D01*
X328329Y44475D01*
X328167Y44580D01*
X328018Y44701D01*
X327884Y44836D01*
X327767Y44982D01*
X327669Y45139D01*
X327589Y45308D01*
X327526Y45487D01*
X327482Y45678D01*
X327455Y45880D01*
X327446Y46094D01*
X327455Y46309D01*
X327482Y46511D01*
X327526Y46701D01*
X327588Y46879D01*
X327668Y47044D01*
X327766Y47196D01*
X327882Y47337D01*
X328015Y47464D01*
X328165Y47578D01*
X328329Y47677D01*
X328508Y47761D01*
X328702Y47829D01*
X328910Y47882D01*
X329133Y47920D01*
X329370Y47943D01*
X329623Y47950D01*
X332219Y47950D01*
X332219Y41780D01*
G37*
%LPC*%
G36*
X331383Y44845D02*
X331383Y47280D01*
X329723Y47280D01*
X329387Y47262D01*
X329095Y47206D01*
X328848Y47112D01*
X328646Y46981D01*
X328489Y46813D01*
X328377Y46608D01*
X328309Y46365D01*
X328287Y46085D01*
X328309Y45794D01*
X328374Y45543D01*
X328484Y45330D01*
X328637Y45155D01*
X328834Y45020D01*
X329075Y44923D01*
X329360Y44865D01*
X329688Y44845D01*
X331383Y44845D01*
G37*
%LPD*%
G36*
X323873Y41780D02*
X323128Y41780D01*
X323128Y43177D01*
X322261Y43177D01*
X322261Y43799D01*
X323128Y43799D01*
X323128Y47950D01*
X323956Y47950D01*
X326781Y43790D01*
X326781Y43177D01*
X323873Y43177D01*
X323873Y41780D01*
G37*
%LPC*%
G36*
X326054Y43799D02*
X325984Y43886D01*
X325747Y44210D01*
X324166Y46540D01*
X323995Y46829D01*
X323873Y47061D01*
X323873Y43799D01*
X326054Y43799D01*
G37*
%LPD*%
G36*
X336103Y41780D02*
X335271Y41780D01*
X335271Y47267D01*
X333151Y47267D01*
X333151Y47950D01*
X338222Y47950D01*
X338222Y47267D01*
X336103Y47267D01*
X336103Y41780D01*
G37*
G36*
X324315Y2410D02*
X321082Y2410D01*
X320774Y2418D01*
X320475Y2443D01*
X320185Y2485D01*
X319904Y2543D01*
X319633Y2618D01*
X319370Y2710D01*
X319117Y2819D01*
X318874Y2944D01*
X318641Y3084D01*
X318422Y3240D01*
X318217Y3410D01*
X318026Y3595D01*
X317848Y3794D01*
X317683Y4008D01*
X317532Y4237D01*
X317395Y4480D01*
X317273Y4736D01*
X317167Y5003D01*
X317078Y5279D01*
X317004Y5567D01*
X316947Y5864D01*
X316907Y6173D01*
X316882Y6491D01*
X316874Y6820D01*
X316893Y7313D01*
X316948Y7777D01*
X317042Y8212D01*
X317172Y8618D01*
X317340Y8995D01*
X317545Y9343D01*
X317787Y9662D01*
X318067Y9952D01*
X318381Y10210D01*
X318726Y10434D01*
X319103Y10623D01*
X319511Y10778D01*
X319950Y10898D01*
X320421Y10984D01*
X320923Y11036D01*
X321456Y11053D01*
X324315Y11053D01*
X324315Y2410D01*
G37*
%LPC*%
G36*
X323143Y3349D02*
X323143Y10114D01*
X321481Y10114D01*
X321076Y10101D01*
X320696Y10062D01*
X320340Y9996D01*
X320009Y9903D01*
X319703Y9785D01*
X319421Y9640D01*
X319164Y9469D01*
X318932Y9271D01*
X318726Y9048D01*
X318547Y8801D01*
X318396Y8531D01*
X318272Y8237D01*
X318175Y7918D01*
X318107Y7576D01*
X318065Y7210D01*
X318052Y6820D01*
X318058Y6558D01*
X318076Y6304D01*
X318148Y5824D01*
X318269Y5378D01*
X318438Y4968D01*
X318652Y4598D01*
X318908Y4275D01*
X319206Y3997D01*
X319545Y3766D01*
X319920Y3583D01*
X320324Y3453D01*
X320536Y3407D01*
X320756Y3375D01*
X320983Y3355D01*
X321217Y3349D01*
X323143Y3349D01*
G37*
%LPD*%
G36*
X327771Y2410D02*
X326360Y2410D01*
X326360Y11053D01*
X327415Y11053D01*
X327415Y5385D01*
X327396Y4680D01*
X327341Y3643D01*
X332015Y11053D01*
X333377Y11053D01*
X333377Y2410D01*
X332334Y2410D01*
X332334Y8151D01*
X332365Y9176D01*
X332396Y9771D01*
X327771Y2410D01*
G37*
G36*
X339171Y2287D02*
X338598Y2311D01*
X338047Y2383D01*
X337517Y2503D01*
X337008Y2671D01*
X336529Y2882D01*
X336089Y3133D01*
X335687Y3423D01*
X335325Y3753D01*
X335325Y6734D01*
X338987Y6734D01*
X338987Y5753D01*
X336404Y5753D01*
X336404Y4195D01*
X336649Y3986D01*
X336928Y3799D01*
X337242Y3636D01*
X337591Y3496D01*
X337965Y3383D01*
X338352Y3303D01*
X338754Y3254D01*
X339171Y3238D01*
X339532Y3253D01*
X339873Y3297D01*
X340193Y3371D01*
X340494Y3475D01*
X340775Y3608D01*
X341035Y3771D01*
X341275Y3964D01*
X341495Y4186D01*
X341692Y4434D01*
X341863Y4703D01*
X342007Y4994D01*
X342126Y5306D01*
X342218Y5640D01*
X342283Y5996D01*
X342323Y6373D01*
X342336Y6771D01*
X342323Y7171D01*
X342286Y7547D01*
X342224Y7900D01*
X342138Y8230D01*
X342027Y8537D01*
X341891Y8821D01*
X341730Y9082D01*
X341544Y9320D01*
X341336Y9532D01*
X341105Y9716D01*
X340852Y9871D01*
X340577Y9999D01*
X340280Y10098D01*
X339961Y10168D01*
X339620Y10211D01*
X339256Y10225D01*
X338795Y10204D01*
X338372Y10140D01*
X337990Y10035D01*
X337646Y9887D01*
X337340Y9694D01*
X337069Y9450D01*
X336833Y9157D01*
X336631Y8814D01*
X335515Y9145D01*
X335642Y9403D01*
X335783Y9642D01*
X335936Y9864D01*
X336102Y10067D01*
X336281Y10252D01*
X336473Y10418D01*
X336677Y10567D01*
X336895Y10697D01*
X337127Y10811D01*
X337376Y10909D01*
X337642Y10992D01*
X337925Y11061D01*
X338225Y11114D01*
X338542Y11151D01*
X338875Y11174D01*
X339226Y11182D01*
X339722Y11164D01*
X340190Y11110D01*
X340629Y11019D01*
X341040Y10893D01*
X341422Y10731D01*
X341776Y10533D01*
X342101Y10299D01*
X342397Y10028D01*
X342662Y9725D01*
X342891Y9392D01*
X343085Y9030D01*
X343244Y8638D01*
X343367Y8216D01*
X343455Y7764D01*
X343508Y7282D01*
X343526Y6771D01*
X343518Y6433D01*
X343493Y6107D01*
X343453Y5791D01*
X343396Y5487D01*
X343323Y5194D01*
X343234Y4912D01*
X343129Y4641D01*
X343007Y4382D01*
X342871Y4136D01*
X342719Y3904D01*
X342554Y3688D01*
X342373Y3486D01*
X342179Y3299D01*
X341969Y3127D01*
X341746Y2969D01*
X341508Y2827D01*
X341256Y2701D01*
X340994Y2591D01*
X340719Y2498D01*
X340433Y2422D01*
X340135Y2363D01*
X339825Y2321D01*
X339504Y2296D01*
X339171Y2287D01*
G37*
G36*
X370319Y91440D02*
X369483Y91440D01*
X369483Y93844D01*
X367670Y93844D01*
X367431Y93852D01*
X367205Y93877D01*
X366992Y93917D01*
X366791Y93973D01*
X366604Y94046D01*
X366429Y94135D01*
X366267Y94240D01*
X366118Y94361D01*
X365984Y94496D01*
X365867Y94642D01*
X365769Y94799D01*
X365689Y94968D01*
X365626Y95147D01*
X365582Y95338D01*
X365555Y95540D01*
X365546Y95754D01*
X365555Y95969D01*
X365582Y96171D01*
X365626Y96361D01*
X365688Y96539D01*
X365768Y96704D01*
X365866Y96856D01*
X365982Y96997D01*
X366115Y97124D01*
X366265Y97238D01*
X366429Y97337D01*
X366608Y97421D01*
X366802Y97489D01*
X367010Y97542D01*
X367233Y97580D01*
X367470Y97603D01*
X367723Y97610D01*
X370319Y97610D01*
X370319Y91440D01*
G37*
%LPC*%
G36*
X369483Y94505D02*
X369483Y96940D01*
X367823Y96940D01*
X367487Y96922D01*
X367195Y96866D01*
X366948Y96772D01*
X366746Y96641D01*
X366589Y96473D01*
X366477Y96268D01*
X366409Y96025D01*
X366387Y95745D01*
X366409Y95454D01*
X366474Y95203D01*
X366584Y94990D01*
X366737Y94815D01*
X366934Y94680D01*
X367175Y94583D01*
X367460Y94525D01*
X367788Y94505D01*
X369483Y94505D01*
G37*
%LPD*%
G36*
X362665Y91352D02*
X362414Y91361D01*
X362178Y91387D01*
X361956Y91431D01*
X361748Y91493D01*
X361554Y91571D01*
X361373Y91668D01*
X361207Y91782D01*
X361055Y91913D01*
X360919Y92060D01*
X360801Y92219D01*
X360702Y92392D01*
X360620Y92578D01*
X360557Y92776D01*
X360511Y92988D01*
X360484Y93212D01*
X360475Y93450D01*
X360483Y93660D01*
X360509Y93859D01*
X360551Y94048D01*
X360610Y94227D01*
X360686Y94396D01*
X360779Y94555D01*
X360889Y94704D01*
X361016Y94843D01*
X361157Y94968D01*
X361309Y95076D01*
X361474Y95168D01*
X361649Y95243D01*
X361836Y95302D01*
X362035Y95344D01*
X362246Y95369D01*
X362468Y95377D01*
X362654Y95371D01*
X362833Y95352D01*
X363167Y95278D01*
X363470Y95155D01*
X363742Y94983D01*
X363624Y96940D01*
X360834Y96940D01*
X360834Y97610D01*
X364342Y97610D01*
X364548Y94291D01*
X363777Y94291D01*
X363501Y94497D01*
X363363Y94573D01*
X363225Y94632D01*
X362938Y94708D01*
X362787Y94727D01*
X362630Y94733D01*
X362339Y94711D01*
X362079Y94643D01*
X361852Y94531D01*
X361655Y94374D01*
X361497Y94181D01*
X361384Y93959D01*
X361317Y93710D01*
X361294Y93433D01*
X361316Y93115D01*
X361384Y92834D01*
X361496Y92589D01*
X361653Y92379D01*
X361850Y92212D01*
X362081Y92092D01*
X362347Y92020D01*
X362493Y92002D01*
X362647Y91996D01*
X362893Y92010D01*
X363115Y92053D01*
X363312Y92125D01*
X363485Y92225D01*
X363633Y92354D01*
X363756Y92511D01*
X363856Y92697D01*
X363930Y92911D01*
X364727Y92819D01*
X364686Y92646D01*
X364633Y92484D01*
X364490Y92190D01*
X364298Y91938D01*
X364057Y91729D01*
X363772Y91564D01*
X363444Y91447D01*
X363075Y91376D01*
X362665Y91352D01*
G37*
G36*
X374203Y91440D02*
X373371Y91440D01*
X373371Y96927D01*
X371251Y96927D01*
X371251Y97610D01*
X376322Y97610D01*
X376322Y96927D01*
X374203Y96927D01*
X374203Y91440D01*
G37*
G36*
X382620Y52070D02*
X381448Y52070D01*
X381448Y55438D01*
X378909Y55438D01*
X378574Y55449D01*
X378257Y55483D01*
X377959Y55539D01*
X377678Y55619D01*
X377415Y55720D01*
X377170Y55845D01*
X376943Y55992D01*
X376734Y56161D01*
X376546Y56350D01*
X376384Y56555D01*
X376246Y56775D01*
X376134Y57011D01*
X376046Y57263D01*
X375984Y57530D01*
X375946Y57813D01*
X375934Y58112D01*
X375946Y58413D01*
X375983Y58697D01*
X376046Y58963D01*
X376133Y59212D01*
X376245Y59443D01*
X376382Y59657D01*
X376544Y59853D01*
X376731Y60032D01*
X376941Y60192D01*
X377171Y60330D01*
X377421Y60447D01*
X377692Y60543D01*
X377984Y60617D01*
X378296Y60670D01*
X378629Y60702D01*
X378982Y60713D01*
X382620Y60713D01*
X382620Y52070D01*
G37*
%LPC*%
G36*
X381448Y56364D02*
X381448Y59774D01*
X379123Y59774D01*
X378880Y59768D01*
X378652Y59748D01*
X378439Y59715D01*
X378243Y59670D01*
X378062Y59611D01*
X377897Y59539D01*
X377748Y59454D01*
X377614Y59356D01*
X377496Y59244D01*
X377394Y59120D01*
X377308Y58983D01*
X377237Y58832D01*
X377182Y58669D01*
X377143Y58492D01*
X377119Y58303D01*
X377111Y58100D01*
X377119Y57890D01*
X377142Y57693D01*
X377180Y57510D01*
X377234Y57340D01*
X377303Y57184D01*
X377387Y57042D01*
X377487Y56913D01*
X377602Y56798D01*
X377732Y56696D01*
X377878Y56608D01*
X378039Y56533D01*
X378215Y56472D01*
X378407Y56425D01*
X378614Y56391D01*
X378836Y56371D01*
X379074Y56364D01*
X381448Y56364D01*
G37*
%LPD*%
G36*
X367405Y52070D02*
X366007Y52070D01*
X363461Y60713D01*
X364682Y60713D01*
X365922Y56250D01*
X366405Y54465D01*
X366675Y53315D01*
X366730Y53101D01*
X366964Y54116D01*
X367270Y55333D01*
X368773Y60713D01*
X369896Y60713D01*
X371076Y56506D01*
X371598Y54573D01*
X371938Y53101D01*
X372182Y54177D01*
X372447Y55223D01*
X373999Y60713D01*
X375220Y60713D01*
X372674Y52070D01*
X371276Y52070D01*
X370075Y56440D01*
X369601Y58216D01*
X369331Y59406D01*
X369083Y58279D01*
X368902Y57560D01*
X367405Y52070D01*
G37*
G36*
X355052Y52070D02*
X353997Y52070D01*
X353997Y60713D01*
X355500Y60713D01*
X357757Y54720D01*
X357969Y54091D01*
X358099Y53655D01*
X358175Y53346D01*
X358325Y53944D01*
X358561Y54720D01*
X360861Y60713D01*
X362401Y60713D01*
X362401Y52070D01*
X361358Y52070D01*
X361358Y57836D01*
X361383Y58995D01*
X361401Y59676D01*
X361199Y59001D01*
X360855Y57959D01*
X358592Y52070D01*
X357770Y52070D01*
X355537Y57959D01*
X355282Y58698D01*
X354997Y59676D01*
X355038Y58774D01*
X355052Y57836D01*
X355052Y52070D01*
G37*
M02*
