G04 EAGLE Gerber RS-274X export*
G75*
%MOMM*%
%FSLAX34Y34*%
%LPD*%
%INTop Copper*%
%IPPOS*%
%AMOC8*
5,1,8,0,0,1.08239X$1,22.5*%
G01*
G04 Define Apertures*
%ADD10C,2.500000*%
%ADD11R,4.115994X4.115994*%
%ADD12R,1.200000X0.800000*%
%ADD13R,2.150000X1.300000*%
%ADD14R,0.644000X0.535100*%
%ADD15R,2.032000X1.524000*%
%ADD16C,0.254000*%
%ADD17C,0.756400*%
D10*
X41910Y806450D03*
X99930Y806450D03*
D11*
X139700Y711200D03*
X109700Y664200D03*
X79700Y711200D03*
D12*
X43860Y939800D03*
X43860Y927300D03*
X43860Y914800D03*
X43860Y902300D03*
X43860Y889800D03*
X43860Y877300D03*
D13*
X20910Y958800D03*
X20910Y858300D03*
D12*
X1664290Y868680D03*
X1664290Y881180D03*
X1664290Y893680D03*
X1664290Y906180D03*
X1664290Y918680D03*
X1664290Y931180D03*
D13*
X1687240Y849680D03*
X1687240Y950180D03*
D12*
X1664290Y679450D03*
X1664290Y691950D03*
X1664290Y704450D03*
X1664290Y716950D03*
X1664290Y729450D03*
X1664290Y741950D03*
D13*
X1687240Y660450D03*
X1687240Y760950D03*
D14*
X139700Y862325D03*
X139700Y852175D03*
X122010Y862325D03*
X122010Y852175D03*
X104320Y862325D03*
X104320Y852175D03*
X86630Y852175D03*
X86630Y862325D03*
X68940Y852175D03*
X68940Y862325D03*
D15*
X196850Y946150D03*
X196850Y920750D03*
X196850Y692150D03*
X196850Y666750D03*
X440690Y666750D03*
X440690Y692150D03*
X440690Y869950D03*
X440690Y920750D03*
X440690Y946150D03*
X196850Y895350D03*
X196850Y869950D03*
X196850Y844550D03*
X196850Y717550D03*
X196850Y742950D03*
X440690Y717550D03*
X440690Y742950D03*
X440690Y844550D03*
X440690Y895350D03*
X476250Y946150D03*
X476250Y920750D03*
X476250Y692150D03*
X476250Y666750D03*
X720090Y666750D03*
X720090Y692150D03*
X720090Y869950D03*
X720090Y920750D03*
X720090Y946150D03*
X476250Y895350D03*
X476250Y869950D03*
X476250Y844550D03*
X476250Y717550D03*
X476250Y742950D03*
X720090Y717550D03*
X720090Y742950D03*
X720090Y844550D03*
X720090Y895350D03*
X755650Y946150D03*
X755650Y920750D03*
X755650Y692150D03*
X755650Y666750D03*
X999490Y666750D03*
X999490Y692150D03*
X999490Y869950D03*
X999490Y920750D03*
X999490Y946150D03*
X755650Y895350D03*
X755650Y869950D03*
X755650Y844550D03*
X755650Y717550D03*
X755650Y742950D03*
X999490Y717550D03*
X999490Y742950D03*
X999490Y844550D03*
X999490Y895350D03*
X1035050Y946150D03*
X1035050Y920750D03*
X1035050Y692150D03*
X1035050Y666750D03*
X1278890Y666750D03*
X1278890Y692150D03*
X1278890Y869950D03*
X1278890Y920750D03*
X1278890Y946150D03*
X1035050Y895350D03*
X1035050Y869950D03*
X1035050Y844550D03*
X1035050Y717550D03*
X1035050Y742950D03*
X1278890Y717550D03*
X1278890Y742950D03*
X1278890Y844550D03*
X1278890Y895350D03*
X1314120Y945953D03*
X1314120Y920553D03*
X1314120Y691953D03*
X1314120Y666553D03*
X1557960Y666553D03*
X1557960Y691953D03*
X1557960Y869753D03*
X1557960Y920553D03*
X1557960Y945953D03*
X1314120Y895153D03*
X1314120Y869753D03*
X1314120Y844353D03*
X1314120Y717353D03*
X1314120Y742753D03*
X1557960Y717353D03*
X1557960Y742753D03*
X1557960Y844353D03*
X1557960Y895153D03*
D16*
X114300Y939800D02*
X43860Y939800D01*
X139700Y914400D02*
X139700Y862325D01*
X139700Y914400D02*
X114300Y939800D01*
X139700Y914400D02*
X146050Y914400D01*
D17*
X146050Y914400D03*
X412750Y882650D03*
D16*
X425450Y869950D01*
X440690Y869950D01*
X122010Y913040D02*
X107750Y927300D01*
X43860Y927300D01*
X122010Y913040D02*
X122010Y862325D01*
X127000Y908050D02*
X122010Y913040D01*
D17*
X127000Y908050D03*
X685800Y876300D03*
D16*
X692150Y869950D01*
X720090Y869950D01*
X104320Y862325D02*
X104320Y911680D01*
X101200Y914800D01*
X43860Y914800D01*
X104320Y911680D02*
X107950Y908050D01*
D17*
X107950Y908050D03*
X971550Y869950D03*
D16*
X999490Y869950D01*
X81950Y902300D02*
X43860Y902300D01*
X86630Y897620D02*
X86630Y895350D01*
X86630Y862325D01*
X86630Y897620D02*
X81950Y902300D01*
X86630Y895350D02*
X76200Y895350D01*
D17*
X76200Y895350D03*
X1250950Y869950D03*
D16*
X1278890Y869950D01*
X68940Y862325D02*
X68940Y882650D01*
X68940Y883560D01*
X62700Y889800D01*
X43860Y889800D01*
X62590Y876300D02*
X68940Y882650D01*
D17*
X61262Y876300D03*
D16*
X62590Y876300D01*
D17*
X1530350Y869950D03*
D16*
X1557763Y869950D01*
X1557960Y869753D01*
X79700Y711200D02*
X41910Y748990D01*
X41910Y806450D01*
D17*
X152400Y825500D03*
D16*
X164510Y837610D01*
X44450Y876710D02*
X43860Y877300D01*
X44450Y876710D02*
X44450Y863600D01*
X55875Y852175D02*
X68940Y852175D01*
X55875Y852175D02*
X44450Y863600D01*
X68940Y852175D02*
X86630Y852175D01*
X104320Y852175D01*
X122010Y852175D01*
X139700Y852175D01*
X152400Y839475D01*
X152400Y825500D01*
X196850Y920750D02*
X196850Y946150D01*
X196850Y920750D02*
X187960Y911860D01*
X183008Y911860D01*
X164510Y893362D01*
X164510Y837610D01*
X196850Y946150D02*
X196850Y958850D01*
X203200Y965200D01*
X476250Y958850D02*
X476250Y946150D01*
X476250Y958850D02*
X469900Y965200D01*
X203200Y965200D01*
X755650Y958850D02*
X755650Y946150D01*
X755650Y958850D02*
X749300Y965200D01*
X482600Y965200D01*
X476250Y958850D01*
X1035050Y958850D02*
X1035050Y946150D01*
X1035050Y958850D02*
X1028700Y965200D01*
X762000Y965200D01*
X755650Y958850D01*
X1314120Y958520D02*
X1314120Y945953D01*
X1314120Y958520D02*
X1314450Y958850D01*
X1308100Y965200D01*
X1041400Y965200D01*
X1035050Y958850D01*
X1314120Y945953D02*
X1314120Y920553D01*
X1035050Y920750D02*
X1035050Y946150D01*
X755650Y946150D02*
X755650Y920750D01*
X476250Y920750D02*
X476250Y946150D01*
X1314450Y958850D02*
X1320800Y965200D01*
X1630270Y965200D01*
X1664290Y931180D01*
X1664290Y679450D02*
X1676400Y679450D01*
X1682750Y685800D01*
D17*
X1682750Y685800D03*
X1682750Y920750D03*
D16*
X1672320Y931180D02*
X1664290Y931180D01*
X1672320Y931180D02*
X1682750Y920750D01*
X139700Y711200D02*
X99930Y750970D01*
X99930Y806450D01*
D17*
X177800Y800100D03*
D16*
X196850Y819150D02*
X323850Y819150D01*
X196850Y819150D02*
X177800Y800100D01*
X440690Y920750D02*
X440690Y946150D01*
X323850Y819150D02*
X603250Y819150D01*
X704850Y920750D01*
X720090Y920750D01*
X440690Y920750D02*
X425450Y920750D01*
X323850Y819150D01*
X720090Y920750D02*
X720090Y946150D01*
X999490Y946150D02*
X999490Y920750D01*
X984250Y920750D01*
X882650Y819150D02*
X603250Y819150D01*
X882650Y819150D02*
X984250Y920750D01*
X882650Y819150D02*
X1162050Y819150D01*
X1263650Y920750D02*
X1278890Y920750D01*
X1278890Y946150D01*
X1263650Y920750D02*
X1162050Y819150D01*
X1441450Y819150D01*
X1557960Y920553D02*
X1557960Y945953D01*
X1557960Y920553D02*
X1542853Y920553D01*
X1441450Y819150D01*
X440690Y692150D02*
X440690Y666750D01*
X440690Y692150D02*
X425450Y692150D01*
X412750Y704850D01*
X412750Y755650D01*
X425450Y768350D01*
X1644650Y768350D01*
X1656080Y868680D02*
X1664290Y868680D01*
X1656080Y868680D02*
X1651000Y863600D01*
X1651000Y774700D01*
X1644650Y768350D01*
X720090Y692150D02*
X720090Y666750D01*
X1649530Y881180D02*
X1664290Y881180D01*
X1649530Y881180D02*
X1638300Y869950D01*
X1638300Y787400D01*
X1631950Y781050D01*
X692150Y781050D01*
X704850Y692150D02*
X720090Y692150D01*
X704850Y692150D02*
X692150Y704850D01*
X692150Y755650D01*
D17*
X692150Y755650D03*
X692150Y781050D03*
D16*
X999490Y692150D02*
X999490Y666750D01*
X1642980Y893680D02*
X1664290Y893680D01*
X1642980Y893680D02*
X1625600Y876300D01*
X1625600Y800100D01*
X1619250Y793750D01*
X999490Y692150D02*
X984250Y692150D01*
X971550Y704850D01*
X971550Y755650D01*
D17*
X971550Y755650D03*
X971550Y793750D03*
D16*
X1619250Y793750D01*
X1278890Y692150D02*
X1278890Y666750D01*
X1636430Y906180D02*
X1664290Y906180D01*
X1636430Y906180D02*
X1612900Y882650D01*
X1612900Y812800D01*
X1606550Y806450D01*
X1250950Y806450D01*
X1263650Y692150D02*
X1278890Y692150D01*
X1263650Y692150D02*
X1250950Y704850D01*
X1250950Y755650D01*
D17*
X1250950Y755650D03*
X1250950Y806450D03*
D16*
X1557960Y691953D02*
X1557960Y666553D01*
X1557960Y691953D02*
X1557763Y692150D01*
X1543050Y692150D01*
X1530350Y704850D01*
X1530350Y755650D01*
D17*
X1530350Y755650D03*
X1530350Y819150D03*
D16*
X1629880Y918680D02*
X1664290Y918680D01*
X1629880Y918680D02*
X1600200Y889000D01*
X1600200Y825500D01*
X1593850Y819150D01*
X1530350Y819150D01*
X196850Y692150D02*
X196850Y666750D01*
X196850Y692150D02*
X228600Y692150D01*
D17*
X228600Y692150D03*
X1638300Y742950D03*
D16*
X1639300Y741950D02*
X1664290Y741950D01*
X1639300Y741950D02*
X1638300Y742950D01*
X476250Y692150D02*
X476250Y666750D01*
X476250Y692150D02*
X508000Y692150D01*
D17*
X508000Y692150D03*
X1625600Y730250D03*
D16*
X1626400Y729450D02*
X1664290Y729450D01*
X1626400Y729450D02*
X1625600Y730250D01*
X755650Y692150D02*
X755650Y666750D01*
X755650Y692150D02*
X787400Y692150D01*
D17*
X787400Y692150D03*
X1612900Y717550D03*
D16*
X1613500Y716950D02*
X1664290Y716950D01*
X1613500Y716950D02*
X1612900Y717550D01*
X1035050Y692150D02*
X1035050Y666750D01*
X1035050Y692150D02*
X1066800Y692150D01*
D17*
X1066800Y692150D03*
X1600200Y704850D03*
D16*
X1600600Y704450D02*
X1664290Y704450D01*
X1600600Y704450D02*
X1600200Y704850D01*
X1314120Y691953D02*
X1314120Y666553D01*
X1314120Y691953D02*
X1346003Y691953D01*
X1346200Y692150D01*
D17*
X1346200Y692150D03*
X1587500Y692150D03*
D16*
X1587700Y691950D02*
X1664290Y691950D01*
X1587700Y691950D02*
X1587500Y692150D01*
M02*
