G04 EAGLE Gerber RS-274X export*
G75*
%MOMM*%
%FSLAX34Y34*%
%LPD*%
%INBottom Copper*%
%IPPOS*%
%AMOC8*
5,1,8,0,0,1.08239X$1,22.5*%
G01*
G04 Define Apertures*
%ADD10R,1.308000X1.308000*%
%ADD11C,1.308000*%
%ADD12R,4.115994X4.115994*%
%ADD13C,0.254000*%
%ADD14C,0.756400*%
D10*
X215900Y952500D03*
D11*
X215900Y927100D03*
X215900Y698500D03*
X215900Y673100D03*
X368300Y673100D03*
X368300Y698500D03*
X368300Y901700D03*
X368300Y927100D03*
X368300Y952500D03*
D10*
X444500Y952500D03*
D11*
X444500Y927100D03*
X444500Y698500D03*
X444500Y673100D03*
X596900Y673100D03*
X596900Y698500D03*
X596900Y901700D03*
X596900Y927100D03*
X596900Y952500D03*
D10*
X673100Y952500D03*
D11*
X673100Y927100D03*
X673100Y698500D03*
X673100Y673100D03*
X825500Y673100D03*
X825500Y698500D03*
X825500Y901700D03*
X825500Y927100D03*
X825500Y952500D03*
D10*
X901700Y952500D03*
D11*
X901700Y927100D03*
X901700Y698500D03*
X901700Y673100D03*
X1054100Y673100D03*
X1054100Y698500D03*
X1054100Y901700D03*
X1054100Y927100D03*
X1054100Y952500D03*
D10*
X1130300Y952500D03*
D11*
X1130300Y927100D03*
X1130300Y698500D03*
X1130300Y673100D03*
X1282700Y673100D03*
X1282700Y698500D03*
X1282700Y901700D03*
X1282700Y927100D03*
X1282700Y952500D03*
D12*
X139700Y711200D03*
X109700Y664200D03*
X79700Y711200D03*
D13*
X215900Y927100D02*
X215900Y952500D01*
X215900Y927100D02*
X213360Y927100D01*
X79700Y793440D01*
D14*
X1320800Y927100D03*
X1409700Y660400D03*
D13*
X1320800Y749300D01*
X1320800Y927100D01*
X79700Y793440D02*
X79700Y711200D01*
X368300Y927100D02*
X368300Y952500D01*
X368300Y927100D02*
X152400Y711200D01*
X139700Y711200D01*
D14*
X342900Y711200D03*
D13*
X342900Y787400D01*
D14*
X342900Y787400D03*
X571500Y711200D03*
D13*
X571500Y800100D01*
D14*
X571500Y800100D03*
X800100Y711200D03*
D13*
X800100Y812800D01*
D14*
X800100Y812800D03*
X1028700Y711200D03*
D13*
X1028700Y825500D01*
D14*
X1028700Y825500D03*
X1257300Y711200D03*
D13*
X1257300Y838200D01*
D14*
X1257300Y838200D03*
M02*
