G04 EAGLE Gerber RS-274X export*
G75*
%MOMM*%
%FSLAX34Y34*%
%LPD*%
%INTop Copper*%
%IPPOS*%
%AMOC8*
5,1,8,0,0,1.08239X$1,22.5*%
G01*
G04 Define Apertures*
%ADD10R,1.308000X1.308000*%
%ADD11C,1.308000*%
%ADD12C,2.500000*%
%ADD13R,4.115994X4.115994*%
%ADD14R,1.200000X0.800000*%
%ADD15R,2.150000X1.300000*%
%ADD16C,0.254000*%
%ADD17C,0.756400*%
D10*
X215900Y952500D03*
D11*
X215900Y927100D03*
X215900Y698500D03*
X215900Y673100D03*
X368300Y673100D03*
X368300Y698500D03*
X368300Y901700D03*
X368300Y927100D03*
X368300Y952500D03*
D10*
X444500Y952500D03*
D11*
X444500Y927100D03*
X444500Y698500D03*
X444500Y673100D03*
X596900Y673100D03*
X596900Y698500D03*
X596900Y901700D03*
X596900Y927100D03*
X596900Y952500D03*
D10*
X673100Y952500D03*
D11*
X673100Y927100D03*
X673100Y698500D03*
X673100Y673100D03*
X825500Y673100D03*
X825500Y698500D03*
X825500Y901700D03*
X825500Y927100D03*
X825500Y952500D03*
D10*
X901700Y952500D03*
D11*
X901700Y927100D03*
X901700Y698500D03*
X901700Y673100D03*
X1054100Y673100D03*
X1054100Y698500D03*
X1054100Y901700D03*
X1054100Y927100D03*
X1054100Y952500D03*
D10*
X1130300Y952500D03*
D11*
X1130300Y927100D03*
X1130300Y698500D03*
X1130300Y673100D03*
X1282700Y673100D03*
X1282700Y698500D03*
X1282700Y901700D03*
X1282700Y927100D03*
X1282700Y952500D03*
D12*
X88900Y812800D03*
X165100Y812800D03*
D13*
X139700Y711200D03*
X109700Y664200D03*
X79700Y711200D03*
D14*
X43860Y939800D03*
X43860Y927300D03*
X43860Y914800D03*
X43860Y902300D03*
X43860Y889800D03*
X43860Y877300D03*
D15*
X20910Y958800D03*
X20910Y858300D03*
D14*
X1416640Y868680D03*
X1416640Y881180D03*
X1416640Y893680D03*
X1416640Y906180D03*
X1416640Y918680D03*
X1416640Y931180D03*
D15*
X1439590Y849680D03*
X1439590Y950180D03*
D14*
X1416640Y675640D03*
X1416640Y688140D03*
X1416640Y700640D03*
X1416640Y713140D03*
X1416640Y725640D03*
X1416640Y738140D03*
D15*
X1439590Y656640D03*
X1439590Y757140D03*
D16*
X355600Y889000D02*
X137161Y889000D01*
X355600Y889000D02*
X368300Y901700D01*
X137161Y889000D02*
X86361Y939800D01*
X43860Y939800D01*
X579120Y873760D02*
X596900Y891540D01*
X579120Y873760D02*
X137160Y873760D01*
X596900Y891540D02*
X596900Y901700D01*
X137160Y873760D02*
X83620Y927300D01*
X43860Y927300D01*
X127000Y863600D02*
X787400Y863600D01*
X825500Y901700D01*
X127000Y863600D02*
X75800Y914800D01*
X43860Y914800D01*
X67980Y902300D02*
X119380Y850900D01*
X1026160Y850900D01*
X1054100Y878840D01*
X1054100Y901700D01*
X67980Y902300D02*
X43860Y902300D01*
X60160Y889800D02*
X109220Y840740D01*
X1221740Y840740D01*
X1282700Y901700D01*
X60160Y889800D02*
X43860Y889800D01*
D17*
X73632Y843280D03*
D16*
X1130300Y927100D02*
X1130300Y952500D01*
X1104900Y977900D01*
X927100Y977900D01*
X901700Y952500D01*
X901700Y927100D01*
X901700Y952500D02*
X886270Y967930D01*
X688530Y967930D01*
X673100Y952500D01*
X673100Y927100D01*
X673100Y952500D02*
X657670Y967930D01*
X459930Y967930D01*
X444500Y952500D01*
X444500Y927100D01*
X444500Y952500D02*
X429070Y967930D01*
X231330Y967930D01*
X215900Y952500D01*
X1130300Y952500D02*
X1145730Y967930D01*
X1292670Y967930D01*
X1329420Y931180D01*
X88900Y812800D02*
X73632Y828068D01*
X73632Y843280D01*
X1329420Y931180D02*
X1416640Y931180D01*
X1329420Y931180D02*
X1325340Y927100D01*
X1320800Y927100D01*
D17*
X1320800Y927100D03*
X1397000Y749300D03*
D16*
X1408160Y738140D01*
X1416640Y738140D01*
X43860Y747040D02*
X43860Y877300D01*
X43860Y747040D02*
X79700Y711200D01*
X73632Y847528D02*
X43860Y877300D01*
X73632Y847528D02*
X73632Y843280D01*
D17*
X205740Y767080D03*
D16*
X571500Y901700D02*
X596900Y927100D01*
X571500Y901700D02*
X406400Y901700D01*
D17*
X406400Y901700D03*
D16*
X596900Y927100D02*
X596900Y952500D01*
X596900Y927100D02*
X622300Y901700D01*
X800100Y901700D01*
X825500Y927100D01*
X825500Y952500D01*
X825500Y927100D02*
X853630Y898970D01*
X1025970Y898970D01*
X1054100Y927100D01*
X1054100Y952500D01*
X1054100Y927100D02*
X1079500Y901700D01*
X1257300Y901700D01*
X1282700Y927100D01*
X1282700Y952500D01*
X165100Y812800D02*
X164700Y761600D01*
X152000Y761600D02*
X139700Y749300D01*
X152000Y761600D02*
X164700Y761600D01*
X200260Y761600D01*
X205740Y767080D01*
X139700Y749300D02*
X139700Y711200D01*
D17*
X1257300Y723900D03*
D16*
X1402080Y868680D02*
X1416640Y868680D01*
X1402080Y868680D02*
X1257300Y723900D01*
D17*
X1259076Y747524D03*
D16*
X1261684Y747524D02*
X1393730Y879570D01*
X1261684Y747524D02*
X1259076Y747524D01*
X1415030Y879570D02*
X1416640Y881180D01*
X1415030Y879570D02*
X1393730Y879570D01*
D17*
X1181100Y736600D03*
D16*
X1230232Y736600D01*
X1383466Y889834D01*
X1387312Y893680D02*
X1416640Y893680D01*
X1387312Y893680D02*
X1383466Y889834D01*
X1376080Y906180D02*
X1257300Y787400D01*
D17*
X1257300Y787400D03*
D16*
X1376080Y906180D02*
X1416640Y906180D01*
X1282700Y856850D02*
X1282700Y838200D01*
D17*
X1282700Y838200D03*
D16*
X1282700Y856850D02*
X1344530Y918680D01*
X1416640Y918680D01*
X1416640Y675640D02*
X1404620Y675640D01*
X1403350Y676910D01*
D17*
X1403350Y676910D03*
D16*
X444500Y673100D02*
X444500Y698500D01*
X444500Y673100D02*
X444500Y635000D01*
X457334Y622166D01*
X1283836Y622166D01*
X1349810Y688140D01*
X1416640Y688140D01*
X673100Y698500D02*
X673100Y673100D01*
X698690Y647510D01*
X1294812Y647510D01*
X1347942Y700640D01*
X1416640Y700640D01*
X901700Y698500D02*
X901700Y673100D01*
X1414700Y711200D02*
X1416640Y713140D01*
X917130Y657670D02*
X901700Y673100D01*
X917130Y657670D02*
X1290603Y657670D01*
X1344133Y711200D01*
X1414700Y711200D01*
X1130300Y698500D02*
X1130300Y673100D01*
X1130300Y698500D02*
X1143000Y711200D01*
X1273579Y711200D01*
X1414900Y723900D02*
X1416640Y725640D01*
X1414900Y723900D02*
X1286279Y723900D01*
X1273579Y711200D01*
M02*
