G04 EAGLE Gerber RS-274X export*
G75*
%MOMM*%
%FSLAX34Y34*%
%LPD*%
%INBottom Copper*%
%IPPOS*%
%AMOC8*
5,1,8,0,0,1.08239X$1,22.5*%
G01*
G04 Define Apertures*
%ADD10R,1.308000X1.308000*%
%ADD11C,1.308000*%
%ADD12R,4.115994X4.115994*%
%ADD13C,0.254000*%
%ADD14C,0.756400*%
D10*
X215900Y952500D03*
D11*
X215900Y927100D03*
X215900Y698500D03*
X215900Y673100D03*
X368300Y673100D03*
X368300Y698500D03*
X368300Y901700D03*
X368300Y927100D03*
X368300Y952500D03*
D10*
X444500Y952500D03*
D11*
X444500Y927100D03*
X444500Y698500D03*
X444500Y673100D03*
X596900Y673100D03*
X596900Y698500D03*
X596900Y901700D03*
X596900Y927100D03*
X596900Y952500D03*
D10*
X673100Y952500D03*
D11*
X673100Y927100D03*
X673100Y698500D03*
X673100Y673100D03*
X825500Y673100D03*
X825500Y698500D03*
X825500Y901700D03*
X825500Y927100D03*
X825500Y952500D03*
D10*
X901700Y952500D03*
D11*
X901700Y927100D03*
X901700Y698500D03*
X901700Y673100D03*
X1054100Y673100D03*
X1054100Y698500D03*
X1054100Y901700D03*
X1054100Y927100D03*
X1054100Y952500D03*
D10*
X1130300Y952500D03*
D11*
X1130300Y927100D03*
X1130300Y698500D03*
X1130300Y673100D03*
X1282700Y673100D03*
X1282700Y698500D03*
X1282700Y901700D03*
X1282700Y927100D03*
X1282700Y952500D03*
D12*
X139700Y711200D03*
X109700Y664200D03*
X79700Y711200D03*
D13*
X215900Y927100D02*
X215900Y952500D01*
D14*
X73632Y843280D03*
D13*
X213360Y927100D02*
X215900Y927100D01*
X213360Y927100D02*
X129540Y843280D01*
X73632Y843280D01*
D14*
X1320800Y927100D03*
D13*
X1397000Y850900D01*
X1397000Y749300D01*
D14*
X1397000Y749300D03*
X205740Y767080D03*
D13*
X211859Y767080D02*
X368300Y923521D01*
X211859Y767080D02*
X205740Y767080D01*
X368300Y923521D02*
X368300Y927100D01*
X368300Y952500D01*
D14*
X406400Y901700D03*
D13*
X393700Y901700D01*
X368300Y927100D01*
X368300Y662940D02*
X388810Y642430D01*
X368300Y662940D02*
X368300Y673100D01*
X368300Y698500D01*
X1256710Y723900D02*
X1257300Y723900D01*
X1256710Y723900D02*
X1175240Y642430D01*
X388810Y642430D01*
D14*
X1257300Y723900D03*
D13*
X602170Y657670D02*
X596900Y662940D01*
X596900Y673100D01*
X596900Y698500D01*
X602170Y657670D02*
X1168400Y657670D01*
D14*
X1259076Y747524D03*
D13*
X1258254Y747524D02*
X1168400Y657670D01*
X1258254Y747524D02*
X1259076Y747524D01*
X825500Y698500D02*
X825500Y673100D01*
X825500Y698500D02*
X863600Y736600D01*
X1181100Y736600D01*
D14*
X1181100Y736600D03*
D13*
X1084770Y713930D02*
X1069340Y698500D01*
X1084770Y713930D02*
X1183830Y713930D01*
X1054100Y698500D02*
X1054100Y673100D01*
X1054100Y698500D02*
X1069340Y698500D01*
X1183830Y713930D02*
X1257300Y787400D01*
D14*
X1257300Y787400D03*
X1282700Y838200D03*
D13*
X1282700Y698500D01*
X1282700Y673100D01*
X215900Y673100D02*
X215900Y698500D01*
X215900Y673100D02*
X260350Y628650D01*
X1289050Y628650D01*
X1337310Y676910D01*
D14*
X1403350Y676910D03*
D13*
X1337310Y676910D01*
M02*
