G04 EAGLE Gerber RS-274X export*
G75*
%MOMM*%
%FSLAX34Y34*%
%LPD*%
%INTop Copper*%
%IPPOS*%
%AMOC8*
5,1,8,0,0,1.08239X$1,22.5*%
G01*
G04 Define Apertures*
%ADD10R,1.308000X1.308000*%
%ADD11C,1.308000*%
%ADD12C,2.500000*%
%ADD13R,4.115994X4.115994*%
%ADD14R,1.200000X0.800000*%
%ADD15R,2.150000X1.300000*%
%ADD16C,0.254000*%
%ADD17C,0.756400*%
D10*
X215900Y952500D03*
D11*
X215900Y927100D03*
X215900Y698500D03*
X215900Y673100D03*
X368300Y673100D03*
X368300Y698500D03*
X368300Y901700D03*
X368300Y927100D03*
X368300Y952500D03*
D10*
X444500Y952500D03*
D11*
X444500Y927100D03*
X444500Y698500D03*
X444500Y673100D03*
X596900Y673100D03*
X596900Y698500D03*
X596900Y901700D03*
X596900Y927100D03*
X596900Y952500D03*
D10*
X673100Y952500D03*
D11*
X673100Y927100D03*
X673100Y698500D03*
X673100Y673100D03*
X825500Y673100D03*
X825500Y698500D03*
X825500Y901700D03*
X825500Y927100D03*
X825500Y952500D03*
D10*
X901700Y952500D03*
D11*
X901700Y927100D03*
X901700Y698500D03*
X901700Y673100D03*
X1054100Y673100D03*
X1054100Y698500D03*
X1054100Y901700D03*
X1054100Y927100D03*
X1054100Y952500D03*
D10*
X1130300Y952500D03*
D11*
X1130300Y927100D03*
X1130300Y698500D03*
X1130300Y673100D03*
X1282700Y673100D03*
X1282700Y698500D03*
X1282700Y901700D03*
X1282700Y927100D03*
X1282700Y952500D03*
D12*
X63500Y812800D03*
X152400Y812800D03*
D13*
X139700Y711200D03*
X109700Y664200D03*
X79700Y711200D03*
D14*
X43860Y939800D03*
X43860Y927300D03*
X43860Y914800D03*
X43860Y902300D03*
X43860Y889800D03*
X43860Y877300D03*
D15*
X20910Y958800D03*
X20910Y858300D03*
D14*
X1416640Y868680D03*
X1416640Y881180D03*
X1416640Y893680D03*
X1416640Y906180D03*
X1416640Y918680D03*
X1416640Y931180D03*
D15*
X1439590Y849680D03*
X1439590Y950180D03*
D14*
X1416640Y679450D03*
X1416640Y691950D03*
X1416640Y704450D03*
X1416640Y716950D03*
X1416640Y729450D03*
X1416640Y741950D03*
D15*
X1439590Y660450D03*
X1439590Y760950D03*
D16*
X355600Y889000D02*
X137161Y889000D01*
X355600Y889000D02*
X368300Y901700D01*
X137161Y889000D02*
X86361Y939800D01*
X43860Y939800D01*
X579120Y873760D02*
X596900Y891540D01*
X579120Y873760D02*
X137160Y873760D01*
X596900Y891540D02*
X596900Y901700D01*
X137160Y873760D02*
X83620Y927300D01*
X43860Y927300D01*
X127000Y863600D02*
X787400Y863600D01*
X825500Y901700D01*
X127000Y863600D02*
X75800Y914800D01*
X43860Y914800D01*
X67980Y902300D02*
X119380Y850900D01*
X1026160Y850900D01*
X1054100Y878840D01*
X1054100Y901700D01*
X67980Y902300D02*
X43860Y902300D01*
X60160Y889800D02*
X109220Y840740D01*
X1221740Y840740D01*
X1282700Y901700D01*
X60160Y889800D02*
X43860Y889800D01*
X1130300Y927100D02*
X1130300Y952500D01*
X901700Y952500D02*
X901700Y927100D01*
X901700Y952500D02*
X886270Y967930D01*
X688530Y967930D01*
X673100Y952500D01*
X673100Y927100D01*
X673100Y952500D02*
X657670Y967930D01*
X459930Y967930D01*
X444500Y952500D01*
X444500Y927100D01*
X444500Y952500D02*
X429070Y967930D01*
X231330Y967930D01*
X215900Y952500D01*
X1130300Y952500D02*
X1145730Y967930D01*
X1292670Y967930D01*
X1329420Y931180D01*
X1416640Y931180D01*
X1329420Y931180D02*
X1325340Y927100D01*
X1320800Y927100D01*
D17*
X1320800Y927100D03*
D16*
X1416640Y679450D02*
X1409700Y672510D01*
X1409700Y660400D01*
D17*
X1409700Y660400D03*
D16*
X1130300Y952500D02*
X1114870Y967930D01*
X917130Y967930D01*
X901700Y952500D01*
X63500Y812800D02*
X43860Y832440D01*
X43860Y877300D01*
X63500Y812800D02*
X79700Y796600D01*
X79700Y711200D01*
X596900Y927100D02*
X596900Y952500D01*
X825500Y952500D02*
X825500Y927100D01*
X1054100Y927100D02*
X1054100Y952500D01*
X1282700Y952500D02*
X1282700Y927100D01*
X139700Y749300D02*
X139700Y711200D01*
X368300Y927100D02*
X393700Y901700D01*
X571500Y901700D01*
X596900Y927100D01*
X622300Y901700D01*
X800100Y901700D01*
X825500Y927100D01*
X850900Y901700D01*
X1028700Y901700D01*
X1054100Y927100D01*
X1079500Y901700D01*
X1257300Y901700D01*
X1282700Y927100D01*
X152400Y812800D02*
X152400Y762000D01*
X139700Y749300D01*
X368300Y698500D02*
X368300Y673100D01*
X1335360Y787400D02*
X1416640Y868680D01*
X1335360Y787400D02*
X342900Y787400D01*
X355600Y711200D02*
X368300Y698500D01*
X355600Y711200D02*
X342900Y711200D01*
D17*
X342900Y711200D03*
X342900Y787400D03*
D16*
X584200Y711200D02*
X596900Y698500D01*
X584200Y711200D02*
X571500Y711200D01*
D17*
X571500Y711200D03*
D16*
X571500Y800100D02*
X1320800Y800100D01*
X1401880Y881180D01*
X1416640Y881180D01*
D17*
X571500Y800100D03*
D16*
X596900Y698500D02*
X596900Y673100D01*
X1388980Y893680D02*
X1416640Y893680D01*
X1388980Y893680D02*
X1308100Y812800D01*
X800100Y812800D01*
X825500Y698500D02*
X825500Y673100D01*
X825500Y698500D02*
X812800Y711200D01*
X800100Y711200D01*
D17*
X800100Y711200D03*
X800100Y812800D03*
D16*
X1054100Y698500D02*
X1054100Y673100D01*
X1028700Y825500D02*
X1295400Y825500D01*
X1376080Y906180D01*
X1416640Y906180D01*
X1054100Y698500D02*
X1041400Y711200D01*
X1028700Y711200D01*
D17*
X1028700Y711200D03*
X1028700Y825500D03*
D16*
X1270000Y711200D02*
X1282700Y698500D01*
X1270000Y711200D02*
X1257300Y711200D01*
D17*
X1257300Y711200D03*
X1257300Y838200D03*
D16*
X1337780Y918680D01*
X1416640Y918680D01*
X1282700Y698500D02*
X1282700Y673100D01*
X1383890Y774700D02*
X1416640Y741950D01*
X1383890Y774700D02*
X292100Y774700D01*
X215900Y698500D01*
X215900Y673100D01*
X444500Y698500D02*
X508000Y762000D01*
X1371600Y762000D01*
X1404150Y729450D01*
X1416640Y729450D01*
X444500Y698500D02*
X444500Y673100D01*
X673100Y698500D02*
X723900Y749300D01*
X1358900Y749300D01*
X1391250Y716950D01*
X1416640Y716950D01*
X673100Y698500D02*
X673100Y673100D01*
X901700Y673100D02*
X901700Y698500D01*
X939800Y736600D01*
X1346200Y736600D01*
X1378350Y704450D01*
X1416640Y704450D01*
X1155700Y723900D02*
X1130300Y698500D01*
X1155700Y723900D02*
X1333500Y723900D01*
X1365450Y691950D02*
X1416640Y691950D01*
X1365450Y691950D02*
X1333500Y723900D01*
M02*
