M48
;GenerationSoftware,Autodesk,EAGLE,9.7.0*%
;CreationDate,2021-11-15T08:20:36Z*%
FMAT,2
ICI,OFF
METRIC,TZ,000.000
T4C0.350
T3C0.800
T2C3.100
T1C4.000
%
G90
M71
T1
X136652Y64516
X14351Y96520
T2
X7970Y71120
X10970Y66420
X13970Y71120
T3
X59690Y95250
X67310Y69850
X128270Y95250
X128270Y92710
X128270Y90170
X128270Y69850
X128270Y67310
X113030Y67310
X21590Y95250
X21590Y92710
X21590Y69850
X21590Y67310
X36830Y67310
X36830Y69850
X36830Y90170
X36830Y92710
X36830Y95250
X44450Y95250
X44450Y92710
X44450Y69850
X44450Y67310
X59690Y67310
X59690Y69850
X59690Y90170
X59690Y92710
X113030Y69850
X67310Y95250
X67310Y92710
X113030Y92710
X67310Y67310
X82550Y67310
X82550Y69850
X82550Y90170
X82550Y92710
X82550Y95250
X90170Y95250
X90170Y92710
X90170Y69850
X90170Y67310
X105410Y67310
X105410Y69850
X105410Y90170
X105410Y92710
X105410Y95250
X113030Y95250
T4
X125908Y74752
X125730Y72390
X20574Y76708
X40640Y90170
X140335Y67691
X128270Y83820
X125730Y78740
X118110Y73660
X139700Y74930
X132080Y92710
X7363Y84328
M30