M48
;GenerationSoftware,Autodesk,EAGLE,9.7.0*%
;CreationDate,2022-02-01T02:52:31Z*%
FMAT,2
ICI,OFF
METRIC,TZ,000.000
T3C0.350
T2C3.100
T1C4.000
%
G90
M71
T1
X161417Y64516
X14351Y96520
T2
X7970Y71120
X10970Y66420
X13970Y71120
T3
X97155Y86995
X7620Y89535
X125095Y86995
X6126Y87630
X153035Y86995
X15240Y82550
X168275Y68580
X168275Y92075
X17780Y80010
X69215Y75565
X69215Y78105
X97155Y75565
X97155Y79375
X14605Y91440
X125095Y80645
X153035Y75565
X153035Y81915
X22860Y69215
X163830Y74295
X50800Y69215
X162560Y73025
X78740Y69215
X161290Y71755
X106680Y69215
X160020Y70485
X134620Y69215
X158750Y69215
X10795Y90805
X68580Y87630
X12700Y90805
X41275Y88265
X125095Y75565
M30