G04 EAGLE Gerber RS-274X export*
G75*
%MOMM*%
%FSLAX34Y34*%
%LPD*%
%INSoldermask Bottom*%
%IPPOS*%
%AMOC8*
5,1,8,0,0,1.08239X$1,22.5*%
G01*
G04 Define Apertures*
%ADD10C,4.203200*%
%ADD11R,1.511200X1.511200*%
%ADD12C,1.511200*%
%ADD13R,4.319194X4.319194*%
%ADD14C,0.959600*%
D10*
X143510Y965200D03*
X1366520Y645160D03*
D11*
X215900Y952500D03*
D12*
X215900Y927100D03*
X215900Y698500D03*
X215900Y673100D03*
X368300Y673100D03*
X368300Y698500D03*
X368300Y901700D03*
X368300Y927100D03*
X368300Y952500D03*
D11*
X444500Y952500D03*
D12*
X444500Y927100D03*
X444500Y698500D03*
X444500Y673100D03*
X596900Y673100D03*
X596900Y698500D03*
X596900Y901700D03*
X596900Y927100D03*
X596900Y952500D03*
D11*
X673100Y952500D03*
D12*
X673100Y927100D03*
X673100Y698500D03*
X673100Y673100D03*
X825500Y673100D03*
X825500Y698500D03*
X825500Y901700D03*
X825500Y927100D03*
X825500Y952500D03*
D11*
X901700Y952500D03*
D12*
X901700Y927100D03*
X901700Y698500D03*
X901700Y673100D03*
X1054100Y673100D03*
X1054100Y698500D03*
X1054100Y901700D03*
X1054100Y927100D03*
X1054100Y952500D03*
D11*
X1130300Y952500D03*
D12*
X1130300Y927100D03*
X1130300Y698500D03*
X1130300Y673100D03*
X1282700Y673100D03*
X1282700Y698500D03*
X1282700Y901700D03*
X1282700Y927100D03*
X1282700Y952500D03*
D13*
X139700Y711200D03*
X109700Y664200D03*
X79700Y711200D03*
D14*
X73632Y843280D03*
X1320800Y927100D03*
X1397000Y749300D03*
X205740Y767080D03*
X406400Y901700D03*
X1257300Y723900D03*
X1259076Y747524D03*
X1181100Y736600D03*
X1257300Y787400D03*
X1282700Y838200D03*
X1403350Y676910D03*
M02*
