G04 EAGLE Gerber RS-274X export*
G75*
%MOMM*%
%FSLAX34Y34*%
%LPD*%
%INSoldermask Top*%
%IPPOS*%
%AMOC8*
5,1,8,0,0,1.08239X$1,22.5*%
G01*
G04 Define Apertures*
%ADD10C,4.203200*%
%ADD11R,1.511200X1.511200*%
%ADD12C,1.511200*%
%ADD13C,2.703200*%
%ADD14R,4.319194X4.319194*%
%ADD15R,1.403200X1.003200*%
%ADD16R,2.353200X1.503200*%
%ADD17C,0.959600*%
D10*
X143510Y965200D03*
X1366520Y645160D03*
D11*
X215900Y952500D03*
D12*
X215900Y927100D03*
X215900Y698500D03*
X215900Y673100D03*
X368300Y673100D03*
X368300Y698500D03*
X368300Y901700D03*
X368300Y927100D03*
X368300Y952500D03*
D11*
X444500Y952500D03*
D12*
X444500Y927100D03*
X444500Y698500D03*
X444500Y673100D03*
X596900Y673100D03*
X596900Y698500D03*
X596900Y901700D03*
X596900Y927100D03*
X596900Y952500D03*
D11*
X673100Y952500D03*
D12*
X673100Y927100D03*
X673100Y698500D03*
X673100Y673100D03*
X825500Y673100D03*
X825500Y698500D03*
X825500Y901700D03*
X825500Y927100D03*
X825500Y952500D03*
D11*
X901700Y952500D03*
D12*
X901700Y927100D03*
X901700Y698500D03*
X901700Y673100D03*
X1054100Y673100D03*
X1054100Y698500D03*
X1054100Y901700D03*
X1054100Y927100D03*
X1054100Y952500D03*
D11*
X1130300Y952500D03*
D12*
X1130300Y927100D03*
X1130300Y698500D03*
X1130300Y673100D03*
X1282700Y673100D03*
X1282700Y698500D03*
X1282700Y901700D03*
X1282700Y927100D03*
X1282700Y952500D03*
D13*
X88900Y812800D03*
X165100Y812800D03*
D14*
X139700Y711200D03*
X109700Y664200D03*
X79700Y711200D03*
D15*
X43860Y939800D03*
X43860Y927300D03*
X43860Y914800D03*
X43860Y902300D03*
X43860Y889800D03*
X43860Y877300D03*
D16*
X20910Y958800D03*
X20910Y858300D03*
D15*
X1416640Y868680D03*
X1416640Y881180D03*
X1416640Y893680D03*
X1416640Y906180D03*
X1416640Y918680D03*
X1416640Y931180D03*
D16*
X1439590Y849680D03*
X1439590Y950180D03*
D15*
X1416640Y675640D03*
X1416640Y688140D03*
X1416640Y700640D03*
X1416640Y713140D03*
X1416640Y725640D03*
X1416640Y738140D03*
D16*
X1439590Y656640D03*
X1439590Y757140D03*
D17*
X73632Y843280D03*
X1320800Y927100D03*
X1397000Y749300D03*
X205740Y767080D03*
X406400Y901700D03*
X1257300Y723900D03*
X1259076Y747524D03*
X1181100Y736600D03*
X1257300Y787400D03*
X1282700Y838200D03*
X1403350Y676910D03*
M02*
