M48
;GenerationSoftware,Autodesk,EAGLE,9.7.0*%
;CreationDate,2022-02-04T18:23:01Z*%
FMAT,2
ICI,OFF
METRIC,TZ,000.000
T8C0.350
T7C0.600
T6C1.016
T5C1.020
T4C1.300
T3C2.997
T2C3.100
T1C4.000
%
G90
M71
T1
X130810Y55880
X194310Y97790
T2
X148590Y86360
X143890Y89360
X148590Y92360
T3
X192278Y78003
T4
X177790Y64770
X175790Y58770
X163568Y58770
X163568Y70770
X175790Y70770
X175790Y82900
X163568Y82900
X163568Y94900
X175790Y94900
X177790Y88900
T5
X187960Y79502
X187960Y76502
T6
X138430Y80010
X138430Y85090
X138430Y82550
T7
X145080Y73902
X142540Y73902
X140000Y73902
X137460Y73902
X134920Y73902
X132380Y73902
X129840Y73902
X129840Y65647
X132380Y65647
X134920Y65647
X137460Y65647
X140000Y65647
X142540Y65647
X145080Y65647
T8
X154940Y54610
X139700Y95250
X135636Y60960
X154940Y57150
X135890Y95250
X143256Y60960
X133858Y95250
X133350Y80010
X132055Y82804
M30