G04 EAGLE Gerber RS-274X export*
G75*
%MOMM*%
%FSLAX34Y34*%
%LPD*%
%INSolderpaste Top*%
%IPPOS*%
%AMOC8*
5,1,8,0,0,1.08239X$1,22.5*%
G01*
G04 Define Apertures*
%ADD10R,0.560000X0.629100*%
%ADD11R,0.800000X1.200000*%
%ADD12R,1.300000X2.150000*%
%ADD13R,0.535100X0.644000*%
%ADD14R,0.624800X1.223500*%
%ADD15R,1.223500X0.624800*%
%ADD16R,1.031200X1.420200*%
D10*
X1328654Y820420D03*
X1338346Y820420D03*
D11*
X1384300Y968840D03*
X1371800Y968840D03*
X1359300Y968840D03*
X1346800Y968840D03*
X1334300Y968840D03*
X1321800Y968840D03*
D12*
X1403300Y991790D03*
X1302800Y991790D03*
D13*
X1313175Y838200D03*
X1303025Y838200D03*
X1303025Y820420D03*
X1313175Y820420D03*
X1341125Y901700D03*
X1351275Y901700D03*
X1341125Y919480D03*
X1351275Y919480D03*
X1303025Y800100D03*
X1313175Y800100D03*
X1328425Y850900D03*
X1338575Y850900D03*
D14*
X1317600Y937740D03*
X1298600Y937740D03*
X1308100Y916460D03*
D15*
X1318740Y866800D03*
X1318740Y885800D03*
X1297460Y876300D03*
D13*
X1341125Y939800D03*
X1351275Y939800D03*
X1341125Y883920D03*
X1351275Y883920D03*
D15*
X1391440Y601320D03*
X1391440Y582320D03*
X1412720Y591820D03*
X1467640Y601320D03*
X1467640Y582320D03*
X1488920Y591820D03*
D13*
X1366525Y609600D03*
X1376675Y609600D03*
X1442725Y609600D03*
X1452875Y609600D03*
X1366525Y591820D03*
X1376675Y591820D03*
X1442725Y591820D03*
X1452875Y591820D03*
D16*
X1357325Y571500D03*
X1375715Y571500D03*
X1433525Y571500D03*
X1451915Y571500D03*
M02*
