G04 EAGLE Gerber RS-274X export*
G75*
%MOMM*%
%FSLAX34Y34*%
%LPD*%
%INSoldermask Top*%
%IPPOS*%
%AMOC8*
5,1,8,0,0,1.08239X$1,22.5*%
G01*
G04 Define Apertures*
%ADD10C,4.203200*%
%ADD11R,0.763200X0.832300*%
%ADD12R,4.319194X4.319194*%
%ADD13R,1.003200X1.403200*%
%ADD14R,1.503200X2.353200*%
%ADD15R,1.733200X1.733200*%
%ADD16C,1.733200*%
%ADD17C,3.200400*%
%ADD18C,2.153200*%
%ADD19R,1.311200X1.311200*%
%ADD20C,1.311200*%
%ADD21C,1.727200*%
%ADD22R,0.738300X0.847200*%
%ADD23R,0.828000X1.426700*%
%ADD24R,1.426700X0.828000*%
%ADD25R,1.234400X1.623400*%
%ADD26C,0.959600*%
D10*
X1308100Y558800D03*
X1943100Y977900D03*
D11*
X1328654Y820420D03*
X1338346Y820420D03*
D12*
X1485900Y863600D03*
X1438900Y893600D03*
X1485900Y923600D03*
D13*
X1384300Y968840D03*
X1371800Y968840D03*
X1359300Y968840D03*
X1346800Y968840D03*
X1334300Y968840D03*
X1321800Y968840D03*
D14*
X1403300Y991790D03*
X1302800Y991790D03*
D15*
X1879600Y795020D03*
D16*
X1879600Y765020D03*
D17*
X1922780Y780034D03*
D18*
X1777900Y889000D03*
X1757900Y949000D03*
X1635680Y949000D03*
X1635680Y829000D03*
X1757900Y829000D03*
X1777900Y647700D03*
X1757900Y707700D03*
X1635680Y707700D03*
X1635680Y587700D03*
X1757900Y587700D03*
D19*
X1450800Y739016D03*
D20*
X1425400Y739016D03*
X1400000Y739016D03*
X1374600Y739016D03*
X1349200Y739016D03*
X1323800Y739016D03*
X1298400Y739016D03*
X1298400Y656466D03*
X1323800Y656466D03*
X1349200Y656466D03*
X1374600Y656466D03*
X1400000Y656466D03*
X1425400Y656466D03*
X1450800Y656466D03*
D21*
X1391920Y850900D02*
X1376680Y850900D01*
X1376680Y825500D02*
X1391920Y825500D01*
X1391920Y800100D02*
X1376680Y800100D01*
D22*
X1313175Y838200D03*
X1303025Y838200D03*
X1303025Y820420D03*
X1313175Y820420D03*
X1341125Y901700D03*
X1351275Y901700D03*
X1341125Y919480D03*
X1351275Y919480D03*
X1303025Y800100D03*
X1313175Y800100D03*
X1328425Y850900D03*
X1338575Y850900D03*
D23*
X1317600Y937740D03*
X1298600Y937740D03*
X1308100Y916460D03*
D24*
X1318740Y866800D03*
X1318740Y885800D03*
X1297460Y876300D03*
D22*
X1341125Y939800D03*
X1351275Y939800D03*
X1341125Y883920D03*
X1351275Y883920D03*
D24*
X1391440Y601320D03*
X1391440Y582320D03*
X1412720Y591820D03*
X1467640Y601320D03*
X1467640Y582320D03*
X1488920Y591820D03*
D22*
X1366525Y609600D03*
X1376675Y609600D03*
X1442725Y609600D03*
X1452875Y609600D03*
X1366525Y591820D03*
X1376675Y591820D03*
X1442725Y591820D03*
X1452875Y591820D03*
D25*
X1357325Y571500D03*
X1375715Y571500D03*
X1433525Y571500D03*
X1451915Y571500D03*
D26*
X1320548Y828040D03*
X1333500Y800100D03*
X1338580Y952500D03*
X1432560Y609600D03*
X1358900Y952500D03*
X1356360Y609600D03*
X1397000Y952500D03*
X1549400Y546100D03*
X1549400Y571500D03*
M02*
